<?xml version="1.0" encoding="UTF-8" standalone="no"?>
<svg
   xmlns:dc="http://purl.org/dc/elements/1.1/"
   xmlns:cc="http://creativecommons.org/ns#"
   xmlns:rdf="http://www.w3.org/1999/02/22-rdf-syntax-ns#"
   xmlns:svg="http://www.w3.org/2000/svg"
   xmlns="http://www.w3.org/2000/svg"
   xmlns:sodipodi="http://sodipodi.sourceforge.net/DTD/sodipodi-0.dtd"
   xmlns:inkscape="http://www.inkscape.org/namespaces/inkscape"
   width="191.3993pt"
   height="220.799pt"
   viewBox="0 0 191.3993 220.799"
   version="1.2"
   id="svg39"
   sodipodi:docname="cono.svg"
   inkscape:version="0.92.4 (5da689c313, 2019-01-14)">
  <metadata
     id="metadata45">
    <rdf:RDF>
      <cc:Work
         rdf:about="">
        <dc:format>image/svg+xml</dc:format>
        <dc:type
           rdf:resource="http://purl.org/dc/dcmitype/StillImage" />
        <dc:title></dc:title>
      </cc:Work>
    </rdf:RDF>
  </metadata>
  <defs
     id="defs43" />
  <sodipodi:namedview
     pagecolor="#ffffff"
     bordercolor="#666666"
     borderopacity="1"
     objecttolerance="10"
     gridtolerance="10"
     guidetolerance="10"
     inkscape:pageopacity="0"
     inkscape:pageshadow="2"
     inkscape:window-width="727"
     inkscape:window-height="480"
     id="namedview41"
     showgrid="false"
     inkscape:zoom="0.80163408"
     inkscape:cx="127.59954"
     inkscape:cy="147.19933"
     inkscape:window-x="0"
     inkscape:window-y="0"
     inkscape:window-maximized="0"
     inkscape:current-layer="svg39" />
  <g
     id="surface44">
    <path
       style="fill:none;stroke-width:0.751181;stroke-linecap:butt;stroke-linejoin:miter;stroke:rgb(0%,0%,0%);stroke-opacity:1;stroke-dasharray:0.751181,1.502362;stroke-miterlimit:4;"
       d="M 222.148138 238.64899 C 222.148138 242.641177 202.417669 245.879459 178.085638 245.879459 C 153.7497 245.879459 134.023138 242.641177 134.023138 238.64899 C 134.023138 234.652896 153.7497 231.414615 178.085638 231.414615 C 202.417669 231.414615 222.148138 234.652896 222.148138 238.64899 Z M 222.148138 238.64899 "
       transform="matrix(1,0,0,1,-86.9997,-130.199771)"
       id="path2" />
    <path
       style="fill:none;stroke-width:0.751181;stroke-linecap:butt;stroke-linejoin:miter;stroke:rgb(0%,0%,0%);stroke-opacity:1;stroke-dasharray:0.751181,1.502362;stroke-miterlimit:4;"
       d="M 177.945013 141.477115 L 133.792669 238.508365 "
       transform="matrix(1,0,0,1,-86.9997,-130.199771)"
       id="path4" />
    <path
       style="fill:none;stroke-width:0.751181;stroke-linecap:butt;stroke-linejoin:miter;stroke:rgb(0%,0%,0%);stroke-opacity:1;stroke-dasharray:0.751181,1.502362;stroke-miterlimit:4;"
       d="M 177.945013 141.477115 L 222.09345 238.508365 "
       transform="matrix(1,0,0,1,-86.9997,-130.199771)"
       id="path6" />
    <path
       style="fill:none;stroke-width:0.75;stroke-linecap:butt;stroke-linejoin:miter;stroke:rgb(0%,0%,0%);stroke-opacity:1;stroke-miterlimit:4;"
       d="M 89.644231 335.539615 L 133.792669 238.508365 "
       transform="matrix(1,0,0,1,-86.9997,-130.199771)"
       id="path8" />
    <path
       style="fill:none;stroke-width:0.75;stroke-linecap:butt;stroke-linejoin:miter;stroke:rgb(0%,0%,0%);stroke-opacity:1;stroke-miterlimit:4;"
       d="M 222.09345 238.508365 L 266.245794 335.539615 "
       transform="matrix(1,0,0,1,-86.9997,-130.199771)"
       id="path10" />
    <path
       style="fill:none;stroke-width:0.744988;stroke-linecap:butt;stroke-linejoin:miter;stroke:rgb(0%,0%,0%);stroke-opacity:1;stroke-dasharray:0.744988,1.489977;stroke-miterlimit:4;"
       d="M 265.714544 334.99274 C 265.714544 339.356021 226.417669 342.891177 177.941106 342.891177 C 129.464544 342.891177 90.163763 339.356021 90.163763 334.99274 C 90.163763 330.629459 129.464544 327.094302 177.941106 327.094302 C 226.417669 327.094302 265.714544 330.629459 265.714544 334.99274 Z M 265.714544 334.99274 "
       transform="matrix(1,0,0,1,-86.9997,-130.199771)"
       id="path12" />
    <path
       style="fill:none;stroke-width:0.75;stroke-linecap:butt;stroke-linejoin:miter;stroke:rgb(0%,0%,0%);stroke-opacity:1;stroke-dasharray:0.75,1.5;stroke-miterlimit:4;"
       d="M 177.945013 141.477115 L 177.945013 185.227115 "
       transform="matrix(1,0,0,1,-86.9997,-130.199771)"
       id="path14" />
    <path
       style="fill:none;stroke-width:0.75;stroke-linecap:butt;stroke-linejoin:miter;stroke:rgb(0%,0%,0%);stroke-opacity:1;stroke-miterlimit:4;"
       d="M 170.6247 157.449771 C 172.769231 159.551334 175.640325 159.500552 177.991888 158.988834 "
       transform="matrix(1,0,0,1,-86.9997,-130.199771)"
       id="path16" />
    <path
       style=" stroke:none;fill-rule:nonzero;fill:rgb(0%,0%,0%);fill-opacity:1;"
       d="M 88.542969 35.648438 C 88.542969 34.71875 88.296875 32.746094 86.859375 32.746094 C 84.886719 32.746094 82.71875 36.734375 82.71875 39.964844 C 82.71875 41.296875 83.117188 42.867188 84.398438 42.867188 C 86.394531 42.867188 88.542969 38.816406 88.542969 35.648438 Z M 84.199219 37.574219 C 84.445313 36.6875 84.730469 35.558594 85.308594 34.539063 C 85.683594 33.855469 86.195313 33.058594 86.835938 33.058594 C 87.523438 33.058594 87.609375 33.964844 87.609375 34.761719 C 87.609375 35.472656 87.5 36.179688 87.167969 37.574219 Z M 87.035156 38.039063 C 86.878906 38.683594 86.59375 39.878906 86.039063 40.898438 C 85.550781 41.871094 85.019531 42.558594 84.398438 42.558594 C 83.933594 42.558594 83.648438 42.136719 83.648438 40.832031 C 83.648438 40.230469 83.734375 39.414063 84.089844 38.039063 Z M 87.035156 38.039063 "
       id="path18" />
    <path
       style="fill-rule:nonzero;fill:rgb(0%,0%,100%);fill-opacity:1;stroke-width:0.751181;stroke-linecap:butt;stroke-linejoin:miter;stroke:rgb(0%,0%,0%);stroke-opacity:1;stroke-miterlimit:4;"
       d="M 179.261419 141.551334 C 179.261419 142.406802 178.605169 143.102115 177.788763 143.102115 C 176.976263 143.102115 176.316106 142.406802 176.316106 141.551334 C 176.316106 140.695865 176.976263 140.004459 177.788763 140.004459 C 178.605169 140.004459 179.261419 140.695865 179.261419 141.551334 Z M 179.261419 141.551334 "
       transform="matrix(1,0,0,1,-86.9997,-130.199771)"
       id="path20" />
    <path
       style=" stroke:none;fill-rule:nonzero;fill:rgb(0%,0%,0%);fill-opacity:1;"
       d="M 100.585938 2.792969 C 100.585938 2.726563 100.542969 2.660156 100.453125 2.660156 C 100.296875 2.660156 99.722656 3.210938 99.5 3.632813 C 99.191406 2.859375 98.636719 2.636719 98.171875 2.636719 C 96.511719 2.636719 94.785156 4.71875 94.785156 6.777344 C 94.785156 8.152344 95.601563 9.035156 96.644531 9.035156 C 97.242188 9.035156 97.796875 8.703125 98.304688 8.195313 C 98.171875 8.683594 97.707031 10.585938 97.664063 10.71875 C 97.550781 11.117188 97.441406 11.164063 96.644531 11.183594 C 96.464844 11.183594 96.332031 11.183594 96.332031 11.472656 C 96.332031 11.472656 96.332031 11.628906 96.511719 11.628906 C 96.953125 11.628906 97.460938 11.582031 97.929688 11.582031 C 98.394531 11.582031 98.902344 11.628906 99.390625 11.628906 C 99.457031 11.628906 99.632813 11.628906 99.632813 11.339844 C 99.632813 11.183594 99.5 11.183594 99.257813 11.183594 C 98.59375 11.183594 98.59375 11.097656 98.59375 10.964844 C 98.59375 10.851563 98.613281 10.765625 98.636719 10.652344 Z M 96.6875 8.726563 C 95.824219 8.726563 95.78125 7.640625 95.78125 7.398438 C 95.78125 6.710938 96.179688 5.183594 96.421875 4.585938 C 96.863281 3.542969 97.597656 2.945313 98.171875 2.945313 C 99.101563 2.945313 99.300781 4.097656 99.300781 4.1875 C 99.300781 4.273438 98.527344 7.375 98.480469 7.421875 C 98.261719 7.820313 97.460938 8.726563 96.6875 8.726563 Z M 96.6875 8.726563 "
       id="path22" />
    <path
       style=" stroke:none;fill-rule:nonzero;fill:rgb(0%,0%,0%);fill-opacity:1;"
       d="M 93.722656 147.285156 C 93.921875 147.285156 94.429688 147.285156 94.429688 146.800781 C 94.429688 146.46875 94.121094 146.46875 93.878906 146.46875 L 90.644531 146.46875 C 88.519531 146.46875 86.945313 148.792969 86.945313 150.476563 C 86.945313 151.714844 87.785156 152.710938 89.070313 152.710938 C 90.730469 152.710938 92.613281 151.007813 92.613281 148.835938 C 92.613281 148.59375 92.613281 147.90625 92.171875 147.285156 Z M 89.09375 152.402344 C 88.386719 152.402344 87.832031 151.894531 87.832031 150.875 C 87.832031 150.453125 87.984375 149.300781 88.496094 148.460938 C 89.09375 147.484375 89.933594 147.285156 90.421875 147.285156 C 91.597656 147.285156 91.707031 148.214844 91.707031 148.660156 C 91.707031 149.324219 91.417969 150.476563 90.953125 151.207031 C 90.398438 152.027344 89.625 152.402344 89.09375 152.402344 Z M 89.09375 152.402344 "
       id="path24" />
    <path
       style=" stroke:none;fill-rule:nonzero;fill:rgb(0%,0%,0%);fill-opacity:1;"
       d="M 125.230469 50.824219 C 125.339844 50.3125 125.382813 50.15625 126.714844 50.15625 C 127.132813 50.15625 127.246094 50.15625 127.246094 49.890625 C 127.246094 49.714844 127.089844 49.714844 127.023438 49.714844 C 126.558594 49.714844 125.40625 49.757813 124.941406 49.757813 C 124.519531 49.757813 123.480469 49.714844 123.058594 49.714844 C 122.972656 49.714844 122.792969 49.714844 122.792969 50.003906 C 122.792969 50.15625 122.925781 50.15625 123.191406 50.15625 C 123.214844 50.15625 123.480469 50.15625 123.722656 50.179688 C 123.96875 50.222656 124.101563 50.222656 124.101563 50.421875 C 124.101563 50.46875 124.101563 50.511719 124.054688 50.6875 L 122.152344 58.261719 C 122.019531 58.816406 121.996094 58.925781 120.867188 58.925781 C 120.625 58.925781 120.492188 58.925781 120.492188 59.214844 C 120.492188 59.371094 120.625 59.371094 120.867188 59.371094 L 127.421875 59.371094 C 127.753906 59.371094 127.753906 59.371094 127.84375 59.125 L 128.972656 56.070313 C 129.015625 55.914063 129.015625 55.894531 129.015625 55.871094 C 129.015625 55.828125 128.972656 55.714844 128.863281 55.714844 C 128.730469 55.714844 128.707031 55.804688 128.617188 56.027344 C 128.128906 57.3125 127.511719 58.925781 125.074219 58.925781 L 123.746094 58.925781 C 123.546875 58.925781 123.503906 58.925781 123.4375 58.925781 C 123.28125 58.90625 123.238281 58.882813 123.238281 58.773438 C 123.238281 58.726563 123.238281 58.707031 123.304688 58.460938 Z M 125.230469 50.824219 "
       id="path26" />
    <path
       style=" stroke:none;fill-rule:nonzero;fill:rgb(0%,0%,0%);fill-opacity:1;"
       d="M 135.746094 49.316406 C 135.8125 49.117188 135.8125 49.074219 135.8125 49.050781 C 135.8125 48.894531 135.703125 48.761719 135.546875 48.761719 C 135.4375 48.761719 135.347656 48.808594 135.304688 48.894531 L 130.386719 62.359375 C 130.320313 62.558594 130.320313 62.605469 130.320313 62.625 C 130.320313 62.78125 130.453125 62.914063 130.609375 62.914063 C 130.789063 62.914063 130.832031 62.804688 130.921875 62.558594 Z M 135.746094 49.316406 "
       id="path28" />
    <path
       style=" stroke:none;fill-rule:nonzero;fill:rgb(0%,0%,0%);fill-opacity:1;"
       d="M 138.398438 58.285156 L 139.90625 56.824219 C 142.097656 54.875 142.941406 54.121094 142.941406 52.703125 C 142.941406 51.089844 141.675781 49.957031 139.949219 49.957031 C 138.355469 49.957031 137.316406 51.265625 137.316406 52.527344 C 137.316406 53.300781 138.023438 53.300781 138.066406 53.300781 C 138.3125 53.300781 138.796875 53.148438 138.796875 52.550781 C 138.796875 52.195313 138.53125 51.820313 138.046875 51.820313 C 137.933594 51.820313 137.914063 51.820313 137.867188 51.839844 C 138.179688 50.910156 138.953125 50.402344 139.773438 50.402344 C 141.058594 50.402344 141.65625 51.554688 141.65625 52.703125 C 141.65625 53.835938 140.96875 54.941406 140.171875 55.828125 L 137.46875 58.839844 C 137.316406 58.992188 137.316406 59.039063 137.316406 59.371094 L 142.5625 59.371094 L 142.941406 56.914063 L 142.605469 56.914063 C 142.519531 57.332031 142.429688 57.953125 142.273438 58.175781 C 142.1875 58.285156 141.257813 58.285156 140.945313 58.285156 Z M 138.398438 58.285156 "
       id="path30" />
    <path
       style=" stroke:none;fill-rule:nonzero;fill:rgb(0%,0%,0%);fill-opacity:1;"
       d="M 165.050781 134.109375 C 165.160156 133.597656 165.207031 133.441406 166.535156 133.441406 C 166.953125 133.441406 167.066406 133.441406 167.066406 133.175781 C 167.066406 133 166.910156 133 166.84375 133 C 166.378906 133 165.226563 133.042969 164.761719 133.042969 C 164.34375 133.042969 163.300781 133 162.878906 133 C 162.792969 133 162.613281 133 162.613281 133.289063 C 162.613281 133.441406 162.746094 133.441406 163.011719 133.441406 C 163.035156 133.441406 163.300781 133.441406 163.542969 133.464844 C 163.789063 133.507813 163.921875 133.507813 163.921875 133.707031 C 163.921875 133.753906 163.921875 133.796875 163.875 133.972656 L 161.972656 141.546875 C 161.839844 142.101563 161.816406 142.210938 160.6875 142.210938 C 160.445313 142.210938 160.3125 142.210938 160.3125 142.5 C 160.3125 142.65625 160.445313 142.65625 160.6875 142.65625 L 167.242188 142.65625 C 167.574219 142.65625 167.574219 142.65625 167.664063 142.410156 L 168.792969 139.355469 C 168.835938 139.199219 168.835938 139.179688 168.835938 139.15625 C 168.835938 139.113281 168.792969 139 168.683594 139 C 168.550781 139 168.527344 139.089844 168.4375 139.3125 C 167.953125 140.597656 167.332031 142.210938 164.894531 142.210938 L 163.566406 142.210938 C 163.367188 142.210938 163.324219 142.210938 163.257813 142.210938 C 163.101563 142.191406 163.058594 142.167969 163.058594 142.058594 C 163.058594 142.011719 163.058594 141.992188 163.125 141.746094 Z M 165.050781 134.109375 "
       id="path32" />
    <path
       style=" stroke:none;fill-rule:nonzero;fill:rgb(0%,0%,0%);fill-opacity:1;"
       d="M 175.570313 132.601563 C 175.636719 132.402344 175.636719 132.359375 175.636719 132.335938 C 175.636719 132.179688 175.523438 132.046875 175.371094 132.046875 C 175.257813 132.046875 175.171875 132.09375 175.125 132.179688 L 170.210938 145.644531 C 170.144531 145.84375 170.144531 145.890625 170.144531 145.910156 C 170.144531 146.066406 170.277344 146.199219 170.429688 146.199219 C 170.609375 146.199219 170.652344 146.089844 170.742188 145.84375 Z M 175.570313 132.601563 "
       id="path34" />
    <path
       style=" stroke:none;fill-rule:nonzero;fill:rgb(0%,0%,0%);fill-opacity:1;"
       d="M 178.21875 141.570313 L 179.726563 140.109375 C 181.917969 138.160156 182.761719 137.40625 182.761719 135.988281 C 182.761719 134.375 181.5 133.242188 179.769531 133.242188 C 178.175781 133.242188 177.136719 134.550781 177.136719 135.8125 C 177.136719 136.585938 177.84375 136.585938 177.886719 136.585938 C 178.132813 136.585938 178.621094 136.433594 178.621094 135.835938 C 178.621094 135.480469 178.351563 135.105469 177.867188 135.105469 C 177.753906 135.105469 177.734375 135.105469 177.6875 135.125 C 178 134.195313 178.773438 133.6875 179.59375 133.6875 C 180.878906 133.6875 181.476563 134.839844 181.476563 135.988281 C 181.476563 137.121094 180.789063 138.226563 179.992188 139.113281 L 177.289063 142.125 C 177.136719 142.277344 177.136719 142.324219 177.136719 142.65625 L 182.382813 142.65625 L 182.761719 140.199219 L 182.429688 140.199219 C 182.339844 140.617188 182.25 141.238281 182.097656 141.460938 C 182.007813 141.570313 181.078125 141.570313 180.765625 141.570313 Z M 178.21875 141.570313 "
       id="path36" />
  </g>
</svg>
