<?xml version="1.0" encoding="UTF-8" standalone="no"?>
<svg
   xmlns:dc="http://purl.org/dc/elements/1.1/"
   xmlns:cc="http://creativecommons.org/ns#"
   xmlns:rdf="http://www.w3.org/1999/02/22-rdf-syntax-ns#"
   xmlns:svg="http://www.w3.org/2000/svg"
   xmlns="http://www.w3.org/2000/svg"
   xmlns:sodipodi="http://sodipodi.sourceforge.net/DTD/sodipodi-0.dtd"
   xmlns:inkscape="http://www.inkscape.org/namespaces/inkscape"
   width="271.301pt"
   height="149.635pt"
   viewBox="0 0 271.301 149.635"
   version="1.2"
   id="svg27"
   sodipodi:docname="sheet.svg"
   inkscape:version="0.92.4 (5da689c313, 2019-01-14)">
  <metadata
     id="metadata33">
    <rdf:RDF>
      <cc:Work
         rdf:about="">
        <dc:format>image/svg+xml</dc:format>
        <dc:type
           rdf:resource="http://purl.org/dc/dcmitype/StillImage" />
        <dc:title></dc:title>
      </cc:Work>
    </rdf:RDF>
  </metadata>
  <defs
     id="defs31" />
  <sodipodi:namedview
     pagecolor="#ffffff"
     bordercolor="#666666"
     borderopacity="1"
     objecttolerance="10"
     gridtolerance="10"
     guidetolerance="10"
     inkscape:pageopacity="0"
     inkscape:pageshadow="2"
     inkscape:window-width="727"
     inkscape:window-height="480"
     id="namedview29"
     showgrid="false"
     inkscape:zoom="1.1828784"
     inkscape:cx="180.86733"
     inkscape:cy="99.756663"
     inkscape:window-x="0"
     inkscape:window-y="0"
     inkscape:window-maximized="0"
     inkscape:current-layer="svg27" />
  <g
     id="surface32">
    <path
       style=" stroke:none;fill-rule:nonzero;fill:rgb(0%,0%,0%);fill-opacity:1;"
       d="M 26.511719 36.21875 C 26.601563 35.863281 26.933594 34.554688 27.910156 34.554688 C 27.976563 34.554688 28.328125 34.554688 28.617188 34.734375 C 28.21875 34.820313 27.953125 35.152344 27.953125 35.507813 C 27.953125 35.730469 28.109375 35.996094 28.484375 35.996094 C 28.792969 35.996094 29.238281 35.75 29.238281 35.175781 C 29.238281 34.445313 28.417969 34.246094 27.929688 34.246094 C 27.109375 34.246094 26.625 35 26.445313 35.308594 C 26.09375 34.378906 25.339844 34.246094 24.917969 34.246094 C 23.457031 34.246094 22.636719 36.0625 22.636719 36.417969 C 22.636719 36.570313 22.792969 36.570313 22.816406 36.570313 C 22.925781 36.570313 22.96875 36.527344 22.992188 36.417969 C 23.480469 34.910156 24.410156 34.554688 24.894531 34.554688 C 25.164063 34.554688 25.648438 34.6875 25.648438 35.507813 C 25.648438 35.949219 25.40625 36.882813 24.894531 38.875 C 24.675781 39.738281 24.164063 40.335938 23.546875 40.335938 C 23.457031 40.335938 23.148438 40.335938 22.835938 40.160156 C 23.191406 40.070313 23.5 39.78125 23.5 39.382813 C 23.5 39.007813 23.191406 38.898438 22.992188 38.898438 C 22.550781 38.898438 22.21875 39.25 22.21875 39.714844 C 22.21875 40.359375 22.902344 40.644531 23.523438 40.644531 C 24.476563 40.644531 24.984375 39.648438 25.007813 39.582031 C 25.183594 40.09375 25.695313 40.644531 26.535156 40.644531 C 27.996094 40.644531 28.792969 38.828125 28.792969 38.476563 C 28.792969 38.320313 28.683594 38.320313 28.640625 38.320313 C 28.507813 38.320313 28.484375 38.386719 28.441406 38.476563 C 27.976563 40.003906 27.023438 40.335938 26.578125 40.335938 C 26.027344 40.335938 25.804688 39.894531 25.804688 39.40625 C 25.804688 39.097656 25.871094 38.785156 26.027344 38.164063 Z M 26.511719 36.21875 "
       id="path2" />
    <path
       style=" stroke:none;fill-rule:nonzero;fill:rgb(0%,0%,0%);fill-opacity:1;"
       d="M 141.988281 21.28125 C 141.855469 21.832031 141.8125 21.945313 140.703125 21.945313 C 140.460938 21.945313 140.328125 21.945313 140.328125 22.230469 C 140.328125 22.386719 140.460938 22.386719 140.703125 22.386719 L 145.753906 22.386719 C 147.988281 22.386719 149.648438 20.726563 149.648438 19.332031 C 149.648438 18.3125 148.832031 17.492188 147.457031 17.339844 C 148.917969 17.074219 150.402344 16.03125 150.402344 14.679688 C 150.402344 13.640625 149.472656 12.730469 147.789063 12.730469 L 143.027344 12.730469 C 142.761719 12.730469 142.628906 12.730469 142.628906 13.019531 C 142.628906 13.175781 142.761719 13.175781 143.027344 13.175781 C 143.050781 13.175781 143.316406 13.175781 143.558594 13.195313 C 143.804688 13.242188 143.9375 13.242188 143.9375 13.441406 C 143.9375 13.484375 143.914063 13.527344 143.890625 13.707031 Z M 144.113281 17.207031 L 145 13.707031 C 145.132813 13.21875 145.15625 13.175781 145.753906 13.175781 L 147.589844 13.175781 C 148.832031 13.175781 149.117188 14.015625 149.117188 14.636719 C 149.117188 15.875 147.902344 17.207031 146.195313 17.207031 Z M 143.492188 21.945313 C 143.292969 21.945313 143.273438 21.945313 143.183594 21.945313 C 143.027344 21.921875 142.984375 21.898438 142.984375 21.789063 C 142.984375 21.746094 142.984375 21.722656 143.074219 21.480469 L 144.046875 17.539063 L 146.703125 17.539063 C 148.054688 17.539063 148.34375 18.578125 148.34375 19.175781 C 148.34375 20.570313 147.082031 21.945313 145.398438 21.945313 Z M 143.492188 21.945313 "
       id="path4" />
    <path
       style=" stroke:none;fill-rule:nonzero;fill:rgb(0%,0%,0%);fill-opacity:1;"
       d="M 213.046875 27.539063 C 213 27.714844 213 27.738281 213 27.78125 C 213 27.980469 213.15625 28.160156 213.402344 28.160156 C 213.6875 28.160156 213.867188 27.894531 213.886719 27.847656 C 213.976563 27.738281 214.417969 25.832031 214.796875 24.304688 C 215.082031 24.882813 215.527344 25.257813 216.191406 25.257813 C 217.851563 25.257813 219.667969 23.265625 219.667969 21.160156 C 219.667969 19.65625 218.738281 18.859375 217.71875 18.859375 C 216.347656 18.859375 214.863281 20.273438 214.441406 22.003906 Z M 216.191406 24.949219 C 215.195313 24.949219 214.972656 23.820313 214.972656 23.6875 C 214.972656 23.640625 215.039063 23.351563 215.082031 23.175781 C 215.480469 21.582031 215.613281 21.074219 215.925781 20.519531 C 216.546875 19.476563 217.253906 19.167969 217.675781 19.167969 C 218.207031 19.167969 218.648438 19.589844 218.648438 20.5625 C 218.648438 21.339844 218.25 22.910156 217.875 23.597656 C 217.410156 24.503906 216.722656 24.949219 216.191406 24.949219 Z M 216.191406 24.949219 "
       id="path6" />
    <path
       style=" stroke:none;fill-rule:nonzero;fill:rgb(0%,0%,0%);fill-opacity:1;"
       d="M 129.96875 58.164063 C 129.414063 59.09375 128.859375 59.292969 128.242188 59.339844 C 128.0625 59.359375 127.929688 59.359375 127.929688 59.625 C 127.929688 59.714844 128.019531 59.78125 128.128906 59.78125 C 128.507813 59.78125 128.949219 59.738281 129.324219 59.738281 C 129.8125 59.738281 130.300781 59.78125 130.742188 59.78125 C 130.832031 59.78125 131.007813 59.78125 131.007813 59.515625 C 131.007813 59.359375 130.898438 59.339844 130.789063 59.339844 C 130.476563 59.316406 130.125 59.207031 130.125 58.851563 C 130.125 58.675781 130.210938 58.519531 130.324219 58.320313 L 131.40625 56.527344 L 134.949219 56.527344 C 134.972656 56.8125 135.171875 58.742188 135.171875 58.875 C 135.171875 59.292969 134.441406 59.339844 134.152344 59.339844 C 133.953125 59.339844 133.820313 59.339844 133.820313 59.625 C 133.820313 59.78125 133.976563 59.78125 134.019531 59.78125 C 134.597656 59.78125 135.195313 59.738281 135.769531 59.738281 C 136.125 59.738281 137.03125 59.78125 137.386719 59.78125 C 137.453125 59.78125 137.628906 59.78125 137.628906 59.492188 C 137.628906 59.339844 137.496094 59.339844 137.296875 59.339844 C 136.433594 59.339844 136.433594 59.25 136.390625 58.828125 L 135.527344 50.015625 C 135.503906 49.726563 135.503906 49.660156 135.261719 49.660156 C 135.039063 49.660156 134.972656 49.773438 134.882813 49.90625 Z M 131.671875 56.082031 L 134.441406 51.410156 L 134.90625 56.082031 Z M 131.671875 56.082031 "
       id="path8" />
    <path
       style=" stroke:none;fill-rule:nonzero;fill:rgb(0%,0%,0%);fill-opacity:1;"
       d="M 136.707031 130.367188 C 136.664063 130.542969 136.664063 130.566406 136.664063 130.609375 C 136.664063 130.808594 136.820313 130.988281 137.0625 130.988281 C 137.351563 130.988281 137.527344 130.722656 137.550781 130.675781 C 137.640625 130.566406 138.082031 128.664063 138.457031 127.132813 C 138.746094 127.710938 139.1875 128.085938 139.851563 128.085938 C 141.515625 128.085938 143.332031 126.09375 143.332031 123.988281 C 143.332031 122.484375 142.398438 121.6875 141.382813 121.6875 C 140.007813 121.6875 138.523438 123.105469 138.105469 124.832031 Z M 139.851563 127.777344 C 138.855469 127.777344 138.636719 126.648438 138.636719 126.515625 C 138.636719 126.46875 138.703125 126.183594 138.746094 126.003906 C 139.144531 124.410156 139.277344 123.902344 139.585938 123.347656 C 140.207031 122.304688 140.917969 121.996094 141.335938 121.996094 C 141.867188 121.996094 142.3125 122.417969 142.3125 123.390625 C 142.3125 124.167969 141.914063 125.738281 141.535156 126.425781 C 141.070313 127.332031 140.386719 127.777344 139.851563 127.777344 Z M 139.851563 127.777344 "
       id="path10" />
    <path
       style=" stroke:none;fill-rule:nonzero;fill:rgb(0%,0%,0%);fill-opacity:1;"
       d="M 148.636719 126.90625 C 148.636719 125.820313 148.503906 125.023438 148.058594 124.335938 C 147.75 123.894531 147.128906 123.496094 146.355469 123.496094 C 144.050781 123.496094 144.050781 126.195313 144.050781 126.90625 C 144.050781 127.613281 144.050781 130.25 146.355469 130.25 C 148.636719 130.25 148.636719 127.613281 148.636719 126.90625 Z M 146.355469 129.960938 C 145.890625 129.960938 145.292969 129.695313 145.09375 128.898438 C 144.960938 128.324219 144.960938 127.503906 144.960938 126.773438 C 144.960938 126.042969 144.960938 125.289063 145.09375 124.757813 C 145.316406 123.980469 145.933594 123.761719 146.355469 123.761719 C 146.886719 123.761719 147.394531 124.09375 147.574219 124.667969 C 147.726563 125.199219 147.75 125.910156 147.75 126.773438 C 147.75 127.503906 147.75 128.234375 147.617188 128.855469 C 147.417969 129.761719 146.753906 129.960938 146.355469 129.960938 Z M 146.355469 129.960938 "
       id="path12" />
    <path
       style=" stroke:none;fill-rule:nonzero;fill:rgb(0%,0%,0%);fill-opacity:1;"
       d="M 152.433594 88.035156 C 152.523438 87.703125 152.566406 87.570313 152.832031 87.523438 C 152.964844 87.503906 153.410156 87.503906 153.695313 87.503906 C 154.691406 87.503906 156.265625 87.503906 156.265625 88.898438 C 156.265625 89.386719 156.042969 90.359375 155.492188 90.914063 C 155.113281 91.265625 154.382813 91.734375 153.097656 91.734375 L 151.527344 91.734375 Z M 154.472656 91.910156 C 155.910156 91.597656 157.570313 90.601563 157.570313 89.1875 C 157.570313 87.96875 156.308594 87.058594 154.449219 87.058594 L 150.441406 87.058594 C 150.152344 87.058594 150.019531 87.058594 150.019531 87.347656 C 150.019531 87.503906 150.152344 87.503906 150.417969 87.503906 C 150.441406 87.503906 150.707031 87.503906 150.949219 87.523438 C 151.214844 87.570313 151.328125 87.570313 151.328125 87.769531 C 151.328125 87.8125 151.328125 87.855469 151.28125 88.035156 L 149.378906 95.609375 C 149.246094 96.160156 149.222656 96.273438 148.09375 96.273438 C 147.851563 96.273438 147.71875 96.273438 147.71875 96.558594 C 147.71875 96.714844 147.894531 96.714844 147.917969 96.714844 C 148.316406 96.714844 149.3125 96.671875 149.6875 96.671875 C 150.085938 96.671875 151.105469 96.714844 151.503906 96.714844 C 151.613281 96.714844 151.769531 96.714844 151.769531 96.425781 C 151.769531 96.273438 151.660156 96.273438 151.371094 96.273438 C 150.863281 96.273438 150.464844 96.273438 150.464844 96.027344 C 150.464844 95.941406 150.484375 95.875 150.507813 95.785156 L 151.4375 92.042969 L 153.121094 92.042969 C 154.40625 92.042969 154.648438 92.839844 154.648438 93.328125 C 154.648438 93.527344 154.539063 93.96875 154.449219 94.300781 C 154.359375 94.699219 154.226563 95.210938 154.226563 95.496094 C 154.226563 97.023438 155.933594 97.023438 156.109375 97.023438 C 157.304688 97.023438 157.816406 95.609375 157.816406 95.410156 C 157.816406 95.230469 157.660156 95.230469 157.636719 95.230469 C 157.503906 95.230469 157.484375 95.320313 157.460938 95.429688 C 157.105469 96.472656 156.488281 96.714844 156.175781 96.714844 C 155.710938 96.714844 155.601563 96.40625 155.601563 95.851563 C 155.601563 95.410156 155.691406 94.699219 155.757813 94.234375 C 155.777344 94.035156 155.800781 93.769531 155.800781 93.570313 C 155.800781 92.484375 154.847656 92.042969 154.472656 91.910156 Z M 154.472656 91.910156 "
       id="path14" />
    <path
       style="fill:none;stroke-width:0.751181;stroke-linecap:butt;stroke-linejoin:miter;stroke:rgb(0%,0%,0%);stroke-opacity:1;stroke-miterlimit:4;"
       d="M 222.011188 200.948146 L 438.686969 200.948146 L 438.686969 211.174709 L 222.011188 211.174709 Z M 222.011188 200.948146 "
       transform="matrix(1,0,0,1,-187.394,-169.213771)"
       id="path16" />
    <path
       style="fill-rule:nonzero;fill:rgb(0%,0%,0%);fill-opacity:1;stroke-width:0.751181;stroke-linecap:butt;stroke-linejoin:miter;stroke:rgb(0%,0%,0%);stroke-opacity:1;stroke-miterlimit:4;"
       d="M 331.960406 200.424709 C 331.960406 201.655177 330.940875 202.651271 329.686969 202.651271 C 328.433063 202.651271 327.413531 201.655177 327.413531 200.424709 C 327.413531 199.198146 328.433063 198.202052 329.686969 198.202052 C 330.940875 198.202052 331.960406 199.198146 331.960406 200.424709 Z M 331.960406 200.424709 "
       transform="matrix(1,0,0,1,-187.394,-169.213771)"
       id="path18" />
    <path
       style="fill-rule:nonzero;fill:rgb(0%,0%,0%);fill-opacity:1;stroke-width:0.751181;stroke-linecap:butt;stroke-linejoin:miter;stroke:rgb(0%,0%,0%);stroke-opacity:1;stroke-miterlimit:4;"
       d="M 331.866656 210.971584 C 331.866656 212.202052 330.847125 213.198146 329.593219 213.198146 C 328.335406 213.198146 327.319781 212.202052 327.319781 210.971584 C 327.319781 209.745021 328.335406 208.748927 329.593219 208.748927 C 330.847125 208.748927 331.866656 209.745021 331.866656 210.971584 Z M 331.866656 210.971584 "
       transform="matrix(1,0,0,1,-187.394,-169.213771)"
       id="path20" />
    <path
       style="fill:none;stroke-width:0.74059;stroke-linecap:butt;stroke-linejoin:miter;stroke:rgb(0%,0%,0%);stroke-opacity:1;stroke-miterlimit:4;"
       d="M 381.065875 261.577052 C 381.065875 289.241115 358.335406 311.670802 330.30025 311.670802 C 302.265094 311.670802 279.538531 289.241115 279.538531 261.577052 C 279.538531 233.909084 302.265094 211.483302 330.30025 211.483302 C 358.335406 211.483302 381.065875 233.909084 381.065875 261.577052 Z M 381.065875 261.577052 "
       transform="matrix(1,0,0,1,-187.394,-169.213771)"
       id="path22" />
    <path
       style="fill:none;stroke-width:0.751181;stroke-linecap:butt;stroke-linejoin:miter;stroke:rgb(0%,0%,0%);stroke-opacity:1;stroke-dasharray:0.751181,1.502362;stroke-miterlimit:4;"
       d="M 329.749469 211.553615 L 329.749469 263.260646 "
       transform="matrix(1,0,0,1,-187.394,-169.213771)"
       id="path24" />
  </g>
</svg>
