<?xml version="1.0" encoding="UTF-8" standalone="no"?>
<svg
   xmlns:dc="http://purl.org/dc/elements/1.1/"
   xmlns:cc="http://creativecommons.org/ns#"
   xmlns:rdf="http://www.w3.org/1999/02/22-rdf-syntax-ns#"
   xmlns:svg="http://www.w3.org/2000/svg"
   xmlns="http://www.w3.org/2000/svg"
   xmlns:sodipodi="http://sodipodi.sourceforge.net/DTD/sodipodi-0.dtd"
   xmlns:inkscape="http://www.inkscape.org/namespaces/inkscape"
   width="100.874pt"
   height="112.875pt"
   viewBox="0 0 100.874 112.875"
   version="1.2"
   id="svg34"
   sodipodi:docname="sph.svg"
   inkscape:version="0.92.4 (5da689c313, 2019-01-14)">
  <metadata
     id="metadata38">
    <rdf:RDF>
      <cc:Work
         rdf:about="">
        <dc:format>image/svg+xml</dc:format>
        <dc:type
           rdf:resource="http://purl.org/dc/dcmitype/StillImage" />
        <dc:title></dc:title>
      </cc:Work>
    </rdf:RDF>
  </metadata>
  <sodipodi:namedview
     pagecolor="#ffffff"
     bordercolor="#666666"
     borderopacity="1"
     objecttolerance="10"
     gridtolerance="10"
     guidetolerance="10"
     inkscape:pageopacity="0"
     inkscape:pageshadow="2"
     inkscape:window-width="727"
     inkscape:window-height="480"
     id="namedview36"
     showgrid="false"
     inkscape:zoom="1.5681063"
     inkscape:cx="67.249334"
     inkscape:cy="75.25"
     inkscape:window-x="0"
     inkscape:window-y="0"
     inkscape:window-maximized="0"
     inkscape:current-layer="svg34" />
  <defs
     id="defs5">
    <clipPath
       id="clip1">
      <path
         d="M 0 0 L 100.875 0 L 100.875 98 L 0 98 Z M 0 0 "
         id="path2" />
    </clipPath>
  </defs>
  <g
     id="surface34">
    <path
       style=" stroke:none;fill-rule:nonzero;fill:rgb(0%,0%,0%);fill-opacity:0.0982143;"
       d="M 95.777344 48.855469 C 95.777344 73.121094 75.511719 92.796875 50.511719 92.796875 C 25.507813 92.796875 5.242188 73.121094 5.242188 48.855469 C 5.242188 24.585938 25.507813 4.914063 50.511719 4.914063 C 75.511719 4.914063 95.777344 24.585938 95.777344 48.855469 Z M 95.777344 48.855469 "
       id="path7" />
    <g
       clip-path="url(#clip1)"
       clip-rule="nonzero"
       id="g11">
      <path
         style="fill:none;stroke-width:0.751181;stroke-linecap:butt;stroke-linejoin:miter;stroke:rgb(0%,0%,0%);stroke-opacity:1;stroke-miterlimit:4;"
         d="M 313.652344 291.10524 C 313.652344 315.370865 293.386719 335.046646 268.386719 335.046646 C 243.382813 335.046646 223.117188 315.370865 223.117188 291.10524 C 223.117188 266.835709 243.382813 247.163834 268.386719 247.163834 C 293.386719 247.163834 313.652344 266.835709 313.652344 291.10524 Z M 313.652344 291.10524 "
         transform="matrix(1,0,0,1,-217.875,-242.249771)"
         id="path9" />
    </g>
    <path
       style="fill-rule:nonzero;fill:rgb(100%,100%,100%);fill-opacity:1;stroke-width:0.751181;stroke-linecap:butt;stroke-linejoin:miter;stroke:rgb(0%,0%,0%);stroke-opacity:1;stroke-miterlimit:4;"
       d="M 283.71875 264.640396 C 283.71875 274.10524 276.132813 281.781021 266.777344 281.781021 C 257.421875 281.781021 249.835938 274.10524 249.835938 264.640396 C 249.835938 255.171646 257.421875 247.495865 266.777344 247.495865 C 276.132813 247.495865 283.71875 255.171646 283.71875 264.640396 Z M 283.71875 264.640396 "
       transform="matrix(1,0,0,1,-217.875,-242.249771)"
       id="path13" />
    <path
       style="fill:none;stroke-width:0.698894;stroke-linecap:butt;stroke-linejoin:miter;stroke:rgb(0%,0%,0%);stroke-opacity:1;stroke-miterlimit:4;"
       d="M 265.269531 282.800552 L 232.136719 314.538834 "
       transform="matrix(1,0,0,1,-217.875,-242.249771)"
       id="path15" />
    <path
       style="fill-rule:evenodd;fill:rgb(0%,0%,0%);fill-opacity:1;stroke-width:0.269173;stroke-linecap:butt;stroke-linejoin:miter;stroke:rgb(0%,0%,0%);stroke-opacity:1;stroke-miterlimit:4;"
       d="M 4.954111 -279.988549 L 5.963887 -280.997836 L 2.432255 -279.9902 L 5.965349 -278.98081 Z M 4.954111 -279.988549 "
       transform="matrix(-1,0.957911,-0.957911,-1,-217.875,-242.249771)"
       id="path17" />
    <path
       style="fill-rule:evenodd;fill:rgb(0%,0%,0%);fill-opacity:1;stroke-width:0.269173;stroke-linecap:butt;stroke-linejoin:miter;stroke:rgb(0%,0%,0%);stroke-opacity:1;stroke-miterlimit:4;"
       d="M -34.050832 279.987573 L -33.041056 278.978286 L -36.57464 279.987959 L -33.041545 280.997349 Z M -34.050832 279.987573 "
       transform="matrix(1,-0.957911,0.957911,1,-217.875,-242.249771)"
       id="path19" />
    <path
       style="fill-rule:nonzero;fill:rgb(0%,0%,0%);fill-opacity:1;stroke-width:0.751181;stroke-linecap:butt;stroke-linejoin:miter;stroke:rgb(0%,0%,0%);stroke-opacity:1;stroke-miterlimit:4;"
       d="M 269.839844 335.003677 C 269.839844 335.54274 269.398438 335.98024 268.851563 335.98024 C 268.304688 335.98024 267.863281 335.54274 267.863281 335.003677 C 267.863281 334.464615 268.304688 334.027115 268.851563 334.027115 C 269.398438 334.027115 269.839844 334.464615 269.839844 335.003677 Z M 269.839844 335.003677 "
       transform="matrix(1,0,0,1,-217.875,-242.249771)"
       id="path21" />
    <path
       style="fill-rule:nonzero;fill:rgb(0%,0%,0%);fill-opacity:1;stroke-width:0.751181;stroke-linecap:butt;stroke-linejoin:miter;stroke:rgb(0%,0%,0%);stroke-opacity:1;stroke-miterlimit:4;"
       d="M 267.886719 281.835709 C 267.886719 282.374771 267.441406 282.812271 266.898438 282.812271 C 266.351563 282.812271 265.910156 282.374771 265.910156 281.835709 C 265.910156 281.296646 266.351563 280.859146 266.898438 280.859146 C 267.441406 280.859146 267.886719 281.296646 267.886719 281.835709 Z M 267.886719 281.835709 "
       transform="matrix(1,0,0,1,-217.875,-242.249771)"
       id="path23" />
    <path
       style=" stroke:none;fill-rule:nonzero;fill:rgb(0%,0%,0%);fill-opacity:1;"
       d="M 29.433594 48.507813 C 29.167969 47.976563 28.769531 47.601563 28.125 47.601563 C 26.488281 47.601563 24.738281 49.683594 24.738281 51.742188 C 24.738281 53.070313 25.511719 54 26.597656 54 C 26.886719 54 27.59375 53.933594 28.4375 52.9375 C 28.546875 53.535156 29.054688 54 29.71875 54 C 30.230469 54 30.539063 53.667969 30.78125 53.226563 C 31.003906 52.71875 31.203125 51.851563 31.203125 51.832031 C 31.203125 51.675781 31.070313 51.675781 31.027344 51.675781 C 30.894531 51.675781 30.871094 51.742188 30.828125 51.941406 C 30.582031 52.851563 30.339844 53.691406 29.765625 53.691406 C 29.367188 53.691406 29.34375 53.316406 29.34375 53.050781 C 29.34375 52.738281 29.367188 52.605469 29.519531 51.984375 C 29.675781 51.410156 29.699219 51.253906 29.832031 50.722656 L 30.339844 48.753906 C 30.429688 48.355469 30.429688 48.332031 30.429688 48.265625 C 30.429688 48.023438 30.273438 47.890625 30.03125 47.890625 C 29.675781 47.890625 29.476563 48.199219 29.433594 48.507813 Z M 28.523438 52.164063 C 28.4375 52.429688 28.4375 52.449219 28.238281 52.695313 C 27.617188 53.46875 27.039063 53.691406 26.640625 53.691406 C 25.933594 53.691406 25.734375 52.917969 25.734375 52.363281 C 25.734375 51.652344 26.175781 49.925781 26.507813 49.261719 C 26.953125 48.441406 27.570313 47.910156 28.148438 47.910156 C 29.054688 47.910156 29.253906 49.0625 29.253906 49.152344 C 29.253906 49.238281 29.234375 49.328125 29.210938 49.394531 Z M 28.523438 52.164063 "
       id="path25" />
    <path
       style=" stroke:none;fill-rule:nonzero;fill:rgb(0%,0%,0%);fill-opacity:1;"
       d="M 50.691406 50.777344 C 50.136719 51.710938 49.585938 51.910156 48.964844 51.953125 C 48.789063 51.976563 48.65625 51.976563 48.65625 52.242188 C 48.65625 52.328125 48.742188 52.394531 48.855469 52.394531 C 49.230469 52.394531 49.671875 52.351563 50.050781 52.351563 C 50.535156 52.351563 51.023438 52.394531 51.46875 52.394531 C 51.554688 52.394531 51.734375 52.394531 51.734375 52.128906 C 51.734375 51.976563 51.621094 51.953125 51.511719 51.953125 C 51.199219 51.929688 50.847656 51.820313 50.847656 51.464844 C 50.847656 51.289063 50.933594 51.132813 51.046875 50.933594 L 52.132813 49.140625 L 55.675781 49.140625 C 55.695313 49.429688 55.894531 51.355469 55.894531 51.488281 C 55.894531 51.910156 55.164063 51.953125 54.878906 51.953125 C 54.679688 51.953125 54.546875 51.953125 54.546875 52.242188 C 54.546875 52.394531 54.699219 52.394531 54.746094 52.394531 C 55.320313 52.394531 55.917969 52.351563 56.492188 52.351563 C 56.847656 52.351563 57.757813 52.394531 58.109375 52.394531 C 58.175781 52.394531 58.355469 52.394531 58.355469 52.109375 C 58.355469 51.953125 58.222656 51.953125 58.023438 51.953125 C 57.160156 51.953125 57.160156 51.863281 57.113281 51.445313 L 56.25 42.628906 C 56.226563 42.339844 56.226563 42.273438 55.984375 42.273438 C 55.761719 42.273438 55.695313 42.386719 55.609375 42.519531 Z M 52.398438 48.699219 L 55.164063 44.023438 L 55.628906 48.699219 Z M 52.398438 48.699219 "
       id="path27" />
    <path
       style=" stroke:none;fill-rule:nonzero;fill:rgb(0%,0%,0%);fill-opacity:1;"
       d="M 75.792969 59.414063 C 75.75 59.59375 75.75 59.613281 75.75 59.660156 C 75.75 59.859375 75.902344 60.035156 76.148438 60.035156 C 76.433594 60.035156 76.613281 59.769531 76.632813 59.726563 C 76.722656 59.613281 77.167969 57.710938 77.542969 56.183594 C 77.832031 56.757813 78.273438 57.132813 78.9375 57.132813 C 80.597656 57.132813 82.414063 55.140625 82.414063 53.035156 C 82.414063 51.53125 81.484375 50.734375 80.464844 50.734375 C 79.09375 50.734375 77.609375 52.152344 77.1875 53.878906 Z M 78.9375 56.824219 C 77.941406 56.824219 77.71875 55.695313 77.71875 55.5625 C 77.71875 55.515625 77.785156 55.230469 77.832031 55.050781 C 78.230469 53.457031 78.363281 52.949219 78.671875 52.394531 C 79.292969 51.355469 80 51.042969 80.421875 51.042969 C 80.953125 51.042969 81.394531 51.464844 81.394531 52.4375 C 81.394531 53.214844 80.996094 54.785156 80.621094 55.472656 C 80.15625 56.382813 79.46875 56.824219 78.9375 56.824219 Z M 78.9375 56.824219 "
       id="path29" />
    <path
       style=" stroke:none;fill-rule:nonzero;fill:rgb(0%,0%,0%);fill-opacity:1;"
       d="M 48.519531 106.808594 C 48.386719 107.363281 48.34375 107.472656 47.238281 107.472656 C 46.992188 107.472656 46.859375 107.472656 46.859375 107.761719 C 46.859375 107.917969 46.992188 107.917969 47.238281 107.917969 L 52.285156 107.917969 C 54.523438 107.917969 56.183594 106.253906 56.183594 104.859375 C 56.183594 103.839844 55.363281 103.023438 53.992188 102.867188 C 55.453125 102.601563 56.9375 101.5625 56.9375 100.210938 C 56.9375 99.167969 56.007813 98.261719 54.324219 98.261719 L 49.5625 98.261719 C 49.296875 98.261719 49.164063 98.261719 49.164063 98.550781 C 49.164063 98.703125 49.296875 98.703125 49.5625 98.703125 C 49.585938 98.703125 49.851563 98.703125 50.09375 98.726563 C 50.335938 98.769531 50.46875 98.769531 50.46875 98.96875 C 50.46875 99.015625 50.449219 99.058594 50.425781 99.234375 Z M 50.648438 102.734375 L 51.53125 99.234375 C 51.664063 98.75 51.6875 98.703125 52.285156 98.703125 L 54.125 98.703125 C 55.363281 98.703125 55.652344 99.546875 55.652344 100.164063 C 55.652344 101.40625 54.433594 102.734375 52.730469 102.734375 Z M 50.027344 107.472656 C 49.828125 107.472656 49.804688 107.472656 49.71875 107.472656 C 49.5625 107.453125 49.519531 107.429688 49.519531 107.320313 C 49.519531 107.273438 49.519531 107.253906 49.605469 107.007813 L 50.582031 103.066406 L 53.238281 103.066406 C 54.589844 103.066406 54.875 104.109375 54.875 104.707031 C 54.875 106.101563 53.613281 107.472656 51.929688 107.472656 Z M 50.027344 107.472656 "
       id="path31" />
  </g>
</svg>
