<?xml version="1.0" encoding="UTF-8" standalone="no"?>
<svg
   xmlns:dc="http://purl.org/dc/elements/1.1/"
   xmlns:cc="http://creativecommons.org/ns#"
   xmlns:rdf="http://www.w3.org/1999/02/22-rdf-syntax-ns#"
   xmlns:svg="http://www.w3.org/2000/svg"
   xmlns="http://www.w3.org/2000/svg"
   xmlns:sodipodi="http://sodipodi.sourceforge.net/DTD/sodipodi-0.dtd"
   xmlns:inkscape="http://www.inkscape.org/namespaces/inkscape"
   width="212pt"
   height="177pt"
   viewBox="0 0 304 253"
   version="1.2"
   id="svg188"
   sodipodi:docname="logo_opt.svg"
   inkscape:version="0.92.4 (5da689c313, 2019-01-14)">
  <metadata
     id="metadata192">
    <rdf:RDF>
      <cc:Work
         rdf:about="">
        <dc:format>image/svg+xml</dc:format>
        <dc:type
           rdf:resource="http://purl.org/dc/dcmitype/StillImage" />
        <dc:title></dc:title>
      </cc:Work>
    </rdf:RDF>
  </metadata>
  <sodipodi:namedview
     pagecolor="#ffffff"
     bordercolor="#666666"
     borderopacity="1"
     objecttolerance="10"
     gridtolerance="10"
     guidetolerance="10"
     inkscape:pageopacity="0"
     inkscape:pageshadow="2"
     inkscape:window-width="1920"
     inkscape:window-height="1001"
     id="namedview190"
     showgrid="false"
     inkscape:zoom="0.69960474"
     inkscape:cx="202.66667"
     inkscape:cy="168.66667"
     inkscape:window-x="-9"
     inkscape:window-y="-9"
     inkscape:window-maximized="1"
     inkscape:current-layer="svg188" />
  <defs
     id="defs5">
    <clipPath
       id="clip1">
      <path
         d="M 41.101563 29.398438 L 271 29.398438 L 271 175 L 41.101563 175 Z M 41.101563 29.398438 "
         id="path2" />
    </clipPath>
  </defs>
  <g
     id="surface74">
    <path
       style=" stroke:none;fill-rule:nonzero;fill:rgb(12.939453%,11.767578%,11.767578%);fill-opacity:1;"
       d="M 188.074219 182.914063 C 188.300781 182.355469 188.300781 182.265625 188.300781 182.1875 C 188.300781 181.667969 187.902344 181.410156 187.5625 181.410156 C 187.03125 181.410156 186.859375 181.757813 186.6875 182.265625 L 172.554688 222.621094 C 172.34375 223.179688 172.34375 223.269531 172.34375 223.347656 C 172.34375 223.867188 172.738281 224.125 173.082031 224.125 C 173.609375 224.125 173.78125 223.777344 173.953125 223.269531 Z M 188.074219 182.914063 "
       id="path7" />
    <path
       style="fill:none;stroke-width:13.1811;stroke-linecap:butt;stroke-linejoin:miter;stroke:rgb(0%,0%,0%);stroke-opacity:1;stroke-miterlimit:4;"
       d="M 565 869.921875 L 1515.820313 2509.84375 L 2462.8125 873.710938 Z M 565 869.921875 "
       transform="matrix(0.1,0,0,-0.1,0,253)"
       id="path9" />
    <path
       style="fill:none;stroke-width:10.7717;stroke-linecap:butt;stroke-linejoin:miter;stroke:rgb(0%,0%,0%);stroke-opacity:1;stroke-dasharray:21.5433,10.7717;stroke-miterlimit:4;"
       d="M 4.375 1712.617188 L 1057.460938 1716.445313 L 2068.867188 1553.203125 L 2966.640625 1219.140625 "
       transform="matrix(0.1,0,0,-0.1,0,253)"
       id="path11" />
    <path
       style="fill:none;stroke-width:11.7638;stroke-linecap:butt;stroke-linejoin:miter;stroke:rgb(0%,0%,0%);stroke-opacity:1;stroke-dasharray:23.5276,11.7638;stroke-miterlimit:4;"
       d="M 1261.914063 1213.75 L 2920.507813 1927.148438 "
       transform="matrix(0.1,0,0,-0.1,0,253)"
       id="path13" />
    <g
       clip-path="url(#clip1)"
       clip-rule="nonzero"
       id="g17">
      <path
         style="fill:none;stroke-width:10.7717;stroke-linecap:butt;stroke-linejoin:miter;stroke:rgb(0%,0%,0%);stroke-opacity:1;stroke-dasharray:21.5433,10.7717;stroke-miterlimit:4;"
         d="M 2651.255785 -770.355298 L 274.549659 -2170.628821 "
         transform="matrix(0.0998937,0,0,0.100106,0,253)"
         id="path15" />
    </g>
    <path
       style=" stroke:none;fill-rule:nonzero;fill:rgb(0%,0%,0%);fill-opacity:1;"
       d="M 142.609375 29.960938 L 142.609375 29.539063 C 142.609375 25.25 144.707031 24.636719 145.585938 24.636719 C 145.984375 24.636719 146.699219 24.742188 147.074219 25.332031 C 146.804688 25.332031 146.140625 25.332031 146.140625 26.074219 C 146.140625 26.605469 146.539063 26.875 146.914063 26.875 C 147.179688 26.875 147.710938 26.710938 147.710938 26.046875 C 147.710938 25.039063 146.964844 24.210938 145.558594 24.210938 C 143.378906 24.210938 141.09375 26.394531 141.09375 30.148438 C 141.09375 34.703125 143.058594 35.898438 144.628906 35.898438 C 146.515625 35.898438 148.136719 34.304688 148.136719 32.066406 C 148.136719 29.910156 146.621094 28.285156 144.734375 28.285156 C 143.589844 28.285156 142.953125 29.136719 142.609375 29.960938 Z M 144.628906 35.421875 C 143.566406 35.421875 143.058594 34.410156 142.953125 34.144531 C 142.632813 33.34375 142.632813 31.984375 142.632813 31.695313 C 142.632813 30.359375 143.191406 28.660156 144.707031 28.660156 C 145 28.660156 145.769531 28.660156 146.300781 29.722656 C 146.59375 30.335938 146.59375 31.214844 146.59375 32.039063 C 146.59375 32.867188 146.59375 33.71875 146.300781 34.332031 C 145.796875 35.34375 145.027344 35.421875 144.628906 35.421875 Z M 144.628906 35.421875 "
       id="path19" />
    <path
       style=" stroke:none;fill-rule:nonzero;fill:rgb(0%,0%,0%);fill-opacity:1;"
       d="M 156.632813 30.09375 C 156.632813 28.738281 156.554688 27.378906 155.96875 26.128906 C 155.199219 24.476563 153.789063 24.210938 153.097656 24.210938 C 152.0625 24.210938 150.839844 24.664063 150.125 26.234375 C 149.589844 27.40625 149.511719 28.738281 149.511719 30.09375 C 149.511719 31.375 149.566406 32.894531 150.28125 34.199219 C 151 35.554688 152.25 35.902344 153.074219 35.902344 C 153.976563 35.902344 155.277344 35.554688 156.023438 33.929688 C 156.554688 32.761719 156.632813 31.429688 156.632813 30.09375 Z M 153.074219 35.527344 C 152.410156 35.527344 151.398438 35.101563 151.105469 33.476563 C 150.921875 32.46875 150.921875 30.894531 150.921875 29.882813 C 150.921875 28.792969 150.921875 27.671875 151.054688 26.769531 C 151.371094 24.742188 152.648438 24.582031 153.074219 24.582031 C 153.632813 24.582031 154.746094 24.90625 155.066406 26.578125 C 155.253906 27.539063 155.253906 28.820313 155.253906 29.882813 C 155.253906 31.164063 155.253906 32.308594 155.066406 33.398438 C 154.800781 35.023438 153.84375 35.527344 153.074219 35.527344 Z M 153.074219 35.527344 "
       id="path21" />
    <path
       style=" stroke:none;fill-rule:nonzero;fill:rgb(0%,0%,0%);fill-opacity:1;"
       d="M 163.328125 25.5625 C 163.328125 24.125 162.183594 23.003906 160.773438 23.003906 C 159.367188 23.003906 158.222656 24.152344 158.222656 25.535156 C 158.222656 26.976563 159.394531 28.09375 160.773438 28.09375 C 162.210938 28.09375 163.328125 26.949219 163.328125 25.5625 Z M 160.773438 27.507813 C 159.660156 27.507813 158.808594 26.601563 158.808594 25.5625 C 158.808594 24.445313 159.6875 23.566406 160.773438 23.566406 C 161.890625 23.566406 162.742188 24.46875 162.742188 25.535156 C 162.742188 26.652344 161.863281 27.507813 160.773438 27.507813 Z M 160.773438 27.507813 "
       id="path23" />
    <path
       style="fill:none;stroke-width:7.5;stroke-linecap:butt;stroke-linejoin:miter;stroke:rgb(0%,0%,0%);stroke-opacity:1;stroke-miterlimit:4;"
       d="M 1435.3125 2374.140625 C 1496.523438 2336.523438 1544.648438 2351.835938 1597.265625 2368.398438 "
       transform="matrix(0.1,0,0,-0.1,0,253)"
       id="path25" />
    <path
       style="fill:none;stroke-width:7.5;stroke-linecap:butt;stroke-linejoin:miter;stroke:rgb(0%,0%,0%);stroke-opacity:1;stroke-miterlimit:4;"
       d="M 648.320313 1010.039063 C 710.859375 984.960938 728.125 931.25 738.75 873.164063 "
       transform="matrix(0.1,0,0,-0.1,0,253)"
       id="path27" />
    <path
       style="fill:none;stroke-width:7.5;stroke-linecap:butt;stroke-linejoin:miter;stroke:rgb(0%,0%,0%);stroke-opacity:1;stroke-miterlimit:4;"
       d="M 2383.28125 1008.90625 C 2322.34375 996.953125 2282.96875 936.210938 2273.4375 877.96875 "
       transform="matrix(0.1,0,0,-0.1,0,253)"
       id="path29" />
    <path
       style="fill:none;stroke-width:7.5;stroke-linecap:butt;stroke-linejoin:miter;stroke:rgb(0%,0%,0%);stroke-opacity:1;stroke-miterlimit:4;"
       d="M 2276.25 1650.9375 C 2304.804688 1594.414063 2295.15625 1534.414063 2281.015625 1479.179688 "
       transform="matrix(0.1,0,0,-0.1,0,253)"
       id="path31" />
    <path
       style="fill:none;stroke-width:7.5;stroke-linecap:butt;stroke-linejoin:miter;stroke:rgb(0%,0%,0%);stroke-opacity:1;stroke-miterlimit:4;"
       d="M 2652.226563 1556.054688 C 2665.039063 1467.460938 2638.984375 1414.375 2587.851563 1356.757813 "
       transform="matrix(0.1,0,0,-0.1,0,253)"
       id="path33" />
    <path
       style=" stroke:none;fill-rule:nonzero;fill:rgb(0%,0%,0%);fill-opacity:1;"
       d="M 78.617188 153.515625 L 78.617188 153.085938 C 78.617188 148.800781 80.71875 148.1875 81.59375 148.1875 C 81.992188 148.1875 82.710938 148.292969 83.082031 148.878906 C 82.816406 148.878906 82.152344 148.878906 82.152344 149.628906 C 82.152344 150.160156 82.550781 150.425781 82.921875 150.425781 C 83.1875 150.425781 83.71875 150.265625 83.71875 149.601563 C 83.71875 148.585938 82.976563 147.761719 81.566406 147.761719 C 79.386719 147.761719 77.101563 149.945313 77.101563 153.699219 C 77.101563 158.253906 79.070313 159.453125 80.636719 159.453125 C 82.523438 159.453125 84.144531 157.855469 84.144531 155.617188 C 84.144531 153.460938 82.628906 151.835938 80.742188 151.835938 C 79.601563 151.835938 78.964844 152.6875 78.617188 153.515625 Z M 80.636719 158.972656 C 79.574219 158.972656 79.070313 157.960938 78.964844 157.695313 C 78.644531 156.894531 78.644531 155.539063 78.644531 155.246094 C 78.644531 153.914063 79.203125 152.207031 80.71875 152.207031 C 81.007813 152.207031 81.78125 152.207031 82.3125 153.273438 C 82.605469 153.886719 82.605469 154.765625 82.605469 155.589844 C 82.605469 156.414063 82.605469 157.269531 82.3125 157.882813 C 81.804688 158.894531 81.035156 158.972656 80.636719 158.972656 Z M 80.636719 158.972656 "
       id="path35" />
    <path
       style=" stroke:none;fill-rule:nonzero;fill:rgb(0%,0%,0%);fill-opacity:1;"
       d="M 92.644531 153.648438 C 92.644531 152.289063 92.5625 150.929688 91.980469 149.679688 C 91.207031 148.027344 89.800781 147.757813 89.109375 147.757813 C 88.074219 147.757813 86.851563 148.214844 86.132813 149.785156 C 85.601563 150.957031 85.523438 152.289063 85.523438 153.648438 C 85.523438 154.921875 85.574219 156.441406 86.292969 157.75 C 87.011719 159.109375 88.257813 159.453125 89.082031 159.453125 C 89.988281 159.453125 91.289063 159.109375 92.03125 157.484375 C 92.5625 156.308594 92.644531 154.976563 92.644531 153.648438 Z M 89.082031 159.082031 C 88.417969 159.082031 87.410156 158.652344 87.117188 157.03125 C 86.929688 156.015625 86.929688 154.445313 86.929688 153.433594 C 86.929688 152.34375 86.929688 151.222656 87.0625 150.316406 C 87.382813 148.292969 88.65625 148.136719 89.082031 148.136719 C 89.640625 148.136719 90.757813 148.453125 91.074219 150.132813 C 91.261719 151.089844 91.261719 152.367188 91.261719 153.433594 C 91.261719 154.710938 91.261719 155.859375 91.074219 156.945313 C 90.808594 158.570313 89.855469 159.082031 89.082031 159.082031 Z M 89.082031 159.082031 "
       id="path37" />
    <path
       style=" stroke:none;fill-rule:nonzero;fill:rgb(0%,0%,0%);fill-opacity:1;"
       d="M 99.335938 149.113281 C 99.335938 147.671875 98.195313 146.558594 96.785156 146.558594 C 95.375 146.558594 94.234375 147.699219 94.234375 149.085938 C 94.234375 150.523438 95.402344 151.644531 96.785156 151.644531 C 98.21875 151.644531 99.335938 150.5 99.335938 149.113281 Z M 96.785156 151.054688 C 95.667969 151.054688 94.820313 150.152344 94.820313 149.113281 C 94.820313 147.996094 95.695313 147.117188 96.785156 147.117188 C 97.902344 147.117188 98.75 148.023438 98.75 149.085938 C 98.75 150.207031 97.875 151.054688 96.785156 151.054688 Z M 96.785156 151.054688 "
       id="path39" />
    <path
       style=" stroke:none;fill-rule:nonzero;fill:rgb(0%,0%,0%);fill-opacity:1;"
       d="M 210.734375 152.472656 L 210.734375 152.050781 C 210.734375 147.757813 212.832031 147.148438 213.710938 147.148438 C 214.109375 147.148438 214.824219 147.253906 215.195313 147.839844 C 214.929688 147.839844 214.265625 147.839844 214.265625 148.585938 C 214.265625 149.117188 214.664063 149.382813 215.039063 149.382813 C 215.304688 149.382813 215.835938 149.222656 215.835938 148.558594 C 215.835938 147.546875 215.089844 146.722656 213.683594 146.722656 C 211.503906 146.722656 209.21875 148.90625 209.21875 152.660156 C 209.21875 157.214844 211.183594 158.414063 212.753906 158.414063 C 214.640625 158.414063 216.261719 156.8125 216.261719 154.578125 C 216.261719 152.421875 214.746094 150.796875 212.859375 150.796875 C 211.714844 150.796875 211.078125 151.652344 210.734375 152.472656 Z M 212.753906 157.933594 C 211.6875 157.933594 211.183594 156.921875 211.078125 156.65625 C 210.757813 155.855469 210.757813 154.496094 210.757813 154.207031 C 210.757813 152.875 211.316406 151.167969 212.832031 151.167969 C 213.125 151.167969 213.894531 151.167969 214.425781 152.234375 C 214.71875 152.847656 214.71875 153.726563 214.71875 154.550781 C 214.71875 155.378906 214.71875 156.230469 214.425781 156.839844 C 213.921875 157.855469 213.152344 157.933594 212.753906 157.933594 Z M 212.753906 157.933594 "
       id="path41" />
    <path
       style=" stroke:none;fill-rule:nonzero;fill:rgb(0%,0%,0%);fill-opacity:1;"
       d="M 224.757813 152.605469 C 224.757813 151.25 224.679688 149.894531 224.09375 148.640625 C 223.324219 146.988281 221.914063 146.722656 221.222656 146.722656 C 220.1875 146.722656 218.964844 147.175781 218.25 148.746094 C 217.714844 149.917969 217.636719 151.25 217.636719 152.605469 C 217.636719 153.886719 217.691406 155.40625 218.40625 156.707031 C 219.125 158.066406 220.375 158.414063 221.199219 158.414063 C 222.101563 158.414063 223.402344 158.066406 224.148438 156.441406 C 224.679688 155.273438 224.757813 153.941406 224.757813 152.605469 Z M 221.199219 158.039063 C 220.535156 158.039063 219.523438 157.613281 219.230469 155.988281 C 219.046875 154.976563 219.046875 153.410156 219.046875 152.394531 C 219.046875 151.300781 219.046875 150.183594 219.179688 149.277344 C 219.496094 147.253906 220.773438 147.09375 221.199219 147.09375 C 221.757813 147.09375 222.871094 147.414063 223.191406 149.089844 C 223.378906 150.050781 223.378906 151.328125 223.378906 152.394531 C 223.378906 153.675781 223.378906 154.816406 223.191406 155.910156 C 222.925781 157.535156 221.96875 158.039063 221.199219 158.039063 Z M 221.199219 158.039063 "
       id="path43" />
    <path
       style=" stroke:none;fill-rule:nonzero;fill:rgb(0%,0%,0%);fill-opacity:1;"
       d="M 231.453125 148.074219 C 231.453125 146.636719 230.308594 145.515625 228.898438 145.515625 C 227.492188 145.515625 226.347656 146.664063 226.347656 148.050781 C 226.347656 149.484375 227.519531 150.605469 228.898438 150.605469 C 230.335938 150.605469 231.453125 149.457031 231.453125 148.074219 Z M 228.898438 150.019531 C 227.785156 150.019531 226.933594 149.113281 226.933594 148.074219 C 226.933594 146.957031 227.808594 146.078125 228.898438 146.078125 C 230.015625 146.078125 230.867188 146.980469 230.867188 148.050781 C 230.867188 149.164063 229.988281 150.019531 228.898438 150.019531 Z M 228.898438 150.019531 "
       id="path45" />
    <path
       style=" stroke:none;fill-rule:nonzero;fill:rgb(0%,0%,0%);fill-opacity:1;"
       d="M 65.8125 100.089844 L 65.8125 99.664063 C 65.8125 95.378906 67.910156 94.765625 68.789063 94.765625 C 69.1875 94.765625 69.90625 94.875 70.277344 95.457031 C 70.011719 95.457031 69.347656 95.457031 69.347656 96.203125 C 69.347656 96.738281 69.746094 97.003906 70.117188 97.003906 C 70.382813 97.003906 70.914063 96.84375 70.914063 96.175781 C 70.914063 95.167969 70.171875 94.339844 68.761719 94.339844 C 66.582031 94.339844 64.296875 96.523438 64.296875 100.28125 C 64.296875 104.832031 66.265625 106.03125 67.832031 106.03125 C 69.71875 106.03125 71.339844 104.433594 71.339844 102.199219 C 71.339844 100.042969 69.824219 98.417969 67.9375 98.417969 C 66.796875 98.417969 66.15625 99.265625 65.8125 100.09375 Z M 67.832031 105.550781 C 66.769531 105.550781 66.265625 104.539063 66.15625 104.273438 C 65.839844 103.472656 65.839844 102.117188 65.839844 101.820313 C 65.839844 100.492188 66.398438 98.789063 67.910156 98.789063 C 68.203125 98.789063 68.972656 98.789063 69.507813 99.851563 C 69.796875 100.464844 69.796875 101.34375 69.796875 102.171875 C 69.796875 102.996094 69.796875 103.847656 69.507813 104.460938 C 69 105.46875 68.230469 105.550781 67.832031 105.550781 Z M 67.832031 105.550781 "
       id="path47" />
    <path
       style=" stroke:none;fill-rule:nonzero;fill:rgb(0%,0%,0%);fill-opacity:1;"
       d="M 79.839844 100.226563 C 79.839844 98.867188 79.757813 97.507813 79.175781 96.253906 C 78.402344 94.609375 76.996094 94.339844 76.304688 94.339844 C 75.269531 94.339844 74.046875 94.792969 73.328125 96.363281 C 72.796875 97.535156 72.714844 98.867188 72.714844 100.226563 C 72.714844 101.503906 72.769531 103.019531 73.488281 104.328125 C 74.203125 105.6875 75.453125 106.03125 76.277344 106.03125 C 77.179688 106.03125 78.484375 105.6875 79.226563 104.0625 C 79.757813 102.886719 79.839844 101.554688 79.839844 100.226563 Z M 76.277344 105.660156 C 75.613281 105.660156 74.601563 105.230469 74.3125 103.605469 C 74.125 102.597656 74.125 101.023438 74.125 100.011719 C 74.125 98.921875 74.125 97.800781 74.257813 96.898438 C 74.578125 94.875 75.851563 94.714844 76.277344 94.714844 C 76.835938 94.714844 77.953125 95.035156 78.269531 96.710938 C 78.457031 97.667969 78.457031 98.949219 78.457031 100.011719 C 78.457031 101.289063 78.457031 102.4375 78.269531 103.527344 C 78.003906 105.152344 77.046875 105.660156 76.277344 105.660156 Z M 76.277344 105.660156 "
       id="path49" />
    <path
       style=" stroke:none;fill-rule:nonzero;fill:rgb(0%,0%,0%);fill-opacity:1;"
       d="M 86.53125 95.691406 C 86.53125 94.253906 85.386719 93.136719 83.980469 93.136719 C 82.570313 93.136719 81.429688 94.277344 81.429688 95.664063 C 81.429688 97.105469 82.597656 98.21875 83.980469 98.21875 C 85.414063 98.21875 86.53125 97.078125 86.53125 95.691406 Z M 83.980469 97.636719 C 82.863281 97.636719 82.011719 96.730469 82.011719 95.691406 C 82.011719 94.570313 82.890625 93.695313 83.980469 93.695313 C 85.097656 93.695313 85.945313 94.601563 85.945313 95.664063 C 85.945313 96.785156 85.070313 97.636719 83.980469 97.636719 Z M 83.980469 97.636719 "
       id="path51" />
    <path
       style="fill:none;stroke-width:7.5;stroke-linecap:butt;stroke-linejoin:miter;stroke:rgb(0%,0%,0%);stroke-opacity:1;stroke-miterlimit:4;"
       d="M 843.867188 1712.695313 C 859.257813 1626.875 889.140625 1584.21875 968.4375 1560.351563 "
       transform="matrix(0.1,0,0,-0.1,0,253)"
       id="path53" />
    <path
       style="fill:none;stroke-width:7.5;stroke-linecap:butt;stroke-linejoin:miter;stroke:rgb(0%,0%,0%);stroke-opacity:1;stroke-miterlimit:4;"
       d="M 778.242188 1869.6875 C 704.960938 1837.148438 701.367188 1789.335938 696.5625 1720.078125 "
       transform="matrix(0.1,0,0,-0.1,0,253)"
       id="path55" />
    <path
       style="fill:none;stroke-width:7.5;stroke-linecap:butt;stroke-linejoin:miter;stroke:rgb(0%,0%,0%);stroke-opacity:1;stroke-miterlimit:4;"
       d="M 1136.523438 1856.40625 C 1187.382813 1823.28125 1198.242188 1756.210938 1199.023438 1696.992188 "
       transform="matrix(0.1,0,0,-0.1,0,253)"
       id="path57" />
    <path
       style="fill:none;stroke-width:7.5;stroke-linecap:butt;stroke-linejoin:miter;stroke:rgb(0%,0%,0%);stroke-opacity:1;stroke-miterlimit:4;"
       d="M 1978.242188 1697.929688 C 1916.640625 1685.78125 1900.546875 1634.765625 1884.492188 1587.851563 "
       transform="matrix(0.1,0,0,-0.1,0,253)"
       id="path59" />
    <path
       style=" stroke:none;fill-rule:nonzero;fill:rgb(0%,0%,0%);fill-opacity:1;"
       d="M 62.539063 65.480469 C 62.539063 64.359375 62.246094 61.992188 60.519531 61.992188 C 58.152344 61.992188 55.550781 66.78125 55.550781 70.671875 C 55.550781 72.269531 56.027344 74.160156 57.570313 74.160156 C 59.960938 74.160156 62.539063 69.289063 62.539063 65.480469 Z M 57.332031 67.796875 C 57.621094 66.730469 57.96875 65.375 58.660156 64.148438 C 59.109375 63.320313 59.722656 62.363281 60.492188 62.363281 C 61.316406 62.363281 61.421875 63.457031 61.421875 64.414063 C 61.421875 65.265625 61.289063 66.117188 60.890625 67.796875 Z M 60.730469 68.355469 C 60.546875 69.128906 60.199219 70.5625 59.535156 71.789063 C 58.953125 72.964844 58.3125 73.785156 57.570313 73.785156 C 57.011719 73.785156 56.667969 73.28125 56.667969 71.710938 C 56.667969 70.992188 56.773438 70.003906 57.199219 68.355469 Z M 60.730469 68.355469 "
       id="path61" />
    <path
       style=" stroke:none;fill-rule:nonzero;fill:rgb(0%,0%,0%);fill-opacity:1;"
       d="M 66.640625 69.09375 C 66.640625 68.90625 66.480469 68.636719 66.160156 68.636719 C 65.84375 68.636719 65.496094 68.957031 65.496094 69.304688 C 65.496094 69.492188 65.628906 69.757813 65.976563 69.757813 C 66.292969 69.757813 66.640625 69.414063 66.640625 69.09375 Z M 64.222656 75.136719 C 64.167969 75.296875 64.117188 75.429688 64.117188 75.644531 C 64.117188 76.199219 64.566406 76.628906 65.230469 76.628906 C 66.402344 76.628906 66.933594 75.003906 66.933594 74.820313 C 66.933594 74.660156 66.773438 74.660156 66.746094 74.660156 C 66.585938 74.660156 66.5625 74.738281 66.507813 74.871094 C 66.242188 75.828125 65.738281 76.3125 65.257813 76.3125 C 65.019531 76.3125 64.964844 76.148438 64.964844 75.882813 C 64.964844 75.617188 65.046875 75.402344 65.152344 75.136719 C 65.285156 74.820313 65.417969 74.496094 65.523438 74.175781 C 65.628906 73.886719 66.082031 72.820313 66.109375 72.660156 C 66.160156 72.550781 66.1875 72.417969 66.1875 72.285156 C 66.1875 71.726563 65.710938 71.277344 65.074219 71.277344 C 63.875 71.277344 63.34375 72.902344 63.34375 73.113281 C 63.34375 73.246094 63.503906 73.246094 63.558594 73.246094 C 63.71875 73.246094 63.71875 73.195313 63.769531 73.0625 C 64.0625 72.046875 64.59375 71.621094 65.019531 71.621094 C 65.207031 71.621094 65.3125 71.703125 65.3125 72.019531 C 65.3125 72.3125 65.257813 72.472656 64.964844 73.21875 Z M 64.222656 75.136719 "
       id="path63" />
    <path
       style=" stroke:none;fill-rule:nonzero;fill:rgb(0%,0%,0%);fill-opacity:1;"
       d="M 146.296875 91.859375 C 146.296875 90.738281 146.003906 88.367188 144.277344 88.367188 C 141.914063 88.367188 139.308594 93.164063 139.308594 97.050781 C 139.308594 98.648438 139.785156 100.539063 141.328125 100.539063 C 143.71875 100.539063 146.296875 95.664063 146.296875 91.859375 Z M 141.089844 94.175781 C 141.382813 93.109375 141.726563 91.75 142.417969 90.523438 C 142.871094 89.703125 143.480469 88.742188 144.25 88.742188 C 145.074219 88.742188 145.179688 89.835938 145.179688 90.792969 C 145.179688 91.644531 145.046875 92.496094 144.648438 94.175781 Z M 144.492188 94.734375 C 144.304688 95.507813 143.960938 96.945313 143.292969 98.167969 C 142.710938 99.339844 142.070313 100.164063 141.328125 100.164063 C 140.769531 100.164063 140.425781 99.660156 140.425781 98.089844 C 140.425781 97.371094 140.53125 96.382813 140.957031 94.734375 Z M 144.492188 94.734375 "
       id="path65" />
    <path
       style=" stroke:none;fill-rule:nonzero;fill:rgb(0%,0%,0%);fill-opacity:1;"
       d="M 150.503906 95.339844 C 150.503906 95.019531 150.503906 95.019531 150.160156 95.019531 C 149.390625 95.765625 148.324219 95.765625 147.847656 95.765625 L 147.847656 96.1875 C 148.113281 96.1875 148.910156 96.1875 149.546875 95.871094 L 149.546875 101.917969 C 149.546875 102.316406 149.546875 102.476563 148.378906 102.476563 L 147.925781 102.476563 L 147.925781 102.902344 C 148.140625 102.902344 149.601563 102.847656 150.027344 102.847656 C 150.398438 102.847656 151.886719 102.902344 152.152344 102.902344 L 152.152344 102.476563 L 151.699219 102.476563 C 150.503906 102.476563 150.503906 102.316406 150.503906 101.917969 Z M 150.503906 95.339844 "
       id="path67" />
    <path
       style=" stroke:none;fill-rule:nonzero;fill:rgb(0%,0%,0%);fill-opacity:1;"
       d="M 170.121094 98.125 C 170.121094 97.007813 169.828125 94.640625 168.101563 94.640625 C 165.734375 94.640625 163.132813 99.429688 163.132813 103.316406 C 163.132813 104.917969 163.609375 106.808594 165.152344 106.808594 C 167.542969 106.808594 170.121094 101.9375 170.121094 98.125 Z M 164.910156 100.445313 C 165.203125 99.375 165.550781 98.019531 166.242188 96.796875 C 166.691406 95.96875 167.304688 95.011719 168.074219 95.011719 C 168.898438 95.011719 169.003906 96.101563 169.003906 97.0625 C 169.003906 97.910156 168.871094 98.765625 168.472656 100.445313 Z M 168.3125 101 C 168.128906 101.773438 167.78125 103.210938 167.117188 104.4375 C 166.53125 105.605469 165.894531 106.433594 165.152344 106.433594 C 164.59375 106.433594 164.246094 105.929688 164.246094 104.359375 C 164.246094 103.636719 164.355469 102.652344 164.777344 101 Z M 168.3125 101 "
       id="path69" />
    <path
       style=" stroke:none;fill-rule:nonzero;fill:rgb(0%,0%,0%);fill-opacity:1;"
       d="M 176.347656 107.011719 L 175.949219 107.011719 C 175.921875 107.277344 175.789063 107.972656 175.628906 108.078125 C 175.550781 108.15625 174.648438 108.15625 174.460938 108.15625 L 172.28125 108.15625 C 173.53125 107.0625 173.957031 106.71875 174.648438 106.160156 C 175.523438 105.464844 176.347656 104.722656 176.347656 103.601563 C 176.347656 102.167969 175.097656 101.285156 173.582031 101.285156 C 172.121094 101.285156 171.113281 102.324219 171.113281 103.414063 C 171.113281 104.003906 171.617188 104.082031 171.75 104.082031 C 172.015625 104.082031 172.363281 103.871094 172.363281 103.441406 C 172.363281 103.230469 172.28125 102.804688 171.671875 102.804688 C 172.042969 101.976563 172.839844 101.710938 173.398438 101.710938 C 174.59375 101.710938 175.203125 102.644531 175.203125 103.601563 C 175.203125 104.640625 174.460938 105.4375 174.089844 105.867188 L 171.246094 108.714844 C 171.113281 108.820313 171.113281 108.847656 171.113281 109.167969 L 176.003906 109.167969 Z M 176.347656 107.011719 "
       id="path71" />
    <path
       style=" stroke:none;fill-rule:nonzero;fill:rgb(0%,0%,0%);fill-opacity:1;"
       d="M 242.117188 96.066406 C 242.117188 94.949219 241.824219 92.578125 240.097656 92.578125 C 237.730469 92.578125 235.128906 97.371094 235.128906 101.261719 C 235.128906 102.859375 235.605469 104.75 237.148438 104.75 C 239.539063 104.75 242.117188 99.875 242.117188 96.066406 Z M 236.90625 98.386719 C 237.199219 97.320313 237.546875 95.960938 238.238281 94.738281 C 238.6875 93.910156 239.300781 92.953125 240.070313 92.953125 C 240.894531 92.953125 241 94.042969 241 95.003906 C 241 95.855469 240.867188 96.707031 240.46875 98.386719 Z M 240.308594 98.945313 C 240.125 99.714844 239.777344 101.152344 239.113281 102.378906 C 238.527344 103.550781 237.890625 104.378906 237.148438 104.378906 C 236.589844 104.378906 236.242188 103.867188 236.242188 102.300781 C 236.242188 101.578125 236.351563 100.597656 236.773438 98.945313 Z M 240.308594 98.945313 "
       id="path73" />
    <path
       style=" stroke:none;fill-rule:nonzero;fill:rgb(0%,0%,0%);fill-opacity:1;"
       d="M 245.605469 103.144531 C 246.535156 103.144531 247.199219 103.785156 247.199219 105.058594 C 247.199219 106.527344 246.324219 106.976563 245.660156 106.976563 C 245.179688 106.976563 244.117188 106.84375 243.640625 106.125 C 244.199219 106.125 244.332031 105.726563 244.332031 105.457031 C 244.332031 105.085938 244.039063 104.820313 243.667969 104.820313 C 243.347656 104.820313 243.003906 105.035156 243.003906 105.511719 C 243.003906 106.632813 244.226563 107.347656 245.660156 107.347656 C 247.308594 107.347656 248.449219 106.234375 248.449219 105.058594 C 248.449219 104.128906 247.707031 103.195313 246.402344 102.929688 C 247.625 102.476563 248.078125 101.597656 248.078125 100.851563 C 248.078125 99.917969 247.015625 99.226563 245.6875 99.226563 C 244.382813 99.226563 243.375 99.867188 243.375 100.828125 C 243.375 101.226563 243.640625 101.4375 243.984375 101.4375 C 244.359375 101.4375 244.597656 101.171875 244.597656 100.851563 C 244.597656 100.507813 244.359375 100.242188 243.984375 100.214844 C 244.410156 99.707031 245.207031 99.574219 245.660156 99.574219 C 246.191406 99.574219 246.933594 99.839844 246.933594 100.851563 C 246.933594 101.359375 246.777344 101.917969 246.457031 102.265625 C 246.085938 102.71875 245.738281 102.742188 245.15625 102.796875 C 244.863281 102.824219 244.835938 102.824219 244.78125 102.824219 C 244.757813 102.824219 244.648438 102.855469 244.648438 102.984375 C 244.648438 103.144531 244.757813 103.144531 244.96875 103.144531 Z M 245.605469 103.144531 "
       id="path75" />
    <path
       style=" stroke:none;fill-rule:nonzero;fill:rgb(0%,0%,0%);fill-opacity:1;"
       d="M 128.699219 64.988281 C 128.699219 64.9375 128.75 64.75 128.75 64.75 C 128.75 64.722656 128.75 64.5625 128.539063 64.5625 C 128.378906 64.5625 128.351563 64.621094 128.273438 64.910156 L 127.289063 68.824219 C 124.605469 68.933594 122.109375 71.171875 122.109375 73.484375 C 122.109375 75.109375 123.304688 76.445313 125.375 76.578125 C 125.242188 77.082031 125.109375 77.640625 124.976563 78.175781 C 124.765625 78.972656 124.605469 79.609375 124.605469 79.664063 C 124.605469 79.824219 124.738281 79.847656 124.816406 79.847656 C 124.898438 79.847656 124.925781 79.828125 124.976563 79.769531 C 125.003906 79.742188 125.109375 79.34375 125.164063 79.105469 L 125.800781 76.578125 C 128.539063 76.464844 131.011719 74.175781 131.011719 71.914063 C 131.011719 70.554688 130.105469 69.007813 127.742188 68.824219 Z M 125.457031 76.199219 C 124.445313 76.148438 123.222656 75.535156 123.222656 73.859375 C 123.222656 71.808594 124.683594 69.4375 127.210938 69.199219 Z M 127.636719 69.199219 C 128.9375 69.277344 129.894531 70.050781 129.894531 71.542969 C 129.894531 73.566406 128.433594 75.988281 125.90625 76.199219 Z M 127.636719 69.199219 "
       id="path77" />
    <path
       style=" stroke:none;fill-rule:nonzero;fill:rgb(0%,0%,0%);fill-opacity:1;"
       d="M 135.339844 71.347656 C 135.339844 71.027344 135.339844 71.027344 134.992188 71.027344 C 134.222656 71.773438 133.160156 71.773438 132.683594 71.773438 L 132.683594 72.199219 C 132.949219 72.199219 133.746094 72.199219 134.382813 71.878906 L 134.382813 77.921875 C 134.382813 78.324219 134.382813 78.484375 133.214844 78.484375 L 132.761719 78.484375 L 132.761719 78.910156 C 132.972656 78.910156 134.4375 78.851563 134.859375 78.851563 C 135.234375 78.851563 136.722656 78.910156 136.988281 78.910156 L 136.988281 78.484375 L 136.535156 78.484375 C 135.339844 78.484375 135.339844 78.324219 135.339844 77.921875 Z M 135.339844 71.347656 "
       id="path79" />
    <path
       style=" stroke:none;fill-rule:nonzero;fill:rgb(0%,0%,0%);fill-opacity:1;"
       d="M 182.082031 70.574219 C 182.082031 70.519531 182.132813 70.332031 182.132813 70.332031 C 182.132813 70.3125 182.132813 70.148438 181.921875 70.148438 C 181.761719 70.148438 181.734375 70.199219 181.65625 70.492188 L 180.671875 74.410156 C 177.988281 74.519531 175.492188 76.753906 175.492188 79.070313 C 175.492188 80.695313 176.6875 82.027344 178.757813 82.160156 C 178.625 82.664063 178.492188 83.222656 178.359375 83.757813 C 178.148438 84.554688 177.988281 85.195313 177.988281 85.246094 C 177.988281 85.410156 178.121094 85.4375 178.203125 85.4375 C 178.28125 85.4375 178.308594 85.40625 178.359375 85.355469 C 178.386719 85.332031 178.492188 84.929688 178.546875 84.6875 L 179.183594 82.160156 C 181.921875 82.054688 184.394531 79.765625 184.394531 77.496094 C 184.394531 76.144531 183.488281 74.597656 181.125 74.410156 Z M 178.839844 81.789063 C 177.828125 81.730469 176.605469 81.121094 176.605469 79.441406 C 176.605469 77.390625 178.070313 75.023438 180.59375 74.785156 Z M 181.019531 74.785156 C 182.320313 74.863281 183.277344 75.632813 183.277344 77.125 C 183.277344 79.148438 181.816406 81.570313 179.292969 81.789063 Z M 181.019531 74.785156 "
       id="path81" />
    <path
       style=" stroke:none;fill-rule:nonzero;fill:rgb(0%,0%,0%);fill-opacity:1;"
       d="M 190.742188 82.335938 L 190.34375 82.335938 C 190.316406 82.601563 190.183594 83.292969 190.023438 83.402344 C 189.945313 83.480469 189.042969 83.480469 188.855469 83.480469 L 186.675781 83.480469 C 187.925781 82.390625 188.351563 82.046875 189.042969 81.484375 C 189.917969 80.792969 190.742188 80.042969 190.742188 78.929688 C 190.742188 77.488281 189.492188 76.613281 187.976563 76.613281 C 186.515625 76.613281 185.507813 77.648438 185.507813 78.742188 C 185.507813 79.328125 186.011719 79.40625 186.144531 79.40625 C 186.410156 79.40625 186.757813 79.195313 186.757813 78.769531 C 186.757813 78.554688 186.675781 78.128906 186.066406 78.128906 C 186.4375 77.304688 187.234375 77.039063 187.792969 77.039063 C 188.988281 77.039063 189.597656 77.96875 189.597656 78.929688 C 189.597656 79.964844 188.855469 80.765625 188.484375 81.191406 L 185.640625 84.042969 C 185.507813 84.148438 185.507813 84.175781 185.507813 84.496094 L 190.398438 84.496094 Z M 190.742188 82.335938 "
       id="path83" />
    <path
       style=" stroke:none;fill-rule:nonzero;fill:rgb(0%,0%,0%);fill-opacity:1;"
       d="M 276.578125 105.714844 C 276.578125 104.597656 276.285156 102.226563 274.558594 102.226563 C 272.191406 102.226563 269.589844 107.019531 269.589844 110.90625 C 269.589844 112.503906 270.066406 114.394531 271.609375 114.394531 C 274 114.394531 276.578125 109.523438 276.578125 105.714844 Z M 271.371094 108.03125 C 271.660156 106.964844 272.007813 105.609375 272.699219 104.382813 C 273.148438 103.554688 273.761719 102.601563 274.53125 102.601563 C 275.355469 102.601563 275.460938 103.6875 275.460938 104.648438 C 275.460938 105.5 275.328125 106.355469 274.929688 108.03125 Z M 274.769531 108.589844 C 274.585938 109.367188 274.238281 110.800781 273.574219 112.027344 C 272.992188 113.199219 272.351563 114.023438 271.609375 114.023438 C 271.050781 114.023438 270.707031 113.519531 270.707031 111.945313 C 270.707031 111.230469 270.8125 110.242188 271.238281 108.589844 Z M 274.769531 108.589844 "
       id="path85" />
    <path
       style=" stroke:none;fill-rule:nonzero;fill:rgb(0%,0%,0%);fill-opacity:1;"
       d="M 281.664063 112.070313 L 282.804688 112.070313 C 283.042969 112.070313 283.203125 112.070313 283.203125 111.804688 C 283.203125 111.644531 283.042969 111.644531 282.832031 111.644531 L 281.742188 111.644531 C 282.007813 110.128906 282.085938 109.597656 282.195313 109.246094 C 282.246094 108.980469 282.511719 108.742188 282.804688 108.742188 C 282.804688 108.742188 283.125 108.742188 283.363281 108.875 C 282.859375 109.035156 282.832031 109.464844 282.832031 109.515625 C 282.832031 109.78125 283.042969 109.96875 283.308594 109.96875 C 283.628906 109.96875 283.976563 109.703125 283.976563 109.25 C 283.976563 108.6875 283.417969 108.394531 282.804688 108.394531 C 282.273438 108.394531 281.6875 108.6875 281.371094 109.277344 C 281.132813 109.730469 281.050781 110.261719 280.785156 111.644531 L 279.855469 111.644531 C 279.617188 111.644531 279.457031 111.644531 279.457031 111.910156 C 279.457031 112.070313 279.617188 112.070313 279.828125 112.070313 L 280.707031 112.070313 C 280.707031 112.152344 279.960938 116.410156 279.667969 117.691406 C 279.617188 117.957031 279.402344 118.835938 278.847656 118.835938 C 278.820313 118.835938 278.554688 118.835938 278.3125 118.703125 C 278.792969 118.542969 278.847656 118.117188 278.847656 118.0625 C 278.847656 117.796875 278.632813 117.609375 278.367188 117.609375 C 278.046875 117.609375 277.703125 117.875 277.703125 118.328125 C 277.703125 118.863281 278.261719 119.183594 278.847656 119.183594 C 279.589844 119.183594 280.121094 118.40625 280.253906 118.140625 C 280.679688 117.34375 280.972656 115.878906 281 115.746094 Z M 281.664063 112.070313 "
       id="path87" />
    <path
       style="fill:none;stroke-width:7.5;stroke-linecap:butt;stroke-linejoin:miter;stroke:rgb(0%,0%,0%);stroke-opacity:1;stroke-miterlimit:4;"
       d="M 1376.914063 1662.34375 C 1379.53125 1614.257813 1354.023438 1586.445313 1323.320313 1558.984375 "
       transform="matrix(0.1,0,0,-0.1,0,253)"
       id="path89" />
    <path
       style="fill:none;stroke-width:7.5;stroke-linecap:butt;stroke-linejoin:miter;stroke:rgb(0%,0%,0%);stroke-opacity:1;stroke-miterlimit:4;"
       d="M 1762.03125 1603.515625 C 1757.539063 1530.039063 1785.195313 1496.171875 1838.75 1455.429688 "
       transform="matrix(0.1,0,0,-0.1,0,253)"
       id="path91" />
    <path
       style=" stroke:none;fill-rule:nonzero;fill:rgb(0%,0%,0%);fill-opacity:1;"
       d="M 242.117188 96.066406 C 242.117188 94.949219 241.824219 92.578125 240.097656 92.578125 C 237.730469 92.578125 235.128906 97.371094 235.128906 101.261719 C 235.128906 102.859375 235.605469 104.75 237.148438 104.75 C 239.539063 104.75 242.117188 99.875 242.117188 96.066406 Z M 236.90625 98.386719 C 237.199219 97.320313 237.546875 95.960938 238.238281 94.738281 C 238.6875 93.910156 239.300781 92.953125 240.070313 92.953125 C 240.894531 92.953125 241 94.042969 241 95.003906 C 241 95.855469 240.867188 96.707031 240.46875 98.386719 Z M 240.308594 98.945313 C 240.125 99.714844 239.777344 101.152344 239.113281 102.378906 C 238.527344 103.550781 237.890625 104.378906 237.148438 104.378906 C 236.589844 104.378906 236.242188 103.867188 236.242188 102.300781 C 236.242188 101.578125 236.351563 100.597656 236.773438 98.945313 Z M 240.308594 98.945313 "
       id="path93" />
    <path
       style=" stroke:none;fill-rule:nonzero;fill:rgb(0%,0%,0%);fill-opacity:1;"
       d="M 245.605469 103.144531 C 246.535156 103.144531 247.199219 103.785156 247.199219 105.058594 C 247.199219 106.527344 246.324219 106.976563 245.660156 106.976563 C 245.179688 106.976563 244.117188 106.84375 243.640625 106.125 C 244.199219 106.125 244.332031 105.726563 244.332031 105.457031 C 244.332031 105.085938 244.039063 104.820313 243.667969 104.820313 C 243.347656 104.820313 243.003906 105.035156 243.003906 105.511719 C 243.003906 106.632813 244.226563 107.347656 245.660156 107.347656 C 247.308594 107.347656 248.449219 106.234375 248.449219 105.058594 C 248.449219 104.128906 247.707031 103.195313 246.402344 102.929688 C 247.625 102.476563 248.078125 101.597656 248.078125 100.851563 C 248.078125 99.917969 247.015625 99.226563 245.6875 99.226563 C 244.382813 99.226563 243.375 99.867188 243.375 100.828125 C 243.375 101.226563 243.640625 101.4375 243.984375 101.4375 C 244.359375 101.4375 244.597656 101.171875 244.597656 100.851563 C 244.597656 100.507813 244.359375 100.242188 243.984375 100.214844 C 244.410156 99.707031 245.207031 99.574219 245.660156 99.574219 C 246.191406 99.574219 246.933594 99.839844 246.933594 100.851563 C 246.933594 101.359375 246.777344 101.917969 246.457031 102.265625 C 246.085938 102.71875 245.738281 102.742188 245.15625 102.796875 C 244.863281 102.824219 244.835938 102.824219 244.78125 102.824219 C 244.757813 102.824219 244.648438 102.855469 244.648438 102.984375 C 244.648438 103.144531 244.757813 103.144531 244.96875 103.144531 Z M 245.605469 103.144531 "
       id="path95" />
    <path
       style=" stroke:none;fill-rule:nonzero;fill:rgb(0%,0%,0%);fill-opacity:1;"
       d="M 276.578125 105.714844 C 276.578125 104.597656 276.285156 102.226563 274.558594 102.226563 C 272.191406 102.226563 269.589844 107.019531 269.589844 110.90625 C 269.589844 112.503906 270.066406 114.394531 271.609375 114.394531 C 274 114.394531 276.578125 109.523438 276.578125 105.714844 Z M 271.371094 108.03125 C 271.660156 106.964844 272.007813 105.609375 272.699219 104.382813 C 273.148438 103.554688 273.761719 102.601563 274.53125 102.601563 C 275.355469 102.601563 275.460938 103.6875 275.460938 104.648438 C 275.460938 105.5 275.328125 106.355469 274.929688 108.03125 Z M 274.769531 108.589844 C 274.585938 109.367188 274.238281 110.800781 273.574219 112.027344 C 272.992188 113.199219 272.351563 114.023438 271.609375 114.023438 C 271.050781 114.023438 270.707031 113.519531 270.707031 111.945313 C 270.707031 111.230469 270.8125 110.242188 271.238281 108.589844 Z M 274.769531 108.589844 "
       id="path97" />
    <path
       style=" stroke:none;fill-rule:nonzero;fill:rgb(0%,0%,0%);fill-opacity:1;"
       d="M 281.664063 112.070313 L 282.804688 112.070313 C 283.042969 112.070313 283.203125 112.070313 283.203125 111.804688 C 283.203125 111.644531 283.042969 111.644531 282.832031 111.644531 L 281.742188 111.644531 C 282.007813 110.128906 282.085938 109.597656 282.195313 109.246094 C 282.246094 108.980469 282.511719 108.742188 282.804688 108.742188 C 282.804688 108.742188 283.125 108.742188 283.363281 108.875 C 282.859375 109.035156 282.832031 109.464844 282.832031 109.515625 C 282.832031 109.78125 283.042969 109.96875 283.308594 109.96875 C 283.628906 109.96875 283.976563 109.703125 283.976563 109.25 C 283.976563 108.6875 283.417969 108.394531 282.804688 108.394531 C 282.273438 108.394531 281.6875 108.6875 281.371094 109.277344 C 281.132813 109.730469 281.050781 110.261719 280.785156 111.644531 L 279.855469 111.644531 C 279.617188 111.644531 279.457031 111.644531 279.457031 111.910156 C 279.457031 112.070313 279.617188 112.070313 279.828125 112.070313 L 280.707031 112.070313 C 280.707031 112.152344 279.960938 116.410156 279.667969 117.691406 C 279.617188 117.957031 279.402344 118.835938 278.847656 118.835938 C 278.820313 118.835938 278.554688 118.835938 278.3125 118.703125 C 278.792969 118.542969 278.847656 118.117188 278.847656 118.0625 C 278.847656 117.796875 278.632813 117.609375 278.367188 117.609375 C 278.046875 117.609375 277.703125 117.875 277.703125 118.328125 C 277.703125 118.863281 278.261719 119.183594 278.847656 119.183594 C 279.589844 119.183594 280.121094 118.40625 280.253906 118.140625 C 280.679688 117.34375 280.972656 115.878906 281 115.746094 Z M 281.664063 112.070313 "
       id="path99" />
    <path
       style="fill:none;stroke-width:7.5;stroke-linecap:butt;stroke-linejoin:miter;stroke:rgb(0%,0%,0%);stroke-opacity:1;stroke-miterlimit:4;"
       d="M 2652.226563 1556.054688 C 2665.039063 1467.460938 2638.984375 1414.375 2587.851563 1356.757813 "
       transform="matrix(0.1,0,0,-0.1,0,253)"
       id="path101" />
    <path
       style="fill:none;stroke-width:7.5;stroke-linecap:butt;stroke-linejoin:miter;stroke:rgb(0%,0%,0%);stroke-opacity:1;stroke-dasharray:15,7.5;stroke-miterlimit:4;"
       d="M 2068.867188 1553.203125 L 3038.632813 1556.992188 "
       transform="matrix(0.1,0,0,-0.1,0,253)"
       id="path103" />
    <path
       style=" stroke:none;fill-rule:nonzero;fill:rgb(0%,0%,0%);fill-opacity:1;"
       d="M 59.242188 198.902344 C 59.414063 198.902344 60.183594 198.902344 60.238281 198.957031 L 61.53125 198.957031 C 69.167969 198.957031 71.871094 195.742188 71.871094 192.472656 C 71.871094 187.59375 67.050781 186.035156 62.238281 186.035156 L 51.3125 186.035156 C 50.605469 186.035156 50.019531 186.035156 50.019531 186.628906 C 50.019531 187.21875 50.722656 187.21875 51.015625 187.21875 C 53.015625 187.21875 53.132813 187.484375 53.132813 189.203125 L 53.132813 206.296875 C 53.132813 208.015625 53.015625 208.28125 51.078125 208.28125 C 50.722656 208.28125 50.019531 208.28125 50.019531 208.875 C 50.019531 209.464844 50.605469 209.464844 51.3125 209.464844 L 61.355469 209.464844 C 62.003906 209.464844 62.589844 209.464844 62.589844 208.875 C 62.589844 208.28125 61.941406 208.28125 61.53125 208.28125 C 59.414063 208.28125 59.242188 208.015625 59.242188 206.296875 Z M 65.410156 197.398438 C 66.644531 195.953125 66.761719 193.808594 66.761719 192.414063 C 66.761719 190.59375 66.582031 188.820313 65.585938 187.539063 C 67.640625 187.964844 70.574219 188.984375 70.574219 192.46875 C 70.574219 194.882813 68.875 196.597656 65.410156 197.398438 Z M 59.242188 189.089844 C 59.242188 188.394531 59.242188 187.214844 61.472656 187.214844 C 64.175781 187.214844 65.410156 188.179688 65.410156 192.414063 C 65.410156 197.347656 63.472656 197.722656 61.121094 197.722656 L 59.242188 197.722656 Z M 54.132813 208.28125 C 54.425781 207.640625 54.425781 206.832031 54.425781 206.40625 L 54.425781 189.089844 C 54.425781 188.664063 54.425781 187.859375 54.132813 187.214844 L 58.417969 187.214844 C 57.949219 187.804688 57.949219 188.449219 57.949219 188.984375 L 57.949219 206.40625 C 57.949219 206.726563 57.949219 207.640625 58.242188 208.28125 Z M 54.132813 208.28125 "
       id="path105" />
    <path
       style=" stroke:none;fill-rule:nonzero;fill:rgb(0%,0%,0%);fill-opacity:1;"
       d="M 98.917969 193.503906 C 98.5625 193.394531 98.09375 193.339844 97.566406 193.339844 C 96.507813 193.339844 95.804688 193.714844 94.335938 195.109375 L 92.691406 196.773438 L 92.691406 193.503906 L 92.339844 193.339844 L 89.699219 194.089844 C 88.519531 194.410156 87.816406 194.519531 85.464844 194.785156 L 85.464844 196.019531 L 87.167969 196.125 C 88.054688 196.183594 88.109375 196.5 88.109375 198.488281 L 88.109375 205.992188 C 88.109375 207.867188 87.933594 208.136719 86.761719 208.1875 L 85.464844 208.242188 L 85.464844 209.53125 C 87.113281 209.476563 88.699219 209.421875 90.285156 209.421875 C 92.164063 209.421875 94.097656 209.480469 95.980469 209.53125 L 95.980469 208.242188 L 94.515625 208.1875 C 92.867188 208.136719 92.691406 207.921875 92.691406 205.992188 L 92.691406 199.238281 C 92.691406 198.164063 94.21875 197.039063 95.6875 197.039063 C 96.625 197.039063 97.332031 197.464844 97.859375 198.269531 L 98.742188 197.949219 Z M 98.917969 193.503906 "
       id="path107" />
    <path
       style=" stroke:none;fill-rule:nonzero;fill:rgb(0%,0%,0%);fill-opacity:1;"
       d="M 116.835938 209.53125 L 116.835938 208.242188 L 115.71875 208.136719 C 114.835938 208.078125 114.660156 207.648438 114.660156 206.042969 L 114.660156 198.109375 C 114.660156 195.109375 112.429688 193.339844 108.667969 193.339844 C 107.023438 193.339844 105.613281 193.714844 104.144531 194.464844 L 102.207031 195.589844 L 102.207031 197.949219 L 103.324219 198.164063 L 104.144531 196.445313 C 104.261719 196.234375 105.257813 195.964844 106.316406 195.964844 C 108.785156 195.964844 110.019531 197.199219 110.136719 200.039063 L 106.847656 200.632813 C 102.085938 201.539063 100.445313 202.882813 100.445313 205.773438 C 100.445313 208.507813 101.96875 210.011719 104.792969 210.011719 C 105.675781 210.011719 106.261719 209.851563 106.613281 209.582031 L 110.136719 207.113281 L 109.957031 209.257813 L 110.136719 209.53125 C 111.253906 209.472656 112.429688 209.417969 113.546875 209.417969 C 114.601563 209.417969 115.71875 209.476563 116.835938 209.53125 Z M 110.136719 205.503906 C 109.371094 206.367188 108.019531 207.007813 106.90625 207.007813 C 105.675781 207.007813 104.96875 206.207031 104.96875 204.863281 C 104.96875 203.203125 105.792969 202.507813 108.433594 201.859375 L 110.136719 201.433594 Z M 110.136719 205.503906 "
       id="path109" />
    <path
       style=" stroke:none;fill-rule:nonzero;fill:rgb(0%,0%,0%);fill-opacity:1;"
       d="M 135.789063 186.117188 L 127.683594 186.171875 L 121.753906 186.171875 L 114.117188 186.117188 C 114.351563 188.046875 114.410156 189.390625 114.410156 191.585938 L 115.585938 191.585938 L 115.703125 188.902344 C 115.761719 188.101563 116.171875 187.78125 117.230469 187.78125 L 123.042969 187.78125 C 123.164063 188.902344 123.164063 189.710938 123.164063 191.210938 L 123.164063 205.625 C 123.164063 208.363281 122.984375 208.628906 121.28125 208.738281 L 119.460938 208.84375 L 119.460938 209.863281 C 121.28125 209.804688 123.101563 209.757813 124.925781 209.757813 C 126.742188 209.757813 128.625 209.808594 130.445313 209.863281 L 130.445313 208.84375 L 128.625 208.738281 C 126.921875 208.628906 126.742188 208.363281 126.742188 205.625 L 126.742188 191.210938 C 126.742188 189.65625 126.742188 188.902344 126.863281 187.78125 L 132.675781 187.78125 C 133.734375 187.78125 134.144531 188.101563 134.203125 188.902344 L 134.320313 191.585938 L 135.496094 191.585938 C 135.496094 189.390625 135.554688 188.046875 135.789063 186.117188 Z M 135.789063 186.117188 "
       id="path111" />
    <path
       style=" stroke:none;fill-rule:nonzero;fill:rgb(0%,0%,0%);fill-opacity:1;"
       d="M 171.679688 210.183594 L 171.679688 209.164063 L 170.558594 209.058594 C 169.859375 209.003906 169.328125 208.414063 168.09375 206.648438 L 161.515625 197.105469 L 167.269531 189.976563 C 168.800781 188.101563 169.269531 187.671875 169.859375 187.617188 L 171.382813 187.5625 L 171.382813 186.492188 L 167.566406 186.492188 L 160.636719 195.765625 L 155.875 188.367188 C 155 187.078125 154.410156 186.492188 153.703125 186.117188 L 148.417969 187.078125 L 148.535156 187.941406 L 150.179688 188.046875 C 151.121094 188.101563 152.414063 189.222656 153.644531 191.152344 L 158.460938 198.390625 L 151.121094 207.398438 C 150.179688 208.574219 149.769531 208.949219 148.945313 209.058594 L 147.949219 209.164063 L 147.949219 210.183594 C 148.59375 210.132813 149.242188 210.078125 149.886719 210.078125 C 150.53125 210.078125 151.179688 210.132813 151.824219 210.183594 L 159.398438 199.730469 L 166.277344 210.183594 C 167.214844 210.132813 168.09375 210.078125 169.035156 210.078125 C 169.914063 210.078125 170.796875 210.132813 171.679688 210.183594 Z M 171.679688 210.183594 "
       id="path113" />
    <path
       style=" stroke:none;fill-rule:nonzero;fill:rgb(0%,0%,0%);fill-opacity:1;"
       d="M 129.652344 214.847656 L 130.945313 214.847656 L 131.179688 216.027344 C 131.355469 217.472656 131.882813 218.546875 132.414063 218.710938 C 133.175781 218.976563 135.9375 219.136719 139.28125 219.136719 C 141.226563 219.136719 141.925781 219.078125 142.988281 218.867188 L 142.988281 209.273438 L 136.996094 209.164063 C 135.351563 209.164063 134.644531 209.324219 134.351563 210.453125 C 134.234375 211.203125 134.175781 212.488281 134.175781 212.488281 L 133.058594 212.488281 C 133.117188 211.203125 133.175781 209.917969 133.175781 208.683594 C 133.175781 207.34375 133.117188 206.058594 133.058594 204.71875 L 134.175781 204.71875 C 134.175781 204.71875 134.175781 205.84375 134.351563 206.488281 C 134.703125 207.667969 135.410156 207.773438 136.996094 207.773438 C 138.871094 207.773438 141.339844 207.773438 142.988281 207.664063 L 142.988281 198.496094 C 141.808594 198.285156 141.226563 198.230469 138.636719 198.230469 C 136.464844 198.230469 134.351563 198.390625 133.175781 198.714844 C 132.296875 198.980469 132.179688 199.089844 132.179688 199.890625 L 132.179688 202.089844 L 130.828125 202.089844 C 130.828125 200.050781 130.648438 198.390625 130.238281 196.894531 L 134.878906 196.835938 C 137.816406 196.894531 140.691406 196.894531 143.574219 196.894531 C 145.804688 196.894531 148.039063 196.894531 150.269531 196.835938 L 150.269531 197.855469 L 148.449219 197.964844 C 146.746094 198.015625 146.570313 198.335938 146.570313 201.015625 L 146.570313 216.347656 C 146.570313 219.078125 146.6875 219.292969 148.449219 219.453125 L 149.796875 219.566406 L 149.796875 220.582031 C 148.273438 220.527344 146.746094 220.472656 145.214844 220.472656 C 142.339844 220.472656 139.402344 220.53125 136.527344 220.582031 L 130.238281 220.472656 C 130.238281 218.492188 130.003906 216.667969 129.652344 214.847656 Z M 129.652344 214.847656 "
       id="path115" />
    <path
       style=" stroke:none;fill-rule:nonzero;fill:rgb(0%,0%,0%);fill-opacity:1;"
       d="M 81.402344 209.535156 L 81.402344 208.121094 L 79.363281 208.121094 L 79.363281 196.003906 L 73.566406 196.238281 L 73.566406 197.652344 C 75.554688 197.652344 75.761719 197.652344 75.761719 198.835938 L 75.761719 208.121094 L 73.460938 208.121094 L 73.460938 209.535156 L 77.539063 209.441406 Z M 79.835938 191.292969 C 79.835938 189.972656 78.773438 191.292969 77.3125 191.292969 C 75.902344 191.292969 74.613281 189.972656 74.613281 191.292969 C 74.613281 192.5625 75.816406 193.601563 77.226563 193.601563 C 78.6875 193.601563 79.835938 192.5625 79.835938 191.292969 Z M 79.835938 191.292969 "
       id="path117" />
    <path
       style=" stroke:none;fill-rule:evenodd;fill:rgb(0%,0%,0%);fill-opacity:1;"
       d="M 72.578125 185.394531 C 72.125 185.625 71.726563 185.878906 71.371094 186.160156 C 71.046875 186.320313 70.828125 186.535156 70.59375 186.746094 C 70.375 186.933594 70.15625 186.988281 69.800781 186.90625 C 68.261719 186.558594 66.644531 186.386719 65.03125 186.238281 C 62.476563 185.984375 59.886719 185.863281 57.292969 185.933594 C 55.015625 185.984375 52.765625 186.144531 50.550781 186.546875 C 50.390625 186.574219 50.230469 186.625 50.066406 186.492188 C 48.464844 185.125 46.570313 183.929688 44.957031 182.5625 C 44.53125 182.203125 44.160156 181.816406 43.808594 181.398438 C 43.679688 181.25 43.617188 181.105469 43.753906 180.960938 C 43.882813 180.792969 44.136719 180.792969 44.371094 180.808594 C 45.105469 180.820313 45.78125 180.996094 46.453125 181.171875 C 46.761719 181.25 47.085938 181.332031 47.421875 181.386719 C 49.023438 181.707031 50.332031 181.320313 51.417969 180.488281 C 52.179688 179.910156 52.667969 179.230469 53.210938 178.558594 C 53.636719 178.023438 54.0625 177.472656 54.632813 176.988281 C 55.792969 176.011719 57.335938 175.519531 59.066406 175.273438 C 61.433594 174.953125 63.664063 175.101563 65.664063 176 C 66.894531 176.546875 67.675781 177.367188 68.277344 178.261719 C 68.761719 178.972656 69.113281 179.738281 69.699219 180.433594 C 69.90625 180.675781 70.15625 180.902344 70.433594 181.117188 C 71.316406 181.800781 72.476563 181.972656 73.796875 181.855469 C 74.542969 181.773438 75.277344 181.628906 76.011719 181.496094 C 76.367188 181.425781 76.734375 181.375 77.113281 181.398438 C 77.703125 181.425781 77.863281 181.667969 77.523438 182 C 76.863281 182.628906 76.101563 183.210938 75.265625 183.746094 C 74.371094 184.292969 73.472656 184.84375 72.5625 185.394531 Z M 72.578125 185.394531 "
       id="path119" />
    <path
       style=" stroke:none;fill-rule:evenodd;fill:rgb(100%,100%,100%);fill-opacity:1;"
       d="M 60.984375 180.640625 C 60.929688 180.640625 60.886719 180.640625 60.824219 180.640625 C 60.84375 180.683594 60.84375 180.722656 60.855469 180.761719 C 60.898438 180.855469 60.855469 180.894531 60.738281 180.894531 C 60.605469 180.894531 60.589844 180.882813 60.621094 180.734375 C 60.652344 180.640625 60.652344 180.640625 60.503906 180.652344 C 60.515625 180.667969 60.535156 180.679688 60.535156 180.710938 C 60.558594 180.765625 60.589844 180.832031 60.515625 180.871094 C 60.460938 180.914063 60.371094 180.914063 60.316406 180.886719 C 60.242188 180.828125 60.269531 180.765625 60.28125 180.710938 C 60.34375 180.605469 60.269531 180.621094 60.183594 180.605469 C 60.199219 180.65625 60.199219 180.699219 60.199219 180.753906 C 60.199219 180.78125 60.210938 180.820313 60.167969 180.832031 C 60.125 180.847656 60.082031 180.859375 60.039063 180.832031 C 59.992188 180.792969 60.019531 180.753906 60.039063 180.726563 C 60.050781 180.695313 60.070313 180.683594 60.082031 180.65625 C 60.136719 180.601563 60.125 180.566406 60.070313 180.519531 C 59.953125 180.429688 59.953125 180.296875 59.921875 180.1875 C 59.859375 180 59.761719 179.945313 59.550781 180.011719 C 59.542969 180.011719 59.527344 180.027344 59.507813 180.027344 C 59.246094 180.109375 59.15625 180.085938 59.027344 179.878906 C 58.9375 179.71875 58.9375 179.707031 59.082031 179.597656 C 59.171875 179.53125 59.199219 179.464844 59.199219 179.371094 C 59.199219 179.183594 59.15625 178.996094 59.199219 178.808594 C 59.199219 178.796875 59.1875 178.765625 59.199219 178.742188 C 59.390625 178.445313 59.363281 178.085938 59.507813 177.777344 C 59.507813 177.765625 59.507813 177.75 59.507813 177.710938 C 59.390625 177.84375 59.363281 177.976563 59.347656 178.109375 C 59.316406 178.230469 59.289063 178.367188 59.230469 178.484375 C 59.125 178.699219 59.082031 178.914063 59.101563 179.160156 C 59.101563 179.238281 59.101563 179.316406 59.082031 179.410156 C 59.082031 179.453125 59.070313 179.480469 59.027344 179.480469 C 58.996094 179.480469 58.964844 179.464844 58.9375 179.453125 C 58.890625 179.394531 58.863281 179.339844 58.863281 179.277344 C 58.773438 178.738281 58.839844 178.21875 59.101563 177.710938 C 59.21875 177.496094 59.410156 177.335938 59.660156 177.226563 C 60.167969 176.996094 60.703125 176.929688 61.257813 177.011719 C 61.992188 177.105469 62.417969 177.523438 62.652344 178.097656 C 62.757813 178.351563 62.859375 178.632813 62.800781 178.914063 C 62.769531 179.058594 62.742188 179.191406 62.652344 179.332031 C 62.621094 179.382813 62.597656 179.4375 62.519531 179.410156 C 62.449219 179.398438 62.449219 179.34375 62.449219 179.304688 C 62.449219 179.160156 62.449219 179.007813 62.449219 178.859375 C 62.449219 178.832031 62.449219 178.792969 62.417969 178.765625 C 62.398438 178.753906 62.363281 178.765625 62.34375 178.777344 C 62.285156 178.808594 62.324219 178.847656 62.34375 178.890625 C 62.402344 179.023438 62.386719 179.171875 62.386719 179.316406 C 62.386719 179.410156 62.433594 179.480469 62.550781 179.519531 C 62.726563 179.597656 62.757813 179.664063 62.671875 179.839844 C 62.597656 180.011719 62.480469 180.082031 62.300781 180.039063 C 62.246094 180.027344 62.199219 180.011719 62.152344 180 C 61.992188 179.972656 61.859375 180.027344 61.832031 180.160156 C 61.816406 180.296875 61.726563 180.386719 61.609375 180.46875 C 61.523438 180.535156 61.507813 180.585938 61.566406 180.683594 C 61.625 180.800781 61.566406 180.867188 61.417969 180.867188 C 61.273438 180.867188 61.332031 180.761719 61.347656 180.707031 C 61.359375 180.617188 61.328125 180.617188 61.230469 180.628906 C 61.113281 180.628906 61.171875 180.6875 61.183594 180.734375 C 61.230469 180.867188 61.203125 180.910156 61.066406 180.910156 C 60.992188 180.910156 60.921875 180.882813 60.9375 180.789063 C 60.949219 180.734375 60.980469 180.695313 60.992188 180.640625 Z M 60.984375 180.640625 "
       id="path121" />
    <path
       style=" stroke:none;fill-rule:evenodd;fill:rgb(100%,100%,100%);fill-opacity:1;"
       d="M 55.996094 180.148438 C 55.878906 180.007813 55.742188 179.878906 55.625 179.726563 C 55.496094 179.554688 55.378906 179.367188 55.261719 179.191406 C 55.15625 179.035156 55.082031 178.871094 55.011719 178.710938 C 54.921875 178.511719 54.9375 178.3125 54.953125 178.09375 C 56.449219 179.980469 58.449219 181.363281 60.914063 182.238281 C 61.0625 182.207031 61.195313 182.304688 61.324219 182.34375 C 61.910156 182.558594 62.527344 182.71875 63.132813 182.878906 C 63.207031 182.90625 63.324219 182.90625 63.324219 182.984375 C 63.339844 183.082031 63.25 183.117188 63.160156 183.160156 C 63.027344 183.21875 62.898438 183.226563 62.761719 183.1875 C 62.148438 183.027344 61.53125 182.851563 60.929688 182.652344 C 59.988281 182.316406 59.109375 181.890625 58.285156 181.363281 C 58.152344 181.269531 58.023438 181.175781 57.890625 181.070313 C 58.300781 181.390625 58.753906 181.660156 59.226563 181.902344 C 60.207031 182.425781 61.265625 182.785156 62.367188 183.082031 C 62.527344 183.132813 62.691406 183.171875 62.855469 183.238281 C 63.027344 183.304688 63.117188 183.445313 63.089844 183.605469 C 63.089844 183.6875 63.027344 183.738281 62.925781 183.726563 C 62.835938 183.707031 62.71875 183.695313 62.664063 183.621094 C 62.003906 183.425781 61.324219 183.238281 60.695313 183 C 59.78125 182.664063 58.902344 182.292969 58.109375 181.78125 C 58.09375 181.78125 58.066406 181.765625 58.050781 181.765625 C 57.757813 181.566406 57.464844 181.375 57.183594 181.175781 C 56.90625 180.988281 56.65625 180.761719 56.394531 180.535156 C 56.285156 180.429688 56.15625 180.347656 56.066406 180.226563 C 56.023438 180.214844 55.996094 180.183594 55.996094 180.148438 Z M 55.996094 180.148438 "
       id="path123" />
    <path
       style=" stroke:none;fill-rule:evenodd;fill:rgb(100%,100%,100%);fill-opacity:1;"
       d="M 62.644531 181.457031 C 63.117188 181.242188 63.53125 180.976563 63.957031 180.707031 C 64.996094 180.039063 65.878906 179.222656 66.640625 178.3125 C 66.683594 178.253906 66.714844 178.203125 66.746094 178.164063 C 66.773438 178.132813 66.773438 178.105469 66.816406 178.105469 C 66.863281 178.121094 66.847656 178.164063 66.847656 178.1875 C 66.875 178.480469 66.785156 178.761719 66.625 179.015625 C 66.171875 179.824219 65.496094 180.476563 64.734375 181.070313 C 64.292969 181.390625 63.804688 181.699219 63.335938 181.992188 C 63.304688 182.050781 63.261719 182.074219 63.207031 182.097656 C 62.898438 182.257813 62.574219 182.40625 62.265625 182.554688 C 62.164063 182.613281 62.0625 182.613281 61.957031 182.566406 C 61.855469 182.527344 61.75 182.5 61.648438 182.472656 C 61.605469 182.445313 61.558594 182.445313 61.558594 182.394531 C 61.558594 182.355469 61.605469 182.339844 61.636719 182.328125 C 61.957031 182.191406 62.28125 182.046875 62.574219 181.886719 C 63.042969 181.632813 63.515625 181.375 63.765625 181.160156 C 63.570313 181.324219 63.207031 181.539063 62.824219 181.753906 C 62.410156 181.976563 61.972656 182.179688 61.53125 182.367188 C 61.488281 182.394531 61.429688 182.394531 61.386719 182.378906 C 61.28125 182.339844 61.164063 182.300781 61.0625 182.246094 C 60.976563 182.207031 60.960938 182.179688 61.046875 182.125 C 61.074219 182.097656 61.105469 182.085938 61.132813 182.085938 C 61.601563 181.898438 62.074219 181.699219 62.515625 181.480469 C 62.558594 181.46875 62.601563 181.441406 62.644531 181.453125 Z M 62.644531 181.457031 "
       id="path125" />
    <path
       style=" stroke:none;fill-rule:evenodd;fill:rgb(100%,100%,100%);fill-opacity:1;"
       d="M 62.074219 180.988281 C 62.074219 181.003906 62.042969 181.015625 62.058594 181.035156 C 62.089844 181.222656 61.957031 181.3125 61.792969 181.40625 C 61.695313 181.460938 61.617188 181.554688 61.546875 181.636719 C 61.441406 181.757813 61.292969 181.796875 61.121094 181.769531 C 60.886719 181.742188 60.648438 181.742188 60.414063 181.78125 C 60.28125 181.78125 60.179688 181.726563 60.089844 181.648438 C 59.945313 181.515625 59.78125 181.378906 59.609375 181.289063 C 59.5 181.222656 59.460938 181.125 59.476563 181.019531 C 59.503906 180.789063 59.476563 180.574219 59.359375 180.363281 C 59.316406 180.28125 59.34375 180.226563 59.433594 180.1875 C 59.523438 180.148438 59.59375 180.1875 59.625 180.253906 C 59.742188 180.453125 59.832031 180.652344 59.847656 180.871094 C 59.855469 181.035156 59.964844 181.179688 60.15625 181.207031 C 60.164063 181.140625 60.082031 181.058594 60.199219 181.007813 C 60.273438 180.988281 60.328125 180.976563 60.375 181.019531 C 60.476563 181.085938 60.355469 181.167969 60.386719 181.261719 C 60.417969 181.261719 60.476563 181.261719 60.515625 181.261719 C 60.550781 181.179688 60.433594 181.101563 60.515625 181.035156 C 60.578125 180.988281 60.679688 180.988281 60.742188 181.035156 C 60.84375 181.085938 60.742188 181.179688 60.742188 181.261719 C 60.828125 181.273438 60.898438 181.273438 60.859375 181.167969 C 60.839844 181.121094 60.8125 181.058594 60.886719 181.035156 C 60.960938 181.003906 61.015625 181.003906 61.078125 181.035156 C 61.167969 181.074219 61.121094 181.125 61.109375 181.179688 C 61.109375 181.191406 61.109375 181.222656 61.097656 181.246094 C 61.136719 181.273438 61.183594 181.261719 61.242188 181.261719 C 61.210938 181.179688 61.152344 181.101563 61.269531 181.035156 C 61.328125 181.007813 61.402344 180.988281 61.445313 181.019531 C 61.523438 181.058594 61.464844 181.140625 61.476563 181.207031 C 61.726563 181.125 61.769531 180.953125 61.800781 180.75 C 61.816406 180.546875 61.859375 180.363281 62.019531 180.199219 C 62.050781 180.171875 62.078125 180.148438 62.125 180.132813 C 62.210938 180.105469 62.269531 180.132813 62.253906 180.226563 C 62.242188 180.441406 62.152344 180.640625 62.09375 180.855469 C 62.078125 180.902344 62.078125 180.9375 62.078125 180.992188 Z M 62.074219 180.988281 "
       id="path127" />
    <path
       style=" stroke:none;fill-rule:evenodd;fill:rgb(100%,100%,100%);fill-opacity:1;"
       d="M 57.699219 182.410156 C 57.949219 182.546875 58.140625 182.730469 58.257813 182.972656 C 58.332031 183.105469 58.433594 183.226563 58.636719 183.226563 C 58.683594 183.226563 58.726563 183.238281 58.714844 183.292969 C 58.492188 183.441406 58.566406 183.65625 58.578125 183.84375 C 58.578125 183.992188 58.652344 184.125 58.800781 184.21875 C 58.875 184.140625 58.917969 184.03125 59.066406 184.074219 C 59.238281 184.113281 59.300781 184.207031 59.28125 184.40625 C 59.265625 184.554688 59.164063 184.632813 59.003906 184.648438 C 58.566406 184.675781 58.375 184.566406 58.242188 184.191406 C 58.125 183.800781 58.035156 183.402344 57.773438 183.050781 C 57.742188 183.027344 57.714844 182.984375 57.683594 182.960938 C 57.609375 182.867188 57.566406 182.851563 57.507813 182.960938 C 57.449219 183.09375 57.125 183.066406 57.039063 182.945313 C 56.949219 182.8125 56.9375 182.636719 57.023438 182.515625 C 57.109375 182.398438 57.300781 182.34375 57.492188 182.371094 C 57.5625 182.382813 57.625 182.398438 57.699219 182.410156 Z M 57.699219 182.410156 "
       id="path129" />
    <path
       style=" stroke:none;fill-rule:evenodd;fill:rgb(100%,100%,100%);fill-opacity:1;"
       d="M 63.070313 184.058594 C 63.207031 183.816406 63.25 183.585938 63.101563 183.347656 C 63.058594 183.28125 63.058594 183.238281 63.132813 183.226563 C 63.335938 183.171875 63.441406 183.039063 63.53125 182.894531 C 63.613281 182.730469 63.730469 182.597656 63.894531 182.492188 C 64.085938 182.398438 64.273438 182.332031 64.511719 182.398438 C 64.691406 182.4375 64.792969 182.613281 64.761719 182.769531 C 64.71875 182.984375 64.601563 183.050781 64.382813 183.050781 C 64.292969 183.050781 64.234375 183.011719 64.21875 182.945313 C 64.15625 182.851563 64.101563 182.867188 64.039063 182.945313 C 63.894531 183.117188 63.777344 183.304688 63.707031 183.507813 C 63.613281 183.765625 63.542969 184.019531 63.453125 184.289063 C 63.324219 184.648438 63 184.699219 62.644531 184.621094 C 62.488281 184.59375 62.441406 184.5 62.457031 184.328125 C 62.457031 184.179688 62.515625 184.113281 62.664063 184.074219 C 62.792969 184.027344 62.867188 184.125 62.925781 184.21875 C 62.984375 184.179688 63.058594 184.140625 63.070313 184.058594 Z M 63.070313 184.058594 "
       id="path131" />
    <path
       style=" stroke:none;fill-rule:evenodd;fill:rgb(100%,100%,100%);fill-opacity:1;"
       d="M 57.171875 183.5625 C 57.109375 183.480469 57.054688 183.414063 57.039063 183.332031 C 57.007813 183.28125 57.023438 183.238281 57.082031 183.214844 C 57.214844 183.160156 57.390625 183.214844 57.433594 183.320313 C 57.480469 183.414063 57.535156 183.480469 57.65625 183.5625 C 57.609375 183.46875 57.550781 183.402344 57.523438 183.332031 C 57.507813 183.292969 57.507813 183.253906 57.550781 183.226563 C 57.597656 183.1875 57.640625 183.1875 57.699219 183.214844 C 57.84375 183.28125 58.035156 183.652344 57.992188 183.800781 C 57.976563 183.867188 57.90625 183.882813 57.84375 183.882813 C 57.566406 183.882813 57.273438 183.882813 56.992188 183.882813 C 56.847656 183.882813 56.746094 183.789063 56.671875 183.683594 C 56.628906 183.601563 56.597656 183.507813 56.582031 183.414063 C 56.554688 183.347656 56.523438 183.265625 56.640625 183.226563 C 56.746094 183.1875 56.90625 183.226563 56.949219 183.320313 C 56.992188 183.371094 57.007813 183.441406 57.054688 183.507813 C 57.085938 183.535156 57.097656 183.566406 57.171875 183.566406 Z M 57.171875 183.5625 "
       id="path133" />
    <path
       style=" stroke:none;fill-rule:evenodd;fill:rgb(100%,100%,100%);fill-opacity:1;"
       d="M 64.570313 183.574219 C 64.675781 183.519531 64.703125 183.453125 64.734375 183.371094 C 64.761719 183.304688 64.792969 183.238281 64.878906 183.226563 C 65.082031 183.171875 65.171875 183.238281 65.144531 183.425781 C 65.113281 183.519531 65.082031 183.632813 65.011719 183.726563 C 64.933594 183.820313 64.835938 183.886719 64.671875 183.886719 C 64.425781 183.886719 64.175781 183.886719 63.921875 183.886719 C 63.75 183.886719 63.71875 183.839844 63.730469 183.710938 C 63.75 183.523438 63.847656 183.386719 63.964844 183.257813 C 64.027344 183.199219 64.082031 183.175781 64.15625 183.214844 C 64.234375 183.238281 64.203125 183.292969 64.191406 183.347656 C 64.171875 183.40625 64.144531 183.441406 64.128906 183.492188 C 64.21875 183.441406 64.246094 183.371094 64.292969 183.304688 C 64.335938 183.214844 64.527344 183.160156 64.628906 183.214844 C 64.6875 183.226563 64.6875 183.265625 64.6875 183.304688 C 64.675781 183.402344 64.617188 183.480469 64.570313 183.574219 Z M 64.570313 183.574219 "
       id="path135" />
    <path
       style=" stroke:none;fill-rule:evenodd;fill:rgb(100%,100%,100%);fill-opacity:1;"
       d="M 58.769531 183.347656 C 58.976563 183.214844 59.238281 183.171875 59.472656 183.09375 C 59.683594 183.039063 59.886719 182.984375 60.078125 182.917969 C 60.179688 182.878906 60.269531 182.890625 60.371094 182.933594 C 60.488281 182.984375 60.621094 183.039063 60.769531 183.09375 C 60.460938 183.214844 60.164063 183.292969 59.871094 183.390625 C 59.519531 183.484375 59.152344 183.578125 58.800781 183.671875 C 58.695313 183.710938 58.667969 183.6875 58.683594 183.605469 C 58.683594 183.511719 58.714844 183.417969 58.769531 183.347656 Z M 58.769531 183.347656 "
       id="path137" />
    <path
       style=" stroke:none;fill-rule:evenodd;fill:rgb(100%,100%,100%);fill-opacity:1;"
       d="M 65.042969 183.832031 C 65.160156 183.910156 65.246094 183.992188 65.40625 183.941406 C 65.4375 183.925781 65.496094 183.925781 65.496094 183.882813 C 65.496094 183.855469 65.453125 183.855469 65.421875 183.835938 C 65.21875 183.746094 65.144531 183.609375 65.203125 183.449219 C 65.234375 183.328125 65.320313 183.25 65.453125 183.222656 C 65.613281 183.195313 65.789063 183.222656 65.894531 183.34375 C 66.15625 183.625 65.964844 184.082031 65.554688 184.136719 C 65.378906 184.164063 65.21875 184.105469 65.085938 184 C 65.042969 183.945313 64.996094 183.902344 65.042969 183.824219 Z M 65.042969 183.832031 "
       id="path139" />
    <path
       style=" stroke:none;fill-rule:evenodd;fill:rgb(100%,100%,100%);fill-opacity:1;"
       d="M 56.683594 183.84375 C 56.613281 184.019531 56.363281 184.179688 56.167969 184.152344 C 55.933594 184.121094 55.714844 183.925781 55.703125 183.726563 C 55.703125 183.605469 55.714844 183.480469 55.789063 183.371094 C 55.90625 183.238281 56.140625 183.171875 56.320313 183.238281 C 56.480469 183.304688 56.554688 183.46875 56.511719 183.640625 C 56.480469 183.753906 56.394531 183.804688 56.285156 183.84375 C 56.257813 183.84375 56.214844 183.859375 56.214844 183.898438 C 56.230469 183.957031 56.277344 183.957031 56.304688 183.957031 C 56.394531 183.96875 56.480469 183.957031 56.554688 183.898438 C 56.597656 183.871094 56.628906 183.832031 56.683594 183.84375 Z M 56.683594 183.84375 "
       id="path141" />
    <path
       style=" stroke:none;fill-rule:evenodd;fill:rgb(100%,100%,100%);fill-opacity:1;"
       d="M 59.449219 183.027344 C 59.269531 183.066406 59.09375 183.09375 58.917969 183.132813 C 58.769531 183.164063 58.636719 183.164063 58.503906 183.09375 C 58.460938 183.066406 58.433594 183.027344 58.433594 182.984375 C 58.433594 182.945313 58.492188 182.945313 58.535156 182.945313 C 58.726563 182.878906 58.929688 182.824219 59.140625 182.773438 C 59.183594 182.753906 59.238281 182.753906 59.300781 182.726563 C 59.578125 182.578125 59.8125 182.6875 60.0625 182.835938 C 59.855469 182.894531 59.652344 182.957031 59.449219 183.023438 Z M 59.449219 183.027344 "
       id="path143" />
    <path
       style=" stroke:none;fill-rule:evenodd;fill:rgb(0%,0%,0%);fill-opacity:1;"
       d="M 60.035156 178.566406 C 60.109375 178.566406 60.195313 178.578125 60.28125 178.605469 C 60.578125 178.671875 60.679688 178.980469 60.472656 179.207031 C 60.386719 179.300781 60.296875 179.378906 60.195313 179.460938 C 59.992188 179.585938 59.886719 179.570313 59.738281 179.355469 C 59.621094 179.167969 59.621094 178.941406 59.652344 178.726563 C 59.683594 178.605469 59.800781 178.566406 60.035156 178.566406 Z M 60.035156 178.566406 "
       id="path145" />
    <path
       style=" stroke:none;fill-rule:evenodd;fill:rgb(0%,0%,0%);fill-opacity:1;"
       d="M 62.03125 179.007813 C 62.015625 179.085938 62.03125 179.15625 62.003906 179.222656 C 61.957031 179.460938 61.796875 179.554688 61.578125 179.449219 C 61.402344 179.367188 61.269531 179.246094 61.167969 179.085938 C 61.03125 178.898438 61.09375 178.726563 61.296875 178.644531 C 61.441406 178.585938 61.574219 178.566406 61.722656 178.601563 C 61.957031 178.65625 62.0625 178.753906 62.03125 179.007813 Z M 62.03125 179.007813 "
       id="path147" />
    <path
       style=" stroke:none;fill-rule:evenodd;fill:rgb(0%,0%,0%);fill-opacity:1;"
       d="M 61.164063 179.96875 C 61.164063 180.011719 61.132813 180.039063 61.132813 180.066406 C 61.105469 180.121094 61.078125 180.175781 61.015625 180.175781 C 60.945313 180.1875 60.929688 180.128906 60.898438 180.09375 C 60.898438 180.09375 60.886719 180.082031 60.886719 180.0625 C 60.78125 179.929688 60.78125 179.929688 60.664063 180.046875 C 60.648438 180.078125 60.621094 180.117188 60.589844 180.105469 C 60.546875 180.09375 60.515625 180.046875 60.53125 180.027344 C 60.589844 179.828125 60.632813 179.609375 60.738281 179.421875 C 60.75 179.378906 60.796875 179.355469 60.839844 179.394531 C 60.984375 179.566406 61.105469 179.757813 61.164063 179.96875 Z M 61.164063 179.96875 "
       id="path149" />
    <path
       style=" stroke:none;fill-rule:nonzero;fill:rgb(0%,0%,0%);fill-opacity:1;"
       d="M 52.9375 186.171875 C 57.042969 186.144531 62.554688 186.171875 65.988281 186.171875 "
       id="path151" />
    <path
       style=" stroke:none;fill-rule:nonzero;fill:rgb(0%,0%,0%);fill-opacity:1;"
       d="M 206.859375 203.710938 C 206.859375 197.941406 202.605469 193.320313 197.46875 193.320313 C 192.375 193.320313 188.078125 197.851563 188.078125 203.710938 C 188.078125 209.523438 192.417969 213.917969 197.46875 213.917969 C 202.605469 213.917969 206.859375 209.433594 206.859375 203.710938 Z M 203.933594 203.3125 C 203.933594 210.8125 200.082031 213.164063 197.46875 213.164063 C 194.765625 213.164063 190.957031 210.679688 190.957031 203.3125 C 190.957031 195.988281 195.121094 194.035156 197.46875 194.035156 C 199.90625 194.035156 203.933594 196.03125 203.933594 203.3125 Z M 201.367188 188.753906 C 201.457031 188.128906 200.96875 187.550781 200.347656 187.550781 C 200.039063 187.550781 199.726563 187.773438 199.640625 187.90625 L 195.519531 191.589844 L 195.917969 192.171875 L 200.746094 189.503906 C 201.054688 189.371094 201.277344 189.105469 201.367188 188.753906 Z M 201.367188 188.753906 "
       id="path153" />
    <path
       style=" stroke:none;fill-rule:nonzero;fill:rgb(0%,0%,0%);fill-opacity:1;"
       d="M 223.160156 207.171875 C 223.160156 203.578125 220.457031 200.777344 217.269531 200.777344 C 215.054688 200.777344 213.859375 202.023438 213.328125 202.644531 L 213.328125 200.777344 L 209.253906 201.089844 L 209.253906 201.976563 C 211.246094 201.976563 211.46875 202.15625 211.46875 203.398438 L 211.46875 216.625 C 211.46875 217.914063 211.15625 217.914063 209.253906 217.914063 L 209.253906 218.800781 L 212.398438 218.710938 L 215.585938 218.800781 L 215.585938 217.914063 C 213.726563 217.914063 213.417969 217.914063 213.417969 216.625 L 213.417969 211.609375 C 213.550781 212.097656 214.746094 213.605469 216.871094 213.605469 C 220.238281 213.605469 223.160156 210.8125 223.160156 207.171875 Z M 220.8125 207.171875 C 220.8125 210.589844 218.863281 212.984375 216.78125 212.984375 C 215.632813 212.984375 214.566406 212.410156 213.816406 211.253906 C 213.417969 210.679688 213.417969 210.632813 213.417969 210.054688 L 213.417969 203.753906 C 214.214844 202.289063 215.585938 201.492188 217.046875 201.492188 C 219.128906 201.492188 220.8125 203.976563 220.8125 207.171875 Z M 220.8125 207.171875 "
       id="path155" />
    <path
       style=" stroke:none;fill-rule:nonzero;fill:rgb(0%,0%,0%);fill-opacity:1;"
       d="M 233.546875 209.789063 L 233.546875 208.191406 L 232.839844 208.191406 L 232.839844 209.746094 C 232.839844 211.832031 231.996094 212.898438 230.933594 212.898438 C 229.03125 212.898438 229.03125 210.320313 229.03125 209.832031 L 229.03125 201.976563 L 233.105469 201.976563 L 233.105469 201.089844 L 229.03125 201.089844 L 229.03125 195.898438 L 228.320313 195.898438 C 228.320313 198.207031 227.480469 201.222656 224.6875 201.359375 L 224.6875 201.976563 L 227.082031 201.976563 L 227.082031 209.789063 C 227.082031 213.25 229.738281 213.605469 230.757813 213.605469 C 232.75 213.605469 233.546875 211.609375 233.546875 209.789063 Z M 233.546875 209.789063 "
       id="path157" />
    <path
       style=" stroke:none;fill-rule:nonzero;fill:rgb(0%,0%,0%);fill-opacity:1;"
       d="M 242.140625 213.296875 L 242.140625 212.410156 C 240.238281 212.410156 240.148438 212.273438 240.148438 211.167969 L 240.148438 200.777344 L 236.207031 201.089844 L 236.207031 201.976563 C 238.023438 201.976563 238.289063 202.15625 238.289063 203.53125 L 238.289063 211.167969 C 238.289063 212.410156 237.976563 212.410156 236.074219 212.410156 L 236.074219 213.296875 L 239.171875 213.207031 C 240.191406 213.207031 241.167969 213.253906 242.140625 213.296875 Z M 240.546875 196.207031 C 240.546875 195.40625 239.925781 194.699219 239.085938 194.699219 C 238.109375 194.699219 237.535156 195.496094 237.535156 196.207031 C 237.535156 196.960938 238.199219 197.675781 239.039063 197.675781 C 240.015625 197.675781 240.546875 196.917969 240.546875 196.207031 Z M 240.546875 196.207031 "
       id="path159" />
    <path
       style=" stroke:none;fill-rule:nonzero;fill:rgb(0%,0%,0%);fill-opacity:1;"
       d="M 254.730469 209.921875 C 254.730469 209.65625 254.421875 209.65625 254.332031 209.65625 C 254.109375 209.65625 254.023438 209.746094 253.976563 209.921875 C 253.179688 212.542969 251.320313 212.898438 250.300781 212.898438 C 248.796875 212.898438 246.316406 211.699219 246.316406 207.128906 C 246.316406 202.511719 248.617188 201.3125 250.125 201.3125 C 250.390625 201.3125 252.160156 201.355469 253.136719 202.375 C 251.984375 202.464844 251.808594 203.3125 251.808594 203.664063 C 251.808594 204.417969 252.339844 204.953125 253.09375 204.953125 C 253.84375 204.953125 254.421875 204.507813 254.421875 203.621094 C 254.421875 201.710938 252.25 200.601563 250.082031 200.601563 C 246.535156 200.601563 243.96875 203.664063 243.96875 207.171875 C 243.96875 210.8125 246.757813 213.605469 250.035156 213.605469 C 253.800781 213.605469 254.730469 210.1875 254.730469 209.921875 Z M 254.730469 209.921875 "
       id="path161" />
    <path
       style=" stroke:none;fill-rule:nonzero;fill:rgb(0%,0%,0%);fill-opacity:1;"
       d="M 269.175781 210.765625 L 269.175781 209.167969 L 268.464844 209.167969 L 268.464844 210.765625 C 268.464844 212.410156 267.757813 212.585938 267.445313 212.585938 C 266.515625 212.585938 266.429688 211.300781 266.429688 211.167969 L 266.429688 205.53125 C 266.429688 204.328125 266.429688 203.222656 265.410156 202.15625 C 264.300781 201.042969 262.886719 200.601563 261.511719 200.601563 C 259.207031 200.601563 257.261719 201.933594 257.261719 203.796875 C 257.261719 204.640625 257.835938 205.128906 258.542969 205.128906 C 259.339844 205.128906 259.875 204.550781 259.875 203.84375 C 259.875 203.488281 259.695313 202.554688 258.410156 202.554688 C 259.164063 201.535156 260.582031 201.222656 261.46875 201.222656 C 262.839844 201.222656 264.480469 202.332031 264.480469 204.859375 L 264.480469 205.882813 C 263.019531 205.972656 261.023438 206.0625 259.253906 206.90625 C 257.128906 207.878906 256.417969 209.347656 256.417969 210.589844 C 256.417969 212.898438 259.164063 213.605469 260.9375 213.605469 C 262.839844 213.605469 264.125 212.453125 264.65625 211.167969 C 264.789063 212.277344 265.542969 213.472656 266.871094 213.472656 C 267.445313 213.472656 269.175781 213.074219 269.175781 210.765625 Z M 264.480469 209.347656 C 264.480469 212.007813 262.441406 212.984375 261.15625 212.984375 C 259.785156 212.984375 258.632813 212.007813 258.632813 210.589844 C 258.632813 209.035156 259.785156 206.679688 264.480469 206.503906 Z M 264.480469 209.347656 "
       id="path163" />
    <path
       style=" stroke:none;fill-rule:nonzero;fill:rgb(0%,0%,0%);fill-opacity:1;"
       d="M 111.039063 243.460938 C 111.039063 240.894531 109.140625 238.875 106.828125 238.875 C 104.546875 238.875 102.617188 240.894531 102.617188 243.460938 C 102.617188 246.058594 104.578125 248.015625 106.828125 248.015625 C 109.078125 248.015625 111.039063 246.058594 111.039063 243.460938 Z M 109.625 243.332031 C 109.625 245.226563 108.339844 246.765625 106.828125 246.765625 C 105.320313 246.765625 104.03125 245.226563 104.03125 243.332031 C 104.03125 241.472656 105.378906 240.125 106.828125 240.125 C 108.308594 240.125 109.625 241.472656 109.625 243.332031 Z M 109.625 243.332031 "
       id="path165" />
    <path
       style=" stroke:none;fill-rule:nonzero;fill:rgb(0%,0%,0%);fill-opacity:1;"
       d="M 122.214844 243.460938 C 122.214844 240.957031 120.417969 238.9375 118.230469 238.9375 C 117.234375 238.9375 116.335938 239.320313 115.625 239.933594 C 115.625 239.355469 115.59375 239.066406 114.792969 239.066406 L 113.3125 239.066406 C 112.988281 239.066406 112.476563 239.066406 112.476563 239.710938 C 112.476563 240.316406 112.988281 240.316406 113.28125 240.316406 L 114.210938 240.316406 L 114.210938 251.191406 L 113.3125 251.191406 C 112.988281 251.191406 112.476563 251.191406 112.476563 251.800781 C 112.476563 252.445313 112.988281 252.445313 113.28125 252.445313 L 116.558594 252.445313 C 116.847656 252.445313 117.363281 252.445313 117.363281 251.800781 C 117.363281 251.191406 116.847656 251.191406 116.523438 251.191406 L 115.625 251.191406 L 115.625 246.957031 C 116.464844 247.824219 117.363281 248.015625 118.007813 248.015625 C 120.222656 248.015625 122.214844 246.058594 122.214844 243.460938 Z M 120.800781 243.460938 C 120.800781 245.417969 119.386719 246.765625 117.941406 246.765625 C 116.335938 246.765625 115.625 244.96875 115.625 243.972656 L 115.625 242.5 C 115.625 241.277344 116.816406 240.191406 118.101563 240.191406 C 119.609375 240.191406 120.800781 241.699219 120.800781 243.460938 Z M 120.800781 243.460938 "
       id="path167" />
    <path
       style=" stroke:none;fill-rule:nonzero;fill:rgb(0%,0%,0%);fill-opacity:1;"
       d="M 132.175781 245.320313 C 132.175781 244.9375 132.175781 244.519531 131.464844 244.519531 C 130.789063 244.519531 130.761719 244.9375 130.761719 245.292969 C 130.761719 246.574219 129.570313 246.765625 129.121094 246.765625 C 127.546875 246.765625 127.546875 245.707031 127.546875 245.195313 L 127.546875 240.316406 L 130.886719 240.316406 C 131.210938 240.316406 131.726563 240.316406 131.726563 239.710938 C 131.726563 239.066406 131.210938 239.066406 130.886719 239.066406 L 127.546875 239.066406 L 127.546875 237.398438 C 127.546875 237.015625 127.546875 236.566406 126.835938 236.566406 C 126.132813 236.566406 126.132813 236.980469 126.132813 237.398438 L 126.132813 239.066406 L 124.328125 239.066406 C 124.007813 239.066406 123.496094 239.066406 123.496094 239.710938 C 123.496094 240.316406 124.007813 240.316406 124.296875 240.316406 L 126.132813 240.316406 L 126.132813 245.320313 C 126.132813 247.28125 127.511719 248.015625 129.023438 248.015625 C 130.535156 248.015625 132.175781 247.117188 132.175781 245.320313 Z M 132.175781 245.320313 "
       id="path169" />
    <path
       style=" stroke:none;fill-rule:nonzero;fill:rgb(0%,0%,0%);fill-opacity:1;"
       d="M 140.394531 246.605469 C 140.394531 245.867188 139.785156 245.320313 139.140625 245.320313 C 138.371094 245.320313 137.855469 245.960938 137.855469 246.605469 C 137.855469 247.34375 138.464844 247.886719 139.109375 247.886719 C 139.882813 247.886719 140.394531 247.246094 140.394531 246.605469 Z M 140.394531 246.605469 "
       id="path171" />
    <path
       style=" stroke:none;fill-rule:nonzero;fill:rgb(0%,0%,0%);fill-opacity:1;"
       d="M 153.46875 236.5 C 153.46875 235.25 151.828125 235.25 151.507813 235.25 C 149.867188 235.25 148.261719 236.210938 148.261719 237.976563 L 148.261719 239.066406 L 146.234375 239.066406 C 145.882813 239.066406 145.367188 239.066406 145.367188 239.710938 C 145.367188 240.316406 145.882813 240.316406 146.203125 240.316406 L 148.261719 240.316406 L 148.261719 246.636719 L 146.203125 246.636719 C 145.882813 246.636719 145.367188 246.636719 145.367188 247.246094 C 145.367188 247.886719 145.882813 247.886719 146.203125 247.886719 L 151.765625 247.886719 C 152.054688 247.886719 152.601563 247.886719 152.601563 247.28125 C 152.601563 246.636719 152.054688 246.636719 151.765625 246.636719 L 149.675781 246.636719 L 149.675781 240.316406 L 152.179688 240.316406 C 152.503906 240.316406 153.019531 240.316406 153.019531 239.710938 C 153.019531 239.066406 152.503906 239.066406 152.179688 239.066406 L 149.675781 239.066406 L 149.675781 238.105469 C 149.675781 236.5 151.058594 236.5 151.667969 236.5 C 151.667969 236.597656 151.863281 237.398438 152.570313 237.398438 C 152.988281 237.398438 153.46875 237.046875 153.46875 236.5 Z M 153.46875 236.5 "
       id="path173" />
    <path
       style=" stroke:none;fill-rule:nonzero;fill:rgb(0%,0%,0%);fill-opacity:1;"
       d="M 165.902344 247.246094 C 165.902344 246.636719 165.386719 246.636719 165.097656 246.636719 C 164.230469 246.636719 164.003906 246.539063 163.84375 246.476563 L 163.84375 242.050781 C 163.84375 240.605469 162.75 238.875 159.792969 238.875 C 158.925781 238.875 156.800781 238.875 156.800781 240.382813 C 156.800781 240.992188 157.25 241.3125 157.738281 241.3125 C 158.058594 241.3125 158.636719 241.121094 158.636719 240.382813 C 158.636719 240.222656 158.667969 240.191406 159.085938 240.160156 C 159.375 240.128906 159.632813 240.128906 159.824219 240.128906 C 161.367188 240.128906 162.429688 240.769531 162.429688 242.214844 C 158.796875 242.277344 156.289063 243.300781 156.289063 245.261719 C 156.289063 246.671875 157.574219 248.019531 159.664063 248.019531 C 160.433594 248.019531 161.691406 247.859375 162.65625 247.25 C 163.105469 247.859375 164.101563 247.890625 164.875 247.890625 C 165.449219 247.890625 165.902344 247.890625 165.902344 247.25 Z M 162.425781 245.160156 C 162.425781 245.609375 162.425781 246.058594 161.625 246.410156 C 160.882813 246.765625 159.984375 246.765625 159.824219 246.765625 C 158.539063 246.765625 157.707031 246.058594 157.707031 245.257813 C 157.707031 244.265625 159.472656 243.492188 162.425781 243.429688 Z M 162.425781 245.160156 "
       id="path175" />
    <path
       style=" stroke:none;fill-rule:nonzero;fill:rgb(0%,0%,0%);fill-opacity:1;"
       d="M 175.761719 247.054688 L 175.761719 245.867188 C 175.761719 245.480469 175.761719 245.03125 175.054688 245.03125 C 174.347656 245.03125 174.347656 245.449219 174.347656 245.867188 L 174.347656 246.636719 L 168.820313 246.636719 L 175.214844 240.574219 C 175.664063 240.160156 175.664063 240.125 175.664063 239.769531 C 175.664063 239.066406 175.214844 239.066406 174.828125 239.066406 L 167.855469 239.066406 C 167.179688 239.066406 167.015625 239.226563 167.015625 239.898438 L 167.015625 240.863281 C 167.015625 241.246094 167.015625 241.699219 167.726563 241.699219 C 168.433594 241.699219 168.433594 241.246094 168.433594 240.863281 L 168.433594 240.316406 L 173.539063 240.316406 L 167.144531 246.378906 C 166.730469 246.800781 166.695313 246.832031 166.695313 247.183594 C 166.695313 247.886719 167.144531 247.886719 167.53125 247.886719 L 175.3125 247.886719 C 175.761719 247.761719 175.761719 247.34375 175.761719 247.054688 Z M 175.761719 247.054688 "
       id="path177" />
    <path
       style=" stroke:none;fill-rule:nonzero;fill:rgb(0%,0%,0%);fill-opacity:1;"
       d="M 183.433594 246.605469 C 183.433594 245.867188 182.824219 245.320313 182.183594 245.320313 C 181.410156 245.320313 180.894531 245.960938 180.894531 246.605469 C 180.894531 247.34375 181.507813 247.886719 182.152344 247.886719 C 182.921875 247.886719 183.433594 247.246094 183.433594 246.605469 Z M 183.433594 246.605469 "
       id="path179" />
    <path
       style=" stroke:none;fill-rule:nonzero;fill:rgb(0%,0%,0%);fill-opacity:1;"
       d="M 197.957031 239.675781 C 197.957031 239.066406 197.472656 239.066406 197.085938 239.066406 L 194.742188 239.066406 C 194.359375 239.066406 193.875 239.066406 193.875 239.675781 C 193.875 240.316406 194.359375 240.316406 194.742188 240.316406 L 195.738281 240.316406 L 194.710938 246.410156 C 194.613281 245.867188 194.359375 244.9375 194.097656 244.101563 C 193.746094 242.816406 193.679688 242.59375 192.941406 242.59375 C 192.75 242.59375 192.367188 242.59375 192.136719 243.042969 C 192.074219 243.171875 191.238281 245.996094 191.175781 246.410156 L 191.144531 246.410156 L 190.082031 240.316406 L 191.082031 240.316406 C 191.464844 240.316406 191.945313 240.316406 191.945313 239.710938 C 191.945313 239.066406 191.464844 239.066406 191.082031 239.066406 L 188.734375 239.066406 C 188.378906 239.066406 187.863281 239.066406 187.863281 239.675781 C 187.863281 240.316406 188.3125 240.316406 188.925781 240.316406 L 190.148438 247.183594 C 190.246094 247.664063 190.277344 247.984375 191.113281 247.984375 C 191.945313 247.984375 191.980469 247.792969 192.367188 246.539063 C 192.878906 244.746094 192.910156 244.453125 192.941406 244.007813 L 192.972656 244.007813 C 193.070313 245.066406 193.84375 247.46875 193.902344 247.632813 C 194.164063 247.984375 194.546875 247.984375 194.773438 247.984375 C 195.542969 247.984375 195.609375 247.632813 195.671875 247.183594 L 196.929688 240.316406 C 197.535156 240.316406 197.957031 240.316406 197.957031 239.675781 Z M 197.957031 239.675781 "
       id="path181" />
    <path
       style=" stroke:none;fill-rule:nonzero;fill:rgb(0%,0%,0%);fill-opacity:1;"
       d="M 207.496094 245.320313 C 207.496094 244.9375 207.496094 244.519531 206.789063 244.519531 C 206.113281 244.519531 206.082031 244.9375 206.082031 245.292969 C 206.082031 246.574219 204.890625 246.765625 204.441406 246.765625 C 202.867188 246.765625 202.867188 245.707031 202.867188 245.195313 L 202.867188 240.316406 L 206.207031 240.316406 C 206.53125 240.316406 207.046875 240.316406 207.046875 239.710938 C 207.046875 239.066406 206.53125 239.066406 206.207031 239.066406 L 202.867188 239.066406 L 202.867188 237.398438 C 202.867188 237.015625 202.867188 236.566406 202.15625 236.566406 C 201.453125 236.566406 201.453125 236.980469 201.453125 237.398438 L 201.453125 239.066406 L 199.652344 239.066406 C 199.332031 239.066406 198.816406 239.066406 198.816406 239.710938 C 198.816406 240.316406 199.332031 240.316406 199.617188 240.316406 L 201.453125 240.316406 L 201.453125 245.320313 C 201.453125 247.28125 202.835938 248.015625 204.34375 248.015625 C 205.855469 248.015625 207.496094 247.117188 207.496094 245.320313 Z M 207.496094 245.320313 "
       id="path183" />
    <path
       style=" stroke:none;fill-rule:nonzero;fill:rgb(0%,0%,0%);fill-opacity:1;"
       d="M 218.03125 236.5 C 218.03125 235.25 216.390625 235.25 216.070313 235.25 C 214.429688 235.25 212.820313 236.210938 212.820313 237.976563 L 212.820313 239.066406 L 210.796875 239.066406 C 210.445313 239.066406 209.929688 239.066406 209.929688 239.710938 C 209.929688 240.316406 210.445313 240.316406 210.765625 240.316406 L 212.820313 240.316406 L 212.820313 246.636719 L 210.765625 246.636719 C 210.445313 246.636719 209.929688 246.636719 209.929688 247.246094 C 209.929688 247.886719 210.445313 247.886719 210.765625 247.886719 L 216.324219 247.886719 C 216.617188 247.886719 217.164063 247.886719 217.164063 247.28125 C 217.164063 246.636719 216.617188 246.636719 216.324219 246.636719 L 214.238281 246.636719 L 214.238281 240.316406 L 216.746094 240.316406 C 217.066406 240.316406 217.582031 240.316406 217.582031 239.710938 C 217.582031 239.066406 217.066406 239.066406 216.746094 239.066406 L 214.238281 239.066406 L 214.238281 238.105469 C 214.238281 236.5 215.621094 236.5 216.230469 236.5 C 216.230469 236.597656 216.421875 237.398438 217.128906 237.398438 C 217.546875 237.398438 218.03125 237.046875 218.03125 236.5 Z M 218.03125 236.5 "
       id="path185" />
  </g>
</svg>
