<?xml version="1.0" encoding="UTF-8" standalone="no"?>
<svg
   xmlns:dc="http://purl.org/dc/elements/1.1/"
   xmlns:cc="http://creativecommons.org/ns#"
   xmlns:rdf="http://www.w3.org/1999/02/22-rdf-syntax-ns#"
   xmlns:svg="http://www.w3.org/2000/svg"
   xmlns="http://www.w3.org/2000/svg"
   xmlns:sodipodi="http://sodipodi.sourceforge.net/DTD/sodipodi-0.dtd"
   xmlns:inkscape="http://www.inkscape.org/namespaces/inkscape"
   width="239.3454pt"
   height="93.5998pt"
   viewBox="0 0 239.3454 93.5998"
   version="1.2"
   id="svg51"
   sodipodi:docname="piratex4.svg"
   inkscape:version="0.92.3 (2405546, 2018-03-11)">
  <metadata
     id="metadata57">
    <rdf:RDF>
      <cc:Work
         rdf:about="">
        <dc:format>image/svg+xml</dc:format>
        <dc:type
           rdf:resource="http://purl.org/dc/dcmitype/StillImage" />
        <dc:title></dc:title>
      </cc:Work>
    </rdf:RDF>
  </metadata>
  <defs
     id="defs55" />
  <sodipodi:namedview
     pagecolor="#ffffff"
     bordercolor="#666666"
     borderopacity="1"
     objecttolerance="10"
     gridtolerance="10"
     guidetolerance="10"
     inkscape:pageopacity="0"
     inkscape:pageshadow="2"
     inkscape:window-width="1301"
     inkscape:window-height="744"
     id="namedview53"
     showgrid="false"
     inkscape:zoom="3.7853245"
     inkscape:cx="150.61053"
     inkscape:cy="72.262123"
     inkscape:window-x="65"
     inkscape:window-y="24"
     inkscape:window-maximized="1"
     inkscape:current-layer="svg51" />
  <g
     id="surface333">
    <path
       style=" stroke:none;fill-rule:nonzero;fill:rgb(0%,0%,0%);fill-opacity:1;"
       d="M 30.421875 47.425781 C 30.726562 47.425781 32.078125 47.425781 32.175781 47.53125 L 34.457031 47.53125 C 47.914062 47.53125 52.675781 41.320312 52.675781 35.003906 C 52.675781 25.585938 44.183594 22.582031 35.699219 22.582031 L 16.445312 22.582031 C 15.203125 22.582031 14.167969 22.582031 14.167969 23.722656 C 14.167969 24.859375 15.410156 24.859375 15.925781 24.859375 C 19.449219 24.859375 19.65625 25.378906 19.65625 28.691406 L 19.65625 61.710938 C 19.65625 65.023438 19.449219 65.542969 16.03125 65.542969 C 15.410156 65.542969 14.167969 65.542969 14.167969 66.679688 C 14.167969 67.820312 15.203125 67.820312 16.445312 67.820312 L 34.144531 67.820312 C 35.285156 67.820312 36.320312 67.820312 36.320312 66.679688 C 36.320312 65.542969 35.179688 65.542969 34.457031 65.542969 C 30.726562 65.542969 30.421875 65.023438 30.421875 61.710938 Z M 41.289062 44.527344 C 43.464844 41.734375 43.671875 37.59375 43.671875 34.902344 C 43.671875 31.382812 43.355469 27.964844 41.597656 25.480469 C 45.21875 26.308594 50.394531 28.277344 50.394531 35.003906 C 50.394531 39.664062 47.394531 42.976562 41.289062 44.527344 Z M 30.421875 28.484375 C 30.421875 27.136719 30.421875 24.859375 34.351562 24.859375 C 39.117188 24.859375 41.289062 26.722656 41.289062 34.902344 C 41.289062 44.425781 37.875 45.148438 33.730469 45.148438 L 30.421875 45.148438 Z M 21.414062 65.542969 C 21.929688 64.300781 21.929688 62.746094 21.929688 61.917969 L 21.929688 28.484375 C 21.929688 27.65625 21.929688 26.101562 21.414062 24.859375 L 28.96875 24.859375 C 28.140625 26 28.140625 27.242188 28.140625 28.277344 L 28.140625 61.917969 C 28.140625 62.539062 28.140625 64.300781 28.660156 65.542969 Z M 21.414062 65.542969 "
       id="path2" />
    <path
       style=" stroke:none;fill-rule:nonzero;fill:rgb(0%,0%,0%);fill-opacity:1;"
       d="M 100.34375 37 C 99.71875 36.792969 98.890625 36.6875 97.964844 36.6875 C 96.097656 36.6875 94.855469 37.414062 92.265625 40.101562 L 89.371094 43.3125 L 89.371094 37 L 88.75 36.6875 L 84.09375 38.136719 C 82.019531 38.757812 80.78125 38.964844 76.636719 39.480469 L 76.636719 41.863281 L 79.636719 42.070312 C 81.195312 42.171875 81.296875 42.792969 81.296875 46.625 L 81.296875 61.117188 C 81.296875 64.738281 80.988281 65.257812 78.917969 65.359375 L 76.636719 65.464844 L 76.636719 67.949219 C 79.539062 67.84375 82.332031 67.742188 85.128906 67.742188 C 88.4375 67.742188 91.851562 67.84375 95.167969 67.949219 L 95.167969 65.464844 L 92.582031 65.359375 C 89.679688 65.257812 89.371094 64.84375 89.371094 61.117188 L 89.371094 48.074219 C 89.371094 46.003906 92.058594 43.828125 94.652344 43.828125 C 96.304688 43.828125 97.550781 44.65625 98.476562 46.210938 L 100.035156 45.589844 Z M 100.34375 37 "
       id="path4" />
    <path
       style=" stroke:none;fill-rule:nonzero;fill:rgb(0%,0%,0%);fill-opacity:1;"
       d="M 131.917969 67.949219 L 131.917969 65.464844 L 129.949219 65.257812 C 128.394531 65.152344 128.085938 64.324219 128.085938 61.21875 L 128.085938 45.898438 C 128.085938 40.101562 124.152344 36.6875 117.527344 36.6875 C 114.628906 36.6875 112.140625 37.414062 109.554688 38.859375 L 106.136719 41.035156 L 106.136719 45.589844 L 108.105469 46.003906 L 109.554688 42.691406 C 109.761719 42.277344 111.519531 41.757812 113.382812 41.757812 C 117.730469 41.757812 119.910156 44.140625 120.117188 49.625 L 114.320312 50.765625 C 105.929688 52.523438 103.035156 55.113281 103.035156 60.703125 C 103.035156 65.980469 105.722656 68.878906 110.695312 68.878906 C 112.25 68.878906 113.285156 68.570312 113.90625 68.050781 L 120.117188 63.289062 L 119.800781 67.429688 L 120.117188 67.949219 C 122.082031 67.84375 124.152344 67.742188 126.121094 67.742188 C 127.980469 67.742188 129.949219 67.84375 131.917969 67.949219 Z M 120.117188 60.183594 C 118.765625 61.839844 116.386719 63.082031 114.421875 63.082031 C 112.25 63.082031 111.007812 61.53125 111.007812 58.941406 C 111.007812 55.734375 112.457031 54.386719 117.113281 53.144531 L 120.117188 52.316406 Z M 120.117188 60.183594 "
       id="path6" />
    <path
       style=" stroke:none;fill-rule:nonzero;fill:rgb(0%,0%,0%);fill-opacity:1;"
       d="M 165.324219 22.738281 L 151.039062 22.84375 L 140.585938 22.84375 L 127.128906 22.738281 C 127.542969 26.464844 127.644531 29.054688 127.644531 33.296875 L 129.714844 33.296875 L 129.925781 28.121094 C 130.027344 26.570312 130.753906 25.949219 132.617188 25.949219 L 142.863281 25.949219 C 143.070312 28.121094 143.070312 29.675781 143.070312 32.574219 L 143.070312 60.417969 C 143.070312 65.699219 142.757812 66.214844 139.757812 66.421875 L 136.550781 66.628906 L 136.550781 68.59375 C 139.757812 68.492188 142.964844 68.386719 146.175781 68.386719 C 149.382812 68.386719 152.695312 68.492188 155.90625 68.59375 L 155.90625 66.628906 L 152.695312 66.421875 C 149.695312 66.214844 149.382812 65.699219 149.382812 60.417969 L 149.382812 32.574219 C 149.382812 29.570312 149.382812 28.121094 149.589844 25.949219 L 159.839844 25.949219 C 161.703125 25.949219 162.425781 26.570312 162.53125 28.121094 L 162.738281 33.296875 L 164.804688 33.296875 C 164.804688 29.054688 164.910156 26.464844 165.324219 22.738281 Z M 165.324219 22.738281 "
       id="path8" />
    <path
       style=" stroke:none;fill-rule:nonzero;fill:rgb(0%,0%,0%);fill-opacity:1;"
       d="M 228.574219 69.214844 L 228.574219 67.25 L 226.601562 67.042969 C 225.363281 66.9375 224.429688 65.800781 222.257812 62.386719 L 210.664062 43.960938 L 220.804688 30.191406 C 223.5 26.570312 224.328125 25.742188 225.363281 25.636719 L 228.050781 25.535156 L 228.050781 23.464844 L 221.328125 23.464844 L 209.113281 41.371094 L 200.722656 27.085938 C 199.175781 24.601562 198.136719 23.464844 196.894531 22.738281 L 187.582031 24.601562 L 187.789062 26.257812 L 190.683594 26.464844 C 192.34375 26.570312 194.621094 28.742188 196.792969 32.46875 L 205.28125 46.445312 L 192.34375 63.835938 C 190.683594 66.109375 189.960938 66.835938 188.507812 67.042969 L 186.753906 67.25 L 186.753906 69.214844 C 187.886719 69.113281 189.03125 69.007812 190.167969 69.007812 C 191.304688 69.007812 192.445312 69.113281 193.585938 69.214844 L 206.933594 49.03125 L 219.050781 69.214844 C 220.707031 69.113281 222.257812 69.007812 223.914062 69.007812 C 225.464844 69.007812 227.015625 69.113281 228.574219 69.214844 Z M 228.574219 69.214844 "
       id="path10" />
    <path
       style=" stroke:none;fill-rule:nonzero;fill:rgb(0%,0%,0%);fill-opacity:1;"
       d="M 154.507812 78.222656 L 156.785156 78.222656 L 157.199219 80.5 C 157.507812 83.292969 158.4375 85.363281 159.375 85.675781 C 160.714844 86.191406 165.585938 86.503906 171.480469 86.503906 C 174.902344 86.503906 176.140625 86.398438 178.007812 85.984375 L 178.007812 67.457031 L 167.449219 67.25 C 164.550781 67.25 163.304688 67.558594 162.789062 69.734375 C 162.582031 71.183594 162.476562 73.667969 162.476562 73.667969 L 160.507812 73.667969 C 160.617188 71.183594 160.714844 68.699219 160.714844 66.316406 C 160.714844 63.730469 160.617188 61.246094 160.507812 58.660156 L 162.476562 58.660156 C 162.476562 58.660156 162.476562 60.832031 162.789062 62.074219 C 163.410156 64.351562 164.652344 64.558594 167.449219 64.558594 C 170.757812 64.558594 175.105469 64.558594 178.007812 64.351562 L 178.007812 46.652344 C 175.933594 46.238281 174.902344 46.132812 170.34375 46.132812 C 166.511719 46.132812 162.789062 46.445312 160.714844 47.066406 C 159.167969 47.582031 158.960938 47.789062 158.960938 49.34375 L 158.960938 53.585938 L 156.578125 53.585938 C 156.578125 49.652344 156.265625 46.445312 155.542969 43.546875 L 163.71875 43.441406 C 168.894531 43.546875 173.964844 43.546875 179.042969 43.546875 C 182.972656 43.546875 186.910156 43.546875 190.84375 43.441406 L 190.84375 45.410156 L 187.632812 45.617188 C 184.632812 45.71875 184.320312 46.339844 184.320312 51.515625 L 184.320312 81.121094 C 184.320312 86.398438 184.527344 86.8125 187.632812 87.125 L 190.011719 87.332031 L 190.011719 89.296875 C 187.324219 89.195312 184.632812 89.089844 181.9375 89.089844 C 176.867188 89.089844 171.6875 89.195312 166.621094 89.296875 L 155.542969 89.089844 C 155.542969 85.261719 155.128906 81.742188 154.507812 78.222656 Z M 154.507812 78.222656 "
       id="path12" />
    <path
       style=" stroke:none;fill-rule:evenodd;fill:rgb(0%,0%,0%);fill-opacity:1;"
       d="M 52.675781 21.265625 C 51.875 21.703125 51.175781 22.195312 50.550781 22.738281 C 49.980469 23.050781 49.59375 23.464844 49.179688 23.878906 C 48.796875 24.238281 48.40625 24.34375 47.785156 24.1875 C 45.070312 23.515625 42.21875 23.179688 39.375 22.894531 C 34.871094 22.402344 30.3125 22.167969 25.738281 22.300781 C 21.722656 22.402344 17.761719 22.714844 13.855469 23.488281 C 13.574219 23.542969 13.289062 23.644531 13.003906 23.386719 C 10.179688 20.746094 6.84375 18.441406 4 15.804688 C 3.25 15.105469 2.597656 14.355469 1.976562 13.550781 C 1.75 13.265625 1.640625 12.984375 1.878906 12.699219 C 2.105469 12.386719 2.550781 12.386719 2.964844 12.414062 C 4.257812 12.4375 5.449219 12.777344 6.636719 13.113281 C 7.179688 13.265625 7.753906 13.421875 8.34375 13.527344 C 11.167969 14.148438 13.46875 13.398438 15.382812 11.792969 C 16.726562 10.679688 17.585938 9.359375 18.542969 8.066406 C 19.292969 7.03125 20.042969 5.96875 21.050781 5.039062 C 23.09375 3.148438 25.8125 2.191406 28.867188 1.726562 C 33.035156 1.105469 36.964844 1.390625 40.488281 3.125 C 42.660156 4.183594 44.035156 5.761719 45.09375 7.496094 C 45.949219 8.867188 46.570312 10.34375 47.601562 11.6875 C 47.964844 12.15625 48.40625 12.59375 48.894531 13.007812 C 50.453125 14.328125 52.496094 14.664062 54.824219 14.433594 C 56.140625 14.277344 57.433594 13.992188 58.730469 13.734375 C 59.351562 13.605469 60 13.5 60.671875 13.550781 C 61.707031 13.605469 61.992188 14.070312 61.394531 14.714844 C 60.230469 15.933594 58.882812 17.046875 57.414062 18.082031 C 55.835938 19.140625 54.253906 20.203125 52.652344 21.265625 Z M 52.675781 21.265625 "
       id="path14" />
    <path
       style="stroke:none;fill-rule:evenodd;fill:#ffffff;fill-opacity:1"
       d="M 32.382812 12.414062 C 32.285156 12.414062 32.207031 12.414062 32.101562 12.414062 C 32.128906 12.492188 32.128906 12.570312 32.15625 12.644531 C 32.230469 12.828125 32.15625 12.90625 31.949219 12.90625 C 31.714844 12.90625 31.6875 12.878906 31.742188 12.59375 C 31.792969 12.414062 31.792969 12.414062 31.535156 12.4375 C 31.554688 12.464844 31.585938 12.492188 31.585938 12.542969 C 31.632812 12.644531 31.6875 12.777344 31.554688 12.851562 C 31.457031 12.929688 31.300781 12.929688 31.199219 12.878906 C 31.070312 12.777344 31.121094 12.644531 31.140625 12.542969 C 31.25 12.335938 31.121094 12.363281 30.964844 12.335938 C 30.992188 12.4375 30.992188 12.515625 30.992188 12.621094 C 30.992188 12.671875 31.011719 12.75 30.933594 12.777344 C 30.863281 12.800781 30.785156 12.828125 30.707031 12.777344 C 30.628906 12.699219 30.675781 12.621094 30.707031 12.570312 C 30.726562 12.515625 30.757812 12.492188 30.785156 12.4375 C 30.882812 12.335938 30.863281 12.257812 30.757812 12.179688 C 30.550781 12 30.550781 11.742188 30.5 11.535156 C 30.390625 11.171875 30.214844 11.066406 29.847656 11.195312 C 29.828125 11.195312 29.800781 11.222656 29.769531 11.222656 C 29.304688 11.378906 29.152344 11.328125 28.921875 10.9375 C 28.761719 10.628906 28.761719 10.601562 29.019531 10.394531 C 29.175781 10.265625 29.226562 10.136719 29.226562 9.957031 C 29.226562 9.59375 29.152344 9.230469 29.226562 8.867188 C 29.226562 8.84375 29.207031 8.789062 29.226562 8.738281 C 29.5625 8.167969 29.511719 7.472656 29.769531 6.875 C 29.769531 6.851562 29.769531 6.824219 29.769531 6.746094 C 29.5625 7.003906 29.511719 7.265625 29.488281 7.523438 C 29.433594 7.753906 29.382812 8.015625 29.28125 8.246094 C 29.097656 8.660156 29.019531 9.074219 29.050781 9.542969 C 29.050781 9.695312 29.050781 9.851562 29.019531 10.03125 C 29.019531 10.109375 29 10.164062 28.921875 10.164062 C 28.867188 10.164062 28.8125 10.136719 28.761719 10.109375 C 28.683594 10.007812 28.632812 9.902344 28.632812 9.773438 C 28.476562 8.738281 28.585938 7.730469 29.050781 6.746094 C 29.257812 6.332031 29.59375 6.023438 30.035156 5.816406 C 30.933594 5.375 31.871094 5.246094 32.851562 5.402344 C 34.144531 5.582031 34.894531 6.382812 35.308594 7.496094 C 35.492188 7.988281 35.675781 8.53125 35.570312 9.074219 C 35.515625 9.359375 35.464844 9.617188 35.308594 9.878906 C 35.257812 9.980469 35.210938 10.085938 35.078125 10.03125 C 34.949219 10.007812 34.949219 9.902344 34.949219 9.824219 C 34.949219 9.542969 34.949219 9.257812 34.949219 8.972656 C 34.949219 8.921875 34.949219 8.84375 34.894531 8.789062 C 34.871094 8.765625 34.796875 8.789062 34.765625 8.816406 C 34.664062 8.867188 34.742188 8.945312 34.765625 9.023438 C 34.871094 9.28125 34.84375 9.566406 34.84375 9.851562 C 34.84375 10.03125 34.925781 10.164062 35.132812 10.238281 C 35.4375 10.394531 35.492188 10.523438 35.339844 10.859375 C 35.210938 11.195312 35.003906 11.328125 34.6875 11.25 C 34.589844 11.222656 34.507812 11.195312 34.429688 11.171875 C 34.144531 11.121094 33.914062 11.222656 33.863281 11.480469 C 33.835938 11.742188 33.679688 11.921875 33.472656 12.078125 C 33.320312 12.207031 33.292969 12.308594 33.394531 12.492188 C 33.5 12.722656 33.394531 12.851562 33.136719 12.851562 C 32.878906 12.851562 32.980469 12.644531 33.007812 12.542969 C 33.035156 12.363281 32.980469 12.363281 32.800781 12.386719 C 32.59375 12.386719 32.699219 12.492188 32.722656 12.59375 C 32.800781 12.851562 32.75 12.929688 32.515625 12.929688 C 32.382812 12.929688 32.257812 12.878906 32.285156 12.699219 C 32.308594 12.59375 32.363281 12.515625 32.382812 12.414062 Z M 32.382812 12.414062 "
       id="path16" />
    <path
       style="stroke:none;fill-rule:evenodd;fill:#ffffff;fill-opacity:1"
       d="M 23.589844 11.457031 C 23.382812 11.195312 23.144531 10.9375 22.9375 10.652344 C 22.710938 10.316406 22.503906 9.957031 22.296875 9.617188 C 22.113281 9.308594 21.980469 8.996094 21.851562 8.6875 C 21.699219 8.300781 21.722656 7.910156 21.753906 7.496094 C 24.386719 11.144531 27.910156 13.8125 32.257812 15.492188 C 32.515625 15.441406 32.75 15.621094 32.980469 15.699219 C 34.015625 16.113281 35.101562 16.425781 36.167969 16.734375 C 36.296875 16.785156 36.503906 16.785156 36.503906 16.941406 C 36.527344 17.125 36.375 17.199219 36.214844 17.277344 C 35.980469 17.382812 35.753906 17.40625 35.515625 17.332031 C 34.429688 17.019531 33.34375 16.683594 32.285156 16.296875 C 30.628906 15.648438 29.074219 14.820312 27.625 13.8125 C 27.390625 13.628906 27.160156 13.449219 26.925781 13.242188 C 27.652344 13.863281 28.453125 14.378906 29.28125 14.847656 C 31.011719 15.855469 32.878906 16.554688 34.820312 17.125 C 35.101562 17.226562 35.386719 17.304688 35.675781 17.433594 C 35.980469 17.5625 36.136719 17.820312 36.089844 18.132812 C 36.089844 18.289062 35.980469 18.390625 35.800781 18.367188 C 35.644531 18.339844 35.4375 18.3125 35.339844 18.160156 C 34.175781 17.796875 32.980469 17.433594 31.871094 16.96875 C 30.261719 16.320312 28.714844 15.597656 27.3125 14.613281 C 27.289062 14.613281 27.238281 14.585938 27.210938 14.585938 C 26.695312 14.199219 26.175781 13.835938 25.683594 13.449219 C 25.195312 13.085938 24.753906 12.644531 24.289062 12.207031 C 24.101562 12 23.875 11.84375 23.714844 11.609375 C 23.636719 11.585938 23.589844 11.535156 23.589844 11.457031 Z M 23.589844 11.457031 "
       id="path18" />
    <path
       style="stroke:none;fill-rule:evenodd;fill:#ffffff;fill-opacity:1"
       d="M 35.308594 13.992188 C 36.136719 13.578125 36.867188 13.058594 37.617188 12.542969 C 39.453125 11.25 41.003906 9.671875 42.347656 7.910156 C 42.425781 7.808594 42.476562 7.703125 42.53125 7.625 C 42.585938 7.574219 42.585938 7.523438 42.660156 7.523438 C 42.738281 7.546875 42.714844 7.625 42.714844 7.679688 C 42.761719 8.246094 42.605469 8.789062 42.324219 9.28125 C 41.519531 10.835938 40.332031 12.101562 38.988281 13.242188 C 38.210938 13.863281 37.351562 14.457031 36.527344 15.027344 C 36.472656 15.128906 36.394531 15.183594 36.296875 15.234375 C 35.753906 15.542969 35.179688 15.828125 34.636719 16.113281 C 34.457031 16.21875 34.277344 16.21875 34.09375 16.140625 C 33.914062 16.0625 33.730469 16.011719 33.550781 15.957031 C 33.472656 15.90625 33.394531 15.90625 33.394531 15.804688 C 33.394531 15.726562 33.472656 15.699219 33.527344 15.675781 C 34.09375 15.414062 34.664062 15.128906 35.179688 14.820312 C 36.007812 14.328125 36.839844 13.835938 37.28125 13.421875 C 36.9375 13.734375 36.296875 14.148438 35.625 14.5625 C 34.894531 15 34.121094 15.390625 33.34375 15.75 C 33.265625 15.804688 33.164062 15.804688 33.085938 15.777344 C 32.90625 15.699219 32.699219 15.621094 32.515625 15.519531 C 32.363281 15.441406 32.335938 15.390625 32.492188 15.285156 C 32.542969 15.234375 32.59375 15.207031 32.644531 15.207031 C 33.472656 14.847656 34.300781 14.457031 35.078125 14.042969 C 35.15625 14.019531 35.230469 13.964844 35.308594 13.992188 Z M 35.308594 13.992188 "
       id="path20" />
    <path
       style="stroke:none;fill-rule:evenodd;fill:#ffffff;fill-opacity:1"
       d="M 34.300781 13.085938 C 34.300781 13.113281 34.25 13.136719 34.277344 13.164062 C 34.328125 13.527344 34.09375 13.707031 33.808594 13.886719 C 33.628906 13.992188 33.5 14.171875 33.371094 14.328125 C 33.1875 14.5625 32.929688 14.640625 32.621094 14.585938 C 32.207031 14.535156 31.792969 14.535156 31.378906 14.613281 C 31.140625 14.613281 30.964844 14.507812 30.804688 14.355469 C 30.550781 14.09375 30.261719 13.835938 29.957031 13.65625 C 29.769531 13.527344 29.695312 13.34375 29.71875 13.136719 C 29.769531 12.699219 29.71875 12.285156 29.511719 11.871094 C 29.433594 11.714844 29.488281 11.609375 29.640625 11.535156 C 29.800781 11.457031 29.925781 11.535156 29.976562 11.664062 C 30.183594 12.050781 30.34375 12.4375 30.371094 12.851562 C 30.390625 13.164062 30.578125 13.449219 30.914062 13.5 C 30.933594 13.371094 30.785156 13.214844 30.992188 13.113281 C 31.121094 13.085938 31.21875 13.058594 31.300781 13.136719 C 31.480469 13.265625 31.277344 13.421875 31.328125 13.605469 C 31.378906 13.605469 31.480469 13.605469 31.554688 13.605469 C 31.613281 13.449219 31.40625 13.292969 31.554688 13.164062 C 31.664062 13.085938 31.84375 13.085938 31.949219 13.164062 C 32.128906 13.265625 31.949219 13.449219 31.949219 13.605469 C 32.101562 13.628906 32.230469 13.628906 32.15625 13.421875 C 32.128906 13.34375 32.078125 13.214844 32.207031 13.164062 C 32.335938 13.113281 32.4375 13.113281 32.542969 13.164062 C 32.699219 13.242188 32.621094 13.34375 32.59375 13.449219 C 32.59375 13.472656 32.59375 13.527344 32.570312 13.578125 C 32.644531 13.628906 32.722656 13.605469 32.828125 13.605469 C 32.777344 13.449219 32.671875 13.292969 32.878906 13.164062 C 32.980469 13.113281 33.113281 13.085938 33.1875 13.136719 C 33.320312 13.214844 33.214844 13.371094 33.242188 13.5 C 33.679688 13.34375 33.757812 13.007812 33.808594 12.621094 C 33.835938 12.230469 33.914062 11.871094 34.199219 11.558594 C 34.25 11.507812 34.300781 11.457031 34.382812 11.429688 C 34.535156 11.378906 34.636719 11.429688 34.613281 11.609375 C 34.589844 12.023438 34.429688 12.414062 34.328125 12.828125 C 34.300781 12.90625 34.300781 12.984375 34.300781 13.085938 Z M 34.300781 13.085938 "
       id="path22" />
    <path
       style="stroke:none;fill-rule:evenodd;fill:#ffffff;fill-opacity:1"
       d="M 26.589844 15.828125 C 27.03125 16.089844 27.367188 16.449219 27.574219 16.917969 C 27.703125 17.175781 27.882812 17.40625 28.246094 17.40625 C 28.324219 17.40625 28.402344 17.433594 28.378906 17.539062 C 27.988281 17.820312 28.117188 18.234375 28.140625 18.597656 C 28.140625 18.882812 28.269531 19.140625 28.53125 19.324219 C 28.660156 19.167969 28.738281 18.960938 29 19.039062 C 29.304688 19.117188 29.414062 19.296875 29.382812 19.683594 C 29.355469 19.96875 29.175781 20.125 28.890625 20.152344 C 28.117188 20.203125 27.78125 19.996094 27.550781 19.269531 C 27.34375 18.519531 27.183594 17.746094 26.71875 17.070312 C 26.667969 17.019531 26.617188 16.941406 26.5625 16.890625 C 26.433594 16.710938 26.355469 16.683594 26.253906 16.890625 C 26.152344 17.148438 25.582031 17.097656 25.425781 16.863281 C 25.269531 16.605469 25.246094 16.269531 25.402344 16.035156 C 25.550781 15.804688 25.890625 15.699219 26.226562 15.75 C 26.355469 15.777344 26.460938 15.804688 26.589844 15.828125 Z M 26.589844 15.828125 "
       id="path24" />
    <path
       style="stroke:none;fill-rule:evenodd;fill:#ffffff;fill-opacity:1"
       d="M 36.058594 19.011719 C 36.296875 18.546875 36.375 18.105469 36.113281 17.640625 C 36.039062 17.511719 36.039062 17.433594 36.167969 17.40625 C 36.527344 17.304688 36.710938 17.046875 36.867188 16.761719 C 37.015625 16.449219 37.222656 16.191406 37.507812 15.984375 C 37.84375 15.804688 38.179688 15.675781 38.59375 15.804688 C 38.910156 15.882812 39.089844 16.21875 39.039062 16.527344 C 38.960938 16.941406 38.753906 17.070312 38.367188 17.070312 C 38.210938 17.070312 38.105469 16.992188 38.082031 16.863281 C 37.972656 16.683594 37.875 16.710938 37.765625 16.863281 C 37.507812 17.199219 37.300781 17.5625 37.175781 17.953125 C 37.015625 18.441406 36.886719 18.933594 36.730469 19.453125 C 36.503906 20.152344 35.929688 20.253906 35.308594 20.097656 C 35.027344 20.046875 34.949219 19.867188 34.972656 19.53125 C 34.972656 19.246094 35.078125 19.117188 35.339844 19.039062 C 35.570312 18.960938 35.699219 19.140625 35.800781 19.324219 C 35.90625 19.246094 36.039062 19.167969 36.058594 19.011719 Z M 36.058594 19.011719 "
       id="path26" />
    <path
       style="stroke:none;fill-rule:evenodd;fill:#ffffff;fill-opacity:1"
       d="M 25.660156 18.054688 C 25.550781 17.898438 25.453125 17.769531 25.425781 17.613281 C 25.375 17.511719 25.402344 17.433594 25.503906 17.382812 C 25.738281 17.277344 26.046875 17.382812 26.125 17.589844 C 26.203125 17.769531 26.304688 17.898438 26.511719 18.054688 C 26.433594 17.875 26.332031 17.746094 26.28125 17.613281 C 26.253906 17.539062 26.253906 17.460938 26.332031 17.40625 C 26.410156 17.332031 26.488281 17.332031 26.589844 17.382812 C 26.847656 17.511719 27.183594 18.234375 27.105469 18.519531 C 27.082031 18.648438 26.953125 18.675781 26.847656 18.675781 C 26.355469 18.675781 25.839844 18.675781 25.34375 18.675781 C 25.089844 18.675781 24.910156 18.496094 24.78125 18.289062 C 24.703125 18.132812 24.652344 17.953125 24.625 17.769531 C 24.574219 17.640625 24.515625 17.484375 24.722656 17.40625 C 24.910156 17.332031 25.195312 17.40625 25.269531 17.589844 C 25.34375 17.691406 25.375 17.820312 25.453125 17.953125 C 25.503906 18.003906 25.53125 18.054688 25.660156 18.054688 Z M 25.660156 18.054688 "
       id="path28" />
    <path
       style="stroke:none;fill-rule:evenodd;fill:#ffffff;fill-opacity:1"
       d="M 38.703125 18.082031 C 38.882812 17.976562 38.933594 17.847656 38.988281 17.691406 C 39.039062 17.5625 39.089844 17.433594 39.246094 17.40625 C 39.605469 17.304688 39.757812 17.433594 39.710938 17.796875 C 39.660156 17.976562 39.605469 18.183594 39.476562 18.367188 C 39.34375 18.546875 39.167969 18.675781 38.882812 18.675781 C 38.445312 18.675781 38.003906 18.675781 37.558594 18.675781 C 37.253906 18.675781 37.203125 18.597656 37.222656 18.339844 C 37.253906 17.976562 37.429688 17.71875 37.636719 17.460938 C 37.746094 17.355469 37.84375 17.304688 37.972656 17.382812 C 38.105469 17.433594 38.050781 17.539062 38.03125 17.640625 C 38.003906 17.746094 37.953125 17.820312 37.925781 17.925781 C 38.082031 17.820312 38.132812 17.691406 38.210938 17.5625 C 38.289062 17.382812 38.625 17.277344 38.800781 17.382812 C 38.910156 17.40625 38.910156 17.484375 38.910156 17.5625 C 38.882812 17.746094 38.78125 17.898438 38.703125 18.082031 Z M 38.703125 18.082031 "
       id="path30" />
    <path
       style="stroke:none;fill-rule:evenodd;fill:#ffffff;fill-opacity:1"
       d="M 28.476562 17.640625 C 28.84375 17.382812 29.304688 17.304688 29.71875 17.148438 C 30.085938 17.046875 30.449219 16.941406 30.785156 16.8125 C 30.964844 16.734375 31.121094 16.761719 31.300781 16.839844 C 31.507812 16.941406 31.742188 17.046875 32 17.148438 C 31.457031 17.382812 30.933594 17.539062 30.421875 17.71875 C 29.800781 17.898438 29.152344 18.082031 28.53125 18.261719 C 28.347656 18.339844 28.300781 18.289062 28.324219 18.132812 C 28.324219 17.953125 28.378906 17.769531 28.476562 17.640625 Z M 28.476562 17.640625 "
       id="path32" />
    <path
       style="stroke:none;fill-rule:evenodd;fill:#ffffff;fill-opacity:1"
       d="M 39.53125 18.574219 C 39.738281 18.726562 39.890625 18.882812 40.175781 18.78125 C 40.226562 18.753906 40.332031 18.753906 40.332031 18.675781 C 40.332031 18.625 40.253906 18.625 40.203125 18.597656 C 39.839844 18.417969 39.710938 18.160156 39.8125 17.847656 C 39.867188 17.613281 40.019531 17.460938 40.253906 17.40625 C 40.539062 17.355469 40.847656 17.40625 41.03125 17.640625 C 41.496094 18.183594 41.160156 19.0625 40.433594 19.167969 C 40.125 19.21875 39.839844 19.117188 39.605469 18.910156 C 39.53125 18.804688 39.453125 18.726562 39.53125 18.574219 Z M 39.53125 18.574219 "
       id="path34" />
    <path
       style="stroke:none;fill-rule:evenodd;fill:#ffffff;fill-opacity:1"
       d="M 24.800781 18.597656 C 24.675781 18.933594 24.238281 19.246094 23.894531 19.195312 C 23.480469 19.140625 23.09375 18.753906 23.070312 18.367188 C 23.070312 18.132812 23.09375 17.898438 23.222656 17.691406 C 23.429688 17.433594 23.84375 17.304688 24.160156 17.433594 C 24.445312 17.5625 24.574219 17.875 24.496094 18.210938 C 24.445312 18.417969 24.289062 18.519531 24.101562 18.597656 C 24.050781 18.597656 23.972656 18.625 23.972656 18.703125 C 24.003906 18.804688 24.082031 18.804688 24.132812 18.804688 C 24.289062 18.832031 24.445312 18.804688 24.574219 18.703125 C 24.652344 18.648438 24.703125 18.574219 24.800781 18.597656 Z M 24.800781 18.597656 "
       id="path36" />
    <path
       style="stroke:none;fill-rule:evenodd;fill:#ffffff;fill-opacity:1"
       d="M 29.671875 17.019531 C 29.355469 17.097656 29.050781 17.148438 28.738281 17.226562 C 28.476562 17.277344 28.246094 17.277344 28.011719 17.148438 C 27.933594 17.097656 27.882812 17.019531 27.882812 16.941406 C 27.882812 16.863281 27.988281 16.863281 28.0625 16.863281 C 28.402344 16.734375 28.761719 16.632812 29.128906 16.527344 C 29.207031 16.503906 29.304688 16.503906 29.414062 16.449219 C 29.902344 16.164062 30.3125 16.371094 30.757812 16.65625 C 30.390625 16.761719 30.035156 16.890625 29.671875 17.019531 Z M 29.671875 17.019531 "
       id="path38" />
    <path
       style=" stroke:none;fill-rule:evenodd;fill:rgb(4.705811%,0%,0%);fill-opacity:1;"
       d="M 30.707031 8.402344 C 30.835938 8.402344 30.992188 8.429688 31.140625 8.480469 C 31.664062 8.609375 31.84375 9.203125 31.480469 9.644531 C 31.328125 9.824219 31.171875 9.980469 30.992188 10.136719 C 30.628906 10.371094 30.449219 10.34375 30.183594 9.929688 C 29.976562 9.566406 29.976562 9.128906 30.035156 8.714844 C 30.085938 8.480469 30.292969 8.402344 30.707031 8.402344 Z M 30.707031 8.402344 "
       id="path40" />
    <path
       style=" stroke:none;fill-rule:evenodd;fill:rgb(4.705811%,0%,0%);fill-opacity:1;"
       d="M 34.222656 9.257812 C 34.199219 9.410156 34.222656 9.542969 34.175781 9.671875 C 34.09375 10.136719 33.808594 10.316406 33.421875 10.109375 C 33.113281 9.957031 32.878906 9.722656 32.699219 9.410156 C 32.464844 9.050781 32.570312 8.714844 32.929688 8.558594 C 33.1875 8.453125 33.421875 8.402344 33.679688 8.480469 C 34.09375 8.582031 34.277344 8.765625 34.222656 9.257812 Z M 34.222656 9.257812 "
       id="path42" />
    <path
       style=" stroke:none;fill-rule:evenodd;fill:rgb(1.960754%,0%,0%);fill-opacity:1;"
       d="M 32.699219 11.121094 C 32.699219 11.195312 32.644531 11.25 32.644531 11.300781 C 32.59375 11.402344 32.542969 11.507812 32.4375 11.507812 C 32.308594 11.535156 32.285156 11.429688 32.230469 11.351562 C 32.230469 11.351562 32.207031 11.328125 32.207031 11.300781 C 32.027344 11.042969 32.027344 11.042969 31.820312 11.273438 C 31.792969 11.328125 31.742188 11.402344 31.6875 11.378906 C 31.613281 11.351562 31.554688 11.273438 31.585938 11.222656 C 31.6875 10.835938 31.761719 10.421875 31.949219 10.058594 C 31.96875 9.980469 32.050781 9.929688 32.128906 10.007812 C 32.382812 10.34375 32.59375 10.707031 32.699219 11.121094 Z M 32.699219 11.121094 "
       id="path44" />
    <path
       style="fill:none;stroke-width:2.266895;stroke-linecap:butt;stroke-linejoin:miter;stroke:rgb(0%,0%,0%);stroke-opacity:1;stroke-miterlimit:4;"
       d="M 114.5331 38.89525 C 120.201069 38.844469 127.810444 38.89525 132.548725 38.89525 "
       transform="matrix(1,0,0,1,-95.3456,-16.364)"
       id="path46" />
    <path
       style="fill:#000000;fill-opacity:1;fill-rule:nonzero;stroke:none"
       d="M 69.472656,67.960938 V 65.230469 H 65.882812 V 41.835938 l -10.214843,0.453124 v 2.730469 c 3.5,0 3.867187,0 3.867187,2.277344 v 17.933594 h -4.054687 v 2.730469 L 62.664062,67.78125 Z M 66.714844,32.730469 c 0,-2.546875 -1.86973,0.0025 -4.443949,0.0025 -2.484375,0 -4.763083,-2.549397 -4.763083,-0.0025 0,2.460937 2.121094,4.460937 4.605469,4.460937 2.574219,0 4.601563,-2 4.601563,-4.460937 z"
       id="path48"
       inkscape:connector-curvature="0"
       sodipodi:nodetypes="ccccccscccccsssss" />
  </g>
</svg>
