<?xml version="1.0" encoding="UTF-8" standalone="no"?>
<svg
   xmlns:dc="http://purl.org/dc/elements/1.1/"
   xmlns:cc="http://creativecommons.org/ns#"
   xmlns:rdf="http://www.w3.org/1999/02/22-rdf-syntax-ns#"
   xmlns:svg="http://www.w3.org/2000/svg"
   xmlns="http://www.w3.org/2000/svg"
   xmlns:xlink="http://www.w3.org/1999/xlink"
   xmlns:sodipodi="http://sodipodi.sourceforge.net/DTD/sodipodi-0.dtd"
   xmlns:inkscape="http://www.inkscape.org/namespaces/inkscape"
   width="227.719pt"
   height="109.875pt"
   viewBox="0 0 227.719 109.875"
   version="1.2"
   id="svg146"
   sodipodi:docname="piratexseptiembre.svg"
   inkscape:version="0.92.4 (5da689c313, 2019-01-14)">
  <metadata
     id="metadata150">
    <rdf:RDF>
      <cc:Work
         rdf:about="">
        <dc:format>image/svg+xml</dc:format>
        <dc:type
           rdf:resource="http://purl.org/dc/dcmitype/StillImage" />
        <dc:title></dc:title>
      </cc:Work>
    </rdf:RDF>
  </metadata>
  <sodipodi:namedview
     pagecolor="#ffffff"
     bordercolor="#666666"
     borderopacity="1"
     objecttolerance="10"
     gridtolerance="10"
     guidetolerance="10"
     inkscape:pageopacity="0"
     inkscape:pageshadow="2"
     inkscape:window-width="727"
     inkscape:window-height="480"
     id="namedview148"
     showgrid="false"
     inkscape:zoom="1.5051445"
     inkscape:cx="151.81266"
     inkscape:cy="73.25"
     inkscape:window-x="0"
     inkscape:window-y="0"
     inkscape:window-maximized="0"
     inkscape:current-layer="svg146" />
  <defs
     id="defs89">
    <clipPath
       id="clip1">
      <path
         d="M 171 0 L 227.71875 0 L 227.71875 55 L 171 55 Z M 171 0 "
         id="path2" />
    </clipPath>
    <clipPath
       id="clip3">
      <path
         d="M 0.671875 0 L 56.71875 0 L 56.71875 54.367188 L 0.671875 54.367188 Z M 0.671875 0 "
         id="path5" />
    </clipPath>
    <clipPath
       id="clip2">
      <rect
         x="0"
         y="0"
         width="57"
         height="55"
         id="rect8" />
    </clipPath>
    <g
       id="surface50"
       clip-path="url(#clip2)">
      <g
         clip-path="url(#clip3)"
         clip-rule="nonzero"
         id="g13">
        <path
           style=" stroke:none;fill-rule:evenodd;fill:rgb(99.598694%,99.598694%,99.598694%);fill-opacity:1;"
           d="M 2.277344 16.800781 L 0.855469 12.664063 C 15.410156 7.664063 29.964844 2.675781 44.511719 -2.355469 C 45.296875 -2.628906 45.507813 -2.523438 45.773438 -1.738281 C 50.296875 11.523438 54.847656 24.777344 59.429688 38.019531 C 59.703125 38.804688 59.601563 39.015625 58.8125 39.28125 C 44.554688 44.144531 30.308594 49.039063 16.070313 53.964844 C 15.285156 54.238281 15.074219 54.136719 14.804688 53.347656 C 10.707031 41.308594 6.566406 29.289063 2.433594 17.261719 C 2.929688 17.046875 3.152344 17.523438 3.5 17.683594 C 3.671875 17.855469 3.785156 18.066406 3.886719 18.285156 C 4.054688 18.742188 4.386719 19.105469 4.621094 19.523438 C 5.675781 20.980469 6.6875 22.472656 7.785156 23.902344 C 10.273438 27.417969 12.820313 30.894531 15.449219 34.308594 C 18.589844 38.46875 21.832031 42.554688 25.054688 46.652344 C 25.582031 47.320313 26.0625 48.019531 26.5625 48.707031 C 26.875 49.136719 27.210938 49.589844 27.847656 49.171875 C 28.328125 48.855469 28.410156 48.402344 28.273438 47.878906 C 28.027344 46.960938 27.609375 46.152344 26.953125 45.453125 C 23.648438 41.945313 20.882813 38.003906 17.941406 34.203125 C 17.640625 33.816406 17.371094 33.410156 17.417969 32.882813 C 18.683594 30.109375 21.898438 28.167969 24.898438 28.800781 C 27.578125 29.121094 30 30.3125 32.535156 31.109375 C 34.5625 31.746094 36.59375 32.125 38.734375 31.765625 C 40.742188 31.429688 42.210938 30.355469 43.359375 28.746094 C 43.789063 28.148438 43.792969 27.476563 43.707031 26.773438 C 42.9375 20.4375 42.386719 14.082031 41.933594 7.714844 C 41.78125 5.589844 41.765625 3.453125 41.421875 1.027344 C 41.191406 2.183594 40.867188 2.992188 40.457031 3.765625 C 40.191406 4.25 39.953125 4.75 39.722656 5.253906 C 38.011719 8.617188 34.945313 9.902344 31.496094 10.5 C 28.117188 11.082031 24.835938 10.25 21.558594 9.578125 C 21.125 9.488281 20.691406 9.394531 20.25 9.339844 C 18.894531 9.136719 17.539063 8.953125 16.171875 8.855469 C 12.015625 8.5625 9.175781 10.546875 7.167969 13.984375 C 6.765625 14.679688 6.402344 15.402344 6.167969 16.183594 C 6.0625 16.53125 5.925781 16.871094 5.558594 17.039063 C 5.519531 17.039063 5.460938 17.058594 5.445313 17.039063 C 4.472656 15.839844 3.402344 15.925781 2.277344 16.800781 "
           id="path11" />
      </g>
      <path
         style=" stroke:none;fill-rule:evenodd;fill:rgb(13.299561%,6.298828%,6.698608%);fill-opacity:1;"
         d="M 2.277344 16.800781 C 3.621094 15.226563 4.046875 15.25 5.457031 16.976563 C 5.40625 17.078125 5.332031 17.152344 5.222656 17.199219 C 5.058594 17.226563 4.910156 17.179688 4.777344 17.078125 C 3.734375 16.285156 3.675781 16.308594 3.320313 17.636719 C 2.847656 17.929688 2.765625 17.300781 2.433594 17.261719 Z M 2.277344 16.800781 "
         id="path15" />
      <path
         style=" stroke:none;fill-rule:evenodd;fill:rgb(7.099915%,1.998901%,1.599121%);fill-opacity:1;"
         d="M 40.207031 3.808594 C 40.613281 2.652344 41.019531 1.492188 41.5 0.125 C 42.066406 1.640625 41.945313 3.015625 42.03125 4.347656 C 42.519531 11.9375 43.136719 19.519531 44.074219 27.066406 C 44.171875 27.851563 43.976563 28.472656 43.527344 29.089844 C 41.585938 31.765625 38.871094 32.492188 35.75 32.179688 C 34.21875 32.023438 32.746094 31.578125 31.308594 31.042969 C 29.234375 30.269531 27.164063 29.5 24.992188 29.03125 C 24.96875 28.679688 25.074219 28.40625 25.4375 28.28125 C 27.039063 28.363281 28.488281 29.011719 29.972656 29.523438 C 31.273438 29.96875 32.542969 30.5 33.878906 30.832031 C 34.863281 31.074219 35.035156 30.914063 34.71875 29.984375 C 33.769531 27.234375 33.265625 24.363281 32.417969 21.582031 C 32.355469 21.023438 32.25 20.472656 32.039063 19.945313 C 31.476563 17.507813 30.820313 15.085938 30.417969 12.613281 C 30.265625 11.675781 29.84375 11.3125 28.902344 11.292969 C 26.015625 11.242188 23.203125 10.703125 20.449219 9.851563 C 20.335938 9.605469 20.148438 9.375 20.1875 9.074219 C 22.671875 9.332031 25.074219 10.089844 27.570313 10.28125 C 31.085938 10.550781 34.402344 10.050781 37.265625 7.8125 C 38.234375 7.054688 38.878906 5.996094 39.589844 5.011719 C 39.835938 4.734375 40.039063 4.746094 40.195313 5.09375 C 39.402344 7.652344 37.46875 9.109375 35.191406 10.191406 C 34.355469 10.589844 33.457031 10.890625 32.535156 11.03125 C 31.707031 11.15625 31.464844 11.539063 31.667969 12.367188 C 32.496094 15.742188 33.292969 19.121094 34.125 22.492188 C 34.761719 25.078125 35.449219 27.652344 36.21875 30.203125 C 36.445313 30.957031 36.804688 31.277344 37.589844 31.226563 C 39.046875 31.140625 40.371094 30.730469 41.511719 29.800781 C 42.542969 28.957031 42.96875 27.953125 42.871094 26.523438 C 42.386719 19.507813 41.433594 12.527344 41.097656 5.5 C 41.078125 5.09375 41.4375 4.398438 40.589844 4.28125 C 40.292969 4.257813 40.113281 4.144531 40.207031 3.808594 "
         id="path17" />
      <path
         style=" stroke:none;fill-rule:evenodd;fill:rgb(0.799561%,5.899048%,0.799561%);fill-opacity:1;"
         d="M 20.1875 9.074219 C 20.257813 9.238281 20.535156 9.351563 20.320313 9.589844 C 19.691406 10.179688 19.011719 9.730469 18.363281 9.65625 C 17.570313 9.566406 17.390625 9.820313 17.734375 10.523438 C 19.417969 13.972656 20.960938 17.488281 22.511719 20.996094 C 23.375 22.957031 24.199219 24.933594 25.09375 26.882813 C 25.308594 27.347656 25.539063 27.851563 25.285156 28.394531 C 25.273438 28.648438 25.179688 28.859375 24.992188 29.03125 C 21.679688 28.695313 19.324219 30.203125 17.570313 32.878906 C 17.265625 33.636719 16.808594 33.363281 16.34375 33.066406 C 13.027344 28.898438 9.988281 24.527344 6.859375 20.21875 C 6.574219 19.828125 6.335938 19.402344 6.03125 19.023438 C 5.8125 18.753906 5.648438 18.339844 5.207031 18.429688 C 4.765625 18.519531 4.761719 18.949219 4.671875 19.296875 C 4.621094 19.480469 4.550781 19.648438 4.332031 19.6875 C 4.171875 19.207031 3.644531 18.929688 3.617188 18.378906 C 3.964844 17.761719 4.566406 17.457031 5.140625 17.113281 C 5.246094 17.066406 5.351563 17.023438 5.457031 16.976563 C 5.835938 16.101563 6.164063 15.195313 6.609375 14.351563 C 8.597656 10.554688 11.8125 8.058594 16.652344 8.578125 C 17.835938 8.707031 19.039063 8.695313 20.1875 9.074219 "
         id="path19" />
      <path
         style=" stroke:none;fill-rule:evenodd;fill:rgb(7.499695%,1.998901%,1.599121%);fill-opacity:1;"
         d="M 16.578125 32.980469 C 16.9375 33.210938 17.269531 33.1875 17.570313 32.878906 C 17.691406 33.789063 18.414063 34.328125 18.914063 34.984375 C 21.109375 37.863281 23.339844 40.714844 25.59375 43.546875 C 26.191406 44.296875 26.945313 44.917969 27.5625 45.652344 C 28.140625 46.339844 28.5 47.15625 28.621094 48.0625 C 28.160156 48.195313 28.019531 47.757813 27.738281 47.570313 C 24.523438 43.890625 21.628906 39.949219 18.621094 36.101563 C 18.222656 35.589844 17.855469 35.058594 17.425781 34.578125 C 17.238281 34.371094 17.003906 34.117188 16.714844 34.378906 C 16.5 34.574219 16.652344 34.832031 16.765625 35.046875 C 16.894531 35.296875 17.050781 35.535156 17.226563 35.757813 C 20.566406 39.960938 23.800781 44.25 27.1875 48.417969 C 27.394531 48.671875 27.628906 48.890625 27.910156 49.058594 C 28.019531 49.117188 28.109375 49.195313 28.183594 49.292969 C 27.574219 50.105469 26.890625 49.726563 26.507813 49.1875 C 22.980469 44.261719 19.015625 39.667969 15.425781 34.789063 C 15.355469 34.691406 15.320313 34.574219 15.265625 34.464844 C 14.996094 34.15625 15.261719 33.910156 15.359375 33.640625 C 15.667969 33.246094 16.015625 32.910156 16.578125 32.980469 "
         id="path21" />
      <path
         style=" stroke:none;fill-rule:evenodd;fill:rgb(3.898621%,8.999634%,3.898621%);fill-opacity:1;"
         d="M 15.554688 33.792969 C 15.457031 34.015625 15.363281 34.242188 15.265625 34.464844 C 12.535156 31.109375 10 27.613281 7.5625 24.039063 C 7.367188 23.820313 7.242188 23.605469 7.578125 23.398438 C 8.488281 23.734375 8.828125 24.621094 9.351563 25.308594 C 11.140625 27.652344 12.914063 30.003906 14.710938 32.339844 C 15.058594 32.789063 15.371094 33.25 15.554688 33.792969 "
         id="path23" />
      <path
         style=" stroke:none;fill-rule:evenodd;fill:rgb(86.698914%,54.098511%,47.099304%);fill-opacity:1;"
         d="M 5.140625 17.113281 C 4.839844 17.785156 4.21875 18.070313 3.617188 18.378906 C 3.519531 18.132813 3.417969 17.886719 3.320313 17.636719 C 2.664063 16.878906 3.328125 16.511719 3.808594 16.160156 C 4.402344 15.734375 4.472656 16.457031 4.761719 16.683594 C 4.910156 16.800781 5.015625 16.96875 5.140625 17.113281 "
         id="path25" />
      <path
         style=" stroke:none;fill-rule:evenodd;fill:rgb(7.499695%,13.699341%,7.499695%);fill-opacity:1;"
         d="M 7.589844 23.464844 C 7.578125 23.65625 7.570313 23.847656 7.5625 24.039063 C 6.488281 22.585938 5.410156 21.136719 4.332031 19.6875 C 4.378906 19.570313 4.425781 19.453125 4.46875 19.339844 C 4.589844 19.308594 4.738281 19.265625 4.816406 19.351563 C 5.960938 20.574219 7.128906 21.78125 7.589844 23.464844 "
         id="path27" />
      <path
         style=" stroke:none;fill-rule:evenodd;fill:rgb(16.099548%,5.499268%,4.699707%);fill-opacity:1;"
         d="M 40.121094 5.070313 C 39.941406 5.050781 39.765625 5.03125 39.589844 5.011719 C 39.796875 4.609375 40.003906 4.210938 40.207031 3.808594 C 40.296875 4.003906 40.417969 4.15625 40.65625 4.167969 C 40.757813 4.632813 40.683594 4.996094 40.121094 5.070313 "
         id="path29" />
      <path
         style=" stroke:none;fill-rule:evenodd;fill:rgb(32.499695%,21.199036%,19.999695%);fill-opacity:1;"
         d="M 28.183594 49.292969 C 28.054688 49.3125 27.929688 49.332031 27.804688 49.351563 C 27.820313 48.734375 27.8125 48.109375 28.007813 47.511719 C 28.210938 47.695313 28.417969 47.878906 28.621094 48.0625 C 28.691406 48.546875 28.671875 49.003906 28.183594 49.292969 "
         id="path31" />
      <path
         style=" stroke:none;fill-rule:evenodd;fill:rgb(99.198914%,23.498535%,18.798828%);fill-opacity:1;"
         d="M 40.121094 5.070313 C 40.507813 4.890625 40.574219 4.523438 40.65625 4.167969 C 40.824219 3.898438 40.992188 3.628906 41.257813 3.207031 C 41.515625 6.640625 41.738281 9.914063 42.023438 13.179688 C 42.3125 16.519531 42.644531 19.859375 43.007813 23.191406 C 43.160156 24.574219 43.199219 25.96875 43.285156 27.347656 C 43.398438 29.25 41.828125 30.136719 40.375 30.945313 C 40.027344 31.136719 39.617188 31.230469 39.226563 31.332031 C 36.652344 31.992188 36.339844 31.828125 35.613281 29.347656 C 33.914063 23.566406 32.660156 17.667969 31.15625 11.835938 C 30.941406 10.996094 31.363281 10.882813 32.003906 10.78125 C 35.640625 10.210938 38.429688 8.414063 40.121094 5.070313 "
         id="path33" />
      <path
         style=" stroke:none;fill-rule:evenodd;fill:rgb(99.598694%,99.598694%,99.198914%);fill-opacity:1;"
         d="M 25.285156 28.394531 C 23.226563 23.351563 20.980469 18.394531 18.726563 13.441406 C 18.109375 12.089844 17.457031 10.753906 16.777344 9.324219 C 18.019531 9.070313 19.152344 9.621094 20.320313 9.589844 C 23.414063 10.320313 26.507813 11.070313 29.71875 10.984375 C 30.390625 10.964844 30.507813 11.273438 30.617188 11.808594 C 31.164063 14.492188 31.742188 17.171875 32.308594 19.855469 C 32.246094 20.453125 31.722656 20.847656 31.660156 21.484375 C 31.617188 21.980469 31.1875 22.0625 30.789063 21.679688 C 30.652344 21.425781 30.648438 21.136719 30.578125 20.863281 C 30.554688 19.867188 30.128906 19.066406 29.394531 18.414063 C 29.0625 18.046875 28.691406 17.726563 28.285156 17.445313 C 27.429688 16.855469 26.585938 16.246094 25.464844 16.355469 C 25.300781 16.390625 25.140625 16.417969 24.972656 16.4375 C 24.699219 16.464844 24.421875 16.476563 24.144531 16.5 C 23.226563 16.472656 22.964844 16.960938 23.292969 17.730469 C 23.515625 18.261719 23.609375 18.605469 22.964844 18.886719 C 22.464844 19.105469 22.578125 19.777344 22.820313 19.882813 C 23.59375 20.222656 23.898438 21.117188 24.722656 21.335938 C 25.257813 21.496094 25.414063 22.128906 25.941406 22.296875 C 26.421875 22.511719 26.875 22.78125 27.375 22.945313 C 27.816406 23.226563 28.261719 23.472656 28.816406 23.308594 C 29.089844 23.265625 29.355469 23.261719 29.609375 23.398438 C 30.261719 23.785156 30.789063 23.230469 31.378906 23.152344 C 32.132813 22.863281 31.769531 21.679688 32.679688 21.515625 C 33.582031 24.773438 34.480469 28.035156 35.433594 31.480469 C 31.816406 30.878906 28.703125 29.109375 25.285156 28.394531 "
         id="path35" />
      <path
         style=" stroke:none;fill-rule:evenodd;fill:rgb(95.698547%,95.298767%,87.5%);fill-opacity:1;"
         d="M 32.679688 21.515625 C 32.042969 22.007813 32.425781 23.109375 31.535156 23.453125 C 30.980469 22.816406 30.480469 23.617188 29.945313 23.511719 C 29.066406 22.523438 30.011719 22.125 30.5625 21.597656 C 30.675781 21.554688 30.789063 21.558594 30.898438 21.609375 C 31.125 21.765625 31.515625 21.730469 31.449219 21.515625 C 31.175781 20.625 31.839844 20.304688 32.308594 19.855469 C 32.53125 20.386719 32.703125 20.929688 32.679688 21.515625 "
         id="path37" />
      <path
         style=" stroke:none;fill-rule:evenodd;fill:rgb(22.698975%,54.499817%,22.698975%);fill-opacity:1;"
         d="M 24.019531 27.070313 C 24.605469 28.015625 24.550781 28.429688 23.25 28.417969 C 20.757813 28.402344 19.03125 29.847656 17.710938 31.816406 C 17.285156 32.445313 17.125 32.582031 16.585938 31.851563 C 13.214844 27.265625 9.78125 22.726563 6.355469 18.179688 C 6.007813 17.71875 5.9375 17.332031 6.160156 16.761719 C 7.199219 14.105469 8.632813 11.796875 11.191406 10.308594 C 12.613281 9.476563 14.160156 9.324219 15.730469 9.1875 C 16.214844 9.144531 16.417969 9.421875 16.601563 9.84375 C 18.757813 14.894531 20.9375 19.9375 23.109375 24.980469 C 23.410156 25.6875 23.902344 26.304688 24.019531 27.070313 "
         id="path39" />
      <path
         style=" stroke:none;fill-rule:evenodd;fill:rgb(24.299622%,53.29895%,23.899841%);fill-opacity:1;"
         d="M 7.589844 23.464844 C 6.558594 22.082031 5.683594 20.582031 4.46875 19.339844 C 4.070313 18.589844 4.550781 18.199219 5.113281 17.910156 C 5.75 17.585938 5.835938 18.25 6.058594 18.558594 C 9.574219 23.359375 13.074219 28.171875 16.578125 32.980469 C 16.238281 33.25 15.898438 33.523438 15.554688 33.792969 C 13.535156 31.644531 11.957031 29.152344 10.136719 26.84375 C 9.261719 25.738281 8.4375 24.59375 7.589844 23.464844 "
         id="path41" />
      <path
         style=" stroke:none;fill-rule:evenodd;fill:rgb(90.59906%,54.499817%,45.498657%);fill-opacity:1;"
         d="M 28.007813 47.511719 C 28.3125 48.164063 28.34375 48.792969 27.804688 49.351563 C 27.148438 49.175781 26.929688 48.550781 26.570313 48.09375 C 23.195313 43.824219 19.84375 39.535156 16.492188 35.246094 C 16.242188 34.925781 15.753906 34.621094 16.222656 34.121094 C 16.753906 33.558594 17.125 33.613281 17.636719 34.277344 C 20.601563 38.152344 23.628906 41.980469 26.636719 45.824219 C 27.082031 46.394531 27.550781 46.949219 28.007813 47.511719 "
         id="path43" />
      <path
         style=" stroke:none;fill-rule:evenodd;fill:rgb(92.89856%,92.199707%,84.298706%);fill-opacity:1;"
         d="M 24.628906 21.484375 C 24.097656 21.953125 23.988281 21.261719 23.851563 21.105469 C 23.285156 20.453125 22.113281 20.265625 22.273438 19.015625 C 22.328125 18.597656 22.238281 18.433594 22.761719 18.570313 C 23.304688 18.714844 23.507813 18.308594 23.109375 17.996094 C 22.304688 17.367188 23.011719 16.808594 23.140625 16.300781 C 23.289063 15.710938 23.832031 16.453125 24.179688 16.222656 C 24.480469 16.601563 24.480469 17.09375 24.3125 17.449219 C 23.902344 18.320313 24.335938 18.996094 24.667969 19.714844 C 24.730469 19.796875 24.78125 19.890625 24.8125 19.988281 C 24.734375 20.257813 24.957031 20.410156 25.0625 20.609375 C 25.210938 21.046875 25.390625 21.5 24.628906 21.484375 "
         id="path45" />
      <path
         style=" stroke:none;fill-rule:evenodd;fill:rgb(52.49939%,33.699036%,27.49939%);fill-opacity:1;"
         d="M 29.515625 18.167969 C 30.433594 18.824219 30.824219 19.75 30.878906 20.84375 C 30.5625 21.277344 30.226563 21.015625 29.96875 20.8125 C 29.351563 20.328125 28.671875 19.917969 28.175781 19.292969 C 28.0625 18.707031 28.53125 18.695313 28.886719 18.578125 C 29.125 18.492188 29.277344 18.261719 29.515625 18.167969 "
         id="path47" />
      <path
         style=" stroke:none;fill-rule:evenodd;fill:rgb(74.499512%,70.999146%,60.398865%);fill-opacity:1;"
         d="M 24.664063 19.984375 C 24.203125 19.894531 24.09375 19.609375 23.96875 19.160156 C 23.6875 18.128906 24.128906 17.199219 24.179688 16.222656 C 24.433594 16.226563 24.6875 16.230469 24.945313 16.234375 C 25.398438 16.859375 25.378906 17.539063 25.179688 18.238281 C 25.015625 18.59375 25.039063 18.960938 25.117188 19.332031 C 25.097656 19.640625 24.949219 19.859375 24.664063 19.984375 "
         id="path49" />
      <path
         style=" stroke:none;fill-rule:evenodd;fill:rgb(68.598938%,75.299072%,70.599365%);fill-opacity:1;"
         d="M 30.648438 21.679688 C 30.414063 22.269531 29.335938 22.550781 29.988281 23.472656 C 29.921875 23.609375 29.816406 23.65625 29.671875 23.617188 C 29.375 23.40625 29.054688 23.566406 28.746094 23.550781 C 28.226563 23.136719 28.515625 22.527344 28.378906 22.019531 C 28.53125 21.707031 28.867188 21.574219 29.074219 21.316406 C 29.4375 21.050781 29.835938 21.054688 30.25 21.160156 C 30.476563 21.257813 30.671875 21.386719 30.648438 21.679688 "
         id="path51" />
      <path
         style=" stroke:none;fill-rule:evenodd;fill:rgb(74.099731%,64.698792%,51.799011%);fill-opacity:1;"
         d="M 28.496094 21.976563 C 29.125 22.414063 28.507813 23.050781 28.746094 23.554688 C 28.085938 23.972656 27.691406 23.542969 27.304688 23.09375 C 27.15625 23.019531 27.058594 22.882813 26.945313 22.769531 C 26.726563 22.46875 26.320313 22.289063 26.335938 21.839844 C 26.480469 21.578125 26.710938 21.421875 26.980469 21.3125 C 27.605469 21.257813 27.984375 21.761719 28.496094 21.976563 "
         id="path53" />
      <path
         style=" stroke:none;fill-rule:evenodd;fill:rgb(64.299011%,37.599182%,26.298523%);fill-opacity:1;"
         d="M 25.421875 16.101563 C 26.652344 15.917969 27.59375 16.476563 28.445313 17.273438 C 28.308594 17.539063 28.078125 17.472656 27.859375 17.441406 C 27.824219 17.4375 27.757813 17.414063 27.75 17.425781 C 27.097656 18.546875 26.496094 18.097656 25.898438 17.371094 C 25.511719 17.035156 25.316406 16.621094 25.421875 16.101563 "
         id="path55" />
      <path
         style=" stroke:none;fill-rule:evenodd;fill:rgb(76.098633%,48.599243%,32.899475%);fill-opacity:1;"
         d="M 25.421875 16.101563 C 25.773438 16.355469 25.558594 16.945313 26.027344 17.128906 C 26.222656 17.421875 26.25 17.785156 26.4375 18.085938 C 26.84375 18.742188 26.578125 19.011719 25.871094 18.992188 C 25.421875 18.921875 25.191406 18.566406 24.90625 18.273438 C 25.269531 17.597656 24.75 16.910156 24.945313 16.234375 C 25.105469 16.1875 25.261719 16.144531 25.421875 16.101563 "
         id="path57" />
      <path
         style=" stroke:none;fill-rule:evenodd;fill:rgb(85.899353%,90.59906%,82.398987%);fill-opacity:1;"
         d="M 26.402344 21.917969 C 26.609375 22.203125 27.058594 22.238281 27.152344 22.644531 C 26.691406 23.089844 26.300781 22.15625 25.84375 22.582031 C 25.128906 22.558594 25.125 21.75 24.628906 21.484375 C 25.246094 21.355469 24.726563 20.820313 24.957031 20.554688 C 25.140625 20.492188 25.277344 20.574219 25.40625 20.695313 C 25.65625 21.167969 26.390625 21.246094 26.402344 21.917969 "
         id="path59" />
      <path
         style=" stroke:none;fill-rule:evenodd;fill:rgb(92.498779%,80.799866%,77.999878%);fill-opacity:1;"
         d="M 30.648438 21.679688 C 30.527344 21.554688 30.40625 21.425781 30.285156 21.300781 C 29.332031 20.855469 28.203125 20.613281 27.976563 19.320313 C 28.039063 19.199219 28.136719 19.167969 28.261719 19.21875 C 29.242188 19.585938 29.765625 20.683594 30.878906 20.84375 C 31.070313 21.09375 30.949219 21.351563 30.898438 21.609375 C 30.816406 21.632813 30.730469 21.65625 30.648438 21.679688 "
         id="path61" />
      <path
         style=" stroke:none;fill-rule:evenodd;fill:rgb(41.19873%,19.599915%,10.998535%);fill-opacity:1;"
         d="M 27.867188 17.25 C 28.058594 17.257813 28.253906 17.265625 28.445313 17.273438 C 28.871094 17.488281 29.246094 17.765625 29.515625 18.167969 C 29.476563 18.441406 29.410156 18.699219 29.171875 18.871094 C 28.746094 18.464844 28.046875 18.933594 27.660156 18.394531 C 27.628906 17.996094 27.648438 17.605469 27.867188 17.25 "
         id="path63" />
      <path
         style=" stroke:none;fill-rule:evenodd;fill:rgb(61.199951%,61.199951%,47.499084%);fill-opacity:1;"
         d="M 29.671875 23.617188 C 29.777344 23.570313 29.882813 23.519531 29.988281 23.472656 C 30.503906 23.527344 30.996094 21.730469 31.535156 23.453125 C 31.046875 23.640625 30.476563 23.515625 30.027344 23.90625 C 29.847656 24.0625 29.695313 23.835938 29.671875 23.617188 "
         id="path65" />
      <path
         style=" stroke:none;fill-rule:evenodd;fill:rgb(58.399963%,62.399292%,47.499084%);fill-opacity:1;"
         d="M 25.84375 22.582031 C 26.316406 21.859375 26.710938 22.714844 27.152344 22.644531 C 27.203125 22.792969 27.253906 22.941406 27.304688 23.09375 C 26.726563 23.1875 26.34375 22.714844 25.84375 22.582031 "
         id="path67" />
      <path
         style=" stroke:none;fill-rule:evenodd;fill:rgb(83.898926%,82.699585%,78.399658%);fill-opacity:1;"
         d="M 24.664063 19.984375 C 24.761719 19.746094 24.863281 19.511719 24.960938 19.277344 C 25.582031 18.847656 25.933594 19.390625 26.363281 19.65625 C 26.769531 20.011719 27.613281 19.886719 27.566406 20.742188 C 26.996094 21.253906 26.445313 20.8125 25.886719 20.710938 C 25.488281 20.496094 25.035156 20.375 24.703125 20.039063 Z M 24.664063 19.984375 "
         id="path69" />
      <path
         style=" stroke:none;fill-rule:evenodd;fill:rgb(28.999329%,41.598511%,39.99939%);fill-opacity:1;"
         d="M 24.703125 20.039063 C 25.15625 20.09375 25.578125 20.214844 25.90625 20.558594 C 26.011719 20.632813 26.03125 20.722656 25.957031 20.832031 C 25.660156 21.054688 25.429688 20.941406 25.230469 20.683594 C 25.140625 20.640625 25.046875 20.597656 24.957031 20.554688 C 24.894531 20.371094 24.492188 20.355469 24.703125 20.039063 "
         id="path71" />
      <path
         style=" stroke:none;fill-rule:evenodd;fill:rgb(59.999084%,36.099243%,25.898743%);fill-opacity:1;"
         d="M 27.722656 18.34375 C 28.148438 18.671875 28.894531 18.136719 29.171875 18.871094 C 28.894531 19.050781 28.390625 18.648438 28.261719 19.21875 C 28.183594 19.214844 28.109375 19.226563 28.035156 19.253906 C 27.578125 19.6875 27.105469 20.011719 26.507813 19.480469 C 26.695313 18.867188 27.167969 18.558594 27.722656 18.34375 "
         id="path73" />
      <path
         style=" stroke:none;fill-rule:evenodd;fill:rgb(87.5%,67.799377%,46.299744%);fill-opacity:1;"
         d="M 26.269531 19.910156 C 25.804688 19.761719 25.546875 19.175781 24.960938 19.277344 C 24.484375 18.96875 24.707031 18.621094 24.90625 18.273438 C 25.40625 18.0625 25.464844 18.742188 25.859375 18.738281 C 26.066406 18.988281 26.367188 19.171875 26.453125 19.511719 C 26.511719 19.699219 26.449219 19.832031 26.269531 19.910156 "
         id="path75" />
      <path
         style=" stroke:none;fill-rule:evenodd;fill:rgb(43.899536%,30.999756%,25.898743%);fill-opacity:1;"
         d="M 26.269531 19.910156 C 26.328125 19.792969 26.382813 19.671875 26.4375 19.554688 L 26.542969 19.507813 C 27.097656 19.765625 27.515625 19.214844 28.035156 19.253906 C 28.457031 20.296875 29.632813 20.511719 30.285156 21.300781 C 29.910156 21.472656 29.441406 21.171875 29.105469 21.539063 C 28.488281 21.421875 27.75 21.539063 27.484375 20.71875 C 27.429688 19.925781 26.574219 20.335938 26.269531 19.910156 "
         id="path77" />
      <path
         style=" stroke:none;fill-rule:evenodd;fill:rgb(35.699463%,47.499084%,43.499756%);fill-opacity:1;"
         d="M 27.484375 20.71875 C 27.820313 21.394531 28.800781 20.796875 29.105469 21.539063 C 29.28125 22.214844 28.707031 21.84375 28.492188 21.976563 C 27.714844 22.550781 27.582031 21.386719 27.003906 21.417969 C 26.523438 21.429688 26.117188 21.316406 25.984375 20.773438 C 25.953125 20.703125 25.929688 20.632813 25.90625 20.558594 C 26.457031 20.371094 26.929688 20.957031 27.484375 20.71875 "
         id="path79" />
      <path
         style=" stroke:none;fill-rule:evenodd;fill:rgb(67.098999%,79.998779%,78.399658%);fill-opacity:1;"
         d="M 25.984375 20.773438 C 26.324219 20.988281 26.664063 21.203125 27.003906 21.417969 C 26.933594 21.738281 26.605469 21.753906 26.402344 21.917969 C 26.089844 21.433594 25.238281 21.460938 25.230469 20.683594 C 25.484375 20.710938 25.734375 20.742188 25.984375 20.773438 "
         id="path81" />
      <path
         style=" stroke:none;fill-rule:evenodd;fill:rgb(41.598511%,15.299988%,5.499268%);fill-opacity:1;"
         d="M 26.542969 19.507813 C 26.542969 19.507813 26.4375 19.554688 26.4375 19.554688 C 26.148438 19.351563 25.886719 19.128906 25.859375 18.738281 C 26.109375 18.722656 26.691406 18.988281 26.304688 18.367188 C 26.046875 17.953125 26.015625 17.566406 26.027344 17.128906 C 26.132813 17.179688 26.230469 17.242188 26.339844 17.28125 C 26.679688 17.402344 26.566406 18.121094 27.015625 17.941406 C 27.5625 17.726563 26.871094 17.265625 27.101563 16.894531 C 27.429688 16.789063 27.632813 17.050781 27.867188 17.25 C 28.03125 17.640625 28.082031 18.019531 27.722656 18.34375 C 27.554688 18.957031 26.875 19.054688 26.542969 19.507813 "
         id="path83" />
    </g>
    <clipPath
       id="clip4">
      <path
         d="M 185 39 L 227.71875 39 L 227.71875 86 L 185 86 Z M 185 39 "
         id="path86" />
    </clipPath>
  </defs>
  <g
     id="surface46">
    <g
       clip-path="url(#clip1)"
       clip-rule="nonzero"
       id="g93">
      <use
         xlink:href="#surface50"
         transform="matrix(1,0,0,1,171,0)"
         id="use91" />
    </g>
    <path
       style=" stroke:none;fill-rule:nonzero;fill:rgb(0%,0%,0%);fill-opacity:1;"
       d="M 28.890625 63.800781 C 29.195313 63.800781 30.546875 63.800781 30.644531 63.90625 L 32.925781 63.90625 C 46.382813 63.90625 51.144531 57.695313 51.144531 51.378906 C 51.144531 41.960938 42.652344 38.957031 34.167969 38.957031 L 14.914063 38.957031 C 13.671875 38.957031 12.636719 38.957031 12.636719 40.097656 C 12.636719 41.234375 13.878906 41.234375 14.394531 41.234375 C 17.917969 41.234375 18.125 41.753906 18.125 45.066406 L 18.125 78.085938 C 18.125 81.398438 17.917969 81.917969 14.5 81.917969 C 13.878906 81.917969 12.636719 81.917969 12.636719 83.054688 C 12.636719 84.195313 13.671875 84.195313 14.914063 84.195313 L 32.613281 84.195313 C 33.753906 84.195313 34.789063 84.195313 34.789063 83.054688 C 34.789063 81.917969 33.648438 81.917969 32.925781 81.917969 C 29.195313 81.917969 28.890625 81.398438 28.890625 78.085938 Z M 39.757813 60.902344 C 41.933594 58.109375 42.140625 53.96875 42.140625 51.277344 C 42.140625 47.757813 41.824219 44.339844 40.066406 41.855469 C 43.6875 42.683594 48.863281 44.652344 48.863281 51.378906 C 48.863281 56.039063 45.863281 59.351563 39.757813 60.902344 Z M 28.890625 44.859375 C 28.890625 43.511719 28.890625 41.234375 32.820313 41.234375 C 37.585938 41.234375 39.757813 43.097656 39.757813 51.277344 C 39.757813 60.800781 36.34375 61.523438 32.199219 61.523438 L 28.890625 61.523438 Z M 19.882813 81.917969 C 20.398438 80.675781 20.398438 79.121094 20.398438 78.292969 L 20.398438 44.859375 C 20.398438 44.03125 20.398438 42.476563 19.882813 41.234375 L 27.4375 41.234375 C 26.609375 42.375 26.609375 43.617188 26.609375 44.652344 L 26.609375 78.292969 C 26.609375 78.914063 26.609375 80.675781 27.128906 81.917969 Z M 19.882813 81.917969 "
       id="path95" />
    <path
       style=" stroke:none;fill-rule:nonzero;fill:rgb(0%,0%,0%);fill-opacity:1;"
       d="M 98.8125 53.375 C 98.1875 53.167969 97.359375 53.0625 96.433594 53.0625 C 94.566406 53.0625 93.324219 53.789063 90.734375 56.476563 L 87.839844 59.6875 L 87.839844 53.375 L 87.21875 53.0625 L 82.5625 54.511719 C 80.488281 55.132813 79.25 55.339844 75.105469 55.855469 L 75.105469 58.238281 L 78.105469 58.445313 C 79.664063 58.546875 79.765625 59.167969 79.765625 63 L 79.765625 77.492188 C 79.765625 81.113281 79.457031 81.632813 77.386719 81.734375 L 75.105469 81.839844 L 75.105469 84.324219 C 78.007813 84.21875 80.800781 84.117188 83.597656 84.117188 C 86.90625 84.117188 90.320313 84.21875 93.636719 84.324219 L 93.636719 81.839844 L 91.050781 81.734375 C 88.148438 81.632813 87.839844 81.21875 87.839844 77.492188 L 87.839844 64.449219 C 87.839844 62.378906 90.527344 60.203125 93.121094 60.203125 C 94.773438 60.203125 96.019531 61.03125 96.945313 62.585938 L 98.503906 61.964844 Z M 98.8125 53.375 "
       id="path97" />
    <path
       style=" stroke:none;fill-rule:nonzero;fill:rgb(0%,0%,0%);fill-opacity:1;"
       d="M 130.386719 84.324219 L 130.386719 81.839844 L 128.417969 81.632813 C 126.863281 81.527344 126.554688 80.699219 126.554688 77.59375 L 126.554688 62.273438 C 126.554688 56.476563 122.621094 53.0625 115.996094 53.0625 C 113.097656 53.0625 110.609375 53.789063 108.023438 55.234375 L 104.605469 57.410156 L 104.605469 61.964844 L 106.574219 62.378906 L 108.023438 59.066406 C 108.230469 58.652344 109.988281 58.132813 111.851563 58.132813 C 116.199219 58.132813 118.378906 60.515625 118.585938 66 L 112.789063 67.140625 C 104.398438 68.898438 101.503906 71.488281 101.503906 77.078125 C 101.503906 82.355469 104.191406 85.253906 109.164063 85.253906 C 110.71875 85.253906 111.753906 84.945313 112.375 84.425781 L 118.585938 79.664063 L 118.269531 83.804688 L 118.585938 84.324219 C 120.550781 84.21875 122.621094 84.117188 124.589844 84.117188 C 126.449219 84.117188 128.417969 84.21875 130.386719 84.324219 Z M 118.585938 76.558594 C 117.234375 78.214844 114.855469 79.457031 112.890625 79.457031 C 110.71875 79.457031 109.476563 77.90625 109.476563 75.316406 C 109.476563 72.109375 110.925781 70.761719 115.582031 69.519531 L 118.585938 68.691406 Z M 118.585938 76.558594 "
       id="path99" />
    <path
       style=" stroke:none;fill-rule:nonzero;fill:rgb(0%,0%,0%);fill-opacity:1;"
       d="M 163.792969 39.113281 L 149.507813 39.21875 L 139.054688 39.21875 L 125.597656 39.113281 C 126.011719 42.839844 126.113281 45.429688 126.113281 49.671875 L 128.183594 49.671875 L 128.394531 44.496094 C 128.496094 42.945313 129.222656 42.324219 131.085938 42.324219 L 141.332031 42.324219 C 141.539063 44.496094 141.539063 46.050781 141.539063 48.949219 L 141.539063 76.792969 C 141.539063 82.074219 141.226563 82.589844 138.226563 82.796875 L 135.019531 83.003906 L 135.019531 84.96875 C 138.226563 84.867188 141.433594 84.761719 144.644531 84.761719 C 147.851563 84.761719 151.164063 84.867188 154.375 84.96875 L 154.375 83.003906 L 151.164063 82.796875 C 148.164063 82.589844 147.851563 82.074219 147.851563 76.792969 L 147.851563 48.949219 C 147.851563 45.945313 147.851563 44.496094 148.058594 42.324219 L 158.308594 42.324219 C 160.171875 42.324219 160.894531 42.945313 161 44.496094 L 161.207031 49.671875 L 163.273438 49.671875 C 163.273438 45.429688 163.378906 42.839844 163.792969 39.113281 Z M 163.792969 39.113281 "
       id="path101" />
    <g
       clip-path="url(#clip4)"
       clip-rule="nonzero"
       id="g105">
      <path
         style=" stroke:none;fill-rule:nonzero;fill:rgb(0%,0%,0%);fill-opacity:1;"
         d="M 227.042969 85.589844 L 227.042969 83.625 L 225.070313 83.417969 C 223.832031 83.3125 222.898438 82.175781 220.726563 78.761719 L 209.132813 60.335938 L 219.273438 46.566406 C 221.96875 42.945313 222.796875 42.117188 223.832031 42.011719 L 226.519531 41.910156 L 226.519531 39.839844 L 219.796875 39.839844 L 207.582031 57.746094 L 199.191406 43.460938 C 197.644531 40.976563 196.605469 39.839844 195.363281 39.113281 L 186.050781 40.976563 L 186.257813 42.632813 L 189.152344 42.839844 C 190.8125 42.945313 193.089844 45.117188 195.261719 48.84375 L 203.75 62.820313 L 190.8125 80.210938 C 189.152344 82.484375 188.429688 83.210938 186.976563 83.417969 L 185.222656 83.625 L 185.222656 85.589844 C 186.355469 85.488281 187.5 85.382813 188.636719 85.382813 C 189.773438 85.382813 190.914063 85.488281 192.054688 85.589844 L 205.402344 65.40625 L 217.519531 85.589844 C 219.175781 85.488281 220.726563 85.382813 222.382813 85.382813 C 223.933594 85.382813 225.484375 85.488281 227.042969 85.589844 Z M 227.042969 85.589844 "
         id="path103" />
    </g>
    <path
       style=" stroke:none;fill-rule:nonzero;fill:rgb(0%,0%,0%);fill-opacity:1;"
       d="M 152.976563 94.597656 L 155.253906 94.597656 L 155.667969 96.875 C 155.976563 99.667969 156.90625 101.738281 157.84375 102.050781 C 159.183594 102.566406 164.054688 102.878906 169.949219 102.878906 C 173.371094 102.878906 174.609375 102.773438 176.476563 102.359375 L 176.476563 83.832031 L 165.917969 83.625 C 163.019531 83.625 161.773438 83.933594 161.257813 86.109375 C 161.050781 87.558594 160.945313 90.042969 160.945313 90.042969 L 158.976563 90.042969 C 159.085938 87.558594 159.183594 85.074219 159.183594 82.691406 C 159.183594 80.105469 159.085938 77.621094 158.976563 75.035156 L 160.945313 75.035156 C 160.945313 75.035156 160.945313 77.207031 161.257813 78.449219 C 161.878906 80.726563 163.121094 80.933594 165.917969 80.933594 C 169.226563 80.933594 173.574219 80.933594 176.476563 80.726563 L 176.476563 63.027344 C 174.402344 62.613281 173.371094 62.507813 168.8125 62.507813 C 164.980469 62.507813 161.257813 62.820313 159.183594 63.441406 C 157.636719 63.957031 157.429688 64.164063 157.429688 65.71875 L 157.429688 69.960938 L 155.046875 69.960938 C 155.046875 66.027344 154.734375 62.820313 154.011719 59.921875 L 162.1875 59.816406 C 167.363281 59.921875 172.433594 59.921875 177.511719 59.921875 C 181.441406 59.921875 185.378906 59.921875 189.3125 59.816406 L 189.3125 61.785156 L 186.101563 61.992188 C 183.101563 62.09375 182.789063 62.714844 182.789063 67.890625 L 182.789063 97.496094 C 182.789063 102.773438 182.996094 103.1875 186.101563 103.5 L 188.480469 103.707031 L 188.480469 105.671875 C 185.792969 105.570313 183.101563 105.464844 180.40625 105.464844 C 175.335938 105.464844 170.15625 105.570313 165.089844 105.671875 L 154.011719 105.464844 C 154.011719 101.636719 153.597656 98.117188 152.976563 94.597656 Z M 152.976563 94.597656 "
       id="path107" />
    <path
       style=" stroke:none;fill-rule:evenodd;fill:rgb(0%,0%,0%);fill-opacity:1;"
       d="M 51.144531 37.640625 C 50.34375 38.078125 49.644531 38.570313 49.019531 39.113281 C 48.449219 39.425781 48.0625 39.839844 47.648438 40.253906 C 47.265625 40.613281 46.875 40.71875 46.253906 40.5625 C 43.539063 39.890625 40.6875 39.554688 37.84375 39.269531 C 33.339844 38.777344 28.78125 38.542969 24.207031 38.675781 C 20.191406 38.777344 16.230469 39.089844 12.324219 39.863281 C 12.042969 39.917969 11.757813 40.019531 11.472656 39.761719 C 8.648438 37.121094 5.3125 34.816406 2.46875 32.179688 C 1.71875 31.480469 1.066406 30.730469 0.445313 29.925781 C 0.21875 29.640625 0.109375 29.359375 0.347656 29.074219 C 0.574219 28.761719 1.019531 28.761719 1.433594 28.789063 C 2.726563 28.8125 3.917969 29.152344 5.105469 29.488281 C 5.648438 29.640625 6.222656 29.796875 6.8125 29.902344 C 9.636719 30.523438 11.9375 29.773438 13.851563 28.167969 C 15.195313 27.054688 16.054688 25.734375 17.011719 24.441406 C 17.761719 23.40625 18.511719 22.34375 19.519531 21.414063 C 21.5625 19.523438 24.28125 18.566406 27.335938 18.101563 C 31.503906 17.480469 35.433594 17.765625 38.957031 19.5 C 41.128906 20.558594 42.503906 22.136719 43.5625 23.871094 C 44.417969 25.242188 45.039063 26.71875 46.070313 28.0625 C 46.433594 28.53125 46.875 28.96875 47.363281 29.382813 C 48.921875 30.703125 50.964844 31.039063 53.292969 30.808594 C 54.609375 30.652344 55.902344 30.367188 57.199219 30.109375 C 57.820313 29.980469 58.46875 29.875 59.140625 29.925781 C 60.175781 29.980469 60.460938 30.445313 59.863281 31.089844 C 58.699219 32.308594 57.351563 33.421875 55.882813 34.457031 C 54.304688 35.515625 52.722656 36.578125 51.121094 37.640625 Z M 51.144531 37.640625 "
       id="path109" />
    <path
       style=" stroke:none;fill-rule:evenodd;fill:rgb(100%,100%,100%);fill-opacity:1;"
       d="M 30.851563 28.789063 C 30.753906 28.789063 30.675781 28.789063 30.570313 28.789063 C 30.597656 28.867188 30.597656 28.945313 30.625 29.019531 C 30.699219 29.203125 30.625 29.28125 30.417969 29.28125 C 30.183594 29.28125 30.15625 29.253906 30.210938 28.96875 C 30.261719 28.789063 30.261719 28.789063 30.003906 28.8125 C 30.023438 28.839844 30.054688 28.867188 30.054688 28.917969 C 30.101563 29.019531 30.15625 29.152344 30.023438 29.226563 C 29.925781 29.304688 29.769531 29.304688 29.667969 29.253906 C 29.539063 29.152344 29.589844 29.019531 29.609375 28.917969 C 29.71875 28.710938 29.589844 28.738281 29.433594 28.710938 C 29.460938 28.8125 29.460938 28.890625 29.460938 28.996094 C 29.460938 29.046875 29.480469 29.125 29.402344 29.152344 C 29.332031 29.175781 29.253906 29.203125 29.175781 29.152344 C 29.097656 29.074219 29.144531 28.996094 29.175781 28.945313 C 29.195313 28.890625 29.226563 28.867188 29.253906 28.8125 C 29.351563 28.710938 29.332031 28.632813 29.226563 28.554688 C 29.019531 28.375 29.019531 28.117188 28.96875 27.910156 C 28.859375 27.546875 28.683594 27.441406 28.316406 27.570313 C 28.296875 27.570313 28.269531 27.597656 28.238281 27.597656 C 27.773438 27.753906 27.621094 27.703125 27.390625 27.3125 C 27.230469 27.003906 27.230469 26.976563 27.488281 26.769531 C 27.644531 26.640625 27.695313 26.511719 27.695313 26.332031 C 27.695313 25.96875 27.621094 25.605469 27.695313 25.242188 C 27.695313 25.21875 27.675781 25.164063 27.695313 25.113281 C 28.03125 24.542969 27.980469 23.847656 28.238281 23.25 C 28.238281 23.226563 28.238281 23.199219 28.238281 23.121094 C 28.03125 23.378906 27.980469 23.640625 27.957031 23.898438 C 27.902344 24.128906 27.851563 24.390625 27.75 24.621094 C 27.566406 25.035156 27.488281 25.449219 27.519531 25.917969 C 27.519531 26.070313 27.519531 26.226563 27.488281 26.40625 C 27.488281 26.484375 27.46875 26.539063 27.390625 26.539063 C 27.335938 26.539063 27.28125 26.511719 27.230469 26.484375 C 27.152344 26.382813 27.101563 26.277344 27.101563 26.148438 C 26.945313 25.113281 27.054688 24.105469 27.519531 23.121094 C 27.726563 22.707031 28.0625 22.398438 28.503906 22.191406 C 29.402344 21.75 30.339844 21.621094 31.320313 21.777344 C 32.613281 21.957031 33.363281 22.757813 33.777344 23.871094 C 33.960938 24.363281 34.144531 24.90625 34.039063 25.449219 C 33.984375 25.734375 33.933594 25.992188 33.777344 26.253906 C 33.726563 26.355469 33.679688 26.460938 33.546875 26.40625 C 33.417969 26.382813 33.417969 26.277344 33.417969 26.199219 C 33.417969 25.917969 33.417969 25.632813 33.417969 25.347656 C 33.417969 25.296875 33.417969 25.21875 33.363281 25.164063 C 33.339844 25.140625 33.265625 25.164063 33.234375 25.191406 C 33.132813 25.242188 33.210938 25.320313 33.234375 25.398438 C 33.339844 25.65625 33.3125 25.941406 33.3125 26.226563 C 33.3125 26.40625 33.394531 26.539063 33.601563 26.613281 C 33.90625 26.769531 33.960938 26.898438 33.808594 27.234375 C 33.679688 27.570313 33.472656 27.703125 33.15625 27.625 C 33.058594 27.597656 32.976563 27.570313 32.898438 27.546875 C 32.613281 27.496094 32.382813 27.597656 32.332031 27.855469 C 32.304688 28.117188 32.148438 28.296875 31.941406 28.453125 C 31.789063 28.582031 31.761719 28.683594 31.863281 28.867188 C 31.96875 29.097656 31.863281 29.226563 31.605469 29.226563 C 31.347656 29.226563 31.449219 29.019531 31.476563 28.917969 C 31.503906 28.738281 31.449219 28.738281 31.269531 28.761719 C 31.0625 28.761719 31.167969 28.867188 31.191406 28.96875 C 31.269531 29.226563 31.21875 29.304688 30.984375 29.304688 C 30.851563 29.304688 30.726563 29.253906 30.753906 29.074219 C 30.777344 28.96875 30.832031 28.890625 30.851563 28.789063 Z M 30.851563 28.789063 "
       id="path111" />
    <path
       style=" stroke:none;fill-rule:evenodd;fill:rgb(100%,100%,100%);fill-opacity:1;"
       d="M 22.058594 27.832031 C 21.851563 27.570313 21.613281 27.3125 21.40625 27.027344 C 21.179688 26.691406 20.972656 26.332031 20.765625 25.992188 C 20.582031 25.683594 20.449219 25.371094 20.320313 25.0625 C 20.167969 24.675781 20.191406 24.285156 20.222656 23.871094 C 22.855469 27.519531 26.378906 30.1875 30.726563 31.867188 C 30.984375 31.816406 31.21875 31.996094 31.449219 32.074219 C 32.484375 32.488281 33.570313 32.800781 34.636719 33.109375 C 34.765625 33.160156 34.972656 33.160156 34.972656 33.316406 C 34.996094 33.5 34.84375 33.574219 34.683594 33.652344 C 34.449219 33.757813 34.222656 33.78125 33.984375 33.707031 C 32.898438 33.394531 31.8125 33.058594 30.753906 32.671875 C 29.097656 32.023438 27.542969 31.195313 26.09375 30.1875 C 25.859375 30.003906 25.628906 29.824219 25.394531 29.617188 C 26.121094 30.238281 26.921875 30.753906 27.75 31.222656 C 29.480469 32.230469 31.347656 32.929688 33.289063 33.5 C 33.570313 33.601563 33.855469 33.679688 34.144531 33.808594 C 34.449219 33.9375 34.605469 34.195313 34.558594 34.507813 C 34.558594 34.664063 34.449219 34.765625 34.269531 34.742188 C 34.113281 34.714844 33.90625 34.6875 33.808594 34.535156 C 32.644531 34.171875 31.449219 33.808594 30.339844 33.34375 C 28.730469 32.695313 27.183594 31.972656 25.78125 30.988281 C 25.757813 30.988281 25.707031 30.960938 25.679688 30.960938 C 25.164063 30.574219 24.644531 30.210938 24.152344 29.824219 C 23.664063 29.460938 23.222656 29.019531 22.757813 28.582031 C 22.570313 28.375 22.34375 28.21875 22.183594 27.984375 C 22.105469 27.960938 22.058594 27.910156 22.058594 27.832031 Z M 22.058594 27.832031 "
       id="path113" />
    <path
       style=" stroke:none;fill-rule:evenodd;fill:rgb(100%,100%,100%);fill-opacity:1;"
       d="M 33.777344 30.367188 C 34.605469 29.953125 35.335938 29.433594 36.085938 28.917969 C 37.921875 27.625 39.472656 26.046875 40.816406 24.285156 C 40.894531 24.183594 40.945313 24.078125 41 24 C 41.054688 23.949219 41.054688 23.898438 41.128906 23.898438 C 41.207031 23.921875 41.183594 24 41.183594 24.054688 C 41.230469 24.621094 41.074219 25.164063 40.792969 25.65625 C 39.988281 27.210938 38.800781 28.476563 37.457031 29.617188 C 36.679688 30.238281 35.820313 30.832031 34.996094 31.402344 C 34.941406 31.503906 34.863281 31.558594 34.765625 31.609375 C 34.222656 31.917969 33.648438 32.203125 33.105469 32.488281 C 32.925781 32.59375 32.746094 32.59375 32.5625 32.515625 C 32.382813 32.4375 32.199219 32.386719 32.019531 32.332031 C 31.941406 32.28125 31.863281 32.28125 31.863281 32.179688 C 31.863281 32.101563 31.941406 32.074219 31.996094 32.050781 C 32.5625 31.789063 33.132813 31.503906 33.648438 31.195313 C 34.476563 30.703125 35.308594 30.210938 35.75 29.796875 C 35.40625 30.109375 34.765625 30.523438 34.09375 30.9375 C 33.363281 31.375 32.589844 31.765625 31.8125 32.125 C 31.734375 32.179688 31.632813 32.179688 31.554688 32.152344 C 31.375 32.074219 31.167969 31.996094 30.984375 31.894531 C 30.832031 31.816406 30.804688 31.765625 30.960938 31.660156 C 31.011719 31.609375 31.0625 31.582031 31.113281 31.582031 C 31.941406 31.222656 32.769531 30.832031 33.546875 30.417969 C 33.625 30.394531 33.699219 30.339844 33.777344 30.367188 Z M 33.777344 30.367188 "
       id="path115" />
    <path
       style=" stroke:none;fill-rule:evenodd;fill:rgb(100%,100%,100%);fill-opacity:1;"
       d="M 32.769531 29.460938 C 32.769531 29.488281 32.71875 29.511719 32.746094 29.539063 C 32.796875 29.902344 32.5625 30.082031 32.277344 30.261719 C 32.097656 30.367188 31.96875 30.546875 31.839844 30.703125 C 31.65625 30.9375 31.398438 31.015625 31.089844 30.960938 C 30.675781 30.910156 30.261719 30.910156 29.847656 30.988281 C 29.609375 30.988281 29.433594 30.882813 29.273438 30.730469 C 29.019531 30.46875 28.730469 30.210938 28.425781 30.03125 C 28.238281 29.902344 28.164063 29.71875 28.1875 29.511719 C 28.238281 29.074219 28.1875 28.660156 27.980469 28.246094 C 27.902344 28.089844 27.957031 27.984375 28.109375 27.910156 C 28.269531 27.832031 28.394531 27.910156 28.445313 28.039063 C 28.652344 28.425781 28.8125 28.8125 28.839844 29.226563 C 28.859375 29.539063 29.046875 29.824219 29.382813 29.875 C 29.402344 29.746094 29.253906 29.589844 29.460938 29.488281 C 29.589844 29.460938 29.6875 29.433594 29.769531 29.511719 C 29.949219 29.640625 29.746094 29.796875 29.796875 29.980469 C 29.847656 29.980469 29.949219 29.980469 30.023438 29.980469 C 30.082031 29.824219 29.875 29.667969 30.023438 29.539063 C 30.132813 29.460938 30.3125 29.460938 30.417969 29.539063 C 30.597656 29.640625 30.417969 29.824219 30.417969 29.980469 C 30.570313 30.003906 30.699219 30.003906 30.625 29.796875 C 30.597656 29.71875 30.546875 29.589844 30.675781 29.539063 C 30.804688 29.488281 30.90625 29.488281 31.011719 29.539063 C 31.167969 29.617188 31.089844 29.71875 31.0625 29.824219 C 31.0625 29.847656 31.0625 29.902344 31.039063 29.953125 C 31.113281 30.003906 31.191406 29.980469 31.296875 29.980469 C 31.246094 29.824219 31.140625 29.667969 31.347656 29.539063 C 31.449219 29.488281 31.582031 29.460938 31.65625 29.511719 C 31.789063 29.589844 31.683594 29.746094 31.710938 29.875 C 32.148438 29.71875 32.226563 29.382813 32.277344 28.996094 C 32.304688 28.605469 32.382813 28.246094 32.667969 27.933594 C 32.71875 27.882813 32.769531 27.832031 32.851563 27.804688 C 33.003906 27.753906 33.105469 27.804688 33.082031 27.984375 C 33.058594 28.398438 32.898438 28.789063 32.796875 29.203125 C 32.769531 29.28125 32.769531 29.359375 32.769531 29.460938 Z M 32.769531 29.460938 "
       id="path117" />
    <path
       style=" stroke:none;fill-rule:evenodd;fill:rgb(100%,100%,100%);fill-opacity:1;"
       d="M 25.058594 32.203125 C 25.5 32.464844 25.835938 32.824219 26.042969 33.292969 C 26.171875 33.550781 26.351563 33.78125 26.714844 33.78125 C 26.792969 33.78125 26.871094 33.808594 26.847656 33.914063 C 26.457031 34.195313 26.585938 34.609375 26.609375 34.972656 C 26.609375 35.257813 26.738281 35.515625 27 35.699219 C 27.128906 35.542969 27.207031 35.335938 27.46875 35.414063 C 27.773438 35.492188 27.882813 35.671875 27.851563 36.058594 C 27.824219 36.34375 27.644531 36.5 27.359375 36.527344 C 26.585938 36.578125 26.25 36.371094 26.019531 35.644531 C 25.8125 34.894531 25.652344 34.121094 25.1875 33.445313 C 25.136719 33.394531 25.085938 33.316406 25.03125 33.265625 C 24.902344 33.085938 24.824219 33.058594 24.722656 33.265625 C 24.621094 33.523438 24.050781 33.472656 23.894531 33.238281 C 23.738281 32.980469 23.714844 32.644531 23.871094 32.410156 C 24.019531 32.179688 24.359375 32.074219 24.695313 32.125 C 24.824219 32.152344 24.929688 32.179688 25.058594 32.203125 Z M 25.058594 32.203125 "
       id="path119" />
    <path
       style=" stroke:none;fill-rule:evenodd;fill:rgb(100%,100%,100%);fill-opacity:1;"
       d="M 34.527344 35.386719 C 34.765625 34.921875 34.84375 34.480469 34.582031 34.015625 C 34.507813 33.886719 34.507813 33.808594 34.636719 33.78125 C 34.996094 33.679688 35.179688 33.421875 35.335938 33.136719 C 35.484375 32.824219 35.691406 32.566406 35.976563 32.359375 C 36.3125 32.179688 36.648438 32.050781 37.0625 32.179688 C 37.378906 32.257813 37.558594 32.59375 37.507813 32.902344 C 37.429688 33.316406 37.222656 33.445313 36.835938 33.445313 C 36.679688 33.445313 36.574219 33.367188 36.550781 33.238281 C 36.441406 33.058594 36.34375 33.085938 36.234375 33.238281 C 35.976563 33.574219 35.769531 33.9375 35.644531 34.328125 C 35.484375 34.816406 35.355469 35.308594 35.199219 35.828125 C 34.972656 36.527344 34.398438 36.628906 33.777344 36.472656 C 33.496094 36.421875 33.417969 36.242188 33.441406 35.90625 C 33.441406 35.621094 33.546875 35.492188 33.808594 35.414063 C 34.039063 35.335938 34.167969 35.515625 34.269531 35.699219 C 34.375 35.621094 34.507813 35.542969 34.527344 35.386719 Z M 34.527344 35.386719 "
       id="path121" />
    <path
       style=" stroke:none;fill-rule:evenodd;fill:rgb(100%,100%,100%);fill-opacity:1;"
       d="M 24.128906 34.429688 C 24.019531 34.273438 23.921875 34.144531 23.894531 33.988281 C 23.84375 33.886719 23.871094 33.808594 23.972656 33.757813 C 24.207031 33.652344 24.515625 33.757813 24.59375 33.964844 C 24.671875 34.144531 24.773438 34.273438 24.980469 34.429688 C 24.902344 34.25 24.800781 34.121094 24.75 33.988281 C 24.722656 33.914063 24.722656 33.835938 24.800781 33.78125 C 24.878906 33.707031 24.957031 33.707031 25.058594 33.757813 C 25.316406 33.886719 25.652344 34.609375 25.574219 34.894531 C 25.550781 35.023438 25.421875 35.050781 25.316406 35.050781 C 24.824219 35.050781 24.308594 35.050781 23.8125 35.050781 C 23.558594 35.050781 23.378906 34.871094 23.25 34.664063 C 23.171875 34.507813 23.121094 34.328125 23.09375 34.144531 C 23.042969 34.015625 22.984375 33.859375 23.191406 33.78125 C 23.378906 33.707031 23.664063 33.78125 23.738281 33.964844 C 23.8125 34.066406 23.84375 34.195313 23.921875 34.328125 C 23.972656 34.378906 24 34.429688 24.128906 34.429688 Z M 24.128906 34.429688 "
       id="path123" />
    <path
       style=" stroke:none;fill-rule:evenodd;fill:rgb(100%,100%,100%);fill-opacity:1;"
       d="M 37.171875 34.457031 C 37.351563 34.351563 37.402344 34.222656 37.457031 34.066406 C 37.507813 33.9375 37.558594 33.808594 37.714844 33.78125 C 38.074219 33.679688 38.226563 33.808594 38.179688 34.171875 C 38.128906 34.351563 38.074219 34.558594 37.945313 34.742188 C 37.8125 34.921875 37.636719 35.050781 37.351563 35.050781 C 36.914063 35.050781 36.472656 35.050781 36.027344 35.050781 C 35.722656 35.050781 35.671875 34.972656 35.691406 34.714844 C 35.722656 34.351563 35.898438 34.09375 36.105469 33.835938 C 36.214844 33.730469 36.3125 33.679688 36.441406 33.757813 C 36.574219 33.808594 36.519531 33.914063 36.5 34.015625 C 36.472656 34.121094 36.421875 34.195313 36.394531 34.300781 C 36.550781 34.195313 36.601563 34.066406 36.679688 33.9375 C 36.757813 33.757813 37.09375 33.652344 37.269531 33.757813 C 37.378906 33.78125 37.378906 33.859375 37.378906 33.9375 C 37.351563 34.121094 37.25 34.273438 37.171875 34.457031 Z M 37.171875 34.457031 "
       id="path125" />
    <path
       style=" stroke:none;fill-rule:evenodd;fill:rgb(100%,100%,100%);fill-opacity:1;"
       d="M 26.945313 34.015625 C 27.3125 33.757813 27.773438 33.679688 28.1875 33.523438 C 28.554688 33.421875 28.917969 33.316406 29.253906 33.1875 C 29.433594 33.109375 29.589844 33.136719 29.769531 33.214844 C 29.976563 33.316406 30.210938 33.421875 30.46875 33.523438 C 29.925781 33.757813 29.402344 33.914063 28.890625 34.09375 C 28.269531 34.273438 27.621094 34.457031 27 34.636719 C 26.816406 34.714844 26.769531 34.664063 26.792969 34.507813 C 26.792969 34.328125 26.847656 34.144531 26.945313 34.015625 Z M 26.945313 34.015625 "
       id="path127" />
    <path
       style=" stroke:none;fill-rule:evenodd;fill:rgb(100%,100%,100%);fill-opacity:1;"
       d="M 38 34.949219 C 38.207031 35.101563 38.359375 35.257813 38.644531 35.15625 C 38.695313 35.128906 38.800781 35.128906 38.800781 35.050781 C 38.800781 35 38.722656 35 38.671875 34.972656 C 38.308594 34.792969 38.179688 34.535156 38.28125 34.222656 C 38.335938 33.988281 38.488281 33.835938 38.722656 33.78125 C 39.007813 33.730469 39.316406 33.78125 39.5 34.015625 C 39.964844 34.558594 39.628906 35.4375 38.902344 35.542969 C 38.59375 35.59375 38.308594 35.492188 38.074219 35.285156 C 38 35.179688 37.921875 35.101563 38 34.949219 Z M 38 34.949219 "
       id="path129" />
    <path
       style=" stroke:none;fill-rule:evenodd;fill:rgb(100%,100%,100%);fill-opacity:1;"
       d="M 23.269531 34.972656 C 23.144531 35.308594 22.707031 35.621094 22.363281 35.570313 C 21.949219 35.515625 21.5625 35.128906 21.539063 34.742188 C 21.539063 34.507813 21.5625 34.273438 21.691406 34.066406 C 21.898438 33.808594 22.3125 33.679688 22.628906 33.808594 C 22.914063 33.9375 23.042969 34.25 22.964844 34.585938 C 22.914063 34.792969 22.757813 34.894531 22.570313 34.972656 C 22.519531 34.972656 22.441406 35 22.441406 35.078125 C 22.472656 35.179688 22.550781 35.179688 22.601563 35.179688 C 22.757813 35.207031 22.914063 35.179688 23.042969 35.078125 C 23.121094 35.023438 23.171875 34.949219 23.269531 34.972656 Z M 23.269531 34.972656 "
       id="path131" />
    <path
       style=" stroke:none;fill-rule:evenodd;fill:rgb(100%,100%,100%);fill-opacity:1;"
       d="M 28.140625 33.394531 C 27.824219 33.472656 27.519531 33.523438 27.207031 33.601563 C 26.945313 33.652344 26.714844 33.652344 26.480469 33.523438 C 26.402344 33.472656 26.351563 33.394531 26.351563 33.316406 C 26.351563 33.238281 26.457031 33.238281 26.53125 33.238281 C 26.871094 33.109375 27.230469 33.007813 27.597656 32.902344 C 27.675781 32.878906 27.773438 32.878906 27.882813 32.824219 C 28.371094 32.539063 28.78125 32.746094 29.226563 33.03125 C 28.859375 33.136719 28.503906 33.265625 28.140625 33.394531 Z M 28.140625 33.394531 "
       id="path133" />
    <path
       style=" stroke:none;fill-rule:evenodd;fill:rgb(3.898621%,0%,0%);fill-opacity:1;"
       d="M 29.175781 24.777344 C 29.304688 24.777344 29.460938 24.804688 29.609375 24.855469 C 30.132813 24.984375 30.3125 25.578125 29.949219 26.019531 C 29.796875 26.199219 29.640625 26.355469 29.460938 26.511719 C 29.097656 26.746094 28.917969 26.71875 28.652344 26.304688 C 28.445313 25.941406 28.445313 25.503906 28.503906 25.089844 C 28.554688 24.855469 28.761719 24.777344 29.175781 24.777344 Z M 29.175781 24.777344 "
       id="path135" />
    <path
       style=" stroke:none;fill-rule:evenodd;fill:rgb(3.898621%,0%,0%);fill-opacity:1;"
       d="M 32.691406 25.632813 C 32.667969 25.785156 32.691406 25.917969 32.644531 26.046875 C 32.5625 26.511719 32.277344 26.691406 31.890625 26.484375 C 31.582031 26.332031 31.347656 26.097656 31.167969 25.785156 C 30.933594 25.425781 31.039063 25.089844 31.398438 24.933594 C 31.65625 24.828125 31.890625 24.777344 32.148438 24.855469 C 32.5625 24.957031 32.746094 25.140625 32.691406 25.632813 Z M 32.691406 25.632813 "
       id="path137" />
    <path
       style=" stroke:none;fill-rule:evenodd;fill:rgb(0.799561%,0%,0%);fill-opacity:1;"
       d="M 31.167969 27.496094 C 31.167969 27.570313 31.113281 27.625 31.113281 27.675781 C 31.0625 27.777344 31.011719 27.882813 30.90625 27.882813 C 30.777344 27.910156 30.753906 27.804688 30.699219 27.726563 C 30.699219 27.726563 30.675781 27.703125 30.675781 27.675781 C 30.496094 27.417969 30.496094 27.417969 30.289063 27.648438 C 30.261719 27.703125 30.210938 27.777344 30.15625 27.753906 C 30.082031 27.726563 30.023438 27.648438 30.054688 27.597656 C 30.15625 27.210938 30.230469 26.796875 30.417969 26.433594 C 30.4375 26.355469 30.519531 26.304688 30.597656 26.382813 C 30.851563 26.71875 31.0625 27.082031 31.167969 27.496094 Z M 31.167969 27.496094 "
       id="path139" />
    <path
       style="fill:none;stroke-width:2.267;stroke-linecap:butt;stroke-linejoin:miter;stroke:rgb(0%,0%,0%);stroke-opacity:1;stroke-miterlimit:4;"
       d="M 0.0003639 0.0008298 C 5.668333 -0.0499515 13.277708 0.0008298 18.015989 0.0008298 "
       transform="matrix(1,0,0,1,17.655886,38.90542)"
       id="path141" />
    <path
       style=" stroke:none;fill-rule:nonzero;fill:rgb(0%,0%,0%);fill-opacity:1;"
       d="M 67.941406 84.335938 L 67.941406 81.605469 L 64.351563 81.605469 L 64.351563 58.210938 L 54.136719 58.664063 L 54.136719 61.394531 C 57.636719 61.394531 58.003906 61.394531 58.003906 63.671875 L 58.003906 81.605469 L 53.949219 81.605469 L 53.949219 84.335938 L 61.132813 84.15625 Z M 65.183594 49.105469 C 65.183594 46.558594 63.3125 49.109375 60.738281 49.109375 C 58.253906 49.109375 55.976563 46.558594 55.976563 49.105469 C 55.976563 51.566406 58.097656 53.566406 60.582031 53.566406 C 63.15625 53.566406 65.183594 51.566406 65.183594 49.105469 Z M 65.183594 49.105469 "
       id="path143" />
  </g>
</svg>
