<?xml version="1.0" encoding="UTF-8" standalone="no"?>
<svg
   xmlns:dc="http://purl.org/dc/elements/1.1/"
   xmlns:cc="http://creativecommons.org/ns#"
   xmlns:rdf="http://www.w3.org/1999/02/22-rdf-syntax-ns#"
   xmlns:svg="http://www.w3.org/2000/svg"
   xmlns="http://www.w3.org/2000/svg"
   xmlns:sodipodi="http://sodipodi.sourceforge.net/DTD/sodipodi-0.dtd"
   xmlns:inkscape="http://www.inkscape.org/namespaces/inkscape"
   width="259pt"
   height="91pt"
   viewBox="0 0 53.0343 19.3211"
   version="1.2"
   id="svg59"
   sodipodi:docname="Ejemplo1.svg"
   inkscape:version="0.92.4 (5da689c313, 2019-01-14)">
  <metadata
     id="metadata65">
    <rdf:RDF>
      <cc:Work
         rdf:about="">
        <dc:format>image/svg+xml</dc:format>
        <dc:type
           rdf:resource="http://purl.org/dc/dcmitype/StillImage" />
        <dc:title></dc:title>
      </cc:Work>
    </rdf:RDF>
  </metadata>
  <defs
     id="defs63" />
  <sodipodi:namedview
     pagecolor="#ffffff"
     bordercolor="#666666"
     borderopacity="1"
     objecttolerance="10"
     gridtolerance="10"
     guidetolerance="10"
     inkscape:pageopacity="0"
     inkscape:pageshadow="2"
     inkscape:window-width="1920"
     inkscape:window-height="1001"
     id="namedview61"
     showgrid="false"
     inkscape:zoom="6.4627984"
     inkscape:cx="35.356201"
     inkscape:cy="12.880733"
     inkscape:window-x="-9"
     inkscape:window-y="-9"
     inkscape:window-maximized="1"
     inkscape:current-layer="svg59" />
  <g
     id="surface32">
    <path
       style=" stroke:none;fill-rule:nonzero;fill:rgb(0%,0%,0%);fill-opacity:1;"
       d="M 5.699219 9.363281 C 5.949219 9.363281 6.433594 9.363281 6.777344 9.566406 C 7.261719 9.878906 7.292969 10.410156 7.292969 10.472656 C 7.308594 10.613281 7.308594 10.738281 7.480469 10.738281 C 7.652344 10.738281 7.652344 10.597656 7.652344 10.425781 L 7.652344 7.722656 C 7.652344 7.566406 7.652344 7.410156 7.480469 7.410156 C 7.308594 7.410156 7.292969 7.550781 7.292969 7.628906 C 7.230469 8.925781 6.214844 8.988281 5.699219 9.003906 L 5.699219 6.894531 C 5.699219 6.222656 5.886719 6.222656 6.136719 6.222656 L 6.605469 6.222656 C 7.949219 6.222656 8.621094 6.910156 8.683594 7.597656 C 8.699219 7.675781 8.699219 7.832031 8.855469 7.832031 C 9.027344 7.832031 9.027344 7.675781 9.027344 7.503906 L 9.027344 6.207031 C 9.027344 5.894531 9.011719 5.878906 8.699219 5.878906 L 3.605469 5.878906 C 3.417969 5.878906 3.261719 5.878906 3.261719 6.050781 C 3.261719 6.222656 3.449219 6.222656 3.527344 6.222656 C 4.105469 6.222656 4.136719 6.300781 4.136719 6.800781 L 4.136719 11.785156 C 4.136719 12.253906 4.105469 12.363281 3.574219 12.363281 C 3.433594 12.363281 3.261719 12.363281 3.261719 12.535156 C 3.261719 12.707031 3.417969 12.707031 3.605469 12.707031 L 8.886719 12.707031 C 9.074219 12.707031 9.167969 12.707031 9.199219 12.566406 C 9.214844 12.550781 9.496094 10.894531 9.496094 10.847656 C 9.496094 10.738281 9.402344 10.660156 9.324219 10.660156 C 9.183594 10.660156 9.136719 10.800781 9.136719 10.800781 C 9.089844 11.066406 8.980469 11.488281 8.261719 11.910156 C 7.730469 12.222656 7.230469 12.363281 6.683594 12.363281 L 6.136719 12.363281 C 5.886719 12.363281 5.699219 12.363281 5.699219 11.691406 Z M 8.683594 6.222656 L 8.683594 6.707031 C 8.511719 6.519531 8.324219 6.363281 8.121094 6.222656 Z M 6.746094 9.144531 C 6.902344 9.082031 7.121094 8.925781 7.292969 8.722656 L 7.292969 9.550781 C 7.058594 9.285156 6.746094 9.160156 6.746094 9.160156 Z M 4.480469 6.769531 C 4.480469 6.660156 4.480469 6.410156 4.402344 6.222656 L 5.464844 6.222656 C 5.355469 6.457031 5.355469 6.785156 5.355469 6.878906 L 5.355469 11.707031 C 5.355469 12.066406 5.417969 12.269531 5.464844 12.363281 L 4.402344 12.363281 C 4.480469 12.175781 4.480469 11.925781 4.480469 11.816406 Z M 8.199219 12.363281 L 8.199219 12.347656 C 8.511719 12.191406 8.777344 11.972656 8.980469 11.800781 C 8.980469 11.832031 8.902344 12.285156 8.886719 12.363281 Z M 8.199219 12.363281 "
       id="path2" />
    <path
       style=" stroke:none;fill-rule:nonzero;fill:rgb(0%,0%,0%);fill-opacity:1;"
       d="M 12.71875 12.738281 L 12.71875 12.363281 L 12.375 12.347656 C 12.0625 12.332031 12.015625 12.253906 12.015625 11.707031 L 12.015625 5.582031 L 11.921875 5.535156 L 11.21875 5.753906 C 10.921875 5.832031 10.578125 5.894531 10 5.957031 L 10 6.316406 L 10.53125 6.347656 C 10.75 6.363281 10.796875 6.457031 10.796875 7.050781 L 10.796875 11.707031 C 10.796875 12.253906 10.75 12.332031 10.4375 12.347656 L 10.078125 12.363281 L 10.078125 12.738281 C 10.515625 12.722656 10.9375 12.707031 11.375 12.707031 C 11.8125 12.707031 12.265625 12.722656 12.71875 12.738281 Z M 12.71875 12.738281 "
       id="path4" />
    <path
       style=" stroke:none;fill-rule:nonzero;fill:rgb(0%,0%,0%);fill-opacity:1;"
       d="M 18.179688 9.628906 C 18.226563 9.628906 18.429688 9.628906 18.445313 9.644531 L 18.789063 9.644531 C 20.820313 9.644531 21.539063 8.707031 21.539063 7.753906 C 21.539063 6.332031 20.257813 5.878906 18.976563 5.878906 L 16.070313 5.878906 C 15.882813 5.878906 15.726563 5.878906 15.726563 6.050781 C 15.726563 6.222656 15.914063 6.222656 15.992188 6.222656 C 16.523438 6.222656 16.554688 6.300781 16.554688 6.800781 L 16.554688 11.785156 C 16.554688 12.285156 16.523438 12.363281 16.007813 12.363281 C 15.914063 12.363281 15.726563 12.363281 15.726563 12.535156 C 15.726563 12.707031 15.882813 12.707031 16.070313 12.707031 L 18.742188 12.707031 C 18.914063 12.707031 19.070313 12.707031 19.070313 12.535156 C 19.070313 12.363281 18.898438 12.363281 18.789063 12.363281 C 18.226563 12.363281 18.179688 12.285156 18.179688 11.785156 Z M 19.820313 9.191406 C 20.148438 8.769531 20.179688 8.144531 20.179688 7.738281 C 20.179688 7.207031 20.132813 6.691406 19.867188 6.316406 C 20.414063 6.441406 21.195313 6.738281 21.195313 7.753906 C 21.195313 8.457031 20.742188 8.957031 19.820313 9.191406 Z M 18.179688 6.769531 C 18.179688 6.566406 18.179688 6.222656 18.773438 6.222656 C 19.492188 6.222656 19.820313 6.503906 19.820313 7.738281 C 19.820313 9.175781 19.304688 9.285156 18.679688 9.285156 L 18.179688 9.285156 Z M 16.820313 12.363281 C 16.898438 12.175781 16.898438 11.941406 16.898438 11.816406 L 16.898438 6.769531 C 16.898438 6.644531 16.898438 6.410156 16.820313 6.222656 L 17.960938 6.222656 C 17.835938 6.394531 17.835938 6.582031 17.835938 6.738281 L 17.835938 11.816406 C 17.835938 11.910156 17.835938 12.175781 17.914063 12.363281 Z M 16.820313 12.363281 "
       id="path6" />
    <path
       style=" stroke:none;fill-rule:nonzero;fill:rgb(0%,0%,0%);fill-opacity:1;"
       d="M 28.382813 7.460938 L 27.132813 5.804688 L 26.523438 5.804688 L 25.273438 7.460938 L 25.617188 7.460938 L 26.835938 6.445313 L 28.039063 7.460938 Z M 28.382813 7.460938 "
       id="path8" />
    <path
       style=" stroke:none;fill-rule:nonzero;fill:rgb(0%,0%,0%);fill-opacity:1;"
       d="M 28.734375 8.054688 C 28.640625 8.023438 28.515625 8.007813 28.375 8.007813 C 28.09375 8.007813 27.90625 8.117188 27.515625 8.523438 L 27.078125 9.007813 L 27.078125 8.054688 L 26.984375 8.007813 L 26.28125 8.226563 C 25.96875 8.320313 25.78125 8.351563 25.15625 8.429688 L 25.15625 8.789063 L 25.609375 8.820313 C 25.84375 8.835938 25.859375 8.929688 25.859375 9.507813 L 25.859375 11.695313 C 25.859375 12.242188 25.8125 12.320313 25.5 12.335938 L 25.15625 12.351563 L 25.15625 12.726563 C 25.59375 12.710938 26.015625 12.695313 26.4375 12.695313 C 26.9375 12.695313 27.453125 12.710938 27.953125 12.726563 L 27.953125 12.351563 L 27.5625 12.335938 C 27.125 12.320313 27.078125 12.257813 27.078125 11.695313 L 27.078125 9.726563 C 27.078125 9.414063 27.484375 9.085938 27.875 9.085938 C 28.125 9.085938 28.3125 9.210938 28.453125 9.445313 L 28.6875 9.351563 Z M 28.734375 8.054688 "
       id="path10" />
    <path
       style=" stroke:none;fill-rule:nonzero;fill:rgb(0%,0%,0%);fill-opacity:1;"
       d="M 33.5 12.726563 L 33.5 12.351563 L 33.203125 12.320313 C 32.96875 12.304688 32.921875 12.179688 32.921875 11.710938 L 32.921875 9.398438 C 32.921875 8.523438 32.328125 8.007813 31.328125 8.007813 C 30.890625 8.007813 30.515625 8.117188 30.125 8.335938 L 29.609375 8.664063 L 29.609375 9.351563 L 29.90625 9.414063 L 30.125 8.914063 C 30.15625 8.851563 30.421875 8.773438 30.703125 8.773438 C 31.359375 8.773438 31.6875 9.132813 31.71875 9.960938 L 30.84375 10.132813 C 29.578125 10.398438 29.140625 10.789063 29.140625 11.632813 C 29.140625 12.429688 29.546875 12.867188 30.296875 12.867188 C 30.53125 12.867188 30.6875 12.820313 30.78125 12.742188 L 31.71875 12.023438 L 31.671875 12.648438 L 31.71875 12.726563 C 32.015625 12.710938 32.328125 12.695313 32.625 12.695313 C 32.90625 12.695313 33.203125 12.710938 33.5 12.726563 Z M 31.71875 11.554688 C 31.515625 11.804688 31.15625 11.992188 30.859375 11.992188 C 30.53125 11.992188 30.34375 11.757813 30.34375 11.367188 C 30.34375 10.882813 30.5625 10.679688 31.265625 10.492188 L 31.71875 10.367188 Z M 31.71875 11.554688 "
       id="path12" />
    <path
       style=" stroke:none;fill-rule:nonzero;fill:rgb(0%,0%,0%);fill-opacity:1;"
       d="M 38.542969 5.902344 L 36.386719 5.917969 L 34.808594 5.917969 L 32.777344 5.902344 C 32.839844 6.464844 32.855469 6.855469 32.855469 7.496094 L 33.167969 7.496094 L 33.199219 6.714844 C 33.214844 6.480469 33.324219 6.386719 33.605469 6.386719 L 35.152344 6.386719 C 35.183594 6.714844 35.183594 6.949219 35.183594 7.386719 L 35.183594 11.589844 C 35.183594 12.386719 35.136719 12.464844 34.683594 12.496094 L 34.199219 12.527344 L 34.199219 12.824219 C 34.683594 12.808594 35.167969 12.792969 35.652344 12.792969 C 36.136719 12.792969 36.636719 12.808594 37.121094 12.824219 L 37.121094 12.527344 L 36.636719 12.496094 C 36.183594 12.464844 36.136719 12.386719 36.136719 11.589844 L 36.136719 7.386719 C 36.136719 6.933594 36.136719 6.714844 36.167969 6.386719 L 37.714844 6.386719 C 37.996094 6.386719 38.105469 6.480469 38.121094 6.714844 L 38.152344 7.496094 L 38.464844 7.496094 C 38.464844 6.855469 38.480469 6.464844 38.542969 5.902344 Z M 38.542969 5.902344 "
       id="path14" />
    <path
       style=" stroke:none;fill-rule:nonzero;fill:rgb(0%,0%,0%);fill-opacity:1;"
       d="M 48.089844 12.917969 L 48.089844 12.621094 L 47.792969 12.589844 C 47.605469 12.574219 47.464844 12.402344 47.136719 11.886719 L 45.386719 9.105469 L 46.917969 7.027344 C 47.324219 6.480469 47.449219 6.355469 47.605469 6.339844 L 48.011719 6.324219 L 48.011719 6.011719 L 46.996094 6.011719 L 45.152344 8.714844 L 43.886719 6.558594 C 43.652344 6.183594 43.496094 6.011719 43.308594 5.902344 L 41.902344 6.183594 L 41.933594 6.433594 L 42.371094 6.464844 C 42.621094 6.480469 42.964844 6.808594 43.292969 7.371094 L 44.574219 9.480469 L 42.621094 12.105469 C 42.371094 12.449219 42.261719 12.558594 42.042969 12.589844 L 41.777344 12.621094 L 41.777344 12.917969 C 41.949219 12.902344 42.121094 12.886719 42.292969 12.886719 C 42.464844 12.886719 42.636719 12.902344 42.808594 12.917969 L 44.824219 9.871094 L 46.652344 12.917969 C 46.902344 12.902344 47.136719 12.886719 47.386719 12.886719 C 47.621094 12.886719 47.855469 12.902344 48.089844 12.917969 Z M 48.089844 12.917969 "
       id="path16" />
    <path
       style=" stroke:none;fill-rule:nonzero;fill:rgb(0%,0%,0%);fill-opacity:1;"
       d="M 36.910156 14.277344 L 37.253906 14.277344 L 37.316406 14.621094 C 37.363281 15.042969 37.503906 15.355469 37.644531 15.402344 C 37.847656 15.480469 38.582031 15.527344 39.472656 15.527344 C 39.988281 15.527344 40.175781 15.511719 40.457031 15.449219 L 40.457031 12.652344 L 38.863281 12.621094 C 38.425781 12.621094 38.238281 12.667969 38.160156 12.996094 C 38.128906 13.214844 38.113281 13.589844 38.113281 13.589844 L 37.816406 13.589844 C 37.832031 13.214844 37.847656 12.839844 37.847656 12.480469 C 37.847656 12.089844 37.832031 11.714844 37.816406 11.324219 L 38.113281 11.324219 C 38.113281 11.324219 38.113281 11.652344 38.160156 11.839844 C 38.253906 12.183594 38.441406 12.214844 38.863281 12.214844 C 39.363281 12.214844 40.019531 12.214844 40.457031 12.183594 L 40.457031 9.511719 C 40.144531 9.449219 39.988281 9.433594 39.300781 9.433594 C 38.722656 9.433594 38.160156 9.480469 37.847656 9.574219 C 37.613281 9.652344 37.582031 9.683594 37.582031 9.917969 L 37.582031 10.558594 L 37.222656 10.558594 C 37.222656 9.964844 37.175781 9.480469 37.066406 9.042969 L 38.300781 9.027344 C 39.082031 9.042969 39.847656 9.042969 40.613281 9.042969 C 41.207031 9.042969 41.800781 9.042969 42.394531 9.027344 L 42.394531 9.324219 L 41.910156 9.355469 C 41.457031 9.371094 41.410156 9.464844 41.410156 10.246094 L 41.410156 14.714844 C 41.410156 15.511719 41.441406 15.574219 41.910156 15.621094 L 42.269531 15.652344 L 42.269531 15.949219 C 41.863281 15.933594 41.457031 15.917969 41.050781 15.917969 C 40.285156 15.917969 39.503906 15.933594 38.738281 15.949219 L 37.066406 15.917969 C 37.066406 15.339844 37.003906 14.808594 36.910156 14.277344 Z M 36.910156 14.277344 "
       id="path18" />
    <path
       style="fill:none;stroke-width:0.87675;stroke-linecap:butt;stroke-linejoin:miter;stroke:rgb(0%,0%,0%);stroke-opacity:1;stroke-miterlimit:10;"
       d="M 26.360831 39.308413 L 76.587394 39.308413 L 76.587394 56.066225 L 26.360831 56.066225 Z M 26.360831 39.308413 "
       transform="matrix(1,0,0,1,-24.8413,-38.0506)"
       id="path20" />
    <path
       style=" stroke:none;fill-rule:nonzero;fill:rgb(0%,0%,0%);fill-opacity:1;"
       d="M 24.222656 6.34375 C 24.222656 6.140625 24.082031 5.984375 23.863281 5.984375 C 23.582031 5.984375 23.316406 6.25 23.316406 6.515625 C 23.316406 6.703125 23.457031 6.875 23.691406 6.875 C 23.925781 6.875 24.222656 6.640625 24.222656 6.34375 Z M 23.472656 10.09375 C 23.582031 9.8125 23.582031 9.78125 23.691406 9.515625 C 23.769531 9.3125 23.816406 9.171875 23.816406 8.984375 C 23.816406 8.546875 23.503906 8.171875 23.003906 8.171875 C 22.066406 8.171875 21.691406 9.625 21.691406 9.703125 C 21.691406 9.8125 21.785156 9.8125 21.800781 9.8125 C 21.910156 9.8125 21.910156 9.78125 21.957031 9.625 C 22.238281 8.6875 22.628906 8.390625 22.972656 8.390625 C 23.050781 8.390625 23.222656 8.390625 23.222656 8.703125 C 23.222656 8.921875 23.144531 9.125 23.113281 9.234375 C 23.035156 9.484375 22.582031 10.640625 22.425781 11.078125 C 22.316406 11.328125 22.191406 11.65625 22.191406 11.875 C 22.191406 12.34375 22.535156 12.6875 23.003906 12.6875 C 23.941406 12.6875 24.316406 11.25 24.316406 11.15625 C 24.316406 11.046875 24.222656 11.046875 24.191406 11.046875 C 24.097656 11.046875 24.097656 11.078125 24.050781 11.234375 C 23.863281 11.859375 23.535156 12.46875 23.035156 12.46875 C 22.863281 12.46875 22.785156 12.375 22.785156 12.140625 C 22.785156 11.890625 22.847656 11.75 23.082031 11.140625 Z M 23.472656 10.09375 "
       id="path22" />
    <path
       style=" stroke:none;fill-rule:evenodd;fill:rgb(0.392151%,0.392151%,0.392151%);fill-opacity:1;"
       d="M 21.539063 5.679688 C 21.417969 5.746094 21.3125 5.820313 21.21875 5.902344 C 21.132813 5.949219 21.074219 6.011719 21.011719 6.074219 C 20.953125 6.128906 20.894531 6.144531 20.800781 6.121094 C 20.390625 6.019531 19.960938 5.96875 19.53125 5.925781 C 18.851563 5.851563 18.164063 5.816406 17.472656 5.835938 C 16.867188 5.851563 16.269531 5.898438 15.679688 6.015625 C 15.636719 6.023438 15.59375 6.039063 15.550781 6 C 15.125 5.601563 14.621094 5.253906 14.191406 4.855469 C 14.078125 4.75 13.980469 4.636719 13.886719 4.515625 C 13.851563 4.472656 13.835938 4.429688 13.871094 4.386719 C 13.90625 4.339844 13.972656 4.339844 14.035156 4.34375 C 14.230469 4.347656 14.410156 4.398438 14.589844 4.449219 C 14.671875 4.472656 14.757813 4.496094 14.847656 4.511719 C 15.273438 4.605469 15.621094 4.492188 15.910156 4.25 C 16.113281 4.082031 16.242188 3.882813 16.386719 3.6875 C 16.5 3.53125 16.613281 3.371094 16.765625 3.230469 C 17.074219 2.945313 17.484375 2.800781 17.945313 2.730469 C 18.574219 2.636719 19.167969 2.679688 19.699219 2.941406 C 20.027344 3.101563 20.234375 3.339844 20.394531 3.601563 C 20.523438 3.808594 20.617188 4.03125 20.773438 4.234375 C 20.828125 4.304688 20.894531 4.371094 20.96875 4.433594 C 21.203125 4.632813 21.511719 4.683594 21.863281 4.648438 C 22.0625 4.625 22.257813 4.582031 22.453125 4.542969 C 22.546875 4.523438 22.644531 4.507813 22.746094 4.515625 C 22.902344 4.523438 22.945313 4.59375 22.855469 4.691406 C 22.679688 4.875 22.476563 5.042969 22.253906 5.199219 C 22.015625 5.359375 21.777344 5.519531 21.535156 5.679688 Z M 21.539063 5.679688 "
       id="path24" />
    <path
       style=" stroke:none;fill-rule:evenodd;fill:rgb(100%,94.508362%,100%);fill-opacity:0.964286;"
       d="M 18.476563 4.34375 C 18.460938 4.34375 18.449219 4.34375 18.433594 4.34375 C 18.4375 4.355469 18.4375 4.367188 18.441406 4.378906 C 18.453125 4.40625 18.441406 4.417969 18.410156 4.417969 C 18.375 4.417969 18.371094 4.414063 18.378906 4.371094 C 18.386719 4.34375 18.386719 4.34375 18.347656 4.347656 C 18.351563 4.351563 18.355469 4.355469 18.355469 4.363281 C 18.363281 4.378906 18.371094 4.398438 18.351563 4.410156 C 18.335938 4.421875 18.3125 4.421875 18.296875 4.414063 C 18.277344 4.398438 18.285156 4.378906 18.289063 4.363281 C 18.304688 4.332031 18.285156 4.335938 18.261719 4.332031 C 18.265625 4.347656 18.265625 4.359375 18.265625 4.375 C 18.265625 4.382813 18.269531 4.394531 18.257813 4.398438 C 18.246094 4.402344 18.234375 4.40625 18.222656 4.398438 C 18.210938 4.386719 18.21875 4.375 18.222656 4.367188 C 18.226563 4.359375 18.230469 4.355469 18.234375 4.347656 C 18.25 4.332031 18.246094 4.320313 18.230469 4.308594 C 18.199219 4.28125 18.199219 4.242188 18.191406 4.210938 C 18.175781 4.15625 18.148438 4.140625 18.09375 4.160156 C 18.089844 4.160156 18.085938 4.164063 18.082031 4.164063 C 18.011719 4.1875 17.988281 4.179688 17.953125 4.121094 C 17.929688 4.074219 17.929688 4.070313 17.96875 4.039063 C 17.992188 4.019531 18 4 18 3.972656 C 18 3.917969 17.988281 3.863281 18 3.808594 C 18 3.804688 17.996094 3.796875 18 3.789063 C 18.050781 3.703125 18.042969 3.597656 18.082031 3.507813 C 18.082031 3.503906 18.082031 3.5 18.082031 3.488281 C 18.050781 3.527344 18.042969 3.566406 18.039063 3.605469 C 18.03125 3.640625 18.023438 3.679688 18.007813 3.714844 C 17.980469 3.777344 17.96875 3.839844 17.972656 3.910156 C 17.972656 3.933594 17.972656 3.957031 17.96875 3.984375 C 17.96875 3.996094 17.964844 4.003906 17.953125 4.003906 C 17.945313 4.003906 17.9375 4 17.929688 3.996094 C 17.917969 3.980469 17.910156 3.964844 17.910156 3.945313 C 17.886719 3.789063 17.902344 3.636719 17.972656 3.488281 C 18.003906 3.425781 18.054688 3.378906 18.121094 3.347656 C 18.257813 3.28125 18.398438 3.261719 18.546875 3.285156 C 18.742188 3.3125 18.855469 3.433594 18.917969 3.601563 C 18.945313 3.675781 18.972656 3.757813 18.957031 3.839844 C 18.949219 3.882813 18.941406 3.921875 18.917969 3.960938 C 18.910156 3.976563 18.902344 3.992188 18.882813 3.984375 C 18.863281 3.980469 18.863281 3.964844 18.863281 3.953125 C 18.863281 3.910156 18.863281 3.867188 18.863281 3.824219 C 18.863281 3.816406 18.863281 3.804688 18.855469 3.796875 C 18.851563 3.792969 18.839844 3.796875 18.835938 3.800781 C 18.820313 3.808594 18.832031 3.820313 18.835938 3.832031 C 18.851563 3.871094 18.847656 3.914063 18.847656 3.957031 C 18.847656 3.984375 18.859375 4.003906 18.890625 4.015625 C 18.9375 4.039063 18.945313 4.058594 18.921875 4.109375 C 18.902344 4.160156 18.871094 4.179688 18.824219 4.167969 C 18.808594 4.164063 18.796875 4.160156 18.785156 4.15625 C 18.742188 4.148438 18.707031 4.164063 18.699219 4.203125 C 18.695313 4.242188 18.671875 4.269531 18.640625 4.292969 C 18.617188 4.3125 18.613281 4.328125 18.628906 4.355469 C 18.644531 4.390625 18.628906 4.410156 18.589844 4.410156 C 18.550781 4.410156 18.566406 4.378906 18.570313 4.363281 C 18.574219 4.335938 18.566406 4.335938 18.539063 4.339844 C 18.507813 4.339844 18.523438 4.355469 18.527344 4.371094 C 18.539063 4.410156 18.53125 4.421875 18.496094 4.421875 C 18.476563 4.421875 18.457031 4.414063 18.460938 4.386719 C 18.464844 4.371094 18.472656 4.359375 18.476563 4.34375 Z M 18.476563 4.34375 "
       id="path26" />
    <path
       style=" stroke:none;fill-rule:evenodd;fill:rgb(100%,94.508362%,100%);fill-opacity:0.964286;"
       d="M 17.148438 4.199219 C 17.117188 4.160156 17.082031 4.121094 17.050781 4.078125 C 17.015625 4.027344 16.984375 3.972656 16.953125 3.921875 C 16.925781 3.875 16.90625 3.828125 16.886719 3.78125 C 16.863281 3.722656 16.867188 3.664063 16.871094 3.601563 C 17.269531 4.152344 17.800781 4.554688 18.457031 4.808594 C 18.496094 4.800781 18.53125 4.828125 18.566406 4.839844 C 18.722656 4.902344 18.886719 4.949219 19.046875 4.996094 C 19.066406 5.003906 19.097656 5.003906 19.097656 5.027344 C 19.101563 5.054688 19.078125 5.066406 19.054688 5.078125 C 19.019531 5.09375 18.984375 5.097656 18.949219 5.085938 C 18.785156 5.039063 18.621094 4.988281 18.460938 4.929688 C 18.210938 4.832031 17.976563 4.707031 17.757813 4.554688 C 17.722656 4.527344 17.6875 4.5 17.652344 4.46875 C 17.761719 4.5625 17.882813 4.640625 18.007813 4.710938 C 18.269531 4.863281 18.550781 4.96875 18.84375 5.054688 C 18.886719 5.070313 18.929688 5.082031 18.972656 5.101563 C 19.019531 5.121094 19.042969 5.160156 19.035156 5.207031 C 19.035156 5.230469 19.019531 5.246094 18.992188 5.242188 C 18.96875 5.238281 18.9375 5.234375 18.921875 5.210938 C 18.746094 5.15625 18.566406 5.101563 18.398438 5.03125 C 18.15625 4.933594 17.921875 4.824219 17.710938 4.675781 C 17.707031 4.675781 17.699219 4.671875 17.695313 4.671875 C 17.617188 4.613281 17.539063 4.558594 17.464844 4.5 C 17.390625 4.445313 17.324219 4.378906 17.253906 4.3125 C 17.226563 4.28125 17.191406 4.257813 17.167969 4.222656 C 17.15625 4.21875 17.148438 4.210938 17.148438 4.199219 Z M 17.148438 4.199219 "
       id="path28" />
    <path
       style=" stroke:none;fill-rule:evenodd;fill:rgb(100%,94.508362%,100%);fill-opacity:0.964286;"
       d="M 18.917969 4.582031 C 19.042969 4.519531 19.152344 4.441406 19.265625 4.363281 C 19.542969 4.167969 19.777344 3.929688 19.980469 3.664063 C 19.992188 3.648438 20 3.632813 20.007813 3.621094 C 20.015625 3.613281 20.015625 3.605469 20.027344 3.605469 C 20.039063 3.609375 20.035156 3.621094 20.035156 3.628906 C 20.042969 3.714844 20.019531 3.796875 19.976563 3.871094 C 19.855469 4.105469 19.675781 4.296875 19.472656 4.46875 C 19.355469 4.5625 19.226563 4.652344 19.101563 4.738281 C 19.09375 4.753906 19.082031 4.761719 19.066406 4.769531 C 18.984375 4.816406 18.898438 4.859375 18.816406 4.902344 C 18.789063 4.917969 18.761719 4.917969 18.734375 4.90625 C 18.707031 4.894531 18.679688 4.886719 18.652344 4.878906 C 18.640625 4.871094 18.628906 4.871094 18.628906 4.855469 C 18.628906 4.84375 18.640625 4.839844 18.648438 4.835938 C 18.734375 4.796875 18.820313 4.753906 18.898438 4.707031 C 19.023438 4.632813 19.148438 4.558594 19.214844 4.496094 C 19.164063 4.542969 19.066406 4.605469 18.964844 4.667969 C 18.855469 4.734375 18.738281 4.792969 18.621094 4.847656 C 18.609375 4.855469 18.59375 4.855469 18.582031 4.851563 C 18.554688 4.839844 18.523438 4.828125 18.496094 4.8125 C 18.472656 4.800781 18.46875 4.792969 18.492188 4.777344 C 18.5 4.769531 18.507813 4.765625 18.515625 4.765625 C 18.640625 4.710938 18.765625 4.652344 18.882813 4.589844 C 18.894531 4.585938 18.90625 4.578125 18.917969 4.582031 Z M 18.917969 4.582031 "
       id="path30" />
    <path
       style=" stroke:none;fill-rule:evenodd;fill:rgb(100%,94.508362%,100%);fill-opacity:0.964286;"
       d="M 18.765625 4.445313 C 18.765625 4.449219 18.757813 4.453125 18.761719 4.457031 C 18.769531 4.511719 18.734375 4.539063 18.691406 4.566406 C 18.664063 4.582031 18.644531 4.609375 18.625 4.632813 C 18.597656 4.667969 18.558594 4.679688 18.511719 4.671875 C 18.449219 4.664063 18.386719 4.664063 18.324219 4.675781 C 18.289063 4.675781 18.261719 4.660156 18.238281 4.636719 C 18.199219 4.597656 18.15625 4.558594 18.109375 4.53125 C 18.082031 4.511719 18.070313 4.484375 18.074219 4.453125 C 18.082031 4.386719 18.074219 4.324219 18.042969 4.261719 C 18.03125 4.238281 18.039063 4.222656 18.0625 4.210938 C 18.085938 4.199219 18.105469 4.210938 18.113281 4.230469 C 18.144531 4.289063 18.167969 4.347656 18.171875 4.410156 C 18.175781 4.457031 18.203125 4.5 18.253906 4.507813 C 18.257813 4.488281 18.234375 4.464844 18.265625 4.449219 C 18.285156 4.445313 18.300781 4.441406 18.3125 4.453125 C 18.339844 4.472656 18.308594 4.496094 18.316406 4.523438 C 18.324219 4.523438 18.339844 4.523438 18.351563 4.523438 C 18.359375 4.5 18.328125 4.476563 18.351563 4.457031 C 18.367188 4.445313 18.394531 4.445313 18.410156 4.457031 C 18.4375 4.472656 18.410156 4.5 18.410156 4.523438 C 18.433594 4.527344 18.453125 4.527344 18.441406 4.496094 C 18.4375 4.484375 18.429688 4.464844 18.449219 4.457031 C 18.46875 4.449219 18.484375 4.449219 18.5 4.457031 C 18.523438 4.46875 18.511719 4.484375 18.507813 4.5 C 18.507813 4.503906 18.507813 4.511719 18.503906 4.519531 C 18.515625 4.527344 18.527344 4.523438 18.542969 4.523438 C 18.535156 4.5 18.519531 4.476563 18.550781 4.457031 C 18.566406 4.449219 18.585938 4.445313 18.597656 4.453125 C 18.617188 4.464844 18.601563 4.488281 18.605469 4.507813 C 18.671875 4.484375 18.683594 4.433594 18.691406 4.375 C 18.695313 4.316406 18.707031 4.261719 18.75 4.214844 C 18.757813 4.207031 18.765625 4.199219 18.777344 4.195313 C 18.800781 4.1875 18.816406 4.195313 18.8125 4.222656 C 18.808594 4.285156 18.785156 4.34375 18.769531 4.40625 C 18.765625 4.417969 18.765625 4.429688 18.765625 4.445313 Z M 18.765625 4.445313 "
       id="path32" />
    <path
       style=" stroke:none;fill-rule:evenodd;fill:rgb(100%,94.508362%,100%);fill-opacity:0.964286;"
       d="M 17.601563 4.859375 C 17.667969 4.898438 17.71875 4.953125 17.75 5.023438 C 17.769531 5.0625 17.796875 5.097656 17.851563 5.097656 C 17.863281 5.097656 17.875 5.101563 17.871094 5.117188 C 17.8125 5.160156 17.832031 5.222656 17.835938 5.277344 C 17.835938 5.320313 17.855469 5.359375 17.894531 5.386719 C 17.914063 5.363281 17.925781 5.332031 17.964844 5.34375 C 18.011719 5.355469 18.027344 5.382813 18.023438 5.441406 C 18.019531 5.484375 17.992188 5.507813 17.949219 5.511719 C 17.832031 5.519531 17.78125 5.488281 17.746094 5.378906 C 17.714844 5.265625 17.691406 5.148438 17.621094 5.046875 C 17.613281 5.039063 17.605469 5.027344 17.597656 5.019531 C 17.578125 4.992188 17.566406 4.988281 17.550781 5.019531 C 17.535156 5.058594 17.449219 5.050781 17.425781 5.015625 C 17.402344 4.976563 17.398438 4.925781 17.421875 4.890625 C 17.445313 4.855469 17.496094 4.839844 17.546875 4.847656 C 17.566406 4.851563 17.582031 4.855469 17.601563 4.859375 Z M 17.601563 4.859375 "
       id="path34" />
    <path
       style=" stroke:none;fill-rule:evenodd;fill:rgb(100%,94.508362%,100%);fill-opacity:0.964286;"
       d="M 19.03125 5.339844 C 19.066406 5.269531 19.078125 5.203125 19.039063 5.132813 C 19.027344 5.113281 19.027344 5.101563 19.046875 5.097656 C 19.101563 5.082031 19.128906 5.042969 19.152344 5 C 19.175781 4.953125 19.207031 4.914063 19.25 4.882813 C 19.300781 4.855469 19.351563 4.835938 19.414063 4.855469 C 19.460938 4.867188 19.488281 4.917969 19.480469 4.964844 C 19.46875 5.027344 19.4375 5.046875 19.378906 5.046875 C 19.355469 5.046875 19.339844 5.035156 19.335938 5.015625 C 19.320313 4.988281 19.304688 4.992188 19.289063 5.015625 C 19.25 5.066406 19.21875 5.121094 19.199219 5.179688 C 19.175781 5.253906 19.15625 5.328125 19.132813 5.40625 C 19.097656 5.511719 19.011719 5.527344 18.917969 5.503906 C 18.875 5.496094 18.863281 5.46875 18.867188 5.417969 C 18.867188 5.375 18.882813 5.355469 18.921875 5.34375 C 18.957031 5.332031 18.976563 5.359375 18.992188 5.386719 C 19.007813 5.375 19.027344 5.363281 19.03125 5.339844 Z M 19.03125 5.339844 "
       id="path36" />
    <path
       style=" stroke:none;fill-rule:evenodd;fill:rgb(100%,94.508362%,100%);fill-opacity:0.964286;"
       d="M 17.460938 5.195313 C 17.445313 5.171875 17.429688 5.152344 17.425781 5.128906 C 17.417969 5.113281 17.421875 5.101563 17.4375 5.09375 C 17.472656 5.078125 17.519531 5.09375 17.53125 5.125 C 17.542969 5.152344 17.558594 5.171875 17.589844 5.195313 C 17.578125 5.167969 17.5625 5.148438 17.554688 5.128906 C 17.550781 5.117188 17.550781 5.105469 17.5625 5.097656 C 17.574219 5.085938 17.585938 5.085938 17.601563 5.09375 C 17.640625 5.113281 17.691406 5.222656 17.679688 5.265625 C 17.675781 5.285156 17.65625 5.289063 17.640625 5.289063 C 17.566406 5.289063 17.488281 5.289063 17.414063 5.289063 C 17.375 5.289063 17.347656 5.261719 17.328125 5.230469 C 17.316406 5.207031 17.308594 5.179688 17.304688 5.152344 C 17.296875 5.132813 17.289063 5.109375 17.320313 5.097656 C 17.347656 5.085938 17.390625 5.097656 17.402344 5.125 C 17.414063 5.140625 17.417969 5.160156 17.429688 5.179688 C 17.4375 5.1875 17.441406 5.195313 17.460938 5.195313 Z M 17.460938 5.195313 "
       id="path38" />
    <path
       style=" stroke:none;fill-rule:evenodd;fill:rgb(100%,94.508362%,100%);fill-opacity:0.964286;"
       d="M 19.429688 5.199219 C 19.457031 5.183594 19.464844 5.164063 19.472656 5.140625 C 19.480469 5.121094 19.488281 5.101563 19.511719 5.097656 C 19.566406 5.082031 19.589844 5.101563 19.582031 5.15625 C 19.574219 5.183594 19.566406 5.214844 19.546875 5.242188 C 19.527344 5.269531 19.5 5.289063 19.457031 5.289063 C 19.390625 5.289063 19.324219 5.289063 19.257813 5.289063 C 19.210938 5.289063 19.203125 5.277344 19.207031 5.238281 C 19.210938 5.183594 19.238281 5.144531 19.269531 5.105469 C 19.285156 5.089844 19.300781 5.082031 19.320313 5.09375 C 19.339844 5.101563 19.332031 5.117188 19.328125 5.132813 C 19.324219 5.148438 19.316406 5.160156 19.3125 5.175781 C 19.335938 5.160156 19.34375 5.140625 19.355469 5.121094 C 19.367188 5.09375 19.417969 5.078125 19.445313 5.09375 C 19.460938 5.097656 19.460938 5.109375 19.460938 5.121094 C 19.457031 5.148438 19.441406 5.171875 19.429688 5.199219 Z M 19.429688 5.199219 "
       id="path40" />
    <path
       style=" stroke:none;fill-rule:evenodd;fill:rgb(100%,94.508362%,100%);fill-opacity:0.964286;"
       d="M 17.886719 5.132813 C 17.941406 5.09375 18.011719 5.082031 18.074219 5.058594 C 18.128906 5.042969 18.183594 5.027344 18.234375 5.007813 C 18.261719 4.996094 18.285156 5 18.3125 5.011719 C 18.34375 5.027344 18.378906 5.042969 18.417969 5.058594 C 18.335938 5.09375 18.257813 5.117188 18.179688 5.144531 C 18.085938 5.171875 17.988281 5.199219 17.894531 5.226563 C 17.867188 5.238281 17.859375 5.230469 17.863281 5.207031 C 17.863281 5.179688 17.871094 5.152344 17.886719 5.132813 Z M 17.886719 5.132813 "
       id="path42" />
    <path
       style=" stroke:none;fill-rule:evenodd;fill:rgb(100%,94.508362%,100%);fill-opacity:0.964286;"
       d="M 19.554688 5.273438 C 19.585938 5.296875 19.609375 5.320313 19.652344 5.304688 C 19.660156 5.300781 19.675781 5.300781 19.675781 5.289063 C 19.675781 5.28125 19.664063 5.28125 19.65625 5.277344 C 19.601563 5.25 19.582031 5.210938 19.597656 5.164063 C 19.605469 5.128906 19.628906 5.105469 19.664063 5.097656 C 19.707031 5.089844 19.753906 5.097656 19.78125 5.132813 C 19.851563 5.214844 19.800781 5.347656 19.691406 5.363281 C 19.644531 5.371094 19.601563 5.355469 19.566406 5.324219 C 19.554688 5.308594 19.542969 5.296875 19.554688 5.273438 Z M 19.554688 5.273438 "
       id="path44" />
    <path
       style=" stroke:none;fill-rule:evenodd;fill:rgb(100%,94.508362%,100%);fill-opacity:0.964286;"
       d="M 17.332031 5.277344 C 17.3125 5.328125 17.246094 5.375 17.195313 5.367188 C 17.132813 5.359375 17.074219 5.300781 17.070313 5.242188 C 17.070313 5.207031 17.074219 5.171875 17.09375 5.140625 C 17.125 5.101563 17.1875 5.082031 17.234375 5.101563 C 17.277344 5.121094 17.296875 5.167969 17.285156 5.21875 C 17.277344 5.25 17.253906 5.265625 17.226563 5.277344 C 17.21875 5.277344 17.207031 5.28125 17.207031 5.292969 C 17.210938 5.308594 17.222656 5.308594 17.230469 5.308594 C 17.253906 5.3125 17.277344 5.308594 17.296875 5.292969 C 17.308594 5.285156 17.316406 5.273438 17.332031 5.277344 Z M 17.332031 5.277344 "
       id="path46" />
    <path
       style=" stroke:none;fill-rule:evenodd;fill:rgb(100%,94.508362%,100%);fill-opacity:0.964286;"
       d="M 18.066406 5.039063 C 18.019531 5.050781 17.972656 5.058594 17.925781 5.070313 C 17.886719 5.078125 17.851563 5.078125 17.816406 5.058594 C 17.804688 5.050781 17.796875 5.039063 17.796875 5.027344 C 17.796875 5.015625 17.8125 5.015625 17.824219 5.015625 C 17.875 4.996094 17.929688 4.980469 17.984375 4.964844 C 17.996094 4.960938 18.011719 4.960938 18.027344 4.953125 C 18.101563 4.910156 18.164063 4.941406 18.230469 4.984375 C 18.175781 5 18.121094 5.019531 18.066406 5.039063 Z M 18.066406 5.039063 "
       id="path48" />
    <path
       style=" stroke:none;fill-rule:evenodd;fill:rgb(5.097961%,0%,0%);fill-opacity:1;"
       d="M 18.222656 3.738281 C 18.242188 3.738281 18.265625 3.742188 18.289063 3.75 C 18.367188 3.769531 18.394531 3.859375 18.339844 3.925781 C 18.316406 3.953125 18.292969 3.976563 18.265625 4 C 18.210938 4.035156 18.183594 4.03125 18.144531 3.96875 C 18.113281 3.914063 18.113281 3.847656 18.121094 3.785156 C 18.128906 3.75 18.160156 3.738281 18.222656 3.738281 Z M 18.222656 3.738281 "
       id="path50" />
    <path
       style=" stroke:none;fill-rule:evenodd;fill:rgb(5.097961%,0%,0%);fill-opacity:1;"
       d="M 18.753906 3.867188 C 18.75 3.890625 18.753906 3.910156 18.746094 3.929688 C 18.734375 4 18.691406 4.027344 18.632813 3.996094 C 18.585938 3.972656 18.550781 3.9375 18.523438 3.890625 C 18.488281 3.835938 18.503906 3.785156 18.558594 3.761719 C 18.597656 3.746094 18.632813 3.738281 18.671875 3.75 C 18.734375 3.765625 18.761719 3.792969 18.753906 3.867188 Z M 18.753906 3.867188 "
       id="path52" />
    <path
       style=" stroke:none;fill-rule:evenodd;fill:rgb(2.745056%,0%,0%);fill-opacity:1;"
       d="M 18.523438 4.148438 C 18.523438 4.160156 18.515625 4.167969 18.515625 4.175781 C 18.507813 4.191406 18.5 4.207031 18.484375 4.207031 C 18.464844 4.210938 18.460938 4.195313 18.453125 4.183594 C 18.453125 4.183594 18.449219 4.179688 18.449219 4.175781 C 18.421875 4.136719 18.421875 4.136719 18.390625 4.171875 C 18.386719 4.179688 18.378906 4.191406 18.371094 4.1875 C 18.359375 4.183594 18.351563 4.171875 18.355469 4.164063 C 18.371094 4.105469 18.382813 4.042969 18.410156 3.988281 C 18.414063 3.976563 18.425781 3.96875 18.4375 3.980469 C 18.476563 4.03125 18.507813 4.085938 18.523438 4.148438 Z M 18.523438 4.148438 "
       id="path54" />
    <path
       style="fill:none;stroke-width:0.342179;stroke-linecap:butt;stroke-linejoin:miter;stroke:rgb(0%,0%,0%);stroke-opacity:1;stroke-miterlimit:4;"
       d="M 41.325675 43.921694 C 42.181144 43.913881 43.329581 43.921694 44.044425 43.921694 "
       transform="matrix(1,0,0,1,-24.8413,-38.0506)"
       id="path56" />
  </g>
</svg>
