<?xml version="1.0" encoding="UTF-8" standalone="no"?>
<svg
   xmlns:dc="http://purl.org/dc/elements/1.1/"
   xmlns:cc="http://creativecommons.org/ns#"
   xmlns:rdf="http://www.w3.org/1999/02/22-rdf-syntax-ns#"
   xmlns:svg="http://www.w3.org/2000/svg"
   xmlns="http://www.w3.org/2000/svg"
   xmlns:sodipodi="http://sodipodi.sourceforge.net/DTD/sodipodi-0.dtd"
   xmlns:inkscape="http://www.inkscape.org/namespaces/inkscape"
   width="250.366pt"
   height="238.585pt"
   viewBox="0 0 250.366 238.585"
   version="1.2"
   id="svg111"
   sodipodi:docname="grafferro.svg"
   inkscape:version="0.92.4 (5da689c313, 2019-01-14)">
  <metadata
     id="metadata117">
    <rdf:RDF>
      <cc:Work
         rdf:about="">
        <dc:format>image/svg+xml</dc:format>
        <dc:type
           rdf:resource="http://purl.org/dc/dcmitype/StillImage" />
        <dc:title></dc:title>
      </cc:Work>
    </rdf:RDF>
  </metadata>
  <defs
     id="defs115" />
  <sodipodi:namedview
     pagecolor="#ffffff"
     bordercolor="#666666"
     borderopacity="1"
     objecttolerance="10"
     gridtolerance="10"
     guidetolerance="10"
     inkscape:pageopacity="0"
     inkscape:pageshadow="2"
     inkscape:window-width="727"
     inkscape:window-height="480"
     id="namedview113"
     showgrid="false"
     inkscape:zoom="0.74187394"
     inkscape:cx="166.91066"
     inkscape:cy="159.05667"
     inkscape:window-x="2681"
     inkscape:window-y="171"
     inkscape:window-maximized="0"
     inkscape:current-layer="svg111" />
  <g
     id="surface44">
    <path
       style="fill:none;stroke-width:0.75;stroke-linecap:butt;stroke-linejoin:miter;stroke:rgb(0%,0%,0%);stroke-opacity:1;stroke-miterlimit:4;"
       d="M 216.53425 560.060177 L 215.303781 359.28674 "
       transform="matrix(1,0,0,1,-101.128,-351.493771)"
       id="path2" />
    <path
       style="fill:none;stroke-width:0.75;stroke-linecap:butt;stroke-linejoin:miter;stroke:rgb(0%,0%,0%);stroke-opacity:1;stroke-miterlimit:4;"
       d="M 316.213937 459.095334 L 115.436594 460.329709 "
       transform="matrix(1,0,0,1,-101.128,-351.493771)"
       id="path4" />
    <path
       style="fill:none;stroke-width:0.751181;stroke-linecap:butt;stroke-linejoin:miter;stroke:rgb(0%,0%,0%);stroke-opacity:1;stroke-dasharray:2.253543,0.751181;stroke-miterlimit:4;"
       d="M 284.479562 392.739865 L 140.905344 533.09924 "
       transform="matrix(1,0,0,1,-101.128,-351.493771)"
       id="path6" />
    <path
       style="fill:none;stroke-width:0.75;stroke-linecap:butt;stroke-linejoin:miter;stroke:rgb(0%,0%,0%);stroke-opacity:1;stroke-miterlimit:4;"
       d="M 216.299875 459.864865 C 216.210031 424.470334 252.128 404.458615 280.3155 395.845334 "
       transform="matrix(1,0,0,1,-101.128,-351.493771)"
       id="path8" />
    <path
       style="fill:none;stroke-width:0.75;stroke-linecap:butt;stroke-linejoin:miter;stroke:rgb(0%,0%,0%);stroke-opacity:1;stroke-miterlimit:4;"
       d="M 215.729562 459.720334 C 215.8155 495.114865 179.897531 515.126584 151.710031 523.739865 "
       transform="matrix(1,0,0,1,-101.128,-351.493771)"
       id="path10" />
    <path
       style=" stroke:none;fill-rule:nonzero;fill:rgb(0%,0%,0%);fill-opacity:1;"
       d="M 51.75 171.746094 C 51.75 172.910156 50.746094 173.855469 49.507813 173.855469 C 48.269531 173.855469 47.265625 172.910156 47.265625 171.746094 C 47.265625 170.578125 48.269531 169.640625 49.507813 169.640625 C 50.746094 169.640625 51.75 170.578125 51.75 171.746094 Z M 51.75 171.746094 "
       id="path12" />
    <path
       style=" stroke:none;fill-rule:nonzero;fill:rgb(0%,0%,0%);fill-opacity:1;"
       d="M 181.910156 44.609375 C 181.910156 45.773438 180.90625 46.71875 179.667969 46.71875 C 178.429688 46.71875 177.425781 45.773438 177.425781 44.609375 C 177.425781 43.445313 178.429688 42.496094 179.667969 42.496094 C 180.90625 42.496094 181.910156 43.445313 181.910156 44.609375 Z M 181.910156 44.609375 "
       id="path14" />
    <path
       style=" stroke:none;fill-rule:nonzero;fill:rgb(0%,0%,0%);fill-opacity:1;"
       d="M 116.972656 108.097656 C 116.972656 109.261719 115.96875 110.203125 114.730469 110.203125 C 113.492188 110.203125 112.488281 109.261719 112.488281 108.097656 C 112.488281 106.933594 113.492188 105.988281 114.730469 105.988281 C 115.96875 105.988281 116.972656 106.933594 116.972656 108.097656 Z M 116.972656 108.097656 "
       id="path16" />
    <path
       style="fill:none;stroke-width:0.751181;stroke-linecap:butt;stroke-linejoin:miter;stroke:rgb(0%,0%,0%);stroke-opacity:1;stroke-dasharray:0.751181,0.751181;stroke-miterlimit:4;"
       d="M 151.710031 523.739865 L 152.186594 460.052365 "
       transform="matrix(1,0,0,1,-101.128,-351.493771)"
       id="path18" />
    <path
       style="fill:none;stroke-width:0.751181;stroke-linecap:butt;stroke-linejoin:miter;stroke:rgb(0%,0%,0%);stroke-opacity:1;stroke-dasharray:0.751181,0.751181;stroke-miterlimit:4;"
       d="M 280.866281 395.845334 L 280.428781 458.989865 "
       transform="matrix(1,0,0,1,-101.128,-351.493771)"
       id="path20" />
    <path
       style=" stroke:none;fill-rule:evenodd;fill:rgb(0%,0%,0%);fill-opacity:1;"
       d="M 176.964844 118.339844 L 180.367188 118.339844 C 180.535156 118.339844 180.765625 118.339844 180.765625 118.089844 C 180.765625 117.839844 180.535156 117.839844 180.367188 117.839844 L 176.964844 117.839844 L 176.964844 114.324219 C 176.964844 114.152344 176.964844 113.910156 176.722656 113.910156 C 176.480469 113.910156 176.480469 114.152344 176.480469 114.324219 L 176.480469 117.839844 L 173.070313 117.839844 C 172.898438 117.839844 172.671875 117.839844 172.671875 118.089844 C 172.671875 118.339844 172.898438 118.339844 173.070313 118.339844 L 176.480469 118.339844 L 176.480469 121.851563 C 176.480469 122.027344 176.480469 122.265625 176.722656 122.265625 C 176.964844 122.265625 176.964844 122.027344 176.964844 121.851563 Z M 176.964844 118.339844 "
       id="path22" />
    <path
       style=" stroke:none;fill-rule:evenodd;fill:rgb(0%,0%,0%);fill-opacity:1;"
       d="M 185.042969 113.195313 L 185.042969 113.097656 L 185.039063 113.085938 L 185.039063 113.035156 L 185.035156 113.027344 L 185.035156 113.003906 L 185.03125 112.988281 L 185.027344 112.976563 L 185.027344 112.964844 L 185.023438 112.949219 L 185.015625 112.941406 L 185.011719 112.929688 L 185.007813 112.921875 L 185 112.910156 L 184.988281 112.90625 L 184.984375 112.898438 L 184.960938 112.890625 L 184.957031 112.886719 L 184.941406 112.886719 L 184.9375 112.882813 L 184.929688 112.878906 L 184.90625 112.878906 L 184.898438 112.871094 L 184.761719 112.871094 C 184.003906 113.671875 182.9375 113.671875 182.546875 113.671875 L 182.546875 114.0625 C 182.789063 114.0625 183.507813 114.0625 184.140625 113.734375 L 184.140625 120.230469 C 184.140625 120.683594 184.105469 120.828125 183.007813 120.828125 L 182.617188 120.828125 L 182.617188 121.222656 C 183.046875 121.183594 184.105469 121.183594 184.589844 121.183594 C 185.078125 121.183594 186.136719 121.183594 186.5625 121.222656 L 186.5625 120.828125 L 186.175781 120.828125 C 185.078125 120.828125 185.042969 120.699219 185.042969 120.230469 Z M 185.042969 113.195313 "
       id="path24" />
    <path
       style=" stroke:none;fill-rule:evenodd;fill:rgb(0%,0%,0%);fill-opacity:1;"
       d="M 45.988281 102.878906 L 49.214844 102.878906 L 49.214844 103.605469 L 45.988281 103.605469 Z M 45.988281 102.878906 "
       id="path26" />
    <path
       style=" stroke:none;fill-rule:evenodd;fill:rgb(0%,0%,0%);fill-opacity:1;"
       d="M 53.480469 97.921875 L 53.480469 97.8125 L 53.476563 97.804688 L 53.476563 97.746094 L 53.46875 97.714844 L 53.46875 97.703125 L 53.464844 97.691406 L 53.460938 97.675781 L 53.457031 97.664063 L 53.449219 97.65625 L 53.445313 97.648438 L 53.421875 97.621094 L 53.410156 97.621094 L 53.394531 97.613281 L 53.382813 97.613281 L 53.378906 97.609375 L 53.371094 97.605469 L 53.34375 97.605469 L 53.339844 97.601563 L 53.320313 97.601563 L 53.3125 97.597656 L 53.199219 97.597656 C 52.441406 98.398438 51.375 98.398438 50.984375 98.398438 L 50.984375 98.785156 C 51.230469 98.785156 51.945313 98.785156 52.578125 98.460938 L 52.578125 104.953125 C 52.578125 105.410156 52.542969 105.558594 51.449219 105.558594 L 51.058594 105.558594 L 51.058594 105.949219 C 51.484375 105.910156 52.542969 105.910156 53.03125 105.910156 C 53.519531 105.910156 54.574219 105.910156 55.003906 105.949219 L 55.003906 105.558594 L 54.613281 105.558594 C 53.519531 105.558594 53.480469 105.425781 53.480469 104.953125 Z M 53.480469 97.921875 "
       id="path28" />
    <path
       style=" stroke:none;fill-rule:evenodd;fill:rgb(0%,0%,0%);fill-opacity:1;"
       d="M 118.558594 170.691406 L 121.785156 170.691406 L 121.785156 171.417969 L 118.558594 171.417969 Z M 118.558594 170.691406 "
       id="path30" />
    <path
       style=" stroke:none;fill-rule:evenodd;fill:rgb(0%,0%,0%);fill-opacity:1;"
       d="M 126.050781 165.734375 L 126.050781 165.578125 L 126.046875 165.566406 L 126.046875 165.539063 L 126.039063 165.515625 L 126.039063 165.496094 L 126.03125 165.488281 L 126.027344 165.480469 L 126.023438 165.46875 L 126.019531 165.460938 L 126.003906 165.445313 L 125.992188 165.4375 L 125.984375 165.433594 L 125.972656 165.429688 L 125.96875 165.425781 L 125.960938 165.421875 L 125.949219 165.421875 L 125.941406 165.414063 L 125.933594 165.414063 L 125.929688 165.410156 L 125.773438 165.410156 C 125.015625 166.210938 123.949219 166.210938 123.558594 166.210938 L 123.558594 166.601563 C 123.804688 166.601563 124.519531 166.601563 125.152344 166.273438 L 125.152344 172.769531 C 125.152344 173.222656 125.117188 173.371094 124.019531 173.371094 L 123.628906 173.371094 L 123.628906 173.761719 C 124.058594 173.722656 125.117188 173.722656 125.601563 173.722656 C 126.089844 173.722656 127.148438 173.722656 127.574219 173.761719 L 127.574219 173.371094 L 127.1875 173.371094 C 126.089844 173.371094 126.050781 173.234375 126.050781 172.769531 Z M 126.050781 165.734375 "
       id="path32" />
    <path
       style=" stroke:none;fill-rule:evenodd;fill:rgb(0%,0%,0%);fill-opacity:1;"
       d="M 102.683594 45.039063 L 106.085938 45.039063 C 106.253906 45.039063 106.484375 45.039063 106.484375 44.789063 C 106.484375 44.535156 106.253906 44.535156 106.085938 44.535156 L 102.683594 44.535156 L 102.683594 41.027344 C 102.683594 40.855469 102.683594 40.613281 102.441406 40.613281 C 102.199219 40.613281 102.199219 40.855469 102.199219 41.027344 L 102.199219 44.535156 L 98.789063 44.535156 C 98.617188 44.535156 98.386719 44.535156 98.386719 44.789063 C 98.386719 45.039063 98.617188 45.039063 98.789063 45.039063 L 102.199219 45.039063 L 102.199219 48.550781 C 102.199219 48.730469 102.199219 48.96875 102.441406 48.96875 C 102.683594 48.96875 102.683594 48.730469 102.683594 48.550781 Z M 102.683594 45.039063 "
       id="path34" />
    <path
       style=" stroke:none;fill-rule:evenodd;fill:rgb(0%,0%,0%);fill-opacity:1;"
       d="M 110.757813 39.898438 L 110.757813 39.742188 L 110.753906 39.730469 L 110.753906 39.722656 L 110.75 39.703125 L 110.75 39.691406 L 110.746094 39.679688 L 110.746094 39.660156 L 110.738281 39.652344 L 110.734375 39.644531 L 110.726563 39.621094 L 110.71875 39.617188 L 110.707031 39.609375 L 110.699219 39.601563 L 110.691406 39.597656 L 110.679688 39.59375 L 110.671875 39.589844 L 110.667969 39.585938 L 110.652344 39.585938 L 110.648438 39.578125 L 110.601563 39.578125 L 110.589844 39.574219 L 110.480469 39.574219 C 109.722656 40.371094 108.652344 40.371094 108.261719 40.371094 L 108.261719 40.765625 C 108.507813 40.765625 109.226563 40.765625 109.855469 40.4375 L 109.855469 46.933594 C 109.855469 47.386719 109.824219 47.535156 108.726563 47.535156 L 108.335938 47.535156 L 108.335938 47.925781 C 108.765625 47.886719 109.824219 47.886719 110.308594 47.886719 C 110.796875 47.886719 111.855469 47.886719 112.28125 47.925781 L 112.28125 47.535156 L 111.894531 47.535156 C 110.796875 47.535156 110.757813 47.398438 110.757813 46.933594 Z M 110.757813 39.898438 "
       id="path36" />
    <path
       style="fill:none;stroke-width:0.751181;stroke-linecap:butt;stroke-linejoin:miter;stroke:rgb(0%,0%,0%);stroke-opacity:1;stroke-dasharray:0.751181,0.751181;stroke-miterlimit:4;"
       d="M 216.487375 523.228146 L 152.799875 523.868771 "
       transform="matrix(1,0,0,1,-101.128,-351.493771)"
       id="path38" />
    <path
       style="fill:none;stroke-width:0.751181;stroke-linecap:butt;stroke-linejoin:miter;stroke:rgb(0%,0%,0%);stroke-opacity:1;stroke-dasharray:0.751181,0.751181;stroke-miterlimit:4;"
       d="M 278.893625 395.552365 L 215.210031 396.189084 "
       transform="matrix(1,0,0,1,-101.128,-351.493771)"
       id="path40" />
    <path
       style="fill:none;stroke-width:0.75;stroke-linecap:butt;stroke-linejoin:miter;stroke:rgb(0%,0%,0%);stroke-opacity:1;stroke-miterlimit:4;"
       d="M 216.667062 559.954709 C 208.15925 550.142209 215.456125 560.923459 216.667062 559.954709 C 221.745187 555.892209 219.479562 554.239865 216.667062 559.954709 "
       transform="matrix(1,0,0,1,-101.128,-351.493771)"
       id="path42" />
    <path
       style="fill:none;stroke-width:0.75;stroke-linecap:butt;stroke-linejoin:miter;stroke:rgb(0%,0%,0%);stroke-opacity:1;stroke-miterlimit:4;"
       d="M 218.018625 558.388302 C 218.362375 557.950802 218.678781 557.41174 219.010812 556.939084 "
       transform="matrix(1,0,0,1,-101.128,-351.493771)"
       id="path44" />
    <path
       style="fill:none;stroke-width:0.75;stroke-linecap:butt;stroke-linejoin:miter;stroke:rgb(0%,0%,0%);stroke-opacity:1;stroke-miterlimit:4;"
       d="M 215.030344 358.907834 C 223.542062 368.720334 216.245187 357.939084 215.030344 358.907834 C 209.956125 362.970334 212.22175 364.622677 215.030344 358.907834 "
       transform="matrix(1,0,0,1,-101.128,-351.493771)"
       id="path46" />
    <path
       style="fill:none;stroke-width:0.75;stroke-linecap:butt;stroke-linejoin:miter;stroke:rgb(0%,0%,0%);stroke-opacity:1;stroke-miterlimit:4;"
       d="M 213.682687 360.47424 C 213.335031 360.91174 213.018625 361.450802 212.686594 361.919552 "
       transform="matrix(1,0,0,1,-101.128,-351.493771)"
       id="path48" />
    <path
       style="fill:none;stroke-width:0.75;stroke-linecap:butt;stroke-linejoin:miter;stroke:rgb(0%,0%,0%);stroke-opacity:1;stroke-miterlimit:4;"
       d="M 316.760812 458.978146 C 306.948312 467.489865 317.729562 460.189084 316.760812 458.978146 C 312.698312 453.896115 311.042062 456.169552 316.760812 458.978146 "
       transform="matrix(1,0,0,1,-101.128,-351.493771)"
       id="path50" />
    <path
       style="fill:none;stroke-width:0.75;stroke-linecap:butt;stroke-linejoin:miter;stroke:rgb(0%,0%,0%);stroke-opacity:1;stroke-miterlimit:4;"
       d="M 315.1905 457.63049 C 314.756906 457.282834 314.213937 456.966427 313.749094 456.634396 "
       transform="matrix(1,0,0,1,-101.128,-351.493771)"
       id="path52" />
    <path
       style="fill:none;stroke-width:0.75;stroke-linecap:butt;stroke-linejoin:miter;stroke:rgb(0%,0%,0%);stroke-opacity:1;stroke-miterlimit:4;"
       d="M 115.47175 460.50549 C 125.28425 451.993771 114.499094 459.290646 115.47175 460.50549 C 119.53425 465.579709 121.186594 463.310177 115.47175 460.50549 "
       transform="matrix(1,0,0,1,-101.128,-351.493771)"
       id="path54" />
    <path
       style="fill:none;stroke-width:0.75;stroke-linecap:butt;stroke-linejoin:miter;stroke:rgb(0%,0%,0%);stroke-opacity:1;stroke-miterlimit:4;"
       d="M 117.038156 461.853146 C 117.475656 462.196896 118.014719 462.517209 118.483469 462.84924 "
       transform="matrix(1,0,0,1,-101.128,-351.493771)"
       id="path56" />
    <path
       style=" stroke:none;fill-rule:evenodd;fill:rgb(0%,0%,0%);fill-opacity:1;"
       d="M 48.324219 224.445313 L 48.320313 224.464844 L 48.316406 224.488281 L 48.3125 224.503906 L 48.308594 224.527344 L 48.285156 224.613281 L 48.277344 224.65625 L 48.253906 224.742188 L 48.246094 224.785156 L 48.238281 224.808594 L 48.234375 224.824219 L 48.21875 224.902344 L 48.207031 224.949219 L 48.207031 224.964844 L 48.203125 224.972656 L 48.199219 224.988281 L 48.199219 224.996094 L 48.195313 225.007813 L 48.195313 225.023438 C 48.195313 225.261719 48.394531 225.386719 48.601563 225.386719 C 48.78125 225.386719 49.03125 225.277344 49.128906 225.007813 C 49.144531 224.984375 49.3125 224.355469 49.398438 224.015625 L 49.710938 222.808594 C 49.792969 222.511719 49.878906 222.21875 49.949219 221.90625 C 50.007813 221.679688 50.125 221.289063 50.136719 221.234375 C 50.351563 220.820313 51.101563 219.597656 52.4375 219.597656 C 53.078125 219.597656 53.210938 220.09375 53.210938 220.535156 C 53.210938 220.871094 53.105469 221.246094 52.996094 221.652344 L 52.601563 223.210938 L 52.316406 224.230469 C 52.261719 224.496094 52.128906 224.953125 52.128906 225.023438 C 52.128906 225.261719 52.332031 225.386719 52.542969 225.386719 C 52.980469 225.386719 53.066406 225.050781 53.179688 224.617188 C 53.378906 223.867188 53.910156 221.90625 54.023438 221.382813 C 54.078125 221.203125 54.816406 219.597656 56.351563 219.597656 C 56.976563 219.597656 57.121094 220.050781 57.121094 220.535156 C 57.121094 221.300781 56.523438 222.828125 56.238281 223.546875 C 56.125 223.867188 56.066406 224.015625 56.066406 224.285156 C 56.066406 224.910156 56.550781 225.386719 57.234375 225.386719 C 58.570313 225.386719 59.078125 223.425781 59.078125 223.316406 C 59.078125 223.179688 58.964844 223.179688 58.910156 223.179688 C 58.765625 223.179688 58.765625 223.222656 58.710938 223.425781 C 58.484375 224.136719 58.027344 225.089844 57.261719 225.089844 C 57.003906 225.089844 56.921875 224.953125 56.921875 224.648438 C 56.921875 224.3125 57.035156 223.988281 57.175781 223.691406 C 57.433594 222.996094 58.027344 221.503906 58.027344 220.738281 C 58.027344 219.867188 57.460938 219.300781 56.410156 219.300781 C 55.328125 219.300781 54.617188 219.890625 54.105469 220.605469 C 54.078125 220.425781 54.050781 219.972656 53.652344 219.652344 C 53.292969 219.367188 52.839844 219.300781 52.484375 219.300781 C 51.210938 219.300781 50.519531 220.160156 50.28125 220.46875 C 50.207031 219.703125 49.613281 219.300781 48.972656 219.300781 C 48.324219 219.300781 48.054688 219.824219 47.925781 220.066406 C 47.671875 220.535156 47.488281 221.328125 47.488281 221.371094 C 47.488281 221.503906 47.628906 221.503906 47.660156 221.503906 C 47.800781 221.503906 47.8125 221.488281 47.898438 221.195313 C 48.140625 220.242188 48.425781 219.597656 48.933594 219.597656 C 49.160156 219.597656 49.375 219.703125 49.375 220.214844 C 49.375 220.492188 49.328125 220.648438 49.144531 221.34375 Z M 48.324219 224.445313 "
       id="path58" />
    <path
       style=" stroke:none;fill-rule:evenodd;fill:rgb(0%,0%,0%);fill-opacity:1;"
       d="M 73.171875 220.84375 L 73.289063 220.84375 L 73.316406 220.839844 L 73.34375 220.839844 L 73.371094 220.835938 L 73.402344 220.828125 L 73.429688 220.828125 L 73.457031 220.824219 L 73.484375 220.816406 L 73.484375 220.8125 L 73.515625 220.804688 L 73.515625 220.796875 L 73.542969 220.785156 L 73.542969 220.777344 L 73.570313 220.769531 L 73.570313 220.757813 L 73.601563 220.746094 L 73.601563 220.726563 L 73.628906 220.71875 L 73.628906 220.65625 L 73.65625 220.648438 L 73.65625 220.578125 C 73.65625 220.308594 73.371094 220.308594 73.171875 220.308594 L 64.707031 220.308594 C 64.507813 220.308594 64.25 220.308594 64.25 220.578125 C 64.25 220.84375 64.507813 220.84375 64.707031 220.84375 Z M 73.171875 220.84375 "
       id="path60" />
    <path
       style=" stroke:none;fill-rule:evenodd;fill:rgb(0%,0%,0%);fill-opacity:1;"
       d="M 73.171875 223.449219 L 73.34375 223.449219 L 73.371094 223.445313 L 73.371094 223.441406 L 73.402344 223.441406 L 73.429688 223.4375 L 73.429688 223.433594 L 73.484375 223.425781 L 73.484375 223.414063 L 73.515625 223.410156 L 73.515625 223.40625 L 73.542969 223.394531 L 73.542969 223.386719 L 73.570313 223.371094 L 73.570313 223.363281 L 73.601563 223.351563 L 73.601563 223.328125 L 73.628906 223.324219 L 73.628906 223.261719 L 73.65625 223.246094 L 73.65625 223.179688 C 73.65625 222.910156 73.371094 222.910156 73.171875 222.910156 L 64.707031 222.910156 C 64.507813 222.910156 64.25 222.910156 64.25 223.179688 C 64.25 223.449219 64.507813 223.449219 64.707031 223.449219 Z M 73.171875 223.449219 "
       id="path62" />
    <path
       style=" stroke:none;fill-rule:evenodd;fill:rgb(0%,0%,0%);fill-opacity:1;"
       d="M 80.816406 219.867188 L 82.863281 219.867188 L 82.863281 219.449219 L 80.816406 219.449219 L 80.816406 216.976563 L 80.476563 216.976563 C 80.449219 218.078125 80.023438 219.515625 78.65625 219.570313 L 78.65625 219.867188 L 79.851563 219.867188 L 79.851563 223.574219 C 79.851563 225.226563 81.160156 225.386719 81.667969 225.386719 C 82.691406 225.386719 83.089844 224.433594 83.089844 223.574219 L 83.089844 222.808594 L 82.722656 222.808594 L 82.722656 223.546875 C 82.722656 224.535156 82.292969 225.050781 81.785156 225.050781 C 80.816406 225.050781 80.816406 223.824219 80.816406 223.597656 Z M 80.816406 219.867188 "
       id="path64" />
    <path
       style=" stroke:none;fill-rule:evenodd;fill:rgb(0%,0%,0%);fill-opacity:1;"
       d="M 88.574219 224.21875 L 88.601563 224.269531 L 88.601563 224.371094 L 88.632813 224.414063 L 88.632813 224.46875 L 88.660156 224.519531 L 88.660156 224.566406 L 88.6875 224.617188 L 88.714844 224.660156 L 88.714844 224.710938 L 88.746094 224.757813 L 88.800781 224.84375 L 88.832031 224.886719 L 88.859375 224.929688 L 88.914063 224.96875 L 88.945313 225.007813 L 88.972656 225.039063 L 89.027344 225.078125 L 89.058594 225.113281 L 89.113281 225.140625 L 89.144531 225.171875 L 89.199219 225.199219 L 89.226563 225.222656 L 89.34375 225.261719 L 89.398438 225.277344 L 89.457031 225.289063 L 89.511719 225.304688 L 89.570313 225.3125 L 89.625 225.316406 L 89.683594 225.320313 C 89.996094 225.320313 90.847656 225.128906 90.847656 224.039063 L 90.847656 223.289063 L 90.476563 223.289063 L 90.476563 224.039063 C 90.476563 224.820313 90.136719 224.902344 89.996094 224.902344 C 89.511719 224.902344 89.457031 224.296875 89.457031 224.230469 L 89.457031 221.539063 C 89.457031 220.980469 89.457031 220.453125 88.945313 219.960938 C 88.402344 219.4375 87.695313 219.222656 87.011719 219.222656 C 85.847656 219.222656 84.878906 219.847656 84.878906 220.738281 C 84.878906 221.140625 85.164063 221.371094 85.535156 221.371094 C 85.902344 221.371094 86.1875 221.101563 86.1875 220.753906 C 86.1875 220.589844 86.101563 220.148438 85.449219 220.132813 C 85.847656 219.660156 86.527344 219.515625 86.984375 219.515625 C 87.664063 219.515625 88.488281 220.035156 88.488281 221.234375 L 88.488281 223.359375 C 88.488281 224.632813 87.464844 225.089844 86.8125 225.089844 C 86.132813 225.089844 85.5625 224.617188 85.5625 223.949219 C 85.5625 223.210938 86.160156 222.09375 88.488281 222.015625 L 88.488281 221.734375 C 87.75 221.769531 86.757813 221.816406 85.875 222.21875 C 84.824219 222.671875 84.453125 223.371094 84.453125 223.960938 C 84.453125 225.050781 85.847656 225.386719 86.726563 225.386719 C 87.664063 225.386719 88.320313 224.851563 88.574219 224.21875 Z M 88.574219 224.21875 "
       id="path66" />
    <path
       style=" stroke:none;fill-rule:evenodd;fill:rgb(0%,0%,0%);fill-opacity:1;"
       d="M 92.523438 220.617188 L 92.523438 224.21875 C 92.523438 224.820313 92.355469 224.820313 91.417969 224.820313 L 91.417969 225.238281 C 91.898438 225.226563 92.636719 225.195313 93.007813 225.195313 C 93.375 225.195313 94.117188 225.226563 94.597656 225.238281 L 94.597656 224.820313 C 93.660156 224.820313 93.492188 224.820313 93.492188 224.21875 L 93.492188 221.746094 C 93.492188 220.347656 94.484375 219.597656 95.394531 219.597656 C 96.304688 219.597656 96.445313 220.320313 96.445313 221.089844 L 96.445313 224.21875 C 96.445313 224.820313 96.304688 224.820313 95.335938 224.820313 L 95.335938 225.238281 C 95.847656 225.226563 96.558594 225.195313 96.957031 225.195313 C 97.328125 225.195313 98.035156 225.226563 98.519531 225.238281 L 98.519531 224.820313 C 97.808594 224.820313 97.441406 224.820313 97.441406 224.414063 L 97.441406 221.851563 C 97.441406 220.695313 97.441406 220.28125 96.984375 219.800781 C 96.785156 219.570313 96.332031 219.300781 95.507813 219.300781 C 94.457031 219.300781 93.804688 219.878906 93.40625 220.710938 L 93.40625 219.300781 L 91.417969 219.449219 L 91.417969 219.867188 C 92.410156 219.867188 92.523438 219.960938 92.523438 220.617188 Z M 92.523438 220.617188 "
       id="path68" />
    <path
       style=" stroke:none;fill-rule:evenodd;fill:rgb(0%,0%,0%);fill-opacity:1;"
       d="M 100.394531 224.21875 L 100.394531 224.414063 L 100.367188 224.460938 L 100.367188 224.566406 L 100.339844 224.597656 L 100.339844 224.621094 L 100.308594 224.652344 L 100.28125 224.675781 L 100.28125 224.695313 L 100.253906 224.710938 L 100.226563 224.730469 L 100.195313 224.746094 L 100.140625 224.769531 L 100.082031 224.78125 L 100.027344 224.796875 L 99.96875 224.800781 L 99.914063 224.808594 L 99.882813 224.808594 L 99.855469 224.8125 L 99.828125 224.8125 L 99.796875 224.816406 L 99.683594 224.816406 L 99.65625 224.820313 L 99.285156 224.820313 L 99.285156 225.238281 C 99.796875 225.226563 100.507813 225.195313 100.878906 225.195313 C 101.246094 225.195313 101.988281 225.226563 102.46875 225.238281 L 102.46875 224.820313 C 101.53125 224.820313 101.363281 224.820313 101.363281 224.21875 L 101.363281 221.746094 C 101.363281 220.347656 102.382813 219.597656 103.265625 219.597656 C 104.175781 219.597656 104.316406 220.320313 104.316406 221.089844 L 104.316406 224.21875 C 104.316406 224.820313 104.175781 224.820313 103.238281 224.820313 L 103.238281 225.238281 C 103.71875 225.226563 104.429688 225.195313 104.828125 225.195313 C 105.199219 225.195313 105.9375 225.226563 106.417969 225.238281 L 106.417969 224.820313 C 105.679688 224.820313 105.3125 224.820313 105.3125 224.414063 L 105.3125 221.851563 C 105.3125 220.695313 105.3125 220.28125 104.855469 219.800781 C 104.65625 219.570313 104.203125 219.300781 103.378906 219.300781 C 102.183594 219.300781 101.558594 220.109375 101.332031 220.617188 L 101.332031 215.910156 L 99.285156 216.0625 L 99.285156 216.480469 C 100.28125 216.480469 100.394531 216.574219 100.394531 217.234375 Z M 100.394531 224.21875 "
       id="path70" />
    <path
       style=" stroke:none;fill-rule:evenodd;fill:rgb(0%,0%,0%);fill-opacity:1;"
       d="M 111.363281 228.460938 L 111.363281 228.414063 L 111.335938 228.410156 L 111.335938 228.378906 L 111.304688 228.367188 L 111.304688 228.339844 L 111.277344 228.328125 L 111.277344 228.308594 L 111.25 228.304688 L 111.25 228.28125 L 111.222656 228.273438 L 111.222656 228.246094 L 111.191406 228.242188 L 111.191406 228.226563 L 111.164063 228.214844 L 111.164063 228.195313 L 111.136719 228.183594 L 111.136719 228.164063 C 109.347656 226.472656 108.890625 223.9375 108.890625 221.882813 C 108.890625 219.539063 109.429688 217.203125 111.191406 215.527344 C 111.363281 215.363281 111.363281 215.339844 111.363281 215.296875 C 111.363281 215.203125 111.304688 215.160156 111.222656 215.160156 C 111.078125 215.160156 109.800781 216.074219 108.976563 217.78125 C 108.238281 219.261719 108.066406 220.753906 108.066406 221.882813 C 108.066406 222.929688 108.238281 224.550781 109.003906 226.070313 C 109.855469 227.722656 111.078125 228.59375 111.222656 228.59375 C 111.304688 228.59375 111.363281 228.558594 111.363281 228.460938 Z M 111.363281 228.460938 "
       id="path72" />
    <path
       style=" stroke:none;fill-rule:evenodd;fill:rgb(0%,0%,0%);fill-opacity:1;"
       d="M 120.3125 217.59375 L 120.3125 217.503906 L 120.285156 217.410156 L 120.285156 217.316406 L 120.257813 217.226563 L 120.257813 217.140625 L 120.230469 217.054688 L 120.199219 216.96875 L 120.171875 216.882813 L 120.144531 216.800781 L 120.085938 216.722656 L 120.058594 216.644531 L 120 216.570313 L 119.945313 216.496094 L 119.886719 216.429688 L 119.832031 216.363281 L 119.773438 216.296875 L 119.71875 216.234375 L 119.632813 216.179688 L 119.574219 216.121094 L 119.488281 216.070313 L 119.40625 216.023438 L 119.347656 215.980469 L 119.175781 215.902344 L 119.0625 215.871094 L 118.980469 215.839844 L 118.894531 215.8125 L 118.78125 215.789063 L 118.695313 215.777344 L 118.582031 215.765625 L 118.496094 215.757813 L 118.382813 215.757813 C 117.558594 215.757813 117.160156 215.96875 116.675781 216.320313 C 115.882813 216.855469 115.113281 218.160156 114.859375 219.179688 L 112.585938 227.710938 C 112.585938 227.761719 112.640625 227.847656 112.753906 227.847656 C 112.871094 227.847656 112.925781 227.816406 112.925781 227.777344 L 113.921875 224.070313 C 114.175781 224.871094 114.800781 225.371094 115.851563 225.371094 L 115.796875 225.078125 C 114.714844 225.078125 114.175781 224.296875 114.175781 223.34375 C 114.175781 223.210938 114.175781 223.007813 114.261719 222.753906 L 115.171875 219.351563 C 115.484375 218.199219 116.507813 216.0625 118.183594 216.0625 C 119.007813 216.0625 119.519531 216.480469 119.519531 217.285156 C 119.519531 218.230469 118.980469 219.195313 118.238281 219.609375 C 117.871094 219.472656 117.585938 219.449219 117.160156 219.449219 C 116.847656 219.449219 116.050781 219.4375 116.050781 219.878906 C 116.050781 220.253906 116.789063 220.214844 117.046875 220.214844 L 117.074219 219.914063 C 116.875 219.914063 116.589844 219.933594 116.449219 219.867188 C 116.476563 219.734375 116.988281 219.757813 117.160156 219.757813 C 117.445313 219.757813 117.585938 219.757813 117.757813 219.824219 C 117.585938 219.890625 117.414063 219.914063 117.074219 219.914063 L 117.046875 220.214844 C 117.558594 220.214844 117.785156 220.199219 118.183594 220.035156 C 118.722656 220.523438 118.808594 220.941406 118.835938 221.554688 C 118.835938 222.335938 118.496094 223.34375 118.125 223.867188 C 117.558594 224.59375 116.621094 225.078125 115.796875 225.078125 L 115.851563 225.371094 C 116.875 225.371094 117.957031 224.902344 118.582031 224.3125 C 119.261719 223.691406 119.71875 222.828125 119.71875 221.839844 C 119.71875 220.871094 119.175781 220.175781 118.695313 219.839844 C 119.488281 219.394531 120.3125 218.558594 120.3125 217.59375 Z M 120.3125 217.59375 "
       id="path74" />
    <path
       style=" stroke:none;fill-rule:evenodd;fill:rgb(0%,0%,0%);fill-opacity:1;"
       d="M 125.628906 228.460938 L 125.597656 228.453125 L 125.597656 228.394531 L 125.570313 228.386719 L 125.570313 228.359375 L 125.542969 228.351563 L 125.542969 228.324219 L 125.515625 228.316406 L 125.515625 228.296875 L 125.484375 228.285156 L 125.484375 228.265625 L 125.457031 228.257813 L 125.457031 228.242188 L 125.429688 228.234375 L 125.429688 228.214844 L 125.402344 228.203125 L 125.402344 228.183594 L 125.371094 228.175781 L 125.371094 228.164063 C 123.609375 226.472656 123.15625 223.9375 123.15625 221.882813 C 123.15625 219.539063 123.695313 217.203125 125.429688 215.527344 C 125.628906 215.363281 125.628906 215.339844 125.628906 215.296875 C 125.628906 215.203125 125.570313 215.160156 125.484375 215.160156 C 125.34375 215.160156 124.066406 216.074219 123.210938 217.78125 C 122.503906 219.261719 122.332031 220.753906 122.332031 221.882813 C 122.332031 222.929688 122.503906 224.550781 123.269531 226.070313 C 124.121094 227.722656 125.34375 228.59375 125.484375 228.59375 C 125.570313 228.59375 125.628906 228.558594 125.628906 228.460938 Z M 125.628906 228.460938 "
       id="path76" />
    <path
       style=" stroke:none;fill-rule:evenodd;fill:rgb(0%,0%,0%);fill-opacity:1;"
       d="M 134.066406 217.046875 L 134.09375 217.003906 L 134.09375 216.929688 L 134.125 216.894531 L 134.125 216.828125 L 134.152344 216.796875 L 134.152344 216.769531 L 134.179688 216.742188 L 134.179688 216.71875 L 134.210938 216.695313 L 134.210938 216.671875 L 134.238281 216.652344 L 134.238281 216.628906 L 134.292969 216.597656 L 134.324219 216.578125 L 134.324219 216.566406 L 134.351563 216.554688 L 134.378906 216.535156 L 134.4375 216.53125 L 134.492188 216.515625 L 134.523438 216.507813 L 134.605469 216.496094 L 134.636719 216.496094 L 134.691406 216.488281 L 134.75 216.488281 L 134.777344 216.484375 L 134.804688 216.484375 L 134.835938 216.480469 L 135.003906 216.480469 C 135.230469 216.480469 135.375 216.480469 135.375 216.222656 C 135.375 216.105469 135.289063 216.0625 135.175781 216.0625 C 134.835938 216.0625 133.953125 216.105469 133.613281 216.105469 C 133.15625 216.105469 131.992188 216.0625 131.539063 216.0625 C 131.394531 216.0625 131.226563 216.0625 131.226563 216.328125 C 131.226563 216.480469 131.339844 216.480469 131.707031 216.480469 C 132.050781 216.480469 132.191406 216.480469 132.53125 216.503906 C 132.875 216.546875 132.957031 216.589844 132.957031 216.777344 C 132.957031 216.855469 132.929688 216.949219 132.902344 217.054688 L 131.28125 223.222656 C 130.941406 224.527344 129.976563 225.238281 129.238281 225.238281 C 128.894531 225.238281 128.128906 225.105469 127.902344 224.402344 C 127.957031 224.414063 128.042969 224.414063 128.070313 224.414063 C 128.609375 224.414063 128.980469 223.960938 128.980469 223.554688 C 128.980469 223.128906 128.609375 222.996094 128.355469 222.996094 C 128.128906 222.996094 127.417969 223.15625 127.417969 224.070313 C 127.417969 224.902344 128.183594 225.53125 129.292969 225.53125 C 130.601563 225.53125 132.050781 224.648438 132.417969 223.316406 Z M 134.066406 217.046875 "
       id="path78" />
    <path
       style=" stroke:none;fill-rule:evenodd;fill:rgb(0%,0%,0%);fill-opacity:1;"
       d="M 137.503906 224.121094 L 137.5625 224.050781 L 137.648438 223.980469 L 137.703125 223.910156 L 137.789063 223.851563 L 137.847656 223.785156 L 137.902344 223.726563 L 138.015625 223.613281 L 138.074219 223.558594 L 138.128906 223.503906 L 138.1875 223.453125 L 138.242188 223.40625 L 138.300781 223.355469 L 138.359375 223.3125 L 138.441406 223.222656 L 138.527344 223.136719 L 138.640625 223.054688 L 138.726563 222.972656 L 138.8125 222.898438 L 139.011719 222.746094 L 139.097656 222.664063 L 139.183594 222.59375 C 139.183594 222.578125 140.0625 221.867188 140.574219 221.382813 C 141.910156 220.132813 142.222656 219.488281 142.222656 219.4375 C 142.222656 219.300781 142.109375 219.300781 142.078125 219.300781 C 141.996094 219.300781 141.9375 219.328125 141.882813 219.449219 C 141.453125 220.09375 141.140625 220.308594 140.800781 220.308594 C 140.460938 220.308594 140.289063 220.109375 140.089844 219.878906 C 139.808594 219.570313 139.578125 219.300781 139.097656 219.300781 C 138.046875 219.300781 137.390625 220.550781 137.390625 220.828125 C 137.390625 220.898438 137.449219 220.980469 137.5625 220.980469 C 137.703125 220.980469 137.734375 220.910156 137.734375 220.828125 C 138.015625 220.214844 138.839844 220.199219 138.953125 220.199219 C 139.238281 220.199219 139.523438 220.296875 139.835938 220.402344 C 140.402344 220.605469 140.574219 220.605469 140.945313 220.605469 C 140.433594 221.179688 139.238281 222.152344 138.953125 222.363281 L 137.703125 223.488281 C 136.738281 224.390625 136.226563 225.15625 136.226563 225.253906 C 136.226563 225.386719 136.367188 225.386719 136.398438 225.386719 C 136.511719 225.386719 136.539063 225.359375 136.625 225.210938 C 136.964844 224.738281 137.363281 224.378906 137.816406 224.378906 C 138.160156 224.378906 138.300781 224.496094 138.640625 224.886719 C 138.898438 225.171875 139.152344 225.386719 139.550781 225.386719 C 140.972656 225.386719 141.765625 223.679688 141.765625 223.316406 C 141.765625 223.246094 141.710938 223.179688 141.625 223.179688 C 141.484375 223.179688 141.453125 223.261719 141.425781 223.359375 C 141.085938 224.230469 140.175781 224.484375 139.722656 224.484375 C 139.4375 224.484375 139.183594 224.402344 138.867188 224.3125 C 138.386719 224.136719 138.1875 224.085938 137.902344 224.085938 C 137.875 224.085938 137.648438 224.085938 137.503906 224.121094 Z M 137.503906 224.121094 "
       id="path80" />
    <path
       style=" stroke:none;fill-rule:evenodd;fill:rgb(0%,0%,0%);fill-opacity:1;"
       d="M 144.070313 224.445313 L 144.070313 224.488281 L 144.039063 224.503906 L 144.039063 224.570313 L 144.011719 224.613281 L 144.011719 224.699219 L 143.984375 224.742188 L 143.984375 224.824219 L 143.957031 224.84375 L 143.957031 224.972656 L 143.925781 224.988281 L 143.925781 225.023438 C 143.925781 225.261719 144.125 225.386719 144.351563 225.386719 C 144.523438 225.386719 144.78125 225.277344 144.863281 225.007813 C 144.894531 224.984375 145.0625 224.355469 145.148438 224.015625 L 145.460938 222.808594 C 145.546875 222.511719 145.601563 222.21875 145.6875 221.90625 C 145.746094 221.679688 145.859375 221.289063 145.886719 221.234375 C 146.085938 220.820313 146.824219 219.597656 148.1875 219.597656 C 148.8125 219.597656 148.957031 220.09375 148.957031 220.535156 C 148.957031 220.871094 148.84375 221.246094 148.730469 221.652344 L 148.332031 223.210938 L 148.046875 224.230469 C 147.992188 224.496094 147.875 224.953125 147.875 225.023438 C 147.875 225.261719 148.074219 225.386719 148.273438 225.386719 C 148.730469 225.386719 148.8125 225.050781 148.929688 224.617188 C 149.125 223.867188 149.636719 221.90625 149.78125 221.382813 C 149.808594 221.203125 150.546875 219.597656 152.109375 219.597656 C 152.707031 219.597656 152.878906 220.050781 152.878906 220.535156 C 152.878906 221.300781 152.28125 222.828125 151.996094 223.546875 C 151.855469 223.867188 151.796875 224.015625 151.796875 224.285156 C 151.796875 224.910156 152.308594 225.386719 152.964844 225.386719 C 154.296875 225.386719 154.808594 223.425781 154.808594 223.316406 C 154.808594 223.179688 154.695313 223.179688 154.667969 223.179688 C 154.496094 223.179688 154.496094 223.222656 154.441406 223.425781 C 154.214844 224.136719 153.785156 225.089844 152.992188 225.089844 C 152.765625 225.089844 152.648438 224.953125 152.648438 224.648438 C 152.648438 224.3125 152.792969 223.988281 152.90625 223.691406 C 153.191406 222.996094 153.785156 221.503906 153.785156 220.738281 C 153.785156 219.867188 153.21875 219.300781 152.140625 219.300781 C 151.085938 219.300781 150.378906 219.890625 149.835938 220.605469 C 149.835938 220.425781 149.78125 219.972656 149.382813 219.652344 C 149.042969 219.367188 148.585938 219.300781 148.21875 219.300781 C 146.9375 219.300781 146.257813 220.160156 146.03125 220.46875 C 145.945313 219.703125 145.347656 219.300781 144.722656 219.300781 C 144.070313 219.300781 143.785156 219.824219 143.671875 220.066406 C 143.414063 220.535156 143.214844 221.328125 143.214844 221.371094 C 143.214844 221.503906 143.359375 221.503906 143.386719 221.503906 C 143.527344 221.503906 143.558594 221.488281 143.644531 221.195313 C 143.871094 220.242188 144.152344 219.597656 144.664063 219.597656 C 144.894531 219.597656 145.121094 219.703125 145.121094 220.214844 C 145.121094 220.492188 145.0625 220.648438 144.894531 221.34375 Z M 144.070313 224.445313 "
       id="path82" />
    <path
       style=" stroke:none;fill-rule:evenodd;fill:rgb(0%,0%,0%);fill-opacity:1;"
       d="M 164.214844 222.152344 L 168.164063 222.152344 C 168.363281 222.152344 168.648438 222.152344 168.648438 221.882813 C 168.648438 221.613281 168.363281 221.613281 168.164063 221.613281 L 164.214844 221.613281 L 164.214844 217.847656 C 164.214844 217.660156 164.214844 217.40625 163.929688 217.40625 C 163.648438 217.40625 163.648438 217.660156 163.648438 217.847656 L 163.648438 221.613281 L 159.699219 221.613281 C 159.5 221.613281 159.214844 221.613281 159.214844 221.882813 C 159.214844 222.152344 159.5 222.152344 159.699219 222.152344 L 163.648438 222.152344 L 163.648438 225.90625 C 163.648438 226.097656 163.648438 226.355469 163.929688 226.355469 C 164.214844 226.355469 164.214844 226.097656 164.214844 225.90625 Z M 164.214844 222.152344 "
       id="path84" />
    <path
       style=" stroke:none;fill-rule:evenodd;fill:rgb(0%,0%,0%);fill-opacity:1;"
       d="M 183.394531 217.097656 L 183.394531 217.054688 L 183.421875 217.011719 L 183.421875 216.933594 L 183.453125 216.898438 L 183.453125 216.863281 L 183.480469 216.828125 L 183.480469 216.796875 L 183.507813 216.765625 L 183.507813 216.742188 L 183.539063 216.714844 L 183.539063 216.6875 L 183.566406 216.664063 L 183.59375 216.644531 L 183.621094 216.628906 L 183.652344 216.609375 L 183.679688 216.59375 L 183.707031 216.574219 L 183.738281 216.5625 L 183.765625 216.550781 L 183.820313 216.535156 L 183.851563 216.53125 L 183.90625 216.515625 L 183.933594 216.511719 L 183.964844 216.507813 L 184.019531 216.496094 L 184.105469 216.496094 L 184.132813 216.492188 L 184.164063 216.488281 L 184.21875 216.488281 L 184.277344 216.484375 L 184.304688 216.484375 L 184.363281 216.480469 L 184.589844 216.480469 C 184.929688 216.480469 185.042969 216.480469 185.042969 216.210938 C 185.042969 216.0625 184.902344 216.0625 184.84375 216.0625 C 184.476563 216.0625 183.453125 216.105469 183.054688 216.105469 C 182.628906 216.105469 181.632813 216.0625 181.207031 216.0625 C 181.09375 216.0625 180.953125 216.0625 180.953125 216.328125 C 180.953125 216.480469 181.066406 216.480469 181.347656 216.480469 C 181.378906 216.480469 181.632813 216.480469 181.890625 216.503906 C 182.144531 216.535156 182.257813 216.546875 182.257813 216.71875 C 182.257813 216.777344 182.257813 216.804688 182.203125 216.976563 L 181.347656 220.253906 L 177.03125 220.253906 L 177.882813 217.097656 C 177.996094 216.613281 178.054688 216.480469 179.078125 216.480469 C 179.445313 216.480469 179.558594 216.480469 179.558594 216.210938 C 179.558594 216.0625 179.390625 216.0625 179.359375 216.0625 C 178.960938 216.0625 177.941406 216.105469 177.542969 216.105469 C 177.117188 216.105469 176.121094 216.0625 175.722656 216.0625 C 175.609375 216.0625 175.4375 216.0625 175.4375 216.328125 C 175.4375 216.480469 175.582031 216.480469 175.835938 216.480469 C 175.867188 216.480469 176.121094 216.480469 176.375 216.503906 C 176.632813 216.535156 176.773438 216.546875 176.773438 216.71875 C 176.773438 216.777344 176.746094 216.816406 176.6875 216.976563 L 174.8125 224.191406 C 174.671875 224.714844 174.644531 224.820313 173.507813 224.820313 C 173.25 224.820313 173.136719 224.820313 173.136719 225.089844 C 173.136719 225.238281 173.308594 225.238281 173.335938 225.238281 C 173.734375 225.238281 174.730469 225.195313 175.125 225.195313 C 175.4375 225.195313 175.75 225.210938 176.035156 225.210938 C 176.347656 225.210938 176.660156 225.238281 176.945313 225.238281 C 177.085938 225.238281 177.230469 225.238281 177.230469 224.96875 C 177.230469 224.820313 177.117188 224.820313 176.832031 224.820313 C 176.320313 224.820313 175.921875 224.820313 175.921875 224.578125 C 175.921875 224.496094 175.949219 224.433594 175.980469 224.355469 L 176.945313 220.671875 L 181.234375 220.671875 C 180.640625 222.902344 180.328125 224.175781 180.269531 224.378906 C 180.128906 224.808594 179.871094 224.820313 178.992188 224.820313 C 178.765625 224.820313 178.648438 224.820313 178.648438 225.089844 C 178.648438 225.238281 178.820313 225.238281 178.847656 225.238281 C 179.246094 225.238281 180.242188 225.195313 180.640625 225.195313 C 180.921875 225.195313 181.234375 225.210938 181.546875 225.210938 C 181.859375 225.210938 182.171875 225.238281 182.457031 225.238281 C 182.570313 225.238281 182.742188 225.238281 182.742188 224.96875 C 182.742188 224.820313 182.628906 224.820313 182.34375 224.820313 C 181.832031 224.820313 181.433594 224.820313 181.433594 224.578125 C 181.433594 224.496094 181.464844 224.433594 181.464844 224.355469 Z M 183.394531 217.097656 "
       id="path86" />
    <path
       style=" stroke:none;fill-rule:evenodd;fill:rgb(0%,0%,0%);fill-opacity:1;"
       d="M 189.589844 221.882813 L 189.589844 221.234375 L 189.5625 220.996094 L 189.53125 220.746094 L 189.503906 220.492188 L 189.476563 220.230469 L 189.417969 219.960938 L 189.363281 219.683594 L 189.304688 219.402344 L 189.21875 219.121094 L 189.136719 218.835938 L 189.050781 218.550781 L 188.9375 218.261719 L 188.878906 218.117188 L 188.792969 217.976563 L 188.738281 217.828125 L 188.652344 217.6875 C 187.828125 216.035156 186.605469 215.160156 186.464844 215.160156 C 186.378906 215.160156 186.320313 215.21875 186.320313 215.296875 C 186.320313 215.339844 186.320313 215.363281 186.578125 215.609375 C 187.96875 216.933594 188.765625 219.070313 188.765625 221.882813 C 188.765625 224.175781 188.253906 226.535156 186.492188 228.234375 C 186.320313 228.394531 186.320313 228.421875 186.320313 228.460938 C 186.320313 228.539063 186.378906 228.59375 186.464844 228.59375 C 186.605469 228.59375 187.855469 227.679688 188.707031 225.976563 C 189.417969 224.496094 189.589844 223.007813 189.589844 221.882813 Z M 189.589844 221.882813 "
       id="path88" />
    <path
       style=" stroke:none;fill-rule:evenodd;fill:rgb(0%,0%,0%);fill-opacity:1;"
       d="M 195.074219 221.882813 L 195.074219 221.234375 L 195.046875 220.996094 L 195.015625 220.746094 L 194.988281 220.492188 L 194.960938 220.230469 L 194.902344 219.960938 L 194.847656 219.683594 L 194.789063 219.402344 L 194.703125 219.121094 L 194.621094 218.835938 L 194.535156 218.550781 L 194.421875 218.261719 L 194.363281 218.117188 L 194.277344 217.976563 L 194.222656 217.828125 L 194.164063 217.6875 C 193.3125 216.035156 192.089844 215.160156 191.949219 215.160156 C 191.863281 215.160156 191.804688 215.21875 191.804688 215.296875 C 191.804688 215.339844 191.804688 215.363281 192.0625 215.609375 C 193.453125 216.933594 194.277344 219.070313 194.277344 221.882813 C 194.277344 224.175781 193.738281 226.535156 191.976563 228.234375 C 191.804688 228.394531 191.804688 228.421875 191.804688 228.460938 C 191.804688 228.539063 191.863281 228.59375 191.949219 228.59375 C 192.089844 228.59375 193.367188 227.679688 194.191406 225.976563 C 194.902344 224.496094 195.074219 223.007813 195.074219 221.882813 Z M 195.074219 221.882813 "
       id="path90" />
    <path
       style=" stroke:none;fill-rule:evenodd;fill:rgb(0%,0%,0%);fill-opacity:1;"
       d="M 193.183594 37.679688 L 193.183594 37.660156 L 193.210938 37.644531 L 193.210938 37.550781 L 193.238281 37.523438 L 193.238281 37.472656 L 193.265625 37.445313 L 193.265625 37.386719 L 193.296875 37.367188 L 193.296875 37.328125 L 193.324219 37.316406 L 193.324219 37.285156 L 193.351563 37.277344 L 193.351563 37.253906 L 193.378906 37.246094 L 193.378906 37.230469 L 193.410156 37.222656 L 193.410156 37.214844 L 193.4375 37.210938 L 193.4375 37.203125 L 193.464844 37.199219 L 193.464844 37.195313 L 193.496094 37.191406 L 193.496094 37.183594 L 193.523438 37.183594 C 193.636719 37.152344 194.121094 37.152344 194.402344 37.152344 C 195.824219 37.152344 196.476563 37.203125 196.476563 38.253906 C 196.476563 38.453125 196.421875 38.980469 196.363281 39.328125 C 196.335938 39.382813 196.308594 39.546875 196.308594 39.585938 C 196.308594 39.660156 196.363281 39.761719 196.476563 39.761719 C 196.648438 39.761719 196.675781 39.652344 196.707031 39.449219 L 197.074219 37.117188 C 197.101563 37.0625 197.101563 36.925781 197.101563 36.882813 C 197.101563 36.734375 196.960938 36.734375 196.734375 36.734375 L 188.863281 36.734375 C 188.523438 36.734375 188.523438 36.753906 188.40625 37.003906 L 187.554688 39.371094 C 187.554688 39.398438 187.46875 39.585938 187.46875 39.613281 C 187.46875 39.691406 187.554688 39.761719 187.640625 39.761719 C 187.78125 39.761719 187.8125 39.691406 187.898438 39.480469 C 188.664063 37.398438 189.03125 37.152344 191.105469 37.152344 L 191.675781 37.152344 C 192.074219 37.152344 192.074219 37.203125 192.074219 37.3125 C 192.074219 37.398438 192.015625 37.558594 192.015625 37.59375 L 190.113281 44.769531 C 189.972656 45.265625 189.941406 45.410156 188.4375 45.410156 C 187.925781 45.410156 187.839844 45.410156 187.839844 45.671875 C 187.839844 45.828125 187.980469 45.828125 188.066406 45.828125 C 188.464844 45.828125 188.863281 45.804688 189.230469 45.804688 C 189.628906 45.804688 190.054688 45.785156 190.425781 45.785156 C 190.824219 45.785156 191.222656 45.804688 191.617188 45.804688 C 192.015625 45.804688 192.441406 45.828125 192.839844 45.828125 C 192.984375 45.828125 193.152344 45.828125 193.152344 45.5625 C 193.152344 45.410156 193.039063 45.410156 192.671875 45.410156 C 192.328125 45.410156 192.128906 45.410156 191.761719 45.390625 C 191.363281 45.347656 191.25 45.308594 191.25 45.09375 C 191.25 45.078125 191.25 45.007813 191.304688 44.8125 Z M 193.183594 37.679688 "
       id="path92" />
    <path
       style=" stroke:none;fill-rule:evenodd;fill:rgb(0%,0%,0%);fill-opacity:1;"
       d="M 210.855469 39.144531 L 210.855469 39.132813 L 210.882813 39.121094 L 210.882813 39.117188 L 210.914063 39.113281 L 210.914063 39.105469 L 210.941406 39.097656 L 210.941406 39.089844 L 210.96875 39.078125 L 210.96875 39.074219 L 210.996094 39.066406 L 210.996094 39.050781 L 211.027344 39.039063 L 211.027344 39.027344 L 211.054688 39.019531 L 211.054688 38.992188 L 211.082031 38.984375 L 211.082031 38.941406 L 211.113281 38.933594 L 211.113281 38.847656 C 211.113281 38.699219 210.996094 38.578125 210.828125 38.578125 C 210.800781 38.578125 210.769531 38.578125 210.570313 38.671875 L 202.730469 42.179688 C 202.585938 42.246094 202.472656 42.3125 202.472656 42.476563 C 202.472656 42.632813 202.585938 42.703125 202.730469 42.769531 L 210.570313 46.273438 C 210.769531 46.371094 210.800781 46.371094 210.828125 46.371094 C 210.996094 46.371094 211.113281 46.246094 211.113281 46.101563 C 211.113281 45.953125 211.027344 45.886719 210.855469 45.804688 L 203.410156 42.476563 Z M 210.855469 39.144531 "
       id="path94" />
    <path
       style=" stroke:none;fill-rule:evenodd;fill:rgb(0%,0%,0%);fill-opacity:1;"
       d="M 222.277344 37.679688 L 222.277344 37.613281 L 222.308594 37.578125 L 222.308594 37.523438 L 222.335938 37.496094 L 222.335938 37.425781 L 222.363281 37.402344 L 222.363281 37.367188 L 222.390625 37.351563 L 222.390625 37.316406 L 222.421875 37.304688 L 222.421875 37.277344 L 222.449219 37.265625 L 222.449219 37.246094 L 222.476563 37.238281 L 222.476563 37.222656 L 222.507813 37.214844 L 222.507813 37.210938 L 222.535156 37.203125 L 222.535156 37.199219 L 222.5625 37.195313 L 222.5625 37.191406 L 222.589844 37.183594 C 222.734375 37.152344 223.1875 37.152344 223.5 37.152344 C 224.921875 37.152344 225.546875 37.203125 225.546875 38.253906 C 225.546875 38.453125 225.488281 38.980469 225.433594 39.328125 C 225.433594 39.382813 225.402344 39.546875 225.402344 39.585938 C 225.402344 39.660156 225.433594 39.761719 225.574219 39.761719 C 225.71875 39.761719 225.746094 39.652344 225.773438 39.449219 L 226.171875 37.117188 C 226.171875 37.0625 226.199219 36.925781 226.199219 36.882813 C 226.199219 36.734375 226.058594 36.734375 225.800781 36.734375 L 217.960938 36.734375 C 217.617188 36.734375 217.589844 36.753906 217.503906 37.003906 L 216.652344 39.371094 C 216.625 39.398438 216.566406 39.585938 216.566406 39.613281 C 216.566406 39.691406 216.625 39.761719 216.738281 39.761719 C 216.878906 39.761719 216.878906 39.691406 216.964844 39.480469 C 217.730469 37.398438 218.101563 37.152344 220.203125 37.152344 L 220.746094 37.152344 C 221.140625 37.152344 221.140625 37.203125 221.140625 37.3125 C 221.140625 37.398438 221.113281 37.558594 221.085938 37.59375 L 219.210938 44.769531 C 219.066406 45.265625 219.011719 45.410156 217.503906 45.410156 C 216.992188 45.410156 216.90625 45.410156 216.90625 45.671875 C 216.90625 45.828125 217.078125 45.828125 217.164063 45.828125 C 217.535156 45.828125 217.929688 45.804688 218.328125 45.804688 C 218.726563 45.804688 219.125 45.785156 219.523438 45.785156 C 219.921875 45.785156 220.316406 45.804688 220.6875 45.804688 C 221.113281 45.804688 221.539063 45.828125 221.9375 45.828125 C 222.078125 45.828125 222.25 45.828125 222.25 45.5625 C 222.25 45.410156 222.136719 45.410156 221.765625 45.410156 C 221.398438 45.410156 221.226563 45.410156 220.859375 45.390625 C 220.433594 45.347656 220.347656 45.308594 220.347656 45.09375 C 220.347656 45.078125 220.347656 45.007813 220.375 44.8125 Z M 222.277344 37.679688 "
       id="path96" />
    <path
       style=" stroke:none;fill-rule:evenodd;fill:rgb(0%,0%,0%);fill-opacity:1;"
       d="M 228.84375 44.273438 L 228.8125 44.277344 L 228.757813 44.289063 L 228.730469 44.304688 L 228.699219 44.3125 L 228.644531 44.335938 L 228.613281 44.347656 L 228.585938 44.363281 L 228.585938 44.378906 L 228.558594 44.390625 L 228.53125 44.410156 L 228.5 44.425781 L 228.5 44.445313 L 228.472656 44.460938 L 228.472656 44.476563 L 228.445313 44.496094 L 228.445313 44.515625 L 228.417969 44.535156 L 228.417969 44.558594 L 228.386719 44.574219 L 228.386719 44.617188 L 228.359375 44.636719 L 228.359375 44.78125 L 228.332031 44.800781 C 228.332031 45.054688 228.558594 45.144531 228.730469 45.144531 C 228.957031 45.144531 229.296875 44.996094 229.296875 44.546875 C 229.296875 43.90625 228.53125 43.730469 227.988281 43.730469 C 226.511719 43.730469 225.121094 45.023438 225.121094 46.328125 C 225.121094 47.136719 225.71875 47.960938 226.96875 47.960938 C 228.644531 47.960938 229.410156 47.035156 229.410156 46.902344 C 229.410156 46.847656 229.324219 46.742188 229.242188 46.742188 C 229.183594 46.742188 229.15625 46.761719 229.097656 46.835938 C 228.300781 47.703125 227.164063 47.703125 226.96875 47.703125 C 226.257813 47.703125 225.945313 47.242188 225.945313 46.65625 C 225.945313 46.386719 226.085938 45.363281 226.597656 44.714844 C 226.96875 44.253906 227.480469 43.992188 227.988281 43.992188 C 228.132813 43.992188 228.613281 44.007813 228.84375 44.273438 Z M 228.84375 44.273438 "
       id="path98" />
    <path
       style=" stroke:none;fill-rule:evenodd;fill:rgb(0%,0%,0%);fill-opacity:1;"
       d="M 202.234375 88.015625 L 202.234375 87.996094 L 202.265625 87.984375 L 202.265625 87.890625 L 202.292969 87.859375 L 202.292969 87.808594 L 202.320313 87.785156 L 202.320313 87.722656 L 202.347656 87.703125 L 202.347656 87.671875 L 202.378906 87.65625 L 202.378906 87.628906 L 202.40625 87.617188 L 202.40625 87.59375 L 202.433594 87.585938 L 202.433594 87.570313 L 202.464844 87.5625 L 202.464844 87.554688 L 202.492188 87.546875 L 202.492188 87.539063 L 202.519531 87.535156 L 202.519531 87.53125 L 202.546875 87.527344 L 202.546875 87.523438 L 202.578125 87.519531 C 202.691406 87.492188 203.171875 87.492188 203.457031 87.492188 C 204.878906 87.492188 205.53125 87.546875 205.53125 88.59375 C 205.53125 88.789063 205.476563 89.320313 205.417969 89.664063 C 205.390625 89.722656 205.359375 89.886719 205.359375 89.921875 C 205.359375 89.996094 205.417969 90.097656 205.53125 90.097656 C 205.703125 90.097656 205.730469 89.992188 205.757813 89.785156 L 206.128906 87.453125 C 206.15625 87.398438 206.15625 87.265625 206.15625 87.222656 C 206.15625 87.074219 206.015625 87.074219 205.789063 87.074219 L 197.917969 87.074219 C 197.574219 87.074219 197.574219 87.09375 197.460938 87.34375 L 196.609375 89.703125 C 196.609375 89.738281 196.523438 89.921875 196.523438 89.953125 C 196.523438 90.03125 196.609375 90.097656 196.695313 90.097656 C 196.835938 90.097656 196.863281 90.03125 196.949219 89.816406 C 197.71875 87.738281 198.085938 87.492188 200.160156 87.492188 L 200.730469 87.492188 C 201.128906 87.492188 201.128906 87.546875 201.128906 87.652344 C 201.128906 87.738281 201.070313 87.894531 201.070313 87.933594 L 199.167969 95.109375 C 199.023438 95.605469 198.996094 95.753906 197.492188 95.753906 C 196.980469 95.753906 196.894531 95.753906 196.894531 96.007813 C 196.894531 96.171875 197.035156 96.171875 197.121094 96.171875 C 197.519531 96.171875 197.917969 96.144531 198.285156 96.144531 C 198.683594 96.144531 199.109375 96.128906 199.480469 96.128906 C 199.878906 96.128906 200.273438 96.144531 200.671875 96.144531 C 201.070313 96.144531 201.496094 96.171875 201.894531 96.171875 C 202.035156 96.171875 202.207031 96.171875 202.207031 95.902344 C 202.207031 95.753906 202.09375 95.753906 201.722656 95.753906 C 201.382813 95.753906 201.183594 95.753906 200.816406 95.726563 C 200.417969 95.683594 200.304688 95.648438 200.304688 95.429688 C 200.304688 95.410156 200.304688 95.347656 200.359375 95.152344 Z M 202.234375 88.015625 "
       id="path100" />
    <path
       style=" stroke:none;fill-rule:evenodd;fill:rgb(0%,0%,0%);fill-opacity:1;"
       d="M 219.910156 93.109375 L 219.9375 93.09375 L 219.9375 93.089844 L 219.964844 93.078125 L 219.964844 93.074219 L 219.996094 93.070313 L 219.996094 93.054688 L 220.023438 93.046875 L 220.023438 93.035156 L 220.050781 93.035156 L 220.050781 93.019531 L 220.082031 93.011719 L 220.082031 92.996094 L 220.109375 92.984375 L 220.109375 92.96875 L 220.136719 92.960938 L 220.136719 92.914063 L 220.164063 92.90625 L 220.164063 92.8125 C 220.164063 92.652344 220.050781 92.585938 219.910156 92.515625 L 212.066406 89.007813 C 211.867188 88.910156 211.839844 88.910156 211.8125 88.910156 C 211.640625 88.910156 211.527344 89.035156 211.527344 89.183594 C 211.527344 89.308594 211.585938 89.386719 211.78125 89.480469 L 219.226563 92.8125 L 211.78125 96.144531 C 211.585938 96.238281 211.527344 96.320313 211.527344 96.441406 C 211.527344 96.589844 211.640625 96.710938 211.8125 96.710938 C 211.839844 96.710938 211.867188 96.710938 212.066406 96.613281 Z M 219.910156 93.109375 "
       id="path102" />
    <path
       style=" stroke:none;fill-rule:evenodd;fill:rgb(0%,0%,0%);fill-opacity:1;"
       d="M 231.332031 88.015625 L 231.332031 87.949219 L 231.359375 87.921875 L 231.359375 87.859375 L 231.390625 87.828125 L 231.390625 87.765625 L 231.417969 87.742188 L 231.417969 87.703125 L 231.445313 87.6875 L 231.445313 87.65625 L 231.476563 87.640625 L 231.476563 87.617188 L 231.503906 87.605469 L 231.503906 87.585938 L 231.53125 87.578125 L 231.53125 87.5625 L 231.558594 87.554688 L 231.558594 87.546875 L 231.589844 87.539063 L 231.589844 87.535156 L 231.617188 87.53125 L 231.617188 87.527344 L 231.644531 87.523438 L 231.644531 87.519531 C 231.789063 87.492188 232.242188 87.492188 232.554688 87.492188 C 233.976563 87.492188 234.601563 87.546875 234.601563 88.59375 C 234.601563 88.789063 234.542969 89.320313 234.488281 89.664063 C 234.488281 89.722656 234.457031 89.886719 234.457031 89.921875 C 234.457031 89.996094 234.488281 90.097656 234.628906 90.097656 C 234.769531 90.097656 234.800781 89.992188 234.828125 89.785156 L 235.226563 87.453125 C 235.226563 87.398438 235.253906 87.265625 235.253906 87.222656 C 235.253906 87.074219 235.113281 87.074219 234.855469 87.074219 L 227.011719 87.074219 C 226.671875 87.074219 226.644531 87.09375 226.558594 87.34375 L 225.707031 89.703125 C 225.679688 89.738281 225.621094 89.921875 225.621094 89.953125 C 225.621094 90.03125 225.679688 90.097656 225.792969 90.097656 C 225.933594 90.097656 225.933594 90.03125 226.019531 89.816406 C 226.785156 87.738281 227.15625 87.492188 229.257813 87.492188 L 229.796875 87.492188 C 230.195313 87.492188 230.195313 87.546875 230.195313 87.652344 C 230.195313 87.738281 230.167969 87.894531 230.140625 87.933594 L 228.265625 95.109375 C 228.121094 95.605469 228.066406 95.753906 226.558594 95.753906 C 226.046875 95.753906 225.960938 95.753906 225.960938 96.007813 C 225.960938 96.171875 226.132813 96.171875 226.21875 96.171875 C 226.585938 96.171875 226.984375 96.144531 227.382813 96.144531 C 227.78125 96.144531 228.179688 96.128906 228.578125 96.128906 C 228.972656 96.128906 229.371094 96.144531 229.742188 96.144531 C 230.167969 96.144531 230.59375 96.171875 230.992188 96.171875 C 231.132813 96.171875 231.304688 96.171875 231.304688 95.902344 C 231.304688 95.753906 231.191406 95.753906 230.820313 95.753906 C 230.453125 95.753906 230.28125 95.753906 229.910156 95.726563 C 229.484375 95.683594 229.398438 95.648438 229.398438 95.429688 C 229.398438 95.410156 229.398438 95.347656 229.429688 95.152344 Z M 231.332031 88.015625 "
       id="path104" />
    <path
       style=" stroke:none;fill-rule:evenodd;fill:rgb(0%,0%,0%);fill-opacity:1;"
       d="M 237.894531 94.613281 L 237.839844 94.621094 L 237.8125 94.628906 L 237.78125 94.640625 L 237.699219 94.675781 L 237.667969 94.6875 L 237.640625 94.699219 L 237.640625 94.71875 L 237.613281 94.730469 L 237.582031 94.746094 L 237.554688 94.761719 L 237.554688 94.78125 L 237.527344 94.796875 L 237.527344 94.816406 L 237.5 94.835938 L 237.5 94.855469 L 237.46875 94.871094 L 237.46875 94.894531 L 237.441406 94.910156 L 237.441406 94.953125 L 237.414063 94.976563 L 237.414063 95.117188 L 237.386719 95.136719 C 237.386719 95.390625 237.613281 95.484375 237.78125 95.484375 C 238.011719 95.484375 238.351563 95.335938 238.351563 94.882813 C 238.351563 94.246094 237.582031 94.066406 237.042969 94.066406 C 235.566406 94.066406 234.175781 95.363281 234.175781 96.664063 C 234.175781 97.476563 234.769531 98.300781 236.019531 98.300781 C 237.699219 98.300781 238.464844 97.371094 238.464844 97.242188 C 238.464844 97.183594 238.378906 97.078125 238.292969 97.078125 C 238.238281 97.078125 238.210938 97.101563 238.152344 97.175781 C 237.355469 98.039063 236.21875 98.039063 236.019531 98.039063 C 235.3125 98.039063 235 97.578125 235 96.996094 C 235 96.726563 235.140625 95.699219 235.652344 95.054688 C 236.019531 94.589844 236.53125 94.328125 237.042969 94.328125 C 237.1875 94.328125 237.667969 94.34375 237.894531 94.613281 Z M 237.894531 94.613281 "
       id="path106" />
    <path
       style="fill:none;stroke-width:0.802204;stroke-linecap:butt;stroke-linejoin:miter;stroke:rgb(0%,0%,0%);stroke-opacity:1;stroke-miterlimit:4;"
       d="M 142.823312 493.841427 C 197.952219 473.689084 229.628 439.716427 296.237375 442.700802 "
       transform="matrix(1,0,0,1,-101.128,-351.493771)"
       id="path108" />
  </g>
</svg>
