<?xml version="1.0" encoding="UTF-8" standalone="no"?>
<svg
   xmlns:dc="http://purl.org/dc/elements/1.1/"
   xmlns:cc="http://creativecommons.org/ns#"
   xmlns:rdf="http://www.w3.org/1999/02/22-rdf-syntax-ns#"
   xmlns:svg="http://www.w3.org/2000/svg"
   xmlns="http://www.w3.org/2000/svg"
   xmlns:sodipodi="http://sodipodi.sourceforge.net/DTD/sodipodi-0.dtd"
   xmlns:inkscape="http://www.inkscape.org/namespaces/inkscape"
   width="139.9926pt"
   height="99.797pt"
   viewBox="0 0 139.9926 99.797"
   version="1.2"
   id="svg95"
   sodipodi:docname="im1.svg"
   inkscape:version="0.92.4 (5da689c313, 2019-01-14)">
  <metadata
     id="metadata99">
    <rdf:RDF>
      <cc:Work
         rdf:about="">
        <dc:format>image/svg+xml</dc:format>
        <dc:type
           rdf:resource="http://purl.org/dc/dcmitype/StillImage" />
        <dc:title></dc:title>
      </cc:Work>
    </rdf:RDF>
  </metadata>
  <sodipodi:namedview
     pagecolor="#ffffff"
     bordercolor="#666666"
     borderopacity="1"
     objecttolerance="10"
     gridtolerance="10"
     guidetolerance="10"
     inkscape:pageopacity="0"
     inkscape:pageshadow="2"
     inkscape:window-width="727"
     inkscape:window-height="480"
     id="namedview97"
     showgrid="false"
     inkscape:zoom="1.7736005"
     inkscape:cx="93.3284"
     inkscape:cy="66.531331"
     inkscape:window-x="2639"
     inkscape:window-y="205"
     inkscape:window-maximized="0"
     inkscape:current-layer="svg95" />
  <defs
     id="defs8">
    <clipPath
       id="clip1">
      <path
         d="M 10 5 L 139.992188 5 L 139.992188 48 L 10 48 Z M 10 5 "
         id="path2" />
    </clipPath>
    <clipPath
       id="clip2">
      <path
         d="M 10 5 L 139.992188 5 L 139.992188 80 L 10 80 Z M 10 5 "
         id="path5" />
    </clipPath>
  </defs>
  <g
     id="surface52">
    <g
       clip-path="url(#clip1)"
       clip-rule="nonzero"
       id="g12">
      <path
         style="fill:none;stroke-width:0.668161;stroke-linecap:butt;stroke-linejoin:miter;stroke:rgb(0%,0%,100%);stroke-opacity:1;stroke-miterlimit:10;"
         d="M 60.0369 -70.449159 L 60.259556 -72.230409 L 60.704869 -74.902284 L 60.927525 -76.015565 L 61.146275 -76.90619 L 61.372837 -78.019472 L 61.595494 -78.68744 L 61.814244 -79.581972 L 62.040806 -80.24994 L 62.263462 -81.140565 L 62.482212 -81.808534 L 62.708775 -82.253847 L 62.931431 -82.921815 L 63.150181 -83.367128 L 63.376744 -84.035097 L 64.486119 -86.261659 L 64.716588 -86.706972 L 64.939244 -86.929628 L 65.384556 -87.820253 L 65.603306 -88.042909 L 65.829869 -88.488222 L 66.497838 -89.15619 L 66.720494 -89.601503 L 67.607213 -90.492128 L 67.833775 -90.492128 L 68.94315 -91.605409 L 69.169713 -91.605409 L 69.611119 -92.050722 L 69.837681 -92.050722 L 70.060338 -92.273378 L 70.279088 -92.273378 L 70.50565 -92.496034 L 70.728306 -92.496034 L 70.947056 -92.722597 L 71.396275 -92.722597 L 71.618931 -92.945253 L 72.064244 -92.945253 L 72.2869 -93.167909 L 72.954869 -93.167909 L 73.177525 -93.390565 L 74.290806 -93.390565 L 74.513463 -93.613222 L 77.853306 -93.613222 L 78.072056 -93.390565 L 79.415806 -93.390565 L 79.638463 -93.167909 L 80.751744 -93.167909 L 80.9744 -92.945253 L 81.642369 -92.945253 L 81.861119 -92.722597 L 82.75565 -92.722597 L 82.978306 -92.496034 L 83.423619 -92.496034 L 83.646275 -92.273378 L 84.314244 -92.273378 L 84.5369 -92.050722 L 85.204869 -92.050722 L 85.427525 -91.828065 L 85.872838 -91.828065 L 86.095494 -91.605409 L 86.540806 -91.605409 L 86.763463 -91.382753 L 87.208775 -91.382753 L 87.431431 -91.160097 L 87.876744 -91.160097 L 88.0994 -90.93744 L 88.767369 -90.93744 L 88.986119 -90.714784 L 89.212681 -90.714784 L 89.435338 -90.492128 L 90.103306 -90.492128 L 90.322056 -90.269472 L 90.548619 -90.269472 L 90.548619 -90.046815 L 91.439244 -90.046815 L 91.439244 -89.824159 L 92.107213 -89.824159 L 92.107213 -89.601503 L 92.556431 -89.601503 L 93.001744 -89.378847 L 93.44315 -89.378847 L 93.44315 -89.15619 L 94.111119 -89.15619 L 94.111119 -88.933534 L 94.560338 -88.933534 L 95.00565 -88.710878 L 95.228306 -88.710878 L 95.673619 -88.488222 L 96.118931 -88.488222 L 96.564244 -88.265565 L 97.009556 -88.265565 L 97.009556 -88.042909 L 97.677525 -88.042909 L 97.896275 -87.820253 L 98.345494 -87.820253 L 98.564244 -87.597597 L 99.013463 -87.597597 L 99.232213 -87.37494 L 100.126744 -87.37494 L 100.3494 -87.152284 L 100.794713 -87.152284 L 101.017369 -86.929628 L 101.904088 -86.929628 L 102.13065 -86.706972 L 102.798619 -86.706972 L 103.021275 -86.484315 L 103.9119 -86.484315 L 104.134556 -86.261659 L 105.021275 -86.261659 L 105.247838 -86.039003 L 106.142369 -86.039003 L 106.361119 -85.816347 L 107.697056 -85.816347 L 107.923619 -85.59369 L 109.478306 -85.59369 L 109.704869 -85.371034 L 112.376744 -85.371034 L 112.5994 -85.148378 L 118.165806 -85.148378 L 118.388463 -85.371034 L 121.064244 -85.371034 L 121.2869 -85.59369 L 122.845494 -85.59369 L 123.064244 -85.816347 L 124.400181 -85.816347 L 124.626744 -86.039003 L 125.517369 -86.039003 L 125.736119 -86.261659 L 126.63065 -86.261659 L 126.853306 -86.484315 L 127.743931 -86.484315 L 127.966588 -86.706972 L 128.634556 -86.706972 L 128.853306 -86.929628 L 129.747838 -86.929628 L 129.970494 -87.152284 L 130.415806 -87.152284 L 130.638463 -87.37494 L 131.525181 -87.37494 L 131.751744 -87.597597 L 132.19315 -87.597597 L 132.423619 -87.820253 L 132.868931 -87.820253 L 133.091588 -88.042909 L 133.759556 -88.042909 L 133.978306 -88.265565 L 134.427525 -88.265565 L 134.646275 -88.488222 L 135.314244 -88.488222 L 135.540806 -88.710878 L 135.982213 -88.710878 L 136.208775 -88.933534 L 136.650181 -88.933534 L 136.876744 -89.15619 L 137.31815 -89.15619 L 137.544713 -89.378847 L 137.986119 -89.378847 L 138.212681 -89.601503 L 138.654088 -89.601503 L 138.88065 -89.824159 L 139.322056 -89.824159 L 139.548619 -90.046815 L 140.216588 -90.046815 L 140.439244 -90.269472 L 140.6619 -90.269472 L 140.884556 -90.492128 L 141.552525 -90.492128 L 141.771275 -90.714784 L 141.997838 -90.714784 L 142.220494 -90.93744 L 142.888463 -90.93744 L 143.107213 -91.160097 L 143.556431 -91.160097 L 143.775181 -91.382753 L 144.2244 -91.382753 L 144.44315 -91.605409 L 144.892369 -91.605409 L 145.111119 -91.828065 L 145.560338 -91.828065 L 145.779088 -92.050722 L 146.454869 -92.050722 L 146.677525 -92.273378 L 147.345494 -92.273378 L 147.564244 -92.496034 L 148.013463 -92.496034 L 148.232213 -92.722597 L 149.126744 -92.722597 L 149.3494 -92.945253 L 150.017369 -92.945253 L 150.236119 -93.167909 L 151.353306 -93.167909 L 151.572056 -93.390565 L 152.9119 -93.390565 L 153.134556 -93.613222 L 156.4744 -93.613222 L 156.69315 -93.390565 L 157.587681 -93.390565 L 157.810338 -93.167909 L 158.478306 -93.167909 L 158.697056 -92.945253 L 159.368931 -92.945253 L 159.595494 -92.722597 L 159.814244 -92.722597 L 160.263463 -92.496034 L 160.482213 -92.496034 L 160.482213 -92.273378 L 160.708775 -92.273378 L 160.931431 -92.050722 L 161.376744 -92.050722 L 161.5994 -91.828065 L 161.5994 -91.605409 L 161.81815 -91.605409 L 162.267369 -91.382753 L 162.712681 -90.93744 L 162.712681 -90.714784 L 162.935338 -90.492128 L 163.38065 -90.492128 L 163.603306 -90.269472 L 163.603306 -90.046815 L 164.048619 -89.601503 L 164.271275 -89.15619 L 164.939244 -88.488222 L 165.1619 -88.042909 L 165.384556 -87.820253 L 165.829869 -86.929628 L 166.052525 -86.706972 L 167.388463 -84.035097 L 167.607213 -83.367128 L 167.833775 -82.921815 L 168.056431 -82.253847 L 168.275181 -81.808534 L 168.501744 -81.140565 L 168.7244 -80.24994 L 168.94315 -79.581972 L 169.169713 -78.68744 L 169.392369 -78.019472 L 169.611119 -76.90619 L 169.837681 -76.015565 L 170.060338 -74.902284 L 170.50565 -72.230409 L 170.728306 -70.449159 "
         transform="matrix(1,0,0,-1,-39.8494,-55.789003)"
         id="path10" />
    </g>
    <g
       clip-path="url(#clip2)"
       clip-rule="nonzero"
       id="g16">
      <path
         style="fill:none;stroke-width:0.668161;stroke-linecap:butt;stroke-linejoin:miter;stroke:rgb(0%,100%,0%);stroke-opacity:1;stroke-miterlimit:10;"
         d="M 60.0369 -70.894472 L 60.259556 -73.34369 L 60.478306 -75.570253 L 60.704869 -77.351503 L 60.927525 -78.910097 L 61.146275 -80.472597 L 61.372837 -82.03119 L 61.814244 -84.703065 L 62.931431 -90.269472 L 63.376744 -92.050722 L 63.5994 -92.945253 L 64.267369 -95.617128 L 64.486119 -96.285097 L 64.716588 -97.175722 L 66.271275 -101.851503 L 66.497838 -102.296815 L 66.720494 -102.964784 L 66.939244 -103.410097 L 67.165806 -104.078065 L 67.388463 -104.523378 L 67.607213 -105.191347 L 68.056431 -106.081972 L 68.275181 -106.53119 L 68.501744 -106.976503 L 68.7244 -107.644472 L 69.392369 -108.980409 L 69.611119 -109.203065 L 70.279088 -110.539003 L 70.50565 -110.761659 L 70.947056 -111.652284 L 71.173619 -111.87494 L 71.396275 -112.320253 L 71.618931 -112.542909 L 71.841588 -112.988222 L 72.064244 -113.210878 L 72.2869 -113.65619 L 72.728306 -114.101503 L 72.954869 -114.546815 L 73.622838 -115.214784 L 73.845494 -115.660097 L 76.736119 -118.554628 L 76.962681 -118.554628 L 78.072056 -119.667909 L 78.302525 -119.667909 L 78.521275 -119.894472 L 78.747838 -120.117128 L 78.970494 -120.117128 L 79.415806 -120.56244 L 79.638463 -120.56244 L 80.083775 -121.007753 L 80.306431 -121.007753 L 80.751744 -121.453065 L 80.9744 -121.453065 L 81.19315 -121.675722 L 81.419713 -121.675722 L 81.642369 -121.898378 L 81.861119 -121.898378 L 82.087681 -122.121034 L 82.310338 -122.121034 L 82.529088 -122.34369 L 82.75565 -122.34369 L 82.978306 -122.566347 L 83.197056 -122.566347 L 83.423619 -122.789003 L 83.868931 -122.789003 L 84.091588 -123.011659 L 84.5369 -123.011659 L 84.759556 -123.234315 L 84.978306 -123.234315 L 85.204869 -123.456972 L 85.646275 -123.456972 L 85.872838 -123.679628 L 86.314244 -123.679628 L 86.540806 -123.902284 L 87.208775 -123.902284 L 87.431431 -124.12494 L 87.876744 -124.12494 L 88.0994 -124.347597 L 88.986119 -124.347597 L 89.212681 -124.570253 L 89.88065 -124.570253 L 90.103306 -124.792909 L 91.439244 -124.792909 L 91.439244 -125.015565 L 92.556431 -125.015565 L 93.001744 -125.238222 L 94.560338 -125.238222 L 95.00565 -125.460878 L 97.454869 -125.460878 L 97.677525 -125.683534 L 102.572056 -125.683534 L 102.798619 -125.90619 L 127.966588 -125.90619 L 128.189244 -125.683534 L 133.091588 -125.683534 L 133.314244 -125.460878 L 135.982213 -125.460878 L 136.208775 -125.238222 L 137.986119 -125.238222 L 138.212681 -125.015565 L 139.322056 -125.015565 L 139.548619 -124.792909 L 140.884556 -124.792909 L 141.103306 -124.570253 L 141.771275 -124.570253 L 141.997838 -124.347597 L 142.888463 -124.347597 L 143.107213 -124.12494 L 143.556431 -124.12494 L 143.775181 -123.902284 L 144.44315 -123.902284 L 144.669713 -123.679628 L 145.111119 -123.679628 L 145.337681 -123.456972 L 145.779088 -123.456972 L 146.009556 -123.234315 L 146.228306 -123.234315 L 146.454869 -123.011659 L 146.896275 -123.011659 L 147.122838 -122.789003 L 147.564244 -122.789003 L 147.790806 -122.566347 L 148.013463 -122.566347 L 148.232213 -122.34369 L 148.458775 -122.34369 L 148.681431 -122.121034 L 148.900181 -122.121034 L 149.126744 -121.898378 L 149.3494 -121.898378 L 149.56815 -121.675722 L 149.794713 -121.675722 L 150.017369 -121.453065 L 150.236119 -121.453065 L 150.685338 -121.007753 L 150.904088 -121.007753 L 151.353306 -120.56244 L 151.572056 -120.56244 L 152.021275 -120.117128 L 152.243931 -120.117128 L 152.466588 -119.894472 L 152.689244 -119.667909 L 152.9119 -119.667909 L 154.021275 -118.554628 L 154.247838 -118.554628 L 157.142369 -115.660097 L 157.361119 -115.214784 L 157.587681 -114.992128 L 157.587681 -114.769472 L 158.478306 -113.878847 L 158.478306 -113.65619 L 158.697056 -113.210878 L 159.146275 -112.988222 L 159.368931 -112.542909 L 159.595494 -112.320253 L 159.595494 -111.87494 L 160.263463 -111.206972 L 160.482213 -110.761659 L 160.482213 -110.539003 L 160.931431 -109.648378 L 161.5994 -108.980409 L 161.5994 -108.535097 L 161.81815 -108.089784 L 162.267369 -107.644472 L 162.486119 -106.976503 L 162.712681 -106.53119 L 162.712681 -106.081972 L 162.935338 -105.636659 L 163.38065 -105.191347 L 163.603306 -104.523378 L 163.603306 -104.078065 L 163.822056 -103.410097 L 164.048619 -102.964784 L 164.271275 -102.296815 L 164.493931 -101.851503 L 166.052525 -97.175722 L 166.271275 -96.285097 L 166.497838 -95.617128 L 167.165806 -92.945253 L 167.388463 -92.050722 L 167.833775 -90.269472 L 168.94315 -84.703065 L 169.392369 -82.03119 L 169.611119 -80.472597 L 169.837681 -78.910097 L 170.060338 -77.351503 L 170.279088 -75.570253 L 170.50565 -73.34369 L 170.728306 -70.894472 "
         transform="matrix(1,0,0,-1,-39.8494,-55.789003)"
         id="path14" />
    </g>
    <path
       style="fill:none;stroke-width:0.668161;stroke-linecap:butt;stroke-linejoin:miter;stroke:rgb(0%,0%,0%);stroke-opacity:1;stroke-miterlimit:10;"
       d="M 59.927525 -139.601503 L 170.841588 -139.601503 "
       transform="matrix(1,0,0,-1,-39.8494,-55.789003)"
       id="path18" />
    <path
       style="fill:none;stroke-width:0.668161;stroke-linecap:butt;stroke-linejoin:miter;stroke:rgb(0%,0%,0%);stroke-opacity:1;stroke-miterlimit:10;"
       d="M 59.927525 -69.179628 L 170.841588 -69.179628 "
       transform="matrix(1,0,0,-1,-39.8494,-55.789003)"
       id="path20" />
    <path
       style="fill:none;stroke-width:0.668161;stroke-linecap:butt;stroke-linejoin:miter;stroke:rgb(0%,0%,0%);stroke-opacity:1;stroke-miterlimit:10;"
       d="M 59.927525 -139.601503 L 59.927525 -136.039003 "
       transform="matrix(1,0,0,-1,-39.8494,-55.789003)"
       id="path22" />
    <path
       style="fill:none;stroke-width:0.668161;stroke-linecap:butt;stroke-linejoin:miter;stroke:rgb(0%,0%,0%);stroke-opacity:1;stroke-miterlimit:10;"
       d="M 59.927525 -69.179628 L 59.927525 -72.742128 "
       transform="matrix(1,0,0,-1,-39.8494,-55.789003)"
       id="path24" />
    <path
       style="fill:none;stroke-width:0.668161;stroke-linecap:butt;stroke-linejoin:miter;stroke:rgb(0%,0%,0%);stroke-opacity:1;stroke-miterlimit:10;"
       d="M 115.427525 -139.601503 L 115.427525 -136.039003 "
       transform="matrix(1,0,0,-1,-39.8494,-55.789003)"
       id="path26" />
    <path
       style="fill:none;stroke-width:0.668161;stroke-linecap:butt;stroke-linejoin:miter;stroke:rgb(0%,0%,0%);stroke-opacity:1;stroke-miterlimit:10;"
       d="M 115.427525 -69.179628 L 115.427525 -72.742128 "
       transform="matrix(1,0,0,-1,-39.8494,-55.789003)"
       id="path28" />
    <path
       style="fill:none;stroke-width:0.668161;stroke-linecap:butt;stroke-linejoin:miter;stroke:rgb(0%,0%,0%);stroke-opacity:1;stroke-miterlimit:10;"
       d="M 170.931431 -139.601503 L 170.931431 -136.039003 "
       transform="matrix(1,0,0,-1,-39.8494,-55.789003)"
       id="path30" />
    <path
       style="fill:none;stroke-width:0.668161;stroke-linecap:butt;stroke-linejoin:miter;stroke:rgb(0%,0%,0%);stroke-opacity:1;stroke-miterlimit:10;"
       d="M 170.931431 -69.179628 L 170.931431 -72.742128 "
       transform="matrix(1,0,0,-1,-39.8494,-55.789003)"
       id="path32" />
    <path
       style="fill:none;stroke-width:0.668161;stroke-linecap:butt;stroke-linejoin:miter;stroke:rgb(0%,0%,0%);stroke-opacity:1;stroke-miterlimit:10;"
       d="M 59.927525 -139.601503 L 59.927525 -69.222597 "
       transform="matrix(1,0,0,-1,-39.8494,-55.789003)"
       id="path34" />
    <path
       style="fill:none;stroke-width:0.668161;stroke-linecap:butt;stroke-linejoin:miter;stroke:rgb(0%,0%,0%);stroke-opacity:1;stroke-miterlimit:10;"
       d="M 170.931431 -139.601503 L 170.931431 -69.222597 "
       transform="matrix(1,0,0,-1,-39.8494,-55.789003)"
       id="path36" />
    <path
       style="fill:none;stroke-width:0.668161;stroke-linecap:butt;stroke-linejoin:miter;stroke:rgb(0%,0%,0%);stroke-opacity:1;stroke-miterlimit:10;"
       d="M 59.927525 -69.179628 L 63.486119 -69.179628 "
       transform="matrix(1,0,0,-1,-39.8494,-55.789003)"
       id="path38" />
    <path
       style="fill:none;stroke-width:0.668161;stroke-linecap:butt;stroke-linejoin:miter;stroke:rgb(0%,0%,0%);stroke-opacity:1;stroke-miterlimit:10;"
       d="M 170.931431 -69.179628 L 167.361119 -69.179628 "
       transform="matrix(1,0,0,-1,-39.8494,-55.789003)"
       id="path40" />
    <path
       style="fill:none;stroke-width:0.22272;stroke-linecap:butt;stroke-linejoin:miter;stroke:rgb(0%,0%,0%);stroke-opacity:1;stroke-miterlimit:10;"
       d="M 59.927525 -69.222597 L 170.841588 -69.222597 L 170.841588 -139.601503 L 59.927525 -139.601503 Z M 59.927525 -69.222597 "
       transform="matrix(1,0,0,-1,-39.8494,-55.789003)"
       id="path42" />
    <path
       style="fill:none;stroke-width:0.22272;stroke-linecap:butt;stroke-linejoin:miter;stroke:rgb(0%,0%,0%);stroke-opacity:1;stroke-dasharray:1.781763,1.113602;stroke-miterlimit:10;"
       d="M 75.470494 -93.632753 L 155.204869 -93.632753 "
       transform="matrix(1,0,0,-1,-39.8494,-55.789003)"
       id="path44" />
    <path
       style=" stroke:none;fill-rule:nonzero;fill:rgb(0%,0%,0%);fill-opacity:1;"
       d="M 65.550781 41.070313 C 65.605469 40.902344 65.625 40.867188 65.707031 40.847656 C 65.769531 40.835938 65.984375 40.835938 66.117188 40.835938 C 66.777344 40.835938 67.0625 40.855469 67.0625 41.320313 C 67.0625 41.414063 67.042969 41.648438 67.007813 41.796875 C 67.007813 41.824219 66.992188 41.886719 66.992188 41.90625 C 66.992188 41.945313 67.007813 41.992188 67.074219 41.992188 C 67.144531 41.992188 67.15625 41.945313 67.171875 41.851563 L 67.34375 40.820313 C 67.359375 40.792969 67.359375 40.734375 67.359375 40.714844 C 67.359375 40.652344 67.296875 40.652344 67.179688 40.652344 L 63.578125 40.652344 C 63.421875 40.652344 63.414063 40.660156 63.363281 40.773438 L 62.972656 41.8125 C 62.972656 41.824219 62.9375 41.90625 62.9375 41.925781 C 62.9375 41.953125 62.972656 41.992188 63.019531 41.992188 C 63.078125 41.992188 63.089844 41.953125 63.128906 41.859375 C 63.472656 40.941406 63.648438 40.835938 64.605469 40.835938 L 64.863281 40.835938 C 65.046875 40.835938 65.046875 40.855469 65.046875 40.910156 C 65.046875 40.941406 65.023438 41.015625 65.011719 41.03125 L 64.148438 44.203125 C 64.085938 44.417969 64.066406 44.484375 63.375 44.484375 C 63.136719 44.484375 63.09375 44.484375 63.09375 44.59375 C 63.09375 44.667969 63.171875 44.667969 63.210938 44.667969 C 63.378906 44.667969 63.566406 44.660156 63.742188 44.660156 C 63.921875 44.660156 64.117188 44.652344 64.296875 44.652344 C 64.484375 44.652344 64.660156 44.660156 64.839844 44.660156 C 65.023438 44.660156 65.214844 44.667969 65.402344 44.667969 C 65.464844 44.667969 65.542969 44.667969 65.542969 44.546875 C 65.542969 44.484375 65.492188 44.484375 65.320313 44.484375 C 65.167969 44.484375 65.074219 44.484375 64.914063 44.472656 C 64.714844 44.457031 64.667969 44.4375 64.667969 44.34375 C 64.667969 44.335938 64.667969 44.308594 64.699219 44.222656 Z M 65.550781 41.070313 "
       id="path46" />
    <path
       style=" stroke:none;fill-rule:nonzero;fill:rgb(0%,0%,0%);fill-opacity:1;"
       d="M 73.75 42.726563 C 73.847656 42.726563 73.96875 42.726563 73.96875 42.613281 C 73.96875 42.492188 73.847656 42.492188 73.757813 42.492188 L 69.867188 42.492188 C 69.777344 42.492188 69.652344 42.492188 69.652344 42.613281 C 69.652344 42.726563 69.777344 42.726563 69.867188 42.726563 Z M 73.757813 43.878906 C 73.847656 43.878906 73.96875 43.878906 73.96875 43.757813 C 73.96875 43.644531 73.847656 43.644531 73.75 43.644531 L 69.867188 43.644531 C 69.777344 43.644531 69.652344 43.644531 69.652344 43.757813 C 69.652344 43.878906 69.777344 43.878906 69.867188 43.878906 Z M 73.757813 43.878906 "
       id="path48" />
    <path
       style=" stroke:none;fill-rule:nonzero;fill:rgb(0%,0%,0%);fill-opacity:1;"
       d="M 78.917969 41.070313 C 78.964844 40.902344 78.988281 40.867188 79.070313 40.847656 C 79.128906 40.835938 79.339844 40.835938 79.472656 40.835938 C 80.136719 40.835938 80.421875 40.855469 80.421875 41.320313 C 80.421875 41.414063 80.40625 41.648438 80.375 41.796875 C 80.375 41.824219 80.347656 41.886719 80.347656 41.90625 C 80.347656 41.945313 80.375 41.992188 80.429688 41.992188 C 80.503906 41.992188 80.511719 41.945313 80.535156 41.851563 L 80.710938 40.820313 C 80.714844 40.792969 80.714844 40.734375 80.714844 40.714844 C 80.714844 40.652344 80.660156 40.652344 80.546875 40.652344 L 76.941406 40.652344 C 76.785156 40.652344 76.777344 40.660156 76.722656 40.773438 L 76.339844 41.8125 C 76.339844 41.824219 76.296875 41.90625 76.296875 41.925781 C 76.296875 41.953125 76.339844 41.992188 76.378906 41.992188 C 76.441406 41.992188 76.449219 41.953125 76.492188 41.859375 C 76.839844 40.941406 77.007813 40.835938 77.964844 40.835938 L 78.21875 40.835938 C 78.40625 40.835938 78.40625 40.855469 78.40625 40.910156 C 78.40625 40.941406 78.382813 41.015625 78.375 41.03125 L 77.507813 44.203125 C 77.449219 44.417969 77.425781 44.484375 76.734375 44.484375 C 76.5 44.484375 76.460938 44.484375 76.460938 44.59375 C 76.460938 44.667969 76.53125 44.667969 76.574219 44.667969 C 76.746094 44.667969 76.925781 44.660156 77.097656 44.660156 C 77.285156 44.660156 77.480469 44.652344 77.664063 44.652344 C 77.84375 44.652344 78.019531 44.660156 78.203125 44.660156 C 78.382813 44.660156 78.582031 44.667969 78.761719 44.667969 C 78.824219 44.667969 78.90625 44.667969 78.90625 44.546875 C 78.90625 44.484375 78.855469 44.484375 78.679688 44.484375 C 78.53125 44.484375 78.4375 44.484375 78.273438 44.472656 C 78.082031 44.457031 78.03125 44.4375 78.03125 44.34375 C 78.03125 44.335938 78.03125 44.308594 78.0625 44.222656 Z M 78.917969 41.070313 "
       id="path50" />
    <path
       style=" stroke:none;fill-rule:nonzero;fill:rgb(0%,0%,0%);fill-opacity:1;"
       d="M 81.925781 43.96875 C 81.761719 43.996094 81.703125 44.109375 81.703125 44.203125 C 81.703125 44.3125 81.796875 44.359375 81.878906 44.359375 C 81.980469 44.359375 82.128906 44.292969 82.128906 44.089844 C 82.128906 43.8125 81.785156 43.726563 81.542969 43.726563 C 80.859375 43.726563 80.222656 44.304688 80.222656 44.878906 C 80.222656 45.234375 80.492188 45.597656 81.0625 45.597656 C 81.835938 45.597656 82.195313 45.1875 82.195313 45.132813 C 82.195313 45.105469 82.152344 45.058594 82.113281 45.058594 C 82.089844 45.058594 82.082031 45.066406 82.039063 45.105469 C 81.679688 45.484375 81.15625 45.484375 81.074219 45.484375 C 80.746094 45.484375 80.605469 45.28125 80.605469 45.019531 C 80.605469 44.910156 80.664063 44.453125 80.898438 44.164063 C 81.074219 43.960938 81.304688 43.847656 81.542969 43.847656 C 81.597656 43.847656 81.816406 43.855469 81.925781 43.96875 Z M 81.925781 43.96875 "
       id="path52" />
    <path
       style=" stroke:none;fill-rule:nonzero;fill:rgb(0%,0%,0%);fill-opacity:1;"
       d="M 66.046875 63.371094 C 66.09375 63.203125 66.117188 63.167969 66.199219 63.148438 C 66.257813 63.136719 66.472656 63.136719 66.609375 63.136719 C 67.269531 63.136719 67.550781 63.15625 67.550781 63.621094 C 67.550781 63.714844 67.535156 63.949219 67.503906 64.097656 C 67.503906 64.125 67.484375 64.191406 67.484375 64.207031 C 67.484375 64.246094 67.503906 64.292969 67.566406 64.292969 C 67.632813 64.292969 67.648438 64.246094 67.667969 64.152344 L 67.839844 63.121094 C 67.847656 63.09375 67.847656 63.035156 67.847656 63.019531 C 67.847656 62.953125 67.789063 62.953125 67.675781 62.953125 L 64.070313 62.953125 C 63.917969 62.953125 63.90625 62.960938 63.855469 63.074219 L 63.464844 64.117188 C 63.464844 64.125 63.425781 64.207031 63.425781 64.226563 C 63.425781 64.253906 63.464844 64.292969 63.507813 64.292969 C 63.570313 64.292969 63.582031 64.253906 63.621094 64.160156 C 63.964844 63.242188 64.136719 63.136719 65.097656 63.136719 L 65.355469 63.136719 C 65.539063 63.136719 65.539063 63.15625 65.539063 63.214844 C 65.539063 63.242188 65.519531 63.316406 65.503906 63.332031 L 64.636719 66.503906 C 64.582031 66.71875 64.554688 66.785156 63.867188 66.785156 C 63.628906 66.785156 63.589844 66.785156 63.589844 66.894531 C 63.589844 66.96875 63.664063 66.96875 63.703125 66.96875 C 63.878906 66.96875 64.0625 66.960938 64.234375 66.960938 C 64.417969 66.960938 64.609375 66.953125 64.792969 66.953125 C 64.972656 66.953125 65.152344 66.960938 65.335938 66.960938 C 65.519531 66.960938 65.710938 66.96875 65.894531 66.96875 C 65.957031 66.96875 66.039063 66.96875 66.039063 66.851563 C 66.039063 66.785156 65.988281 66.785156 65.8125 66.785156 C 65.660156 66.785156 65.570313 66.785156 65.40625 66.773438 C 65.210938 66.757813 65.160156 66.738281 65.160156 66.644531 C 65.160156 66.636719 65.160156 66.609375 65.191406 66.523438 Z M 66.046875 63.371094 "
       id="path54" />
    <path
       style=" stroke:none;fill-rule:nonzero;fill:rgb(0%,0%,0%);fill-opacity:1;"
       d="M 74.242188 65.027344 C 74.339844 65.027344 74.464844 65.027344 74.464844 64.914063 C 74.464844 64.792969 74.339844 64.792969 74.253906 64.792969 L 70.359375 64.792969 C 70.269531 64.792969 70.148438 64.792969 70.148438 64.914063 C 70.148438 65.027344 70.269531 65.027344 70.359375 65.027344 Z M 74.253906 66.179688 C 74.339844 66.179688 74.464844 66.179688 74.464844 66.058594 C 74.464844 65.949219 74.339844 65.949219 74.242188 65.949219 L 70.359375 65.949219 C 70.269531 65.949219 70.148438 65.949219 70.148438 66.058594 C 70.148438 66.179688 70.269531 66.179688 70.359375 66.179688 Z M 74.253906 66.179688 "
       id="path56" />
    <path
       style=" stroke:none;fill-rule:nonzero;fill:rgb(0%,0%,0%);fill-opacity:1;"
       d="M 77.457031 66.515625 L 78.152344 65.902344 C 79.160156 65.082031 79.546875 64.765625 79.546875 64.171875 C 79.546875 63.492188 78.964844 63.019531 78.171875 63.019531 C 77.4375 63.019531 76.960938 63.566406 76.960938 64.097656 C 76.960938 64.421875 77.285156 64.421875 77.300781 64.421875 C 77.417969 64.421875 77.636719 64.355469 77.636719 64.105469 C 77.636719 63.957031 77.519531 63.800781 77.296875 63.800781 C 77.246094 63.800781 77.234375 63.800781 77.214844 63.808594 C 77.355469 63.417969 77.714844 63.203125 78.089844 63.203125 C 78.675781 63.203125 78.957031 63.6875 78.957031 64.171875 C 78.957031 64.644531 78.636719 65.109375 78.273438 65.484375 L 77.03125 66.746094 C 76.960938 66.8125 76.960938 66.832031 76.960938 66.96875 L 79.375 66.96875 L 79.546875 65.9375 L 79.394531 65.9375 C 79.355469 66.113281 79.3125 66.375 79.242188 66.46875 C 79.199219 66.515625 78.773438 66.515625 78.628906 66.515625 Z M 77.457031 66.515625 "
       id="path58" />
    <path
       style=" stroke:none;fill-rule:nonzero;fill:rgb(0%,0%,0%);fill-opacity:1;"
       d="M 82.660156 63.371094 C 82.710938 63.203125 82.730469 63.167969 82.8125 63.148438 C 82.871094 63.136719 83.085938 63.136719 83.214844 63.136719 C 83.878906 63.136719 84.167969 63.15625 84.167969 63.621094 C 84.167969 63.714844 84.144531 63.949219 84.117188 64.097656 C 84.117188 64.125 84.089844 64.191406 84.089844 64.207031 C 84.089844 64.246094 84.117188 64.292969 84.171875 64.292969 C 84.246094 64.292969 84.253906 64.246094 84.277344 64.152344 L 84.453125 63.121094 C 84.460938 63.09375 84.460938 63.035156 84.460938 63.019531 C 84.460938 62.953125 84.402344 62.953125 84.289063 62.953125 L 80.675781 62.953125 C 80.527344 62.953125 80.519531 62.960938 80.464844 63.074219 L 80.082031 64.117188 C 80.082031 64.125 80.039063 64.207031 80.039063 64.226563 C 80.039063 64.253906 80.082031 64.292969 80.121094 64.292969 C 80.179688 64.292969 80.191406 64.253906 80.234375 64.160156 C 80.578125 63.242188 80.753906 63.136719 81.710938 63.136719 L 81.964844 63.136719 C 82.148438 63.136719 82.148438 63.15625 82.148438 63.214844 C 82.148438 63.242188 82.128906 63.316406 82.117188 63.332031 L 81.253906 66.503906 C 81.191406 66.71875 81.171875 66.785156 80.472656 66.785156 C 80.242188 66.785156 80.203125 66.785156 80.203125 66.894531 C 80.203125 66.96875 80.273438 66.96875 80.316406 66.96875 C 80.488281 66.96875 80.671875 66.960938 80.839844 66.960938 C 81.027344 66.960938 81.21875 66.953125 81.40625 66.953125 C 81.589844 66.953125 81.757813 66.960938 81.945313 66.960938 C 82.128906 66.960938 82.320313 66.96875 82.503906 66.96875 C 82.566406 66.96875 82.648438 66.96875 82.648438 66.851563 C 82.648438 66.785156 82.59375 66.785156 82.421875 66.785156 C 82.269531 66.785156 82.175781 66.785156 82.011719 66.773438 C 81.824219 66.757813 81.773438 66.738281 81.773438 66.644531 C 81.773438 66.636719 81.773438 66.609375 81.796875 66.523438 Z M 82.660156 63.371094 "
       id="path60" />
    <path
       style=" stroke:none;fill-rule:nonzero;fill:rgb(0%,0%,0%);fill-opacity:1;"
       d="M 85.671875 66.269531 C 85.503906 66.296875 85.445313 66.410156 85.445313 66.503906 C 85.445313 66.613281 85.539063 66.660156 85.621094 66.660156 C 85.71875 66.660156 85.875 66.59375 85.875 66.390625 C 85.875 66.113281 85.527344 66.027344 85.285156 66.027344 C 84.597656 66.027344 83.964844 66.605469 83.964844 67.179688 C 83.964844 67.535156 84.234375 67.898438 84.800781 67.898438 C 85.578125 67.898438 85.929688 67.488281 85.929688 67.433594 C 85.929688 67.40625 85.894531 67.359375 85.855469 67.359375 C 85.832031 67.359375 85.824219 67.367188 85.78125 67.40625 C 85.421875 67.785156 84.894531 67.785156 84.816406 67.785156 C 84.488281 67.785156 84.34375 67.582031 84.34375 67.320313 C 84.34375 67.210938 84.40625 66.753906 84.636719 66.464844 C 84.816406 66.261719 85.046875 66.148438 85.285156 66.148438 C 85.339844 66.148438 85.554688 66.160156 85.671875 66.269531 Z M 85.671875 66.269531 "
       id="path62" />
    <path
       style=" stroke:none;fill-rule:nonzero;fill:rgb(0%,0%,0%);fill-opacity:1;"
       d="M 19.796875 91.984375 C 19.910156 91.984375 20.035156 91.984375 20.035156 91.839844 C 20.035156 91.707031 19.910156 91.707031 19.796875 91.707031 L 16.214844 91.707031 C 16.097656 91.707031 15.988281 91.707031 15.988281 91.839844 C 15.988281 91.984375 16.097656 91.984375 16.214844 91.984375 Z M 19.796875 91.984375 "
       id="path64" />
    <path
       style=" stroke:none;fill-rule:nonzero;fill:rgb(0%,0%,0%);fill-opacity:1;"
       d="M 22.535156 89.105469 C 22.535156 88.925781 22.535156 88.917969 22.378906 88.917969 C 21.964844 89.367188 21.378906 89.367188 21.171875 89.367188 L 21.171875 89.589844 C 21.304688 89.589844 21.695313 89.589844 22.035156 89.402344 L 22.035156 93.054688 C 22.035156 93.308594 22.011719 93.386719 21.421875 93.386719 L 21.214844 93.386719 L 21.214844 93.605469 C 21.445313 93.585938 22.011719 93.585938 22.285156 93.585938 C 22.546875 93.585938 23.128906 93.585938 23.355469 93.605469 L 23.355469 93.386719 L 23.148438 93.386719 C 22.546875 93.386719 22.535156 93.308594 22.535156 93.054688 Z M 22.535156 89.105469 "
       id="path66" />
    <path
       style=" stroke:none;fill-rule:nonzero;fill:rgb(0%,0%,0%);fill-opacity:1;"
       d="M 130.617188 88.363281 C 130.617188 88.1875 130.617188 88.175781 130.460938 88.175781 C 130.042969 88.628906 129.464844 88.628906 129.253906 88.628906 L 129.253906 88.851563 C 129.386719 88.851563 129.773438 88.851563 130.117188 88.664063 L 130.117188 92.316406 C 130.117188 92.570313 130.09375 92.648438 129.503906 92.648438 L 129.296875 92.648438 L 129.296875 92.867188 C 129.527344 92.84375 130.09375 92.84375 130.367188 92.84375 C 130.625 92.84375 131.207031 92.84375 131.429688 92.867188 L 131.429688 92.648438 L 131.222656 92.648438 C 130.625 92.648438 130.617188 92.570313 130.617188 92.316406 Z M 130.617188 88.363281 "
       id="path68" />
    <path
       style=" stroke:none;fill-rule:nonzero;fill:rgb(0%,0%,0%);fill-opacity:1;"
       d="M 76.5 90.488281 C 76.5 89.925781 76.464844 89.363281 76.242188 88.84375 C 75.941406 88.160156 75.386719 88.046875 75.121094 88.046875 C 74.714844 88.046875 74.238281 88.234375 73.957031 88.886719 C 73.75 89.371094 73.714844 89.925781 73.714844 90.488281 C 73.714844 91.015625 73.742188 91.644531 74.019531 92.1875 C 74.296875 92.75 74.789063 92.894531 75.109375 92.894531 C 75.464844 92.894531 75.96875 92.75 76.257813 92.078125 C 76.464844 91.589844 76.5 91.039063 76.5 90.488281 Z M 75.109375 92.738281 C 74.847656 92.738281 74.457031 92.5625 74.339844 91.890625 C 74.269531 91.46875 74.269531 90.820313 74.269531 90.398438 C 74.269531 89.945313 74.269531 89.484375 74.320313 89.109375 C 74.445313 88.269531 74.945313 88.203125 75.109375 88.203125 C 75.328125 88.203125 75.761719 88.335938 75.886719 89.03125 C 75.960938 89.429688 75.960938 89.957031 75.960938 90.398438 C 75.960938 90.929688 75.960938 91.402344 75.886719 91.855469 C 75.785156 92.527344 75.410156 92.738281 75.109375 92.738281 Z M 75.109375 92.738281 "
       id="path70" />
    <path
       style=" stroke:none;fill-rule:nonzero;fill:rgb(0%,0%,0%);fill-opacity:1;"
       d="M 14.246094 13.25 C 14.246094 12.714844 14.214844 12.183594 13.988281 11.691406 C 13.6875 11.046875 13.136719 10.941406 12.875 10.941406 C 12.46875 10.941406 11.996094 11.117188 11.714844 11.734375 C 11.507813 12.195313 11.480469 12.714844 11.480469 13.25 C 11.480469 13.75 11.5 14.347656 11.78125 14.859375 C 12.054688 15.390625 12.542969 15.527344 12.863281 15.527344 C 13.214844 15.527344 13.714844 15.390625 14.003906 14.753906 C 14.214844 14.292969 14.246094 13.773438 14.246094 13.25 Z M 12.863281 15.382813 C 12.605469 15.382813 12.214844 15.214844 12.097656 14.578125 C 12.027344 14.179688 12.027344 13.5625 12.027344 13.167969 C 12.027344 12.738281 12.027344 12.300781 12.078125 11.945313 C 12.203125 11.148438 12.699219 11.085938 12.863281 11.085938 C 13.078125 11.085938 13.507813 11.210938 13.632813 11.871094 C 13.707031 12.246094 13.707031 12.75 13.707031 13.167969 C 13.707031 13.667969 13.707031 14.117188 13.632813 14.546875 C 13.535156 15.183594 13.164063 15.382813 12.863281 15.382813 Z M 12.863281 15.382813 "
       id="path72" />
    <path
       style=" stroke:none;fill-rule:nonzero;fill:rgb(0%,0%,0%);fill-opacity:1;"
       d="M 5.730469 84.6875 C 5.832031 84.6875 5.941406 84.6875 5.941406 84.558594 C 5.941406 84.441406 5.832031 84.441406 5.730469 84.441406 L 2.53125 84.441406 C 2.425781 84.441406 2.328125 84.441406 2.328125 84.558594 C 2.328125 84.6875 2.425781 84.6875 2.53125 84.6875 Z M 5.730469 84.6875 "
       id="path74" />
    <path
       style=" stroke:none;fill-rule:nonzero;fill:rgb(0%,0%,0%);fill-opacity:1;"
       d="M 8.171875 82.121094 C 8.171875 81.964844 8.171875 81.953125 8.039063 81.953125 C 7.667969 82.355469 7.148438 82.355469 6.960938 82.355469 L 6.960938 82.554688 C 7.082031 82.554688 7.421875 82.554688 7.730469 82.386719 L 7.730469 85.640625 C 7.730469 85.867188 7.714844 85.933594 7.179688 85.933594 L 7 85.933594 L 7 86.132813 C 7.203125 86.113281 7.714844 86.113281 7.953125 86.113281 C 8.1875 86.113281 8.707031 86.113281 8.910156 86.132813 L 8.910156 85.933594 L 8.71875 85.933594 C 8.1875 85.933594 8.171875 85.867188 8.171875 85.640625 Z M 8.171875 82.121094 "
       id="path76" />
    <path
       style=" stroke:none;fill-rule:nonzero;fill:rgb(0%,0%,0%);fill-opacity:1;"
       d="M 10.519531 85.796875 C 10.519531 85.621094 10.378906 85.464844 10.214844 85.464844 C 10.039063 85.464844 9.898438 85.621094 9.898438 85.796875 C 9.898438 85.984375 10.039063 86.132813 10.214844 86.132813 C 10.378906 86.132813 10.519531 85.984375 10.519531 85.796875 Z M 10.519531 85.796875 "
       id="path78" />
    <path
       style=" stroke:none;fill-rule:nonzero;fill:rgb(0%,0%,0%);fill-opacity:1;"
       d="M 13.679688 84.875 C 13.679688 84.125 13.199219 83.496094 12.5625 83.496094 C 12.285156 83.496094 12.023438 83.597656 11.804688 83.820313 L 11.804688 82.59375 C 11.925781 82.632813 12.125 82.671875 12.3125 82.671875 C 13.042969 82.671875 13.460938 82.101563 13.460938 82.023438 C 13.460938 81.984375 13.441406 81.953125 13.394531 81.953125 C 13.394531 81.953125 13.378906 81.953125 13.34375 81.972656 C 13.230469 82.03125 12.941406 82.160156 12.542969 82.160156 C 12.3125 82.160156 12.03125 82.113281 11.753906 81.984375 C 11.707031 81.964844 11.699219 81.964844 11.691406 81.964844 C 11.625 81.964844 11.625 82.011719 11.625 82.113281 L 11.625 83.96875 C 11.625 84.078125 11.625 84.125 11.707031 84.125 C 11.753906 84.125 11.761719 84.117188 11.792969 84.078125 C 11.855469 83.980469 12.070313 83.636719 12.546875 83.636719 C 12.859375 83.636719 13.003906 83.921875 13.046875 84.039063 C 13.144531 84.273438 13.164063 84.511719 13.164063 84.824219 C 13.164063 85.050781 13.164063 85.425781 13.011719 85.6875 C 12.875 85.933594 12.652344 86.09375 12.382813 86.09375 C 11.957031 86.09375 11.617188 85.757813 11.511719 85.394531 C 11.53125 85.394531 11.546875 85.40625 11.617188 85.40625 C 11.804688 85.40625 11.914063 85.246094 11.914063 85.101563 C 11.914063 84.941406 11.804688 84.785156 11.617188 84.785156 C 11.53125 84.785156 11.328125 84.835938 11.328125 85.121094 C 11.328125 85.660156 11.734375 86.269531 12.394531 86.269531 C 13.082031 86.269531 13.679688 85.667969 13.679688 84.875 Z M 13.679688 84.875 "
       id="path80" />
    <path
       style=" stroke:none;fill-rule:nonzero;fill:rgb(0%,0%,0%);fill-opacity:1;"
       d="M 65.585938 21.40625 C 65.628906 21.238281 65.652344 21.203125 65.722656 21.183594 C 65.785156 21.175781 65.984375 21.175781 66.105469 21.175781 C 66.714844 21.175781 66.984375 21.191406 66.984375 21.660156 C 66.984375 21.753906 66.964844 21.984375 66.9375 22.136719 C 66.9375 22.164063 66.917969 22.230469 66.917969 22.246094 C 66.917969 22.285156 66.9375 22.332031 66.992188 22.332031 C 67.054688 22.332031 67.070313 22.285156 67.089844 22.191406 L 67.25 21.15625 C 67.253906 21.128906 67.253906 21.070313 67.253906 21.054688 C 67.253906 20.988281 67.203125 20.988281 67.09375 20.988281 L 63.753906 20.988281 C 63.613281 20.988281 63.605469 20.996094 63.554688 21.109375 L 63.199219 22.152344 C 63.199219 22.164063 63.160156 22.246094 63.160156 22.265625 C 63.160156 22.292969 63.199219 22.332031 63.234375 22.332031 C 63.292969 22.332031 63.296875 22.292969 63.339844 22.199219 C 63.660156 21.277344 63.820313 21.175781 64.707031 21.175781 L 64.945313 21.175781 C 65.113281 21.175781 65.113281 21.191406 65.113281 21.25 C 65.113281 21.277344 65.09375 21.351563 65.085938 21.371094 L 64.285156 24.550781 C 64.222656 24.765625 64.207031 24.832031 63.566406 24.832031 C 63.34375 24.832031 63.3125 24.832031 63.3125 24.945313 C 63.3125 25.019531 63.378906 25.019531 63.414063 25.019531 C 63.574219 25.019531 63.746094 25.007813 63.90625 25.007813 C 64.074219 25.007813 64.253906 25 64.421875 25 C 64.589844 25 64.753906 25.007813 64.921875 25.007813 C 65.09375 25.007813 65.273438 25.019531 65.445313 25.019531 C 65.5 25.019531 65.578125 25.019531 65.578125 24.898438 C 65.578125 24.832031 65.53125 24.832031 65.371094 24.832031 C 65.222656 24.832031 65.144531 24.832031 64.992188 24.824219 C 64.8125 24.804688 64.761719 24.785156 64.761719 24.691406 C 64.761719 24.683594 64.761719 24.65625 64.792969 24.570313 Z M 65.585938 21.40625 "
       id="path82" />
    <path
       style=" stroke:none;fill-rule:nonzero;fill:rgb(0%,0%,0%);fill-opacity:1;"
       d="M 73.175781 23.070313 C 73.273438 23.070313 73.382813 23.070313 73.382813 22.957031 C 73.382813 22.835938 73.273438 22.835938 73.191406 22.835938 L 69.582031 22.835938 C 69.5 22.835938 69.382813 22.835938 69.382813 22.957031 C 69.382813 23.070313 69.5 23.070313 69.582031 23.070313 Z M 73.191406 24.226563 C 73.273438 24.226563 73.382813 24.226563 73.382813 24.105469 C 73.382813 23.992188 73.273438 23.992188 73.175781 23.992188 L 69.582031 23.992188 C 69.5 23.992188 69.382813 23.992188 69.382813 24.105469 C 69.382813 24.226563 69.5 24.226563 69.582031 24.226563 Z M 73.191406 24.226563 "
       id="path84" />
    <path
       style=" stroke:none;fill-rule:nonzero;fill:rgb(0%,0%,0%);fill-opacity:1;"
       d="M 77.964844 21.40625 C 78.011719 21.238281 78.035156 21.203125 78.109375 21.183594 C 78.167969 21.175781 78.363281 21.175781 78.488281 21.175781 C 79.097656 21.175781 79.367188 21.191406 79.367188 21.660156 C 79.367188 21.753906 79.34375 21.984375 79.320313 22.136719 C 79.320313 22.164063 79.296875 22.230469 79.296875 22.246094 C 79.296875 22.285156 79.320313 22.332031 79.375 22.332031 C 79.441406 22.332031 79.449219 22.285156 79.464844 22.191406 L 79.628906 21.15625 C 79.636719 21.128906 79.636719 21.070313 79.636719 21.054688 C 79.636719 20.988281 79.582031 20.988281 79.480469 20.988281 L 76.132813 20.988281 C 75.996094 20.988281 75.984375 20.996094 75.9375 21.109375 L 75.578125 22.152344 C 75.578125 22.164063 75.542969 22.246094 75.542969 22.265625 C 75.542969 22.292969 75.578125 22.332031 75.617188 22.332031 C 75.671875 22.332031 75.679688 22.292969 75.71875 22.199219 C 76.042969 21.277344 76.203125 21.175781 77.089844 21.175781 L 77.328125 21.175781 C 77.496094 21.175781 77.496094 21.191406 77.496094 21.25 C 77.496094 21.277344 77.472656 21.351563 77.464844 21.371094 L 76.664063 24.550781 C 76.609375 24.765625 76.589844 24.832031 75.949219 24.832031 C 75.730469 24.832031 75.691406 24.832031 75.691406 24.945313 C 75.691406 25.019531 75.753906 25.019531 75.796875 25.019531 C 75.957031 25.019531 76.128906 25.007813 76.289063 25.007813 C 76.457031 25.007813 76.632813 25 76.804688 25 C 76.972656 25 77.132813 25.007813 77.304688 25.007813 C 77.472656 25.007813 77.65625 25.019531 77.828125 25.019531 C 77.878906 25.019531 77.957031 25.019531 77.957031 24.898438 C 77.957031 24.832031 77.910156 24.832031 77.75 24.832031 C 77.609375 24.832031 77.523438 24.832031 77.375 24.824219 C 77.195313 24.804688 77.148438 24.785156 77.148438 24.691406 C 77.148438 24.683594 77.148438 24.65625 77.171875 24.570313 Z M 77.964844 21.40625 "
       id="path86" />
    <path
       style=" stroke:none;fill-rule:nonzero;fill:rgb(0%,0%,0%);fill-opacity:1;"
       d="M 80.753906 24.316406 C 80.609375 24.34375 80.546875 24.457031 80.546875 24.550781 C 80.546875 24.660156 80.632813 24.707031 80.710938 24.707031 C 80.804688 24.707031 80.949219 24.644531 80.949219 24.4375 C 80.949219 24.15625 80.628906 24.074219 80.402344 24.074219 C 79.769531 24.074219 79.179688 24.652344 79.179688 25.230469 C 79.179688 25.585938 79.425781 25.949219 79.957031 25.949219 C 80.671875 25.949219 81.003906 25.539063 81.003906 25.484375 C 81.003906 25.453125 80.964844 25.40625 80.925781 25.40625 C 80.910156 25.40625 80.902344 25.417969 80.863281 25.453125 C 80.53125 25.835938 80.042969 25.835938 79.964844 25.835938 C 79.664063 25.835938 79.53125 25.632813 79.53125 25.371094 C 79.53125 25.257813 79.589844 24.800781 79.800781 24.511719 C 79.964844 24.308594 80.179688 24.195313 80.402344 24.195313 C 80.457031 24.195313 80.65625 24.203125 80.753906 24.316406 Z M 80.753906 24.316406 "
       id="path88" />
    <path
       style=" stroke:none;fill-rule:nonzero;fill:rgb(0%,0%,0%);fill-opacity:1;"
       d="M 84.011719 20.78125 C 84.042969 20.699219 84.042969 20.679688 84.042969 20.671875 C 84.042969 20.605469 83.996094 20.550781 83.925781 20.550781 C 83.878906 20.550781 83.839844 20.566406 83.824219 20.605469 L 81.730469 26.277344 C 81.699219 26.363281 81.699219 26.382813 81.699219 26.390625 C 81.699219 26.457031 81.753906 26.511719 81.824219 26.511719 C 81.898438 26.511719 81.917969 26.464844 81.957031 26.363281 Z M 84.011719 20.78125 "
       id="path90" />
    <path
       style=" stroke:none;fill-rule:nonzero;fill:rgb(0%,0%,0%);fill-opacity:1;"
       d="M 85.144531 24.5625 L 85.789063 23.945313 C 86.71875 23.125 87.082031 22.808594 87.082031 22.210938 C 87.082031 21.527344 86.542969 21.054688 85.800781 21.054688 C 85.125 21.054688 84.679688 21.605469 84.679688 22.136719 C 84.679688 22.460938 84.984375 22.460938 85.003906 22.460938 C 85.109375 22.460938 85.316406 22.398438 85.316406 22.144531 C 85.316406 21.996094 85.203125 21.835938 84.996094 21.835938 C 84.945313 21.835938 84.9375 21.835938 84.917969 21.847656 C 85.046875 21.453125 85.378906 21.238281 85.730469 21.238281 C 86.277344 21.238281 86.535156 21.726563 86.535156 22.210938 C 86.535156 22.6875 86.242188 23.152344 85.902344 23.527344 L 84.75 24.792969 C 84.679688 24.859375 84.679688 24.878906 84.679688 25.019531 L 86.921875 25.019531 L 87.082031 23.984375 L 86.9375 23.984375 C 86.902344 24.160156 86.863281 24.421875 86.796875 24.515625 C 86.757813 24.5625 86.363281 24.5625 86.230469 24.5625 Z M 85.144531 24.5625 "
       id="path92" />
  </g>
</svg>
