<?xml version="1.0" encoding="UTF-8" standalone="no"?>
<svg
   xmlns:dc="http://purl.org/dc/elements/1.1/"
   xmlns:cc="http://creativecommons.org/ns#"
   xmlns:rdf="http://www.w3.org/1999/02/22-rdf-syntax-ns#"
   xmlns:svg="http://www.w3.org/2000/svg"
   xmlns="http://www.w3.org/2000/svg"
   xmlns:sodipodi="http://sodipodi.sourceforge.net/DTD/sodipodi-0.dtd"
   xmlns:inkscape="http://www.inkscape.org/namespaces/inkscape"
   width="272.814pt"
   height="120.959pt"
   viewBox="0 0 272.814 120.959"
   version="1.2"
   id="svg90"
   sodipodi:docname="ising1.svg"
   inkscape:version="0.92.4 (5da689c313, 2019-01-14)">
  <metadata
     id="metadata94">
    <rdf:RDF>
      <cc:Work
         rdf:about="">
        <dc:format>image/svg+xml</dc:format>
        <dc:type
           rdf:resource="http://purl.org/dc/dcmitype/StillImage" />
        <dc:title></dc:title>
      </cc:Work>
    </rdf:RDF>
  </metadata>
  <sodipodi:namedview
     pagecolor="#ffffff"
     bordercolor="#ffffff"
     borderopacity="1"
     objecttolerance="10"
     gridtolerance="10"
     guidetolerance="10"
     inkscape:pageopacity="0"
     inkscape:pageshadow="2"
     inkscape:window-width="727"
     inkscape:window-height="480"
     id="namedview92"
     showgrid="false"
     inkscape:zoom="1.2563505"
     inkscape:cx="181.876"
     inkscape:cy="80.639333"
     inkscape:window-x="0"
     inkscape:window-y="0"
     inkscape:window-maximized="0"
     inkscape:current-layer="svg90" />
  <defs
     id="defs11">
    <clipPath
       id="clip1">
      <path
         d="M 182 59 L 272.8125 59 L 272.8125 120.960938 L 182 120.960938 Z M 182 59 "
         id="path2" />
    </clipPath>
    <clipPath
       id="clip2">
      <path
         d="M 247 57 L 272.8125 57 L 272.8125 85 L 247 85 Z M 247 57 "
         id="path5" />
    </clipPath>
    <clipPath
       id="clip3">
      <path
         d="M 252 56 L 272.8125 56 L 272.8125 88 L 252 88 Z M 252 56 "
         id="path8" />
    </clipPath>
  </defs>
  <g
     id="surface28">
    <path
       style="fill:none;stroke-width:1.905648;stroke-linecap:butt;stroke-linejoin:miter;stroke:rgb(0%,0%,0%);stroke-opacity:1;stroke-dasharray:3.811295,1.905648;stroke-miterlimit:4;"
       d="M 421.61725 309.357771 C 421.61725 330.799177 371.312563 348.178084 309.261781 348.178084 C 247.207094 348.178084 196.902406 330.799177 196.902406 309.357771 C 196.902406 287.920271 247.207094 270.537459 309.261781 270.537459 C 371.312563 270.537459 421.61725 287.920271 421.61725 309.357771 Z M 421.61725 309.357771 "
       transform="matrix(1,0,0,1,-187.461,-265.482771)"
       id="path13" />
    <path
       style="fill-rule:nonzero;fill:rgb(0%,0%,0%);fill-opacity:1;stroke-width:0.710172;stroke-linecap:butt;stroke-linejoin:miter;stroke:rgb(0%,0%,0%);stroke-opacity:1;stroke-miterlimit:4;"
       d="M 225.414125 333.146834 C 225.414125 335.455427 223.468813 337.326521 221.066469 337.326521 C 218.664125 337.326521 216.718813 335.455427 216.718813 333.146834 C 216.718813 330.834334 218.664125 328.96324 221.066469 328.96324 C 223.468813 328.96324 225.414125 330.834334 225.414125 333.146834 Z M 225.414125 333.146834 "
       transform="matrix(1,0,0,1,-187.461,-265.482771)"
       id="path15" />
    <path
       style="fill-rule:nonzero;fill:rgb(0%,0%,0%);fill-opacity:1;stroke-width:0.710172;stroke-linecap:butt;stroke-linejoin:miter;stroke:rgb(0%,0%,0%);stroke-opacity:1;stroke-miterlimit:4;"
       d="M 258.007875 342.998396 C 258.007875 345.310896 256.062563 347.185896 253.660219 347.185896 C 251.257875 347.185896 249.312563 345.310896 249.312563 342.998396 C 249.312563 340.689802 251.257875 338.818709 253.660219 338.818709 C 256.062563 338.818709 258.007875 340.689802 258.007875 342.998396 Z M 258.007875 342.998396 "
       transform="matrix(1,0,0,1,-187.461,-265.482771)"
       id="path17" />
    <path
       style="fill-rule:nonzero;fill:rgb(0%,0%,0%);fill-opacity:1;stroke-width:0.710172;stroke-linecap:butt;stroke-linejoin:miter;stroke:rgb(0%,0%,0%);stroke-opacity:1;stroke-miterlimit:4;"
       d="M 298.812563 348.260115 C 298.812563 350.568709 296.86725 352.439802 294.464906 352.439802 C 292.066469 352.439802 290.11725 350.568709 290.11725 348.260115 C 290.11725 345.951521 292.066469 344.076521 294.464906 344.076521 C 296.86725 344.076521 298.812563 345.951521 298.812563 348.260115 Z M 298.812563 348.260115 "
       transform="matrix(1,0,0,1,-187.461,-265.482771)"
       id="path19" />
    <path
       style="fill-rule:nonzero;fill:rgb(0%,0%,0%);fill-opacity:1;stroke-width:0.710172;stroke-linecap:butt;stroke-linejoin:miter;stroke:rgb(0%,0%,0%);stroke-opacity:1;stroke-miterlimit:4;"
       d="M 333.382875 348.201521 C 333.382875 350.510115 331.437563 352.381209 329.035219 352.381209 C 326.632875 352.381209 324.687563 350.510115 324.687563 348.201521 C 324.687563 345.896834 326.632875 344.021834 329.035219 344.021834 C 331.437563 344.021834 333.382875 345.896834 333.382875 348.201521 Z M 333.382875 348.201521 "
       transform="matrix(1,0,0,1,-187.461,-265.482771)"
       id="path21" />
    <path
       style="fill-rule:nonzero;fill:rgb(0%,0%,0%);fill-opacity:1;stroke-width:0.710172;stroke-linecap:butt;stroke-linejoin:miter;stroke:rgb(0%,0%,0%);stroke-opacity:1;stroke-miterlimit:4;"
       d="M 368.671938 343.90074 C 368.671938 346.209334 366.726625 348.080427 364.324281 348.080427 C 361.921938 348.080427 359.976625 346.209334 359.976625 343.90074 C 359.976625 341.592146 361.921938 339.717146 364.324281 339.717146 C 366.726625 339.717146 368.671938 341.592146 368.671938 343.90074 Z M 368.671938 343.90074 "
       transform="matrix(1,0,0,1,-187.461,-265.482771)"
       id="path23" />
    <path
       style="fill-rule:nonzero;fill:rgb(0%,0%,0%);fill-opacity:1;stroke-width:0.710172;stroke-linecap:butt;stroke-linejoin:miter;stroke:rgb(0%,0%,0%);stroke-opacity:1;stroke-miterlimit:4;"
       d="M 397.238344 335.021834 C 397.238344 337.326521 395.293031 339.201521 392.890688 339.201521 C 390.49225 339.201521 388.543031 337.326521 388.543031 335.021834 C 388.543031 332.709334 390.49225 330.83824 392.890688 330.83824 C 395.293031 330.83824 397.238344 332.709334 397.238344 335.021834 Z M 397.238344 335.021834 "
       transform="matrix(1,0,0,1,-187.461,-265.482771)"
       id="path25" />
    <g
       clip-path="url(#clip1)"
       clip-rule="nonzero"
       id="g29">
      <path
         style="fill:none;stroke-width:1.683779;stroke-linecap:butt;stroke-linejoin:miter;stroke:rgb(0%,0%,0%);stroke-opacity:1;stroke-miterlimit:4;"
         d="M 379.359438 379.041365 C 413.402406 376.170271 444.414125 351.205427 453.199281 334.576521 "
         transform="matrix(1,0,0,1,-187.461,-265.482771)"
         id="path27" />
    </g>
    <g
       clip-path="url(#clip2)"
       clip-rule="nonzero"
       id="g33">
      <path
         style="fill:none;stroke-width:2.102339;stroke-linecap:butt;stroke-linejoin:miter;stroke:rgb(0%,0%,0%);stroke-opacity:1;stroke-miterlimit:4;"
         d="M 453.687563 334.654646 L 446.402406 337.881209 "
         transform="matrix(1,0,0,1,-187.461,-265.482771)"
         id="path31" />
    </g>
    <g
       clip-path="url(#clip3)"
       clip-rule="nonzero"
       id="g37">
      <path
         style="fill:none;stroke-width:2.231155;stroke-linecap:butt;stroke-linejoin:miter;stroke:rgb(0%,0%,0%);stroke-opacity:1;stroke-miterlimit:4;"
         d="M 452.671938 334.24449 L 454.605531 340.303084 "
         transform="matrix(1,0,0,1,-187.461,-265.482771)"
         id="path35" />
    </g>
    <path
       style="fill-rule:nonzero;fill:rgb(0%,0%,0%);fill-opacity:1;stroke-width:0.195968;stroke-linecap:butt;stroke-linejoin:miter;stroke:rgb(0%,0%,0%);stroke-opacity:1;stroke-miterlimit:4;"
       d="M 263.573352 318.71324 L 259.125051 318.662459 L 255.483865 318.603865 L 257.749288 314.77574 L 259.624912 311.65074 L 261.803204 315.52574 Z M 263.573352 318.71324 "
       transform="matrix(0.8518,0,0,1,-187.461,-265.482771)"
       id="path39" />
    <path
       style="fill:none;stroke-width:2.117271;stroke-linecap:butt;stroke-linejoin:miter;stroke:rgb(0%,0%,0%);stroke-opacity:1;stroke-miterlimit:4;"
       d="M 221.285219 317.174177 L 221.269594 344.842146 "
       transform="matrix(1,0,0,1,-187.461,-265.482771)"
       id="path41" />
    <path
       style="fill-rule:nonzero;fill:rgb(0%,0%,0%);fill-opacity:1;stroke-width:0.195968;stroke-linecap:butt;stroke-linejoin:miter;stroke:rgb(0%,0%,0%);stroke-opacity:1;stroke-miterlimit:4;"
       d="M 301.966314 327.006209 L 297.518013 326.955427 L 293.876827 326.896834 L 296.14225 323.068709 L 298.017874 319.943709 L 300.196165 323.822615 Z M 301.966314 327.006209 "
       transform="matrix(0.8518,0,0,1,-187.461,-265.482771)"
       id="path43" />
    <path
       style="fill:none;stroke-width:2.117271;stroke-linecap:butt;stroke-linejoin:miter;stroke:rgb(0%,0%,0%);stroke-opacity:1;stroke-miterlimit:4;"
       d="M 253.988344 325.467146 L 253.972719 353.142927 "
       transform="matrix(1,0,0,1,-187.461,-265.482771)"
       id="path45" />
    <path
       style="fill-rule:nonzero;fill:rgb(0%,0%,0%);fill-opacity:1;stroke-width:0.195968;stroke-linecap:butt;stroke-linejoin:miter;stroke:rgb(0%,0%,0%);stroke-opacity:1;stroke-miterlimit:4;"
       d="M 349.714465 332.928084 L 345.27075 332.877302 L 341.624978 332.814802 L 343.894987 328.986677 L 345.770611 325.865584 L 347.948902 329.740584 Z M 349.714465 332.928084 "
       transform="matrix(0.8518,0,0,1,-187.461,-265.482771)"
       id="path47" />
    <path
       style="fill:none;stroke-width:2.117271;stroke-linecap:butt;stroke-linejoin:miter;stroke:rgb(0%,0%,0%);stroke-opacity:1;stroke-miterlimit:4;"
       d="M 294.660219 331.392927 L 294.6485 359.060896 "
       transform="matrix(1,0,0,1,-187.461,-265.482771)"
       id="path49" />
    <path
       style="fill-rule:nonzero;fill:rgb(0%,0%,0%);fill-opacity:1;stroke-width:0.195968;stroke-linecap:butt;stroke-linejoin:miter;stroke:rgb(0%,0%,0%);stroke-opacity:1;stroke-miterlimit:4;"
       d="M 390.359093 333.521834 L 385.910792 333.467146 L 382.269606 333.404646 L 384.535029 329.580427 L 386.410652 326.455427 L 388.59353 330.330427 Z M 390.359093 333.521834 "
       transform="matrix(0.8518,0,0,1,-187.461,-265.482771)"
       id="path51" />
    <path
       style="fill:none;stroke-width:2.117271;stroke-linecap:butt;stroke-linejoin:miter;stroke:rgb(0%,0%,0%);stroke-opacity:1;stroke-miterlimit:4;"
       d="M 329.281313 331.978865 L 329.269594 359.65074 "
       transform="matrix(1,0,0,1,-187.461,-265.482771)"
       id="path53" />
    <path
       style="fill-rule:nonzero;fill:rgb(0%,0%,0%);fill-opacity:1;stroke-width:0.195968;stroke-linecap:butt;stroke-linejoin:miter;stroke:rgb(0%,0%,0%);stroke-opacity:1;stroke-miterlimit:4;"
       d="M 431.52651 328.580427 L 427.082795 328.529646 L 423.437023 328.467146 L 425.707032 324.646834 L 427.582656 321.521834 L 429.760947 325.396834 Z M 431.52651 328.580427 "
       transform="matrix(0.8518,0,0,1,-187.461,-265.482771)"
       id="path55" />
    <path
       style="fill:none;stroke-width:2.117271;stroke-linecap:butt;stroke-linejoin:miter;stroke:rgb(0%,0%,0%);stroke-opacity:1;stroke-miterlimit:4;"
       d="M 364.347719 327.041365 L 364.336 354.709334 "
       transform="matrix(1,0,0,1,-187.461,-265.482771)"
       id="path57" />
    <path
       style="fill-rule:nonzero;fill:rgb(0%,0%,0%);fill-opacity:1;stroke-width:0.195968;stroke-linecap:butt;stroke-linejoin:miter;stroke:rgb(0%,0%,0%);stroke-opacity:1;stroke-miterlimit:4;"
       d="M 464.985068 318.471052 L 460.541354 318.420271 L 456.895581 318.357771 L 459.165591 314.533552 L 461.041214 311.408552 L 463.219506 315.287459 Z M 464.985068 318.471052 "
       transform="matrix(0.8518,0,0,1,-187.461,-265.482771)"
       id="path59" />
    <path
       style="fill:none;stroke-width:2.117271;stroke-linecap:butt;stroke-linejoin:miter;stroke:rgb(0%,0%,0%);stroke-opacity:1;stroke-miterlimit:4;"
       d="M 392.847719 316.935896 L 392.836 344.603865 "
       transform="matrix(1,0,0,1,-187.461,-265.482771)"
       id="path61" />
    <path
       style=" stroke:none;fill-rule:evenodd;fill:rgb(0%,0%,0%);fill-opacity:1;"
       d="M 142.566406 99.539063 L 142.566406 99.378906 L 142.535156 99.363281 L 142.535156 99.261719 L 142.507813 99.253906 L 142.507813 99.222656 L 142.480469 99.21875 L 142.480469 99.214844 L 142.449219 99.210938 L 142.449219 99.199219 L 142.421875 99.199219 L 142.421875 99.195313 L 142.390625 99.191406 L 142.363281 99.191406 L 142.363281 99.1875 L 142.332031 99.1875 L 142.304688 99.183594 L 142.21875 99.183594 C 141.316406 100.058594 140.066406 100.058594 139.605469 100.058594 L 139.605469 100.484375 C 139.894531 100.484375 140.734375 100.484375 141.492188 100.128906 L 141.492188 107.199219 C 141.492188 107.691406 141.433594 107.855469 140.15625 107.855469 L 139.660156 107.855469 L 139.660156 108.28125 C 140.183594 108.234375 141.433594 108.234375 142.015625 108.234375 C 142.59375 108.234375 143.84375 108.234375 144.367188 108.28125 L 144.367188 107.855469 L 143.902344 107.855469 C 142.59375 107.855469 142.566406 107.703125 142.566406 107.199219 Z M 142.566406 99.539063 "
       id="path63" />
    <path
       style=" stroke:none;fill-rule:evenodd;fill:rgb(0%,0%,0%);fill-opacity:1;"
       d="M 175.386719 104.128906 L 176.898438 102.71875 C 179.164063 100.839844 180.035156 100.101563 180.035156 98.734375 C 180.035156 97.175781 178.726563 96.085938 176.957031 96.085938 C 175.328125 96.085938 174.253906 97.339844 174.253906 98.558594 C 174.253906 99.320313 174.980469 99.320313 175.011719 99.320313 C 175.273438 99.320313 175.765625 99.15625 175.765625 98.597656 C 175.765625 98.242188 175.53125 97.886719 175.011719 97.886719 C 174.894531 97.886719 174.863281 97.886719 174.835938 97.898438 C 175.15625 97.011719 175.941406 96.507813 176.78125 96.507813 C 178.089844 96.507813 178.726563 97.613281 178.726563 98.734375 C 178.726563 99.828125 178 100.902344 177.1875 101.757813 L 174.429688 104.671875 C 174.253906 104.820313 174.253906 104.847656 174.253906 105.179688 L 179.628906 105.179688 L 180.035156 102.800781 L 179.65625 102.800781 C 179.597656 103.214844 179.480469 103.8125 179.367188 104.015625 C 179.25 104.128906 178.292969 104.128906 177.972656 104.128906 Z M 175.386719 104.128906 "
       id="path65" />
    <path
       style=" stroke:none;fill-rule:evenodd;fill:rgb(0%,0%,0%);fill-opacity:1;"
       d="M 208.242188 86.71875 L 208.328125 86.679688 L 208.445313 86.640625 L 208.5625 86.597656 L 208.648438 86.554688 L 208.765625 86.507813 L 208.851563 86.453125 L 208.96875 86.394531 L 209.054688 86.339844 L 209.144531 86.277344 L 209.230469 86.214844 L 209.316406 86.148438 L 209.402344 86.078125 L 209.460938 86.007813 L 209.550781 85.933594 L 209.605469 85.855469 L 209.695313 85.78125 L 209.8125 85.617188 L 209.867188 85.535156 L 209.925781 85.449219 L 209.984375 85.359375 L 210.015625 85.273438 L 210.070313 85.183594 L 210.101563 85.089844 L 210.128906 84.996094 L 210.160156 84.902344 L 210.1875 84.804688 L 210.21875 84.710938 L 210.246094 84.609375 L 210.246094 84.3125 C 210.246094 83.191406 208.996094 82.425781 207.605469 82.425781 C 206.121094 82.425781 205.046875 83.253906 205.046875 84.285156 C 205.046875 84.734375 205.339844 84.996094 205.773438 84.996094 C 206.210938 84.996094 206.5 84.695313 206.5 84.296875 C 206.5 83.617188 205.832031 83.617188 205.628906 83.617188 C 206.066406 82.949219 207.023438 82.769531 207.546875 82.769531 C 208.125 82.769531 208.941406 83.066406 208.941406 84.296875 C 208.941406 84.464844 208.882813 85.253906 208.53125 85.855469 C 208.097656 86.511719 207.605469 86.550781 207.226563 86.566406 C 207.109375 86.585938 206.761719 86.605469 206.675781 86.605469 C 206.558594 86.617188 206.441406 86.632813 206.441406 86.765625 C 206.441406 86.921875 206.558594 86.921875 206.789063 86.921875 L 207.429688 86.921875 C 208.621094 86.921875 209.171875 87.847656 209.171875 89.1875 C 209.171875 91.046875 208.15625 91.4375 207.515625 91.4375 C 206.90625 91.4375 205.804688 91.214844 205.308594 90.402344 C 205.804688 90.464844 206.269531 90.171875 206.269531 89.648438 C 206.269531 89.15625 205.890625 88.886719 205.453125 88.886719 C 205.105469 88.886719 204.640625 89.078125 204.640625 89.679688 C 204.640625 90.921875 205.976563 91.820313 207.574219 91.820313 C 209.316406 91.820313 210.652344 90.578125 210.652344 89.1875 C 210.652344 88.066406 209.722656 87.007813 208.242188 86.71875 Z M 208.242188 86.71875 "
       id="path67" />
    <path
       style=" stroke:none;fill-rule:evenodd;fill:rgb(0%,0%,0%);fill-opacity:1;"
       d="M 111.421875 101.21875 L 111.453125 101.117188 L 111.453125 101.066406 L 111.480469 101.019531 L 111.480469 100.972656 L 111.511719 100.925781 L 111.566406 100.839844 L 111.566406 100.796875 L 111.597656 100.753906 L 111.625 100.710938 L 111.65625 100.671875 L 111.683594 100.632813 L 111.742188 100.59375 L 111.773438 100.558594 L 111.800781 100.523438 L 111.917969 100.460938 L 111.945313 100.429688 L 112.0625 100.378906 L 112.121094 100.351563 L 112.207031 100.328125 L 112.265625 100.304688 L 112.324219 100.285156 L 112.496094 100.257813 L 112.585938 100.242188 L 112.757813 100.21875 L 112.875 100.214844 L 112.933594 100.214844 L 112.960938 100.210938 C 113.050781 100.210938 113.222656 100.195313 113.222656 99.933594 C 113.222656 99.921875 113.222656 99.785156 113.050781 99.785156 C 112.554688 99.785156 112.0625 99.824219 111.566406 99.824219 C 111.074219 99.824219 110.582031 99.785156 110.085938 99.785156 C 110 99.785156 109.824219 99.785156 109.824219 100.058594 C 109.824219 100.210938 109.972656 100.210938 110.085938 100.210938 C 110.929688 100.21875 111.074219 100.507813 111.074219 100.808594 C 111.074219 100.851563 111.046875 101.054688 111.046875 101.09375 L 109.417969 107.171875 L 106.226563 100.046875 C 106.109375 99.796875 106.078125 99.785156 105.761719 99.785156 L 103.816406 99.785156 C 103.523438 99.785156 103.410156 99.785156 103.410156 100.058594 C 103.410156 100.210938 103.523438 100.210938 103.785156 100.210938 C 103.871094 100.210938 104.773438 100.210938 104.773438 100.335938 L 102.855469 107.664063 C 102.710938 108.214844 102.449219 108.648438 101.289063 108.6875 C 101.203125 108.6875 101.027344 108.699219 101.027344 108.964844 C 101.027344 109.054688 101.113281 109.109375 101.230469 109.109375 C 101.695313 109.109375 102.1875 109.066406 102.683594 109.066406 C 103.175781 109.066406 103.699219 109.109375 104.164063 109.109375 C 104.222656 109.109375 104.425781 109.109375 104.425781 108.839844 C 104.425781 108.699219 104.308594 108.6875 104.132813 108.6875 C 103.292969 108.660156 103.175781 108.359375 103.175781 108.089844 C 103.175781 107.992188 103.207031 107.921875 103.234375 107.773438 L 105.152344 100.5625 C 105.207031 100.644531 105.207031 100.671875 105.265625 100.808594 L 108.867188 108.851563 C 108.984375 109.085938 109.011719 109.109375 109.15625 109.109375 C 109.304688 109.109375 109.304688 109.066406 109.390625 108.824219 Z M 111.421875 101.21875 "
       id="path69" />
    <path
       style=" stroke:none;fill-rule:evenodd;fill:rgb(0%,0%,0%);fill-opacity:1;"
       d="M 60.601563 91.1875 L 60.632813 91.089844 L 60.660156 91.035156 L 60.660156 90.988281 L 60.691406 90.941406 L 60.691406 90.894531 L 60.71875 90.847656 L 60.75 90.800781 L 60.777344 90.761719 L 60.804688 90.71875 L 60.835938 90.675781 L 60.863281 90.636719 L 60.894531 90.601563 L 60.921875 90.5625 L 60.953125 90.527344 L 61.007813 90.492188 L 61.039063 90.464844 L 61.097656 90.425781 L 61.15625 90.398438 L 61.210938 90.371094 L 61.269531 90.34375 L 61.445313 90.273438 L 61.53125 90.257813 L 61.621094 90.238281 L 61.675781 90.222656 L 61.765625 90.214844 L 61.851563 90.195313 L 61.96875 90.1875 L 62.054688 90.179688 L 62.113281 90.179688 L 62.171875 90.175781 C 62.230469 90.175781 62.402344 90.164063 62.402344 89.902344 C 62.402344 89.890625 62.402344 89.757813 62.230469 89.757813 C 61.734375 89.757813 61.242188 89.796875 60.777344 89.796875 C 60.285156 89.796875 59.761719 89.757813 59.296875 89.757813 C 59.210938 89.757813 59.035156 89.757813 59.035156 90.027344 C 59.035156 90.175781 59.179688 90.175781 59.296875 90.175781 C 60.109375 90.1875 60.285156 90.476563 60.285156 90.773438 C 60.285156 90.820313 60.253906 91.023438 60.226563 91.0625 L 58.597656 97.136719 L 55.40625 90.011719 C 55.289063 89.765625 55.289063 89.757813 54.941406 89.757813 L 53.023438 89.757813 C 52.734375 89.757813 52.589844 89.757813 52.589844 90.027344 C 52.589844 90.175781 52.734375 90.175781 52.996094 90.175781 C 53.054688 90.175781 53.980469 90.175781 53.980469 90.300781 L 52.035156 97.632813 C 51.890625 98.179688 51.660156 98.617188 50.46875 98.652344 C 50.382813 98.652344 50.234375 98.671875 50.234375 98.929688 C 50.234375 99.023438 50.292969 99.078125 50.410156 99.078125 C 50.875 99.078125 51.398438 99.035156 51.863281 99.035156 C 52.355469 99.035156 52.878906 99.078125 53.34375 99.078125 C 53.429688 99.078125 53.605469 99.078125 53.605469 98.804688 C 53.605469 98.671875 53.488281 98.652344 53.34375 98.652344 C 52.5 98.632813 52.386719 98.328125 52.386719 98.054688 C 52.386719 97.964844 52.386719 97.890625 52.441406 97.742188 L 54.332031 90.53125 C 54.390625 90.613281 54.390625 90.636719 54.476563 90.773438 L 58.078125 98.820313 C 58.164063 99.050781 58.222656 99.078125 58.339844 99.078125 C 58.511719 99.078125 58.511719 99.035156 58.570313 98.796875 Z M 60.601563 91.1875 "
       id="path71" />
    <path
       style=" stroke:none;fill-rule:evenodd;fill:rgb(0%,0%,0%);fill-opacity:1;"
       d="M 75.644531 95.941406 L 75.703125 95.9375 L 75.789063 95.9375 L 75.820313 95.933594 L 75.847656 95.933594 L 75.878906 95.929688 L 75.933594 95.921875 L 75.964844 95.921875 L 75.964844 95.910156 L 75.992188 95.90625 L 76.023438 95.898438 L 76.023438 95.890625 L 76.050781 95.882813 L 76.050781 95.871094 L 76.082031 95.863281 L 76.082031 95.851563 L 76.109375 95.839844 L 76.109375 95.808594 L 76.136719 95.800781 L 76.136719 95.714844 L 76.167969 95.703125 L 76.167969 95.671875 C 76.167969 95.394531 75.90625 95.394531 75.644531 95.394531 L 67.804688 95.394531 C 67.570313 95.394531 67.3125 95.394531 67.3125 95.671875 C 67.3125 95.941406 67.570313 95.941406 67.804688 95.941406 Z M 75.644531 95.941406 "
       id="path73" />
    <path
       style=" stroke:none;fill-rule:evenodd;fill:rgb(0%,0%,0%);fill-opacity:1;"
       d="M 84.820313 90.339844 L 84.820313 90.089844 L 84.792969 90.070313 L 84.792969 90.039063 L 84.761719 90.03125 L 84.761719 90.015625 L 84.734375 90.011719 L 84.734375 90.007813 L 84.703125 90.003906 L 84.703125 89.996094 L 84.675781 89.996094 L 84.675781 89.992188 L 84.648438 89.988281 L 84.617188 89.984375 L 84.5 89.984375 C 83.601563 90.859375 82.324219 90.859375 81.859375 90.859375 L 81.859375 91.28125 C 82.148438 91.28125 82.992188 91.28125 83.746094 90.925781 L 83.746094 98.003906 C 83.746094 98.492188 83.71875 98.652344 82.410156 98.652344 L 81.945313 98.652344 L 81.945313 99.078125 C 82.46875 99.035156 83.71875 99.035156 84.296875 99.035156 C 84.878906 99.035156 86.128906 99.035156 86.652344 99.078125 L 86.652344 98.652344 L 86.1875 98.652344 C 84.878906 98.652344 84.820313 98.507813 84.820313 98.003906 Z M 84.820313 90.339844 "
       id="path75" />
    <path
       style=" stroke:none;fill-rule:evenodd;fill:rgb(0%,0%,0%);fill-opacity:1;"
       d="M 21.226563 79.253906 L 21.257813 79.148438 L 21.285156 79.097656 L 21.285156 79.050781 L 21.316406 79.003906 L 21.316406 78.953125 L 21.34375 78.910156 L 21.371094 78.863281 L 21.402344 78.824219 L 21.429688 78.78125 L 21.460938 78.738281 L 21.488281 78.699219 L 21.519531 78.660156 L 21.546875 78.628906 L 21.578125 78.589844 L 21.632813 78.554688 L 21.664063 78.523438 L 21.722656 78.488281 L 21.78125 78.460938 L 21.835938 78.429688 L 22.070313 78.339844 L 22.15625 78.316406 L 22.242188 78.300781 L 22.300781 78.285156 L 22.390625 78.273438 L 22.476563 78.257813 L 22.59375 78.253906 L 22.679688 78.242188 L 22.738281 78.238281 L 22.796875 78.238281 C 22.855469 78.238281 23.027344 78.226563 23.027344 77.964844 C 23.027344 77.953125 23.027344 77.816406 22.855469 77.816406 C 22.359375 77.816406 21.867188 77.855469 21.402344 77.855469 C 20.910156 77.855469 20.386719 77.816406 19.921875 77.816406 C 19.832031 77.816406 19.660156 77.816406 19.660156 78.089844 C 19.660156 78.238281 19.804688 78.238281 19.921875 78.238281 C 20.734375 78.253906 20.910156 78.539063 20.910156 78.839844 C 20.910156 78.882813 20.878906 79.089844 20.851563 79.128906 L 19.222656 85.199219 L 16.03125 78.074219 C 15.914063 77.824219 15.914063 77.816406 15.566406 77.816406 L 13.648438 77.816406 C 13.359375 77.816406 13.214844 77.816406 13.214844 78.089844 C 13.214844 78.238281 13.359375 78.238281 13.621094 78.238281 C 13.679688 78.238281 14.605469 78.238281 14.605469 78.363281 L 12.660156 85.695313 C 12.515625 86.242188 12.285156 86.675781 11.09375 86.714844 C 11.007813 86.714844 10.859375 86.730469 10.859375 86.988281 C 10.859375 87.089844 10.917969 87.140625 11.035156 87.140625 C 11.5 87.140625 12.023438 87.097656 12.488281 87.097656 C 12.980469 87.097656 13.503906 87.140625 13.96875 87.140625 C 14.054688 87.140625 14.230469 87.140625 14.230469 86.867188 C 14.230469 86.730469 14.113281 86.714844 13.96875 86.714844 C 13.125 86.691406 13.011719 86.390625 13.011719 86.117188 C 13.011719 86.023438 13.011719 85.953125 13.066406 85.804688 L 14.957031 78.59375 C 15.011719 78.675781 15.011719 78.699219 15.101563 78.839844 L 18.703125 86.882813 C 18.789063 87.113281 18.847656 87.140625 18.960938 87.140625 C 19.136719 87.140625 19.136719 87.097656 19.195313 86.851563 Z M 21.226563 79.253906 "
       id="path77" />
    <path
       style=" stroke:none;fill-rule:evenodd;fill:rgb(0%,0%,0%);fill-opacity:1;"
       d="M 36.269531 84.007813 L 36.328125 84.003906 L 36.414063 84.003906 L 36.445313 83.996094 L 36.472656 83.996094 L 36.503906 83.992188 L 36.53125 83.988281 L 36.53125 83.984375 L 36.558594 83.984375 L 36.589844 83.976563 L 36.589844 83.972656 L 36.617188 83.96875 L 36.648438 83.964844 L 36.648438 83.953125 L 36.675781 83.945313 L 36.675781 83.933594 L 36.707031 83.921875 L 36.707031 83.914063 L 36.734375 83.898438 L 36.734375 83.871094 L 36.761719 83.863281 L 36.761719 83.773438 L 36.792969 83.765625 L 36.792969 83.730469 C 36.792969 83.453125 36.53125 83.453125 36.269531 83.453125 L 28.429688 83.453125 C 28.195313 83.453125 27.9375 83.453125 27.9375 83.730469 C 27.9375 84.007813 28.195313 84.007813 28.429688 84.007813 Z M 36.269531 84.007813 "
       id="path79" />
    <path
       style=" stroke:none;fill-rule:evenodd;fill:rgb(0%,0%,0%);fill-opacity:1;"
       d="M 43.035156 86.089844 L 44.574219 84.683594 C 46.8125 82.796875 47.683594 82.0625 47.683594 80.695313 C 47.683594 79.136719 46.402344 78.046875 44.632813 78.046875 C 43.007813 78.046875 41.933594 79.304688 41.933594 80.519531 C 41.933594 81.28125 42.660156 81.28125 42.6875 81.28125 C 42.949219 81.28125 43.441406 81.121094 43.441406 80.558594 C 43.441406 80.203125 43.179688 79.847656 42.660156 79.847656 C 42.570313 79.847656 42.511719 79.847656 42.484375 79.863281 C 42.804688 78.972656 43.585938 78.46875 44.429688 78.46875 C 45.765625 78.46875 46.375 79.578125 46.375 80.695313 C 46.375 81.789063 45.648438 82.867188 44.863281 83.714844 L 42.078125 86.632813 C 41.933594 86.785156 41.933594 86.8125 41.933594 87.140625 L 47.273438 87.140625 L 47.683594 84.765625 L 47.332031 84.765625 C 47.273438 85.175781 47.160156 85.773438 47.015625 85.980469 C 46.925781 86.089844 45.96875 86.089844 45.648438 86.089844 Z M 43.035156 86.089844 "
       id="path81" />
    <path
       style=" stroke:none;fill-rule:evenodd;fill:rgb(0%,0%,0%);fill-opacity:1;"
       d="M 226.859375 78.121094 L 226.808594 78.054688 L 226.765625 77.992188 L 226.71875 77.925781 L 226.671875 77.863281 L 226.582031 77.839844 L 226.535156 77.777344 L 226.496094 77.71875 L 226.402344 77.695313 L 226.363281 77.636719 L 226.183594 77.597656 L 226.148438 77.546875 L 225.976563 77.511719 L 225.894531 77.496094 L 225.8125 77.484375 L 225.78125 77.441406 L 225.703125 77.4375 L 225.625 77.429688 L 225.550781 77.429688 L 225.421875 77.464844 L 225.347656 77.464844 L 225.28125 77.46875 L 225.210938 77.472656 L 225.144531 77.484375 L 225.078125 77.492188 L 224.964844 77.546875 L 224.902344 77.5625 L 224.847656 77.585938 L 224.789063 77.605469 L 224.683594 77.671875 L 224.628906 77.695313 C 223.867188 78.175781 223.664063 79.132813 224.164063 79.835938 C 224.65625 80.515625 225.679688 80.710938 226.441406 80.222656 C 227.152344 79.769531 227.347656 78.804688 226.859375 78.121094 Z M 226.859375 78.121094 "
       id="path83" />
    <path
       style=" stroke:none;fill-rule:evenodd;fill:rgb(0%,0%,0%);fill-opacity:1;"
       d="M 238.085938 70.996094 L 238.039063 70.929688 L 237.992188 70.867188 L 237.945313 70.800781 L 237.851563 70.769531 L 237.808594 70.714844 L 237.765625 70.648438 L 237.671875 70.628906 L 237.632813 70.566406 L 237.539063 70.546875 L 237.5 70.488281 L 237.414063 70.46875 L 237.324219 70.449219 L 237.289063 70.402344 L 237.207031 70.386719 L 237.121094 70.371094 L 236.957031 70.347656 L 236.800781 70.339844 L 236.726563 70.339844 L 236.652344 70.335938 L 236.574219 70.335938 L 236.507813 70.339844 L 236.4375 70.34375 L 236.371094 70.359375 L 236.253906 70.398438 L 236.191406 70.421875 L 236.132813 70.433594 L 236.074219 70.460938 L 235.855469 70.566406 C 235.09375 71.050781 234.894531 72.007813 235.394531 72.703125 C 235.882813 73.386719 236.90625 73.578125 237.667969 73.097656 C 238.378906 72.644531 238.574219 71.679688 238.085938 70.996094 Z M 238.085938 70.996094 "
       id="path85" />
    <path
       style=" stroke:none;fill-rule:evenodd;fill:rgb(0%,0%,0%);fill-opacity:1;"
       d="M 249.3125 63.867188 L 249.265625 63.800781 L 249.21875 63.738281 L 249.121094 63.703125 L 249.078125 63.640625 L 249.035156 63.589844 L 248.992188 63.523438 L 248.898438 63.496094 L 248.859375 63.441406 L 248.765625 63.414063 L 248.730469 63.363281 L 248.640625 63.339844 L 248.550781 63.320313 L 248.519531 63.273438 L 248.347656 63.242188 L 248.265625 63.230469 L 248.183594 63.222656 L 248.027344 63.210938 L 247.804688 63.210938 L 247.664063 63.21875 L 247.546875 63.261719 L 247.480469 63.269531 L 247.417969 63.289063 L 247.359375 63.308594 L 247.25 63.363281 L 247.191406 63.382813 L 247.136719 63.410156 L 247.035156 63.472656 C 246.320313 63.921875 246.121094 64.882813 246.621094 65.578125 C 247.109375 66.261719 248.136719 66.453125 248.847656 66.003906 C 249.609375 65.515625 249.804688 64.550781 249.3125 63.867188 Z M 249.3125 63.867188 "
       id="path87" />
  </g>
</svg>
