<?xml version="1.0" encoding="UTF-8" standalone="no"?>
<svg
   xmlns:dc="http://purl.org/dc/elements/1.1/"
   xmlns:cc="http://creativecommons.org/ns#"
   xmlns:rdf="http://www.w3.org/1999/02/22-rdf-syntax-ns#"
   xmlns:svg="http://www.w3.org/2000/svg"
   xmlns="http://www.w3.org/2000/svg"
   xmlns:sodipodi="http://sodipodi.sourceforge.net/DTD/sodipodi-0.dtd"
   xmlns:inkscape="http://www.inkscape.org/namespaces/inkscape"
   width="223.799pt"
   height="169.799pt"
   viewBox="0 0 223.799 169.799"
   version="1.2"
   id="svg52"
   sodipodi:docname="pozoseminfinito.svg"
   inkscape:version="0.92.4 (5da689c313, 2019-01-14)">
  <metadata
     id="metadata56">
    <rdf:RDF>
      <cc:Work
         rdf:about="">
        <dc:format>image/svg+xml</dc:format>
        <dc:type
           rdf:resource="http://purl.org/dc/dcmitype/StillImage" />
        <dc:title></dc:title>
      </cc:Work>
    </rdf:RDF>
  </metadata>
  <sodipodi:namedview
     pagecolor="#ffffff"
     bordercolor="#666666"
     borderopacity="1"
     objecttolerance="10"
     gridtolerance="10"
     guidetolerance="10"
     inkscape:pageopacity="0"
     inkscape:pageshadow="2"
     inkscape:window-width="727"
     inkscape:window-height="480"
     id="namedview54"
     showgrid="false"
     inkscape:zoom="1.042409"
     inkscape:cx="149.19933"
     inkscape:cy="113.19933"
     inkscape:window-x="0"
     inkscape:window-y="0"
     inkscape:window-maximized="0"
     inkscape:current-layer="svg52" />
  <defs
     id="defs5">
    <clipPath
       id="clip1">
      <path
         d="M 203 78 L 223.800781 78 L 223.800781 94 L 203 94 Z M 203 78 "
         id="path2" />
    </clipPath>
  </defs>
  <g
     id="surface34">
    <path
       style="fill:none;stroke-width:0.751181;stroke-linecap:butt;stroke-linejoin:miter;stroke:rgb(0%,0%,0%);stroke-opacity:1;stroke-miterlimit:4;"
       d="M 143.944531 216.100552 L 143.944531 334.666959 L 223.495313 334.666959 L 223.495313 282.389615 L 331.835156 282.389615 "
       transform="matrix(1,0,0,1,-112.8,-196.799771)"
       id="path7" />
    <path
       style="fill-rule:evenodd;fill:rgb(0%,0%,0%);fill-opacity:1;stroke-width:0.80126;stroke-linecap:butt;stroke-linejoin:miter;stroke:rgb(0%,0%,0%);stroke-opacity:1;stroke-miterlimit:4;"
       d="M 223.612271 -143.944531 L 226.616177 -146.952344 L 216.100552 -143.944531 L 226.616177 -140.940625 Z M 223.612271 -143.944531 "
       transform="matrix(0,1,-1,0,-112.8,-196.799771)"
       id="path9" />
    <path
       style=" stroke:none;fill-rule:evenodd;fill:rgb(0%,0%,0%);fill-opacity:1;"
       d="M 211.523438 85.589844 L 208.519531 88.59375 L 219.035156 85.589844 L 208.519531 82.585938 Z M 211.523438 85.589844 "
       id="path11" />
    <g
       clip-path="url(#clip1)"
       clip-rule="nonzero"
       id="g15">
      <path
         style="fill:none;stroke-width:0.80126;stroke-linecap:butt;stroke-linejoin:miter;stroke:rgb(0%,0%,0%);stroke-opacity:1;stroke-miterlimit:4;"
         d="M -324.323438 -282.389615 L -321.319531 -285.393521 L -331.835156 -282.389615 L -321.319531 -279.385709 Z M -324.323438 -282.389615 "
         transform="matrix(-1,0,0,-1,-112.8,-196.799771)"
         id="path13" />
    </g>
    <path
       style=" stroke:none;fill-rule:nonzero;fill:rgb(0%,0%,0%);fill-opacity:1;"
       d="M 15.398438 120.789063 L 15.398438 120.136719 L 14.792969 120.136719 C 12.863281 120.136719 12.828125 119.90625 12.828125 119.15625 L 12.828125 108.179688 C 12.828125 107.429688 12.863281 107.199219 14.792969 107.199219 L 15.398438 107.199219 L 15.398438 106.546875 C 14.566406 106.613281 12.675781 106.613281 11.730469 106.613281 C 10.820313 106.613281 8.890625 106.613281 8.058594 106.546875 L 8.058594 107.199219 L 8.664063 107.199219 C 10.59375 107.199219 10.667969 107.429688 10.667969 108.179688 L 10.667969 119.15625 C 10.667969 119.90625 10.59375 120.136719 8.664063 120.136719 L 8.058594 120.136719 L 8.058594 120.789063 C 8.890625 120.722656 10.820313 120.722656 11.730469 120.722656 C 12.675781 120.722656 14.566406 120.722656 15.398438 120.789063 Z M 15.398438 120.789063 "
       id="path17" />
    <path
       style=" stroke:none;fill-rule:nonzero;fill:rgb(0%,0%,0%);fill-opacity:1;"
       d="M 72.464844 120.789063 L 72.464844 120.136719 L 71.859375 120.136719 C 69.933594 120.136719 69.894531 119.90625 69.894531 119.15625 L 69.894531 108.179688 C 69.894531 107.429688 69.933594 107.199219 71.859375 107.199219 L 72.464844 107.199219 L 72.464844 106.546875 C 71.632813 106.613281 69.742188 106.613281 68.796875 106.613281 C 67.886719 106.613281 65.957031 106.613281 65.125 106.546875 L 65.125 107.199219 L 65.730469 107.199219 C 67.660156 107.199219 67.738281 107.429688 67.738281 108.179688 L 67.738281 119.15625 C 67.738281 119.90625 67.660156 120.136719 65.730469 120.136719 L 65.125 120.136719 L 65.125 120.789063 C 65.957031 120.722656 67.886719 120.722656 68.796875 120.722656 C 69.742188 120.722656 71.632813 120.722656 72.464844 120.789063 Z M 72.464844 120.789063 "
       id="path19" />
    <path
       style=" stroke:none;fill-rule:nonzero;fill:rgb(0%,0%,0%);fill-opacity:1;"
       d="M 81.828125 120.789063 L 81.828125 120.136719 L 81.222656 120.136719 C 79.292969 120.136719 79.253906 119.90625 79.253906 119.15625 L 79.253906 108.179688 C 79.253906 107.429688 79.292969 107.199219 81.222656 107.199219 L 81.828125 107.199219 L 81.828125 106.546875 C 80.996094 106.613281 79.101563 106.613281 78.15625 106.613281 C 77.25 106.613281 75.320313 106.613281 74.488281 106.546875 L 74.488281 107.199219 L 75.09375 107.199219 C 77.023438 107.199219 77.097656 107.429688 77.097656 108.179688 L 77.097656 119.15625 C 77.097656 119.90625 77.023438 120.136719 75.09375 120.136719 L 74.488281 120.136719 L 74.488281 120.789063 C 75.320313 120.722656 77.25 120.722656 78.15625 120.722656 C 79.101563 120.722656 80.996094 120.722656 81.828125 120.789063 Z M 81.828125 120.789063 "
       id="path21" />
    <path
       style=" stroke:none;fill-rule:nonzero;fill:rgb(0%,0%,0%);fill-opacity:1;"
       d="M 131.652344 121.441406 L 131.652344 120.789063 L 131.046875 120.789063 C 129.117188 120.789063 129.078125 120.558594 129.078125 119.808594 L 129.078125 108.835938 C 129.078125 108.082031 129.117188 107.855469 131.046875 107.855469 L 131.652344 107.855469 L 131.652344 107.199219 C 130.820313 107.265625 128.925781 107.265625 127.980469 107.265625 C 127.074219 107.265625 125.144531 107.265625 124.3125 107.199219 L 124.3125 107.855469 L 124.917969 107.855469 C 126.847656 107.855469 126.921875 108.082031 126.921875 108.835938 L 126.921875 119.808594 C 126.921875 120.558594 126.847656 120.789063 124.917969 120.789063 L 124.3125 120.789063 L 124.3125 121.441406 C 125.144531 121.375 127.074219 121.375 127.980469 121.375 C 128.925781 121.375 130.820313 121.375 131.652344 121.441406 Z M 131.652344 121.441406 "
       id="path23" />
    <path
       style=" stroke:none;fill-rule:nonzero;fill:rgb(0%,0%,0%);fill-opacity:1;"
       d="M 141.011719 121.441406 L 141.011719 120.789063 L 140.40625 120.789063 C 138.476563 120.789063 138.4375 120.558594 138.4375 119.808594 L 138.4375 108.835938 C 138.4375 108.082031 138.476563 107.855469 140.40625 107.855469 L 141.011719 107.855469 L 141.011719 107.199219 C 140.179688 107.265625 138.289063 107.265625 137.34375 107.265625 C 136.433594 107.265625 134.503906 107.265625 133.671875 107.199219 L 133.671875 107.855469 L 134.277344 107.855469 C 136.207031 107.855469 136.28125 108.082031 136.28125 108.835938 L 136.28125 119.808594 C 136.28125 120.558594 136.207031 120.789063 134.277344 120.789063 L 133.671875 120.789063 L 133.671875 121.441406 C 134.503906 121.375 136.433594 121.375 137.34375 121.375 C 138.289063 121.375 140.179688 121.375 141.011719 121.441406 Z M 141.011719 121.441406 "
       id="path25" />
    <path
       style=" stroke:none;fill-rule:nonzero;fill:rgb(0%,0%,0%);fill-opacity:1;"
       d="M 150.398438 121.441406 L 150.398438 120.789063 L 149.792969 120.789063 C 147.863281 120.789063 147.824219 120.558594 147.824219 119.808594 L 147.824219 108.835938 C 147.824219 108.082031 147.863281 107.855469 149.792969 107.855469 L 150.398438 107.855469 L 150.398438 107.199219 C 149.5625 107.265625 147.671875 107.265625 146.726563 107.265625 C 145.816406 107.265625 143.890625 107.265625 143.054688 107.199219 L 143.054688 107.855469 L 143.660156 107.855469 C 145.589844 107.855469 145.667969 108.082031 145.667969 108.835938 L 145.667969 119.808594 C 145.667969 120.558594 145.589844 120.789063 143.660156 120.789063 L 143.054688 120.789063 L 143.054688 121.441406 C 143.890625 121.375 145.816406 121.375 146.726563 121.375 C 147.671875 121.375 149.5625 121.375 150.398438 121.441406 Z M 150.398438 121.441406 "
       id="path27" />
    <path
       style=" stroke:none;fill-rule:nonzero;fill:rgb(0%,0%,0%);fill-opacity:1;"
       d="M 18.226563 148.304688 C 18.3125 147.949219 18.648438 146.640625 19.621094 146.640625 C 19.6875 146.640625 20.042969 146.640625 20.328125 146.820313 C 19.929688 146.90625 19.664063 147.238281 19.664063 147.59375 C 19.664063 147.816406 19.820313 148.082031 20.195313 148.082031 C 20.507813 148.082031 20.949219 147.839844 20.949219 147.261719 C 20.949219 146.53125 20.128906 146.332031 19.644531 146.332031 C 18.824219 146.332031 18.335938 147.085938 18.160156 147.394531 C 17.804688 146.464844 17.050781 146.332031 16.632813 146.332031 C 15.167969 146.332031 14.351563 148.148438 14.351563 148.503906 C 14.351563 148.65625 14.503906 148.65625 14.527344 148.65625 C 14.636719 148.65625 14.683594 148.613281 14.703125 148.503906 C 15.191406 146.996094 16.121094 146.640625 16.609375 146.640625 C 16.875 146.640625 17.363281 146.773438 17.363281 147.59375 C 17.363281 148.039063 17.117188 148.96875 16.609375 150.960938 C 16.386719 151.824219 15.878906 152.421875 15.257813 152.421875 C 15.167969 152.421875 14.859375 152.421875 14.550781 152.246094 C 14.902344 152.15625 15.214844 151.867188 15.214844 151.46875 C 15.214844 151.09375 14.902344 150.984375 14.703125 150.984375 C 14.261719 150.984375 13.929688 151.335938 13.929688 151.800781 C 13.929688 152.445313 14.617188 152.730469 15.234375 152.730469 C 16.1875 152.730469 16.699219 151.734375 16.71875 151.667969 C 16.898438 152.179688 17.40625 152.730469 18.246094 152.730469 C 19.710938 152.730469 20.507813 150.917969 20.507813 150.5625 C 20.507813 150.40625 20.394531 150.40625 20.351563 150.40625 C 20.21875 150.40625 20.195313 150.472656 20.152344 150.5625 C 19.6875 152.089844 18.734375 152.421875 18.292969 152.421875 C 17.738281 152.421875 17.515625 151.980469 17.515625 151.492188 C 17.515625 151.183594 17.582031 150.871094 17.738281 150.25 Z M 18.226563 148.304688 "
       id="path29" />
    <path
       style=" stroke:none;fill-rule:nonzero;fill:rgb(0%,0%,0%);fill-opacity:1;"
       d="M 35.199219 147.949219 C 35.421875 147.949219 35.6875 147.949219 35.6875 147.683594 C 35.6875 147.394531 35.421875 147.394531 35.222656 147.394531 L 26.761719 147.394531 C 26.5625 147.394531 26.296875 147.394531 26.296875 147.683594 C 26.296875 147.949219 26.5625 147.949219 26.761719 147.949219 Z M 35.222656 150.695313 C 35.421875 150.695313 35.6875 150.695313 35.6875 150.40625 C 35.6875 150.140625 35.421875 150.140625 35.199219 150.140625 L 26.761719 150.140625 C 26.5625 150.140625 26.296875 150.140625 26.296875 150.40625 C 26.296875 150.695313 26.5625 150.695313 26.761719 150.695313 Z M 35.222656 150.695313 "
       id="path31" />
    <path
       style=" stroke:none;fill-rule:nonzero;fill:rgb(0%,0%,0%);fill-opacity:1;"
       d="M 46.882813 148.058594 C 46.882813 146.929688 46.816406 145.800781 46.328125 144.757813 C 45.6875 143.386719 44.515625 143.164063 43.9375 143.164063 C 43.074219 143.164063 42.054688 143.542969 41.457031 144.847656 C 41.015625 145.824219 40.949219 146.929688 40.949219 148.058594 C 40.949219 149.121094 40.992188 150.382813 41.589844 151.46875 C 42.1875 152.597656 43.230469 152.886719 43.914063 152.886719 C 44.667969 152.886719 45.753906 152.597656 46.375 151.25 C 46.816406 150.273438 46.882813 149.167969 46.882813 148.058594 Z M 43.914063 152.578125 C 43.363281 152.578125 42.519531 152.222656 42.277344 150.871094 C 42.121094 150.03125 42.121094 148.722656 42.121094 147.882813 C 42.121094 146.972656 42.121094 146.042969 42.234375 145.292969 C 42.5 143.609375 43.5625 143.476563 43.914063 143.476563 C 44.382813 143.476563 45.3125 143.742188 45.578125 145.136719 C 45.730469 145.933594 45.730469 146.996094 45.730469 147.882813 C 45.730469 148.945313 45.730469 149.898438 45.578125 150.804688 C 45.355469 152.15625 44.558594 152.578125 43.914063 152.578125 Z M 43.914063 152.578125 "
       id="path33" />
    <path
       style=" stroke:none;fill-rule:nonzero;fill:rgb(0%,0%,0%);fill-opacity:1;"
       d="M 99.226563 148.304688 C 99.3125 147.949219 99.648438 146.640625 100.621094 146.640625 C 100.6875 146.640625 101.042969 146.640625 101.328125 146.820313 C 100.929688 146.90625 100.664063 147.238281 100.664063 147.59375 C 100.664063 147.816406 100.820313 148.082031 101.195313 148.082031 C 101.507813 148.082031 101.949219 147.839844 101.949219 147.261719 C 101.949219 146.53125 101.128906 146.332031 100.644531 146.332031 C 99.824219 146.332031 99.335938 147.085938 99.160156 147.394531 C 98.804688 146.464844 98.050781 146.332031 97.632813 146.332031 C 96.167969 146.332031 95.351563 148.148438 95.351563 148.503906 C 95.351563 148.65625 95.503906 148.65625 95.527344 148.65625 C 95.636719 148.65625 95.683594 148.613281 95.703125 148.503906 C 96.191406 146.996094 97.121094 146.640625 97.609375 146.640625 C 97.875 146.640625 98.363281 146.773438 98.363281 147.59375 C 98.363281 148.039063 98.117188 148.96875 97.609375 150.960938 C 97.386719 151.824219 96.878906 152.421875 96.257813 152.421875 C 96.167969 152.421875 95.859375 152.421875 95.550781 152.246094 C 95.902344 152.15625 96.214844 151.867188 96.214844 151.46875 C 96.214844 151.09375 95.902344 150.984375 95.703125 150.984375 C 95.261719 150.984375 94.929688 151.335938 94.929688 151.800781 C 94.929688 152.445313 95.617188 152.730469 96.234375 152.730469 C 97.1875 152.730469 97.699219 151.734375 97.71875 151.667969 C 97.898438 152.179688 98.40625 152.730469 99.246094 152.730469 C 100.710938 152.730469 101.507813 150.917969 101.507813 150.5625 C 101.507813 150.40625 101.394531 150.40625 101.351563 150.40625 C 101.21875 150.40625 101.195313 150.472656 101.152344 150.5625 C 100.6875 152.089844 99.734375 152.421875 99.292969 152.421875 C 98.738281 152.421875 98.515625 151.980469 98.515625 151.492188 C 98.515625 151.183594 98.582031 150.871094 98.738281 150.25 Z M 99.226563 148.304688 "
       id="path35" />
    <path
       style=" stroke:none;fill-rule:nonzero;fill:rgb(0%,0%,0%);fill-opacity:1;"
       d="M 116.199219 147.949219 C 116.421875 147.949219 116.6875 147.949219 116.6875 147.683594 C 116.6875 147.394531 116.421875 147.394531 116.222656 147.394531 L 107.761719 147.394531 C 107.5625 147.394531 107.296875 147.394531 107.296875 147.683594 C 107.296875 147.949219 107.5625 147.949219 107.761719 147.949219 Z M 116.222656 150.695313 C 116.421875 150.695313 116.6875 150.695313 116.6875 150.40625 C 116.6875 150.140625 116.421875 150.140625 116.199219 150.140625 L 107.761719 150.140625 C 107.5625 150.140625 107.296875 150.140625 107.296875 150.40625 C 107.296875 150.695313 107.5625 150.695313 107.761719 150.695313 Z M 116.222656 150.695313 "
       id="path37" />
    <path
       style=" stroke:none;fill-rule:nonzero;fill:rgb(0%,0%,0%);fill-opacity:1;"
       d="M 126.699219 144.027344 C 126.808594 143.519531 126.851563 143.363281 128.183594 143.363281 C 128.601563 143.363281 128.714844 143.363281 128.714844 143.097656 C 128.714844 142.921875 128.558594 142.921875 128.492188 142.921875 C 128.027344 142.921875 126.875 142.964844 126.410156 142.964844 C 125.988281 142.964844 124.949219 142.921875 124.527344 142.921875 C 124.4375 142.921875 124.261719 142.921875 124.261719 143.210938 C 124.261719 143.363281 124.394531 143.363281 124.660156 143.363281 C 124.683594 143.363281 124.949219 143.363281 125.191406 143.386719 C 125.4375 143.429688 125.570313 143.429688 125.570313 143.628906 C 125.570313 143.675781 125.570313 143.71875 125.523438 143.894531 L 123.621094 151.46875 C 123.488281 152.023438 123.464844 152.132813 122.335938 152.132813 C 122.09375 152.132813 121.957031 152.132813 121.957031 152.421875 C 121.957031 152.578125 122.09375 152.578125 122.335938 152.578125 L 128.890625 152.578125 C 129.222656 152.578125 129.222656 152.578125 129.3125 152.332031 L 130.441406 149.277344 C 130.484375 149.121094 130.484375 149.101563 130.484375 149.078125 C 130.484375 149.035156 130.441406 148.921875 130.328125 148.921875 C 130.195313 148.921875 130.175781 149.011719 130.085938 149.234375 C 129.597656 150.515625 128.980469 152.132813 126.542969 152.132813 L 125.214844 152.132813 C 125.015625 152.132813 124.972656 152.132813 124.90625 152.132813 C 124.75 152.113281 124.703125 152.089844 124.703125 151.980469 C 124.703125 151.933594 124.703125 151.914063 124.769531 151.667969 Z M 126.699219 144.027344 "
       id="path39" />
    <path
       style=" stroke:none;fill-rule:nonzero;fill:rgb(0%,0%,0%);fill-opacity:1;"
       d="M 182.363281 68.476563 C 182.519531 67.902344 182.761719 67.480469 183.894531 67.4375 C 183.960938 67.4375 184.136719 67.414063 184.136719 67.148438 C 184.136719 67.148438 184.136719 66.992188 183.960938 66.992188 C 183.492188 66.992188 182.984375 67.039063 182.519531 67.039063 C 182.03125 67.039063 181.5 66.992188 181.035156 66.992188 C 180.945313 66.992188 180.792969 66.992188 180.792969 67.28125 C 180.792969 67.4375 180.925781 67.4375 181.035156 67.4375 C 181.855469 67.457031 182.011719 67.746094 182.011719 68.054688 C 182.011719 68.101563 181.964844 68.320313 181.964844 68.34375 L 180.679688 73.394531 C 180.214844 75.296875 178.578125 76.515625 177.160156 76.515625 C 176.207031 76.515625 175.457031 75.894531 175.457031 74.675781 C 175.457031 74.65625 175.457031 74.210938 175.609375 73.59375 L 176.960938 68.078125 C 177.09375 67.570313 177.117188 67.4375 178.15625 67.4375 C 178.535156 67.4375 178.644531 67.4375 178.644531 67.148438 C 178.644531 66.992188 178.488281 66.992188 178.445313 66.992188 C 178.046875 66.992188 177.027344 67.039063 176.628906 67.039063 C 176.230469 67.039063 175.210938 66.992188 174.8125 66.992188 C 174.703125 66.992188 174.546875 66.992188 174.546875 67.28125 C 174.546875 67.4375 174.65625 67.4375 174.945313 67.4375 C 174.96875 67.4375 175.234375 67.4375 175.476563 67.457031 C 175.722656 67.503906 175.855469 67.503906 175.855469 67.703125 C 175.855469 67.769531 175.699219 68.367188 175.609375 68.699219 L 175.300781 69.9375 C 175.167969 70.492188 174.503906 73.148438 174.4375 73.4375 C 174.347656 73.8125 174.347656 74.035156 174.347656 74.257813 C 174.347656 75.960938 175.632813 76.957031 177.117188 76.957031 C 178.886719 76.957031 180.636719 75.363281 181.101563 73.503906 Z M 182.363281 68.476563 "
       id="path41" />
    <path
       style=" stroke:none;fill-rule:nonzero;fill:rgb(0%,0%,0%);fill-opacity:1;"
       d="M 198.195313 72.019531 C 198.417969 72.019531 198.683594 72.019531 198.683594 71.753906 C 198.683594 71.464844 198.417969 71.464844 198.21875 71.464844 L 189.757813 71.464844 C 189.558594 71.464844 189.292969 71.464844 189.292969 71.753906 C 189.292969 72.019531 189.558594 72.019531 189.757813 72.019531 Z M 198.21875 74.765625 C 198.417969 74.765625 198.683594 74.765625 198.683594 74.476563 C 198.683594 74.210938 198.417969 74.210938 198.195313 74.210938 L 189.757813 74.210938 C 189.558594 74.210938 189.292969 74.210938 189.292969 74.476563 C 189.292969 74.765625 189.558594 74.765625 189.757813 74.765625 Z M 198.21875 74.765625 "
       id="path43" />
    <path
       style=" stroke:none;fill-rule:nonzero;fill:rgb(0%,0%,0%);fill-opacity:1;"
       d="M 212.371094 68.476563 C 212.527344 67.902344 212.769531 67.480469 213.898438 67.4375 C 213.964844 67.4375 214.140625 67.414063 214.140625 67.148438 C 214.140625 67.148438 214.140625 66.992188 213.964844 66.992188 C 213.5 66.992188 212.992188 67.039063 212.527344 67.039063 C 212.039063 67.039063 211.507813 66.992188 211.042969 66.992188 C 210.953125 66.992188 210.796875 66.992188 210.796875 67.28125 C 210.796875 67.4375 210.929688 67.4375 211.042969 67.4375 C 211.863281 67.457031 212.015625 67.746094 212.015625 68.054688 C 212.015625 68.101563 211.972656 68.320313 211.972656 68.34375 L 210.6875 73.394531 C 210.222656 75.296875 208.582031 76.515625 207.167969 76.515625 C 206.214844 76.515625 205.460938 75.894531 205.460938 74.675781 C 205.460938 74.65625 205.460938 74.210938 205.617188 73.59375 L 206.96875 68.078125 C 207.101563 67.570313 207.121094 67.4375 208.164063 67.4375 C 208.539063 67.4375 208.648438 67.4375 208.648438 67.148438 C 208.648438 66.992188 208.496094 66.992188 208.449219 66.992188 C 208.050781 66.992188 207.035156 67.039063 206.636719 67.039063 C 206.238281 67.039063 205.21875 66.992188 204.820313 66.992188 C 204.707031 66.992188 204.554688 66.992188 204.554688 67.28125 C 204.554688 67.4375 204.664063 67.4375 204.953125 67.4375 C 204.972656 67.4375 205.238281 67.4375 205.484375 67.457031 C 205.726563 67.503906 205.859375 67.503906 205.859375 67.703125 C 205.859375 67.769531 205.703125 68.367188 205.617188 68.699219 L 205.304688 69.9375 C 205.171875 70.492188 204.507813 73.148438 204.441406 73.4375 C 204.355469 73.8125 204.355469 74.035156 204.355469 74.257813 C 204.355469 75.960938 205.636719 76.957031 207.121094 76.957031 C 208.894531 76.957031 210.644531 75.363281 211.109375 73.503906 Z M 212.371094 68.476563 "
       id="path45" />
    <path
       style=" stroke:none;fill-rule:nonzero;fill:rgb(0%,0%,0%);fill-opacity:1;"
       d="M 218.136719 75.621094 C 218.136719 74.539063 218.003906 73.742188 217.5625 73.054688 C 217.25 72.609375 216.632813 72.210938 215.855469 72.210938 C 213.554688 72.210938 213.554688 74.914063 213.554688 75.621094 C 213.554688 76.332031 213.554688 78.964844 215.855469 78.964844 C 218.136719 78.964844 218.136719 76.332031 218.136719 75.621094 Z M 215.855469 78.679688 C 215.390625 78.679688 214.792969 78.414063 214.59375 77.617188 C 214.460938 77.039063 214.460938 76.21875 214.460938 75.488281 C 214.460938 74.757813 214.460938 74.007813 214.59375 73.472656 C 214.816406 72.699219 215.433594 72.476563 215.855469 72.476563 C 216.386719 72.476563 216.898438 72.808594 217.074219 73.386719 C 217.230469 73.917969 217.25 74.625 217.25 75.488281 C 217.25 76.21875 217.25 76.953125 217.117188 77.570313 C 216.917969 78.480469 216.253906 78.679688 215.855469 78.679688 Z M 215.855469 78.679688 "
       id="path47" />
    <path
       style=" stroke:none;fill-rule:nonzero;fill:rgb(0%,0%,0%);fill-opacity:1;"
       d="M 31.511719 11.789063 C 30.761719 10.835938 30.582031 10.613281 30.140625 10.261719 C 29.34375 9.617188 28.566406 9.375 27.835938 9.375 C 26.199219 9.375 25.113281 10.925781 25.113281 12.585938 C 25.113281 14.203125 26.15625 15.773438 27.792969 15.773438 C 29.410156 15.773438 30.582031 14.492188 31.269531 13.359375 C 32.046875 14.3125 32.199219 14.535156 32.644531 14.890625 C 33.441406 15.53125 34.238281 15.773438 34.945313 15.773438 C 36.605469 15.773438 37.671875 14.226563 37.671875 12.5625 C 37.671875 10.949219 36.628906 9.375 35.011719 9.375 C 33.375 9.375 32.199219 10.660156 31.511719 11.789063 Z M 31.890625 12.277344 C 32.464844 11.257813 33.507813 9.816406 35.101563 9.816406 C 36.605469 9.816406 37.359375 11.300781 37.359375 12.5625 C 37.359375 13.960938 36.40625 15.089844 35.167969 15.089844 C 34.347656 15.089844 33.726563 14.511719 33.417969 14.203125 C 33.0625 13.828125 32.753906 13.382813 31.890625 12.277344 Z M 30.914063 12.875 C 30.339844 13.894531 29.277344 15.332031 27.683594 15.332031 C 26.199219 15.332031 25.421875 13.847656 25.421875 12.585938 C 25.421875 11.191406 26.375 10.0625 27.617188 10.0625 C 28.433594 10.0625 29.078125 10.636719 29.367188 10.949219 C 29.71875 11.324219 30.050781 11.765625 30.914063 12.875 Z M 30.914063 12.875 "
       id="path49" />
  </g>
</svg>
