<?xml version="1.0" encoding="UTF-8" standalone="no"?>
<svg
   xmlns:dc="http://purl.org/dc/elements/1.1/"
   xmlns:cc="http://creativecommons.org/ns#"
   xmlns:rdf="http://www.w3.org/1999/02/22-rdf-syntax-ns#"
   xmlns:svg="http://www.w3.org/2000/svg"
   xmlns="http://www.w3.org/2000/svg"
   xmlns:sodipodi="http://sodipodi.sourceforge.net/DTD/sodipodi-0.dtd"
   xmlns:inkscape="http://www.inkscape.org/namespaces/inkscape"
   width="87pt"
   height="65.625pt"
   viewBox="0 0 87 65.625"
   version="1.2"
   id="svg85"
   sodipodi:docname="412.svg"
   inkscape:version="0.92.4 (5da689c313, 2019-01-14)">
  <metadata
     id="metadata91">
    <rdf:RDF>
      <cc:Work
         rdf:about="">
        <dc:format>image/svg+xml</dc:format>
        <dc:type
           rdf:resource="http://purl.org/dc/dcmitype/StillImage" />
        <dc:title></dc:title>
      </cc:Work>
    </rdf:RDF>
  </metadata>
  <defs
     id="defs89" />
  <sodipodi:namedview
     pagecolor="#ffffff"
     bordercolor="#666666"
     borderopacity="1"
     objecttolerance="10"
     gridtolerance="10"
     guidetolerance="10"
     inkscape:pageopacity="0"
     inkscape:pageshadow="2"
     inkscape:window-width="1920"
     inkscape:window-height="1001"
     id="namedview87"
     showgrid="false"
     inkscape:zoom="2.6971429"
     inkscape:cx="58"
     inkscape:cy="43.75"
     inkscape:window-x="-9"
     inkscape:window-y="-9"
     inkscape:window-maximized="1"
     inkscape:current-layer="svg85" />
  <g
     id="surface44">
    <path
       style="fill:none;stroke-width:0.80398;stroke-linecap:butt;stroke-linejoin:miter;stroke:rgb(0%,0%,0%);stroke-opacity:1;stroke-miterlimit:4;"
       d="M 61.976563 145.460709 L 61.976563 205.29274 "
       transform="matrix(1,0,0,1,-24.375,-143.624771)"
       id="path2" />
    <path
       style="fill:none;stroke-width:0.80398;stroke-linecap:butt;stroke-linejoin:miter;stroke:rgb(0%,0%,0%);stroke-opacity:1;stroke-miterlimit:4;"
       d="M 19.285156 177.609146 L 109.285156 177.609146 "
       transform="matrix(1,0,0,1,-24.375,-143.624771)"
       id="path4" />
    <path
       style="fill:none;stroke-width:0.80398;stroke-linecap:butt;stroke-linejoin:miter;stroke:rgb(0%,0%,0%);stroke-opacity:1;stroke-miterlimit:4;"
       d="M 61.171875 177.038834 L 29.78125 153.906021 "
       transform="matrix(1,0,0,1,-24.375,-143.624771)"
       id="path6" />
    <path
       style="fill-rule:evenodd;fill:rgb(0%,0%,0%);fill-opacity:1;stroke-width:0.345189;stroke-linecap:butt;stroke-linejoin:miter;stroke:rgb(0%,0%,0%);stroke-opacity:1;stroke-miterlimit:4;"
       d="M -121.601886 -85.519761 L -120.31041 -86.815205 L -124.840366 -85.520031 L -120.308973 -84.22642 Z M -121.601886 -85.519761 "
       transform="matrix(-1,-0.736904,0.736904,-1,-24.375,-143.624771)"
       id="path8" />
    <path
       style="fill:none;stroke-width:0.80398;stroke-linecap:butt;stroke-linejoin:miter;stroke:rgb(0%,0%,0%);stroke-opacity:1;stroke-miterlimit:4;"
       d="M 58.660156 175.113052 C 59.554688 174.265396 60.714844 174.253677 61.902344 174.503677 "
       transform="matrix(1,0,0,1,-24.375,-143.624771)"
       id="path10" />
    <path
       style="fill:none;stroke-width:0.751181;stroke-linecap:butt;stroke-linejoin:miter;stroke:rgb(0%,0%,0%);stroke-opacity:1;stroke-miterlimit:4;"
       d="M 61.949219 177.601334 L 75.667969 202.363052 "
       transform="matrix(1,0,0,1,-24.375,-143.624771)"
       id="path12" />
    <path
       style="fill-rule:evenodd;fill:rgb(0%,0%,0%);fill-opacity:1;stroke-width:0.350446;stroke-linecap:butt;stroke-linejoin:miter;stroke:rgb(0%,0%,0%);stroke-opacity:1;stroke-miterlimit:4;"
       d="M -184.287517 -27.882504 L -182.973174 -29.19734 L -187.57283 -27.882222 L -182.972682 -26.568161 Z M -184.287517 -27.882504 "
       transform="matrix(-0.55399,-1,1,-0.55399,-24.375,-143.624771)"
       id="path14" />
    <path
       style="fill:none;stroke-width:0.75;stroke-linecap:butt;stroke-linejoin:miter;stroke:rgb(0%,0%,0%);stroke-opacity:1;stroke-miterlimit:4;"
       d="M 62.160156 187.413834 C 63.792969 187.050552 65.40625 186.339615 65.875 184.652115 "
       transform="matrix(1,0,0,1,-24.375,-143.624771)"
       id="path16" />
    <path
       style="fill:none;stroke-width:0.75;stroke-linecap:butt;stroke-linejoin:miter;stroke:rgb(0%,0%,0%);stroke-opacity:1;stroke-miterlimit:4;"
       d="M 61.949219 177.601334 L 105.679688 177.601334 "
       transform="matrix(1,0,0,1,-24.375,-143.624771)"
       id="path18" />
    <path
       style="fill-rule:evenodd;fill:rgb(0%,0%,0%);fill-opacity:1;stroke-width:0.4;stroke-linecap:butt;stroke-linejoin:miter;stroke:rgb(0%,0%,0%);stroke-opacity:1;stroke-miterlimit:4;"
       d="M -102.679688 -177.601334 L -101.179688 -179.101334 L -106.429688 -177.601334 L -101.179688 -176.101334 Z M -102.679688 -177.601334 "
       transform="matrix(-1,0,0,-1,-24.375,-143.624771)"
       id="path20" />
    <path
       style=" stroke:none;fill-rule:nonzero;fill:rgb(0%,0%,0%);fill-opacity:1;"
       d="M 23.277344 15.953125 C 23.277344 15.640625 23.125 15.554688 23.027344 15.554688 C 22.886719 15.554688 22.746094 15.703125 22.746094 15.828125 C 22.746094 15.898438 22.769531 15.933594 22.832031 15.996094 C 22.957031 16.109375 23.027344 16.253906 23.027344 16.457031 C 23.027344 16.695313 22.683594 17.988281 22.027344 17.988281 C 21.734375 17.988281 21.601563 17.792969 21.601563 17.492188 C 21.601563 17.183594 21.761719 16.765625 21.929688 16.296875 C 21.972656 16.199219 22 16.121094 22 16.011719 C 22 15.765625 21.824219 15.554688 21.539063 15.554688 C 21.007813 15.554688 20.796875 16.375 20.796875 16.421875 C 20.796875 16.484375 20.847656 16.484375 20.859375 16.484375 C 20.921875 16.484375 20.921875 16.464844 20.945313 16.375 C 21.113281 15.808594 21.355469 15.675781 21.523438 15.675781 C 21.566406 15.675781 21.664063 15.675781 21.664063 15.855469 C 21.664063 15.996094 21.601563 16.15625 21.566406 16.253906 C 21.320313 16.910156 21.246094 17.164063 21.246094 17.414063 C 21.246094 18.023438 21.742188 18.113281 22 18.113281 C 22.949219 18.113281 23.277344 16.242188 23.277344 15.953125 Z M 23.277344 15.953125 "
       id="path22" />
    <path
       style=" stroke:none;fill-rule:nonzero;fill:rgb(0%,0%,0%);fill-opacity:1;"
       d="M 24.648438 16.425781 C 24.648438 16.363281 24.597656 16.277344 24.492188 16.277344 C 24.382813 16.277344 24.269531 16.382813 24.269531 16.496094 C 24.269531 16.558594 24.3125 16.648438 24.429688 16.648438 C 24.535156 16.648438 24.648438 16.535156 24.648438 16.425781 Z M 23.84375 18.4375 C 23.824219 18.492188 23.808594 18.535156 23.808594 18.605469 C 23.808594 18.792969 23.957031 18.933594 24.179688 18.933594 C 24.570313 18.933594 24.746094 18.394531 24.746094 18.332031 C 24.746094 18.277344 24.695313 18.277344 24.683594 18.277344 C 24.632813 18.277344 24.625 18.304688 24.605469 18.347656 C 24.515625 18.667969 24.347656 18.828125 24.1875 18.828125 C 24.109375 18.828125 24.089844 18.773438 24.089844 18.6875 C 24.089844 18.597656 24.117188 18.527344 24.152344 18.4375 C 24.199219 18.332031 24.242188 18.226563 24.277344 18.117188 C 24.3125 18.023438 24.464844 17.667969 24.472656 17.613281 C 24.492188 17.578125 24.5 17.535156 24.5 17.488281 C 24.5 17.304688 24.339844 17.152344 24.128906 17.152344 C 23.730469 17.152344 23.550781 17.695313 23.550781 17.765625 C 23.550781 17.808594 23.605469 17.808594 23.621094 17.808594 C 23.675781 17.808594 23.675781 17.792969 23.691406 17.746094 C 23.789063 17.410156 23.96875 17.269531 24.109375 17.269531 C 24.171875 17.269531 24.207031 17.296875 24.207031 17.402344 C 24.207031 17.5 24.1875 17.550781 24.089844 17.800781 Z M 23.84375 18.4375 "
       id="path24" />
    <path
       style=" stroke:none;fill-rule:nonzero;fill:rgb(0%,0%,0%);fill-opacity:1;"
       d="M 34.160156 23.320313 C 34.160156 22.949219 34.0625 22.160156 33.484375 22.160156 C 32.695313 22.160156 31.828125 23.757813 31.828125 25.050781 C 31.828125 25.582031 31.988281 26.210938 32.5 26.210938 C 33.300781 26.210938 34.160156 24.589844 34.160156 23.320313 Z M 32.421875 24.09375 C 32.519531 23.738281 32.632813 23.285156 32.863281 22.878906 C 33.015625 22.605469 33.21875 22.285156 33.476563 22.285156 C 33.75 22.285156 33.785156 22.648438 33.785156 22.96875 C 33.785156 23.25 33.742188 23.535156 33.609375 24.09375 Z M 33.554688 24.277344 C 33.492188 24.535156 33.378906 25.015625 33.15625 25.421875 C 32.960938 25.8125 32.75 26.085938 32.5 26.085938 C 32.316406 26.085938 32.199219 25.917969 32.199219 25.394531 C 32.199219 25.15625 32.234375 24.828125 32.378906 24.277344 Z M 33.554688 24.277344 "
       id="path26" />
    <path
       style=" stroke:none;fill-rule:nonzero;fill:rgb(0%,0%,0%);fill-opacity:1;"
       d="M 35.523438 24.523438 C 35.523438 24.460938 35.472656 24.375 35.367188 24.375 C 35.257813 24.375 35.144531 24.480469 35.144531 24.59375 C 35.144531 24.65625 35.1875 24.746094 35.304688 24.746094 C 35.410156 24.746094 35.523438 24.628906 35.523438 24.523438 Z M 34.71875 26.535156 C 34.699219 26.589844 34.683594 26.632813 34.683594 26.703125 C 34.683594 26.890625 34.832031 27.03125 35.054688 27.03125 C 35.445313 27.03125 35.621094 26.492188 35.621094 26.429688 C 35.621094 26.375 35.570313 26.375 35.558594 26.375 C 35.507813 26.375 35.5 26.402344 35.480469 26.445313 C 35.390625 26.765625 35.222656 26.925781 35.0625 26.925781 C 34.984375 26.925781 34.964844 26.871094 34.964844 26.78125 C 34.964844 26.695313 34.992188 26.625 35.027344 26.535156 C 35.074219 26.429688 35.117188 26.324219 35.152344 26.214844 C 35.1875 26.117188 35.339844 25.765625 35.347656 25.710938 C 35.367188 25.675781 35.375 25.632813 35.375 25.585938 C 35.375 25.402344 35.214844 25.25 35.003906 25.25 C 34.605469 25.25 34.425781 25.789063 34.425781 25.863281 C 34.425781 25.90625 34.480469 25.90625 34.496094 25.90625 C 34.550781 25.90625 34.550781 25.886719 34.566406 25.84375 C 34.664063 25.507813 34.84375 25.367188 34.984375 25.367188 C 35.046875 25.367188 35.082031 25.390625 35.082031 25.5 C 35.082031 25.597656 35.0625 25.648438 34.964844 25.898438 Z M 34.71875 26.535156 "
       id="path28" />
    <path
       style=" stroke:none;fill-rule:nonzero;fill:rgb(0%,0%,0%);fill-opacity:1;"
       d="M 13.902344 38.585938 C 13.902344 38.273438 13.75 38.1875 13.652344 38.1875 C 13.511719 38.1875 13.371094 38.335938 13.371094 38.460938 C 13.371094 38.53125 13.398438 38.566406 13.460938 38.628906 C 13.582031 38.746094 13.652344 38.886719 13.652344 39.089844 C 13.652344 39.328125 13.308594 40.621094 12.652344 40.621094 C 12.359375 40.621094 12.226563 40.429688 12.226563 40.125 C 12.226563 39.816406 12.386719 39.398438 12.554688 38.929688 C 12.601563 38.832031 12.625 38.753906 12.625 38.648438 C 12.625 38.398438 12.449219 38.1875 12.167969 38.1875 C 11.632813 38.1875 11.421875 39.011719 11.421875 39.054688 C 11.421875 39.117188 11.476563 39.117188 11.484375 39.117188 C 11.546875 39.117188 11.546875 39.097656 11.574219 39.011719 C 11.742188 38.445313 11.980469 38.3125 12.148438 38.3125 C 12.191406 38.3125 12.289063 38.3125 12.289063 38.488281 C 12.289063 38.628906 12.226563 38.789063 12.191406 38.886719 C 11.945313 39.542969 11.875 39.800781 11.875 40.046875 C 11.875 40.65625 12.371094 40.746094 12.625 40.746094 C 13.574219 40.746094 13.902344 38.878906 13.902344 38.585938 Z M 13.902344 38.585938 "
       id="path30" />
    <path
       style=" stroke:none;fill-rule:nonzero;fill:rgb(0%,0%,0%);fill-opacity:1;"
       d="M 15.277344 39.0625 C 15.277344 39 15.222656 38.910156 15.117188 38.910156 C 15.011719 38.910156 14.894531 39.015625 14.894531 39.132813 C 14.894531 39.195313 14.9375 39.28125 15.054688 39.28125 C 15.160156 39.28125 15.277344 39.167969 15.277344 39.0625 Z M 14.46875 41.070313 C 14.453125 41.125 14.433594 41.167969 14.433594 41.238281 C 14.433594 41.425781 14.585938 41.566406 14.804688 41.566406 C 15.195313 41.566406 15.375 41.027344 15.375 40.964844 C 15.375 40.914063 15.320313 40.914063 15.3125 40.914063 C 15.257813 40.914063 15.25 40.9375 15.230469 40.984375 C 15.144531 41.300781 14.976563 41.460938 14.816406 41.460938 C 14.734375 41.460938 14.71875 41.410156 14.71875 41.320313 C 14.71875 41.230469 14.746094 41.160156 14.78125 41.070313 C 14.824219 40.964844 14.867188 40.859375 14.902344 40.753906 C 14.9375 40.65625 15.089844 40.300781 15.097656 40.246094 C 15.117188 40.210938 15.125 40.167969 15.125 40.125 C 15.125 39.9375 14.964844 39.789063 14.753906 39.789063 C 14.355469 39.789063 14.175781 40.328125 14.175781 40.398438 C 14.175781 40.441406 14.230469 40.441406 14.25 40.441406 C 14.300781 40.441406 14.300781 40.425781 14.320313 40.378906 C 14.417969 40.042969 14.59375 39.902344 14.734375 39.902344 C 14.796875 39.902344 14.832031 39.929688 14.832031 40.035156 C 14.832031 40.132813 14.816406 40.1875 14.71875 40.433594 Z M 14.46875 41.070313 "
       id="path32" />
    <path
       style=" stroke:none;fill-rule:nonzero;fill:rgb(0%,0%,0%);fill-opacity:1;"
       d="M 17.992188 39.585938 C 18.113281 39.613281 18.574219 39.703125 18.574219 40.109375 C 18.574219 40.390625 18.382813 40.621094 17.9375 40.621094 C 17.460938 40.621094 17.257813 40.304688 17.148438 39.816406 C 17.132813 39.746094 17.132813 39.726563 17.070313 39.726563 C 17 39.726563 17 39.761719 17 39.859375 L 17 40.613281 C 17 40.710938 17 40.746094 17.0625 40.746094 C 17.085938 40.746094 17.097656 40.738281 17.203125 40.632813 C 17.210938 40.621094 17.210938 40.613281 17.316406 40.507813 C 17.566406 40.738281 17.824219 40.746094 17.9375 40.746094 C 18.585938 40.746094 18.851563 40.367188 18.851563 39.957031 C 18.851563 39.667969 18.683594 39.488281 18.609375 39.425781 C 18.425781 39.242188 18.203125 39.195313 17.964844 39.152344 C 17.644531 39.089844 17.273438 39.019531 17.273438 38.691406 C 17.273438 38.488281 17.414063 38.257813 17.902344 38.257813 C 18.523438 38.257813 18.558594 38.769531 18.566406 38.941406 C 18.566406 38.992188 18.621094 38.992188 18.628906 38.992188 C 18.707031 38.992188 18.707031 38.964844 18.707031 38.859375 L 18.707031 38.285156 C 18.707031 38.195313 18.707031 38.152344 18.648438 38.152344 C 18.621094 38.152344 18.601563 38.152344 18.53125 38.222656 C 18.515625 38.238281 18.460938 38.292969 18.433594 38.3125 C 18.222656 38.152344 17.992188 38.152344 17.902344 38.152344 C 17.210938 38.152344 17 38.53125 17 38.851563 C 17 39.046875 17.085938 39.207031 17.238281 39.328125 C 17.425781 39.472656 17.582031 39.507813 17.992188 39.585938 Z M 17.992188 39.585938 "
       id="path34" />
    <path
       style=" stroke:none;fill-rule:nonzero;fill:rgb(0%,0%,0%);fill-opacity:1;"
       d="M 20.042969 38.1875 L 19.253906 38.25 L 19.253906 38.425781 C 19.617188 38.425781 19.667969 38.460938 19.667969 38.734375 L 19.667969 40.257813 C 19.667969 40.507813 19.609375 40.507813 19.226563 40.507813 L 19.226563 40.683594 C 19.402344 40.675781 19.714844 40.667969 19.847656 40.667969 C 20.050781 40.667969 20.246094 40.675781 20.441406 40.683594 L 20.441406 40.507813 C 20.058594 40.507813 20.042969 40.480469 20.042969 40.257813 Z M 20.058594 37.203125 C 20.058594 37.027344 19.925781 36.902344 19.765625 36.902344 C 19.589844 36.902344 19.464844 37.054688 19.464844 37.203125 C 19.464844 37.355469 19.589844 37.503906 19.765625 37.503906 C 19.925781 37.503906 20.058594 37.378906 20.058594 37.203125 Z M 20.058594 37.203125 "
       id="path36" />
    <path
       style=" stroke:none;fill-rule:nonzero;fill:rgb(0%,0%,0%);fill-opacity:1;"
       d="M 21.230469 38.746094 L 21.230469 40.257813 C 21.230469 40.507813 21.167969 40.507813 20.785156 40.507813 L 20.785156 40.683594 C 20.992188 40.675781 21.273438 40.667969 21.433594 40.667969 C 21.574219 40.667969 21.867188 40.675781 22.0625 40.683594 L 22.0625 40.507813 C 21.679688 40.507813 21.621094 40.507813 21.621094 40.257813 L 21.621094 39.214844 C 21.621094 38.628906 22.027344 38.3125 22.382813 38.3125 C 22.746094 38.3125 22.804688 38.613281 22.804688 38.941406 L 22.804688 40.257813 C 22.804688 40.507813 22.746094 40.507813 22.363281 40.507813 L 22.363281 40.683594 C 22.558594 40.675781 22.851563 40.667969 23 40.667969 C 23.144531 40.667969 23.445313 40.675781 23.628906 40.683594 L 23.628906 40.507813 C 23.339844 40.507813 23.195313 40.507813 23.195313 40.339844 L 23.195313 39.257813 C 23.195313 38.769531 23.195313 38.601563 23.019531 38.398438 C 22.9375 38.300781 22.753906 38.1875 22.425781 38.1875 C 22.007813 38.1875 21.742188 38.425781 21.585938 38.78125 L 21.585938 38.1875 L 20.785156 38.25 L 20.785156 38.425781 C 21.183594 38.425781 21.230469 38.460938 21.230469 38.746094 Z M 21.230469 38.746094 "
       id="path38" />
    <path
       style=" stroke:none;fill-rule:nonzero;fill:rgb(0%,0%,0%);fill-opacity:1;"
       d="M 25.617188 42.039063 C 25.617188 42.023438 25.617188 42.011719 25.519531 41.917969 C 24.820313 41.207031 24.632813 40.136719 24.632813 39.265625 C 24.632813 38.285156 24.847656 37.300781 25.546875 36.601563 C 25.617188 36.53125 25.617188 36.519531 25.617188 36.503906 C 25.617188 36.460938 25.597656 36.441406 25.5625 36.441406 C 25.5 36.441406 24.996094 36.832031 24.660156 37.550781 C 24.375 38.167969 24.304688 38.796875 24.304688 39.265625 C 24.304688 39.710938 24.367188 40.390625 24.679688 41.039063 C 25.023438 41.730469 25.5 42.101563 25.5625 42.101563 C 25.597656 42.101563 25.617188 42.085938 25.617188 42.039063 Z M 25.617188 42.039063 "
       id="path40" />
    <path
       style=" stroke:none;fill-rule:nonzero;fill:rgb(0%,0%,0%);fill-opacity:1;"
       d="M 28.511719 37.859375 C 28.511719 37.488281 28.414063 36.699219 27.839844 36.699219 C 27.050781 36.699219 26.183594 38.292969 26.183594 39.585938 C 26.183594 40.117188 26.34375 40.746094 26.855469 40.746094 C 27.652344 40.746094 28.511719 39.125 28.511719 37.859375 Z M 26.777344 38.628906 C 26.875 38.273438 26.988281 37.824219 27.21875 37.417969 C 27.371094 37.140625 27.574219 36.824219 27.832031 36.824219 C 28.105469 36.824219 28.140625 37.1875 28.140625 37.503906 C 28.140625 37.789063 28.097656 38.070313 27.964844 38.628906 Z M 27.910156 38.816406 C 27.847656 39.074219 27.734375 39.550781 27.511719 39.957031 C 27.316406 40.347656 27.105469 40.621094 26.855469 40.621094 C 26.671875 40.621094 26.554688 40.453125 26.554688 39.933594 C 26.554688 39.691406 26.589844 39.363281 26.730469 38.816406 Z M 27.910156 38.816406 "
       id="path42" />
    <path
       style=" stroke:none;fill-rule:nonzero;fill:rgb(0%,0%,0%);fill-opacity:1;"
       d="M 29.878906 39.0625 C 29.878906 39 29.828125 38.910156 29.71875 38.910156 C 29.613281 38.910156 29.5 39.015625 29.5 39.132813 C 29.5 39.195313 29.542969 39.28125 29.660156 39.28125 C 29.765625 39.28125 29.878906 39.167969 29.878906 39.0625 Z M 29.074219 41.070313 C 29.054688 41.125 29.039063 41.167969 29.039063 41.238281 C 29.039063 41.425781 29.1875 41.566406 29.410156 41.566406 C 29.800781 41.566406 29.976563 41.027344 29.976563 40.964844 C 29.976563 40.914063 29.925781 40.914063 29.914063 40.914063 C 29.863281 40.914063 29.851563 40.9375 29.835938 40.984375 C 29.746094 41.300781 29.578125 41.460938 29.417969 41.460938 C 29.339844 41.460938 29.320313 41.410156 29.320313 41.320313 C 29.320313 41.230469 29.347656 41.160156 29.382813 41.070313 C 29.429688 40.964844 29.472656 40.859375 29.507813 40.753906 C 29.542969 40.65625 29.695313 40.300781 29.703125 40.246094 C 29.71875 40.210938 29.730469 40.167969 29.730469 40.125 C 29.730469 39.9375 29.570313 39.789063 29.355469 39.789063 C 28.957031 39.789063 28.78125 40.328125 28.78125 40.398438 C 28.78125 40.441406 28.835938 40.441406 28.851563 40.441406 C 28.90625 40.441406 28.90625 40.425781 28.921875 40.378906 C 29.019531 40.042969 29.199219 39.902344 29.339844 39.902344 C 29.402344 39.902344 29.4375 39.929688 29.4375 40.035156 C 29.4375 40.132813 29.417969 40.1875 29.320313 40.433594 Z M 29.074219 41.070313 "
       id="path44" />
    <path
       style=" stroke:none;fill-rule:nonzero;fill:rgb(0%,0%,0%);fill-opacity:1;"
       d="M 32.105469 39.265625 C 32.105469 38.832031 32.042969 38.152344 31.734375 37.503906 C 31.398438 36.8125 30.910156 36.441406 30.855469 36.441406 C 30.820313 36.441406 30.792969 36.46875 30.792969 36.503906 C 30.792969 36.519531 30.792969 36.53125 30.902344 36.636719 C 31.460938 37.195313 31.777344 38.089844 31.777344 39.265625 C 31.777344 40.242188 31.574219 41.234375 30.875 41.941406 C 30.792969 42.011719 30.792969 42.023438 30.792969 42.039063 C 30.792969 42.074219 30.820313 42.101563 30.855469 42.101563 C 30.910156 42.101563 31.421875 41.710938 31.75 40.996094 C 32.042969 40.375 32.105469 39.746094 32.105469 39.265625 Z M 32.105469 39.265625 "
       id="path46" />
    <path
       style=" stroke:none;fill-rule:nonzero;fill:rgb(0%,0%,0%);fill-opacity:1;"
       d="M 49.792969 38.40625 C 49.792969 38.097656 49.644531 38.007813 49.546875 38.007813 C 49.402344 38.007813 49.261719 38.160156 49.261719 38.285156 C 49.261719 38.355469 49.289063 38.390625 49.351563 38.453125 C 49.476563 38.566406 49.546875 38.710938 49.546875 38.914063 C 49.546875 39.152344 49.199219 40.445313 48.546875 40.445313 C 48.253906 40.445313 48.121094 40.25 48.121094 39.949219 C 48.121094 39.640625 48.277344 39.222656 48.449219 38.753906 C 48.492188 38.65625 48.519531 38.578125 48.519531 38.46875 C 48.519531 38.222656 48.339844 38.007813 48.058594 38.007813 C 47.527344 38.007813 47.3125 38.832031 47.3125 38.878906 C 47.3125 38.941406 47.367188 38.941406 47.375 38.941406 C 47.4375 38.941406 47.4375 38.921875 47.464844 38.832031 C 47.632813 38.265625 47.871094 38.132813 48.039063 38.132813 C 48.085938 38.132813 48.183594 38.132813 48.183594 38.3125 C 48.183594 38.453125 48.121094 38.613281 48.085938 38.710938 C 47.835938 39.363281 47.765625 39.621094 47.765625 39.871094 C 47.765625 40.480469 48.261719 40.570313 48.519531 40.570313 C 49.464844 40.570313 49.792969 38.699219 49.792969 38.40625 Z M 49.792969 38.40625 "
       id="path48" />
    <path
       style=" stroke:none;fill-rule:nonzero;fill:rgb(0%,0%,0%);fill-opacity:1;"
       d="M 50.859375 39.796875 L 51.257813 39.796875 C 51.335938 39.796875 51.378906 39.796875 51.378906 39.707031 C 51.378906 39.65625 51.335938 39.65625 51.265625 39.65625 L 50.894531 39.65625 L 51.035156 39.070313 C 51.042969 39.050781 51.050781 39.027344 51.050781 39.015625 C 51.050781 38.9375 50.992188 38.882813 50.910156 38.882813 C 50.8125 38.882813 50.761719 38.953125 50.726563 39.050781 C 50.699219 39.160156 50.75 38.964844 50.574219 39.65625 L 50.175781 39.65625 C 50.105469 39.65625 50.050781 39.65625 50.050781 39.742188 C 50.050781 39.796875 50.097656 39.796875 50.167969 39.796875 L 50.539063 39.796875 L 50.308594 40.726563 C 50.28125 40.824219 50.246094 40.964844 50.246094 41.019531 C 50.246094 41.25 50.449219 41.390625 50.671875 41.390625 C 51.113281 41.390625 51.363281 40.839844 51.363281 40.789063 C 51.363281 40.734375 51.308594 40.734375 51.300781 40.734375 C 51.246094 40.734375 51.246094 40.742188 51.210938 40.816406 C 51.105469 41.0625 50.902344 41.285156 50.6875 41.285156 C 50.601563 41.285156 50.546875 41.230469 50.546875 41.089844 C 50.546875 41.054688 50.566406 40.964844 50.574219 40.929688 Z M 50.859375 39.796875 "
       id="path50" />
    <path
       style=" stroke:none;fill-rule:nonzero;fill:rgb(0%,0%,0%);fill-opacity:1;"
       d="M 53.992188 39.410156 C 54.113281 39.4375 54.574219 39.523438 54.574219 39.933594 C 54.574219 40.214844 54.382813 40.445313 53.9375 40.445313 C 53.460938 40.445313 53.257813 40.125 53.148438 39.640625 C 53.132813 39.570313 53.132813 39.550781 53.070313 39.550781 C 53 39.550781 53 39.585938 53 39.683594 L 53 40.4375 C 53 40.535156 53 40.570313 53.0625 40.570313 C 53.085938 40.570313 53.097656 40.5625 53.203125 40.453125 C 53.210938 40.445313 53.210938 40.4375 53.316406 40.332031 C 53.566406 40.5625 53.824219 40.570313 53.9375 40.570313 C 54.585938 40.570313 54.851563 40.1875 54.851563 39.78125 C 54.851563 39.488281 54.683594 39.3125 54.609375 39.25 C 54.425781 39.0625 54.203125 39.019531 53.964844 38.976563 C 53.644531 38.914063 53.273438 38.84375 53.273438 38.515625 C 53.273438 38.3125 53.414063 38.082031 53.902344 38.082031 C 54.523438 38.082031 54.558594 38.59375 54.566406 38.761719 C 54.566406 38.816406 54.621094 38.816406 54.628906 38.816406 C 54.707031 38.816406 54.707031 38.789063 54.707031 38.683594 L 54.707031 38.105469 C 54.707031 38.019531 54.707031 37.972656 54.648438 37.972656 C 54.621094 37.972656 54.601563 37.972656 54.53125 38.046875 C 54.515625 38.0625 54.460938 38.117188 54.433594 38.132813 C 54.222656 37.972656 53.992188 37.972656 53.902344 37.972656 C 53.210938 37.972656 53 38.355469 53 38.675781 C 53 38.867188 53.085938 39.027344 53.238281 39.152344 C 53.425781 39.292969 53.582031 39.328125 53.992188 39.410156 Z M 53.992188 39.410156 "
       id="path52" />
    <path
       style=" stroke:none;fill-rule:nonzero;fill:rgb(0%,0%,0%);fill-opacity:1;"
       d="M 56.042969 38.007813 L 55.253906 38.070313 L 55.253906 38.25 C 55.617188 38.25 55.667969 38.285156 55.667969 38.558594 L 55.667969 40.082031 C 55.667969 40.332031 55.609375 40.332031 55.226563 40.332031 L 55.226563 40.507813 C 55.402344 40.5 55.714844 40.488281 55.847656 40.488281 C 56.050781 40.488281 56.246094 40.5 56.441406 40.507813 L 56.441406 40.332031 C 56.058594 40.332031 56.042969 40.304688 56.042969 40.082031 Z M 56.058594 37.027344 C 56.058594 36.847656 55.925781 36.726563 55.765625 36.726563 C 55.589844 36.726563 55.464844 36.875 55.464844 37.027344 C 55.464844 37.175781 55.589844 37.328125 55.765625 37.328125 C 55.925781 37.328125 56.058594 37.203125 56.058594 37.027344 Z M 56.058594 37.027344 "
       id="path54" />
    <path
       style=" stroke:none;fill-rule:nonzero;fill:rgb(0%,0%,0%);fill-opacity:1;"
       d="M 57.230469 38.566406 L 57.230469 40.082031 C 57.230469 40.332031 57.167969 40.332031 56.785156 40.332031 L 56.785156 40.507813 C 56.992188 40.5 57.273438 40.488281 57.433594 40.488281 C 57.574219 40.488281 57.867188 40.5 58.0625 40.507813 L 58.0625 40.332031 C 57.679688 40.332031 57.621094 40.332031 57.621094 40.082031 L 57.621094 39.035156 C 57.621094 38.453125 58.027344 38.132813 58.382813 38.132813 C 58.746094 38.132813 58.804688 38.433594 58.804688 38.761719 L 58.804688 40.082031 C 58.804688 40.332031 58.746094 40.332031 58.363281 40.332031 L 58.363281 40.507813 C 58.558594 40.5 58.851563 40.488281 59 40.488281 C 59.144531 40.488281 59.445313 40.5 59.628906 40.507813 L 59.628906 40.332031 C 59.339844 40.332031 59.195313 40.332031 59.195313 40.160156 L 59.195313 39.082031 C 59.195313 38.59375 59.195313 38.425781 59.019531 38.222656 C 58.9375 38.125 58.753906 38.007813 58.425781 38.007813 C 58.007813 38.007813 57.742188 38.25 57.585938 38.601563 L 57.585938 38.007813 L 56.785156 38.070313 L 56.785156 38.25 C 57.183594 38.25 57.230469 38.285156 57.230469 38.566406 Z M 57.230469 38.566406 "
       id="path56" />
    <path
       style=" stroke:none;fill-rule:nonzero;fill:rgb(0%,0%,0%);fill-opacity:1;"
       d="M 61.617188 41.863281 C 61.617188 41.84375 61.617188 41.835938 61.519531 41.738281 C 60.820313 41.03125 60.632813 39.957031 60.632813 39.089844 C 60.632813 38.105469 60.847656 37.125 61.546875 36.425781 C 61.617188 36.351563 61.617188 36.34375 61.617188 36.328125 C 61.617188 36.28125 61.597656 36.265625 61.5625 36.265625 C 61.5 36.265625 60.996094 36.652344 60.660156 37.371094 C 60.375 37.992188 60.304688 38.621094 60.304688 39.089844 C 60.304688 39.53125 60.367188 40.214844 60.679688 40.863281 C 61.023438 41.554688 61.5 41.925781 61.5625 41.925781 C 61.597656 41.925781 61.617188 41.90625 61.617188 41.863281 Z M 61.617188 41.863281 "
       id="path58" />
    <path
       style=" stroke:none;fill-rule:nonzero;fill:rgb(0%,0%,0%);fill-opacity:1;"
       d="M 64.511719 37.683594 C 64.511719 37.308594 64.414063 36.519531 63.839844 36.519531 C 63.050781 36.519531 62.183594 38.117188 62.183594 39.410156 C 62.183594 39.941406 62.34375 40.570313 62.855469 40.570313 C 63.652344 40.570313 64.511719 38.949219 64.511719 37.683594 Z M 62.777344 38.453125 C 62.875 38.097656 62.988281 37.644531 63.21875 37.238281 C 63.371094 36.964844 63.574219 36.644531 63.832031 36.644531 C 64.105469 36.644531 64.140625 37.007813 64.140625 37.328125 C 64.140625 37.609375 64.097656 37.894531 63.964844 38.453125 Z M 63.910156 38.636719 C 63.847656 38.894531 63.734375 39.375 63.511719 39.78125 C 63.316406 40.171875 63.105469 40.445313 62.855469 40.445313 C 62.671875 40.445313 62.554688 40.277344 62.554688 39.753906 C 62.554688 39.515625 62.589844 39.1875 62.730469 38.636719 Z M 63.910156 38.636719 "
       id="path60" />
    <path
       style=" stroke:none;fill-rule:nonzero;fill:rgb(0%,0%,0%);fill-opacity:1;"
       d="M 65.570313 39.796875 L 65.96875 39.796875 C 66.046875 39.796875 66.09375 39.796875 66.09375 39.707031 C 66.09375 39.65625 66.046875 39.65625 65.976563 39.65625 L 65.605469 39.65625 L 65.746094 39.070313 C 65.757813 39.050781 65.765625 39.027344 65.765625 39.015625 C 65.765625 38.9375 65.703125 38.882813 65.625 38.882813 C 65.527344 38.882813 65.472656 38.953125 65.4375 39.050781 C 65.410156 39.160156 65.464844 38.964844 65.285156 39.65625 L 64.886719 39.65625 C 64.816406 39.65625 64.765625 39.65625 64.765625 39.742188 C 64.765625 39.796875 64.808594 39.796875 64.878906 39.796875 L 65.25 39.796875 L 65.019531 40.726563 C 64.992188 40.824219 64.957031 40.964844 64.957031 41.019531 C 64.957031 41.25 65.164063 41.390625 65.382813 41.390625 C 65.828125 41.390625 66.074219 40.839844 66.074219 40.789063 C 66.074219 40.734375 66.023438 40.734375 66.011719 40.734375 C 65.960938 40.734375 65.960938 40.742188 65.925781 40.816406 C 65.816406 41.0625 65.613281 41.285156 65.402344 41.285156 C 65.3125 41.285156 65.261719 41.230469 65.261719 41.089844 C 65.261719 41.054688 65.277344 40.964844 65.285156 40.929688 Z M 65.570313 39.796875 "
       id="path62" />
    <path
       style=" stroke:none;fill-rule:nonzero;fill:rgb(0%,0%,0%);fill-opacity:1;"
       d="M 68.214844 39.089844 C 68.214844 38.65625 68.152344 37.972656 67.84375 37.328125 C 67.503906 36.636719 67.019531 36.265625 66.964844 36.265625 C 66.929688 36.265625 66.902344 36.292969 66.902344 36.328125 C 66.902344 36.34375 66.902344 36.351563 67.007813 36.460938 C 67.566406 37.015625 67.886719 37.910156 67.886719 39.089844 C 67.886719 40.066406 67.683594 41.058594 66.984375 41.765625 C 66.902344 41.835938 66.902344 41.84375 66.902344 41.863281 C 66.902344 41.898438 66.929688 41.925781 66.964844 41.925781 C 67.019531 41.925781 67.53125 41.535156 67.859375 40.816406 C 68.152344 40.199219 68.214844 39.570313 68.214844 39.089844 Z M 68.214844 39.089844 "
       id="path64" />
    <path
       style=" stroke:none;fill-rule:nonzero;fill:rgb(0%,0%,0%);fill-opacity:1;"
       d="M 41.808594 47.214844 C 41.808594 46.84375 41.710938 46.054688 41.136719 46.054688 C 40.347656 46.054688 39.480469 47.652344 39.480469 48.945313 C 39.480469 49.476563 39.640625 50.105469 40.152344 50.105469 C 40.949219 50.105469 41.808594 48.484375 41.808594 47.214844 Z M 40.074219 47.988281 C 40.171875 47.632813 40.285156 47.179688 40.515625 46.773438 C 40.667969 46.5 40.871094 46.179688 41.125 46.179688 C 41.402344 46.179688 41.4375 46.542969 41.4375 46.863281 C 41.4375 47.144531 41.394531 47.429688 41.261719 47.988281 Z M 41.207031 48.171875 C 41.144531 48.429688 41.03125 48.910156 40.808594 49.316406 C 40.613281 49.707031 40.402344 49.980469 40.152344 49.980469 C 39.964844 49.980469 39.851563 49.8125 39.851563 49.289063 C 39.851563 49.050781 39.886719 48.722656 40.027344 48.171875 Z M 41.207031 48.171875 "
       id="path66" />
    <path
       style=" stroke:none;fill-rule:nonzero;fill:rgb(0%,0%,0%);fill-opacity:1;"
       d="M 42.867188 49.332031 L 43.265625 49.332031 C 43.34375 49.332031 43.386719 49.332031 43.386719 49.242188 C 43.386719 49.1875 43.34375 49.1875 43.273438 49.1875 L 42.902344 49.1875 L 43.042969 48.605469 C 43.050781 48.585938 43.058594 48.558594 43.058594 48.550781 C 43.058594 48.472656 43 48.417969 42.917969 48.417969 C 42.820313 48.417969 42.769531 48.488281 42.734375 48.585938 C 42.707031 48.691406 42.757813 48.496094 42.582031 49.1875 L 42.183594 49.1875 C 42.113281 49.1875 42.058594 49.1875 42.058594 49.277344 C 42.058594 49.332031 42.105469 49.332031 42.175781 49.332031 L 42.546875 49.332031 L 42.316406 50.261719 C 42.289063 50.359375 42.253906 50.5 42.253906 50.554688 C 42.253906 50.785156 42.457031 50.925781 42.679688 50.925781 C 43.121094 50.925781 43.371094 50.375 43.371094 50.324219 C 43.371094 50.269531 43.316406 50.269531 43.308594 50.269531 C 43.253906 50.269531 43.253906 50.277344 43.21875 50.347656 C 43.113281 50.597656 42.910156 50.820313 42.695313 50.820313 C 42.609375 50.820313 42.554688 50.765625 42.554688 50.625 C 42.554688 50.589844 42.574219 50.5 42.582031 50.464844 Z M 42.867188 49.332031 "
       id="path68" />
    <path
       style=" stroke:none;fill-rule:nonzero;fill:rgb(0%,0%,0%);fill-opacity:1;"
       d="M 57.09375 25.328125 C 57.09375 25.015625 56.941406 24.929688 56.84375 24.929688 C 56.703125 24.929688 56.5625 25.078125 56.5625 25.203125 C 56.5625 25.273438 56.589844 25.308594 56.648438 25.371094 C 56.773438 25.488281 56.84375 25.628906 56.84375 25.832031 C 56.84375 26.070313 56.5 27.363281 55.84375 27.363281 C 55.550781 27.363281 55.417969 27.167969 55.417969 26.867188 C 55.417969 26.558594 55.578125 26.140625 55.746094 25.671875 C 55.789063 25.574219 55.816406 25.496094 55.816406 25.390625 C 55.816406 25.140625 55.640625 24.929688 55.355469 24.929688 C 54.824219 24.929688 54.613281 25.753906 54.613281 25.796875 C 54.613281 25.859375 54.664063 25.859375 54.675781 25.859375 C 54.738281 25.859375 54.738281 25.839844 54.761719 25.753906 C 54.929688 25.183594 55.171875 25.050781 55.339844 25.050781 C 55.382813 25.050781 55.480469 25.050781 55.480469 25.230469 C 55.480469 25.371094 55.417969 25.53125 55.382813 25.628906 C 55.136719 26.285156 55.0625 26.539063 55.0625 26.789063 C 55.0625 27.398438 55.558594 27.488281 55.816406 27.488281 C 56.765625 27.488281 57.09375 25.621094 57.09375 25.328125 Z M 57.09375 25.328125 "
       id="path70" />
    <path
       style=" stroke:none;fill-rule:nonzero;fill:rgb(0%,0%,0%);fill-opacity:1;"
       d="M 58.15625 26.714844 L 58.554688 26.714844 C 58.632813 26.714844 58.679688 26.714844 58.679688 26.625 C 58.679688 26.574219 58.632813 26.574219 58.5625 26.574219 L 58.191406 26.574219 L 58.332031 25.988281 C 58.34375 25.972656 58.351563 25.945313 58.351563 25.933594 C 58.351563 25.855469 58.289063 25.800781 58.210938 25.800781 C 58.113281 25.800781 58.058594 25.875 58.023438 25.972656 C 57.996094 26.078125 58.050781 25.882813 57.871094 26.574219 L 57.472656 26.574219 C 57.402344 26.574219 57.351563 26.574219 57.351563 26.660156 C 57.351563 26.714844 57.394531 26.714844 57.464844 26.714844 L 57.835938 26.714844 L 57.605469 27.644531 C 57.582031 27.742188 57.546875 27.882813 57.546875 27.9375 C 57.546875 28.167969 57.75 28.308594 57.96875 28.308594 C 58.414063 28.308594 58.660156 27.761719 58.660156 27.707031 C 58.660156 27.652344 58.609375 27.652344 58.597656 27.652344 C 58.546875 27.652344 58.546875 27.664063 58.511719 27.734375 C 58.40625 27.980469 58.199219 28.203125 57.988281 28.203125 C 57.898438 28.203125 57.847656 28.148438 57.847656 28.007813 C 57.847656 27.972656 57.863281 27.882813 57.871094 27.847656 Z M 58.15625 26.714844 "
       id="path72" />
    <path
       style="fill:none;stroke-width:0.75;stroke-linecap:butt;stroke-linejoin:miter;stroke:rgb(0%,0%,0%);stroke-opacity:1;stroke-dasharray:0.75,1.5;stroke-miterlimit:4;"
       d="M 29.78125 153.906021 L 29.78125 177.554459 Z M 29.78125 153.906021 "
       transform="matrix(1,0,0,1,-24.375,-143.624771)"
       id="path74" />
    <path
       style="fill:none;stroke-width:0.754387;stroke-linecap:butt;stroke-linejoin:miter;stroke:rgb(0%,0%,0%);stroke-opacity:1;stroke-dasharray:1.508773,0.754387;stroke-miterlimit:4;"
       d="M 29.402344 153.906021 L 61.886719 153.906021 "
       transform="matrix(1,0,0,1,-24.375,-143.624771)"
       id="path76" />
    <path
       style="fill:none;stroke-width:0.75;stroke-linecap:butt;stroke-linejoin:miter;stroke:rgb(0%,0%,0%);stroke-opacity:1;stroke-miterlimit:4;"
       d="M 29.960938 159.077896 C 31.554688 159.077896 32.859375 158.058365 33.226563 156.554459 "
       transform="matrix(1,0,0,1,-24.375,-143.624771)"
       id="path78" />
    <path
       style=" stroke:none;fill-rule:nonzero;fill:rgb(0%,0%,0%);fill-opacity:1;"
       d="M 9.929688 17.753906 C 9.929688 17.382813 9.832031 16.59375 9.257813 16.59375 C 8.46875 16.59375 7.601563 18.1875 7.601563 19.484375 C 7.601563 20.015625 7.757813 20.644531 8.273438 20.644531 C 9.070313 20.644531 9.929688 19.023438 9.929688 17.753906 Z M 8.191406 18.527344 C 8.289063 18.171875 8.40625 17.71875 8.636719 17.3125 C 8.785156 17.039063 8.992188 16.71875 9.246094 16.71875 C 9.523438 16.71875 9.558594 17.082031 9.558594 17.402344 C 9.558594 17.683594 9.511719 17.96875 9.378906 18.527344 Z M 9.328125 18.710938 C 9.265625 18.96875 9.148438 19.449219 8.929688 19.855469 C 8.734375 20.246094 8.519531 20.519531 8.273438 20.519531 C 8.085938 20.519531 7.972656 20.351563 7.972656 19.828125 C 7.972656 19.589844 8.007813 19.261719 8.148438 18.710938 Z M 9.328125 18.710938 "
       id="path80" />
    <path
       style=" stroke:none;fill-rule:nonzero;fill:rgb(0%,0%,0%);fill-opacity:1;"
       d="M 11.296875 18.957031 C 11.296875 18.894531 11.242188 18.808594 11.136719 18.808594 C 11.03125 18.808594 10.914063 18.914063 10.914063 19.027344 C 10.914063 19.089844 10.960938 19.179688 11.074219 19.179688 C 11.179688 19.179688 11.296875 19.0625 11.296875 18.957031 Z M 10.488281 20.96875 C 10.472656 21.019531 10.453125 21.066406 10.453125 21.136719 C 10.453125 21.324219 10.605469 21.464844 10.828125 21.464844 C 11.214844 21.464844 11.394531 20.921875 11.394531 20.863281 C 11.394531 20.808594 11.339844 20.808594 11.332031 20.808594 C 11.277344 20.808594 11.269531 20.835938 11.25 20.878906 C 11.164063 21.199219 10.996094 21.359375 10.835938 21.359375 C 10.753906 21.359375 10.738281 21.304688 10.738281 21.214844 C 10.738281 21.128906 10.765625 21.058594 10.800781 20.96875 C 10.84375 20.863281 10.886719 20.753906 10.925781 20.648438 C 10.960938 20.550781 11.109375 20.199219 11.117188 20.144531 C 11.136719 20.109375 11.144531 20.066406 11.144531 20.019531 C 11.144531 19.835938 10.984375 19.683594 10.773438 19.683594 C 10.375 19.683594 10.199219 20.222656 10.199219 20.292969 C 10.199219 20.339844 10.25 20.339844 10.269531 20.339844 C 10.320313 20.339844 10.320313 20.320313 10.339844 20.277344 C 10.4375 19.941406 10.613281 19.796875 10.753906 19.796875 C 10.816406 19.796875 10.851563 19.824219 10.851563 19.933594 C 10.851563 20.027344 10.835938 20.082031 10.738281 20.332031 Z M 10.488281 20.96875 "
       id="path82" />
  </g>
</svg>
