<?xml version="1.0" encoding="UTF-8" standalone="no"?>
<svg
   xmlns:dc="http://purl.org/dc/elements/1.1/"
   xmlns:cc="http://creativecommons.org/ns#"
   xmlns:rdf="http://www.w3.org/1999/02/22-rdf-syntax-ns#"
   xmlns:svg="http://www.w3.org/2000/svg"
   xmlns="http://www.w3.org/2000/svg"
   xmlns:sodipodi="http://sodipodi.sourceforge.net/DTD/sodipodi-0.dtd"
   xmlns:inkscape="http://www.inkscape.org/namespaces/inkscape"
   width="97.5pt"
   height="65.25pt"
   viewBox="0 0 97.5 65.25"
   version="1.2"
   id="svg73"
   sodipodi:docname="46.svg"
   inkscape:version="0.92.4 (5da689c313, 2019-01-14)">
  <metadata
     id="metadata79">
    <rdf:RDF>
      <cc:Work
         rdf:about="">
        <dc:format>image/svg+xml</dc:format>
        <dc:type
           rdf:resource="http://purl.org/dc/dcmitype/StillImage" />
        <dc:title></dc:title>
      </cc:Work>
    </rdf:RDF>
  </metadata>
  <defs
     id="defs77" />
  <sodipodi:namedview
     pagecolor="#ffffff"
     bordercolor="#666666"
     borderopacity="1"
     objecttolerance="10"
     gridtolerance="10"
     guidetolerance="10"
     inkscape:pageopacity="0"
     inkscape:pageshadow="2"
     inkscape:window-width="1920"
     inkscape:window-height="1001"
     id="namedview75"
     showgrid="false"
     inkscape:zoom="2.7126437"
     inkscape:cx="65"
     inkscape:cy="43.5"
     inkscape:window-x="-9"
     inkscape:window-y="-9"
     inkscape:window-maximized="1"
     inkscape:current-layer="svg73" />
  <g
     id="surface44">
    <path
       style="fill:none;stroke-width:0.80398;stroke-linecap:butt;stroke-linejoin:miter;stroke:rgb(0%,0%,0%);stroke-opacity:1;stroke-miterlimit:4;"
       d="M 61.976563 145.460709 L 61.976563 205.29274 "
       transform="matrix(1,0,0,1,-14.625,-146.249771)"
       id="path2" />
    <path
       style="fill:none;stroke-width:0.80398;stroke-linecap:butt;stroke-linejoin:miter;stroke:rgb(0%,0%,0%);stroke-opacity:1;stroke-miterlimit:4;"
       d="M 19.285156 195.609146 L 109.285156 195.609146 "
       transform="matrix(1,0,0,1,-14.625,-146.249771)"
       id="path4" />
    <path
       style="fill:none;stroke-width:0.80398;stroke-linecap:butt;stroke-linejoin:miter;stroke:rgb(0%,0%,0%);stroke-opacity:1;stroke-miterlimit:4;"
       d="M 61.171875 195.038834 L 29.78125 171.906021 "
       transform="matrix(1,0,0,1,-14.625,-146.249771)"
       id="path6" />
    <path
       style="fill-rule:evenodd;fill:rgb(0%,0%,0%);fill-opacity:1;stroke-width:0.345189;stroke-linecap:butt;stroke-linejoin:miter;stroke:rgb(0%,0%,0%);stroke-opacity:1;stroke-miterlimit:4;"
       d="M -130.19815 -97.18514 L -128.906674 -98.480584 L -133.43663 -97.18541 L -128.905237 -95.891798 Z M -130.19815 -97.18514 "
       transform="matrix(-1,-0.736904,0.736904,-1,-14.625,-146.249771)"
       id="path8" />
    <path
       style="fill:none;stroke-width:0.80398;stroke-linecap:butt;stroke-linejoin:miter;stroke:rgb(0%,0%,0%);stroke-opacity:1;stroke-miterlimit:4;"
       d="M 61.949219 195.60524 L 87.867188 171.433365 "
       transform="matrix(1,0,0,1,-14.625,-146.249771)"
       id="path10" />
    <path
       style="fill-rule:evenodd;fill:rgb(0%,0%,0%);fill-opacity:1;stroke-width:0.313576;stroke-linecap:butt;stroke-linejoin:miter;stroke:rgb(0%,0%,0%);stroke-opacity:1;stroke-miterlimit:4;"
       d="M 40.869133 -135.512326 L 42.045016 -136.685177 L 37.930363 -135.510964 L 42.044072 -134.334494 Z M 40.869133 -135.512326 "
       transform="matrix(-1,0.932644,-0.932644,-1,-14.625,-146.249771)"
       id="path12" />
    <path
       style="fill:none;stroke-width:0.80398;stroke-linecap:butt;stroke-linejoin:miter;stroke:rgb(0%,0%,0%);stroke-opacity:1;stroke-miterlimit:4;"
       d="M 58.660156 193.113052 C 59.554688 192.265396 60.714844 192.253677 61.902344 192.503677 "
       transform="matrix(1,0,0,1,-14.625,-146.249771)"
       id="path14" />
    <path
       style="fill:none;stroke-width:0.80398;stroke-linecap:butt;stroke-linejoin:miter;stroke:rgb(0%,0%,0%);stroke-opacity:1;stroke-miterlimit:4;"
       d="M 62.03125 192.702896 C 62.84375 192.76149 63.414063 193.120865 63.945313 193.644302 "
       transform="matrix(1,0,0,1,-14.625,-146.249771)"
       id="path16" />
    <path
       style="fill:none;stroke-width:0.80398;stroke-linecap:butt;stroke-linejoin:miter;stroke:rgb(0%,0%,0%);stroke-opacity:1;stroke-miterlimit:4;"
       d="M 64.480469 193.394302 C 65.183594 193.88649 65.542969 194.73024 65.621094 195.534927 "
       transform="matrix(1,0,0,1,-14.625,-146.249771)"
       id="path18" />
    <path
       style=" stroke:none;fill-rule:nonzero;fill:rgb(0%,0%,0%);fill-opacity:1;"
       d="M 40.15625 39.375 C 40.15625 38.703125 39.695313 38.132813 39.082031 38.132813 C 38.816406 38.132813 38.570313 38.222656 38.367188 38.425781 L 38.367188 37.320313 C 38.480469 37.355469 38.667969 37.390625 38.84375 37.390625 C 39.542969 37.390625 39.941406 36.875 39.941406 36.804688 C 39.941406 36.769531 39.925781 36.742188 39.878906 36.742188 C 39.878906 36.742188 39.863281 36.742188 39.835938 36.761719 C 39.722656 36.816406 39.445313 36.929688 39.066406 36.929688 C 38.84375 36.929688 38.578125 36.886719 38.3125 36.769531 C 38.269531 36.753906 38.25 36.753906 38.25 36.753906 C 38.1875 36.753906 38.1875 36.796875 38.1875 36.886719 L 38.1875 38.558594 C 38.1875 38.65625 38.1875 38.703125 38.269531 38.703125 C 38.3125 38.703125 38.320313 38.691406 38.347656 38.65625 C 38.410156 38.570313 38.613281 38.257813 39.074219 38.257813 C 39.367188 38.257813 39.507813 38.515625 39.550781 38.621094 C 39.640625 38.835938 39.660156 39.046875 39.660156 39.332031 C 39.660156 39.535156 39.660156 39.871094 39.515625 40.109375 C 39.382813 40.332031 39.171875 40.472656 38.914063 40.472656 C 38.507813 40.472656 38.179688 40.171875 38.082031 39.84375 C 38.101563 39.84375 38.117188 39.851563 38.179688 39.851563 C 38.367188 39.851563 38.464844 39.710938 38.464844 39.578125 C 38.464844 39.4375 38.367188 39.296875 38.179688 39.296875 C 38.101563 39.296875 37.90625 39.339844 37.90625 39.597656 C 37.90625 40.082031 38.292969 40.632813 38.921875 40.632813 C 39.578125 40.632813 40.15625 40.09375 40.15625 39.375 Z M 40.15625 39.375 "
       id="path20" />
    <path
       style=" stroke:none;fill-rule:nonzero;fill:rgb(0%,0%,0%);fill-opacity:1;"
       d="M 43.03125 39.355469 C 43.03125 38.640625 42.527344 38.097656 41.898438 38.097656 C 41.515625 38.097656 41.304688 38.382813 41.191406 38.65625 L 41.191406 38.515625 C 41.191406 37.089844 41.890625 36.886719 42.183594 36.886719 C 42.316406 36.886719 42.554688 36.921875 42.679688 37.117188 C 42.589844 37.117188 42.367188 37.117188 42.367188 37.363281 C 42.367188 37.542969 42.5 37.628906 42.625 37.628906 C 42.714844 37.628906 42.890625 37.578125 42.890625 37.355469 C 42.890625 37.019531 42.640625 36.742188 42.171875 36.742188 C 41.445313 36.742188 40.683594 37.46875 40.683594 38.71875 C 40.683594 40.234375 41.339844 40.632813 41.863281 40.632813 C 42.492188 40.632813 43.03125 40.101563 43.03125 39.355469 Z M 42.519531 39.347656 C 42.519531 39.621094 42.519531 39.90625 42.421875 40.109375 C 42.253906 40.445313 41.996094 40.472656 41.863281 40.472656 C 41.507813 40.472656 41.339844 40.136719 41.304688 40.046875 C 41.199219 39.78125 41.199219 39.332031 41.199219 39.234375 C 41.199219 38.789063 41.382813 38.222656 41.890625 38.222656 C 41.988281 38.222656 42.242188 38.222656 42.421875 38.578125 C 42.519531 38.78125 42.519531 39.074219 42.519531 39.347656 Z M 42.519531 39.347656 "
       id="path22" />
    <path
       style=" stroke:none;fill-rule:nonzero;fill:rgb(0%,0%,0%);fill-opacity:1;"
       d="M 45.269531 37.476563 C 45.269531 36.996094 44.890625 36.625 44.421875 36.625 C 43.953125 36.625 43.570313 37.007813 43.570313 37.46875 C 43.570313 37.945313 43.960938 38.316406 44.421875 38.316406 C 44.898438 38.316406 45.269531 37.9375 45.269531 37.476563 Z M 44.421875 38.121094 C 44.050781 38.121094 43.765625 37.820313 43.765625 37.476563 C 43.765625 37.105469 44.058594 36.8125 44.421875 36.8125 C 44.792969 36.8125 45.078125 37.113281 45.078125 37.46875 C 45.078125 37.839844 44.785156 38.121094 44.421875 38.121094 Z M 44.421875 38.121094 "
       id="path24" />
    <path
       style=" stroke:none;fill-rule:nonzero;fill:rgb(0%,0%,0%);fill-opacity:1;"
       d="M 52.449219 38.222656 C 52.449219 37.550781 51.988281 36.984375 51.375 36.984375 C 51.109375 36.984375 50.863281 37.070313 50.660156 37.273438 L 50.660156 36.167969 C 50.773438 36.203125 50.960938 36.238281 51.136719 36.238281 C 51.835938 36.238281 52.234375 35.726563 52.234375 35.652344 C 52.234375 35.617188 52.21875 35.59375 52.171875 35.59375 C 52.171875 35.59375 52.15625 35.59375 52.128906 35.609375 C 52.015625 35.664063 51.738281 35.777344 51.359375 35.777344 C 51.136719 35.777344 50.871094 35.734375 50.605469 35.617188 C 50.5625 35.601563 50.542969 35.601563 50.542969 35.601563 C 50.480469 35.601563 50.480469 35.644531 50.480469 35.734375 L 50.480469 37.40625 C 50.480469 37.503906 50.480469 37.550781 50.5625 37.550781 C 50.605469 37.550781 50.613281 37.542969 50.640625 37.503906 C 50.703125 37.417969 50.90625 37.105469 51.367188 37.105469 C 51.660156 37.105469 51.800781 37.363281 51.847656 37.46875 C 51.933594 37.683594 51.953125 37.894531 51.953125 38.179688 C 51.953125 38.382813 51.953125 38.71875 51.8125 38.957031 C 51.675781 39.179688 51.464844 39.320313 51.207031 39.320313 C 50.800781 39.320313 50.472656 39.019531 50.375 38.691406 C 50.394531 38.691406 50.410156 38.703125 50.472656 38.703125 C 50.660156 38.703125 50.757813 38.558594 50.757813 38.425781 C 50.757813 38.285156 50.660156 38.144531 50.472656 38.144531 C 50.394531 38.144531 50.199219 38.1875 50.199219 38.445313 C 50.199219 38.933594 50.589844 39.480469 51.21875 39.480469 C 51.871094 39.480469 52.449219 38.941406 52.449219 38.222656 Z M 52.449219 38.222656 "
       id="path26" />
    <path
       style=" stroke:none;fill-rule:nonzero;fill:rgb(0%,0%,0%);fill-opacity:1;"
       d="M 55.324219 38.207031 C 55.324219 37.488281 54.820313 36.949219 54.191406 36.949219 C 53.8125 36.949219 53.597656 37.230469 53.484375 37.503906 L 53.484375 37.363281 C 53.484375 35.9375 54.183594 35.734375 54.476563 35.734375 C 54.609375 35.734375 54.847656 35.769531 54.972656 35.964844 C 54.882813 35.964844 54.660156 35.964844 54.660156 36.210938 C 54.660156 36.390625 54.792969 36.476563 54.917969 36.476563 C 55.007813 36.476563 55.183594 36.425781 55.183594 36.203125 C 55.183594 35.867188 54.9375 35.59375 54.464844 35.59375 C 53.738281 35.59375 52.976563 36.320313 52.976563 37.566406 C 52.976563 39.082031 53.632813 39.480469 54.15625 39.480469 C 54.785156 39.480469 55.324219 38.949219 55.324219 38.207031 Z M 54.8125 38.195313 C 54.8125 38.472656 54.8125 38.753906 54.714844 38.957031 C 54.546875 39.296875 54.289063 39.320313 54.15625 39.320313 C 53.800781 39.320313 53.632813 38.984375 53.597656 38.894531 C 53.492188 38.628906 53.492188 38.179688 53.492188 38.082031 C 53.492188 37.636719 53.679688 37.070313 54.183594 37.070313 C 54.28125 37.070313 54.539063 37.070313 54.714844 37.425781 C 54.8125 37.628906 54.8125 37.921875 54.8125 38.195313 Z M 54.8125 38.195313 "
       id="path28" />
    <path
       style=" stroke:none;fill-rule:nonzero;fill:rgb(0%,0%,0%);fill-opacity:1;"
       d="M 57.566406 36.324219 C 57.566406 35.847656 57.183594 35.472656 56.714844 35.472656 C 56.246094 35.472656 55.863281 35.855469 55.863281 36.316406 C 55.863281 36.792969 56.253906 37.164063 56.714844 37.164063 C 57.191406 37.164063 57.566406 36.785156 57.566406 36.324219 Z M 56.714844 36.972656 C 56.34375 36.972656 56.058594 36.667969 56.058594 36.324219 C 56.058594 35.953125 56.351563 35.660156 56.714844 35.660156 C 57.085938 35.660156 57.371094 35.960938 57.371094 36.316406 C 57.371094 36.6875 57.078125 36.972656 56.714844 36.972656 Z M 56.714844 36.972656 "
       id="path30" />
    <path
       style=" stroke:none;fill-rule:nonzero;fill:rgb(0%,0%,0%);fill-opacity:1;"
       d="M 65.492188 42.761719 C 65.492188 42.300781 65.128906 41.859375 64.546875 41.734375 C 65.007813 41.585938 65.335938 41.195313 65.335938 40.742188 C 65.335938 40.28125 64.839844 39.964844 64.296875 39.964844 C 63.730469 39.964844 63.296875 40.300781 63.296875 40.734375 C 63.296875 40.921875 63.421875 41.027344 63.589844 41.027344 C 63.757813 41.027344 63.871094 40.902344 63.871094 40.734375 C 63.871094 40.460938 63.605469 40.460938 63.527344 40.460938 C 63.695313 40.175781 64.066406 40.105469 64.269531 40.105469 C 64.511719 40.105469 64.820313 40.230469 64.820313 40.734375 C 64.820313 40.804688 64.800781 41.132813 64.660156 41.382813 C 64.492188 41.65625 64.296875 41.671875 64.15625 41.671875 C 64.113281 41.683594 63.980469 41.691406 63.933594 41.691406 C 63.890625 41.699219 63.855469 41.707031 63.855469 41.761719 C 63.855469 41.824219 63.890625 41.824219 63.988281 41.824219 L 64.234375 41.824219 C 64.695313 41.824219 64.910156 42.203125 64.910156 42.761719 C 64.910156 43.535156 64.519531 43.691406 64.269531 43.691406 C 64.023438 43.691406 63.597656 43.59375 63.402344 43.269531 C 63.597656 43.292969 63.773438 43.171875 63.773438 42.957031 C 63.773438 42.753906 63.625 42.640625 63.464844 42.640625 C 63.324219 42.640625 63.144531 42.71875 63.144531 42.964844 C 63.144531 43.480469 63.667969 43.851563 64.289063 43.851563 C 64.980469 43.851563 65.492188 43.339844 65.492188 42.761719 Z M 65.492188 42.761719 "
       id="path32" />
    <path
       style=" stroke:none;fill-rule:nonzero;fill:rgb(0%,0%,0%);fill-opacity:1;"
       d="M 68.386719 42.796875 L 68.386719 42.621094 L 67.832031 42.621094 L 67.832031 40.050781 C 67.832031 39.9375 67.832031 39.902344 67.734375 39.902344 C 67.6875 39.902344 67.671875 39.902344 67.625 39.972656 L 65.890625 42.621094 L 65.890625 42.796875 L 67.394531 42.796875 L 67.394531 43.285156 C 67.394531 43.488281 67.378906 43.550781 66.960938 43.550781 L 66.847656 43.550781 L 66.847656 43.726563 C 67.078125 43.710938 67.371094 43.710938 67.609375 43.710938 C 67.847656 43.710938 68.140625 43.710938 68.378906 43.726563 L 68.378906 43.550781 L 68.253906 43.550781 C 67.839844 43.550781 67.832031 43.488281 67.832031 43.285156 L 67.832031 42.796875 Z M 67.421875 42.621094 L 66.050781 42.621094 L 67.421875 40.511719 Z M 67.421875 42.621094 "
       id="path34" />
    <path
       style=" stroke:none;fill-rule:nonzero;fill:rgb(0%,0%,0%);fill-opacity:1;"
       d="M 70.558594 40.695313 C 70.558594 40.21875 70.175781 39.84375 69.707031 39.84375 C 69.238281 39.84375 68.855469 40.226563 68.855469 40.6875 C 68.855469 41.164063 69.246094 41.539063 69.707031 41.539063 C 70.183594 41.539063 70.558594 41.15625 70.558594 40.695313 Z M 69.707031 41.34375 C 69.335938 41.34375 69.050781 41.042969 69.050781 40.695313 C 69.050781 40.324219 69.34375 40.03125 69.707031 40.03125 C 70.078125 40.03125 70.363281 40.332031 70.363281 40.6875 C 70.363281 41.058594 70.070313 41.34375 69.707031 41.34375 Z M 69.707031 41.34375 "
       id="path36" />
    <path
       style=" stroke:none;fill-rule:nonzero;fill:rgb(0%,0%,0%);fill-opacity:1;"
       d="M 3.121094 21.21875 L 3.121094 21.042969 L 2.976563 21.042969 C 2.527344 21.042969 2.519531 20.980469 2.519531 20.777344 L 2.519531 17.800781 C 2.519531 17.597656 2.527344 17.535156 2.976563 17.535156 L 3.121094 17.535156 L 3.121094 17.355469 C 2.925781 17.375 2.480469 17.375 2.261719 17.375 C 2.046875 17.375 1.597656 17.375 1.402344 17.355469 L 1.402344 17.535156 L 1.542969 17.535156 C 1.996094 17.535156 2.011719 17.597656 2.011719 17.800781 L 2.011719 20.777344 C 2.011719 20.980469 1.996094 21.042969 1.542969 21.042969 L 1.402344 21.042969 L 1.402344 21.21875 C 1.597656 21.203125 2.046875 21.203125 2.261719 21.203125 C 2.480469 21.203125 2.925781 21.203125 3.121094 21.21875 Z M 3.121094 21.21875 "
       id="path38" />
    <path
       style=" stroke:none;fill-rule:nonzero;fill:rgb(0%,0%,0%);fill-opacity:1;"
       d="M 6.300781 21.21875 L 6.300781 21.042969 C 6.007813 21.042969 5.867188 21.042969 5.867188 20.875 L 5.867188 19.792969 C 5.867188 19.304688 5.867188 19.136719 5.691406 18.933594 C 5.609375 18.835938 5.425781 18.722656 5.097656 18.722656 C 4.679688 18.722656 4.414063 18.960938 4.253906 19.316406 L 4.253906 18.722656 L 3.457031 18.78125 L 3.457031 18.960938 C 3.855469 18.960938 3.902344 18.996094 3.902344 19.277344 L 3.902344 20.792969 C 3.902344 21.042969 3.839844 21.042969 3.457031 21.042969 L 3.457031 21.21875 L 4.105469 21.203125 L 4.734375 21.21875 L 4.734375 21.042969 C 4.351563 21.042969 4.289063 21.042969 4.289063 20.792969 L 4.289063 19.75 C 4.289063 19.164063 4.699219 18.84375 5.050781 18.84375 C 5.414063 18.84375 5.476563 19.144531 5.476563 19.472656 L 5.476563 20.792969 C 5.476563 21.042969 5.414063 21.042969 5.035156 21.042969 L 5.035156 21.21875 L 5.671875 21.203125 Z M 6.300781 21.21875 "
       id="path40" />
    <path
       style=" stroke:none;fill-rule:nonzero;fill:rgb(0%,0%,0%);fill-opacity:1;"
       d="M 8.769531 20.546875 C 8.769531 20.492188 8.707031 20.492188 8.6875 20.492188 C 8.644531 20.492188 8.628906 20.511719 8.617188 20.546875 C 8.457031 21.070313 8.085938 21.140625 7.882813 21.140625 C 7.582031 21.140625 7.085938 20.898438 7.085938 19.988281 C 7.085938 19.066406 7.546875 18.828125 7.847656 18.828125 C 7.902344 18.828125 8.253906 18.835938 8.449219 19.039063 C 8.21875 19.058594 8.183594 19.226563 8.183594 19.296875 C 8.183594 19.449219 8.289063 19.554688 8.441406 19.554688 C 8.589844 19.554688 8.707031 19.464844 8.707031 19.289063 C 8.707031 18.90625 8.273438 18.6875 7.839844 18.6875 C 7.128906 18.6875 6.617188 19.296875 6.617188 19.996094 C 6.617188 20.722656 7.175781 21.28125 7.828125 21.28125 C 8.582031 21.28125 8.769531 20.597656 8.769531 20.546875 Z M 8.769531 20.546875 "
       id="path42" />
    <path
       style=" stroke:none;fill-rule:nonzero;fill:rgb(0%,0%,0%);fill-opacity:1;"
       d="M 10.328125 21.21875 L 10.328125 21.042969 C 9.949219 21.042969 9.929688 21.015625 9.929688 20.792969 L 9.929688 18.722656 L 9.140625 18.78125 L 9.140625 18.960938 C 9.503906 18.960938 9.558594 18.996094 9.558594 19.269531 L 9.558594 20.792969 C 9.558594 21.042969 9.496094 21.042969 9.113281 21.042969 L 9.113281 21.21875 L 9.734375 21.203125 C 9.9375 21.203125 10.132813 21.210938 10.328125 21.21875 Z M 10.011719 17.808594 C 10.011719 17.648438 9.886719 17.507813 9.71875 17.507813 C 9.523438 17.507813 9.40625 17.667969 9.40625 17.808594 C 9.40625 17.960938 9.539063 18.101563 9.707031 18.101563 C 9.902344 18.101563 10.011719 17.949219 10.011719 17.808594 Z M 10.011719 17.808594 "
       id="path44" />
    <path
       style=" stroke:none;fill-rule:nonzero;fill:rgb(0%,0%,0%);fill-opacity:1;"
       d="M 13.476563 21.21875 L 13.476563 21.042969 C 13.085938 21.042969 13.03125 21.007813 13.03125 20.722656 L 13.03125 17.296875 L 12.226563 17.355469 L 12.226563 17.535156 C 12.617188 17.535156 12.660156 17.570313 12.660156 17.851563 L 12.660156 19.074219 C 12.5 18.871094 12.253906 18.722656 11.953125 18.722656 C 11.289063 18.722656 10.695313 19.277344 10.695313 20.003906 C 10.695313 20.722656 11.242188 21.28125 11.890625 21.28125 C 12.253906 21.28125 12.5 21.085938 12.644531 20.910156 L 12.644531 21.28125 Z M 12.644531 20.554688 C 12.644531 20.652344 12.644531 20.660156 12.582031 20.757813 C 12.414063 21.03125 12.164063 21.15625 11.917969 21.15625 C 11.660156 21.15625 11.457031 21.007813 11.324219 20.792969 C 11.179688 20.5625 11.164063 20.246094 11.164063 20.003906 C 11.164063 19.800781 11.171875 19.464844 11.332031 19.207031 C 11.457031 19.03125 11.667969 18.84375 11.980469 18.84375 C 12.171875 18.84375 12.414063 18.933594 12.582031 19.183594 C 12.644531 19.277344 12.644531 19.289063 12.644531 19.394531 Z M 12.644531 20.554688 "
       id="path46" />
    <path
       style=" stroke:none;fill-rule:nonzero;fill:rgb(0%,0%,0%);fill-opacity:1;"
       d="M 15.988281 20.546875 C 15.988281 20.492188 15.941406 20.476563 15.90625 20.476563 C 15.863281 20.476563 15.84375 20.511719 15.835938 20.554688 C 15.640625 21.140625 15.128906 21.140625 15.074219 21.140625 C 14.792969 21.140625 14.570313 20.972656 14.4375 20.757813 C 14.269531 20.492188 14.269531 20.121094 14.269531 19.917969 L 15.84375 19.917969 C 15.96875 19.917969 15.988281 19.917969 15.988281 19.792969 C 15.988281 19.234375 15.675781 18.6875 14.976563 18.6875 C 14.320313 18.6875 13.800781 19.269531 13.800781 19.980469 C 13.800781 20.730469 14.390625 21.28125 15.039063 21.28125 C 15.730469 21.28125 15.988281 20.652344 15.988281 20.546875 Z M 15.613281 19.792969 L 14.269531 19.792969 C 14.304688 18.953125 14.78125 18.808594 14.976563 18.808594 C 15.554688 18.808594 15.613281 19.570313 15.613281 19.792969 Z M 15.613281 19.792969 "
       id="path48" />
    <path
       style=" stroke:none;fill-rule:nonzero;fill:rgb(0%,0%,0%);fill-opacity:1;"
       d="M 19.167969 21.21875 L 19.167969 21.042969 C 18.875 21.042969 18.734375 21.042969 18.734375 20.875 L 18.734375 19.792969 C 18.734375 19.304688 18.734375 19.136719 18.558594 18.933594 C 18.476563 18.835938 18.292969 18.722656 17.964844 18.722656 C 17.546875 18.722656 17.28125 18.960938 17.121094 19.316406 L 17.121094 18.722656 L 16.324219 18.78125 L 16.324219 18.960938 C 16.722656 18.960938 16.765625 18.996094 16.765625 19.277344 L 16.765625 20.792969 C 16.765625 21.042969 16.707031 21.042969 16.324219 21.042969 L 16.324219 21.21875 L 16.972656 21.203125 L 17.601563 21.21875 L 17.601563 21.042969 C 17.21875 21.042969 17.15625 21.042969 17.15625 20.792969 L 17.15625 19.75 C 17.15625 19.164063 17.566406 18.84375 17.917969 18.84375 C 18.28125 18.84375 18.34375 19.144531 18.34375 19.472656 L 18.34375 20.792969 C 18.34375 21.042969 18.28125 21.042969 17.902344 21.042969 L 17.902344 21.21875 L 18.539063 21.203125 Z M 19.167969 21.21875 "
       id="path50" />
    <path
       style=" stroke:none;fill-rule:nonzero;fill:rgb(0%,0%,0%);fill-opacity:1;"
       d="M 21.007813 20.519531 L 21.007813 20.199219 L 20.867188 20.199219 L 20.867188 20.511719 C 20.867188 20.925781 20.699219 21.140625 20.484375 21.140625 C 20.105469 21.140625 20.105469 20.625 20.105469 20.527344 L 20.105469 18.960938 L 20.917969 18.960938 L 20.917969 18.78125 L 20.105469 18.78125 L 20.105469 17.746094 L 19.960938 17.746094 C 19.960938 18.207031 19.792969 18.808594 19.234375 18.835938 L 19.234375 18.960938 L 19.714844 18.960938 L 19.714844 20.519531 C 19.714844 21.210938 20.246094 21.28125 20.449219 21.28125 C 20.847656 21.28125 21.007813 20.882813 21.007813 20.519531 Z M 21.007813 20.519531 "
       id="path52" />
    <path
       style=" stroke:none;fill-rule:nonzero;fill:rgb(0%,0%,0%);fill-opacity:1;"
       d="M 2.683594 27.996094 L 2.683594 27.820313 C 2.304688 27.820313 2.242188 27.820313 2.242188 27.570313 L 2.242188 24.074219 L 1.425781 24.136719 L 1.425781 24.3125 C 1.824219 24.3125 1.871094 24.347656 1.871094 24.632813 L 1.871094 27.570313 C 1.871094 27.820313 1.808594 27.820313 1.425781 27.820313 L 1.425781 27.996094 L 2.054688 27.980469 Z M 2.683594 27.996094 "
       id="path54" />
    <path
       style=" stroke:none;fill-rule:nonzero;fill:rgb(0%,0%,0%);fill-opacity:1;"
       d="M 4.210938 27.996094 L 4.210938 27.820313 C 3.832031 27.820313 3.8125 27.792969 3.8125 27.570313 L 3.8125 25.5 L 3.023438 25.5625 L 3.023438 25.738281 C 3.386719 25.738281 3.441406 25.773438 3.441406 26.046875 L 3.441406 27.570313 C 3.441406 27.820313 3.378906 27.820313 2.996094 27.820313 L 2.996094 27.996094 L 3.617188 27.980469 C 3.820313 27.980469 4.015625 27.988281 4.210938 27.996094 Z M 3.890625 24.585938 C 3.890625 24.425781 3.769531 24.285156 3.601563 24.285156 C 3.40625 24.285156 3.289063 24.445313 3.289063 24.585938 C 3.289063 24.738281 3.421875 24.878906 3.589844 24.878906 C 3.785156 24.878906 3.890625 24.730469 3.890625 24.585938 Z M 3.890625 24.585938 "
       id="path56" />
    <path
       style=" stroke:none;fill-rule:nonzero;fill:rgb(0%,0%,0%);fill-opacity:1;"
       d="M 7.117188 25.710938 C 7.117188 25.613281 7.058594 25.4375 6.835938 25.4375 C 6.71875 25.4375 6.472656 25.472656 6.234375 25.703125 C 5.992188 25.515625 5.765625 25.5 5.640625 25.5 C 5.109375 25.5 4.71875 25.890625 4.71875 26.324219 C 4.71875 26.570313 4.84375 26.785156 4.984375 26.90625 C 4.914063 26.988281 4.808594 27.171875 4.808594 27.378906 C 4.808594 27.554688 4.886719 27.765625 5.0625 27.882813 C 4.71875 27.972656 4.542969 28.21875 4.542969 28.441406 C 4.542969 28.847656 5.097656 29.15625 5.789063 29.15625 C 6.453125 29.15625 7.039063 28.875 7.039063 28.429688 C 7.039063 28.238281 6.96875 27.945313 6.675781 27.785156 C 6.375 27.632813 6.046875 27.632813 5.703125 27.632813 C 5.558594 27.632813 5.320313 27.632813 5.277344 27.625 C 5.097656 27.597656 4.984375 27.429688 4.984375 27.246094 C 4.984375 27.226563 4.984375 27.09375 5.074219 26.980469 C 5.292969 27.136719 5.535156 27.15625 5.640625 27.15625 C 6.164063 27.15625 6.550781 26.765625 6.550781 26.332031 C 6.550781 26.121094 6.464844 25.914063 6.320313 25.78125 C 6.527344 25.589844 6.730469 25.5625 6.828125 25.5625 C 6.828125 25.5625 6.871094 25.5625 6.890625 25.570313 C 6.828125 25.589844 6.792969 25.648438 6.792969 25.722656 C 6.792969 25.816406 6.871094 25.878906 6.960938 25.878906 C 7.011719 25.878906 7.117188 25.84375 7.117188 25.710938 Z M 6.125 26.324219 C 6.125 26.472656 6.125 26.660156 6.039063 26.800781 C 5.992188 26.863281 5.859375 27.023438 5.640625 27.023438 C 5.144531 27.023438 5.144531 26.457031 5.144531 26.332031 C 5.144531 26.179688 5.152344 25.996094 5.230469 25.855469 C 5.277344 25.792969 5.410156 25.632813 5.640625 25.632813 C 6.125 25.632813 6.125 26.191406 6.125 26.324219 Z M 6.746094 28.441406 C 6.746094 28.75 6.347656 29.035156 5.800781 29.035156 C 5.222656 29.035156 4.832031 28.742188 4.832031 28.441406 C 4.832031 28.183594 5.046875 27.972656 5.292969 27.960938 L 5.628906 27.960938 C 6.117188 27.960938 6.746094 27.960938 6.746094 28.441406 Z M 6.746094 28.441406 "
       id="path58" />
    <path
       style=" stroke:none;fill-rule:nonzero;fill:rgb(0%,0%,0%);fill-opacity:1;"
       d="M 10.226563 27.996094 L 10.226563 27.820313 C 9.933594 27.820313 9.792969 27.820313 9.792969 27.652344 L 9.792969 26.570313 C 9.792969 26.085938 9.792969 25.914063 9.617188 25.710938 C 9.535156 25.613281 9.347656 25.5 9.023438 25.5 C 8.542969 25.5 8.296875 25.835938 8.207031 26.039063 L 8.199219 26.039063 L 8.199219 24.074219 L 7.382813 24.136719 L 7.382813 24.3125 C 7.78125 24.3125 7.824219 24.347656 7.824219 24.632813 L 7.824219 27.570313 C 7.824219 27.820313 7.765625 27.820313 7.382813 27.820313 L 7.382813 27.996094 L 8.03125 27.980469 L 8.660156 27.996094 L 8.660156 27.820313 C 8.277344 27.820313 8.214844 27.820313 8.214844 27.570313 L 8.214844 26.527344 C 8.214844 25.941406 8.625 25.625 8.976563 25.625 C 9.339844 25.625 9.402344 25.925781 9.402344 26.253906 L 9.402344 27.570313 C 9.402344 27.820313 9.339844 27.820313 8.960938 27.820313 L 8.960938 27.996094 L 9.597656 27.980469 Z M 10.226563 27.996094 "
       id="path60" />
    <path
       style=" stroke:none;fill-rule:nonzero;fill:rgb(0%,0%,0%);fill-opacity:1;"
       d="M 12.070313 27.296875 L 12.070313 26.980469 L 11.929688 26.980469 L 11.929688 27.289063 C 11.929688 27.703125 11.761719 27.917969 11.550781 27.917969 C 11.167969 27.917969 11.167969 27.402344 11.167969 27.304688 L 11.167969 25.738281 L 11.984375 25.738281 L 11.984375 25.5625 L 11.167969 25.5625 L 11.167969 24.523438 L 11.027344 24.523438 C 11.027344 24.984375 10.859375 25.589844 10.300781 25.613281 L 10.300781 25.738281 L 10.777344 25.738281 L 10.777344 27.296875 C 10.777344 27.988281 11.308594 28.058594 11.511719 28.058594 C 11.914063 28.058594 12.070313 27.660156 12.070313 27.296875 Z M 12.070313 27.296875 "
       id="path62" />
    <path
       style="fill:none;stroke-width:0.75;stroke-linecap:butt;stroke-linejoin:miter;stroke:rgb(0%,0%,0%);stroke-opacity:1;stroke-miterlimit:4;"
       d="M 63.480469 203.718521 L 107.210938 203.718521 "
       transform="matrix(1,0,0,1,-14.625,-146.249771)"
       id="path64" />
    <path
       style="fill-rule:evenodd;fill:rgb(0%,0%,0%);fill-opacity:1;stroke-width:0.4;stroke-linecap:butt;stroke-linejoin:miter;stroke:rgb(0%,0%,0%);stroke-opacity:1;stroke-miterlimit:4;"
       d="M 66.480469 203.718521 L 67.980469 202.218521 L 62.730469 203.718521 L 67.980469 205.218521 Z M 66.480469 203.718521 "
       transform="matrix(1,0,0,1,-14.625,-146.249771)"
       id="path66" />
    <path
       style="fill-rule:evenodd;fill:rgb(0%,0%,0%);fill-opacity:1;stroke-width:0.4;stroke-linecap:butt;stroke-linejoin:miter;stroke:rgb(0%,0%,0%);stroke-opacity:1;stroke-miterlimit:4;"
       d="M -104.210938 -203.718521 L -102.710938 -205.218521 L -107.960938 -203.718521 L -102.710938 -202.218521 Z M -104.210938 -203.718521 "
       transform="matrix(-1,0,0,-1,-14.625,-146.249771)"
       id="path68" />
    <path
       style=" stroke:none;fill-rule:nonzero;fill:rgb(0%,0%,0%);fill-opacity:1;"
       d="M 71.539063 61.167969 C 71.574219 61.023438 71.707031 60.5 72.097656 60.5 C 72.121094 60.5 72.265625 60.5 72.378906 60.574219 C 72.21875 60.609375 72.113281 60.742188 72.113281 60.882813 C 72.113281 60.972656 72.175781 61.078125 72.328125 61.078125 C 72.449219 61.078125 72.628906 60.980469 72.628906 60.75 C 72.628906 60.457031 72.300781 60.378906 72.105469 60.378906 C 71.777344 60.378906 71.582031 60.679688 71.511719 60.804688 C 71.371094 60.429688 71.070313 60.378906 70.902344 60.378906 C 70.316406 60.378906 69.988281 61.105469 69.988281 61.246094 C 69.988281 61.308594 70.050781 61.308594 70.058594 61.308594 C 70.101563 61.308594 70.121094 61.289063 70.128906 61.246094 C 70.324219 60.644531 70.695313 60.5 70.890625 60.5 C 70.996094 60.5 71.191406 60.554688 71.191406 60.882813 C 71.191406 61.058594 71.09375 61.433594 70.890625 62.230469 C 70.804688 62.574219 70.597656 62.8125 70.351563 62.8125 C 70.316406 62.8125 70.191406 62.8125 70.066406 62.742188 C 70.210938 62.707031 70.332031 62.59375 70.332031 62.433594 C 70.332031 62.28125 70.210938 62.238281 70.128906 62.238281 C 69.953125 62.238281 69.820313 62.378906 69.820313 62.566406 C 69.820313 62.824219 70.09375 62.9375 70.34375 62.9375 C 70.722656 62.9375 70.925781 62.539063 70.9375 62.511719 C 71.007813 62.714844 71.210938 62.9375 71.546875 62.9375 C 72.132813 62.9375 72.449219 62.210938 72.449219 62.070313 C 72.449219 62.007813 72.40625 62.007813 72.390625 62.007813 C 72.335938 62.007813 72.328125 62.035156 72.308594 62.070313 C 72.121094 62.679688 71.742188 62.8125 71.566406 62.8125 C 71.34375 62.8125 71.253906 62.636719 71.253906 62.441406 C 71.253906 62.316406 71.28125 62.195313 71.34375 61.945313 Z M 71.539063 61.167969 "
       id="path70" />
  </g>
</svg>
