<?xml version="1.0" encoding="UTF-8" standalone="no"?>
<svg
   xmlns:dc="http://purl.org/dc/elements/1.1/"
   xmlns:cc="http://creativecommons.org/ns#"
   xmlns:rdf="http://www.w3.org/1999/02/22-rdf-syntax-ns#"
   xmlns:svg="http://www.w3.org/2000/svg"
   xmlns="http://www.w3.org/2000/svg"
   xmlns:sodipodi="http://sodipodi.sourceforge.net/DTD/sodipodi-0.dtd"
   xmlns:inkscape="http://www.inkscape.org/namespaces/inkscape"
   width="105.5pt"
   height="97pt"
   viewBox="0 0 105.5 97"
   version="1.2"
   id="svg57"
   sodipodi:docname="brillouin.svg"
   inkscape:version="0.92.4 (5da689c313, 2019-01-14)">
  <metadata
     id="metadata63">
    <rdf:RDF>
      <cc:Work
         rdf:about="">
        <dc:format>image/svg+xml</dc:format>
        <dc:type
           rdf:resource="http://purl.org/dc/dcmitype/StillImage" />
        <dc:title></dc:title>
      </cc:Work>
    </rdf:RDF>
  </metadata>
  <defs
     id="defs61" />
  <sodipodi:namedview
     pagecolor="#ffffff"
     bordercolor="#666666"
     borderopacity="1"
     objecttolerance="10"
     gridtolerance="10"
     guidetolerance="10"
     inkscape:pageopacity="0"
     inkscape:pageshadow="2"
     inkscape:window-width="727"
     inkscape:window-height="480"
     id="namedview59"
     showgrid="false"
     inkscape:zoom="1.8247423"
     inkscape:cx="70.333333"
     inkscape:cy="64.666667"
     inkscape:window-x="0"
     inkscape:window-y="0"
     inkscape:window-maximized="0"
     inkscape:current-layer="svg57" />
  <g
     id="surface50">
    <path
       style="fill:none;stroke-width:2.168504;stroke-linecap:butt;stroke-linejoin:miter;stroke:rgb(0%,0%,0%);stroke-opacity:1;stroke-miterlimit:4;"
       d="M 166.773438 247.32399 L 232.398438 247.32399 L 232.398438 313.218521 L 166.773438 313.218521 Z M 166.773438 247.32399 "
       transform="matrix(1,0,0,1,-149,-228.999771)"
       id="path2" />
    <path
       style="fill:none;stroke-width:0.737008;stroke-linecap:butt;stroke-linejoin:miter;stroke:rgb(0%,0%,0%);stroke-opacity:1;stroke-miterlimit:4;"
       d="M 199.554688 235.91774 L 199.554688 324.816177 "
       transform="matrix(1,0,0,1,-149,-228.999771)"
       id="path4" />
    <path
       style="fill:none;stroke-width:0.737008;stroke-linecap:butt;stroke-linejoin:miter;stroke:rgb(0%,0%,0%);stroke-opacity:1;stroke-miterlimit:4;"
       d="M 157.972656 280.210709 L 241.722656 280.210709 "
       transform="matrix(1,0,0,1,-149,-228.999771)"
       id="path6" />
    <path
       style=" stroke:none;fill-rule:nonzero;fill:rgb(0%,0%,0%);fill-opacity:1;"
       d="M 48.414063 52.945313 L 45.472656 52.945313 L 45.472656 53.121094 L 45.605469 53.121094 C 46.039063 53.121094 46.058594 53.183594 46.058594 53.386719 L 46.058594 56.347656 C 46.058594 56.550781 46.039063 56.613281 45.605469 56.613281 L 45.472656 56.613281 L 45.472656 56.789063 C 45.667969 56.769531 46.109375 56.769531 46.332031 56.769531 C 46.5625 56.769531 47.078125 56.769531 47.28125 56.789063 L 47.28125 56.613281 L 47.09375 56.613281 C 46.5625 56.613281 46.5625 56.539063 46.5625 56.347656 L 46.5625 53.34375 C 46.5625 53.15625 46.570313 53.121094 46.835938 53.121094 L 47.421875 53.121094 C 48.226563 53.121094 48.34375 53.457031 48.433594 54.21875 L 48.574219 54.21875 Z M 48.414063 52.945313 "
       id="path8" />
    <path
       style=" stroke:none;fill-rule:nonzero;fill:rgb(0%,0%,0%);fill-opacity:1;"
       d="M 66.929688 55.34375 C 66.894531 55.261719 66.875 55.238281 66.777344 55.238281 C 66.691406 55.238281 66.671875 55.261719 66.636719 55.34375 L 64.722656 59.167969 C 64.695313 59.222656 64.695313 59.230469 64.695313 59.242188 C 64.695313 59.285156 64.730469 59.285156 64.820313 59.285156 L 68.746094 59.285156 C 68.832031 59.285156 68.867188 59.285156 68.867188 59.242188 C 68.867188 59.230469 68.867188 59.222656 68.84375 59.167969 Z M 66.601563 55.804688 L 68.125 58.859375 L 65.078125 58.859375 Z M 66.601563 55.804688 "
       id="path10" />
    <path
       style=" stroke:none;fill-rule:nonzero;fill:rgb(0%,0%,0%);fill-opacity:1;"
       d="M 89.21875 55.777344 L 88.75 54.652344 C 88.734375 54.609375 88.722656 54.582031 88.722656 54.582031 C 88.722656 54.546875 88.8125 54.441406 89.050781 54.414063 C 89.113281 54.40625 89.167969 54.40625 89.167969 54.308594 C 89.167969 54.238281 89.097656 54.238281 89.078125 54.238281 C 88.847656 54.238281 88.609375 54.253906 88.371094 54.253906 C 88.226563 54.253906 87.882813 54.238281 87.742188 54.238281 C 87.703125 54.238281 87.632813 54.238281 87.632813 54.351563 C 87.632813 54.414063 87.695313 54.414063 87.765625 54.414063 C 88.105469 54.414063 88.140625 54.46875 88.191406 54.589844 L 88.855469 56.167969 L 87.660156 57.453125 L 87.589844 57.515625 C 87.316406 57.816406 87.050781 57.902344 86.757813 57.921875 C 86.6875 57.929688 86.632813 57.929688 86.632813 58.035156 C 86.632813 58.046875 86.632813 58.097656 86.710938 58.097656 C 86.882813 58.097656 87.066406 58.082031 87.234375 58.082031 C 87.449219 58.082031 87.667969 58.097656 87.875 58.097656 C 87.910156 58.097656 87.972656 58.097656 87.972656 57.984375 C 87.972656 57.929688 87.917969 57.921875 87.910156 57.921875 C 87.855469 57.921875 87.679688 57.902344 87.679688 57.746094 C 87.679688 57.65625 87.765625 57.566406 87.828125 57.496094 L 88.414063 56.886719 L 88.917969 56.328125 L 89.484375 57.683594 C 89.511719 57.746094 89.519531 57.746094 89.519531 57.761719 C 89.519531 57.808594 89.40625 57.902344 89.191406 57.921875 C 89.132813 57.929688 89.078125 57.929688 89.078125 58.027344 C 89.078125 58.097656 89.140625 58.097656 89.15625 58.097656 C 89.316406 58.097656 89.714844 58.082031 89.875 58.082031 C 90.015625 58.082031 90.363281 58.097656 90.503906 58.097656 C 90.539063 58.097656 90.609375 58.097656 90.609375 57.992188 C 90.609375 57.921875 90.546875 57.921875 90.503906 57.921875 C 90.132813 57.921875 90.113281 57.902344 90.015625 57.675781 C 89.804688 57.152344 89.421875 56.265625 89.289063 55.929688 C 89.671875 55.53125 90.265625 54.855469 90.449219 54.707031 C 90.609375 54.566406 90.832031 54.433594 91.167969 54.414063 C 91.238281 54.40625 91.292969 54.40625 91.292969 54.300781 C 91.292969 54.300781 91.292969 54.238281 91.222656 54.238281 C 91.054688 54.238281 90.859375 54.253906 90.691406 54.253906 C 90.476563 54.253906 90.265625 54.238281 90.0625 54.238281 C 90.027344 54.238281 89.953125 54.238281 89.953125 54.351563 C 89.953125 54.386719 89.980469 54.40625 90.015625 54.414063 C 90.070313 54.421875 90.246094 54.433594 90.246094 54.589844 C 90.246094 54.671875 90.183594 54.742188 90.140625 54.792969 Z M 89.21875 55.777344 "
       id="path12" />
    <path
       style=" stroke:none;fill-rule:nonzero;fill:rgb(0%,0%,0%);fill-opacity:1;"
       d="M 63.828125 31.398438 C 63.882813 31.34375 63.882813 31.316406 63.882813 31.308594 C 63.882813 31.28125 63.863281 31.246094 63.84375 31.230469 L 62.683594 29.554688 L 63.988281 29.554688 C 64.945313 29.554688 65.226563 29.757813 65.34375 30.652344 L 65.484375 30.652344 L 65.324219 29.378906 L 62.1875 29.378906 C 62.054688 29.378906 62.046875 29.378906 62.046875 29.511719 L 63.457031 31.558594 L 62.109375 33.089844 C 62.046875 33.152344 62.046875 33.160156 62.046875 33.179688 C 62.046875 33.242188 62.109375 33.242188 62.1875 33.242188 L 65.324219 33.242188 L 65.484375 31.902344 L 65.34375 31.902344 C 65.246094 32.851563 64.855469 33 63.96875 33 L 62.410156 33 Z M 63.828125 31.398438 "
       id="path14" />
    <path
       style=" stroke:none;fill-rule:nonzero;fill:rgb(0%,0%,0%);fill-opacity:1;"
       d="M 96.746094 50.742188 C 96.746094 50.742188 96.746094 50.679688 96.675781 50.679688 C 96.542969 50.679688 96.132813 50.722656 95.984375 50.742188 C 95.9375 50.742188 95.878906 50.75 95.878906 50.847656 C 95.878906 50.917969 95.929688 50.917969 96.011719 50.917969 C 96.285156 50.917969 96.292969 50.953125 96.292969 51.015625 L 96.277344 51.132813 L 95.460938 54.382813 C 95.433594 54.460938 95.433594 54.472656 95.433594 54.507813 C 95.433594 54.640625 95.550781 54.667969 95.601563 54.667969 C 95.671875 54.667969 95.753906 54.613281 95.789063 54.550781 C 95.816406 54.496094 96.070313 53.453125 96.109375 53.3125 C 96.300781 53.328125 96.761719 53.417969 96.761719 53.789063 C 96.761719 53.832031 96.761719 53.851563 96.746094 53.914063 C 96.738281 53.976563 96.726563 54.046875 96.726563 54.109375 C 96.726563 54.4375 96.949219 54.667969 97.242188 54.667969 C 97.410156 54.667969 97.570313 54.578125 97.691406 54.363281 C 97.835938 54.117188 97.898438 53.808594 97.898438 53.796875 C 97.898438 53.734375 97.84375 53.734375 97.824219 53.734375 C 97.773438 53.734375 97.765625 53.761719 97.746094 53.84375 C 97.632813 54.25 97.507813 54.542969 97.257813 54.542969 C 97.144531 54.542969 97.074219 54.480469 97.074219 54.277344 C 97.074219 54.179688 97.101563 54.046875 97.117188 53.957031 C 97.144531 53.859375 97.144531 53.84375 97.144531 53.78125 C 97.144531 53.417969 96.789063 53.257813 96.300781 53.1875 C 96.480469 53.089844 96.664063 52.914063 96.789063 52.769531 C 97.0625 52.46875 97.320313 52.230469 97.597656 52.230469 C 97.632813 52.230469 97.640625 52.230469 97.648438 52.238281 C 97.71875 52.246094 97.71875 52.246094 97.773438 52.285156 C 97.78125 52.285156 97.78125 52.292969 97.789063 52.300781 C 97.523438 52.320313 97.472656 52.539063 97.472656 52.609375 C 97.472656 52.699219 97.535156 52.804688 97.683594 52.804688 C 97.835938 52.804688 97.996094 52.683594 97.996094 52.460938 C 97.996094 52.292969 97.863281 52.105469 97.613281 52.105469 C 97.453125 52.105469 97.195313 52.152344 96.789063 52.601563 C 96.59375 52.816406 96.375 53.046875 96.160156 53.125 Z M 96.746094 50.742188 "
       id="path16" />
    <path
       style=" stroke:none;fill-rule:nonzero;fill:rgb(0%,0%,0%);fill-opacity:1;"
       d="M 99.046875 55.035156 C 99.011719 55.167969 98.878906 55.382813 98.675781 55.382813 C 98.667969 55.382813 98.542969 55.382813 98.464844 55.328125 C 98.625 55.273438 98.640625 55.132813 98.640625 55.105469 C 98.640625 55.019531 98.570313 54.964844 98.480469 54.964844 C 98.367188 54.964844 98.25 55.054688 98.25 55.203125 C 98.25 55.398438 98.472656 55.488281 98.667969 55.488281 C 98.851563 55.488281 99.011719 55.382813 99.109375 55.210938 C 99.207031 55.417969 99.421875 55.488281 99.578125 55.488281 C 100.039063 55.488281 100.28125 55 100.28125 54.886719 C 100.28125 54.832031 100.226563 54.832031 100.21875 54.832031 C 100.15625 54.832031 100.15625 54.859375 100.136719 54.902344 C 100.058594 55.175781 99.820313 55.382813 99.597656 55.382813 C 99.4375 55.382813 99.359375 55.273438 99.359375 55.125 C 99.359375 55.019531 99.457031 54.664063 99.5625 54.21875 C 99.640625 53.917969 99.820313 53.820313 99.953125 53.820313 C 99.960938 53.820313 100.074219 53.820313 100.164063 53.875 C 100.039063 53.910156 99.988281 54.027344 99.988281 54.097656 C 99.988281 54.175781 100.058594 54.238281 100.148438 54.238281 C 100.234375 54.238281 100.367188 54.167969 100.367188 54 C 100.367188 53.777344 100.109375 53.707031 99.960938 53.707031 C 99.757813 53.707031 99.597656 53.839844 99.519531 53.992188 C 99.445313 53.832031 99.261719 53.707031 99.039063 53.707031 C 98.597656 53.707031 98.347656 54.195313 98.347656 54.316406 C 98.347656 54.363281 98.402344 54.363281 98.410156 54.363281 C 98.464844 54.363281 98.464844 54.351563 98.488281 54.300781 C 98.585938 53.992188 98.835938 53.820313 99.03125 53.820313 C 99.164063 53.820313 99.269531 53.894531 99.269531 54.078125 C 99.269531 54.160156 99.214844 54.351563 99.179688 54.496094 Z M 99.046875 55.035156 "
       id="path18" />
    <path
       style=" stroke:none;fill-rule:nonzero;fill:rgb(0%,0%,0%);fill-opacity:1;"
       d="M 49.839844 0.699219 C 49.839844 0.699219 49.839844 0.636719 49.769531 0.636719 C 49.636719 0.636719 49.226563 0.679688 49.078125 0.699219 C 49.035156 0.699219 48.972656 0.707031 48.972656 0.804688 C 48.972656 0.875 49.023438 0.875 49.105469 0.875 C 49.378906 0.875 49.386719 0.910156 49.386719 0.972656 L 49.371094 1.085938 L 48.554688 4.339844 C 48.527344 4.417969 48.527344 4.425781 48.527344 4.460938 C 48.527344 4.59375 48.644531 4.621094 48.695313 4.621094 C 48.769531 4.621094 48.847656 4.570313 48.882813 4.507813 C 48.910156 4.453125 49.167969 3.410156 49.203125 3.265625 C 49.398438 3.285156 49.855469 3.375 49.855469 3.746094 C 49.855469 3.789063 49.855469 3.808594 49.839844 3.871094 C 49.832031 3.929688 49.820313 4.003906 49.820313 4.0625 C 49.820313 4.390625 50.042969 4.621094 50.335938 4.621094 C 50.503906 4.621094 50.664063 4.535156 50.789063 4.320313 C 50.929688 4.074219 50.992188 3.761719 50.992188 3.753906 C 50.992188 3.691406 50.9375 3.691406 50.921875 3.691406 C 50.867188 3.691406 50.859375 3.71875 50.839844 3.796875 C 50.726563 4.207031 50.601563 4.5 50.351563 4.5 C 50.238281 4.5 50.167969 4.4375 50.167969 4.234375 C 50.167969 4.136719 50.195313 4.003906 50.210938 3.914063 C 50.238281 3.816406 50.238281 3.796875 50.238281 3.738281 C 50.238281 3.375 49.882813 3.214844 49.398438 3.144531 C 49.574219 3.046875 49.761719 2.867188 49.882813 2.726563 C 50.160156 2.425781 50.414063 2.1875 50.691406 2.1875 C 50.726563 2.1875 50.734375 2.1875 50.742188 2.195313 C 50.8125 2.203125 50.8125 2.203125 50.867188 2.238281 C 50.875 2.238281 50.875 2.25 50.886719 2.257813 C 50.621094 2.273438 50.566406 2.496094 50.566406 2.566406 C 50.566406 2.65625 50.628906 2.761719 50.777344 2.761719 C 50.929688 2.761719 51.089844 2.636719 51.089844 2.417969 C 51.089844 2.25 50.957031 2.0625 50.707031 2.0625 C 50.546875 2.0625 50.292969 2.105469 49.882813 2.558594 C 49.6875 2.769531 49.46875 3 49.253906 3.082031 Z M 49.839844 0.699219 "
       id="path20" />
    <path
       style=" stroke:none;fill-rule:nonzero;fill:rgb(0%,0%,0%);fill-opacity:1;"
       d="M 53.355469 3.917969 C 53.375 3.867188 53.375 3.859375 53.375 3.832031 C 53.375 3.75 53.3125 3.707031 53.242188 3.707031 C 53.195313 3.707031 53.125 3.726563 53.082031 3.796875 C 53.0625 3.820313 53.035156 3.945313 53.019531 4.027344 L 52.929688 4.355469 C 52.914063 4.449219 52.789063 4.945313 52.769531 4.992188 C 52.769531 4.992188 52.59375 5.335938 52.292969 5.335938 C 52.019531 5.335938 52.019531 5.078125 52.019531 5.007813 C 52.019531 4.796875 52.105469 4.546875 52.230469 4.238281 C 52.273438 4.113281 52.292969 4.070313 52.292969 4 C 52.292969 3.8125 52.132813 3.664063 51.921875 3.664063 C 51.523438 3.664063 51.34375 4.203125 51.34375 4.273438 C 51.34375 4.316406 51.398438 4.316406 51.414063 4.316406 C 51.46875 4.316406 51.46875 4.300781 51.488281 4.257813 C 51.582031 3.929688 51.753906 3.777344 51.910156 3.777344 C 51.972656 3.777344 52.007813 3.820313 52.007813 3.910156 C 52.007813 4.007813 51.972656 4.085938 51.957031 4.140625 C 51.761719 4.628906 51.726563 4.769531 51.726563 4.945313 C 51.726563 5.007813 51.726563 5.195313 51.875 5.328125 C 52 5.425781 52.167969 5.441406 52.273438 5.441406 C 52.433594 5.441406 52.574219 5.390625 52.699219 5.265625 C 52.65625 5.488281 52.613281 5.65625 52.441406 5.851563 C 52.335938 5.976563 52.175781 6.097656 51.964844 6.097656 C 51.9375 6.097656 51.753906 6.097656 51.671875 5.976563 C 51.886719 5.949219 51.886719 5.761719 51.886719 5.753906 C 51.886719 5.628906 51.769531 5.601563 51.734375 5.601563 C 51.636719 5.601563 51.503906 5.683594 51.503906 5.867188 C 51.503906 6.0625 51.691406 6.214844 51.972656 6.214844 C 52.371094 6.214844 52.859375 5.902344 52.984375 5.40625 Z M 53.355469 3.917969 "
       id="path22" />
    <path
       style=" stroke:none;fill-rule:nonzero;fill:rgb(0%,0%,0%);fill-opacity:1;"
       d="M 93.238281 13.804688 C 93.289063 13.597656 93.300781 13.546875 93.726563 13.546875 C 93.847656 13.546875 93.902344 13.546875 93.902344 13.429688 C 93.902344 13.367188 93.847656 13.367188 93.75 13.367188 L 93.007813 13.367188 C 92.855469 13.367188 92.847656 13.367188 92.785156 13.476563 L 90.722656 16.699219 L 90.277344 13.503906 C 90.261719 13.367188 90.253906 13.367188 90.101563 13.367188 L 89.332031 13.367188 C 89.226563 13.367188 89.164063 13.367188 89.164063 13.476563 C 89.164063 13.546875 89.214844 13.546875 89.324219 13.546875 C 89.402344 13.546875 89.5 13.554688 89.570313 13.554688 C 89.660156 13.574219 89.695313 13.582031 89.695313 13.652344 C 89.695313 13.671875 89.6875 13.6875 89.667969 13.757813 L 88.949219 16.628906 C 88.898438 16.859375 88.800781 17.035156 88.339844 17.054688 C 88.3125 17.054688 88.242188 17.0625 88.242188 17.160156 C 88.242188 17.214844 88.277344 17.230469 88.320313 17.230469 C 88.5 17.230469 88.695313 17.214844 88.886719 17.214844 C 89.074219 17.214844 89.277344 17.230469 89.464844 17.230469 C 89.492188 17.230469 89.570313 17.230469 89.570313 17.117188 C 89.570313 17.054688 89.507813 17.054688 89.464844 17.054688 C 89.144531 17.054688 89.082031 16.9375 89.082031 16.804688 C 89.082031 16.769531 89.082031 16.734375 89.101563 16.671875 L 89.871094 13.597656 L 89.878906 13.597656 L 90.367188 17.097656 C 90.375 17.167969 90.386719 17.230469 90.449219 17.230469 C 90.507813 17.230469 90.542969 17.167969 90.570313 17.132813 L 92.855469 13.554688 L 92.867188 13.554688 L 92.050781 16.789063 C 91.996094 17.011719 91.988281 17.054688 91.535156 17.054688 C 91.449219 17.054688 91.386719 17.054688 91.386719 17.160156 C 91.386719 17.230469 91.449219 17.230469 91.464844 17.230469 C 91.625 17.230469 92.007813 17.214844 92.164063 17.214844 C 92.394531 17.214844 92.644531 17.230469 92.875 17.230469 C 92.910156 17.230469 92.980469 17.230469 92.980469 17.117188 C 92.980469 17.054688 92.925781 17.054688 92.820313 17.054688 C 92.617188 17.054688 92.457031 17.054688 92.457031 16.957031 C 92.457031 16.929688 92.457031 16.921875 92.484375 16.816406 Z M 93.238281 13.804688 "
       id="path24" />
    <path
       style=" stroke:none;fill-rule:nonzero;fill:rgb(0%,0%,0%);fill-opacity:1;"
       d="M 54.285156 12.355469 L 54.921875 12.355469 C 54.738281 13.1875 54.683594 13.4375 54.683594 13.816406 C 54.683594 13.898438 54.683594 14.046875 54.726563 14.242188 C 54.789063 14.492188 54.851563 14.527344 54.929688 14.527344 C 55.046875 14.527344 55.171875 14.429688 55.171875 14.3125 C 55.171875 14.277344 55.171875 14.269531 55.136719 14.191406 C 54.964844 13.78125 54.964844 13.410156 54.964844 13.25 C 54.964844 12.957031 55.011719 12.648438 55.074219 12.355469 L 55.710938 12.355469 C 55.789063 12.355469 55.996094 12.355469 55.996094 12.160156 C 55.996094 12.027344 55.871094 12.027344 55.765625 12.027344 L 53.867188 12.027344 C 53.746094 12.027344 53.53125 12.027344 53.285156 12.292969 C 53.089844 12.515625 52.9375 12.773438 52.9375 12.800781 C 52.9375 12.808594 52.9375 12.863281 53.007813 12.863281 C 53.054688 12.863281 53.0625 12.835938 53.097656 12.789063 C 53.371094 12.355469 53.699219 12.355469 53.816406 12.355469 L 54.132813 12.355469 C 53.957031 13.039063 53.65625 13.71875 53.417969 14.234375 C 53.371094 14.324219 53.371094 14.332031 53.371094 14.375 C 53.371094 14.484375 53.460938 14.527344 53.53125 14.527344 C 53.699219 14.527344 53.746094 14.367188 53.816406 14.164063 C 53.894531 13.898438 53.894531 13.890625 53.964844 13.605469 Z M 54.285156 12.355469 "
       id="path26" />
    <path
       style=" stroke:none;fill-rule:nonzero;fill:rgb(0%,0%,0%);fill-opacity:1;"
       d="M 58.683594 10.441406 C 58.710938 10.363281 58.710938 10.34375 58.710938 10.335938 C 58.710938 10.273438 58.667969 10.222656 58.605469 10.222656 C 58.5625 10.222656 58.527344 10.238281 58.507813 10.273438 L 56.542969 15.660156 C 56.515625 15.742188 56.515625 15.757813 56.515625 15.765625 C 56.515625 15.828125 56.566406 15.882813 56.628906 15.882813 C 56.699219 15.882813 56.71875 15.835938 56.753906 15.742188 Z M 58.683594 10.441406 "
       id="path28" />
    <path
       style=" stroke:none;fill-rule:nonzero;fill:rgb(0%,0%,0%);fill-opacity:1;"
       d="M 61.136719 12.328125 C 61.03125 12.117188 60.871094 11.964844 60.613281 11.964844 C 59.957031 11.964844 59.257813 12.800781 59.257813 13.625 C 59.257813 14.15625 59.570313 14.527344 60.003906 14.527344 C 60.117188 14.527344 60.402344 14.5 60.738281 14.101563 C 60.78125 14.339844 60.988281 14.527344 61.253906 14.527344 C 61.457031 14.527344 61.578125 14.394531 61.675781 14.214844 C 61.765625 14.011719 61.84375 13.667969 61.84375 13.660156 C 61.84375 13.597656 61.792969 13.597656 61.773438 13.597656 C 61.722656 13.597656 61.710938 13.625 61.695313 13.703125 C 61.597656 14.066406 61.5 14.402344 61.269531 14.402344 C 61.109375 14.402344 61.101563 14.253906 61.101563 14.144531 C 61.101563 14.023438 61.109375 13.96875 61.171875 13.71875 C 61.234375 13.492188 61.242188 13.429688 61.296875 13.214844 L 61.5 12.425781 C 61.535156 12.269531 61.535156 12.257813 61.535156 12.234375 C 61.535156 12.136719 61.472656 12.082031 61.375 12.082031 C 61.234375 12.082031 61.15625 12.207031 61.136719 12.328125 Z M 60.773438 13.792969 C 60.738281 13.898438 60.738281 13.90625 60.660156 14.003906 C 60.410156 14.3125 60.179688 14.402344 60.019531 14.402344 C 59.738281 14.402344 59.65625 14.09375 59.65625 13.871094 C 59.65625 13.585938 59.835938 12.898438 59.96875 12.632813 C 60.144531 12.304688 60.394531 12.089844 60.625 12.089844 C 60.988281 12.089844 61.066406 12.550781 61.066406 12.585938 C 61.066406 12.621094 61.058594 12.65625 61.046875 12.683594 Z M 60.773438 13.792969 "
       id="path30" />
    <path
       style=" stroke:none;fill-rule:nonzero;fill:rgb(0%,0%,0%);fill-opacity:1;"
       d="M 5.507813 47.3125 C 5.605469 47.3125 5.710938 47.3125 5.710938 47.199219 C 5.710938 47.09375 5.605469 47.09375 5.507813 47.09375 L 2.453125 47.09375 C 2.355469 47.09375 2.257813 47.09375 2.257813 47.199219 C 2.257813 47.3125 2.355469 47.3125 2.453125 47.3125 Z M 5.507813 47.3125 "
       id="path32" />
    <path
       style=" stroke:none;fill-rule:nonzero;fill:rgb(0%,0%,0%);fill-opacity:1;"
       d="M 7.675781 46.507813 L 8.316406 46.507813 C 8.128906 47.339844 8.074219 47.589844 8.074219 47.96875 C 8.074219 48.050781 8.074219 48.199219 8.121094 48.394531 C 8.183594 48.644531 8.246094 48.679688 8.324219 48.679688 C 8.4375 48.679688 8.5625 48.582031 8.5625 48.464844 C 8.5625 48.429688 8.5625 48.421875 8.527344 48.34375 C 8.359375 47.933594 8.359375 47.5625 8.359375 47.402344 C 8.359375 47.109375 8.402344 46.800781 8.464844 46.507813 L 9.105469 46.507813 C 9.183594 46.507813 9.386719 46.507813 9.386719 46.3125 C 9.386719 46.179688 9.261719 46.179688 9.15625 46.179688 L 7.261719 46.179688 C 7.136719 46.179688 6.925781 46.179688 6.675781 46.445313 C 6.480469 46.667969 6.332031 46.925781 6.332031 46.953125 C 6.332031 46.960938 6.332031 47.011719 6.402344 47.011719 C 6.445313 47.011719 6.453125 46.988281 6.492188 46.941406 C 6.765625 46.507813 7.09375 46.507813 7.207031 46.507813 L 7.527344 46.507813 C 7.351563 47.191406 7.046875 47.871094 6.808594 48.386719 C 6.765625 48.476563 6.765625 48.484375 6.765625 48.527344 C 6.765625 48.632813 6.855469 48.679688 6.925781 48.679688 C 7.09375 48.679688 7.136719 48.519531 7.207031 48.316406 C 7.289063 48.050781 7.289063 48.039063 7.359375 47.757813 Z M 7.675781 46.507813 "
       id="path34" />
    <path
       style=" stroke:none;fill-rule:nonzero;fill:rgb(0%,0%,0%);fill-opacity:1;"
       d="M 12.078125 44.59375 C 12.105469 44.515625 12.105469 44.496094 12.105469 44.488281 C 12.105469 44.425781 12.058594 44.375 12 44.375 C 11.953125 44.375 11.917969 44.390625 11.902344 44.425781 L 9.933594 49.8125 C 9.90625 49.890625 9.90625 49.910156 9.90625 49.917969 C 9.90625 49.980469 9.960938 50.035156 10.023438 50.035156 C 10.09375 50.035156 10.109375 49.988281 10.148438 49.890625 Z M 12.078125 44.59375 "
       id="path36" />
    <path
       style=" stroke:none;fill-rule:nonzero;fill:rgb(0%,0%,0%);fill-opacity:1;"
       d="M 14.53125 46.480469 C 14.421875 46.269531 14.265625 46.117188 14.007813 46.117188 C 13.351563 46.117188 12.652344 46.953125 12.652344 47.773438 C 12.652344 48.304688 12.960938 48.679688 13.394531 48.679688 C 13.511719 48.679688 13.792969 48.652344 14.132813 48.253906 C 14.175781 48.492188 14.378906 48.679688 14.644531 48.679688 C 14.847656 48.679688 14.972656 48.546875 15.070313 48.367188 C 15.160156 48.164063 15.238281 47.820313 15.238281 47.808594 C 15.238281 47.75 15.183594 47.75 15.167969 47.75 C 15.113281 47.75 15.105469 47.773438 15.089844 47.855469 C 14.992188 48.21875 14.894531 48.554688 14.664063 48.554688 C 14.503906 48.554688 14.496094 48.402344 14.496094 48.296875 C 14.496094 48.171875 14.503906 48.121094 14.566406 47.871094 C 14.628906 47.640625 14.636719 47.582031 14.6875 47.367188 L 14.894531 46.578125 C 14.929688 46.417969 14.929688 46.410156 14.929688 46.382813 C 14.929688 46.285156 14.867188 46.234375 14.769531 46.234375 C 14.628906 46.234375 14.546875 46.359375 14.53125 46.480469 Z M 14.167969 47.941406 C 14.132813 48.050781 14.132813 48.058594 14.050781 48.15625 C 13.804688 48.464844 13.574219 48.554688 13.414063 48.554688 C 13.128906 48.554688 13.050781 48.246094 13.050781 48.023438 C 13.050781 47.738281 13.226563 47.046875 13.359375 46.78125 C 13.539063 46.457031 13.785156 46.242188 14.015625 46.242188 C 14.378906 46.242188 14.457031 46.703125 14.457031 46.738281 C 14.457031 46.773438 14.449219 46.808594 14.441406 46.835938 Z M 14.167969 47.941406 "
       id="path38" />
    <path
       style=" stroke:none;fill-rule:nonzero;fill:rgb(0%,0%,0%);fill-opacity:1;"
       d="M 87.085938 47.113281 L 87.722656 47.113281 C 87.539063 47.945313 87.484375 48.191406 87.484375 48.574219 C 87.484375 48.652344 87.484375 48.804688 87.527344 49 C 87.589844 49.246094 87.652344 49.28125 87.734375 49.28125 C 87.847656 49.28125 87.972656 49.183594 87.972656 49.070313 C 87.972656 49.035156 87.972656 49.027344 87.9375 48.945313 C 87.769531 48.539063 87.769531 48.167969 87.769531 48.007813 C 87.769531 47.714844 87.8125 47.40625 87.875 47.113281 L 88.511719 47.113281 C 88.589844 47.113281 88.796875 47.113281 88.796875 46.917969 C 88.796875 46.785156 88.671875 46.785156 88.566406 46.785156 L 86.667969 46.785156 C 86.546875 46.785156 86.332031 46.785156 86.085938 47.050781 C 85.890625 47.273438 85.738281 47.527344 85.738281 47.554688 C 85.738281 47.5625 85.738281 47.617188 85.808594 47.617188 C 85.855469 47.617188 85.863281 47.589844 85.898438 47.546875 C 86.171875 47.113281 86.5 47.113281 86.617188 47.113281 L 86.933594 47.113281 C 86.757813 47.792969 86.457031 48.476563 86.21875 48.992188 C 86.171875 49.078125 86.171875 49.089844 86.171875 49.132813 C 86.171875 49.238281 86.261719 49.28125 86.332031 49.28125 C 86.5 49.28125 86.546875 49.125 86.617188 48.917969 C 86.695313 48.652344 86.695313 48.644531 86.765625 48.363281 Z M 87.085938 47.113281 "
       id="path40" />
    <path
       style=" stroke:none;fill-rule:nonzero;fill:rgb(0%,0%,0%);fill-opacity:1;"
       d="M 91.484375 45.199219 C 91.511719 45.121094 91.511719 45.101563 91.511719 45.09375 C 91.511719 45.03125 91.46875 44.976563 91.40625 44.976563 C 91.363281 44.976563 91.328125 44.996094 91.308594 45.03125 L 89.34375 50.417969 C 89.316406 50.496094 89.316406 50.515625 89.316406 50.523438 C 89.316406 50.585938 89.367188 50.636719 89.429688 50.636719 C 89.5 50.636719 89.519531 50.59375 89.554688 50.496094 Z M 91.484375 45.199219 "
       id="path42" />
    <path
       style=" stroke:none;fill-rule:nonzero;fill:rgb(0%,0%,0%);fill-opacity:1;"
       d="M 93.9375 47.085938 C 93.832031 46.875 93.671875 46.722656 93.414063 46.722656 C 92.761719 46.722656 92.058594 47.554688 92.058594 48.378906 C 92.058594 48.910156 92.371094 49.28125 92.804688 49.28125 C 92.917969 49.28125 93.203125 49.257813 93.539063 48.859375 C 93.582031 49.097656 93.789063 49.28125 94.054688 49.28125 C 94.257813 49.28125 94.382813 49.148438 94.476563 48.972656 C 94.566406 48.769531 94.648438 48.421875 94.648438 48.414063 C 94.648438 48.351563 94.59375 48.351563 94.574219 48.351563 C 94.523438 48.351563 94.515625 48.378906 94.496094 48.460938 C 94.398438 48.824219 94.300781 49.160156 94.070313 49.160156 C 93.910156 49.160156 93.902344 49.007813 93.902344 48.902344 C 93.902344 48.777344 93.910156 48.726563 93.972656 48.476563 C 94.035156 48.246094 94.042969 48.183594 94.097656 47.972656 L 94.300781 47.183594 C 94.335938 47.023438 94.335938 47.015625 94.335938 46.988281 C 94.335938 46.890625 94.273438 46.839844 94.175781 46.839844 C 94.035156 46.839844 93.957031 46.960938 93.9375 47.085938 Z M 93.574219 48.546875 C 93.539063 48.652344 93.539063 48.664063 93.460938 48.761719 C 93.210938 49.070313 92.980469 49.160156 92.820313 49.160156 C 92.539063 49.160156 92.457031 48.847656 92.457031 48.628906 C 92.457031 48.34375 92.636719 47.652344 92.769531 47.386719 C 92.945313 47.058594 93.195313 46.847656 93.425781 46.847656 C 93.789063 46.847656 93.867188 47.308594 93.867188 47.34375 C 93.867188 47.378906 93.859375 47.414063 93.847656 47.441406 Z M 93.574219 48.546875 "
       id="path44" />
    <path
       style=" stroke:none;fill-rule:nonzero;fill:rgb(0%,0%,0%);fill-opacity:1;"
       d="M 54.070313 88.316406 L 54.707031 88.316406 C 54.519531 89.148438 54.46875 89.398438 54.46875 89.777344 C 54.46875 89.859375 54.46875 90.007813 54.511719 90.203125 C 54.574219 90.453125 54.636719 90.488281 54.714844 90.488281 C 54.832031 90.488281 54.953125 90.390625 54.953125 90.273438 C 54.953125 90.238281 54.953125 90.230469 54.917969 90.148438 C 54.75 89.742188 54.75 89.371094 54.75 89.210938 C 54.75 88.917969 54.796875 88.609375 54.855469 88.316406 L 55.496094 88.316406 C 55.574219 88.316406 55.777344 88.316406 55.777344 88.121094 C 55.777344 87.988281 55.65625 87.988281 55.546875 87.988281 L 53.652344 87.988281 C 53.527344 87.988281 53.316406 87.988281 53.066406 88.253906 C 52.875 88.476563 52.722656 88.734375 52.722656 88.757813 C 52.722656 88.769531 52.722656 88.820313 52.792969 88.820313 C 52.835938 88.820313 52.847656 88.792969 52.882813 88.75 C 53.15625 88.316406 53.484375 88.316406 53.597656 88.316406 L 53.917969 88.316406 C 53.742188 89 53.441406 89.679688 53.199219 90.195313 C 53.15625 90.28125 53.15625 90.292969 53.15625 90.335938 C 53.15625 90.441406 53.246094 90.488281 53.316406 90.488281 C 53.484375 90.488281 53.527344 90.328125 53.597656 90.125 C 53.679688 89.859375 53.679688 89.847656 53.75 89.566406 Z M 54.070313 88.316406 "
       id="path46" />
    <path
       style=" stroke:none;fill-rule:nonzero;fill:rgb(0%,0%,0%);fill-opacity:1;"
       d="M 58.46875 86.402344 C 58.496094 86.324219 58.496094 86.304688 58.496094 86.296875 C 58.496094 86.234375 58.453125 86.179688 58.390625 86.179688 C 58.34375 86.179688 58.308594 86.199219 58.292969 86.234375 L 56.324219 91.621094 C 56.300781 91.699219 56.300781 91.71875 56.300781 91.726563 C 56.300781 91.789063 56.351563 91.84375 56.414063 91.84375 C 56.484375 91.84375 56.503906 91.796875 56.539063 91.699219 Z M 58.46875 86.402344 "
       id="path48" />
    <path
       style=" stroke:none;fill-rule:nonzero;fill:rgb(0%,0%,0%);fill-opacity:1;"
       d="M 60.921875 88.289063 C 60.816406 88.078125 60.65625 87.925781 60.398438 87.925781 C 59.742188 87.925781 59.042969 88.757813 59.042969 89.582031 C 59.042969 90.113281 59.351563 90.488281 59.789063 90.488281 C 59.902344 90.488281 60.1875 90.460938 60.523438 90.0625 C 60.566406 90.300781 60.769531 90.488281 61.035156 90.488281 C 61.238281 90.488281 61.363281 90.355469 61.460938 90.175781 C 61.550781 89.972656 61.628906 89.628906 61.628906 89.617188 C 61.628906 89.554688 61.578125 89.554688 61.558594 89.554688 C 61.507813 89.554688 61.496094 89.582031 61.480469 89.664063 C 61.382813 90.027344 61.285156 90.363281 61.054688 90.363281 C 60.894531 90.363281 60.886719 90.210938 60.886719 90.105469 C 60.886719 89.980469 60.894531 89.929688 60.957031 89.679688 C 61.019531 89.449219 61.027344 89.386719 61.082031 89.175781 L 61.285156 88.386719 C 61.320313 88.226563 61.320313 88.21875 61.320313 88.191406 C 61.320313 88.09375 61.257813 88.042969 61.160156 88.042969 C 61.019531 88.042969 60.9375 88.164063 60.921875 88.289063 Z M 60.558594 89.75 C 60.523438 89.859375 60.523438 89.867188 60.441406 89.964844 C 60.195313 90.273438 59.964844 90.363281 59.804688 90.363281 C 59.523438 90.363281 59.441406 90.050781 59.441406 89.832031 C 59.441406 89.546875 59.617188 88.855469 59.753906 88.589844 C 59.929688 88.261719 60.175781 88.050781 60.40625 88.050781 C 60.769531 88.050781 60.851563 88.511719 60.851563 88.546875 C 60.851563 88.582031 60.839844 88.617188 60.832031 88.644531 Z M 60.558594 89.75 "
       id="path50" />
    <path
       style=" stroke:none;fill-rule:nonzero;fill:rgb(0%,0%,0%);fill-opacity:1;"
       d="M 89.933594 33.972656 C 89.945313 33.945313 89.953125 33.921875 89.953125 33.886719 C 89.953125 33.832031 89.925781 33.832031 89.8125 33.832031 L 87.429688 33.832031 C 87.292969 33.832031 87.285156 33.839844 87.25 33.945313 L 86.941406 34.964844 C 86.933594 34.992188 86.921875 35.035156 86.921875 35.046875 C 86.921875 35.046875 86.921875 35.105469 86.992188 35.105469 C 87.046875 35.105469 87.054688 35.0625 87.066406 35.046875 C 87.285156 34.382813 87.578125 34.007813 88.457031 34.007813 L 89.375 34.007813 L 86.222656 37.542969 C 86.222656 37.542969 86.195313 37.625 86.195313 37.640625 C 86.195313 37.695313 86.230469 37.695313 86.339844 37.695313 L 88.792969 37.695313 C 88.933594 37.695313 88.933594 37.683594 88.96875 37.578125 L 89.375 36.328125 C 89.375 36.3125 89.394531 36.269531 89.394531 36.25 C 89.394531 36.214844 89.375 36.1875 89.324219 36.1875 C 89.269531 36.1875 89.261719 36.207031 89.226563 36.328125 C 88.976563 37.089844 88.703125 37.5 87.746094 37.5 L 86.78125 37.5 Z M 89.933594 33.972656 "
       id="path52" />
    <path
       style="fill:none;stroke-width:0.75;stroke-linecap:butt;stroke-linejoin:miter;stroke:rgb(0%,0%,0%);stroke-opacity:1;stroke-miterlimit:4;"
       d="M 199.632813 280.308365 L 232.398438 247.32399 "
       transform="matrix(1,0,0,1,-149,-228.999771)"
       id="path54" />
  </g>
</svg>
