<?xml version="1.0" encoding="UTF-8" standalone="no"?>
<svg
   xmlns:dc="http://purl.org/dc/elements/1.1/"
   xmlns:cc="http://creativecommons.org/ns#"
   xmlns:rdf="http://www.w3.org/1999/02/22-rdf-syntax-ns#"
   xmlns:svg="http://www.w3.org/2000/svg"
   xmlns="http://www.w3.org/2000/svg"
   xmlns:sodipodi="http://sodipodi.sourceforge.net/DTD/sodipodi-0.dtd"
   xmlns:inkscape="http://www.inkscape.org/namespaces/inkscape"
   width="99.5993pt"
   height="92.399pt"
   viewBox="0 0 99.5993 92.399"
   version="1.2"
   id="svg59"
   sodipodi:docname="3.svg"
   inkscape:version="0.92.3 (2405546, 2018-03-11)">
  <metadata
     id="metadata65">
    <rdf:RDF>
      <cc:Work
         rdf:about="">
        <dc:format>image/svg+xml</dc:format>
        <dc:type
           rdf:resource="http://purl.org/dc/dcmitype/StillImage" />
        <dc:title></dc:title>
      </cc:Work>
    </rdf:RDF>
  </metadata>
  <defs
     id="defs63" />
  <sodipodi:namedview
     pagecolor="#ffffff"
     bordercolor="#666666"
     borderopacity="1"
     objecttolerance="10"
     gridtolerance="10"
     guidetolerance="10"
     inkscape:pageopacity="0"
     inkscape:pageshadow="2"
     inkscape:window-width="1301"
     inkscape:window-height="744"
     id="namedview61"
     showgrid="false"
     inkscape:zoom="1.9156051"
     inkscape:cx="66.399531"
     inkscape:cy="61.599335"
     inkscape:window-x="65"
     inkscape:window-y="24"
     inkscape:window-maximized="1"
     inkscape:current-layer="svg59" />
  <g
     id="surface327">
    <path
       style="fill-rule:nonzero;fill:rgb(100%,99.598694%,100%);fill-opacity:1;stroke-width:0.68;stroke-linecap:butt;stroke-linejoin:miter;stroke:rgb(0%,0%,1.199341%);stroke-opacity:1;stroke-miterlimit:4;"
       d="M 0.00135625 -0.00151025 C 0.00135625 2.057084 -1.666613 3.732865 -3.7213 3.732865 C -5.779894 3.732865 -7.447863 2.057084 -7.447863 -0.00151025 C -7.447863 -2.056198 -5.779894 -3.724166 -3.7213 -3.724166 C -1.666613 -3.724166 0.00135625 -2.056198 0.00135625 -0.00151025 Z M 0.00135625 -0.00151025 "
       transform="matrix(1,0,0,1,23.5963,33.638229)"
       id="path2" />
    <path
       style="fill-rule:nonzero;fill:rgb(100%,99.598694%,100%);fill-opacity:1;stroke-width:0.68;stroke-linecap:butt;stroke-linejoin:miter;stroke:rgb(0%,0%,1.199341%);stroke-opacity:1;stroke-miterlimit:4;"
       d="M 0.00079375 -0.00163525 C 0.00079375 2.060865 -1.667175 3.728834 -3.721863 3.728834 C -5.780456 3.728834 -7.448425 2.060865 -7.448425 -0.00163525 C -7.448425 -2.056323 -5.780456 -3.728198 -3.721863 -3.728198 C -1.667175 -3.728198 0.00079375 -2.056323 0.00079375 -0.00163525 Z M 0.00079375 -0.00163525 "
       transform="matrix(1,0,0,1,45.1203,21.435229)"
       id="path4" />
    <path
       style="fill-rule:nonzero;fill:rgb(100%,99.598694%,100%);fill-opacity:1;stroke-width:0.68;stroke-linecap:butt;stroke-linejoin:miter;stroke:rgb(0%,0%,1.199341%);stroke-opacity:1;stroke-miterlimit:4;"
       d="M 0.00095 -0.00138525 C 0.00095 2.057209 -1.667019 3.725177 -3.725613 3.725177 C -5.784206 3.725177 -7.448269 2.057209 -7.448269 -0.00138525 C -7.448269 -2.056073 -5.784206 -3.731854 -3.725613 -3.731854 C -1.667019 -3.731854 0.00095 -2.056073 0.00095 -0.00138525 Z M 0.00095 -0.00138525 "
       transform="matrix(1,0,0,1,68.5303,33.966229)"
       id="path6" />
    <path
       style="fill-rule:nonzero;fill:rgb(100%,99.598694%,100%);fill-opacity:1;stroke-width:0.68;stroke-linecap:butt;stroke-linejoin:miter;stroke:rgb(0%,0%,1.199341%);stroke-opacity:1;stroke-miterlimit:4;"
       d="M 0.0016375 0.00161475 C 0.0016375 2.056302 -1.662425 3.724271 -3.721019 3.724271 C -5.779613 3.724271 -7.447581 2.056302 -7.447581 0.00161475 C -7.447581 -2.060885 -5.779613 -3.728854 -3.721019 -3.728854 C -1.662425 -3.728854 0.0016375 -2.060885 0.0016375 0.00161475 Z M 0.0016375 0.00161475 "
       transform="matrix(1,0,0,1,90.0843,21.213229)"
       id="path8" />
    <path
       style="fill-rule:nonzero;fill:rgb(100%,99.598694%,100%);fill-opacity:1;stroke-width:0.68;stroke-linecap:butt;stroke-linejoin:miter;stroke:rgb(0%,0%,1.199341%);stroke-opacity:1;stroke-miterlimit:4;"
       d="M 0.00129375 0.001896 C 0.00129375 2.056584 -1.662769 3.728459 -3.721363 3.728459 C -5.779956 3.728459 -7.447925 2.056584 -7.447925 0.001896 C -7.447925 -2.060604 -5.779956 -3.728573 -3.721363 -3.728573 C -1.662769 -3.728573 0.00129375 -2.060604 0.00129375 0.001896 Z M 0.00129375 0.001896 "
       transform="matrix(1,0,0,1,88.9323,65.451229)"
       id="path10" />
    <path
       style="fill-rule:nonzero;fill:rgb(100%,99.598694%,100%);fill-opacity:1;stroke-width:0.68;stroke-linecap:butt;stroke-linejoin:miter;stroke:rgb(0%,0%,1.199341%);stroke-opacity:1;stroke-miterlimit:4;"
       d="M 0.0015125 -0.001604 C 0.0015125 2.060896 -1.666456 3.732771 -3.72505 3.732771 C -5.779738 3.732771 -7.447706 2.060896 -7.447706 -0.001604 C -7.447706 -2.056291 -5.779738 -3.72426 -3.72505 -3.72426 C -1.666456 -3.72426 0.0015125 -2.056291 0.0015125 -0.001604 Z M 0.0015125 -0.001604 "
       transform="matrix(1,0,0,1,68.0063,79.017229)"
       id="path12" />
    <path
       style="fill-rule:nonzero;fill:rgb(100%,99.598694%,100%);fill-opacity:1;stroke-width:0.68;stroke-linecap:butt;stroke-linejoin:miter;stroke:rgb(0%,0%,1.199341%);stroke-opacity:1;stroke-miterlimit:4;"
       d="M 0.00160625 -0.0016665 C 0.00160625 2.060834 -1.666363 3.732709 -3.72105 3.732709 C -5.779644 3.732709 -7.447613 2.060834 -7.447613 -0.0016665 C -7.447613 -2.056354 -5.779644 -3.724323 -3.72105 -3.724323 C -1.666363 -3.724323 0.00160625 -2.056354 0.00160625 -0.0016665 Z M 0.00160625 -0.0016665 "
       transform="matrix(1,0,0,1,23.1273,78.853229)"
       id="path14" />
    <path
       style="fill:none;stroke-width:0.75;stroke-linecap:butt;stroke-linejoin:miter;stroke:rgb(0%,0%,0%);stroke-opacity:1;stroke-miterlimit:4;"
       d="M 0.00145 -0.00188525 C 0.380356 -0.607354 0.7202 -1.583916 1.6577 -1.349541 C 3.427231 -0.904229 2.360825 1.959052 1.942856 1.685615 C 0.25145 0.556709 3.204575 -1.322198 4.380356 -1.322198 C 5.56395 -1.322198 5.653794 1.259834 4.520981 1.63874 C 4.239731 1.728584 4.145981 -1.439385 6.368637 -1.439385 C 8.978012 -1.439385 8.575669 1.037177 7.243637 2.369209 C 6.614731 2.998115 6.493637 -1.01751 8.974106 -1.369073 C 10.298325 -1.564385 11.892075 1.287177 10.489731 1.990302 C 9.200669 2.634834 9.755356 -1.068291 10.93895 -1.466729 C 13.724106 -2.396416 14.985825 1.759834 12.286606 2.298896 C 11.419419 2.474677 12.423325 -1.005791 13.2827 -1.349541 C 16.739731 -2.732354 16.681137 2.416084 14.962387 2.416084 C 13.579575 2.416084 15.75145 -3.39251 18.325669 -2.107354 C 19.325669 -1.607354 19.161606 2.693427 17.474106 2.134834 C 15.286606 1.400459 20.364731 -4.306573 21.427231 -2.177666 C 22.833481 0.63874 20.020981 2.853584 19.747544 1.892646 C 18.806137 -1.396416 25.103012 -3.447198 23.794419 0.474677 C 23.642075 0.931709 23.37645 1.880927 22.919419 2.10749 C 21.587387 2.771552 23.360825 -1.306573 25.712387 -2.060479 "
       transform="matrix(1,0,0,1,23.4673,34.404229)"
       id="path16" />
    <path
       style="fill:none;stroke-width:0.75;stroke-linecap:butt;stroke-linejoin:miter;stroke:rgb(0%,0%,0%);stroke-opacity:1;stroke-miterlimit:4;"
       d="M 0.0013875 -0.001479 C 1.059981 -0.419448 2.270919 0.623521 1.802169 1.799302 C 0.204512 5.79149 -2.252519 0.869615 2.583419 -0.0913227 C 3.774825 -0.33351 4.239669 2.959459 3.481856 3.338365 C 0.798262 4.678209 2.544356 -0.630385 5.470137 -0.138198 C 8.700606 0.400865 5.974044 4.834459 5.329512 4.193834 C 3.782637 2.650865 7.809981 -0.856948 8.712325 0.045396 C 9.739669 1.076646 11.020919 4.064927 8.712325 4.639146 C 8.298262 4.744615 5.403731 1.740709 11.720137 1.990709 "
       transform="matrix(1,0,0,1,49.1783,32.345229)"
       id="path18" />
    <path
       style="fill:none;stroke-width:0.75;stroke-linecap:butt;stroke-linejoin:miter;stroke:rgb(0%,0%,0%);stroke-opacity:1;stroke-miterlimit:4;"
       d="M -0.00180225 0.00173125 C 0.377104 -0.607644 0.720854 -1.584206 1.658354 -1.349831 C 3.427885 -0.908425 2.361479 1.958762 1.94351 1.681419 C 0.248198 0.552512 3.201323 -1.326394 4.377104 -1.326394 C 5.564604 -1.326394 5.654448 1.255637 4.521635 1.634544 C 4.240385 1.728294 4.146635 -1.443581 6.365385 -1.443581 C 8.978666 -1.443581 8.576323 1.036887 7.240385 2.368919 C 6.615385 3.001731 6.490385 -1.0178 8.97476 -1.373269 C 10.295073 -1.560769 11.892729 1.286887 10.490385 1.990012 C 9.201323 2.634544 9.752104 -1.072488 10.939604 -1.467019 C 13.72476 -2.396706 14.986479 1.759544 12.283354 2.298606 C 11.416166 2.470481 12.427885 -1.006081 13.283354 -1.349831 C 16.740385 -2.732644 16.681791 2.415794 14.959135 2.415794 C 13.580229 2.415794 15.748198 -3.3928 18.326323 -2.107644 C 19.326323 -1.607644 19.158354 2.693137 17.47476 2.130637 C 15.283354 1.404075 20.365385 -4.306863 21.427885 -2.177956 C 22.830229 0.634544 20.021635 2.853294 19.744291 1.896262 C 18.806791 -1.396706 25.103666 -3.451394 23.791166 0.474387 C 23.642729 0.927512 23.373198 1.876731 22.916166 2.1072 C 21.584135 2.775169 23.361479 -1.306863 25.709135 -2.060769 "
       transform="matrix(0,-1,1,0,19.5803,75.080229)"
       id="path20" />
    <path
       style="fill:none;stroke-width:0.75;stroke-linecap:butt;stroke-linejoin:miter;stroke:rgb(0%,0%,0%);stroke-opacity:1;stroke-miterlimit:4;"
       d="M -0.00186475 0.00123125 C 1.060635 -0.416738 2.271573 0.626231 1.802823 1.802012 C 0.20126 5.7942 -2.255771 0.876231 2.580166 -0.0925188 C 3.775479 -0.3308 4.240323 2.962169 3.48251 3.341075 C 0.798916 4.680919 2.541104 -0.627675 5.470791 -0.139394 C 8.70126 0.399669 5.974698 4.837169 5.32626 4.192637 C 3.779385 2.649669 7.810635 -0.854238 8.709073 0.0520125 C 9.740323 1.079356 11.021573 4.067637 8.709073 4.641856 C 8.302823 4.747325 5.404385 1.739512 11.720791 1.993419 "
       transform="matrix(0,-1,1,0,17.5183,49.369229)"
       id="path22" />
    <path
       style="fill:none;stroke-width:0.75;stroke-linecap:butt;stroke-linejoin:miter;stroke:rgb(0%,0%,0%);stroke-opacity:1;stroke-miterlimit:4;"
       d="M 0.00098125 -0.001354 C 0.379887 -0.610729 0.719731 -1.583385 1.657231 -1.345104 C 3.426762 -0.907604 2.360356 1.959584 1.942387 1.68224 C 0.250981 0.553334 3.204106 -1.325573 4.379887 -1.325573 C 5.563481 -1.325573 5.653325 1.256459 4.524419 1.635365 C 4.243169 1.729115 4.145512 -1.44276 6.372075 -1.44276 C 8.98145 -1.44276 8.579106 1.041615 7.247075 2.36974 C 6.614262 2.998646 6.493169 -1.013073 8.973637 -1.372448 C 10.297856 -1.563854 11.891606 1.291615 10.489262 1.99474 C 9.204106 2.631459 9.754887 -1.071666 10.938481 -1.462291 C 13.723637 -2.395885 14.985356 1.756459 12.290044 2.295521 C 11.41895 2.471302 12.426762 -1.001354 13.282231 -1.345104 C 16.743169 -2.731823 16.680669 2.416615 14.965825 2.416615 C 13.583012 2.416615 15.750981 -3.388073 18.3252 -2.106823 C 19.3252 -1.606823 19.161137 2.697865 17.473637 2.131459 C 15.286137 1.404896 20.364262 -4.302135 21.426762 -2.173229 C 22.833012 0.635365 20.020512 2.854115 19.747075 1.893177 C 18.805669 -1.395885 25.102544 -3.450573 23.79395 0.475209 C 23.645512 0.928334 23.375981 1.877552 22.91895 2.111927 C 21.586919 2.772084 23.364262 -1.302135 25.711919 -2.059948 "
       transform="matrix(1,0,0,1,23.1123,79.548229)"
       id="path24" />
    <path
       style="fill:none;stroke-width:0.75;stroke-linecap:butt;stroke-linejoin:miter;stroke:rgb(0%,0%,0%);stroke-opacity:1;stroke-miterlimit:4;"
       d="M 0.00091875 -0.00194775 C 1.063419 -0.419916 2.27045 0.623052 1.8017 1.80274 C 0.204044 5.794927 -2.252987 0.869146 2.58295 -0.0956977 C 3.774356 -0.330073 4.243106 2.955084 3.481388 3.341802 C 0.8017 4.681646 2.547794 -0.630854 5.469669 -0.142573 C 8.704044 0.39649 5.973575 4.837896 5.329044 4.189459 C 3.786075 2.64649 7.809513 -0.857416 8.715763 0.0488335 C 9.743106 1.072271 11.02045 4.060552 8.715763 4.638677 C 8.3017 4.74024 5.403263 1.736334 11.719669 1.986334 "
       transform="matrix(1,0,0,1,48.8233,77.490229)"
       id="path26" />
    <path
       style="fill:none;stroke-width:0.75;stroke-linecap:butt;stroke-linejoin:miter;stroke:rgb(0%,0%,0%);stroke-opacity:1;stroke-miterlimit:4;"
       d="M 0.00141875 0.00167725 C 0.376419 -0.611604 0.720169 -1.58426 1.657669 -1.353791 C 3.423294 -0.908479 2.360794 1.962615 1.942825 1.677459 C 0.251419 0.552459 3.200637 -1.326448 4.380325 -1.326448 C 5.560012 -1.326448 5.653762 1.255584 4.52095 1.630584 C 4.2397 1.724334 4.142044 -1.447541 6.368606 -1.447541 C 8.977981 -1.447541 8.575637 1.036834 7.243606 2.368865 C 6.610794 3.001677 6.493606 -1.02176 8.974075 -1.373323 C 10.298294 -1.564729 11.888137 1.29074 10.485794 1.986052 C 9.200637 2.630584 9.755325 -1.076448 10.938919 -1.467073 C 13.720169 -2.39676 14.981887 1.755584 12.286575 2.294646 C 11.419387 2.466521 12.423294 -1.006135 13.282669 -1.353791 C 16.7397 -2.736604 16.6772 2.41574 14.962356 2.41574 C 13.579544 2.41574 15.751419 -3.39676 18.325637 -2.111604 C 19.321731 -1.611604 19.161575 2.689177 17.470169 2.126677 C 15.286575 1.400115 20.360794 -4.306916 21.4272 -2.181916 C 22.83345 0.63449 20.017044 2.849334 19.743606 1.892302 C 18.806106 -1.400666 25.102981 -3.455354 23.794387 0.470427 C 23.642044 0.923552 23.376419 1.876677 22.915481 2.10324 C 21.587356 2.771209 23.360794 -1.310823 25.712356 -2.060823 "
       transform="matrix(1,0,0,1,44.3853,67.377229)"
       id="path28" />
    <path
       style="fill:none;stroke-width:0.75;stroke-linecap:butt;stroke-linejoin:miter;stroke:rgb(0%,0%,0%);stroke-opacity:1;stroke-miterlimit:4;"
       d="M 0.00135625 -0.00182275 C 1.05995 -0.423698 2.270887 0.623177 1.798231 1.795052 C 0.200575 5.78724 -2.25255 0.869271 2.579481 -0.099479 C 3.774794 -0.33776 4.239637 2.955209 3.481825 3.334115 C 0.798231 4.677865 2.544325 -0.634635 5.470106 -0.146354 C 8.700575 0.396615 5.970106 4.830209 5.325575 4.185677 C 3.782606 2.646615 7.806044 -0.857291 8.712294 0.0450523 C 9.739637 1.072396 11.020887 4.060677 8.712294 4.642709 C 8.298231 4.740365 5.4037 1.732552 11.720106 1.986459 "
       transform="matrix(1,0,0,1,70.0963,65.318229)"
       id="path30" />
    <path
       style="fill-rule:nonzero;fill:rgb(100%,99.598694%,100%);fill-opacity:1;stroke-width:0.68;stroke-linecap:butt;stroke-linejoin:miter;stroke:rgb(0%,0%,1.199341%);stroke-opacity:1;stroke-miterlimit:4;"
       d="M 0.0015125 0.00186475 C 0.0015125 2.056552 -1.666456 3.728427 -3.72505 3.728427 C -5.779738 3.728427 -7.447706 2.056552 -7.447706 0.00186475 C -7.447706 -2.060635 -5.779738 -3.728604 -3.72505 -3.728604 C -1.666456 -3.728604 0.0015125 -2.060635 0.0015125 0.00186475 Z M 0.0015125 0.00186475 "
       transform="matrix(1,0,0,1,44.5063,66.119229)"
       id="path32" />
    <path
       style="fill:none;stroke-width:0.75;stroke-linecap:butt;stroke-linejoin:miter;stroke:rgb(0%,0%,0%);stroke-opacity:1;stroke-miterlimit:4;"
       d="M 0.00154375 -0.0014165 C 0.376544 -0.610791 0.720294 -1.583448 1.657794 -1.345166 C 3.423419 -0.907666 2.360919 1.959521 1.94295 1.678271 C 0.251544 0.553271 3.200762 -1.325635 4.38045 -1.325635 C 5.560137 -1.325635 5.653887 1.256396 4.521075 1.631396 C 4.239825 1.725146 4.142169 -1.446729 6.368731 -1.446729 C 8.978106 -1.446729 8.575762 1.037646 7.243731 2.369677 C 6.610919 2.998584 6.493731 -1.020948 8.9742 -1.37251 C 10.298419 -1.563916 11.888262 1.287646 10.489825 1.990771 C 9.200762 2.631396 9.75545 -1.075635 10.939044 -1.46626 C 13.7242 -2.395948 14.982012 1.756396 12.2867 2.295459 C 11.419512 2.47124 12.423419 -1.005323 13.282794 -1.345166 C 16.739825 -2.731885 16.677325 2.412646 14.962481 2.412646 C 13.579669 2.412646 15.751544 -3.395948 18.325762 -2.106885 C 19.321856 -1.606885 19.1617 2.697802 17.4742 2.131396 C 15.2867 1.404834 20.360919 -4.302198 21.427325 -2.173291 C 22.833575 0.635302 20.021075 2.854052 19.743731 1.893115 C 18.806231 -1.395948 25.103106 -3.450635 23.794512 0.47124 C 23.642169 0.924365 23.376544 1.87749 22.919512 2.111865 C 21.587481 2.775927 23.360919 -1.306104 25.712481 -2.056104 "
       transform="matrix(1,0,0,1,45.0883,21.259229)"
       id="path34" />
    <path
       style="fill:none;stroke-width:0.75;stroke-linecap:butt;stroke-linejoin:miter;stroke:rgb(0%,0%,0%);stroke-opacity:1;stroke-miterlimit:4;"
       d="M 0.00148125 0.001896 C 1.060075 -0.423885 2.271013 0.626896 1.798356 1.798771 C 0.204606 5.787052 -2.252425 0.869084 2.579606 -0.0957602 C 3.774919 -0.330135 4.239763 2.958927 3.48195 3.337834 C 0.798356 4.677677 2.54445 -0.630916 5.470231 -0.146541 C 8.7007 0.392521 5.970231 4.837834 5.3257 4.189396 C 3.782731 2.642521 7.810075 -0.861385 8.712419 0.048771 C 9.739763 1.072209 11.021013 4.06049 8.712419 4.638615 C 8.298356 4.740177 5.403825 1.732365 11.720231 1.986271 "
       transform="matrix(1,0,0,1,70.7993,19.201229)"
       id="path36" />
    <path
       style="fill:none;stroke-width:0.75;stroke-linecap:butt;stroke-linejoin:miter;stroke:rgb(0%,0%,0%);stroke-opacity:1;stroke-miterlimit:4;"
       d="M 0.00188525 0.00160625 C 0.380791 -0.607769 0.720635 -1.580425 1.654229 -1.34605 C 3.427666 -0.904644 2.357354 1.962544 1.939385 1.6852 C 0.251885 0.556294 3.201104 -1.322613 4.380791 -1.322613 C 5.564385 -1.322613 5.650323 1.259419 4.521416 1.638325 C 4.23626 1.732075 4.146416 -1.4398 6.365166 -1.4398 C 8.978448 -1.4398 8.572198 1.040669 7.240166 2.368794 C 6.61126 3.001606 6.490166 -1.017925 8.974541 -1.369488 C 10.29876 -1.560894 11.89251 1.290669 10.48626 1.989887 C 9.197198 2.634419 9.755791 -1.072613 10.939385 -1.463238 C 13.724541 -2.392925 14.982354 1.759419 12.283135 2.298481 C 11.419854 2.474262 12.42376 -1.0023 13.279229 -1.34605 C 16.73626 -2.728863 16.681573 2.419575 14.962823 2.419575 C 13.576104 2.419575 15.751885 -3.392925 18.322198 -2.103863 C 19.322198 -1.603863 19.158135 2.696919 17.474541 2.134419 C 15.283135 1.40395 20.36126 -4.303081 21.427666 -2.174175 C 22.833916 0.638325 20.021416 2.857075 19.744073 1.896137 C 18.806573 -1.392925 25.103448 -3.447613 23.794854 0.478169 C 23.64251 0.927387 23.376885 1.880512 22.919854 2.110981 C 21.587823 2.775044 23.357354 -1.303081 25.712823 -2.056988 "
       transform="matrix(0,-1,1,0,65.0023,75.279229)"
       id="path38" />
    <path
       style="fill:none;stroke-width:0.75;stroke-linecap:butt;stroke-linejoin:miter;stroke:rgb(0%,0%,0%);stroke-opacity:1;stroke-miterlimit:4;"
       d="M 0.00182275 0.0010125 C 1.060416 -0.420862 2.271354 0.626013 1.802604 1.801794 C 0.204948 5.793981 -2.252084 0.872106 2.583854 -0.0927375 C 3.771354 -0.331019 4.236198 2.958044 3.478385 3.340856 C 0.798698 4.6807 2.544791 -0.627894 5.470573 -0.139612 C 8.704948 0.39945 5.974479 4.83695 5.329948 4.192419 C 3.779166 2.645544 7.810416 -0.854456 8.71276 0.0478875 C 9.736198 1.075231 11.021354 4.063513 8.71276 4.641638 C 8.298698 4.7432 5.40026 1.735388 11.720573 1.989294 "
       transform="matrix(0,-1,1,0,62.9443,49.568229)"
       id="path40" />
    <path
       style="fill:none;stroke-width:0.75;stroke-linecap:butt;stroke-linejoin:miter;stroke:rgb(0%,0%,0%);stroke-opacity:1;stroke-miterlimit:4;"
       d="M 0.00151025 0.00116875 C 0.380416 -0.608206 0.716354 -1.580862 1.65776 -1.346487 C 3.423385 -0.905081 2.360885 1.962106 1.942916 1.684763 C 0.25151 0.555856 3.204635 -1.32305 4.380416 -1.32305 C 5.560104 -1.32305 5.653854 1.258981 4.517135 1.637888 C 4.239791 1.731638 4.142135 -1.440237 6.368698 -1.440237 C 8.974166 -1.440237 8.575729 1.040231 7.243698 2.372263 C 6.614791 3.001169 6.493698 -1.014456 8.97026 -1.369925 C 10.298385 -1.561331 11.888229 1.290231 10.489791 1.993356 C 9.200729 2.633981 9.755416 -1.069144 10.935104 -1.463675 C 13.72026 -2.393362 14.985885 1.758981 12.286666 2.298044 C 11.419479 2.473825 12.423385 -1.002737 13.28276 -1.346487 C 16.739791 -2.7293 16.677291 2.419138 14.962448 2.419138 C 13.579635 2.419138 15.75151 -3.389456 18.325729 -2.1043 C 19.325729 -1.6043 19.161666 2.696481 17.47026 2.133981 C 15.286666 1.403513 20.364791 -4.303519 21.423385 -2.174612 C 22.833541 0.637888 20.017135 2.856638 19.747604 1.8957 C 18.802291 -1.393362 25.099166 -3.44805 23.794479 0.477731 C 23.638229 0.930856 23.37651 1.880075 22.919479 2.110544 C 21.587448 2.774606 23.360885 -1.303519 25.712448 -2.057425 "
       transform="matrix(0,-1,1,0,41.1043,62.388229)"
       id="path42" />
    <path
       style="fill:none;stroke-width:0.75;stroke-linecap:butt;stroke-linejoin:miter;stroke:rgb(0%,0%,0%);stroke-opacity:1;stroke-miterlimit:4;"
       d="M 0.00144775 0.001575 C 1.056135 -0.416394 2.267073 0.626575 1.798323 1.802356 C 0.204573 5.794544 -2.252459 0.872669 2.583479 -0.092175 C 3.774885 -0.330456 4.239729 2.962513 3.481916 3.341419 C 0.798323 4.681263 2.544416 -0.627331 5.466291 -0.13905 C 8.704573 0.400013 5.970198 4.837513 5.329573 4.192981 C 3.782698 2.650013 7.806135 -0.853894 8.712385 0.04845 C 9.739729 1.075794 11.017073 4.064075 8.712385 4.6422 C 8.298323 4.747669 5.403791 1.739856 11.716291 1.989856 "
       transform="matrix(0,-1,1,0,39.0453,36.677229)"
       id="path44" />
    <path
       style="fill:none;stroke-width:0.75;stroke-linecap:butt;stroke-linejoin:miter;stroke:rgb(0%,0%,0%);stroke-opacity:1;stroke-miterlimit:4;"
       d="M 0.0016665 0.0008875 C 0.380573 -0.608487 0.720416 -1.581144 1.657916 -1.346769 C 3.427448 -0.905362 2.357135 1.961825 1.939166 1.684481 C 0.251666 0.555575 3.204791 -1.323331 4.380573 -1.323331 C 5.56026 -1.323331 5.650104 1.2587 4.521198 1.6337 C 4.243854 1.72745 4.142291 -1.440519 6.37276 -1.440519 C 8.978229 -1.440519 8.579791 1.036044 7.24776 2.368075 C 6.614948 3.000888 6.493854 -1.018644 8.974323 -1.370206 C 10.298541 -1.561612 11.888385 1.28995 10.489948 1.989169 C 9.204791 2.6337 9.755573 -1.073331 10.93526 -1.467862 C 13.724323 -2.393644 14.982135 1.7587 12.290729 2.297763 C 11.419635 2.473544 12.427448 -1.003019 13.282916 -1.346769 C 16.743854 -2.729581 16.681354 2.41495 14.96651 2.41495 C 13.583698 2.41495 15.751666 -3.393644 18.325885 -2.104581 C 19.325885 -1.604581 19.161823 2.6962 17.474323 2.1337 C 15.286823 1.403231 20.364948 -4.3038 21.427448 -2.174894 C 22.833698 0.637606 20.017291 2.856356 19.74776 1.895419 C 18.806354 -1.393644 25.099323 -3.448331 23.794635 0.473544 C 23.642291 0.926669 23.376666 1.879794 22.919635 2.110263 C 21.587604 2.774325 23.364948 -1.307706 25.712604 -2.057706 "
       transform="matrix(0,-1,1,0,86.8663,62.103229)"
       id="path46" />
    <path
       style="fill:none;stroke-width:0.75;stroke-linecap:butt;stroke-linejoin:miter;stroke:rgb(0%,0%,0%);stroke-opacity:1;stroke-miterlimit:4;"
       d="M 0.001604 0.00129375 C 1.060198 -0.420581 2.267229 0.626294 1.802385 1.802075 C 0.204729 5.794263 -2.252302 0.872388 2.583635 -0.0924562 C 3.771135 -0.330737 4.243791 2.958325 3.478166 3.341138 C 0.802385 4.680981 2.548479 -0.627612 5.470354 -0.139331 C 8.704729 0.399731 5.970354 4.837231 5.329729 4.1927 C 3.78676 2.645825 7.806291 -0.858081 8.716448 0.0481688 C 9.743791 1.075513 11.017229 4.063794 8.716448 4.641919 C 8.302385 4.743481 5.403948 1.735669 11.720354 1.989575 "
       transform="matrix(0,-1,1,0,84.8073,36.392229)"
       id="path48" />
    <path
       style="fill:none;stroke-width:0.75;stroke-linecap:butt;stroke-linejoin:miter;stroke:rgb(0%,0%,0%);stroke-opacity:1;stroke-miterlimit:4;"
       d="M 0.0011375 0.0018335 C 1.059731 -0.740354 3.243325 0.423709 4.122231 -0.236448 C 4.57145 -0.572385 4.122231 -1.861448 4.122231 -2.322385 C 4.122231 -7.455198 -0.557456 -0.27551 4.926919 -1.36926 C 7.563638 -1.90051 7.2902 -7.099729 5.305825 -6.107541 C 3.673013 -5.291135 6.688638 -2.322385 8.192544 -3.076291 C 9.958169 -3.955198 11.4152 -8.427854 8.715981 -8.427854 C 6.559731 -8.427854 8.817544 -3.728635 11.130044 -4.49426 C 13.188638 -5.185666 15.122231 -11.27551 11.840981 -10.18176 C 9.149575 -9.283323 12.794106 -6.783323 16.1027 -8.283323 "
       transform="matrix(1,0,0,1,21.2723,30.037229)"
       id="path50" />
    <path
       style="fill:none;stroke-width:0.75;stroke-linecap:butt;stroke-linejoin:miter;stroke:rgb(0%,0%,0%);stroke-opacity:1;stroke-miterlimit:4;"
       d="M 0.00104375 -0.001354 C 1.333075 0.11974 5.594794 0.21349 4.118231 -2.368541 C 2.852606 -4.583385 0.0869812 0.326771 4.9737 -0.28651 C 6.977606 -0.53651 7.153387 -5.337291 4.735419 -4.735729 C 3.376044 -4.395885 5.825262 0.354115 8.524481 -1.798229 C 8.87995 -2.083385 8.758856 -3.216198 8.758856 -3.649791 C 8.758856 -8.239635 4.040106 -2.509166 9.137762 -2.509166 C 12.87995 -2.509166 10.676825 -7.454479 9.75495 -5.919323 C 9.454169 -5.419323 9.9737 -4.708385 10.274481 -4.407604 C 13.954169 -0.727916 13.836981 -9.173229 11.50495 -7.626354 C 10.965887 -7.263073 11.122137 -2.309948 15.766669 -8.19276 "
       transform="matrix(1,0,0,1,68.1513,32.548229)"
       id="path52" />
    <path
       style="fill:none;stroke-width:0.75;stroke-linecap:butt;stroke-linejoin:miter;stroke:rgb(0%,0%,0%);stroke-opacity:1;stroke-miterlimit:4;"
       d="M 0.0013875 -0.00138525 C 0.606856 -0.122479 1.208419 0.229084 1.813888 0.0767398 C 2.497481 -0.102948 2.735763 -2.794354 1.517013 -2.42326 C -0.154862 -1.915448 4.958419 1.95174 5.251388 -2.153729 C 5.524825 -5.931073 1.661544 -2.130291 5.188888 -1.446698 C 8.880294 -0.720135 8.368575 -5.477948 6.220138 -4.817791 C 4.7592 -4.372479 6.91545 -1.626385 8.610763 -2.056073 C 9.188888 -2.208416 9.41545 -2.587323 9.66545 -3.052166 C 11.392013 -6.302166 7.481856 -5.013104 8.606856 -4.001385 C 10.747481 -2.07951 13.700606 -5.653729 11.317794 -6.696698 C 10.2592 -7.157635 10.138106 -4.95451 11.895919 -4.614666 C 14.505294 -4.102948 13.755294 -8.251385 12.599044 -7.79826 C 11.5717 -7.399823 13.770919 -4.712323 15.567794 -6.212323 C 16.497481 -6.989666 14.364669 -9.794354 13.962325 -9.345135 C 13.181075 -8.481854 16.337325 -5.708416 16.849044 -9.931073 "
       transform="matrix(1,0,0,1,68.3033,79.091229)"
       id="path54" />
    <path
       style="fill:none;stroke-width:0.75;stroke-linecap:butt;stroke-linejoin:miter;stroke:rgb(0%,0%,0%);stroke-opacity:1;stroke-miterlimit:4;"
       d="M 0.00154375 -0.001729 C 0.618731 -0.00563525 1.142169 0.451396 1.767169 0.41624 C 2.470294 0.373271 3.220294 -2.224385 1.950762 -2.095479 C 0.212481 -1.911885 4.493731 2.857646 5.56795 -1.111104 C 6.556231 -4.77126 2.040606 -1.775167 5.368731 -0.431417 C 8.857012 0.982646 9.259356 -3.779073 7.024981 -3.544698 C 5.50545 -3.384542 7.0992 -0.279073 8.845294 -0.380635 C 9.44295 -0.415792 9.735919 -0.743917 10.06795 -1.154073 C 12.384356 -4.017354 8.302325 -3.501729 9.216387 -2.290792 C 10.946856 0.0060835 14.528887 -2.935323 12.388262 -4.415792 C 11.435137 -5.068135 10.899981 -2.931417 12.556231 -2.259542 C 15.021075 -1.263448 15.075762 -5.478292 13.857012 -5.255635 C 12.771075 -5.056417 14.419512 -2.001729 16.466387 -3.130635 C 17.528887 -3.716573 15.970294 -6.876729 15.489825 -6.513448 C 14.560137 -5.810323 17.126544 -2.486104 18.435137 -6.540792 "
       transform="matrix(1,0,0,1,21.7133,76.064229)"
       id="path56" />
  </g>
</svg>
