<?xml version="1.0" encoding="UTF-8" standalone="no"?>
<svg
   xmlns:dc="http://purl.org/dc/elements/1.1/"
   xmlns:cc="http://creativecommons.org/ns#"
   xmlns:rdf="http://www.w3.org/1999/02/22-rdf-syntax-ns#"
   xmlns:svg="http://www.w3.org/2000/svg"
   xmlns="http://www.w3.org/2000/svg"
   xmlns:sodipodi="http://sodipodi.sourceforge.net/DTD/sodipodi-0.dtd"
   xmlns:inkscape="http://www.inkscape.org/namespaces/inkscape"
   width="64.25pt"
   height="36.375pt"
   viewBox="0 0 64.25 36.375"
   version="1.2"
   id="svg59"
   sodipodi:docname="fermigas.svg"
   inkscape:version="0.92.4 (5da689c313, 2019-01-14)">
  <metadata
     id="metadata65">
    <rdf:RDF>
      <cc:Work
         rdf:about="">
        <dc:format>image/svg+xml</dc:format>
        <dc:type
           rdf:resource="http://purl.org/dc/dcmitype/StillImage" />
        <dc:title></dc:title>
      </cc:Work>
    </rdf:RDF>
  </metadata>
  <defs
     id="defs63" />
  <sodipodi:namedview
     pagecolor="#ffffff"
     bordercolor="#666666"
     borderopacity="1"
     objecttolerance="10"
     gridtolerance="10"
     guidetolerance="10"
     inkscape:pageopacity="0"
     inkscape:pageshadow="2"
     inkscape:window-width="727"
     inkscape:window-height="480"
     id="namedview61"
     showgrid="false"
     inkscape:zoom="4.8659794"
     inkscape:cx="42.833333"
     inkscape:cy="24.25"
     inkscape:window-x="0"
     inkscape:window-y="0"
     inkscape:window-maximized="0"
     inkscape:current-layer="svg59" />
  <g
     id="surface30">
    <path
       style="fill:none;stroke-width:0.75;stroke-linecap:butt;stroke-linejoin:miter;stroke:rgb(0%,0%,0%);stroke-opacity:1;stroke-miterlimit:4;"
       d="M 111.964844 300.952896 L 126.832031 300.952896 L 126.832031 328.941177 L 155.894531 328.941177 L 155.894531 301.085709 L 168.75 301.085709 "
       transform="matrix(1,0,0,1,-108.875,-296.124771)"
       id="path2" />
    <path
       style="fill:none;stroke-width:0.751181;stroke-linecap:butt;stroke-linejoin:miter;stroke:rgb(0%,0%,0%);stroke-opacity:1;stroke-dasharray:0.751181,1.502362;stroke-miterlimit:4;"
       d="M 126.832031 300.952896 L 156.019531 300.952896 "
       transform="matrix(1,0,0,1,-108.875,-296.124771)"
       id="path4" />
    <path
       style="fill:none;stroke-width:0.75;stroke-linecap:butt;stroke-linejoin:miter;stroke:rgb(0%,0%,0%);stroke-opacity:1;stroke-miterlimit:4;"
       d="M 126.863281 317.79274 L 155.941406 317.79274 "
       transform="matrix(1,0,0,1,-108.875,-296.124771)"
       id="path6" />
    <path
       style="fill:none;stroke-width:0.271784;stroke-linecap:butt;stroke-linejoin:miter;stroke:rgb(0%,0%,0%);stroke-opacity:1;stroke-miterlimit:4;"
       d="M 141.445313 301.984146 L 141.445313 316.652115 "
       transform="matrix(1,0,0,1,-108.875,-296.124771)"
       id="path8" />
    <path
       style="fill-rule:evenodd;fill:rgb(0%,0%,0%);fill-opacity:1;stroke-width:0.144952;stroke-linecap:butt;stroke-linejoin:miter;stroke:rgb(0%,0%,0%);stroke-opacity:1;stroke-miterlimit:4;"
       d="M 303.070084 -141.445313 L 303.613052 -141.988281 L 301.710709 -141.445313 L 303.613052 -140.902344 Z M 303.070084 -141.445313 "
       transform="matrix(0,1,-1,0,-108.875,-296.124771)"
       id="path10" />
    <path
       style="fill-rule:evenodd;fill:rgb(0%,0%,0%);fill-opacity:1;stroke-width:0.144952;stroke-linecap:butt;stroke-linejoin:miter;stroke:rgb(0%,0%,0%);stroke-opacity:1;stroke-miterlimit:4;"
       d="M -315.566177 141.445313 L -315.023209 140.902344 L -316.925552 141.445313 L -315.023209 141.988281 Z M -315.566177 141.445313 "
       transform="matrix(0,-1,1,0,-108.875,-296.124771)"
       id="path12" />
    <path
       style=" stroke:none;fill-rule:nonzero;fill:rgb(0%,0%,0%);fill-opacity:1;"
       d="M 7.898438 17.234375 C 8.039063 16.988281 8.171875 16.785156 8.535156 16.757813 C 8.578125 16.75 8.640625 16.75 8.640625 16.640625 C 8.640625 16.625 8.617188 16.582031 8.570313 16.582031 C 8.4375 16.582031 8.277344 16.597656 8.136719 16.597656 C 7.941406 16.597656 7.738281 16.582031 7.542969 16.582031 C 7.515625 16.582031 7.4375 16.582031 7.4375 16.6875 C 7.4375 16.75 7.492188 16.757813 7.527344 16.757813 C 7.660156 16.765625 7.863281 16.8125 7.863281 16.980469 C 7.863281 17.039063 7.828125 17.085938 7.78125 17.164063 L 6.257813 19.824219 L 6.046875 17.023438 C 6.046875 16.90625 6.039063 16.765625 6.445313 16.757813 C 6.542969 16.757813 6.59375 16.757813 6.59375 16.640625 C 6.59375 16.589844 6.535156 16.582031 6.515625 16.582031 C 6.285156 16.582031 6.046875 16.597656 5.824219 16.597656 C 5.691406 16.597656 5.363281 16.582031 5.230469 16.582031 C 5.195313 16.582031 5.125 16.582031 5.125 16.695313 C 5.125 16.757813 5.179688 16.757813 5.257813 16.757813 C 5.507813 16.757813 5.550781 16.792969 5.558594 16.898438 L 5.59375 17.332031 L 4.160156 19.824219 L 3.945313 16.960938 C 3.945313 16.890625 3.945313 16.765625 4.382813 16.757813 C 4.433594 16.757813 4.496094 16.757813 4.496094 16.640625 C 4.496094 16.582031 4.425781 16.582031 4.417969 16.582031 C 4.195313 16.582031 3.957031 16.597656 3.726563 16.597656 C 3.523438 16.597656 3.316406 16.582031 3.132813 16.582031 C 3.097656 16.582031 3.027344 16.582031 3.027344 16.6875 C 3.027344 16.757813 3.078125 16.757813 3.167969 16.757813 C 3.449219 16.757813 3.460938 16.8125 3.46875 16.96875 L 3.726563 20.414063 C 3.726563 20.523438 3.734375 20.566406 3.8125 20.566406 C 3.875 20.566406 3.894531 20.53125 3.945313 20.453125 L 5.613281 17.5625 L 5.816406 20.414063 C 5.832031 20.539063 5.84375 20.566406 5.90625 20.566406 C 5.984375 20.566406 6.019531 20.511719 6.046875 20.460938 Z M 7.898438 17.234375 "
       id="path14" />
    <path
       style=" stroke:none;fill-rule:nonzero;fill:rgb(0%,0%,0%);fill-opacity:1;"
       d="M 36.210938 10.207031 C 36.210938 10.1875 36.230469 10.125 36.230469 10.125 C 36.230469 10.117188 36.230469 10.066406 36.15625 10.066406 C 36.105469 10.066406 36.097656 10.082031 36.070313 10.179688 L 35.742188 11.480469 C 34.847656 11.515625 34.015625 12.261719 34.015625 13.03125 C 34.015625 13.574219 34.414063 14.015625 35.105469 14.058594 C 35.058594 14.226563 35.015625 14.414063 34.972656 14.589844 C 34.898438 14.855469 34.847656 15.070313 34.847656 15.085938 C 34.847656 15.140625 34.890625 15.148438 34.917969 15.148438 C 34.945313 15.148438 34.953125 15.140625 34.972656 15.121094 C 34.980469 15.113281 35.015625 14.980469 35.03125 14.902344 L 35.246094 14.058594 C 36.15625 14.023438 36.980469 13.261719 36.980469 12.507813 C 36.980469 12.058594 36.679688 11.542969 35.890625 11.480469 Z M 35.128906 13.9375 C 34.792969 13.917969 34.386719 13.714844 34.386719 13.15625 C 34.386719 12.472656 34.875 11.6875 35.714844 11.605469 Z M 35.855469 11.605469 C 36.289063 11.632813 36.609375 11.890625 36.609375 12.386719 C 36.609375 13.058594 36.121094 13.863281 35.28125 13.9375 Z M 35.855469 11.605469 "
       id="path16" />
    <path
       style=" stroke:none;fill-rule:nonzero;fill:rgb(0%,0%,0%);fill-opacity:1;"
       d="M 42.628906 26.914063 C 42.757813 26.96875 42.875 26.96875 42.964844 26.96875 C 43.0625 26.96875 43.28125 26.96875 43.28125 26.847656 C 43.28125 26.753906 43.140625 26.742188 42.996094 26.742188 C 42.914063 26.742188 42.777344 26.75 42.636719 26.816406 C 42.542969 26.773438 42.476563 26.695313 42.476563 26.589844 C 42.476563 26.347656 42.859375 26.207031 43.207031 26.207031 C 43.269531 26.207031 43.410156 26.207031 43.566406 26.316406 C 43.609375 26.347656 43.617188 26.359375 43.640625 26.359375 C 43.695313 26.359375 43.75 26.304688 43.75 26.25 C 43.75 26.175781 43.511719 26.027344 43.246094 26.027344 C 42.800781 26.027344 42.378906 26.292969 42.378906 26.589844 C 42.378906 26.761719 42.519531 26.859375 42.539063 26.871094 C 42.308594 27 42.1875 27.214844 42.1875 27.402344 C 42.1875 27.652344 42.40625 27.894531 42.820313 27.894531 C 43.328125 27.894531 43.546875 27.546875 43.546875 27.488281 C 43.546875 27.460938 43.523438 27.449219 43.507813 27.449219 C 43.480469 27.449219 43.46875 27.460938 43.464844 27.472656 C 43.410156 27.566406 43.316406 27.714844 42.847656 27.714844 C 42.613281 27.714844 42.285156 27.652344 42.285156 27.375 C 42.285156 27.242188 42.394531 27.03125 42.628906 26.914063 Z M 42.757813 26.867188 C 42.847656 26.835938 42.929688 26.828125 42.996094 26.828125 C 43.09375 26.828125 43.105469 26.835938 43.175781 26.851563 C 43.117188 26.878906 43.109375 26.882813 42.964844 26.882813 C 42.878906 26.882813 42.832031 26.882813 42.757813 26.867188 Z M 42.757813 26.867188 "
       id="path18" />
    <path
       style=" stroke:none;fill-rule:nonzero;fill:rgb(0%,0%,0%);fill-opacity:1;"
       d="M 44.824219 27.507813 L 45.109375 27.507813 C 45.316406 27.507813 45.351563 27.546875 45.351563 27.632813 C 45.351563 27.675781 45.351563 27.679688 45.332031 27.761719 C 45.328125 27.773438 45.320313 27.785156 45.320313 27.792969 C 45.320313 27.816406 45.34375 27.835938 45.371094 27.835938 C 45.40625 27.835938 45.40625 27.816406 45.425781 27.769531 L 45.570313 27.191406 C 45.570313 27.175781 45.578125 27.140625 45.578125 27.132813 C 45.578125 27.101563 45.558594 27.089844 45.535156 27.089844 C 45.496094 27.089844 45.492188 27.109375 45.480469 27.160156 C 45.425781 27.375 45.34375 27.410156 45.113281 27.410156 L 44.847656 27.410156 L 45.015625 26.722656 C 45.035156 26.640625 45.042969 26.628906 45.152344 26.628906 L 45.570313 26.628906 C 45.929688 26.628906 45.996094 26.714844 45.996094 26.949219 C 45.996094 27.035156 45.984375 27.097656 45.984375 27.117188 C 45.984375 27.140625 45.996094 27.164063 46.03125 27.164063 C 46.074219 27.164063 46.074219 27.140625 46.082031 27.089844 L 46.128906 26.617188 C 46.136719 26.53125 46.117188 26.53125 46.050781 26.53125 L 44.601563 26.53125 C 44.546875 26.53125 44.519531 26.53125 44.519531 26.59375 C 44.519531 26.628906 44.546875 26.628906 44.601563 26.628906 C 44.601563 26.628906 44.65625 26.628906 44.707031 26.636719 C 44.761719 26.640625 44.765625 26.648438 44.765625 26.671875 C 44.765625 26.691406 44.761719 26.722656 44.753906 26.734375 L 44.402344 28.167969 C 44.371094 28.277344 44.371094 28.296875 44.160156 28.296875 C 44.117188 28.296875 44.078125 28.296875 44.078125 28.351563 C 44.078125 28.382813 44.097656 28.394531 44.121094 28.394531 C 44.203125 28.394531 44.402344 28.382813 44.480469 28.382813 L 44.6875 28.390625 C 44.761719 28.390625 44.835938 28.394531 44.902344 28.394531 C 44.917969 28.394531 44.960938 28.394531 44.960938 28.332031 C 44.960938 28.296875 44.933594 28.296875 44.871094 28.296875 C 44.863281 28.296875 44.796875 28.296875 44.726563 28.289063 C 44.671875 28.285156 44.644531 28.285156 44.644531 28.242188 C 44.644531 28.234375 44.644531 28.222656 44.652344 28.191406 Z M 44.824219 27.507813 "
       id="path20" />
    <path
       style=" stroke:none;fill-rule:nonzero;fill:rgb(0%,0%,0%);fill-opacity:1;"
       d="M 21.808594 27.144531 L 21.738281 26.59375 L 20.371094 26.59375 L 20.371094 26.671875 L 20.429688 26.671875 C 20.621094 26.671875 20.628906 26.699219 20.628906 26.785156 L 20.628906 28.066406 C 20.628906 28.152344 20.621094 28.179688 20.429688 28.179688 L 20.371094 28.179688 L 20.371094 28.257813 C 20.457031 28.25 20.652344 28.25 20.75 28.25 C 20.851563 28.25 21.078125 28.25 21.167969 28.257813 L 21.167969 28.179688 L 21.085938 28.179688 C 20.851563 28.179688 20.851563 28.148438 20.851563 28.066406 L 20.851563 27.464844 L 21.0625 27.464844 C 21.304688 27.464844 21.328125 27.539063 21.328125 27.746094 L 21.390625 27.746094 L 21.390625 27.101563 L 21.328125 27.101563 C 21.328125 27.308594 21.304688 27.386719 21.0625 27.386719 L 20.851563 27.386719 L 20.851563 26.765625 C 20.851563 26.6875 20.855469 26.671875 20.972656 26.671875 L 21.269531 26.671875 C 21.644531 26.671875 21.707031 26.808594 21.746094 27.144531 Z M 21.808594 27.144531 "
       id="path22" />
    <path
       style=" stroke:none;fill-rule:nonzero;fill:rgb(0%,0%,0%);fill-opacity:1;"
       d="M 22.738281 27.964844 C 22.738281 27.941406 22.71875 27.933594 22.703125 27.933594 C 22.683594 27.933594 22.675781 27.949219 22.671875 27.96875 C 22.589844 28.222656 22.363281 28.222656 22.339844 28.222656 C 22.214844 28.222656 22.117188 28.148438 22.058594 28.058594 C 21.984375 27.941406 21.984375 27.78125 21.984375 27.695313 L 22.675781 27.695313 C 22.730469 27.695313 22.738281 27.695313 22.738281 27.640625 C 22.738281 27.398438 22.605469 27.160156 22.296875 27.160156 C 22.007813 27.160156 21.777344 27.414063 21.777344 27.71875 C 21.777344 28.046875 22.039063 28.285156 22.324219 28.285156 C 22.628906 28.285156 22.738281 28.011719 22.738281 27.964844 Z M 22.578125 27.640625 L 21.984375 27.640625 C 22 27.277344 22.210938 27.214844 22.296875 27.214844 C 22.550781 27.214844 22.578125 27.542969 22.578125 27.640625 Z M 22.578125 27.640625 "
       id="path24" />
    <path
       style=" stroke:none;fill-rule:nonzero;fill:rgb(0%,0%,0%);fill-opacity:1;"
       d="M 23.714844 27.324219 C 23.714844 27.25 23.636719 27.175781 23.53125 27.175781 C 23.347656 27.175781 23.257813 27.339844 23.226563 27.445313 L 23.226563 27.175781 L 22.878906 27.203125 L 22.878906 27.28125 C 23.054688 27.28125 23.074219 27.296875 23.074219 27.417969 L 23.074219 28.074219 C 23.074219 28.179688 23.046875 28.179688 22.878906 28.179688 L 22.878906 28.257813 L 23.164063 28.25 C 23.261719 28.25 23.378906 28.25 23.480469 28.257813 L 23.480469 28.179688 L 23.425781 28.179688 C 23.242188 28.179688 23.238281 28.152344 23.238281 28.066406 L 23.238281 27.691406 C 23.238281 27.449219 23.34375 27.230469 23.53125 27.230469 C 23.546875 27.230469 23.554688 27.230469 23.558594 27.234375 C 23.550781 27.234375 23.5 27.265625 23.5 27.328125 C 23.5 27.394531 23.554688 27.433594 23.609375 27.433594 C 23.652344 27.433594 23.714844 27.402344 23.714844 27.324219 Z M 23.714844 27.324219 "
       id="path26" />
    <path
       style=" stroke:none;fill-rule:nonzero;fill:rgb(0%,0%,0%);fill-opacity:1;"
       d="M 25.808594 28.257813 L 25.808594 28.179688 C 25.679688 28.179688 25.617188 28.179688 25.613281 28.105469 L 25.613281 27.640625 C 25.613281 27.429688 25.613281 27.355469 25.535156 27.269531 C 25.5 27.226563 25.417969 27.175781 25.273438 27.175781 C 25.066406 27.175781 24.953125 27.320313 24.914063 27.417969 C 24.878906 27.203125 24.695313 27.175781 24.585938 27.175781 C 24.402344 27.175781 24.285156 27.28125 24.214844 27.433594 L 24.214844 27.175781 L 23.863281 27.203125 L 23.863281 27.28125 C 24.039063 27.28125 24.058594 27.296875 24.058594 27.417969 L 24.058594 28.074219 C 24.058594 28.179688 24.03125 28.179688 23.863281 28.179688 L 23.863281 28.257813 L 24.148438 28.25 L 24.425781 28.257813 L 24.425781 28.179688 C 24.257813 28.179688 24.230469 28.179688 24.230469 28.074219 L 24.230469 27.621094 C 24.230469 27.367188 24.410156 27.230469 24.566406 27.230469 C 24.722656 27.230469 24.75 27.359375 24.75 27.503906 L 24.75 28.074219 C 24.75 28.179688 24.722656 28.179688 24.558594 28.179688 L 24.558594 28.257813 L 24.835938 28.25 L 25.113281 28.257813 L 25.113281 28.179688 C 24.949219 28.179688 24.921875 28.179688 24.921875 28.074219 L 24.921875 27.621094 C 24.921875 27.367188 25.097656 27.230469 25.257813 27.230469 C 25.414063 27.230469 25.441406 27.359375 25.441406 27.503906 L 25.441406 28.074219 C 25.441406 28.179688 25.414063 28.179688 25.246094 28.179688 L 25.246094 28.257813 L 25.527344 28.25 Z M 25.808594 28.257813 "
       id="path28" />
    <path
       style=" stroke:none;fill-rule:nonzero;fill:rgb(0%,0%,0%);fill-opacity:1;"
       d="M 26.472656 28.257813 L 26.472656 28.179688 C 26.304688 28.179688 26.296875 28.167969 26.296875 28.074219 L 26.296875 27.175781 L 25.949219 27.203125 L 25.949219 27.28125 C 26.109375 27.28125 26.132813 27.296875 26.132813 27.414063 L 26.132813 28.074219 C 26.132813 28.179688 26.105469 28.179688 25.9375 28.179688 L 25.9375 28.257813 L 26.210938 28.25 C 26.300781 28.25 26.386719 28.253906 26.472656 28.257813 Z M 26.332031 26.78125 C 26.332031 26.714844 26.277344 26.652344 26.203125 26.652344 C 26.117188 26.652344 26.066406 26.71875 26.066406 26.78125 C 26.066406 26.847656 26.125 26.910156 26.199219 26.910156 C 26.285156 26.910156 26.332031 26.84375 26.332031 26.78125 Z M 26.332031 26.78125 "
       id="path30" />
    <path
       style=" stroke:none;fill-rule:nonzero;fill:rgb(0%,0%,0%);fill-opacity:1;"
       d="M 26.574219 27.660156 L 27.230469 27.660156 L 27.230469 27.800781 L 26.574219 27.800781 Z M 26.574219 27.660156 "
       id="path32" />
    <path
       style=" stroke:none;fill-rule:nonzero;fill:rgb(0%,0%,0%);fill-opacity:1;"
       d="M 28.578125 27.269531 C 28.578125 27.226563 28.550781 27.148438 28.453125 27.148438 C 28.402344 27.148438 28.292969 27.164063 28.1875 27.265625 C 28.082031 27.183594 27.980469 27.175781 27.925781 27.175781 C 27.695313 27.175781 27.523438 27.34375 27.523438 27.53125 C 27.523438 27.640625 27.578125 27.730469 27.640625 27.785156 C 27.609375 27.820313 27.5625 27.898438 27.5625 27.988281 C 27.5625 28.066406 27.597656 28.15625 27.675781 28.207031 C 27.523438 28.246094 27.445313 28.351563 27.445313 28.449219 C 27.445313 28.625 27.691406 28.757813 27.992188 28.757813 C 28.285156 28.757813 28.542969 28.636719 28.542969 28.445313 C 28.542969 28.359375 28.511719 28.234375 28.382813 28.164063 C 28.25 28.097656 28.105469 28.097656 27.953125 28.097656 C 27.890625 28.097656 27.785156 28.097656 27.765625 28.09375 C 27.691406 28.085938 27.640625 28.011719 27.640625 27.929688 C 27.640625 27.921875 27.640625 27.867188 27.679688 27.816406 C 27.773438 27.886719 27.878906 27.894531 27.925781 27.894531 C 28.15625 27.894531 28.328125 27.722656 28.328125 27.535156 C 28.328125 27.445313 28.289063 27.355469 28.226563 27.300781 C 28.316406 27.214844 28.40625 27.203125 28.449219 27.203125 C 28.449219 27.203125 28.46875 27.203125 28.476563 27.207031 C 28.449219 27.214844 28.433594 27.242188 28.433594 27.273438 C 28.433594 27.3125 28.46875 27.339844 28.507813 27.339844 C 28.53125 27.339844 28.578125 27.324219 28.578125 27.269531 Z M 28.140625 27.53125 C 28.140625 27.597656 28.140625 27.679688 28.101563 27.738281 C 28.082031 27.765625 28.023438 27.835938 27.925781 27.835938 C 27.710938 27.835938 27.710938 27.589844 27.710938 27.535156 C 27.710938 27.472656 27.714844 27.390625 27.75 27.328125 C 27.765625 27.304688 27.824219 27.234375 27.925781 27.234375 C 28.140625 27.234375 28.140625 27.476563 28.140625 27.53125 Z M 28.414063 28.449219 C 28.414063 28.582031 28.238281 28.703125 27.996094 28.703125 C 27.746094 28.703125 27.574219 28.578125 27.574219 28.449219 C 27.574219 28.335938 27.667969 28.246094 27.773438 28.242188 L 27.921875 28.242188 C 28.136719 28.242188 28.414063 28.242188 28.414063 28.449219 Z M 28.414063 28.449219 "
       id="path34" />
    <path
       style=" stroke:none;fill-rule:nonzero;fill:rgb(0%,0%,0%);fill-opacity:1;"
       d="M 29.816406 28.039063 L 29.816406 27.898438 L 29.753906 27.898438 L 29.753906 28.039063 C 29.753906 28.179688 29.691406 28.195313 29.664063 28.195313 C 29.582031 28.195313 29.574219 28.085938 29.574219 28.074219 L 29.574219 27.585938 C 29.574219 27.484375 29.574219 27.386719 29.484375 27.296875 C 29.386719 27.199219 29.261719 27.160156 29.144531 27.160156 C 28.941406 27.160156 28.769531 27.277344 28.769531 27.4375 C 28.769531 27.507813 28.820313 27.550781 28.882813 27.550781 C 28.953125 27.550781 29 27.503906 29 27.441406 C 29 27.410156 28.984375 27.328125 28.871094 27.328125 C 28.9375 27.242188 29.0625 27.214844 29.140625 27.214844 C 29.257813 27.214844 29.402344 27.308594 29.402344 27.527344 L 29.402344 27.617188 C 29.273438 27.625 29.101563 27.632813 28.945313 27.703125 C 28.757813 27.789063 28.695313 27.914063 28.695313 28.023438 C 28.695313 28.222656 28.9375 28.285156 29.09375 28.285156 C 29.257813 28.285156 29.371094 28.183594 29.417969 28.074219 C 29.429688 28.167969 29.496094 28.273438 29.613281 28.273438 C 29.664063 28.273438 29.816406 28.238281 29.816406 28.039063 Z M 29.402344 27.914063 C 29.402344 28.144531 29.226563 28.230469 29.113281 28.230469 C 28.992188 28.230469 28.890625 28.144531 28.890625 28.023438 C 28.890625 27.890625 28.992188 27.6875 29.402344 27.671875 Z M 29.402344 27.914063 "
       id="path36" />
    <path
       style=" stroke:none;fill-rule:nonzero;fill:rgb(0%,0%,0%);fill-opacity:1;"
       d="M 30.753906 27.941406 C 30.753906 27.816406 30.683594 27.738281 30.652344 27.710938 C 30.570313 27.632813 30.472656 27.613281 30.367188 27.59375 C 30.226563 27.566406 30.0625 27.535156 30.0625 27.394531 C 30.0625 27.308594 30.125 27.207031 30.339844 27.207031 C 30.613281 27.207031 30.628906 27.429688 30.632813 27.503906 C 30.632813 27.523438 30.660156 27.523438 30.660156 27.523438 C 30.695313 27.523438 30.695313 27.511719 30.695313 27.46875 L 30.695313 27.21875 C 30.695313 27.179688 30.695313 27.160156 30.667969 27.160156 C 30.65625 27.160156 30.648438 27.160156 30.617188 27.191406 C 30.609375 27.199219 30.585938 27.222656 30.574219 27.230469 C 30.480469 27.160156 30.378906 27.160156 30.339844 27.160156 C 30.035156 27.160156 29.941406 27.324219 29.941406 27.464844 C 29.941406 27.546875 29.980469 27.617188 30.046875 27.671875 C 30.128906 27.730469 30.199219 27.746094 30.378906 27.78125 C 30.433594 27.792969 30.636719 27.832031 30.636719 28.007813 C 30.636719 28.128906 30.550781 28.230469 30.355469 28.230469 C 30.144531 28.230469 30.054688 28.089844 30.007813 27.882813 C 30 27.851563 30 27.84375 29.972656 27.84375 C 29.941406 27.84375 29.941406 27.859375 29.941406 27.898438 L 29.941406 28.226563 C 29.941406 28.269531 29.941406 28.285156 29.96875 28.285156 C 29.980469 28.285156 29.984375 28.28125 30.03125 28.234375 C 30.035156 28.230469 30.035156 28.226563 30.082031 28.179688 C 30.191406 28.28125 30.304688 28.285156 30.355469 28.285156 C 30.640625 28.285156 30.753906 28.117188 30.753906 27.941406 Z M 30.753906 27.941406 "
       id="path38" />
    <path
       style=" stroke:none;fill-rule:nonzero;fill:rgb(0%,0%,0%);fill-opacity:1;"
       d="M 34.382813 26.773438 C 34.402344 26.707031 34.410156 26.691406 34.441406 26.683594 C 34.464844 26.679688 34.546875 26.679688 34.597656 26.679688 C 34.847656 26.679688 34.957031 26.6875 34.957031 26.878906 C 34.957031 26.914063 34.949219 27.011719 34.9375 27.074219 C 34.9375 27.085938 34.929688 27.113281 34.929688 27.117188 C 34.929688 27.132813 34.9375 27.152344 34.960938 27.152344 C 34.988281 27.152344 34.992188 27.132813 35 27.097656 L 35.066406 26.671875 C 35.070313 26.660156 35.070313 26.636719 35.070313 26.628906 C 35.070313 26.601563 35.046875 26.601563 35.003906 26.601563 L 33.625 26.601563 C 33.566406 26.601563 33.5625 26.605469 33.542969 26.652344 L 33.394531 27.082031 C 33.394531 27.085938 33.378906 27.117188 33.378906 27.125 C 33.378906 27.136719 33.394531 27.152344 33.410156 27.152344 C 33.433594 27.152344 33.4375 27.136719 33.453125 27.101563 C 33.585938 26.71875 33.652344 26.679688 34.019531 26.679688 L 34.117188 26.679688 C 34.1875 26.679688 34.1875 26.6875 34.1875 26.710938 C 34.1875 26.71875 34.179688 26.75 34.175781 26.757813 L 33.84375 28.066406 C 33.820313 28.152344 33.8125 28.179688 33.546875 28.179688 C 33.457031 28.179688 33.441406 28.179688 33.441406 28.226563 C 33.441406 28.257813 33.46875 28.257813 33.484375 28.257813 C 33.550781 28.257813 33.621094 28.253906 33.6875 28.253906 C 33.757813 28.253906 33.832031 28.25 33.902344 28.25 C 33.972656 28.25 34.039063 28.253906 34.109375 28.253906 C 34.179688 28.253906 34.253906 28.257813 34.324219 28.257813 C 34.347656 28.257813 34.378906 28.257813 34.378906 28.207031 C 34.378906 28.179688 34.359375 28.179688 34.292969 28.179688 C 34.234375 28.179688 34.199219 28.179688 34.136719 28.175781 C 34.0625 28.167969 34.042969 28.160156 34.042969 28.121094 C 34.042969 28.117188 34.042969 28.105469 34.054688 28.074219 Z M 34.382813 26.773438 "
       id="path40" />
    <path
       style=" stroke:none;fill-rule:nonzero;fill:rgb(0%,0%,0%);fill-opacity:1;"
       d="M 37.515625 27.457031 C 37.554688 27.457031 37.601563 27.457031 37.601563 27.410156 C 37.601563 27.359375 37.554688 27.359375 37.519531 27.359375 L 36.03125 27.359375 C 35.996094 27.359375 35.949219 27.359375 35.949219 27.410156 C 35.949219 27.457031 35.996094 27.457031 36.03125 27.457031 Z M 37.519531 27.929688 C 37.554688 27.929688 37.601563 27.929688 37.601563 27.882813 C 37.601563 27.835938 37.554688 27.835938 37.515625 27.835938 L 36.03125 27.835938 C 35.996094 27.835938 35.949219 27.835938 35.949219 27.882813 C 35.949219 27.929688 35.996094 27.929688 36.03125 27.929688 Z M 37.519531 27.929688 "
       id="path42" />
    <path
       style=" stroke:none;fill-rule:nonzero;fill:rgb(0%,0%,0%);fill-opacity:1;"
       d="M 39.574219 27.476563 C 39.574219 27.28125 39.5625 27.085938 39.476563 26.90625 C 39.363281 26.667969 39.15625 26.628906 39.054688 26.628906 C 38.902344 26.628906 38.722656 26.695313 38.617188 26.917969 C 38.539063 27.089844 38.527344 27.28125 38.527344 27.476563 C 38.527344 27.660156 38.535156 27.878906 38.640625 28.066406 C 38.746094 28.261719 38.929688 28.308594 39.050781 28.308594 C 39.183594 28.308594 39.375 28.261719 39.484375 28.027344 C 39.5625 27.859375 39.574219 27.667969 39.574219 27.476563 Z M 39.050781 28.257813 C 38.953125 28.257813 38.804688 28.195313 38.761719 27.960938 C 38.734375 27.816406 38.734375 27.589844 38.734375 27.445313 C 38.734375 27.289063 38.734375 27.125 38.753906 26.996094 C 38.800781 26.707031 38.988281 26.683594 39.050781 26.683594 C 39.132813 26.683594 39.296875 26.726563 39.34375 26.96875 C 39.371094 27.109375 39.371094 27.292969 39.371094 27.445313 C 39.371094 27.628906 39.371094 27.792969 39.34375 27.949219 C 39.304688 28.183594 39.164063 28.257813 39.050781 28.257813 Z M 39.050781 28.257813 "
       id="path44" />
    <path
       style="fill:none;stroke-width:0.278263;stroke-linecap:butt;stroke-linejoin:miter;stroke:rgb(0%,0%,0%);stroke-opacity:1;stroke-miterlimit:4;"
       d="M 150.324219 318.702896 L 150.324219 327.91774 "
       transform="matrix(1,0,0,1,-108.875,-296.124771)"
       id="path46" />
    <path
       style="fill-rule:evenodd;fill:rgb(0%,0%,0%);fill-opacity:1;stroke-width:0.148407;stroke-linecap:butt;stroke-linejoin:miter;stroke:rgb(0%,0%,0%);stroke-opacity:1;stroke-miterlimit:4;"
       d="M 319.816177 -150.324219 L 320.370865 -150.878906 L 318.425552 -150.324219 L 320.370865 -149.765625 Z M 319.816177 -150.324219 "
       transform="matrix(0,1,-1,0,-108.875,-296.124771)"
       id="path48" />
    <path
       style="fill-rule:evenodd;fill:rgb(0%,0%,0%);fill-opacity:1;stroke-width:0.148407;stroke-linecap:butt;stroke-linejoin:miter;stroke:rgb(0%,0%,0%);stroke-opacity:1;stroke-miterlimit:4;"
       d="M -326.804459 150.324219 L -326.249771 149.765625 L -328.19899 150.324219 L -326.249771 150.878906 Z M -326.804459 150.324219 "
       transform="matrix(0,-1,1,0,-108.875,-296.124771)"
       id="path50" />
    <path
       style="fill:none;stroke-width:0.358204;stroke-linecap:butt;stroke-linejoin:miter;stroke:rgb(0%,0%,0%);stroke-opacity:1;stroke-miterlimit:4;"
       d="M 118.945312 302.179459 L 118.945312 327.663834 "
       transform="matrix(1,0,0,1,-108.875,-296.124771)"
       id="path52" />
    <path
       style="fill-rule:evenodd;fill:rgb(0%,0%,0%);fill-opacity:1;stroke-width:0.191042;stroke-linecap:butt;stroke-linejoin:miter;stroke:rgb(0%,0%,0%);stroke-opacity:1;stroke-miterlimit:4;"
       d="M 303.613052 -118.945312 L 304.331802 -119.660156 L 301.82399 -118.945312 L 304.331802 -118.230469 Z M 303.613052 -118.945312 "
       transform="matrix(0,1,-1,0,-108.875,-296.124771)"
       id="path54" />
    <path
       style="fill-rule:evenodd;fill:rgb(0%,0%,0%);fill-opacity:1;stroke-width:0.191042;stroke-linecap:butt;stroke-linejoin:miter;stroke:rgb(0%,0%,0%);stroke-opacity:1;stroke-miterlimit:4;"
       d="M -326.23024 118.945312 L -325.51149 118.230469 L -328.019302 118.945312 L -325.51149 119.660156 Z M -326.23024 118.945312 "
       transform="matrix(0,-1,1,0,-108.875,-296.124771)"
       id="path56" />
  </g>
</svg>
