<?xml version="1.0" encoding="UTF-8" standalone="no"?>
<svg
   xmlns:dc="http://purl.org/dc/elements/1.1/"
   xmlns:cc="http://creativecommons.org/ns#"
   xmlns:rdf="http://www.w3.org/1999/02/22-rdf-syntax-ns#"
   xmlns:svg="http://www.w3.org/2000/svg"
   xmlns="http://www.w3.org/2000/svg"
   xmlns:sodipodi="http://sodipodi.sourceforge.net/DTD/sodipodi-0.dtd"
   xmlns:inkscape="http://www.inkscape.org/namespaces/inkscape"
   width="153.986pt"
   height="58.353pt"
   viewBox="0 0 153.986 58.353"
   version="1.2"
   id="svg41"
   sodipodi:docname="krkrx.svg"
   inkscape:version="0.92.3 (2405546, 2018-03-11)">
  <metadata
     id="metadata47">
    <rdf:RDF>
      <cc:Work
         rdf:about="">
        <dc:format>image/svg+xml</dc:format>
        <dc:type
           rdf:resource="http://purl.org/dc/dcmitype/StillImage" />
        <dc:title></dc:title>
      </cc:Work>
    </rdf:RDF>
  </metadata>
  <defs
     id="defs45" />
  <sodipodi:namedview
     pagecolor="#ffffff"
     bordercolor="#666666"
     borderopacity="1"
     objecttolerance="10"
     gridtolerance="10"
     guidetolerance="10"
     inkscape:pageopacity="0"
     inkscape:pageshadow="2"
     inkscape:window-width="1301"
     inkscape:window-height="744"
     id="namedview43"
     showgrid="false"
     inkscape:zoom="1.470913"
     inkscape:cx="102.65733"
     inkscape:cy="38.902"
     inkscape:window-x="65"
     inkscape:window-y="24"
     inkscape:window-maximized="1"
     inkscape:current-layer="svg41" />
  <g
     id="surface323">
    <path
       style="fill-rule:nonzero;fill:rgb(100%,99.606323%,100%);fill-opacity:1;stroke-width:0.729873;stroke-linecap:butt;stroke-linejoin:miter;stroke:rgb(0%,0%,1.176453%);stroke-opacity:1;stroke-miterlimit:4;"
       d="M 213.000625 213.27649 C 213.000625 216.831177 210.117812 219.71399 206.563125 219.71399 C 203.008437 219.71399 200.125625 216.831177 200.125625 213.27649 C 200.125625 209.721802 203.008437 206.83899 206.563125 206.83899 C 210.117812 206.83899 213.000625 209.721802 213.000625 213.27649 Z M 213.000625 213.27649 "
       transform="matrix(1,0,0,1,-179.11,-179.514771)"
       id="path2" />
    <path
       style="fill:none;stroke-width:0.751181;stroke-linecap:butt;stroke-linejoin:miter;stroke:rgb(0%,0%,0%);stroke-opacity:1;stroke-dasharray:2.253543,0.751181;stroke-miterlimit:4;"
       d="M 192.949844 213.542115 L 323.258438 213.542115 "
       transform="matrix(1,0,0,1,-179.11,-179.514771)"
       id="path4" />
    <path
       style="fill:none;stroke-width:0.751181;stroke-linecap:butt;stroke-linejoin:miter;stroke:rgb(0%,0%,0%);stroke-opacity:1;stroke-dasharray:2.253543,0.751181;stroke-miterlimit:4;"
       d="M 199.332656 230.440552 L 199.332656 196.823365 "
       transform="matrix(1,0,0,1,-179.11,-179.514771)"
       id="path6" />
    <path
       style="fill:none;stroke-width:0.751181;stroke-linecap:butt;stroke-linejoin:miter;stroke:rgb(0%,0%,0%);stroke-opacity:1;stroke-dasharray:2.253543,0.751181;stroke-miterlimit:4;"
       d="M 222.645156 230.624146 L 222.645156 197.006959 "
       transform="matrix(1,0,0,1,-179.11,-179.514771)"
       id="path8" />
    <path
       style=" stroke:none;fill-rule:nonzero;fill:rgb(0%,0%,0%);fill-opacity:1;"
       d="M 41.488281 46.789062 C 40.753906 47.386719 40.394531 47.960938 40.292969 48.160156 C 39.679688 49.136719 39.578125 50.019531 39.578125 50.019531 C 39.578125 50.199219 39.746094 50.199219 39.851562 50.199219 C 40.058594 50.199219 40.082031 50.175781 40.144531 49.910156 C 40.4375 48.539062 41.238281 47.339844 42.75 46.699219 C 42.917969 46.632812 42.960938 46.609375 42.960938 46.5 C 42.960938 46.410156 42.875 46.367188 42.855469 46.34375 C 42.246094 46.125 40.628906 45.414062 40.121094 43.046875 C 40.082031 42.867188 40.058594 42.824219 39.851562 42.824219 C 39.746094 42.824219 39.578125 42.824219 39.578125 43 C 39.578125 43.023438 39.703125 43.910156 40.25 44.859375 C 40.523438 45.28125 40.921875 45.769531 41.488281 46.234375 L 31.527344 46.234375 C 31.292969 46.234375 31.042969 46.234375 31.042969 46.5 C 31.042969 46.789062 31.292969 46.789062 31.527344 46.789062 Z M 41.488281 46.789062 "
       id="path10" />
    <path
       style=" stroke:none;fill-rule:nonzero;fill:rgb(0%,0%,0%);fill-opacity:1;"
       d="M 32.179688 46.785156 C 32.433594 46.785156 32.664062 46.785156 32.664062 46.5 C 32.664062 46.234375 32.433594 46.234375 32.179688 46.234375 L 22.214844 46.234375 C 22.953125 45.632812 23.332031 45.058594 23.4375 44.859375 C 24.023438 43.886719 24.152344 43 24.152344 43 C 24.152344 42.820312 23.980469 42.820312 23.878906 42.820312 C 23.644531 42.820312 23.625 42.84375 23.582031 43.109375 C 23.269531 44.484375 22.46875 45.65625 20.957031 46.320312 C 20.808594 46.386719 20.765625 46.410156 20.765625 46.5 C 20.765625 46.609375 20.828125 46.632812 20.957031 46.699219 C 22.363281 47.296875 23.246094 48.402344 23.582031 49.976562 C 23.625 50.152344 23.644531 50.195312 23.878906 50.195312 C 23.980469 50.195312 24.152344 50.195312 24.152344 50.019531 C 24.152344 49.996094 24.023438 49.113281 23.457031 48.160156 C 23.183594 47.738281 22.804688 47.25 22.214844 46.785156 Z M 32.179688 46.785156 "
       id="path12" />
    <path
       style="fill:none;stroke-width:0.751181;stroke-linecap:butt;stroke-linejoin:miter;stroke:rgb(0%,0%,0%);stroke-opacity:1;stroke-dasharray:2.253543,0.751181;stroke-miterlimit:4;"
       d="M 245.961562 230.811646 L 245.961562 197.190552 "
       transform="matrix(1,0,0,1,-179.11,-179.514771)"
       id="path14" />
    <path
       style="fill:none;stroke-width:0.751181;stroke-linecap:butt;stroke-linejoin:miter;stroke:rgb(0%,0%,0%);stroke-opacity:1;stroke-dasharray:2.253543,0.751181;stroke-miterlimit:4;"
       d="M 269.274063 230.99524 L 269.274063 197.374146 "
       transform="matrix(1,0,0,1,-179.11,-179.514771)"
       id="path16" />
    <path
       style="fill:none;stroke-width:0.729873;stroke-linecap:butt;stroke-linejoin:miter;stroke:rgb(0%,0%,1.176453%);stroke-opacity:1;stroke-miterlimit:4;"
       d="M 240.563125 213.27649 C 240.563125 216.831177 237.680312 219.71399 234.125625 219.71399 C 230.570937 219.71399 227.688125 216.831177 227.688125 213.27649 C 227.688125 209.721802 230.570937 206.83899 234.125625 206.83899 C 237.680312 206.83899 240.563125 209.721802 240.563125 213.27649 Z M 240.563125 213.27649 "
       transform="matrix(1,0,0,1,-179.11,-179.514771)"
       id="path18" />
    <path
       style="fill:none;stroke-width:0.729873;stroke-linecap:butt;stroke-linejoin:miter;stroke:rgb(0%,0%,1.176453%);stroke-opacity:1;stroke-miterlimit:4;"
       d="M 259.168594 213.374146 C 259.168594 216.93274 256.285781 219.815552 252.731094 219.815552 C 249.176406 219.815552 246.293594 216.93274 246.293594 213.374146 C 246.293594 209.819459 249.176406 206.936646 252.731094 206.936646 C 256.285781 206.936646 259.168594 209.819459 259.168594 213.374146 Z M 259.168594 213.374146 "
       transform="matrix(1,0,0,1,-179.11,-179.514771)"
       id="path20" />
    <path
       style="fill:none;stroke-width:0.729873;stroke-linecap:butt;stroke-linejoin:miter;stroke:rgb(0%,0%,1.176453%);stroke-opacity:1;stroke-miterlimit:4;"
       d="M 287.582656 213.303834 C 287.582656 216.862427 284.70375 219.74524 281.145156 219.74524 C 277.590469 219.74524 274.707656 216.862427 274.707656 213.303834 C 274.707656 209.749146 277.590469 206.866334 281.145156 206.866334 C 284.70375 206.866334 287.582656 209.749146 287.582656 213.303834 Z M 287.582656 213.303834 "
       transform="matrix(1,0,0,1,-179.11,-179.514771)"
       id="path22" />
    <path
       style="fill:none;stroke-width:0.751181;stroke-linecap:butt;stroke-linejoin:miter;stroke:rgb(0%,0%,0%);stroke-opacity:1;stroke-dasharray:2.253543,0.751181;stroke-miterlimit:4;"
       d="M 292.586563 231.178834 L 292.586563 197.55774 "
       transform="matrix(1,0,0,1,-179.11,-179.514771)"
       id="path24" />
    <path
       style="fill:none;stroke-width:0.751181;stroke-linecap:butt;stroke-linejoin:miter;stroke:rgb(0%,0%,0%);stroke-opacity:1;stroke-dasharray:2.253543,0.751181;stroke-miterlimit:4;"
       d="M 315.899063 231.362427 L 315.899063 197.741334 "
       transform="matrix(1,0,0,1,-179.11,-179.514771)"
       id="path26" />
    <path
       style="fill:none;stroke-width:0.729873;stroke-linecap:butt;stroke-linejoin:miter;stroke:rgb(0%,0%,1.176453%);stroke-opacity:1;stroke-miterlimit:4;"
       d="M 305.89125 213.393677 C 305.89125 216.952271 303.012344 219.835084 299.45375 219.835084 C 295.899063 219.835084 293.01625 216.952271 293.01625 213.393677 C 293.01625 209.83899 295.899063 206.956177 299.45375 206.956177 C 303.012344 206.956177 305.89125 209.83899 305.89125 213.393677 Z M 305.89125 213.393677 "
       transform="matrix(1,0,0,1,-179.11,-179.514771)"
       id="path28" />
    <path
       style=" stroke:none;fill-rule:nonzero;fill:rgb(0%,0%,0%);fill-opacity:1;"
       d="M 31.316406 48.082031 C 31.316406 48.082031 31.316406 47.988281 31.210938 47.988281 C 31.023438 47.988281 30.398438 48.054688 30.171875 48.082031 C 30.105469 48.082031 30.015625 48.09375 30.015625 48.242188 C 30.015625 48.347656 30.09375 48.347656 30.226562 48.347656 C 30.625 48.347656 30.636719 48.398438 30.636719 48.492188 C 30.636719 48.546875 30.570312 48.839844 30.53125 49.011719 L 29.828125 51.773438 C 29.734375 52.199219 29.695312 52.347656 29.695312 52.636719 C 29.695312 53.4375 30.148438 53.96875 30.769531 53.96875 C 31.769531 53.96875 32.816406 52.703125 32.816406 51.484375 C 32.816406 50.710938 32.367188 50.128906 31.6875 50.128906 C 31.304688 50.128906 30.945312 50.378906 30.691406 50.632812 Z M 30.53125 51.285156 C 30.570312 51.097656 30.570312 51.082031 30.652344 50.992188 C 31.0625 50.445312 31.449219 50.3125 31.675781 50.3125 C 31.980469 50.3125 32.207031 50.566406 32.207031 51.109375 C 32.207031 51.617188 31.925781 52.585938 31.769531 52.90625 C 31.488281 53.476562 31.101562 53.78125 30.769531 53.78125 C 30.480469 53.78125 30.199219 53.554688 30.199219 52.929688 C 30.199219 52.757812 30.199219 52.597656 30.332031 52.066406 Z M 30.53125 51.285156 "
       id="path30" />
    <path
       style=" stroke:none;fill-rule:nonzero;fill:rgb(0%,0%,0%);fill-opacity:1;"
       d="M 64.976562 15.949219 C 64.359375 16.457031 64.058594 16.945312 63.972656 17.113281 C 63.460938 17.9375 63.371094 18.691406 63.371094 18.691406 C 63.371094 18.839844 63.511719 18.839844 63.601562 18.839844 C 63.777344 18.839844 63.792969 18.820312 63.847656 18.597656 C 64.09375 17.433594 64.765625 16.417969 66.035156 15.875 C 66.175781 15.820312 66.210938 15.800781 66.210938 15.707031 C 66.210938 15.628906 66.140625 15.59375 66.121094 15.574219 C 65.613281 15.386719 64.253906 14.785156 63.828125 12.777344 C 63.792969 12.628906 63.777344 12.589844 63.601562 12.589844 C 63.511719 12.589844 63.371094 12.589844 63.371094 12.742188 C 63.371094 12.757812 63.476562 13.511719 63.9375 14.316406 C 64.164062 14.671875 64.5 15.085938 64.976562 15.480469 L 56.617188 15.480469 C 56.421875 15.480469 56.210938 15.480469 56.210938 15.707031 C 56.210938 15.949219 56.421875 15.949219 56.617188 15.949219 Z M 64.976562 15.949219 "
       id="path32" />
    <path
       style=" stroke:none;fill-rule:nonzero;fill:rgb(0%,0%,0%);fill-opacity:1;"
       d="M 30.304688 15.949219 C 30.515625 15.949219 30.710938 15.949219 30.710938 15.703125 C 30.710938 15.480469 30.515625 15.480469 30.304688 15.480469 L 21.945312 15.480469 C 22.5625 14.972656 22.878906 14.484375 22.96875 14.316406 C 23.460938 13.492188 23.566406 12.738281 23.566406 12.738281 C 23.566406 12.589844 23.425781 12.589844 23.335938 12.589844 C 23.144531 12.589844 23.125 12.609375 23.089844 12.832031 C 22.824219 13.996094 22.15625 14.992188 20.886719 15.554688 C 20.761719 15.609375 20.726562 15.628906 20.726562 15.703125 C 20.726562 15.800781 20.78125 15.816406 20.886719 15.875 C 22.066406 16.378906 22.808594 17.320312 23.089844 18.652344 C 23.125 18.800781 23.144531 18.839844 23.335938 18.839844 C 23.425781 18.839844 23.566406 18.839844 23.566406 18.6875 C 23.566406 18.671875 23.460938 17.917969 22.984375 17.113281 C 22.753906 16.757812 22.4375 16.34375 21.945312 15.949219 Z M 30.304688 15.949219 "
       id="path34" />
    <path
       style="fill:none;stroke-width:0.468441;stroke-linecap:butt;stroke-linejoin:miter;stroke:rgb(0%,0%,0%);stroke-opacity:1;stroke-miterlimit:4;"
       d="M 222.680545 195.229615 L 251.468405 195.229615 "
       transform="matrix(0.939795,0,0,1,-179.11,-179.514771)"
       id="path36" />
    <path
       style=" stroke:none;fill-rule:nonzero;fill:rgb(0%,0%,0%);fill-opacity:1;"
       d="M 43.726562 10.011719 C 43.566406 9.691406 43.328125 9.464844 42.941406 9.464844 C 41.957031 9.464844 40.910156 10.714844 40.910156 11.949219 C 40.910156 12.746094 41.375 13.304688 42.023438 13.304688 C 42.199219 13.304688 42.621094 13.265625 43.128906 12.667969 C 43.195312 13.027344 43.5 13.304688 43.898438 13.304688 C 44.203125 13.304688 44.390625 13.105469 44.535156 12.839844 C 44.667969 12.535156 44.789062 12.015625 44.789062 12.003906 C 44.789062 11.910156 44.707031 11.910156 44.683594 11.910156 C 44.601562 11.910156 44.589844 11.949219 44.5625 12.070312 C 44.417969 12.613281 44.269531 13.117188 43.925781 13.117188 C 43.6875 13.117188 43.671875 12.894531 43.671875 12.734375 C 43.671875 12.546875 43.6875 12.46875 43.777344 12.097656 C 43.871094 11.75 43.886719 11.65625 43.964844 11.339844 L 44.269531 10.15625 C 44.324219 9.917969 44.324219 9.902344 44.324219 9.863281 C 44.324219 9.71875 44.230469 9.636719 44.085938 9.636719 C 43.871094 9.636719 43.753906 9.824219 43.726562 10.011719 Z M 43.179688 12.203125 C 43.128906 12.363281 43.128906 12.375 43.007812 12.519531 C 42.636719 12.984375 42.289062 13.117188 42.050781 13.117188 C 41.625 13.117188 41.507812 12.652344 41.507812 12.320312 C 41.507812 11.898438 41.773438 10.859375 41.972656 10.460938 C 42.238281 9.96875 42.609375 9.652344 42.953125 9.652344 C 43.5 9.652344 43.621094 10.34375 43.621094 10.394531 C 43.621094 10.449219 43.605469 10.5 43.59375 10.542969 Z M 43.179688 12.203125 "
       id="path38" />
  </g>
</svg>
