<?xml version="1.0" encoding="UTF-8" standalone="no"?>
<svg
   xmlns:dc="http://purl.org/dc/elements/1.1/"
   xmlns:cc="http://creativecommons.org/ns#"
   xmlns:rdf="http://www.w3.org/1999/02/22-rdf-syntax-ns#"
   xmlns:svg="http://www.w3.org/2000/svg"
   xmlns="http://www.w3.org/2000/svg"
   xmlns:sodipodi="http://sodipodi.sourceforge.net/DTD/sodipodi-0.dtd"
   xmlns:inkscape="http://www.inkscape.org/namespaces/inkscape"
   width="112.653pt"
   height="108.196pt"
   viewBox="0 0 112.653 108.196"
   version="1.2"
   id="svg151"
   sodipodi:docname="1a.svg"
   inkscape:version="0.92.3 (2405546, 2018-03-11)">
  <metadata
     id="metadata157">
    <rdf:RDF>
      <cc:Work
         rdf:about="">
        <dc:format>image/svg+xml</dc:format>
        <dc:type
           rdf:resource="http://purl.org/dc/dcmitype/StillImage" />
        <dc:title></dc:title>
      </cc:Work>
    </rdf:RDF>
  </metadata>
  <defs
     id="defs155" />
  <sodipodi:namedview
     pagecolor="#ffffff"
     bordercolor="#666666"
     borderopacity="1"
     objecttolerance="10"
     gridtolerance="10"
     guidetolerance="10"
     inkscape:pageopacity="0"
     inkscape:pageshadow="2"
     inkscape:window-width="740"
     inkscape:window-height="480"
     id="namedview153"
     showgrid="false"
     inkscape:zoom="1.63592"
     inkscape:cx="75.102"
     inkscape:cy="72.130666"
     inkscape:window-x="65"
     inkscape:window-y="24"
     inkscape:window-maximized="0"
     inkscape:current-layer="svg151" />
  <g
     id="surface341">
    <path
       style="fill:none;stroke-width:0.495677;stroke-linecap:butt;stroke-linejoin:miter;stroke:rgb(0%,0%,0%);stroke-opacity:0.986425;stroke-miterlimit:4;"
       d="M 132.553156 256.325396 C 132.553156 260.954302 128.666438 264.708209 123.873469 264.708209 C 119.0805 264.708209 115.197688 260.954302 115.197688 256.325396 C 115.197688 251.700396 119.0805 247.94649 123.873469 247.94649 C 128.666438 247.94649 132.553156 251.700396 132.553156 256.325396 Z M 132.553156 256.325396 "
       transform="matrix(1,0,0,1,-104.143,-161.684771)"
       id="path2" />
    <path
       style="fill:none;stroke-width:0.495677;stroke-linecap:butt;stroke-linejoin:miter;stroke:rgb(0%,0%,0%);stroke-opacity:0.986425;stroke-miterlimit:4;"
       d="M 131.990656 229.716021 C 131.990656 234.344927 128.103938 238.094927 123.314875 238.094927 C 118.521906 238.094927 114.635188 234.344927 114.635188 229.716021 C 114.635188 225.087115 118.521906 221.337115 123.314875 221.337115 C 128.103938 221.337115 131.990656 225.087115 131.990656 229.716021 Z M 131.990656 229.716021 "
       transform="matrix(1,0,0,1,-104.143,-161.684771)"
       id="path4" />
    <path
       style="fill:none;stroke-width:0.495677;stroke-linecap:butt;stroke-linejoin:miter;stroke:rgb(0%,0%,0%);stroke-opacity:0.986425;stroke-miterlimit:4;"
       d="M 131.314875 204.563677 C 131.314875 209.192584 127.428156 212.942584 122.635188 212.942584 C 117.842219 212.942584 113.959406 209.192584 113.959406 204.563677 C 113.959406 199.938677 117.842219 196.184771 122.635188 196.184771 C 127.428156 196.184771 131.314875 199.938677 131.314875 204.563677 Z M 131.314875 204.563677 "
       transform="matrix(1,0,0,1,-104.143,-161.684771)"
       id="path6" />
    <path
       style="fill:none;stroke-width:0.495677;stroke-linecap:butt;stroke-linejoin:miter;stroke:rgb(0%,0%,0%);stroke-opacity:0.986425;stroke-miterlimit:4;"
       d="M 130.23675 178.106646 C 130.23675 182.731646 126.353938 186.485552 121.564875 186.485552 C 116.771906 186.485552 112.881281 182.731646 112.881281 178.106646 C 112.881281 173.47774 116.771906 169.72774 121.564875 169.72774 C 126.353938 169.72774 130.23675 173.47774 130.23675 178.106646 Z M 130.23675 178.106646 "
       transform="matrix(1,0,0,1,-104.143,-161.684771)"
       id="path8" />
    <path
       style="fill:none;stroke-width:0.75;stroke-linecap:butt;stroke-linejoin:miter;stroke:rgb(0%,0%,0%);stroke-opacity:1;stroke-dasharray:1.5,0.75;stroke-miterlimit:4;"
       d="M 122.209406 186.579302 L 122.209406 196.286334 "
       transform="matrix(1,0,0,1,-104.143,-161.684771)"
       id="path10" />
    <path
       style="fill:none;stroke-width:0.75;stroke-linecap:butt;stroke-linejoin:miter;stroke:rgb(0%,0%,0%);stroke-opacity:1;stroke-dasharray:1.5,0.75;stroke-miterlimit:4;"
       d="M 123.010188 212.962115 L 123.010188 221.532427 "
       transform="matrix(1,0,0,1,-104.143,-161.684771)"
       id="path12" />
    <path
       style="fill:none;stroke-width:0.75;stroke-linecap:butt;stroke-linejoin:miter;stroke:rgb(0%,0%,0%);stroke-opacity:1;stroke-dasharray:1.5,0.75;stroke-miterlimit:4;"
       d="M 123.682063 238.075396 L 123.682063 247.88399 "
       transform="matrix(1,0,0,1,-104.143,-161.684771)"
       id="path14" />
    <path
       style="fill:none;stroke-width:0.495677;stroke-linecap:butt;stroke-linejoin:miter;stroke:rgb(0%,0%,0%);stroke-opacity:0.986425;stroke-miterlimit:4;"
       d="M -167.880084 200.04925 C -167.880084 204.678156 -171.762896 208.428156 -176.555865 208.428156 C -181.348834 208.428156 -185.235552 204.678156 -185.235552 200.04925 C -185.235552 195.420344 -181.348834 191.670344 -176.555865 191.670344 C -171.762896 191.670344 -167.880084 195.420344 -167.880084 200.04925 Z M -167.880084 200.04925 "
       transform="matrix(0,-1,1,0,-104.143,-161.684771)"
       id="path16" />
    <path
       style="fill:none;stroke-width:0.495677;stroke-linecap:butt;stroke-linejoin:miter;stroke:rgb(0%,0%,0%);stroke-opacity:0.986425;stroke-miterlimit:4;"
       d="M -168.442584 173.439875 C -168.442584 178.064875 -172.325396 181.818781 -177.118365 181.818781 C -181.911334 181.818781 -185.794146 178.064875 -185.794146 173.439875 C -185.794146 168.814875 -181.911334 165.057063 -177.118365 165.057063 C -172.325396 165.057063 -168.442584 168.814875 -168.442584 173.439875 Z M -168.442584 173.439875 "
       transform="matrix(0,-1,1,0,-104.143,-161.684771)"
       id="path18" />
    <path
       style="fill:none;stroke-width:0.495677;stroke-linecap:butt;stroke-linejoin:miter;stroke:rgb(0%,0%,0%);stroke-opacity:0.986425;stroke-miterlimit:4;"
       d="M -169.118365 148.287531 C -169.118365 152.916438 -173.005084 156.666438 -177.794146 156.666438 C -182.587115 156.666438 -186.473834 152.916438 -186.473834 148.287531 C -186.473834 143.658625 -182.587115 139.908625 -177.794146 139.908625 C -173.005084 139.908625 -169.118365 143.658625 -169.118365 148.287531 Z M -169.118365 148.287531 "
       transform="matrix(0,-1,1,0,-104.143,-161.684771)"
       id="path20" />
    <path
       style="fill:none;stroke-width:0.75;stroke-linecap:butt;stroke-linejoin:miter;stroke:rgb(0%,0%,0%);stroke-opacity:1;stroke-dasharray:1.5,0.75;stroke-miterlimit:4;"
       d="M 130.29925 178.223834 L 140.010188 178.223834 "
       transform="matrix(1,0,0,1,-104.143,-161.684771)"
       id="path22" />
    <path
       style="fill:none;stroke-width:0.75;stroke-linecap:butt;stroke-linejoin:miter;stroke:rgb(0%,0%,0%);stroke-opacity:1;stroke-dasharray:1.5,0.75;stroke-miterlimit:4;"
       d="M 156.689875 177.419146 L 165.256281 177.419146 "
       transform="matrix(1,0,0,1,-104.143,-161.684771)"
       id="path24" />
    <path
       style="fill:none;stroke-width:0.75;stroke-linecap:butt;stroke-linejoin:miter;stroke:rgb(0%,0%,0%);stroke-opacity:1;stroke-dasharray:1.5,0.75;stroke-miterlimit:4;"
       d="M 181.795344 176.751177 L 191.607844 176.751177 "
       transform="matrix(1,0,0,1,-104.143,-161.684771)"
       id="path26" />
    <path
       style="fill:none;stroke-width:0.495677;stroke-linecap:butt;stroke-linejoin:miter;stroke:rgb(0%,0%,0%);stroke-opacity:0.986425;stroke-miterlimit:4;"
       d="M 210.607844 255.024615 C 210.607844 259.653521 206.721125 263.403521 201.932063 263.403521 C 197.139094 263.403521 193.252375 259.653521 193.252375 255.024615 C 193.252375 250.395709 197.139094 246.645709 201.932063 246.645709 C 206.721125 246.645709 210.607844 250.395709 210.607844 255.024615 Z M 210.607844 255.024615 "
       transform="matrix(1,0,0,1,-104.143,-161.684771)"
       id="path28" />
    <path
       style="fill:none;stroke-width:0.495677;stroke-linecap:butt;stroke-linejoin:miter;stroke:rgb(0%,0%,0%);stroke-opacity:0.986425;stroke-miterlimit:4;"
       d="M 210.045344 228.41524 C 210.045344 233.04024 206.162531 236.794146 201.369563 236.794146 C 196.576594 236.794146 192.689875 233.04024 192.689875 228.41524 C 192.689875 223.786334 196.576594 220.036334 201.369563 220.036334 C 206.162531 220.036334 210.045344 223.786334 210.045344 228.41524 Z M 210.045344 228.41524 "
       transform="matrix(1,0,0,1,-104.143,-161.684771)"
       id="path30" />
    <path
       style="fill:none;stroke-width:0.495677;stroke-linecap:butt;stroke-linejoin:miter;stroke:rgb(0%,0%,0%);stroke-opacity:0.986425;stroke-miterlimit:4;"
       d="M 209.369563 203.262896 C 209.369563 207.891802 205.482844 211.641802 200.689875 211.641802 C 195.900813 211.641802 192.014094 207.891802 192.014094 203.262896 C 192.014094 198.63399 195.900813 194.88399 200.689875 194.88399 C 205.482844 194.88399 209.369563 198.63399 209.369563 203.262896 Z M 209.369563 203.262896 "
       transform="matrix(1,0,0,1,-104.143,-161.684771)"
       id="path32" />
    <path
       style="fill:none;stroke-width:0.75;stroke-linecap:butt;stroke-linejoin:miter;stroke:rgb(0%,0%,0%);stroke-opacity:1;stroke-dasharray:1.5,0.75;stroke-miterlimit:4;"
       d="M 200.264094 185.278521 L 200.264094 194.985552 "
       transform="matrix(1,0,0,1,-104.143,-161.684771)"
       id="path34" />
    <path
       style="fill:none;stroke-width:0.75;stroke-linecap:butt;stroke-linejoin:miter;stroke:rgb(0%,0%,0%);stroke-opacity:1;stroke-dasharray:1.5,0.75;stroke-miterlimit:4;"
       d="M 201.068781 211.661334 L 201.068781 220.231646 "
       transform="matrix(1,0,0,1,-104.143,-161.684771)"
       id="path36" />
    <path
       style="fill:none;stroke-width:0.75;stroke-linecap:butt;stroke-linejoin:miter;stroke:rgb(0%,0%,0%);stroke-opacity:1;stroke-dasharray:1.5,0.75;stroke-miterlimit:4;"
       d="M 201.73675 236.770709 L 201.73675 246.583209 "
       transform="matrix(1,0,0,1,-104.143,-161.684771)"
       id="path38" />
    <path
       style="fill:none;stroke-width:0.495677;stroke-linecap:butt;stroke-linejoin:miter;stroke:rgb(0%,0%,0%);stroke-opacity:0.986425;stroke-miterlimit:4;"
       d="M -247.130084 175.287531 C -247.130084 179.916438 -251.012896 183.666438 -255.805865 183.666438 C -260.598834 183.666438 -264.481646 179.916438 -264.481646 175.287531 C -264.481646 170.658625 -260.598834 166.908625 -255.805865 166.908625 C -251.012896 166.908625 -247.130084 170.658625 -247.130084 175.287531 Z M -247.130084 175.287531 "
       transform="matrix(0,-1,1,0,-104.143,-161.684771)"
       id="path40" />
    <path
       style="fill:none;stroke-width:0.495677;stroke-linecap:butt;stroke-linejoin:miter;stroke:rgb(0%,0%,0%);stroke-opacity:0.986425;stroke-miterlimit:4;"
       d="M -247.805865 150.135188 C -247.805865 154.764094 -251.688677 158.514094 -256.481646 158.514094 C -261.274615 158.514094 -265.161334 154.764094 -265.161334 150.135188 C -265.161334 145.510188 -261.274615 141.756281 -256.481646 141.756281 C -251.688677 141.756281 -247.805865 145.510188 -247.805865 150.135188 Z M -247.805865 150.135188 "
       transform="matrix(0,-1,1,0,-104.143,-161.684771)"
       id="path42" />
    <path
       style="fill:none;stroke-width:0.743341;stroke-linecap:butt;stroke-linejoin:miter;stroke:rgb(0%,0%,0%);stroke-opacity:1;stroke-dasharray:1.486683,0.743341;stroke-miterlimit:4;"
       d="M 132.322688 256.911334 L 141.857844 256.911334 "
       transform="matrix(1,0,0,1,-104.143,-161.684771)"
       id="path44" />
    <path
       style="fill:none;stroke-width:0.75;stroke-linecap:butt;stroke-linejoin:miter;stroke:rgb(0%,0%,0%);stroke-opacity:1;stroke-dasharray:1.5,0.75;stroke-miterlimit:4;"
       d="M 158.533625 256.106646 L 167.103938 256.106646 "
       transform="matrix(1,0,0,1,-104.143,-161.684771)"
       id="path46" />
    <path
       style="fill:none;stroke-width:0.75;stroke-linecap:butt;stroke-linejoin:miter;stroke:rgb(0%,0%,0%);stroke-opacity:1;stroke-dasharray:1.5,0.75;stroke-miterlimit:4;"
       d="M 183.646906 255.438677 L 193.4555 255.438677 "
       transform="matrix(1,0,0,1,-104.143,-161.684771)"
       id="path48" />
    <path
       style="fill:none;stroke-width:0.495677;stroke-linecap:butt;stroke-linejoin:miter;stroke:rgb(0%,0%,0%);stroke-opacity:0.986425;stroke-miterlimit:4;"
       d="M 158.139094 229.450396 C 158.139094 234.079302 154.252375 237.829302 149.459406 237.829302 C 144.670344 237.829302 140.783625 234.079302 140.783625 229.450396 C 140.783625 224.825396 144.670344 221.07149 149.459406 221.07149 C 154.252375 221.07149 158.139094 224.825396 158.139094 229.450396 Z M 158.139094 229.450396 "
       transform="matrix(1,0,0,1,-104.143,-161.684771)"
       id="path50" />
    <path
       style="fill:none;stroke-width:0.495677;stroke-linecap:butt;stroke-linejoin:miter;stroke:rgb(0%,0%,0%);stroke-opacity:0.986425;stroke-miterlimit:4;"
       d="M 157.463313 204.301959 C 157.463313 208.926959 153.576594 212.680865 148.783625 212.680865 C 143.990656 212.680865 140.107844 208.926959 140.107844 204.301959 C 140.107844 199.673052 143.990656 195.923052 148.783625 195.923052 C 153.576594 195.923052 157.463313 199.673052 157.463313 204.301959 Z M 157.463313 204.301959 "
       transform="matrix(1,0,0,1,-104.143,-161.684771)"
       id="path52" />
    <path
       style="fill:none;stroke-width:0.75;stroke-linecap:butt;stroke-linejoin:miter;stroke:rgb(0%,0%,0%);stroke-opacity:1;stroke-dasharray:1.5,0.75;stroke-miterlimit:4;"
       d="M 148.357844 186.313677 L 148.357844 196.024615 "
       transform="matrix(1,0,0,1,-104.143,-161.684771)"
       id="path54" />
    <path
       style="fill:none;stroke-width:0.75;stroke-linecap:butt;stroke-linejoin:miter;stroke:rgb(0%,0%,0%);stroke-opacity:1;stroke-dasharray:1.5,0.75;stroke-miterlimit:4;"
       d="M 149.158625 212.69649 L 149.158625 221.270709 "
       transform="matrix(1,0,0,1,-104.143,-161.684771)"
       id="path56" />
    <path
       style="fill:none;stroke-width:0.75;stroke-linecap:butt;stroke-linejoin:miter;stroke:rgb(0%,0%,0%);stroke-opacity:1;stroke-dasharray:1.5,0.75;stroke-miterlimit:4;"
       d="M 149.8305 237.809771 L 149.8305 247.618365 "
       transform="matrix(1,0,0,1,-104.143,-161.684771)"
       id="path58" />
    <path
       style="fill:none;stroke-width:0.495677;stroke-linecap:butt;stroke-linejoin:miter;stroke:rgb(0%,0%,0%);stroke-opacity:0.986425;stroke-miterlimit:4;"
       d="M 184.021906 229.247271 C 184.021906 233.876177 180.139094 237.630084 175.346125 237.630084 C 170.553156 237.630084 166.670344 233.876177 166.670344 229.247271 C 166.670344 224.622271 170.553156 220.868365 175.346125 220.868365 C 180.139094 220.868365 184.021906 224.622271 184.021906 229.247271 Z M 184.021906 229.247271 "
       transform="matrix(1,0,0,1,-104.143,-161.684771)"
       id="path60" />
    <path
       style="fill:none;stroke-width:0.495677;stroke-linecap:butt;stroke-linejoin:miter;stroke:rgb(0%,0%,0%);stroke-opacity:0.986425;stroke-miterlimit:4;"
       d="M 183.346125 204.098834 C 183.346125 208.72774 179.459406 212.47774 174.670344 212.47774 C 169.877375 212.47774 165.990656 208.72774 165.990656 204.098834 C 165.990656 199.469927 169.877375 195.719927 174.670344 195.719927 C 179.459406 195.719927 183.346125 199.469927 183.346125 204.098834 Z M 183.346125 204.098834 "
       transform="matrix(1,0,0,1,-104.143,-161.684771)"
       id="path62" />
    <path
       style="fill:none;stroke-width:0.75;stroke-linecap:butt;stroke-linejoin:miter;stroke:rgb(0%,0%,0%);stroke-opacity:1;stroke-dasharray:1.5,0.75;stroke-miterlimit:4;"
       d="M 174.240656 186.110552 L 174.240656 195.82149 "
       transform="matrix(1,0,0,1,-104.143,-161.684771)"
       id="path64" />
    <path
       style="fill:none;stroke-width:0.75;stroke-linecap:butt;stroke-linejoin:miter;stroke:rgb(0%,0%,0%);stroke-opacity:1;stroke-dasharray:1.5,0.75;stroke-miterlimit:4;"
       d="M 175.045344 212.497271 L 175.045344 221.067584 "
       transform="matrix(1,0,0,1,-104.143,-161.684771)"
       id="path66" />
    <path
       style="fill:none;stroke-width:0.75;stroke-linecap:butt;stroke-linejoin:miter;stroke:rgb(0%,0%,0%);stroke-opacity:1;stroke-dasharray:1.5,0.75;stroke-miterlimit:4;"
       d="M 175.713313 237.606646 L 175.713313 247.419146 "
       transform="matrix(1,0,0,1,-104.143,-161.684771)"
       id="path68" />
    <path
       style="fill:none;stroke-width:0.722335;stroke-linecap:butt;stroke-linejoin:miter;stroke:rgb(0%,0%,0%);stroke-opacity:1;stroke-dasharray:1.444669,0.722335;stroke-miterlimit:4;"
       d="M 131.357844 204.466021 L 140.36175 204.466021 "
       transform="matrix(1,0,0,1,-104.143,-161.684771)"
       id="path70" />
    <path
       style="fill:none;stroke-width:0.75;stroke-linecap:butt;stroke-linejoin:miter;stroke:rgb(0%,0%,0%);stroke-opacity:1;stroke-dasharray:1.5,0.75;stroke-miterlimit:4;"
       d="M 157.740656 204.66524 L 166.314875 204.66524 "
       transform="matrix(1,0,0,1,-104.143,-161.684771)"
       id="path72" />
    <path
       style="fill:none;stroke-width:0.716383;stroke-linecap:butt;stroke-linejoin:miter;stroke:rgb(0%,0%,0%);stroke-opacity:1;stroke-dasharray:1.432765,0.716383;stroke-miterlimit:4;"
       d="M 183.209406 204.145709 L 192.158625 204.145709 "
       transform="matrix(1,0,0,1,-104.143,-161.684771)"
       id="path74" />
    <path
       style="fill:none;stroke-width:0.75;stroke-linecap:butt;stroke-linejoin:miter;stroke:rgb(0%,0%,0%);stroke-opacity:1;stroke-dasharray:1.5,0.75;stroke-miterlimit:4;"
       d="M 131.916438 229.360552 L 140.728938 229.360552 "
       transform="matrix(1,0,0,1,-104.143,-161.684771)"
       id="path76" />
    <path
       style="fill:none;stroke-width:0.75;stroke-linecap:butt;stroke-linejoin:miter;stroke:rgb(0%,0%,0%);stroke-opacity:1;stroke-dasharray:1.5,0.75;stroke-miterlimit:4;"
       d="M 158.338313 229.169146 L 166.959406 229.169146 "
       transform="matrix(1,0,0,1,-104.143,-161.684771)"
       id="path78" />
    <path
       style="fill:none;stroke-width:0.75;stroke-linecap:butt;stroke-linejoin:miter;stroke:rgb(0%,0%,0%);stroke-opacity:1;stroke-dasharray:1.5,0.75;stroke-miterlimit:4;"
       d="M 184.287531 229.075396 L 192.670344 229.075396 "
       transform="matrix(1,0,0,1,-104.143,-161.684771)"
       id="path80" />
    <path
       style="fill:none;stroke-width:0.835621;stroke-linecap:butt;stroke-linejoin:miter;stroke:rgb(0%,0%,0%);stroke-opacity:0.986425;stroke-miterlimit:4;"
       d="M 139.943781 191.091021 C 139.943781 193.82149 137.709406 196.032427 134.959406 196.032427 C 132.2055 196.032427 129.978938 193.82149 129.978938 191.091021 C 129.978938 188.364459 132.2055 186.153521 134.959406 186.153521 C 137.709406 186.153521 139.943781 188.364459 139.943781 191.091021 Z M 139.943781 191.091021 "
       transform="matrix(1,0,0,1,-104.143,-161.684771)"
       id="path82" />
    <path
       style="fill:none;stroke-width:0.835621;stroke-linecap:butt;stroke-linejoin:miter;stroke:rgb(0%,0%,0%);stroke-opacity:0.986425;stroke-miterlimit:4;"
       d="M 140.451594 216.844927 C 140.451594 219.575396 138.221125 221.786334 135.467219 221.786334 C 132.713313 221.786334 130.482844 219.575396 130.482844 216.844927 C 130.482844 214.118365 132.713313 211.907427 135.467219 211.907427 C 138.221125 211.907427 140.451594 214.118365 140.451594 216.844927 Z M 140.451594 216.844927 "
       transform="matrix(1,0,0,1,-104.143,-161.684771)"
       id="path84" />
    <path
       style="fill:none;stroke-width:0.835621;stroke-linecap:butt;stroke-linejoin:miter;stroke:rgb(0%,0%,0%);stroke-opacity:0.986425;stroke-miterlimit:4;"
       d="M 141.521906 242.895709 C 141.521906 245.622271 139.291438 247.837115 136.537531 247.837115 C 133.787531 247.837115 131.557063 245.622271 131.557063 242.895709 C 131.557063 240.16524 133.787531 237.954302 136.537531 237.954302 C 139.291438 237.954302 141.521906 240.16524 141.521906 242.895709 Z M 141.521906 242.895709 "
       transform="matrix(1,0,0,1,-104.143,-161.684771)"
       id="path86" />
    <path
       style="fill:none;stroke-width:0.835621;stroke-linecap:butt;stroke-linejoin:miter;stroke:rgb(0%,0%,0%);stroke-opacity:0.986425;stroke-miterlimit:4;"
       d="M 166.498469 190.661334 C 166.498469 193.391802 164.271906 195.60274 161.521906 195.60274 C 158.764094 195.60274 156.533625 193.391802 156.533625 190.661334 C 156.533625 187.934771 158.764094 185.723834 161.521906 185.723834 C 164.271906 185.723834 166.498469 187.934771 166.498469 190.661334 Z M 166.498469 190.661334 "
       transform="matrix(1,0,0,1,-104.143,-161.684771)"
       id="path88" />
    <path
       style="fill:none;stroke-width:0.835621;stroke-linecap:butt;stroke-linejoin:miter;stroke:rgb(0%,0%,0%);stroke-opacity:0.986425;stroke-miterlimit:4;"
       d="M 167.971125 216.309771 C 167.971125 219.04024 165.740656 221.251177 162.990656 221.251177 C 160.23675 221.251177 158.006281 219.04024 158.006281 216.309771 C 158.006281 213.583209 160.23675 211.372271 162.990656 211.372271 C 165.740656 211.372271 167.971125 213.583209 167.971125 216.309771 Z M 167.971125 216.309771 "
       transform="matrix(1,0,0,1,-104.143,-161.684771)"
       id="path90" />
    <path
       style="fill:none;stroke-width:0.835621;stroke-linecap:butt;stroke-linejoin:miter;stroke:rgb(0%,0%,0%);stroke-opacity:0.986425;stroke-miterlimit:4;"
       d="M 167.369563 242.091021 C 167.369563 244.82149 165.139094 247.032427 162.385188 247.032427 C 159.635188 247.032427 157.404719 244.82149 157.404719 242.091021 C 157.404719 239.364459 159.635188 237.153521 162.385188 237.153521 C 165.139094 237.153521 167.369563 239.364459 167.369563 242.091021 Z M 167.369563 242.091021 "
       transform="matrix(1,0,0,1,-104.143,-161.684771)"
       id="path92" />
    <path
       style="fill:none;stroke-width:0.835621;stroke-linecap:butt;stroke-linejoin:miter;stroke:rgb(0%,0%,0%);stroke-opacity:0.986425;stroke-miterlimit:4;"
       d="M 192.482844 190.126177 C 192.482844 192.856646 190.252375 195.067584 187.498469 195.067584 C 184.744563 195.067584 182.514094 192.856646 182.514094 190.126177 C 182.514094 187.399615 184.744563 185.188677 187.498469 185.188677 C 190.252375 185.188677 192.482844 187.399615 192.482844 190.126177 Z M 192.482844 190.126177 "
       transform="matrix(1,0,0,1,-104.143,-161.684771)"
       id="path94" />
    <path
       style="fill:none;stroke-width:0.835621;stroke-linecap:butt;stroke-linejoin:miter;stroke:rgb(0%,0%,0%);stroke-opacity:0.986425;stroke-miterlimit:4;"
       d="M 193.353938 216.243365 C 193.353938 218.969927 191.119563 221.184771 188.369563 221.184771 C 185.615656 221.184771 183.385188 218.969927 183.385188 216.243365 C 183.385188 213.516802 185.615656 211.301959 188.369563 211.301959 C 191.119563 211.301959 193.353938 213.516802 193.353938 216.243365 Z M 193.353938 216.243365 "
       transform="matrix(1,0,0,1,-104.143,-161.684771)"
       id="path96" />
    <path
       style="fill:none;stroke-width:0.835621;stroke-linecap:butt;stroke-linejoin:miter;stroke:rgb(0%,0%,0%);stroke-opacity:0.986425;stroke-miterlimit:4;"
       d="M 194.021906 242.294146 C 194.021906 245.020709 191.791438 247.231646 189.037531 247.231646 C 186.287531 247.231646 184.057063 245.020709 184.057063 242.294146 C 184.057063 239.563677 186.287531 237.35274 189.037531 237.35274 C 191.791438 237.35274 194.021906 239.563677 194.021906 242.294146 Z M 194.021906 242.294146 "
       transform="matrix(1,0,0,1,-104.143,-161.684771)"
       id="path98" />
    <path
       style=" stroke:none;fill-rule:nonzero;fill:rgb(0%,0%,0%);fill-opacity:1;"
       d="M 14.550781 18.410156 C 14.085938 19.082031 13.613281 19.226562 13.089844 19.257812 C 12.9375 19.277344 12.824219 19.277344 12.824219 19.46875 C 12.824219 19.53125 12.898438 19.578125 12.992188 19.578125 C 13.3125 19.578125 13.6875 19.546875 14.007812 19.546875 C 14.421875 19.546875 14.835938 19.578125 15.210938 19.578125 C 15.285156 19.578125 15.433594 19.578125 15.433594 19.386719 C 15.433594 19.277344 15.339844 19.257812 15.246094 19.257812 C 14.984375 19.242188 14.683594 19.164062 14.683594 18.90625 C 14.683594 18.78125 14.757812 18.667969 14.851562 18.523438 L 15.773438 17.226562 L 18.777344 17.226562 C 18.796875 17.433594 18.964844 18.828125 18.964844 18.921875 C 18.964844 19.226562 18.347656 19.257812 18.101562 19.257812 C 17.933594 19.257812 17.820312 19.257812 17.820312 19.46875 C 17.820312 19.578125 17.953125 19.578125 17.988281 19.578125 C 18.476562 19.578125 18.984375 19.546875 19.472656 19.546875 C 19.773438 19.546875 20.546875 19.578125 20.84375 19.578125 C 20.898438 19.578125 21.050781 19.578125 21.050781 19.371094 C 21.050781 19.257812 20.9375 19.257812 20.769531 19.257812 C 20.035156 19.257812 20.035156 19.195312 20.003906 18.890625 L 19.265625 12.519531 C 19.246094 12.3125 19.246094 12.265625 19.039062 12.265625 C 18.851562 12.265625 18.796875 12.34375 18.722656 12.441406 Z M 16.003906 16.90625 L 18.347656 13.53125 L 18.738281 16.90625 Z M 16.003906 16.90625 "
       id="path100" />
    <path
       style=" stroke:none;fill-rule:nonzero;fill:rgb(0%,0%,0%);fill-opacity:1;"
       d="M 15.710938 44.613281 C 15.238281 45.285156 14.769531 45.429688 14.246094 45.460938 C 14.09375 45.480469 13.980469 45.480469 13.980469 45.671875 C 13.980469 45.734375 14.054688 45.78125 14.148438 45.78125 C 14.46875 45.78125 14.84375 45.75 15.164062 45.75 C 15.578125 45.75 15.992188 45.78125 16.367188 45.78125 C 16.441406 45.78125 16.589844 45.78125 16.589844 45.589844 C 16.589844 45.480469 16.496094 45.460938 16.402344 45.460938 C 16.140625 45.445312 15.839844 45.367188 15.839844 45.109375 C 15.839844 44.984375 15.914062 44.871094 16.007812 44.726562 L 16.929688 43.429688 L 19.933594 43.429688 C 19.953125 43.636719 20.121094 45.03125 20.121094 45.125 C 20.121094 45.429688 19.503906 45.460938 19.257812 45.460938 C 19.089844 45.460938 18.976562 45.460938 18.976562 45.671875 C 18.976562 45.78125 19.109375 45.78125 19.144531 45.78125 C 19.632812 45.78125 20.140625 45.75 20.628906 45.75 C 20.929688 45.75 21.699219 45.78125 22.003906 45.78125 C 22.054688 45.78125 22.210938 45.78125 22.210938 45.574219 C 22.210938 45.460938 22.09375 45.460938 21.925781 45.460938 C 21.191406 45.460938 21.191406 45.398438 21.15625 45.09375 L 20.421875 38.722656 C 20.402344 38.515625 20.402344 38.46875 20.195312 38.46875 C 20.007812 38.46875 19.953125 38.546875 19.878906 38.644531 Z M 17.15625 43.109375 L 19.503906 39.734375 L 19.894531 43.109375 Z M 17.15625 43.109375 "
       id="path102" />
    <path
       style=" stroke:none;fill-rule:nonzero;fill:rgb(0%,0%,0%);fill-opacity:1;"
       d="M 16.675781 70.234375 C 16.210938 70.90625 15.738281 71.050781 15.214844 71.082031 C 15.0625 71.097656 14.949219 71.097656 14.949219 71.292969 C 14.949219 71.355469 15.023438 71.402344 15.117188 71.402344 C 15.4375 71.402344 15.8125 71.371094 16.132812 71.371094 C 16.546875 71.371094 16.960938 71.402344 17.335938 71.402344 C 17.410156 71.402344 17.558594 71.402344 17.558594 71.210938 C 17.558594 71.097656 17.464844 71.082031 17.371094 71.082031 C 17.109375 71.066406 16.808594 70.988281 16.808594 70.730469 C 16.808594 70.601562 16.882812 70.492188 16.976562 70.347656 L 17.898438 69.050781 L 20.902344 69.050781 C 20.921875 69.257812 21.089844 70.652344 21.089844 70.746094 C 21.089844 71.050781 20.472656 71.082031 20.226562 71.082031 C 20.058594 71.082031 19.945312 71.082031 19.945312 71.292969 C 19.945312 71.402344 20.078125 71.402344 20.113281 71.402344 C 20.601562 71.402344 21.109375 71.371094 21.597656 71.371094 C 21.898438 71.371094 22.671875 71.402344 22.96875 71.402344 C 23.023438 71.402344 23.175781 71.402344 23.175781 71.195312 C 23.175781 71.082031 23.0625 71.082031 22.894531 71.082031 C 22.160156 71.082031 22.160156 71.019531 22.128906 70.714844 L 21.390625 64.34375 C 21.371094 64.136719 21.371094 64.089844 21.164062 64.089844 C 20.976562 64.089844 20.921875 64.167969 20.847656 64.265625 Z M 18.128906 68.730469 L 20.472656 65.351562 L 20.863281 68.730469 Z M 18.128906 68.730469 "
       id="path104" />
    <path
       style=" stroke:none;fill-rule:nonzero;fill:rgb(0%,0%,0%);fill-opacity:1;"
       d="M 16.976562 96.1875 C 16.503906 96.863281 16.035156 97.003906 15.511719 97.039062 C 15.359375 97.054688 15.246094 97.054688 15.246094 97.246094 C 15.246094 97.308594 15.324219 97.359375 15.421875 97.359375 C 15.734375 97.359375 16.113281 97.324219 16.429688 97.324219 C 16.84375 97.324219 17.257812 97.359375 17.632812 97.359375 C 17.710938 97.359375 17.859375 97.359375 17.859375 97.164062 C 17.859375 97.054688 17.765625 97.039062 17.671875 97.039062 C 17.40625 97.023438 17.105469 96.941406 17.105469 96.683594 C 17.105469 96.558594 17.183594 96.445312 17.277344 96.300781 L 18.195312 95.003906 L 21.199219 95.003906 C 21.21875 95.214844 21.386719 96.605469 21.386719 96.703125 C 21.386719 97.003906 20.769531 97.039062 20.523438 97.039062 C 20.355469 97.039062 20.242188 97.039062 20.242188 97.246094 C 20.242188 97.359375 20.378906 97.359375 20.410156 97.359375 C 20.898438 97.359375 21.40625 97.324219 21.894531 97.324219 C 22.195312 97.324219 22.964844 97.359375 23.265625 97.359375 C 23.320312 97.359375 23.472656 97.359375 23.472656 97.148438 C 23.472656 97.039062 23.359375 97.039062 23.191406 97.039062 C 22.460938 97.039062 22.460938 96.972656 22.421875 96.667969 L 21.6875 90.300781 C 21.671875 90.089844 21.671875 90.042969 21.464844 90.042969 C 21.277344 90.042969 21.21875 90.125 21.144531 90.21875 Z M 18.421875 94.683594 L 20.769531 91.308594 L 21.164062 94.683594 Z M 18.421875 94.683594 "
       id="path106" />
    <path
       style=" stroke:none;fill-rule:nonzero;fill:rgb(0%,0%,0%);fill-opacity:1;"
       d="M 41.027344 18.140625 C 40.558594 18.8125 40.085938 18.957031 39.5625 18.988281 C 39.410156 19.003906 39.296875 19.003906 39.296875 19.195312 C 39.296875 19.261719 39.378906 19.308594 39.46875 19.308594 C 39.785156 19.308594 40.164062 19.277344 40.480469 19.277344 C 40.894531 19.277344 41.308594 19.308594 41.683594 19.308594 C 41.757812 19.308594 41.910156 19.308594 41.910156 19.117188 C 41.910156 19.003906 41.816406 18.988281 41.722656 18.988281 C 41.460938 18.972656 41.15625 18.890625 41.15625 18.636719 C 41.15625 18.507812 41.234375 18.394531 41.328125 18.253906 L 42.246094 16.957031 L 45.253906 16.957031 C 45.269531 17.164062 45.4375 18.554688 45.4375 18.652344 C 45.4375 18.957031 44.820312 18.988281 44.574219 18.988281 C 44.40625 18.988281 44.296875 18.988281 44.296875 19.195312 C 44.296875 19.308594 44.425781 19.308594 44.460938 19.308594 C 44.949219 19.308594 45.460938 19.277344 45.945312 19.277344 C 46.246094 19.277344 47.015625 19.308594 47.316406 19.308594 C 47.378906 19.308594 47.523438 19.308594 47.523438 19.101562 C 47.523438 18.988281 47.410156 18.988281 47.242188 18.988281 C 46.507812 18.988281 46.507812 18.925781 46.472656 18.621094 L 45.738281 12.25 C 45.722656 12.042969 45.722656 11.996094 45.515625 11.996094 C 45.328125 11.996094 45.269531 12.074219 45.195312 12.171875 Z M 42.472656 16.636719 L 44.820312 13.257812 L 45.214844 16.636719 Z M 42.472656 16.636719 "
       id="path108" />
    <path
       style=" stroke:none;fill-rule:nonzero;fill:rgb(0%,0%,0%);fill-opacity:1;"
       d="M 41.535156 44.546875 C 41.066406 45.21875 40.597656 45.363281 40.070312 45.394531 C 39.921875 45.410156 39.808594 45.410156 39.808594 45.601562 C 39.808594 45.667969 39.882812 45.714844 39.976562 45.714844 C 40.296875 45.714844 40.671875 45.683594 40.992188 45.683594 C 41.40625 45.683594 41.820312 45.714844 42.195312 45.714844 C 42.269531 45.714844 42.421875 45.714844 42.421875 45.523438 C 42.421875 45.410156 42.324219 45.394531 42.230469 45.394531 C 41.96875 45.378906 41.671875 45.300781 41.671875 45.042969 C 41.671875 44.914062 41.742188 44.804688 41.835938 44.660156 L 42.757812 43.363281 L 45.761719 43.363281 C 45.78125 43.570312 45.949219 44.964844 45.949219 45.058594 C 45.949219 45.363281 45.328125 45.394531 45.085938 45.394531 C 44.921875 45.394531 44.804688 45.394531 44.804688 45.601562 C 44.804688 45.714844 44.9375 45.714844 44.972656 45.714844 C 45.460938 45.714844 45.96875 45.683594 46.460938 45.683594 C 46.757812 45.683594 47.527344 45.714844 47.828125 45.714844 C 47.882812 45.714844 48.035156 45.714844 48.035156 45.507812 C 48.035156 45.394531 47.921875 45.394531 47.753906 45.394531 C 47.019531 45.394531 47.019531 45.332031 46.984375 45.027344 L 46.253906 38.65625 C 46.230469 38.449219 46.230469 38.402344 46.023438 38.402344 C 45.835938 38.402344 45.78125 38.480469 45.710938 38.578125 Z M 42.984375 43.042969 L 45.328125 39.664062 L 45.722656 43.042969 Z M 42.984375 43.042969 "
       id="path110" />
    <path
       style=" stroke:none;fill-rule:nonzero;fill:rgb(0%,0%,0%);fill-opacity:1;"
       d="M 42.058594 69.878906 C 41.589844 70.550781 41.117188 70.695312 40.59375 70.726562 C 40.441406 70.742188 40.335938 70.742188 40.335938 70.9375 C 40.335938 71 40.40625 71.046875 40.503906 71.046875 C 40.820312 71.046875 41.195312 71.015625 41.511719 71.015625 C 41.925781 71.015625 42.339844 71.046875 42.714844 71.046875 C 42.789062 71.046875 42.941406 71.046875 42.941406 70.855469 C 42.941406 70.742188 42.847656 70.726562 42.753906 70.726562 C 42.488281 70.710938 42.1875 70.632812 42.1875 70.375 C 42.1875 70.246094 42.265625 70.136719 42.359375 69.992188 L 43.277344 68.695312 L 46.28125 68.695312 C 46.300781 68.902344 46.46875 70.296875 46.46875 70.390625 C 46.46875 70.695312 45.851562 70.726562 45.605469 70.726562 C 45.4375 70.726562 45.324219 70.726562 45.324219 70.9375 C 45.324219 71.046875 45.460938 71.046875 45.496094 71.046875 C 45.980469 71.046875 46.488281 71.015625 46.976562 71.015625 C 47.277344 71.015625 48.046875 71.046875 48.347656 71.046875 C 48.40625 71.046875 48.554688 71.046875 48.554688 70.839844 C 48.554688 70.726562 48.441406 70.726562 48.273438 70.726562 C 47.539062 70.726562 47.539062 70.664062 47.503906 70.359375 L 46.769531 63.988281 C 46.753906 63.78125 46.753906 63.734375 46.546875 63.734375 C 46.359375 63.734375 46.300781 63.8125 46.226562 63.910156 Z M 43.503906 68.375 L 45.851562 65 L 46.246094 68.375 Z M 43.503906 68.375 "
       id="path112" />
    <path
       style=" stroke:none;fill-rule:nonzero;fill:rgb(0%,0%,0%);fill-opacity:1;"
       d="M 42.960938 97.105469 C 42.488281 97.777344 42.019531 97.921875 41.492188 97.953125 C 41.34375 97.96875 41.230469 97.96875 41.230469 98.164062 C 41.230469 98.226562 41.304688 98.273438 41.398438 98.273438 C 41.71875 98.273438 42.09375 98.242188 42.414062 98.242188 C 42.824219 98.242188 43.238281 98.273438 43.613281 98.273438 C 43.691406 98.273438 43.839844 98.273438 43.839844 98.082031 C 43.839844 97.96875 43.746094 97.953125 43.652344 97.953125 C 43.390625 97.9375 43.089844 97.859375 43.089844 97.601562 C 43.089844 97.472656 43.164062 97.363281 43.257812 97.21875 L 44.179688 95.921875 L 47.183594 95.921875 C 47.203125 96.128906 47.371094 97.523438 47.371094 97.617188 C 47.371094 97.921875 46.753906 97.953125 46.507812 97.953125 C 46.335938 97.953125 46.226562 97.953125 46.226562 98.164062 C 46.226562 98.273438 46.355469 98.273438 46.394531 98.273438 C 46.882812 98.273438 47.390625 98.242188 47.878906 98.242188 C 48.179688 98.242188 48.949219 98.273438 49.253906 98.273438 C 49.304688 98.273438 49.453125 98.273438 49.453125 98.066406 C 49.453125 97.953125 49.34375 97.953125 49.171875 97.953125 C 48.441406 97.953125 48.441406 97.890625 48.402344 97.585938 L 47.671875 91.214844 C 47.652344 91.007812 47.652344 90.960938 47.445312 90.960938 C 47.257812 90.960938 47.203125 91.039062 47.128906 91.136719 Z M 44.402344 95.601562 L 46.753906 92.226562 L 47.144531 95.601562 Z M 44.402344 95.601562 "
       id="path114" />
    <path
       style=" stroke:none;fill-rule:nonzero;fill:rgb(0%,0%,0%);fill-opacity:1;"
       d="M 67.816406 96.632812 C 67.347656 97.304688 66.878906 97.449219 66.351562 97.480469 C 66.203125 97.496094 66.089844 97.496094 66.089844 97.6875 C 66.089844 97.753906 66.164062 97.800781 66.257812 97.800781 C 66.578125 97.800781 66.953125 97.769531 67.273438 97.769531 C 67.683594 97.769531 68.097656 97.800781 68.472656 97.800781 C 68.550781 97.800781 68.699219 97.800781 68.699219 97.609375 C 68.699219 97.496094 68.605469 97.480469 68.511719 97.480469 C 68.253906 97.464844 67.949219 97.386719 67.949219 97.128906 C 67.949219 97 68.023438 96.890625 68.117188 96.746094 L 69.039062 95.449219 L 72.046875 95.449219 C 72.058594 95.65625 72.230469 97.050781 72.230469 97.144531 C 72.230469 97.449219 71.609375 97.480469 71.367188 97.480469 C 71.195312 97.480469 71.085938 97.480469 71.085938 97.6875 C 71.085938 97.800781 71.214844 97.800781 71.253906 97.800781 C 71.742188 97.800781 72.253906 97.769531 72.738281 97.769531 C 73.035156 97.769531 73.808594 97.800781 74.105469 97.800781 C 74.164062 97.800781 74.3125 97.800781 74.3125 97.59375 C 74.3125 97.480469 74.203125 97.480469 74.03125 97.480469 C 73.300781 97.480469 73.300781 97.417969 73.261719 97.113281 L 72.53125 90.742188 C 72.511719 90.535156 72.511719 90.488281 72.304688 90.488281 C 72.117188 90.488281 72.058594 90.566406 71.984375 90.664062 Z M 69.261719 95.128906 L 71.609375 91.75 L 72.003906 95.128906 Z M 69.261719 95.128906 "
       id="path116" />
    <path
       style=" stroke:none;fill-rule:nonzero;fill:rgb(0%,0%,0%);fill-opacity:1;"
       d="M 95.183594 95.164062 C 94.714844 95.835938 94.246094 95.980469 93.722656 96.011719 C 93.570312 96.027344 93.460938 96.027344 93.460938 96.222656 C 93.460938 96.285156 93.53125 96.332031 93.628906 96.332031 C 93.945312 96.332031 94.320312 96.300781 94.640625 96.300781 C 95.054688 96.300781 95.46875 96.332031 95.84375 96.332031 C 95.921875 96.332031 96.066406 96.332031 96.066406 96.140625 C 96.066406 96.027344 95.972656 96.011719 95.878906 96.011719 C 95.617188 95.996094 95.316406 95.917969 95.316406 95.660156 C 95.316406 95.53125 95.390625 95.421875 95.484375 95.277344 L 96.40625 93.980469 L 99.410156 93.980469 C 99.429688 94.1875 99.597656 95.582031 99.597656 95.675781 C 99.597656 95.980469 98.980469 96.011719 98.734375 96.011719 C 98.566406 96.011719 98.453125 96.011719 98.453125 96.222656 C 98.453125 96.332031 98.585938 96.332031 98.621094 96.332031 C 99.109375 96.332031 99.617188 96.300781 100.105469 96.300781 C 100.40625 96.300781 101.175781 96.332031 101.476562 96.332031 C 101.53125 96.332031 101.683594 96.332031 101.683594 96.125 C 101.683594 96.011719 101.570312 96.011719 101.402344 96.011719 C 100.671875 96.011719 100.671875 95.949219 100.632812 95.644531 L 99.898438 89.273438 C 99.878906 89.066406 99.878906 89.019531 99.671875 89.019531 C 99.484375 89.019531 99.429688 89.097656 99.355469 89.195312 Z M 96.632812 93.660156 L 98.980469 90.285156 L 99.371094 93.660156 Z M 96.632812 93.660156 "
       id="path118" />
    <path
       style=" stroke:none;fill-rule:nonzero;fill:rgb(0%,0%,0%);fill-opacity:1;"
       d="M 94.476562 68.933594 C 94.003906 69.605469 93.535156 69.75 93.011719 69.78125 C 92.859375 69.796875 92.746094 69.796875 92.746094 69.988281 C 92.746094 70.054688 92.824219 70.101562 92.921875 70.101562 C 93.234375 70.101562 93.613281 70.070312 93.929688 70.070312 C 94.34375 70.070312 94.757812 70.101562 95.132812 70.101562 C 95.210938 70.101562 95.359375 70.101562 95.359375 69.910156 C 95.359375 69.796875 95.265625 69.78125 95.171875 69.78125 C 94.90625 69.765625 94.605469 69.683594 94.605469 69.429688 C 94.605469 69.300781 94.683594 69.1875 94.777344 69.042969 L 95.695312 67.75 L 98.699219 67.75 C 98.71875 67.957031 98.886719 69.347656 98.886719 69.445312 C 98.886719 69.75 98.269531 69.78125 98.023438 69.78125 C 97.855469 69.78125 97.742188 69.78125 97.742188 69.988281 C 97.742188 70.101562 97.878906 70.101562 97.910156 70.101562 C 98.398438 70.101562 98.90625 70.070312 99.394531 70.070312 C 99.695312 70.070312 100.464844 70.101562 100.765625 70.101562 C 100.820312 70.101562 100.972656 70.101562 100.972656 69.894531 C 100.972656 69.78125 100.859375 69.78125 100.691406 69.78125 C 99.960938 69.78125 99.960938 69.71875 99.921875 69.414062 L 99.1875 63.042969 C 99.171875 62.835938 99.171875 62.785156 98.964844 62.785156 C 98.777344 62.785156 98.71875 62.867188 98.644531 62.960938 Z M 95.921875 67.429688 L 98.269531 64.050781 L 98.664062 67.429688 Z M 95.921875 67.429688 "
       id="path120" />
    <path
       style=" stroke:none;fill-rule:nonzero;fill:rgb(0%,0%,0%);fill-opacity:1;"
       d="M 67.722656 69.785156 C 67.253906 70.457031 66.78125 70.601562 66.257812 70.632812 C 66.105469 70.648438 65.996094 70.648438 65.996094 70.839844 C 65.996094 70.90625 66.070312 70.953125 66.164062 70.953125 C 66.484375 70.953125 66.859375 70.921875 67.175781 70.921875 C 67.589844 70.921875 68.003906 70.953125 68.378906 70.953125 C 68.453125 70.953125 68.605469 70.953125 68.605469 70.761719 C 68.605469 70.648438 68.511719 70.632812 68.421875 70.632812 C 68.152344 70.617188 67.851562 70.539062 67.851562 70.28125 C 67.851562 70.152344 67.929688 70.039062 68.023438 69.898438 L 68.941406 68.601562 L 71.945312 68.601562 C 71.964844 68.808594 72.136719 70.199219 72.136719 70.296875 C 72.136719 70.601562 71.515625 70.632812 71.269531 70.632812 C 71.101562 70.632812 70.988281 70.632812 70.988281 70.839844 C 70.988281 70.953125 71.121094 70.953125 71.160156 70.953125 C 71.648438 70.953125 72.152344 70.921875 72.640625 70.921875 C 72.941406 70.921875 73.710938 70.953125 74.011719 70.953125 C 74.070312 70.953125 74.21875 70.953125 74.21875 70.746094 C 74.21875 70.632812 74.105469 70.632812 73.9375 70.632812 C 73.210938 70.632812 73.210938 70.570312 73.171875 70.265625 L 72.433594 63.894531 C 72.421875 63.6875 72.421875 63.640625 72.210938 63.640625 C 72.023438 63.640625 71.964844 63.71875 71.890625 63.816406 Z M 69.171875 68.28125 L 71.515625 64.902344 L 71.910156 68.28125 Z M 69.171875 68.28125 "
       id="path122" />
    <path
       style=" stroke:none;fill-rule:nonzero;fill:rgb(0%,0%,0%);fill-opacity:1;"
       d="M 67.253906 43.929688 C 66.777344 44.605469 66.308594 44.746094 65.785156 44.78125 C 65.632812 44.796875 65.519531 44.796875 65.519531 44.988281 C 65.519531 45.050781 65.597656 45.101562 65.691406 45.101562 C 66.007812 45.101562 66.382812 45.066406 66.703125 45.066406 C 67.117188 45.066406 67.53125 45.101562 67.90625 45.101562 C 67.980469 45.101562 68.132812 45.101562 68.132812 44.90625 C 68.132812 44.796875 68.039062 44.78125 67.941406 44.78125 C 67.679688 44.761719 67.378906 44.683594 67.378906 44.425781 C 67.378906 44.300781 67.453125 44.1875 67.550781 44.042969 L 68.46875 42.746094 L 71.472656 42.746094 C 71.492188 42.953125 71.660156 44.347656 71.660156 44.445312 C 71.660156 44.746094 71.046875 44.78125 70.796875 44.78125 C 70.628906 44.78125 70.515625 44.78125 70.515625 44.988281 C 70.515625 45.101562 70.648438 45.101562 70.683594 45.101562 C 71.171875 45.101562 71.679688 45.066406 72.171875 45.066406 C 72.46875 45.066406 73.238281 45.101562 73.539062 45.101562 C 73.59375 45.101562 73.746094 45.101562 73.746094 44.890625 C 73.746094 44.78125 73.632812 44.78125 73.464844 44.78125 C 72.730469 44.78125 72.730469 44.714844 72.695312 44.410156 L 71.960938 38.042969 C 71.941406 37.832031 71.941406 37.785156 71.738281 37.785156 C 71.546875 37.785156 71.492188 37.867188 71.421875 37.960938 Z M 68.695312 42.425781 L 71.046875 39.050781 L 71.4375 42.425781 Z M 68.695312 42.425781 "
       id="path124" />
    <path
       style=" stroke:none;fill-rule:nonzero;fill:rgb(0%,0%,0%);fill-opacity:1;"
       d="M 93.621094 43.742188 C 93.152344 44.414062 92.683594 44.558594 92.160156 44.589844 C 92.007812 44.605469 91.894531 44.605469 91.894531 44.796875 C 91.894531 44.863281 91.96875 44.910156 92.0625 44.910156 C 92.382812 44.910156 92.757812 44.878906 93.078125 44.878906 C 93.492188 44.878906 93.90625 44.910156 94.28125 44.910156 C 94.355469 44.910156 94.503906 44.910156 94.503906 44.71875 C 94.503906 44.605469 94.410156 44.589844 94.316406 44.589844 C 94.054688 44.574219 93.753906 44.496094 93.753906 44.238281 C 93.753906 44.109375 93.828125 43.996094 93.921875 43.855469 L 94.84375 42.558594 L 97.847656 42.558594 C 97.867188 42.765625 98.035156 44.15625 98.035156 44.253906 C 98.035156 44.558594 97.421875 44.589844 97.171875 44.589844 C 97.003906 44.589844 96.890625 44.589844 96.890625 44.796875 C 96.890625 44.910156 97.023438 44.910156 97.058594 44.910156 C 97.546875 44.910156 98.054688 44.878906 98.546875 44.878906 C 98.84375 44.878906 99.613281 44.910156 99.914062 44.910156 C 99.96875 44.910156 100.121094 44.910156 100.121094 44.703125 C 100.121094 44.589844 100.007812 44.589844 99.839844 44.589844 C 99.105469 44.589844 99.105469 44.527344 99.070312 44.222656 L 98.335938 37.851562 C 98.316406 37.644531 98.316406 37.597656 98.109375 37.597656 C 97.921875 37.597656 97.867188 37.675781 97.796875 37.773438 Z M 95.070312 42.238281 L 97.421875 38.859375 L 97.808594 42.238281 Z M 95.070312 42.238281 "
       id="path126" />
    <path
       style=" stroke:none;fill-rule:nonzero;fill:rgb(0%,0%,0%);fill-opacity:1;"
       d="M 66.015625 17.367188 C 65.546875 18.039062 65.078125 18.183594 64.550781 18.214844 C 64.402344 18.230469 64.289062 18.230469 64.289062 18.421875 C 64.289062 18.488281 64.363281 18.535156 64.460938 18.535156 C 64.777344 18.535156 65.152344 18.503906 65.472656 18.503906 C 65.886719 18.503906 66.300781 18.535156 66.675781 18.535156 C 66.753906 18.535156 66.898438 18.535156 66.898438 18.34375 C 66.898438 18.230469 66.804688 18.214844 66.710938 18.214844 C 66.449219 18.199219 66.148438 18.121094 66.148438 17.863281 C 66.148438 17.734375 66.222656 17.625 66.316406 17.480469 L 67.238281 16.183594 L 70.242188 16.183594 C 70.261719 16.390625 70.429688 17.785156 70.429688 17.878906 C 70.429688 18.183594 69.808594 18.214844 69.566406 18.214844 C 69.398438 18.214844 69.285156 18.214844 69.285156 18.421875 C 69.285156 18.535156 69.421875 18.535156 69.453125 18.535156 C 69.941406 18.535156 70.449219 18.503906 70.9375 18.503906 C 71.238281 18.503906 72.007812 18.535156 72.308594 18.535156 C 72.363281 18.535156 72.515625 18.535156 72.515625 18.328125 C 72.515625 18.214844 72.402344 18.214844 72.234375 18.214844 C 71.503906 18.214844 71.503906 18.152344 71.464844 17.847656 L 70.730469 11.476562 C 70.710938 11.269531 70.710938 11.222656 70.503906 11.222656 C 70.316406 11.222656 70.261719 11.300781 70.1875 11.398438 Z M 67.464844 15.863281 L 69.808594 12.484375 L 70.203125 15.863281 Z M 67.464844 15.863281 "
       id="path128" />
    <path
       style=" stroke:none;fill-rule:nonzero;fill:rgb(0%,0%,0%);fill-opacity:1;"
       d="M 93.148438 17.082031 C 92.679688 17.753906 92.210938 17.898438 91.683594 17.929688 C 91.535156 17.949219 91.421875 17.949219 91.421875 18.140625 C 91.421875 18.203125 91.496094 18.25 91.589844 18.25 C 91.910156 18.25 92.285156 18.21875 92.605469 18.21875 C 93.019531 18.21875 93.429688 18.25 93.804688 18.25 C 93.882812 18.25 94.03125 18.25 94.03125 18.058594 C 94.03125 17.949219 93.9375 17.929688 93.84375 17.929688 C 93.585938 17.914062 93.28125 17.835938 93.28125 17.578125 C 93.28125 17.453125 93.355469 17.339844 93.449219 17.195312 L 94.371094 15.898438 L 97.378906 15.898438 C 97.394531 16.105469 97.5625 17.5 97.5625 17.59375 C 97.5625 17.898438 96.941406 17.929688 96.699219 17.929688 C 96.53125 17.929688 96.421875 17.929688 96.421875 18.140625 C 96.421875 18.25 96.546875 18.25 96.585938 18.25 C 97.074219 18.25 97.585938 18.21875 98.070312 18.21875 C 98.371094 18.21875 99.140625 18.25 99.441406 18.25 C 99.496094 18.25 99.648438 18.25 99.648438 18.042969 C 99.648438 17.929688 99.535156 17.929688 99.363281 17.929688 C 98.632812 17.929688 98.632812 17.867188 98.59375 17.5625 L 97.863281 11.195312 C 97.84375 10.984375 97.84375 10.9375 97.636719 10.9375 C 97.449219 10.9375 97.394531 11.015625 97.316406 11.113281 Z M 94.59375 15.578125 L 96.941406 12.203125 L 97.335938 15.578125 Z M 94.59375 15.578125 "
       id="path130" />
    <path
       style=" stroke:none;fill-rule:nonzero;fill:rgb(0%,0%,0%);fill-opacity:1;"
       d="M 82.015625 29.949219 C 81.960938 30.1875 81.945312 30.234375 81.496094 30.234375 C 81.398438 30.234375 81.34375 30.234375 81.34375 30.359375 C 81.34375 30.425781 81.398438 30.425781 81.496094 30.425781 L 83.535156 30.425781 C 84.4375 30.425781 85.109375 29.710938 85.109375 29.109375 C 85.109375 28.671875 84.777344 28.320312 84.222656 28.25 C 84.8125 28.136719 85.410156 27.6875 85.410156 27.109375 C 85.410156 26.660156 85.035156 26.269531 84.355469 26.269531 L 82.433594 26.269531 C 82.328125 26.269531 82.273438 26.269531 82.273438 26.390625 C 82.273438 26.460938 82.328125 26.460938 82.433594 26.460938 C 82.445312 26.460938 82.550781 26.460938 82.648438 26.46875 C 82.753906 26.488281 82.800781 26.488281 82.800781 26.574219 C 82.800781 26.59375 82.796875 26.613281 82.785156 26.6875 Z M 82.878906 28.195312 L 83.230469 26.6875 C 83.285156 26.476562 83.296875 26.460938 83.535156 26.460938 L 84.277344 26.460938 C 84.777344 26.460938 84.894531 26.820312 84.894531 27.089844 C 84.894531 27.621094 84.402344 28.195312 83.714844 28.195312 Z M 82.628906 30.234375 C 82.546875 30.234375 82.535156 30.234375 82.496094 30.234375 C 82.433594 30.226562 82.421875 30.214844 82.421875 30.167969 C 82.421875 30.148438 82.421875 30.140625 82.453125 30.035156 L 82.847656 28.335938 L 83.921875 28.335938 C 84.464844 28.335938 84.585938 28.785156 84.585938 29.042969 C 84.585938 29.644531 84.070312 30.234375 83.390625 30.234375 Z M 82.628906 30.234375 "
       id="path132" />
    <path
       style=" stroke:none;fill-rule:nonzero;fill:rgb(0%,0%,0%);fill-opacity:1;"
       d="M 82.976562 55.949219 C 82.921875 56.1875 82.902344 56.238281 82.460938 56.238281 C 82.359375 56.238281 82.304688 56.238281 82.304688 56.359375 C 82.304688 56.425781 82.359375 56.425781 82.460938 56.425781 L 84.496094 56.425781 C 85.398438 56.425781 86.066406 55.710938 86.066406 55.113281 C 86.066406 54.671875 85.738281 54.320312 85.183594 54.253906 C 85.773438 54.140625 86.371094 53.691406 86.371094 53.109375 C 86.371094 52.660156 85.996094 52.269531 85.316406 52.269531 L 83.394531 52.269531 C 83.289062 52.269531 83.234375 52.269531 83.234375 52.394531 C 83.234375 52.460938 83.289062 52.460938 83.394531 52.460938 C 83.402344 52.460938 83.511719 52.460938 83.609375 52.472656 C 83.710938 52.488281 83.761719 52.488281 83.761719 52.574219 C 83.761719 52.59375 83.753906 52.613281 83.742188 52.691406 Z M 83.835938 54.195312 L 84.191406 52.691406 C 84.246094 52.480469 84.253906 52.460938 84.496094 52.460938 L 85.238281 52.460938 C 85.738281 52.460938 85.851562 52.824219 85.851562 53.089844 C 85.851562 53.625 85.363281 54.195312 84.671875 54.195312 Z M 83.585938 56.238281 C 83.503906 56.238281 83.492188 56.238281 83.460938 56.238281 C 83.394531 56.226562 83.378906 56.21875 83.378906 56.171875 C 83.378906 56.152344 83.378906 56.140625 83.414062 56.035156 L 83.804688 54.339844 L 84.878906 54.339844 C 85.425781 54.339844 85.539062 54.789062 85.539062 55.046875 C 85.539062 55.644531 85.03125 56.238281 84.351562 56.238281 Z M 83.585938 56.238281 "
       id="path134" />
    <path
       style=" stroke:none;fill-rule:nonzero;fill:rgb(0%,0%,0%);fill-opacity:1;"
       d="M 83.589844 82.15625 C 83.535156 82.394531 83.515625 82.441406 83.070312 82.441406 C 82.972656 82.441406 82.921875 82.441406 82.921875 82.566406 C 82.921875 82.632812 82.972656 82.632812 83.070312 82.632812 L 85.109375 82.632812 C 86.011719 82.632812 86.679688 81.917969 86.679688 81.316406 C 86.679688 80.878906 86.351562 80.527344 85.796875 80.460938 C 86.386719 80.34375 86.984375 79.898438 86.984375 79.316406 C 86.984375 78.867188 86.609375 78.476562 85.929688 78.476562 L 84.007812 78.476562 C 83.902344 78.476562 83.847656 78.476562 83.847656 78.601562 C 83.847656 78.667969 83.902344 78.667969 84.007812 78.667969 C 84.015625 78.667969 84.128906 78.667969 84.222656 78.675781 C 84.320312 78.695312 84.378906 78.695312 84.378906 78.78125 C 84.378906 78.800781 84.367188 78.820312 84.355469 78.894531 Z M 84.445312 80.402344 L 84.804688 78.894531 C 84.855469 78.6875 84.867188 78.667969 85.109375 78.667969 L 85.847656 78.667969 C 86.351562 78.667969 86.464844 79.027344 86.464844 79.296875 C 86.464844 79.828125 85.976562 80.402344 85.285156 80.402344 Z M 84.195312 82.441406 C 84.117188 82.441406 84.105469 82.441406 84.070312 82.441406 C 84.007812 82.433594 83.992188 82.421875 83.992188 82.375 C 83.992188 82.355469 83.992188 82.347656 84.027344 82.242188 L 84.421875 80.542969 L 85.492188 80.542969 C 86.039062 80.542969 86.152344 80.992188 86.152344 81.25 C 86.152344 81.851562 85.644531 82.441406 84.964844 82.441406 Z M 84.195312 82.441406 "
       id="path136" />
    <path
       style=" stroke:none;fill-rule:nonzero;fill:rgb(0%,0%,0%);fill-opacity:1;"
       d="M 56.550781 82.039062 C 56.496094 82.277344 56.480469 82.324219 56.03125 82.324219 C 55.933594 82.324219 55.878906 82.324219 55.878906 82.449219 C 55.878906 82.515625 55.933594 82.515625 56.03125 82.515625 L 58.070312 82.515625 C 58.972656 82.515625 59.644531 81.800781 59.644531 81.199219 C 59.644531 80.761719 59.3125 80.40625 58.757812 80.339844 C 59.347656 80.226562 59.949219 79.777344 59.949219 79.195312 C 59.949219 78.75 59.570312 78.359375 58.894531 78.359375 L 56.972656 78.359375 C 56.863281 78.359375 56.808594 78.359375 56.808594 78.480469 C 56.808594 78.546875 56.863281 78.546875 56.972656 78.546875 C 56.980469 78.546875 57.085938 78.546875 57.183594 78.558594 C 57.285156 78.578125 57.335938 78.578125 57.335938 78.664062 C 57.335938 78.683594 57.328125 78.699219 57.320312 78.777344 Z M 57.410156 80.285156 L 57.765625 78.777344 C 57.820312 78.566406 57.828125 78.546875 58.070312 78.546875 L 58.8125 78.546875 C 59.3125 78.546875 59.429688 78.910156 59.429688 79.175781 C 59.429688 79.710938 58.9375 80.285156 58.253906 80.285156 Z M 57.160156 82.324219 C 57.078125 82.324219 57.070312 82.324219 57.035156 82.324219 C 56.972656 82.3125 56.953125 82.304688 56.953125 82.257812 C 56.953125 82.238281 56.953125 82.226562 56.988281 82.125 L 57.382812 80.425781 L 58.453125 80.425781 C 59.003906 80.425781 59.117188 80.875 59.117188 81.132812 C 59.117188 81.734375 58.605469 82.324219 57.925781 82.324219 Z M 57.160156 82.324219 "
       id="path138" />
    <path
       style=" stroke:none;fill-rule:nonzero;fill:rgb(0%,0%,0%);fill-opacity:1;"
       d="M 57.425781 56.324219 C 57.378906 56.566406 57.355469 56.613281 56.910156 56.613281 C 56.808594 56.613281 56.757812 56.613281 56.757812 56.734375 C 56.757812 56.804688 56.808594 56.804688 56.910156 56.804688 L 58.945312 56.804688 C 59.847656 56.804688 60.519531 56.085938 60.519531 55.488281 C 60.519531 55.046875 60.1875 54.695312 59.632812 54.628906 C 60.222656 54.515625 60.824219 54.066406 60.824219 53.484375 C 60.824219 53.035156 60.449219 52.644531 59.769531 52.644531 L 57.847656 52.644531 C 57.738281 52.644531 57.6875 52.644531 57.6875 52.769531 C 57.6875 52.835938 57.738281 52.835938 57.847656 52.835938 C 57.855469 52.835938 57.964844 52.835938 58.0625 52.847656 C 58.160156 52.867188 58.214844 52.867188 58.214844 52.949219 C 58.214844 52.96875 58.203125 52.988281 58.195312 53.066406 Z M 58.285156 54.570312 L 58.640625 53.066406 C 58.695312 52.855469 58.703125 52.835938 58.945312 52.835938 L 59.6875 52.835938 C 60.1875 52.835938 60.304688 53.199219 60.304688 53.464844 C 60.304688 54 59.8125 54.570312 59.128906 54.570312 Z M 58.035156 56.613281 C 57.953125 56.613281 57.945312 56.613281 57.910156 56.613281 C 57.847656 56.601562 57.828125 56.59375 57.828125 56.546875 C 57.828125 56.527344 57.828125 56.515625 57.863281 56.410156 L 58.257812 54.714844 L 59.335938 54.714844 C 59.878906 54.714844 59.992188 55.164062 59.992188 55.421875 C 59.992188 56.019531 59.484375 56.613281 58.804688 56.613281 Z M 58.035156 56.613281 "
       id="path140" />
    <path
       style=" stroke:none;fill-rule:nonzero;fill:rgb(0%,0%,0%);fill-opacity:1;"
       d="M 56.148438 30.660156 C 56.09375 30.898438 56.078125 30.949219 55.628906 30.949219 C 55.53125 30.949219 55.476562 30.949219 55.476562 31.070312 C 55.476562 31.140625 55.53125 31.140625 55.628906 31.140625 L 57.671875 31.140625 C 58.570312 31.140625 59.242188 30.421875 59.242188 29.824219 C 59.242188 29.382812 58.910156 29.03125 58.355469 28.964844 C 58.945312 28.851562 59.546875 28.402344 59.546875 27.820312 C 59.546875 27.371094 59.171875 26.980469 58.488281 26.980469 L 56.570312 26.980469 C 56.460938 26.980469 56.40625 26.980469 56.40625 27.105469 C 56.40625 27.171875 56.460938 27.171875 56.570312 27.171875 C 56.578125 27.171875 56.683594 27.171875 56.78125 27.183594 C 56.882812 27.199219 56.933594 27.199219 56.933594 27.285156 C 56.933594 27.304688 56.925781 27.324219 56.921875 27.402344 Z M 57.007812 28.90625 L 57.363281 27.402344 C 57.421875 27.191406 57.425781 27.171875 57.671875 27.171875 L 58.410156 27.171875 C 58.910156 27.171875 59.027344 27.535156 59.027344 27.800781 C 59.027344 28.335938 58.535156 28.90625 57.847656 28.90625 Z M 56.757812 30.949219 C 56.675781 30.949219 56.671875 30.949219 56.632812 30.949219 C 56.570312 30.9375 56.550781 30.929688 56.550781 30.882812 C 56.550781 30.863281 56.550781 30.851562 56.585938 30.746094 L 56.980469 29.050781 L 58.050781 29.050781 C 58.597656 29.050781 58.714844 29.5 58.714844 29.757812 C 58.714844 30.355469 58.203125 30.949219 57.523438 30.949219 Z M 56.757812 30.949219 "
       id="path142" />
    <path
       style=" stroke:none;fill-rule:nonzero;fill:rgb(0%,0%,0%);fill-opacity:1;"
       d="M 29.28125 30.730469 C 29.230469 30.96875 29.210938 31.015625 28.765625 31.015625 C 28.671875 31.015625 28.613281 31.015625 28.613281 31.140625 C 28.613281 31.207031 28.671875 31.207031 28.765625 31.207031 L 30.800781 31.207031 C 31.710938 31.207031 32.378906 30.492188 32.378906 29.890625 C 32.378906 29.453125 32.046875 29.101562 31.492188 29.035156 C 32.085938 28.917969 32.679688 28.472656 32.679688 27.890625 C 32.679688 27.441406 32.304688 27.050781 31.628906 27.050781 L 29.703125 27.050781 C 29.597656 27.050781 29.546875 27.050781 29.546875 27.175781 C 29.546875 27.242188 29.597656 27.242188 29.703125 27.242188 C 29.710938 27.242188 29.820312 27.242188 29.921875 27.25 C 30.015625 27.269531 30.070312 27.269531 30.070312 27.355469 C 30.070312 27.375 30.0625 27.394531 30.050781 27.46875 Z M 30.140625 28.976562 L 30.503906 27.46875 C 30.550781 27.261719 30.5625 27.242188 30.800781 27.242188 L 31.546875 27.242188 C 32.046875 27.242188 32.160156 27.605469 32.160156 27.871094 C 32.160156 28.40625 31.671875 28.976562 30.980469 28.976562 Z M 29.890625 31.015625 C 29.808594 31.015625 29.800781 31.015625 29.765625 31.015625 C 29.703125 31.007812 29.683594 30.996094 29.683594 30.949219 C 29.683594 30.929688 29.683594 30.921875 29.722656 30.816406 L 30.113281 29.121094 L 31.1875 29.121094 C 31.730469 29.121094 31.847656 29.566406 31.847656 29.824219 C 31.847656 30.425781 31.339844 31.015625 30.660156 31.015625 Z M 29.890625 31.015625 "
       id="path144" />
    <path
       style=" stroke:none;fill-rule:nonzero;fill:rgb(0%,0%,0%);fill-opacity:1;"
       d="M 29.898438 56.597656 C 29.84375 56.835938 29.824219 56.882812 29.378906 56.882812 C 29.28125 56.882812 29.226562 56.882812 29.226562 57.003906 C 29.226562 57.074219 29.28125 57.074219 29.378906 57.074219 L 31.421875 57.074219 C 32.320312 57.074219 32.988281 56.359375 32.988281 55.757812 C 32.988281 55.316406 32.660156 54.964844 32.105469 54.898438 C 32.695312 54.785156 33.296875 54.335938 33.296875 53.753906 C 33.296875 53.304688 32.921875 52.914062 32.238281 52.914062 L 30.316406 52.914062 C 30.210938 52.914062 30.15625 52.914062 30.15625 53.039062 C 30.15625 53.105469 30.210938 53.105469 30.316406 53.105469 C 30.324219 53.105469 30.433594 53.105469 30.53125 53.117188 C 30.628906 53.136719 30.683594 53.136719 30.683594 53.222656 C 30.683594 53.238281 30.675781 53.257812 30.664062 53.335938 Z M 30.753906 54.839844 L 31.113281 53.335938 C 31.171875 53.125 31.175781 53.105469 31.421875 53.105469 L 32.160156 53.105469 C 32.660156 53.105469 32.773438 53.46875 32.773438 53.734375 C 32.773438 54.269531 32.285156 54.839844 31.59375 54.839844 Z M 30.503906 56.882812 C 30.425781 56.882812 30.414062 56.882812 30.378906 56.882812 C 30.316406 56.871094 30.300781 56.863281 30.300781 56.816406 C 30.300781 56.796875 30.300781 56.785156 30.335938 56.683594 L 30.726562 54.984375 L 31.800781 54.984375 C 32.347656 54.984375 32.460938 55.433594 32.460938 55.691406 C 32.460938 56.289062 31.953125 56.882812 31.273438 56.882812 Z M 30.503906 56.882812 "
       id="path146" />
    <path
       style=" stroke:none;fill-rule:nonzero;fill:rgb(0%,0%,0%);fill-opacity:1;"
       d="M 30.960938 82.886719 C 30.90625 83.125 30.890625 83.171875 30.441406 83.171875 C 30.34375 83.171875 30.289062 83.171875 30.289062 83.296875 C 30.289062 83.363281 30.34375 83.363281 30.441406 83.363281 L 32.480469 83.363281 C 33.382812 83.363281 34.054688 82.648438 34.054688 82.046875 C 34.054688 81.609375 33.722656 81.253906 33.171875 81.1875 C 33.757812 81.074219 34.359375 80.625 34.359375 80.046875 C 34.359375 79.597656 33.980469 79.207031 33.304688 79.207031 L 31.382812 79.207031 C 31.273438 79.207031 31.21875 79.207031 31.21875 79.328125 C 31.21875 79.398438 31.273438 79.398438 31.382812 79.398438 C 31.390625 79.398438 31.496094 79.398438 31.59375 79.40625 C 31.695312 79.425781 31.746094 79.425781 31.746094 79.511719 C 31.746094 79.53125 31.738281 79.550781 31.730469 79.625 Z M 31.820312 81.132812 L 32.175781 79.625 C 32.230469 79.414062 32.238281 79.398438 32.480469 79.398438 L 33.222656 79.398438 C 33.722656 79.398438 33.839844 79.757812 33.839844 80.027344 C 33.839844 80.558594 33.347656 81.132812 32.660156 81.132812 Z M 31.570312 83.171875 C 31.488281 83.171875 31.480469 83.171875 31.445312 83.171875 C 31.382812 83.164062 31.363281 83.152344 31.363281 83.105469 C 31.363281 83.085938 31.363281 83.078125 31.398438 82.972656 L 31.796875 81.273438 L 32.863281 81.273438 C 33.410156 81.273438 33.527344 81.722656 33.527344 81.980469 C 33.527344 82.582031 33.015625 83.171875 32.335938 83.171875 Z M 31.570312 83.171875 "
       id="path148" />
  </g>
</svg>
