<?xml version="1.0" encoding="UTF-8" standalone="no"?>
<svg
   xmlns:dc="http://purl.org/dc/elements/1.1/"
   xmlns:cc="http://creativecommons.org/ns#"
   xmlns:rdf="http://www.w3.org/1999/02/22-rdf-syntax-ns#"
   xmlns:svg="http://www.w3.org/2000/svg"
   xmlns="http://www.w3.org/2000/svg"
   xmlns:sodipodi="http://sodipodi.sourceforge.net/DTD/sodipodi-0.dtd"
   xmlns:inkscape="http://www.inkscape.org/namespaces/inkscape"
   width="381.7518pt"
   height="283.501pt"
   viewBox="0 0 381.7518 283.501"
   version="1.2"
   id="svg106"
   sodipodi:docname="1b.svg"
   inkscape:version="0.92.3 (2405546, 2018-03-11)">
  <metadata
     id="metadata110">
    <rdf:RDF>
      <cc:Work
         rdf:about="">
        <dc:format>image/svg+xml</dc:format>
        <dc:type
           rdf:resource="http://purl.org/dc/dcmitype/StillImage" />
        <dc:title></dc:title>
      </cc:Work>
    </rdf:RDF>
  </metadata>
  <sodipodi:namedview
     pagecolor="#ffffff"
     bordercolor="#666666"
     borderopacity="1"
     objecttolerance="10"
     gridtolerance="10"
     guidetolerance="10"
     inkscape:pageopacity="0"
     inkscape:pageshadow="2"
     inkscape:window-width="740"
     inkscape:window-height="480"
     id="namedview108"
     showgrid="false"
     inkscape:zoom="0.59331744"
     inkscape:cx="254.5012"
     inkscape:cy="189.00067"
     inkscape:window-x="65"
     inkscape:window-y="24"
     inkscape:window-maximized="0"
     inkscape:current-layer="svg106" />
  <defs
     id="defs11">
    <clipPath
       id="clip1">
      <path
         d="M 126 230 L 182 230 L 182 283.5 L 126 283.5 Z M 126 230 "
         id="path2" />
    </clipPath>
    <clipPath
       id="clip2">
      <path
         d="M 189 231 L 245 231 L 245 283.5 L 189 283.5 Z M 189 231 "
         id="path5" />
    </clipPath>
    <clipPath
       id="clip3">
      <path
         d="M 326 8 L 381.75 8 L 381.75 64 L 326 64 Z M 326 8 "
         id="path8" />
    </clipPath>
  </defs>
  <g
     id="surface322">
    <path
       style="fill:none;stroke-width:1.45119;stroke-linecap:butt;stroke-linejoin:miter;stroke:rgb(0%,0%,0%);stroke-opacity:0.986425;stroke-miterlimit:4;"
       d="M -49.268292 278.936256 L -96.666294 293.643158 L -133.10503 259.948646 L -122.141728 211.54709 L -74.741779 196.838098 L -38.30708 230.532751 Z M -49.268292 278.936256 "
       transform="matrix(1,-0.932515,0.932515,1,-59.2502,-180.750771)"
       id="path13" />
    <path
       style="fill:none;stroke-width:1.45119;stroke-linecap:butt;stroke-linejoin:miter;stroke:rgb(0%,0%,0%);stroke-opacity:0.96875;stroke-miterlimit:4;"
       d="M 34.566356 297.921917 L -12.829556 312.630768 L -49.268292 278.936256 L -38.30708 230.532751 L 9.09287 215.823759 L 45.529659 249.520361 Z M 34.566356 297.921917 "
       transform="matrix(1,-0.932515,0.932515,1,-59.2502,-180.750771)"
       id="path15" />
    <path
       style="fill:none;stroke-width:1.45119;stroke-linecap:butt;stroke-linejoin:miter;stroke:rgb(0%,0%,0%);stroke-opacity:0.96875;stroke-miterlimit:4;"
       d="M -23.792858 361.032324 L -71.192807 375.741316 L -107.627506 342.046663 L -96.666294 293.643158 L -49.268292 278.936256 L -12.829556 312.630768 Z M -23.792858 361.032324 "
       transform="matrix(1,-0.932515,0.932515,1,-59.2502,-180.750771)"
       id="path17" />
    <path
       style="fill:none;stroke-width:1.45119;stroke-linecap:butt;stroke-linejoin:miter;stroke:rgb(0%,0%,0%);stroke-opacity:0.96875;stroke-miterlimit:4;"
       d="M 60.04388 380.019934 L 12.643931 394.728926 L -23.792858 361.032324 L -12.829556 312.630768 L 34.566356 297.921917 L 71.005093 331.616429 Z M 60.04388 380.019934 "
       transform="matrix(1,-0.932515,0.932515,1,-59.2502,-180.750771)"
       id="path19" />
    <path
       style="fill:none;stroke-width:1.984252;stroke-linecap:butt;stroke-linejoin:miter;stroke:rgb(0%,0%,0%);stroke-opacity:1;stroke-miterlimit:4;"
       d="M 380.242388 265.403115 L 412.5002 216.442177 "
       transform="matrix(1,0,0,1,-59.2502,-180.750771)"
       id="path21" />
    <path
       style="fill:none;stroke-width:1.984252;stroke-linecap:butt;stroke-linejoin:miter;stroke:rgb(0%,0%,0%);stroke-opacity:1;stroke-miterlimit:4;"
       d="M 409.914263 440.555459 L 380.824419 382.98124 "
       transform="matrix(1,0,0,1,-59.2502,-180.750771)"
       id="path23" />
    <path
       style="fill-rule:nonzero;fill:rgb(100%,100%,100%);fill-opacity:1;stroke-width:1.984252;stroke-linecap:butt;stroke-linejoin:miter;stroke:rgb(0%,0%,0%);stroke-opacity:0.96875;stroke-miterlimit:4;"
       d="M 129.058794 266.266396 C 129.058794 275.23124 121.78145 282.500771 112.800981 282.500771 C 103.824419 282.500771 96.547075 275.23124 96.547075 266.266396 C 96.547075 257.297646 103.824419 250.028115 112.800981 250.028115 C 121.78145 250.028115 129.058794 257.297646 129.058794 266.266396 Z M 129.058794 266.266396 "
       transform="matrix(1,0,0,1,-59.2502,-180.750771)"
       id="path25" />
    <path
       style=" stroke:none;fill-rule:nonzero;fill:rgb(0%,0%,0%);fill-opacity:1;"
       d="M 59.191406 87.628906 C 59.191406 87.449219 59.191406 87.300781 58.945312 87.300781 C 58.730469 87.300781 58.730469 87.421875 58.699219 87.628906 C 58.546875 90.34375 56.453125 91.898438 54.300781 91.898438 C 53.101562 91.898438 49.253906 91.269531 49.253906 85.570312 C 49.253906 79.898438 53.101562 79.242188 54.300781 79.242188 C 56.421875 79.242188 58.175781 80.972656 58.578125 83.75 C 58.605469 84.019531 58.605469 84.078125 58.882812 84.078125 C 59.191406 84.078125 59.191406 84.019531 59.191406 83.628906 L 59.191406 79.125 C 59.191406 78.796875 59.191406 78.644531 58.976562 78.644531 C 58.914062 78.644531 58.824219 78.644531 58.667969 78.886719 L 57.683594 80.289062 C 56.976562 79.601562 55.960938 78.644531 54.085938 78.644531 C 50.394531 78.644531 47.257812 81.691406 47.257812 85.570312 C 47.257812 89.507812 50.425781 92.496094 54.085938 92.496094 C 57.285156 92.496094 59.191406 89.839844 59.191406 87.628906 Z M 59.191406 87.628906 "
       id="path27" />
    <path
       style="fill-rule:nonzero;fill:rgb(100%,100%,100%);fill-opacity:1;stroke-width:1.984252;stroke-linecap:butt;stroke-linejoin:miter;stroke:rgb(0%,0%,0%);stroke-opacity:0.96875;stroke-miterlimit:4;"
       d="M 96.504106 322.891396 C 96.504106 331.85624 89.226763 339.125771 80.2502 339.125771 C 71.273638 339.125771 63.996294 331.85624 63.996294 322.891396 C 63.996294 313.922646 71.273638 306.653115 80.2502 306.653115 C 89.226763 306.653115 96.504106 313.922646 96.504106 322.891396 Z M 96.504106 322.891396 "
       transform="matrix(1,0,0,1,-59.2502,-180.750771)"
       id="path29" />
    <path
       style=" stroke:none;fill-rule:nonzero;fill:rgb(0%,0%,0%);fill-opacity:1;"
       d="M 26.640625 144.253906 C 26.640625 144.078125 26.640625 143.925781 26.394531 143.925781 C 26.179688 143.925781 26.179688 144.046875 26.148438 144.253906 C 25.992188 146.972656 23.902344 148.523438 21.75 148.523438 C 20.546875 148.523438 16.703125 147.898438 16.703125 142.195312 C 16.703125 136.527344 20.546875 135.867188 21.75 135.867188 C 23.871094 135.867188 25.625 137.601562 26.023438 140.375 C 26.054688 140.644531 26.054688 140.703125 26.332031 140.703125 C 26.640625 140.703125 26.640625 140.644531 26.640625 140.257812 L 26.640625 135.75 C 26.640625 135.421875 26.640625 135.273438 26.425781 135.273438 C 26.363281 135.273438 26.269531 135.273438 26.117188 135.511719 L 25.132812 136.914062 C 24.425781 136.226562 23.410156 135.273438 21.53125 135.273438 C 17.84375 135.273438 14.703125 138.316406 14.703125 142.195312 C 14.703125 146.136719 17.871094 149.121094 21.53125 149.121094 C 24.730469 149.121094 26.640625 146.464844 26.640625 144.253906 Z M 26.640625 144.253906 "
       id="path31" />
    <path
       style="fill-rule:nonzero;fill:rgb(100%,100%,100%);fill-opacity:1;stroke-width:1.984252;stroke-linecap:butt;stroke-linejoin:miter;stroke:rgb(0%,0%,0%);stroke-opacity:0.96875;stroke-miterlimit:4;"
       d="M 126.879106 376.141396 C 126.879106 385.10624 119.601763 392.375771 110.6252 392.375771 C 101.648638 392.375771 94.371294 385.10624 94.371294 376.141396 C 94.371294 367.172646 101.648638 359.903115 110.6252 359.903115 C 119.601763 359.903115 126.879106 367.172646 126.879106 376.141396 Z M 126.879106 376.141396 "
       transform="matrix(1,0,0,1,-59.2502,-180.750771)"
       id="path33" />
    <path
       style=" stroke:none;fill-rule:nonzero;fill:rgb(0%,0%,0%);fill-opacity:1;"
       d="M 57.015625 197.503906 C 57.015625 197.328125 57.015625 197.175781 56.769531 197.175781 C 56.554688 197.175781 56.554688 197.296875 56.523438 197.503906 C 56.367188 200.222656 54.277344 201.773438 52.125 201.773438 C 50.921875 201.773438 47.078125 201.148438 47.078125 195.445312 C 47.078125 189.777344 50.921875 189.117188 52.125 189.117188 C 54.246094 189.117188 56 190.851562 56.398438 193.625 C 56.429688 193.894531 56.429688 193.953125 56.707031 193.953125 C 57.015625 193.953125 57.015625 193.894531 57.015625 193.507812 L 57.015625 189 C 57.015625 188.671875 57.015625 188.523438 56.800781 188.523438 C 56.738281 188.523438 56.644531 188.523438 56.492188 188.761719 L 55.507812 190.164062 C 54.800781 189.476562 53.785156 188.523438 51.90625 188.523438 C 48.21875 188.523438 45.078125 191.566406 45.078125 195.445312 C 45.078125 199.386719 48.246094 202.371094 51.90625 202.371094 C 55.105469 202.371094 57.015625 199.714844 57.015625 197.503906 Z M 57.015625 197.503906 "
       id="path35" />
    <path
       style="fill-rule:nonzero;fill:rgb(100%,100%,100%);fill-opacity:1;stroke-width:1.984252;stroke-linecap:butt;stroke-linejoin:miter;stroke:rgb(0%,0%,0%);stroke-opacity:0.96875;stroke-miterlimit:4;"
       d="M 191.449419 378.489052 C 191.449419 387.457802 184.172075 394.723427 175.195513 394.723427 C 166.21895 394.723427 158.941606 387.457802 158.941606 378.489052 C 158.941606 369.524209 166.21895 362.254677 175.195513 362.254677 C 184.172075 362.254677 191.449419 369.524209 191.449419 378.489052 Z M 191.449419 378.489052 "
       transform="matrix(1,0,0,1,-59.2502,-180.750771)"
       id="path37" />
    <path
       style=" stroke:none;fill-rule:nonzero;fill:rgb(0%,0%,0%);fill-opacity:1;"
       d="M 121.585938 199.855469 C 121.585938 199.675781 121.585938 199.527344 121.339844 199.527344 C 121.125 199.527344 121.125 199.644531 121.09375 199.855469 C 120.9375 202.570312 118.847656 204.121094 116.695312 204.121094 C 115.492188 204.121094 111.648438 203.496094 111.648438 197.796875 C 111.648438 192.125 115.492188 191.46875 116.695312 191.46875 C 118.816406 191.46875 120.570312 193.199219 120.96875 195.976562 C 121 196.242188 121 196.304688 121.277344 196.304688 C 121.585938 196.304688 121.585938 196.242188 121.585938 195.855469 L 121.585938 191.347656 C 121.585938 191.019531 121.585938 190.871094 121.371094 190.871094 C 121.308594 190.871094 121.214844 190.871094 121.0625 191.109375 L 120.078125 192.511719 C 119.371094 191.828125 118.355469 190.871094 116.476562 190.871094 C 112.785156 190.871094 109.648438 193.914062 109.648438 197.796875 C 109.648438 201.734375 112.816406 204.71875 116.476562 204.71875 C 119.675781 204.71875 121.585938 202.0625 121.585938 199.855469 Z M 121.585938 199.855469 "
       id="path39" />
    <path
       style="fill-rule:nonzero;fill:rgb(100%,100%,100%);fill-opacity:1;stroke-width:1.984252;stroke-linecap:butt;stroke-linejoin:miter;stroke:rgb(0%,0%,0%);stroke-opacity:0.96875;stroke-miterlimit:4;"
       d="M 194.754106 265.891396 C 194.754106 274.85624 187.476763 282.125771 178.5002 282.125771 C 169.523638 282.125771 162.246294 274.85624 162.246294 265.891396 C 162.246294 256.922646 169.523638 249.653115 178.5002 249.653115 C 187.476763 249.653115 194.754106 256.922646 194.754106 265.891396 Z M 194.754106 265.891396 "
       transform="matrix(1,0,0,1,-59.2502,-180.750771)"
       id="path41" />
    <path
       style=" stroke:none;fill-rule:nonzero;fill:rgb(0%,0%,0%);fill-opacity:1;"
       d="M 124.890625 87.253906 C 124.890625 87.078125 124.890625 86.925781 124.644531 86.925781 C 124.429688 86.925781 124.429688 87.046875 124.398438 87.253906 C 124.242188 89.972656 122.152344 91.523438 120 91.523438 C 118.796875 91.523438 114.953125 90.898438 114.953125 85.195312 C 114.953125 79.527344 118.796875 78.867188 120 78.867188 C 122.121094 78.867188 123.875 80.601562 124.273438 83.375 C 124.304688 83.644531 124.304688 83.703125 124.582031 83.703125 C 124.890625 83.703125 124.890625 83.644531 124.890625 83.257812 L 124.890625 78.75 C 124.890625 78.421875 124.890625 78.273438 124.675781 78.273438 C 124.613281 78.273438 124.519531 78.273438 124.367188 78.511719 L 123.382812 79.914062 C 122.675781 79.226562 121.660156 78.273438 119.78125 78.273438 C 116.09375 78.273438 112.953125 81.316406 112.953125 85.195312 C 112.953125 89.136719 116.121094 92.121094 119.78125 92.121094 C 122.980469 92.121094 124.890625 89.464844 124.890625 87.253906 Z M 124.890625 87.253906 "
       id="path43" />
    <path
       style="fill-rule:nonzero;fill:rgb(100%,100%,100%);fill-opacity:1;stroke-width:1.984252;stroke-linecap:butt;stroke-linejoin:miter;stroke:rgb(0%,0%,0%);stroke-opacity:0.96875;stroke-miterlimit:4;"
       d="M 224.808794 323.625771 C 224.808794 332.590615 217.53145 339.860146 208.550981 339.860146 C 199.574419 339.860146 192.297075 332.590615 192.297075 323.625771 C 192.297075 314.657021 199.574419 307.391396 208.550981 307.391396 C 217.53145 307.391396 224.808794 314.657021 224.808794 323.625771 Z M 224.808794 323.625771 "
       transform="matrix(1,0,0,1,-59.2502,-180.750771)"
       id="path45" />
    <path
       style=" stroke:none;fill-rule:nonzero;fill:rgb(0%,0%,0%);fill-opacity:1;"
       d="M 154.941406 144.992188 C 154.941406 144.8125 154.941406 144.664062 154.695312 144.664062 C 154.480469 144.664062 154.480469 144.78125 154.449219 144.992188 C 154.296875 147.707031 152.203125 149.257812 150.050781 149.257812 C 148.851562 149.257812 145.007812 148.632812 145.007812 142.929688 C 145.007812 137.261719 148.851562 136.605469 150.050781 136.605469 C 152.171875 136.605469 153.925781 138.335938 154.328125 141.109375 C 154.355469 141.378906 154.355469 141.4375 154.632812 141.4375 C 154.941406 141.4375 154.941406 141.378906 154.941406 140.992188 L 154.941406 136.484375 C 154.941406 136.15625 154.941406 136.007812 154.726562 136.007812 C 154.664062 136.007812 154.574219 136.007812 154.417969 136.246094 L 153.433594 137.648438 C 152.726562 136.960938 151.710938 136.007812 149.835938 136.007812 C 146.144531 136.007812 143.007812 139.050781 143.007812 142.929688 C 143.007812 146.871094 146.175781 149.855469 149.835938 149.855469 C 153.035156 149.855469 154.941406 147.199219 154.941406 144.992188 Z M 154.941406 144.992188 "
       id="path47" />
    <path
       style="fill-rule:nonzero;fill:rgb(100%,100%,100%);fill-opacity:1;stroke-width:1.984252;stroke-linecap:butt;stroke-linejoin:miter;stroke:rgb(0%,0%,0%);stroke-opacity:0.96875;stroke-miterlimit:4;"
       d="M 227.461138 206.422646 C 227.461138 215.38749 220.183794 222.657021 211.203325 222.657021 C 202.226763 222.657021 194.949419 215.38749 194.949419 206.422646 C 194.949419 197.453896 202.226763 190.188271 211.203325 190.188271 C 220.183794 190.188271 227.461138 197.453896 227.461138 206.422646 Z M 227.461138 206.422646 "
       transform="matrix(1,0,0,1,-59.2502,-180.750771)"
       id="path49" />
    <path
       style=" stroke:none;fill-rule:nonzero;fill:rgb(0%,0%,0%);fill-opacity:1;"
       d="M 157.59375 27.789062 C 157.59375 27.609375 157.59375 27.460938 157.347656 27.460938 C 157.132812 27.460938 157.132812 27.578125 157.101562 27.789062 C 156.949219 30.503906 154.855469 32.054688 152.703125 32.054688 C 151.503906 32.054688 147.65625 31.429688 147.65625 25.726562 C 147.65625 20.058594 151.503906 19.402344 152.703125 19.402344 C 154.824219 19.402344 156.578125 21.132812 156.976562 23.90625 C 157.007812 24.175781 157.007812 24.234375 157.285156 24.234375 C 157.59375 24.234375 157.59375 24.175781 157.59375 23.789062 L 157.59375 19.28125 C 157.59375 18.953125 157.59375 18.804688 157.378906 18.804688 C 157.316406 18.804688 157.222656 18.804688 157.070312 19.042969 L 156.085938 20.445312 C 155.378906 19.757812 154.363281 18.804688 152.488281 18.804688 C 148.796875 18.804688 145.65625 21.847656 145.65625 25.726562 C 145.65625 29.667969 148.828125 32.652344 152.488281 32.652344 C 155.6875 32.652344 157.59375 29.996094 157.59375 27.789062 Z M 157.59375 27.789062 "
       id="path51" />
    <path
       style="fill-rule:nonzero;fill:rgb(100%,100%,100%);fill-opacity:1;stroke-width:1.984252;stroke-linecap:butt;stroke-linejoin:miter;stroke:rgb(0%,0%,0%);stroke-opacity:0.96875;stroke-miterlimit:4;"
       d="M 291.097856 208.676552 C 291.097856 217.641396 283.820513 224.910927 274.84395 224.910927 C 265.867388 224.910927 258.590044 217.641396 258.590044 208.676552 C 258.590044 199.707802 265.867388 192.442177 274.84395 192.442177 C 283.820513 192.442177 291.097856 199.707802 291.097856 208.676552 Z M 291.097856 208.676552 "
       transform="matrix(1,0,0,1,-59.2502,-180.750771)"
       id="path53" />
    <path
       style=" stroke:none;fill-rule:nonzero;fill:rgb(0%,0%,0%);fill-opacity:1;"
       d="M 221.234375 30.042969 C 221.234375 29.863281 221.234375 29.714844 220.988281 29.714844 C 220.769531 29.714844 220.769531 29.832031 220.742188 30.042969 C 220.585938 32.757812 218.496094 34.308594 216.34375 34.308594 C 215.140625 34.308594 211.296875 33.683594 211.296875 27.980469 C 211.296875 22.3125 215.140625 21.65625 216.34375 21.65625 C 218.464844 21.65625 220.21875 23.386719 220.617188 26.160156 C 220.648438 26.429688 220.648438 26.488281 220.925781 26.488281 C 221.234375 26.488281 221.234375 26.429688 221.234375 26.042969 L 221.234375 21.535156 C 221.234375 21.207031 221.234375 21.058594 221.015625 21.058594 C 220.957031 21.058594 220.863281 21.058594 220.710938 21.296875 L 219.726562 22.699219 C 219.019531 22.011719 218.003906 21.058594 216.125 21.058594 C 212.433594 21.058594 209.296875 24.101562 209.296875 27.980469 C 209.296875 31.921875 212.464844 34.90625 216.125 34.90625 C 219.324219 34.90625 221.234375 32.25 221.234375 30.042969 Z M 221.234375 30.042969 "
       id="path55" />
    <path
       style="fill-rule:nonzero;fill:rgb(100%,100%,100%);fill-opacity:1;stroke-width:1.984252;stroke-linecap:butt;stroke-linejoin:miter;stroke:rgb(0%,0%,0%);stroke-opacity:0.96875;stroke-miterlimit:4;"
       d="M 327.765825 265.680459 C 327.765825 274.649209 320.488481 281.91874 311.511919 281.91874 C 302.535356 281.91874 295.254106 274.649209 295.254106 265.680459 C 295.254106 256.715615 302.535356 249.446084 311.511919 249.446084 C 320.488481 249.446084 327.765825 256.715615 327.765825 265.680459 Z M 327.765825 265.680459 "
       transform="matrix(1,0,0,1,-59.2502,-180.750771)"
       id="path57" />
    <path
       style=" stroke:none;fill-rule:nonzero;fill:rgb(0%,0%,0%);fill-opacity:1;"
       d="M 257.902344 87.046875 C 257.902344 86.867188 257.902344 86.71875 257.65625 86.71875 C 257.4375 86.71875 257.4375 86.835938 257.410156 87.046875 C 257.253906 89.761719 255.164062 91.316406 253.011719 91.316406 C 251.808594 91.316406 247.964844 90.6875 247.964844 84.988281 C 247.964844 79.316406 251.808594 78.660156 253.011719 78.660156 C 255.132812 78.660156 256.886719 80.390625 257.285156 83.167969 C 257.316406 83.4375 257.316406 83.496094 257.59375 83.496094 C 257.902344 83.496094 257.902344 83.4375 257.902344 83.046875 L 257.902344 78.539062 C 257.902344 78.210938 257.902344 78.0625 257.683594 78.0625 C 257.625 78.0625 257.53125 78.0625 257.378906 78.300781 L 256.394531 79.703125 C 255.6875 79.019531 254.671875 78.0625 252.792969 78.0625 C 249.101562 78.0625 245.964844 81.109375 245.964844 84.988281 C 245.964844 88.925781 249.132812 91.910156 252.792969 91.910156 C 255.992188 91.910156 257.902344 89.253906 257.902344 87.046875 Z M 257.902344 87.046875 "
       id="path59" />
    <path
       style="fill-rule:nonzero;fill:rgb(100%,100%,100%);fill-opacity:1;stroke-width:1.984252;stroke-linecap:butt;stroke-linejoin:miter;stroke:rgb(0%,0%,0%);stroke-opacity:0.96875;stroke-miterlimit:4;"
       d="M 296.004106 323.078896 C 296.004106 332.04374 288.726763 339.313271 279.7502 339.313271 C 270.773638 339.313271 263.496294 332.04374 263.496294 323.078896 C 263.496294 314.110146 270.773638 306.840615 279.7502 306.840615 C 288.726763 306.840615 296.004106 314.110146 296.004106 323.078896 Z M 296.004106 323.078896 "
       transform="matrix(1,0,0,1,-59.2502,-180.750771)"
       id="path61" />
    <path
       style=" stroke:none;fill-rule:nonzero;fill:rgb(0%,0%,0%);fill-opacity:1;"
       d="M 226.140625 144.441406 C 226.140625 144.265625 226.140625 144.113281 225.894531 144.113281 C 225.679688 144.113281 225.679688 144.234375 225.648438 144.441406 C 225.492188 147.160156 223.402344 148.710938 221.25 148.710938 C 220.046875 148.710938 216.203125 148.085938 216.203125 142.382812 C 216.203125 136.714844 220.046875 136.054688 221.25 136.054688 C 223.371094 136.054688 225.125 137.789062 225.523438 140.5625 C 225.554688 140.832031 225.554688 140.890625 225.832031 140.890625 C 226.140625 140.890625 226.140625 140.832031 226.140625 140.445312 L 226.140625 135.9375 C 226.140625 135.609375 226.140625 135.460938 225.925781 135.460938 C 225.863281 135.460938 225.769531 135.460938 225.617188 135.699219 L 224.632812 137.101562 C 223.925781 136.414062 222.910156 135.460938 221.03125 135.460938 C 217.34375 135.460938 214.203125 138.503906 214.203125 142.382812 C 214.203125 146.324219 217.371094 149.308594 221.03125 149.308594 C 224.230469 149.308594 226.140625 146.652344 226.140625 144.441406 Z M 226.140625 144.441406 "
       id="path63" />
    <path
       style=" stroke:none;fill-rule:nonzero;fill:rgb(100%,100%,100%);fill-opacity:1;"
       d="M 170.597656 257.558594 C 170.597656 266.523438 163.316406 273.792969 154.339844 273.792969 C 145.363281 273.792969 138.085938 266.523438 138.085938 257.558594 C 138.085938 248.589844 145.363281 241.324219 154.339844 241.324219 C 163.316406 241.324219 170.597656 248.589844 170.597656 257.558594 Z M 170.597656 257.558594 "
       id="path65" />
    <g
       clip-path="url(#clip1)"
       clip-rule="nonzero"
       id="g69">
      <path
         style="fill:none;stroke-width:1.984252;stroke-linecap:butt;stroke-linejoin:miter;stroke:rgb(0%,0%,0%);stroke-opacity:0.96875;stroke-miterlimit:4;"
         d="M 229.847856 438.309365 C 229.847856 447.274209 222.566606 454.54374 213.590044 454.54374 C 204.613481 454.54374 197.336138 447.274209 197.336138 438.309365 C 197.336138 429.340615 204.613481 422.07499 213.590044 422.07499 C 222.566606 422.07499 229.847856 429.340615 229.847856 438.309365 Z M 229.847856 438.309365 "
         transform="matrix(1,0,0,1,-59.2502,-180.750771)"
         id="path67" />
    </g>
    <path
       style=" stroke:none;fill-rule:nonzero;fill:rgb(0%,0%,0%);fill-opacity:1;"
       d="M 159.980469 259.675781 C 159.980469 259.496094 159.980469 259.347656 159.734375 259.347656 C 159.519531 259.347656 159.519531 259.464844 159.488281 259.675781 C 159.332031 262.390625 157.242188 263.941406 155.089844 263.941406 C 153.890625 263.941406 150.042969 263.316406 150.042969 257.613281 C 150.042969 251.945312 153.890625 251.289062 155.089844 251.289062 C 157.210938 251.289062 158.964844 253.019531 159.363281 255.792969 C 159.394531 256.0625 159.394531 256.121094 159.671875 256.121094 C 159.980469 256.121094 159.980469 256.0625 159.980469 255.675781 L 159.980469 251.167969 C 159.980469 250.839844 159.980469 250.691406 159.765625 250.691406 C 159.703125 250.691406 159.609375 250.691406 159.457031 250.929688 L 158.472656 252.332031 C 157.765625 251.644531 156.75 250.691406 154.875 250.691406 C 151.183594 250.691406 148.042969 253.734375 148.042969 257.613281 C 148.042969 261.554688 151.214844 264.539062 154.875 264.539062 C 158.074219 264.539062 159.980469 261.882812 159.980469 259.675781 Z M 159.980469 259.675781 "
       id="path71" />
    <path
       style=" stroke:none;fill-rule:nonzero;fill:rgb(100%,100%,100%);fill-opacity:1;"
       d="M 233.042969 259.28125 C 233.042969 268.25 225.765625 275.519531 216.785156 275.519531 C 207.808594 275.519531 200.53125 268.25 200.53125 259.28125 C 200.53125 250.316406 207.808594 243.046875 216.785156 243.046875 C 225.765625 243.046875 233.042969 250.316406 233.042969 259.28125 Z M 233.042969 259.28125 "
       id="path73" />
    <g
       clip-path="url(#clip2)"
       clip-rule="nonzero"
       id="g77">
      <path
         style="fill:none;stroke-width:1.984252;stroke-linecap:butt;stroke-linejoin:miter;stroke:rgb(0%,0%,0%);stroke-opacity:0.96875;stroke-miterlimit:4;"
         d="M 292.293169 440.032021 C 292.293169 449.000771 285.015825 456.270302 276.035356 456.270302 C 267.058794 456.270302 259.78145 449.000771 259.78145 440.032021 C 259.78145 431.067177 267.058794 423.797646 276.035356 423.797646 C 285.015825 423.797646 292.293169 431.067177 292.293169 440.032021 Z M 292.293169 440.032021 "
         transform="matrix(1,0,0,1,-59.2502,-180.750771)"
         id="path75" />
    </g>
    <path
       style=" stroke:none;fill-rule:nonzero;fill:rgb(0%,0%,0%);fill-opacity:1;"
       d="M 222.425781 261.398438 C 222.425781 261.21875 222.425781 261.070312 222.179688 261.070312 C 221.964844 261.070312 221.964844 261.1875 221.933594 261.398438 C 221.78125 264.113281 219.6875 265.664062 217.535156 265.664062 C 216.335938 265.664062 212.492188 265.039062 212.492188 259.339844 C 212.492188 253.667969 216.335938 253.011719 217.535156 253.011719 C 219.65625 253.011719 221.410156 254.742188 221.8125 257.519531 C 221.839844 257.785156 221.839844 257.847656 222.117188 257.847656 C 222.425781 257.847656 222.425781 257.785156 222.425781 257.398438 L 222.425781 252.890625 C 222.425781 252.5625 222.425781 252.414062 222.210938 252.414062 C 222.148438 252.414062 222.058594 252.414062 221.902344 252.652344 L 220.917969 254.054688 C 220.210938 253.371094 219.195312 252.414062 217.320312 252.414062 C 213.628906 252.414062 210.492188 255.457031 210.492188 259.339844 C 210.492188 263.277344 213.660156 266.261719 217.320312 266.261719 C 220.519531 266.261719 222.425781 263.605469 222.425781 261.398438 Z M 222.425781 261.398438 "
       id="path79" />
    <path
       style="fill-rule:nonzero;fill:rgb(100%,100%,100%);fill-opacity:1;stroke-width:1.984252;stroke-linecap:butt;stroke-linejoin:miter;stroke:rgb(0%,0%,0%);stroke-opacity:0.96875;stroke-miterlimit:4;"
       d="M 325.484575 381.102334 C 325.484575 390.071084 318.207231 397.340615 309.230669 397.340615 C 300.2502 397.340615 292.972856 390.071084 292.972856 381.102334 C 292.972856 372.13749 300.2502 364.867959 309.230669 364.867959 C 318.207231 364.867959 325.484575 372.13749 325.484575 381.102334 Z M 325.484575 381.102334 "
       transform="matrix(1,0,0,1,-59.2502,-180.750771)"
       id="path81" />
    <path
       style=" stroke:none;fill-rule:nonzero;fill:rgb(0%,0%,0%);fill-opacity:1;"
       d="M 255.617188 202.46875 C 255.617188 202.289062 255.617188 202.140625 255.371094 202.140625 C 255.15625 202.140625 255.15625 202.261719 255.125 202.46875 C 254.972656 205.183594 252.878906 206.738281 250.726562 206.738281 C 249.527344 206.738281 245.683594 206.109375 245.683594 200.410156 C 245.683594 194.738281 249.527344 194.082031 250.726562 194.082031 C 252.847656 194.082031 254.601562 195.8125 255.003906 198.589844 C 255.035156 198.859375 255.035156 198.917969 255.308594 198.917969 C 255.617188 198.917969 255.617188 198.859375 255.617188 198.46875 L 255.617188 193.964844 C 255.617188 193.636719 255.617188 193.484375 255.402344 193.484375 C 255.339844 193.484375 255.25 193.484375 255.09375 193.726562 L 254.109375 195.128906 C 253.402344 194.441406 252.386719 193.484375 250.511719 193.484375 C 246.820312 193.484375 243.683594 196.53125 243.683594 200.410156 C 243.683594 204.347656 246.851562 207.332031 250.511719 207.332031 C 253.710938 207.332031 255.617188 204.679688 255.617188 202.46875 Z M 255.617188 202.46875 "
       id="path83" />
    <path
       style="fill-rule:nonzero;fill:rgb(100%,100%,100%);fill-opacity:1;stroke-width:1.984252;stroke-linecap:butt;stroke-linejoin:miter;stroke:rgb(0%,0%,0%);stroke-opacity:0.96875;stroke-miterlimit:4;"
       d="M 397.886919 265.934365 C 397.886919 274.903115 390.609575 282.172646 381.633013 282.172646 C 372.652544 282.172646 365.3752 274.903115 365.3752 265.934365 C 365.3752 256.969521 372.652544 249.69999 381.633013 249.69999 C 390.609575 249.69999 397.886919 256.969521 397.886919 265.934365 Z M 397.886919 265.934365 "
       transform="matrix(1,0,0,1,-59.2502,-180.750771)"
       id="path85" />
    <path
       style=" stroke:none;fill-rule:nonzero;fill:rgb(0%,0%,0%);fill-opacity:1;"
       d="M 328.019531 87.300781 C 328.019531 87.121094 328.019531 86.972656 327.773438 86.972656 C 327.558594 86.972656 327.558594 87.09375 327.527344 87.300781 C 327.375 90.015625 325.28125 91.570312 323.128906 91.570312 C 321.929688 91.570312 318.085938 90.941406 318.085938 85.242188 C 318.085938 79.570312 321.929688 78.914062 323.128906 78.914062 C 325.253906 78.914062 327.003906 80.644531 327.40625 83.421875 C 327.4375 83.691406 327.4375 83.75 327.714844 83.75 C 328.019531 83.75 328.019531 83.691406 328.019531 83.300781 L 328.019531 78.796875 C 328.019531 78.46875 328.019531 78.316406 327.804688 78.316406 C 327.742188 78.316406 327.652344 78.316406 327.496094 78.554688 L 326.511719 79.960938 C 325.804688 79.273438 324.789062 78.316406 322.914062 78.316406 C 319.222656 78.316406 316.085938 81.363281 316.085938 85.242188 C 316.085938 89.179688 319.253906 92.164062 322.914062 92.164062 C 326.113281 92.164062 328.019531 89.507812 328.019531 87.300781 Z M 328.019531 87.300781 "
       id="path87" />
    <path
       style=" stroke:none;fill-rule:nonzero;fill:rgb(100%,100%,100%);fill-opacity:1;"
       d="M 370.300781 36.082031 C 370.300781 45.050781 363.023438 52.320312 354.046875 52.320312 C 345.066406 52.320312 337.789062 45.050781 337.789062 36.082031 C 337.789062 27.117188 345.066406 19.847656 354.046875 19.847656 C 363.023438 19.847656 370.300781 27.117188 370.300781 36.082031 Z M 370.300781 36.082031 "
       id="path89" />
    <g
       clip-path="url(#clip3)"
       clip-rule="nonzero"
       id="g93">
      <path
         style="fill:none;stroke-width:1.984252;stroke-linecap:butt;stroke-linejoin:miter;stroke:rgb(0%,0%,0%);stroke-opacity:0.96875;stroke-miterlimit:4;"
         d="M 429.550981 216.832802 C 429.550981 225.801552 422.273638 233.071084 413.297075 233.071084 C 404.316606 233.071084 397.039263 225.801552 397.039263 216.832802 C 397.039263 207.867959 404.316606 200.598427 413.297075 200.598427 C 422.273638 200.598427 429.550981 207.867959 429.550981 216.832802 Z M 429.550981 216.832802 "
         transform="matrix(1,0,0,1,-59.2502,-180.750771)"
         id="path91" />
    </g>
    <path
       style=" stroke:none;fill-rule:nonzero;fill:rgb(0%,0%,0%);fill-opacity:1;"
       d="M 359.683594 38.199219 C 359.683594 38.019531 359.683594 37.871094 359.4375 37.871094 C 359.222656 37.871094 359.222656 37.988281 359.191406 38.199219 C 359.039062 40.914062 356.945312 42.464844 354.792969 42.464844 C 353.59375 42.464844 349.75 41.839844 349.75 36.140625 C 349.75 30.46875 353.59375 29.8125 354.792969 29.8125 C 356.917969 29.8125 358.667969 31.542969 359.070312 34.320312 C 359.101562 34.585938 359.101562 34.648438 359.378906 34.648438 C 359.683594 34.648438 359.683594 34.585938 359.683594 34.199219 L 359.683594 29.691406 C 359.683594 29.363281 359.683594 29.214844 359.46875 29.214844 C 359.40625 29.214844 359.316406 29.214844 359.160156 29.453125 L 358.175781 30.855469 C 357.46875 30.171875 356.453125 29.214844 354.578125 29.214844 C 350.886719 29.214844 347.75 32.257812 347.75 36.140625 C 347.75 40.078125 350.917969 43.0625 354.578125 43.0625 C 357.777344 43.0625 359.683594 40.40625 359.683594 38.199219 Z M 359.683594 38.199219 "
       id="path95" />
    <path
       style="fill-rule:nonzero;fill:rgb(100%,100%,100%);fill-opacity:1;stroke-width:1.984252;stroke-linecap:butt;stroke-linejoin:miter;stroke:rgb(0%,0%,0%);stroke-opacity:0.96875;stroke-miterlimit:4;"
       d="M 425.523638 319.129677 C 425.523638 328.094521 418.246294 335.364052 409.269731 335.364052 C 400.293169 335.364052 393.015825 328.094521 393.015825 319.129677 C 393.015825 310.160927 400.293169 302.891396 409.269731 302.891396 C 418.246294 302.891396 425.523638 310.160927 425.523638 319.129677 Z M 425.523638 319.129677 "
       transform="matrix(1,0,0,1,-59.2502,-180.750771)"
       id="path97" />
    <path
       style=" stroke:none;fill-rule:nonzero;fill:rgb(0%,0%,0%);fill-opacity:1;"
       d="M 355.660156 140.492188 C 355.660156 140.3125 355.660156 140.164062 355.414062 140.164062 C 355.199219 140.164062 355.199219 140.285156 355.167969 140.492188 C 355.011719 143.207031 352.921875 144.761719 350.769531 144.761719 C 349.570312 144.761719 345.722656 144.132812 345.722656 138.433594 C 345.722656 132.761719 349.570312 132.105469 350.769531 132.105469 C 352.890625 132.105469 354.644531 133.835938 355.042969 136.613281 C 355.074219 136.882812 355.074219 136.941406 355.351562 136.941406 C 355.660156 136.941406 355.660156 136.882812 355.660156 136.492188 L 355.660156 131.988281 C 355.660156 131.660156 355.660156 131.507812 355.445312 131.507812 C 355.382812 131.507812 355.289062 131.507812 355.136719 131.75 L 354.152344 133.152344 C 353.445312 132.464844 352.429688 131.507812 350.554688 131.507812 C 346.863281 131.507812 343.722656 134.554688 343.722656 138.433594 C 343.722656 142.375 346.890625 145.359375 350.554688 145.359375 C 353.75 145.359375 355.660156 142.703125 355.660156 140.492188 Z M 355.660156 140.492188 "
       id="path99" />
    <path
       style="fill-rule:nonzero;fill:rgb(100%,100%,100%);fill-opacity:1;stroke-width:1.984252;stroke-linecap:butt;stroke-linejoin:miter;stroke:rgb(0%,0%,0%);stroke-opacity:0.96875;stroke-miterlimit:4;"
       d="M 419.633013 429.196084 C 419.633013 438.164834 412.351763 445.434365 403.3752 445.434365 C 394.398638 445.434365 387.121294 438.164834 387.121294 429.196084 C 387.121294 420.23124 394.398638 412.961709 403.3752 412.961709 C 412.351763 412.961709 419.633013 420.23124 419.633013 429.196084 Z M 419.633013 429.196084 "
       transform="matrix(1,0,0,1,-59.2502,-180.750771)"
       id="path101" />
    <path
       style=" stroke:none;fill-rule:nonzero;fill:rgb(0%,0%,0%);fill-opacity:1;"
       d="M 349.765625 250.5625 C 349.765625 250.382812 349.765625 250.234375 349.519531 250.234375 C 349.304688 250.234375 349.304688 250.355469 349.273438 250.5625 C 349.117188 253.277344 347.027344 254.832031 344.875 254.832031 C 343.675781 254.832031 339.828125 254.203125 339.828125 248.503906 C 339.828125 242.832031 343.675781 242.175781 344.875 242.175781 C 346.996094 242.175781 348.75 243.90625 349.148438 246.683594 C 349.179688 246.953125 349.179688 247.011719 349.457031 247.011719 C 349.765625 247.011719 349.765625 246.953125 349.765625 246.5625 L 349.765625 242.054688 C 349.765625 241.726562 349.765625 241.578125 349.550781 241.578125 C 349.488281 241.578125 349.394531 241.578125 349.242188 241.816406 L 348.257812 243.21875 C 347.550781 242.535156 346.535156 241.578125 344.660156 241.578125 C 340.96875 241.578125 337.828125 244.625 337.828125 248.503906 C 337.828125 252.441406 340.996094 255.425781 344.660156 255.425781 C 347.855469 255.425781 349.765625 252.769531 349.765625 250.5625 Z M 349.765625 250.5625 "
       id="path103" />
  </g>
</svg>
