<?xml version="1.0" encoding="UTF-8" standalone="no"?>
<svg
   xmlns:dc="http://purl.org/dc/elements/1.1/"
   xmlns:cc="http://creativecommons.org/ns#"
   xmlns:rdf="http://www.w3.org/1999/02/22-rdf-syntax-ns#"
   xmlns:svg="http://www.w3.org/2000/svg"
   xmlns="http://www.w3.org/2000/svg"
   xmlns:sodipodi="http://sodipodi.sourceforge.net/DTD/sodipodi-0.dtd"
   xmlns:inkscape="http://www.inkscape.org/namespaces/inkscape"
   width="174.5pt"
   height="165.5pt"
   viewBox="0 0 174.5 165.5"
   version="1.2"
   id="svg129"
   sodipodi:docname="fccc.svg"
   inkscape:version="0.92.3 (2405546, 2018-03-11)">
  <metadata
     id="metadata135">
    <rdf:RDF>
      <cc:Work
         rdf:about="">
        <dc:format>image/svg+xml</dc:format>
        <dc:type
           rdf:resource="http://purl.org/dc/dcmitype/StillImage" />
        <dc:title></dc:title>
      </cc:Work>
    </rdf:RDF>
  </metadata>
  <defs
     id="defs133" />
  <sodipodi:namedview
     pagecolor="#ffffff"
     bordercolor="#666666"
     borderopacity="1"
     objecttolerance="10"
     gridtolerance="10"
     guidetolerance="10"
     inkscape:pageopacity="0"
     inkscape:pageshadow="2"
     inkscape:window-width="740"
     inkscape:window-height="480"
     id="namedview131"
     showgrid="false"
     inkscape:zoom="1.0694864"
     inkscape:cx="116.33333"
     inkscape:cy="110.33333"
     inkscape:window-x="65"
     inkscape:window-y="24"
     inkscape:window-maximized="0"
     inkscape:current-layer="svg129" />
  <g
     id="surface326">
    <path
       style="fill:none;stroke-width:1.069654;stroke-linecap:butt;stroke-linejoin:miter;stroke:rgb(0%,0%,0%);stroke-opacity:1;stroke-miterlimit:2.613;"
       d="M 113.138326 97.601562 L 113.138326 132.902344 L 81.903435 161.78125 "
       transform="matrix(0.996982,0,0,1,-71.5,-28.5)"
       id="path2" />
    <path
       style="fill:none;stroke-width:1.069654;stroke-linecap:butt;stroke-linejoin:miter;stroke:rgb(0%,0%,0%);stroke-opacity:1;stroke-miterlimit:2.613;"
       d="M 231.013605 148.730469 L 187.158595 129.90625 L 156.566267 155.578125 L 113.138326 132.902344 L 159.563594 95.464844 L 142.018455 39.628906 "
       transform="matrix(0.996982,0,0,1,-71.5,-28.5)"
       id="path4" />
    <path
       style="fill:none;stroke-width:1.069654;stroke-linecap:butt;stroke-linejoin:miter;stroke:rgb(0%,0%,0%);stroke-opacity:1;stroke-miterlimit:2.613;"
       d="M 187.158595 130.761719 L 187.158595 94.179688 L 142.018455 75.140625 L 113.138326 97.601562 "
       transform="matrix(0.996982,0,0,1,-71.5,-28.5)"
       id="path6" />
    <path
       style="fill:none;stroke-width:1.069654;stroke-linecap:butt;stroke-linejoin:miter;stroke:rgb(0%,0%,0%);stroke-opacity:1;stroke-miterlimit:2.613;"
       d="M 187.158595 130.121094 L 200.421278 112.148438 L 159.563594 95.464844 "
       transform="matrix(0.996982,0,0,1,-71.5,-28.5)"
       id="path8" />
    <path
       style="fill:none;stroke-width:1.329976;stroke-linecap:butt;stroke-linejoin:miter;stroke:rgb(0%,0%,0%);stroke-opacity:1;stroke-miterlimit:4;"
       d="M 81.445312 69.149778 L 81.445312 165.276486 L 170.171875 180.098275 L 170.597656 80.26612 Z M 81.445312 69.149778 "
       transform="matrix(1,0,0,0.981452,-71.5,-28.5)"
       id="path10" />
    <path
       style="fill:none;stroke-width:1.329976;stroke-linecap:butt;stroke-linejoin:miter;stroke:rgb(0%,0%,0%);stroke-opacity:1;stroke-miterlimit:4;"
       d="M 141.589844 40.377834 L 230.742188 51.7091 L 170.597656 80.26612 "
       transform="matrix(1,0,0,0.981452,-71.5,-28.5)"
       id="path12" />
    <path
       style="fill:none;stroke-width:1.329976;stroke-linecap:butt;stroke-linejoin:miter;stroke:rgb(0%,0%,0%);stroke-opacity:1;stroke-miterlimit:4;"
       d="M 81.445312 69.149778 L 141.589844 40.377834 "
       transform="matrix(1,0,0,0.981452,-71.5,-28.5)"
       id="path14" />
    <path
       style="fill:none;stroke-width:1.329976;stroke-linecap:butt;stroke-linejoin:miter;stroke:rgb(0%,0%,0%);stroke-opacity:1;stroke-miterlimit:4;"
       d="M 230.742188 51.7091 L 230.742188 151.326332 "
       transform="matrix(1,0,0,0.981452,-71.5,-28.5)"
       id="path16" />
    <path
       style="fill:none;stroke-width:1.329976;stroke-linecap:butt;stroke-linejoin:miter;stroke:rgb(0%,0%,0%);stroke-opacity:1;stroke-miterlimit:4;"
       d="M 170.171875 180.098275 L 230.742188 151.326332 "
       transform="matrix(1,0,0,0.981452,-71.5,-28.5)"
       id="path18" />
    <path
       style="fill:none;stroke-width:1.329976;stroke-linecap:butt;stroke-linejoin:miter;stroke:rgb(0%,0%,0%);stroke-opacity:1;stroke-dasharray:1.329976,1.329976;stroke-miterlimit:4;"
       d="M 82.085938 164.838678 L 142.015625 136.719466 "
       transform="matrix(1,0,0,0.981452,-71.5,-28.5)"
       id="path20" />
    <path
       style="fill:none;stroke-width:1.329976;stroke-linecap:butt;stroke-linejoin:miter;stroke:rgb(0%,0%,0%);stroke-opacity:1;stroke-dasharray:1.329976,1.329976;stroke-miterlimit:4;"
       d="M 142.015625 136.719466 L 141.589844 40.377834 "
       transform="matrix(1,0,0,0.981452,-71.5,-28.5)"
       id="path22" />
    <path
       style="fill:none;stroke-width:1.329976;stroke-linecap:butt;stroke-linejoin:miter;stroke:rgb(0%,0%,0%);stroke-opacity:1;stroke-dasharray:1.329976,1.329976;stroke-miterlimit:4;"
       d="M 142.015625 136.719466 L 230.742188 151.326332 "
       transform="matrix(1,0,0,0.981452,-71.5,-28.5)"
       id="path24" />
    <path
       style="fill-rule:nonzero;fill:rgb(100%,100%,100%);fill-opacity:1;stroke-width:0.96302;stroke-linecap:butt;stroke-linejoin:miter;stroke:rgb(0%,0%,0%);stroke-opacity:0.96875;stroke-miterlimit:4;"
       d="M 237.476562 51.933594 C 237.476562 55.777344 234.339844 58.890625 230.472656 58.890625 C 226.605469 58.890625 223.46875 55.777344 223.46875 51.933594 C 223.46875 48.089844 226.605469 44.972656 230.472656 44.972656 C 234.339844 44.972656 237.476562 48.089844 237.476562 51.933594 Z M 237.476562 51.933594 "
       transform="matrix(1,0,0,1,-71.5,-28.5)"
       id="path26" />
    <path
       style=" stroke:none;fill-rule:nonzero;fill:rgb(0%,0%,0%);fill-opacity:1;"
       d="M 159.667969 24.570312 C 159.667969 23.757812 159.128906 23.074219 158.445312 22.90625 L 157.390625 22.664062 C 156.875 22.535156 156.566406 22.097656 156.566406 21.621094 C 156.566406 21.042969 157.003906 20.539062 157.648438 20.539062 C 159.011719 20.539062 159.191406 21.890625 159.242188 22.25 C 159.257812 22.304688 159.257812 22.355469 159.347656 22.355469 C 159.449219 22.355469 159.449219 22.316406 159.449219 22.160156 L 159.449219 20.515625 C 159.449219 20.371094 159.449219 20.308594 159.359375 20.308594 C 159.308594 20.308594 159.296875 20.320312 159.242188 20.421875 L 158.949219 20.886719 C 158.703125 20.640625 158.367188 20.308594 157.632812 20.308594 C 156.71875 20.308594 156.039062 21.027344 156.039062 21.902344 C 156.039062 22.585938 156.476562 23.191406 157.105469 23.410156 C 157.195312 23.4375 157.621094 23.539062 158.199219 23.679688 C 158.417969 23.730469 158.664062 23.796875 158.894531 24.09375 C 159.0625 24.3125 159.152344 24.582031 159.152344 24.851562 C 159.152344 25.429688 158.742188 26.023438 158.046875 26.023438 C 157.816406 26.023438 157.183594 25.984375 156.746094 25.585938 C 156.269531 25.136719 156.242188 24.621094 156.242188 24.324219 C 156.230469 24.234375 156.167969 24.234375 156.140625 24.234375 C 156.039062 24.234375 156.039062 24.296875 156.039062 24.441406 L 156.039062 26.089844 C 156.039062 26.230469 156.039062 26.28125 156.128906 26.28125 C 156.179688 26.28125 156.191406 26.269531 156.242188 26.179688 C 156.242188 26.179688 156.269531 26.140625 156.539062 25.703125 C 156.796875 25.984375 157.324219 26.28125 158.058594 26.28125 C 159.011719 26.28125 159.667969 25.484375 159.667969 24.570312 Z M 159.667969 24.570312 "
       id="path28" />
    <path
       style=" stroke:none;fill-rule:nonzero;fill:rgb(0%,0%,0%);fill-opacity:1;"
       d="M 162.171875 26.101562 L 162.171875 25.84375 C 161.621094 25.84375 161.59375 25.804688 161.59375 25.484375 L 161.59375 22.46875 L 160.449219 22.5625 L 160.449219 22.816406 C 160.976562 22.816406 161.054688 22.871094 161.054688 23.269531 L 161.054688 25.484375 C 161.054688 25.84375 160.964844 25.84375 160.410156 25.84375 L 160.410156 26.101562 L 161.3125 26.074219 C 161.605469 26.074219 161.890625 26.089844 162.171875 26.101562 Z M 161.710938 21.144531 C 161.710938 20.914062 161.53125 20.707031 161.285156 20.707031 C 161 20.707031 160.835938 20.9375 160.835938 21.144531 C 160.835938 21.363281 161.027344 21.570312 161.273438 21.570312 C 161.554688 21.570312 161.710938 21.351562 161.710938 21.144531 Z M 161.710938 21.144531 "
       id="path30" />
    <path
       style="fill-rule:nonzero;fill:rgb(100%,100%,100%);fill-opacity:1;stroke-width:0.96302;stroke-linecap:butt;stroke-linejoin:miter;stroke:rgb(0%,0%,0%);stroke-opacity:0.96875;stroke-miterlimit:4;"
       d="M 206.8125 112.273438 C 206.8125 116.117188 203.675781 119.234375 199.808594 119.234375 C 195.941406 119.234375 192.804688 116.117188 192.804688 112.273438 C 192.804688 108.433594 195.941406 105.316406 199.808594 105.316406 C 203.675781 105.316406 206.8125 108.433594 206.8125 112.273438 Z M 206.8125 112.273438 "
       transform="matrix(1,0,0,1,-71.5,-28.5)"
       id="path32" />
    <path
       style=" stroke:none;fill-rule:nonzero;fill:rgb(0%,0%,0%);fill-opacity:1;"
       d="M 129.007812 84.910156 C 129.007812 84.101562 128.464844 83.417969 127.78125 83.25 L 126.726562 83.003906 C 126.210938 82.875 125.902344 82.4375 125.902344 81.960938 C 125.902344 81.382812 126.339844 80.882812 126.984375 80.882812 C 128.351562 80.882812 128.53125 82.234375 128.582031 82.59375 C 128.59375 82.644531 128.59375 82.695312 128.683594 82.695312 C 128.789062 82.695312 128.789062 82.65625 128.789062 82.503906 L 128.789062 80.855469 C 128.789062 80.714844 128.789062 80.648438 128.699219 80.648438 C 128.644531 80.648438 128.632812 80.664062 128.582031 80.765625 L 128.285156 81.230469 C 128.039062 80.984375 127.707031 80.648438 126.972656 80.648438 C 126.058594 80.648438 125.375 81.371094 125.375 82.246094 C 125.375 82.929688 125.8125 83.535156 126.445312 83.753906 C 126.535156 83.777344 126.957031 83.882812 127.539062 84.023438 C 127.757812 84.074219 128.003906 84.136719 128.234375 84.433594 C 128.402344 84.652344 128.492188 84.921875 128.492188 85.195312 C 128.492188 85.773438 128.078125 86.367188 127.382812 86.367188 C 127.152344 86.367188 126.519531 86.328125 126.082031 85.929688 C 125.605469 85.476562 125.582031 84.960938 125.582031 84.667969 C 125.566406 84.574219 125.503906 84.574219 125.476562 84.574219 C 125.375 84.574219 125.375 84.640625 125.375 84.78125 L 125.375 86.429688 C 125.375 86.570312 125.375 86.621094 125.464844 86.621094 C 125.515625 86.621094 125.53125 86.609375 125.582031 86.519531 C 125.582031 86.519531 125.605469 86.480469 125.878906 86.042969 C 126.136719 86.328125 126.664062 86.621094 127.398438 86.621094 C 128.351562 86.621094 129.007812 85.824219 129.007812 84.910156 Z M 129.007812 84.910156 "
       id="path34" />
    <path
       style=" stroke:none;fill-rule:nonzero;fill:rgb(0%,0%,0%);fill-opacity:1;"
       d="M 131.511719 86.441406 L 131.511719 86.183594 C 130.957031 86.183594 130.933594 86.148438 130.933594 85.824219 L 130.933594 82.8125 L 129.785156 82.902344 L 129.785156 83.160156 C 130.3125 83.160156 130.390625 83.210938 130.390625 83.609375 L 130.390625 85.824219 C 130.390625 86.183594 130.300781 86.183594 129.746094 86.183594 L 129.746094 86.441406 L 130.648438 86.417969 C 130.945312 86.417969 131.226562 86.429688 131.511719 86.441406 Z M 131.046875 81.488281 C 131.046875 81.253906 130.867188 81.046875 130.621094 81.046875 C 130.339844 81.046875 130.171875 81.28125 130.171875 81.488281 C 130.171875 81.707031 130.363281 81.910156 130.609375 81.910156 C 130.894531 81.910156 131.046875 81.691406 131.046875 81.488281 Z M 131.046875 81.488281 "
       id="path36" />
    <path
       style="fill-rule:nonzero;fill:rgb(100%,100%,100%);fill-opacity:1;stroke-width:0.96302;stroke-linecap:butt;stroke-linejoin:miter;stroke:rgb(0%,0%,0%);stroke-opacity:0.96875;stroke-miterlimit:4;"
       d="M 193.789062 130.011719 C 193.789062 133.855469 190.65625 136.972656 186.785156 136.972656 C 182.917969 136.972656 179.78125 133.855469 179.78125 130.011719 C 179.78125 126.171875 182.917969 123.054688 186.785156 123.054688 C 190.65625 123.054688 193.789062 126.171875 193.789062 130.011719 Z M 193.789062 130.011719 "
       transform="matrix(1,0,0,1,-71.5,-28.5)"
       id="path38" />
    <path
       style=" stroke:none;fill-rule:nonzero;fill:rgb(0%,0%,0%);fill-opacity:1;"
       d="M 115.984375 102.648438 C 115.984375 101.839844 115.441406 101.15625 114.761719 100.988281 L 113.703125 100.742188 C 113.1875 100.613281 112.878906 100.175781 112.878906 99.699219 C 112.878906 99.121094 113.316406 98.621094 113.960938 98.621094 C 115.328125 98.621094 115.507812 99.972656 115.558594 100.332031 C 115.570312 100.382812 115.570312 100.433594 115.660156 100.433594 C 115.765625 100.433594 115.765625 100.394531 115.765625 100.242188 L 115.765625 98.59375 C 115.765625 98.453125 115.765625 98.386719 115.675781 98.386719 C 115.621094 98.386719 115.609375 98.402344 115.558594 98.503906 L 115.261719 98.96875 C 115.019531 98.722656 114.683594 98.386719 113.949219 98.386719 C 113.035156 98.386719 112.351562 99.109375 112.351562 99.984375 C 112.351562 100.667969 112.789062 101.273438 113.421875 101.492188 C 113.511719 101.515625 113.9375 101.621094 114.515625 101.761719 C 114.734375 101.8125 114.980469 101.875 115.210938 102.171875 C 115.378906 102.390625 115.46875 102.660156 115.46875 102.933594 C 115.46875 103.511719 115.054688 104.105469 114.359375 104.105469 C 114.128906 104.105469 113.5 104.066406 113.058594 103.667969 C 112.585938 103.214844 112.558594 102.699219 112.558594 102.40625 C 112.546875 102.3125 112.480469 102.3125 112.457031 102.3125 C 112.351562 102.3125 112.351562 102.378906 112.351562 102.519531 L 112.351562 104.167969 C 112.351562 104.308594 112.351562 104.359375 112.441406 104.359375 C 112.492188 104.359375 112.507812 104.347656 112.558594 104.257812 C 112.558594 104.257812 112.585938 104.21875 112.855469 103.78125 C 113.113281 104.066406 113.640625 104.359375 114.375 104.359375 C 115.328125 104.359375 115.984375 103.5625 115.984375 102.648438 Z M 115.984375 102.648438 "
       id="path40" />
    <path
       style=" stroke:none;fill-rule:nonzero;fill:rgb(0%,0%,0%);fill-opacity:1;"
       d="M 118.488281 104.179688 L 118.488281 103.921875 C 117.933594 103.921875 117.910156 103.886719 117.910156 103.5625 L 117.910156 100.550781 L 116.761719 100.640625 L 116.761719 100.898438 C 117.289062 100.898438 117.367188 100.949219 117.367188 101.347656 L 117.367188 103.5625 C 117.367188 103.921875 117.277344 103.921875 116.722656 103.921875 L 116.722656 104.179688 L 117.625 104.15625 C 117.921875 104.15625 118.203125 104.167969 118.488281 104.179688 Z M 118.023438 99.226562 C 118.023438 98.992188 117.84375 98.785156 117.601562 98.785156 C 117.316406 98.785156 117.148438 99.019531 117.148438 99.226562 C 117.148438 99.445312 117.34375 99.648438 117.585938 99.648438 C 117.871094 99.648438 118.023438 99.429688 118.023438 99.226562 Z M 118.023438 99.226562 "
       id="path42" />
    <path
       style="fill-rule:nonzero;fill:rgb(100%,100%,100%);fill-opacity:1;stroke-width:0.96302;stroke-linecap:butt;stroke-linejoin:miter;stroke:rgb(0%,0%,0%);stroke-opacity:0.96875;stroke-miterlimit:4;"
       d="M 193.597656 94.269531 C 193.597656 98.113281 190.460938 101.230469 186.59375 101.230469 C 182.726562 101.230469 179.589844 98.113281 179.589844 94.269531 C 179.589844 90.425781 182.726562 87.3125 186.59375 87.3125 C 190.460938 87.3125 193.597656 90.425781 193.597656 94.269531 Z M 193.597656 94.269531 "
       transform="matrix(1,0,0,1,-71.5,-28.5)"
       id="path44" />
    <path
       style=" stroke:none;fill-rule:nonzero;fill:rgb(0%,0%,0%);fill-opacity:1;"
       d="M 115.792969 66.90625 C 115.792969 66.09375 115.25 65.414062 114.566406 65.246094 L 113.511719 65 C 112.996094 64.871094 112.6875 64.433594 112.6875 63.957031 C 112.6875 63.378906 113.125 62.875 113.769531 62.875 C 115.132812 62.875 115.316406 64.230469 115.367188 64.589844 C 115.378906 64.640625 115.378906 64.691406 115.46875 64.691406 C 115.574219 64.691406 115.574219 64.652344 115.574219 64.5 L 115.574219 62.851562 C 115.574219 62.710938 115.574219 62.644531 115.480469 62.644531 C 115.429688 62.644531 115.417969 62.65625 115.367188 62.761719 L 115.070312 63.222656 C 114.824219 62.980469 114.492188 62.644531 113.757812 62.644531 C 112.84375 62.644531 112.160156 63.367188 112.160156 64.242188 C 112.160156 64.921875 112.597656 65.527344 113.230469 65.746094 C 113.320312 65.773438 113.742188 65.875 114.324219 66.019531 C 114.542969 66.070312 114.785156 66.132812 115.019531 66.429688 C 115.1875 66.648438 115.277344 66.917969 115.277344 67.191406 C 115.277344 67.769531 114.863281 68.359375 114.167969 68.359375 C 113.9375 68.359375 113.304688 68.324219 112.867188 67.921875 C 112.390625 67.472656 112.367188 66.957031 112.367188 66.660156 C 112.351562 66.570312 112.289062 66.570312 112.261719 66.570312 C 112.160156 66.570312 112.160156 66.636719 112.160156 66.777344 L 112.160156 68.425781 C 112.160156 68.566406 112.160156 68.617188 112.25 68.617188 C 112.300781 68.617188 112.316406 68.605469 112.367188 68.515625 C 112.367188 68.515625 112.390625 68.476562 112.664062 68.039062 C 112.917969 68.324219 113.449219 68.617188 114.183594 68.617188 C 115.132812 68.617188 115.792969 67.820312 115.792969 66.90625 Z M 115.792969 66.90625 "
       id="path46" />
    <path
       style=" stroke:none;fill-rule:nonzero;fill:rgb(0%,0%,0%);fill-opacity:1;"
       d="M 118.296875 68.4375 L 118.296875 68.179688 C 117.742188 68.179688 117.714844 68.140625 117.714844 67.820312 L 117.714844 64.808594 L 116.570312 64.898438 L 116.570312 65.15625 C 117.097656 65.15625 117.175781 65.207031 117.175781 65.605469 L 117.175781 67.820312 C 117.175781 68.179688 117.085938 68.179688 116.53125 68.179688 L 116.53125 68.4375 L 117.433594 68.414062 C 117.730469 68.414062 118.011719 68.425781 118.296875 68.4375 Z M 117.832031 63.480469 C 117.832031 63.25 117.652344 63.042969 117.40625 63.042969 C 117.125 63.042969 116.957031 63.277344 116.957031 63.480469 C 116.957031 63.699219 117.148438 63.90625 117.394531 63.90625 C 117.679688 63.90625 117.832031 63.6875 117.832031 63.480469 Z M 117.832031 63.480469 "
       id="path48" />
    <path
       style="fill-rule:nonzero;fill:rgb(100%,100%,100%);fill-opacity:1;stroke-width:0.96302;stroke-linecap:butt;stroke-linejoin:miter;stroke:rgb(0%,0%,0%);stroke-opacity:0.96875;stroke-miterlimit:4;"
       d="M 155.53125 62.03125 C 155.53125 65.875 152.398438 68.988281 148.527344 68.988281 C 144.660156 68.988281 141.527344 65.875 141.527344 62.03125 C 141.527344 58.1875 144.660156 55.070312 148.527344 55.070312 C 152.398438 55.070312 155.53125 58.1875 155.53125 62.03125 Z M 155.53125 62.03125 "
       transform="matrix(1,0,0,1,-71.5,-28.5)"
       id="path50" />
    <path
       style=" stroke:none;fill-rule:nonzero;fill:rgb(0%,0%,0%);fill-opacity:1;"
       d="M 77.726562 34.667969 C 77.726562 33.855469 77.183594 33.171875 76.503906 33.007812 L 75.445312 32.761719 C 74.933594 32.632812 74.621094 32.195312 74.621094 31.71875 C 74.621094 31.140625 75.0625 30.636719 75.703125 30.636719 C 77.070312 30.636719 77.25 31.988281 77.300781 32.347656 C 77.3125 32.402344 77.3125 32.453125 77.40625 32.453125 C 77.507812 32.453125 77.507812 32.414062 77.507812 32.257812 L 77.507812 30.613281 C 77.507812 30.46875 77.507812 30.40625 77.417969 30.40625 C 77.367188 30.40625 77.351562 30.417969 77.300781 30.523438 L 77.003906 30.984375 C 76.761719 30.742188 76.425781 30.40625 75.691406 30.40625 C 74.777344 30.40625 74.09375 31.125 74.09375 32 C 74.09375 32.683594 74.53125 33.289062 75.164062 33.507812 C 75.253906 33.535156 75.679688 33.636719 76.257812 33.777344 C 76.476562 33.828125 76.722656 33.894531 76.953125 34.191406 C 77.121094 34.410156 77.210938 34.679688 77.210938 34.949219 C 77.210938 35.527344 76.800781 36.121094 76.105469 36.121094 C 75.871094 36.121094 75.242188 36.082031 74.804688 35.683594 C 74.328125 35.234375 74.300781 34.71875 74.300781 34.421875 C 74.289062 34.332031 74.222656 34.332031 74.199219 34.332031 C 74.09375 34.332031 74.09375 34.394531 74.09375 34.539062 L 74.09375 36.1875 C 74.09375 36.328125 74.09375 36.378906 74.183594 36.378906 C 74.238281 36.378906 74.25 36.367188 74.300781 36.277344 C 74.300781 36.277344 74.328125 36.238281 74.597656 35.800781 C 74.855469 36.082031 75.382812 36.378906 76.117188 36.378906 C 77.070312 36.378906 77.726562 35.582031 77.726562 34.667969 Z M 77.726562 34.667969 "
       id="path52" />
    <path
       style=" stroke:none;fill-rule:nonzero;fill:rgb(0%,0%,0%);fill-opacity:1;"
       d="M 80.230469 36.199219 L 80.230469 35.941406 C 79.675781 35.941406 79.652344 35.902344 79.652344 35.582031 L 79.652344 32.570312 L 78.503906 32.660156 L 78.503906 32.914062 C 79.035156 32.914062 79.109375 32.96875 79.109375 33.367188 L 79.109375 35.582031 C 79.109375 35.941406 79.019531 35.941406 78.46875 35.941406 L 78.46875 36.199219 L 79.367188 36.171875 C 79.664062 36.171875 79.949219 36.1875 80.230469 36.199219 Z M 79.765625 31.242188 C 79.765625 31.011719 79.585938 30.804688 79.34375 30.804688 C 79.058594 30.804688 78.890625 31.035156 78.890625 31.242188 C 78.890625 31.460938 79.085938 31.667969 79.328125 31.667969 C 79.613281 31.667969 79.765625 31.449219 79.765625 31.242188 Z M 79.765625 31.242188 "
       id="path54" />
    <path
       style="fill-rule:nonzero;fill:rgb(100%,100%,100%);fill-opacity:1;stroke-width:0.96302;stroke-linecap:butt;stroke-linejoin:miter;stroke:rgb(0%,0%,0%);stroke-opacity:0.96875;stroke-miterlimit:4;"
       d="M 148.785156 75.421875 C 148.785156 79.265625 145.652344 82.382812 141.78125 82.382812 C 137.914062 82.382812 134.777344 79.265625 134.777344 75.421875 C 134.777344 71.582031 137.914062 68.464844 141.78125 68.464844 C 145.652344 68.464844 148.785156 71.582031 148.785156 75.421875 Z M 148.785156 75.421875 "
       transform="matrix(1,0,0,1,-71.5,-28.5)"
       id="path56" />
    <path
       style=" stroke:none;fill-rule:nonzero;fill:rgb(0%,0%,0%);fill-opacity:1;"
       d="M 70.980469 48.058594 C 70.980469 47.25 70.4375 46.566406 69.757812 46.398438 L 68.699219 46.152344 C 68.1875 46.023438 67.875 45.585938 67.875 45.109375 C 67.875 44.53125 68.316406 44.03125 68.957031 44.03125 C 70.324219 44.03125 70.503906 45.382812 70.554688 45.742188 C 70.566406 45.792969 70.566406 45.84375 70.65625 45.84375 C 70.761719 45.84375 70.761719 45.804688 70.761719 45.652344 L 70.761719 44.003906 C 70.761719 43.863281 70.761719 43.796875 70.671875 43.796875 C 70.621094 43.796875 70.605469 43.8125 70.554688 43.914062 L 70.257812 44.378906 C 70.015625 44.132812 69.679688 43.796875 68.945312 43.796875 C 68.03125 43.796875 67.347656 44.519531 67.347656 45.394531 C 67.347656 46.078125 67.785156 46.683594 68.417969 46.902344 C 68.507812 46.925781 68.933594 47.03125 69.511719 47.171875 C 69.730469 47.222656 69.976562 47.285156 70.207031 47.582031 C 70.375 47.800781 70.464844 48.070312 70.464844 48.34375 C 70.464844 48.921875 70.054688 49.515625 69.359375 49.515625 C 69.125 49.515625 68.496094 49.476562 68.058594 49.078125 C 67.582031 48.625 67.554688 48.109375 67.554688 47.816406 C 67.542969 47.722656 67.476562 47.722656 67.453125 47.722656 C 67.347656 47.722656 67.347656 47.789062 67.347656 47.929688 L 67.347656 49.578125 C 67.347656 49.71875 67.347656 49.769531 67.4375 49.769531 C 67.492188 49.769531 67.503906 49.757812 67.554688 49.667969 C 67.554688 49.667969 67.582031 49.628906 67.851562 49.191406 C 68.109375 49.476562 68.636719 49.769531 69.371094 49.769531 C 70.324219 49.769531 70.980469 48.972656 70.980469 48.058594 Z M 70.980469 48.058594 "
       id="path58" />
    <path
       style=" stroke:none;fill-rule:nonzero;fill:rgb(0%,0%,0%);fill-opacity:1;"
       d="M 73.484375 49.589844 L 73.484375 49.332031 C 72.929688 49.332031 72.90625 49.296875 72.90625 48.972656 L 72.90625 45.960938 L 71.757812 46.050781 L 71.757812 46.308594 C 72.289062 46.308594 72.363281 46.359375 72.363281 46.757812 L 72.363281 48.972656 C 72.363281 49.332031 72.273438 49.332031 71.71875 49.332031 L 71.71875 49.589844 L 72.621094 49.566406 C 72.917969 49.566406 73.203125 49.578125 73.484375 49.589844 Z M 73.019531 44.636719 C 73.019531 44.402344 72.839844 44.195312 72.597656 44.195312 C 72.3125 44.195312 72.144531 44.429688 72.144531 44.636719 C 72.144531 44.855469 72.339844 45.058594 72.582031 45.058594 C 72.867188 45.058594 73.019531 44.839844 73.019531 44.636719 Z M 73.019531 44.636719 "
       id="path60" />
    <path
       style="fill-rule:nonzero;fill:rgb(100%,100%,100%);fill-opacity:1;stroke-width:0.96302;stroke-linecap:butt;stroke-linejoin:miter;stroke:rgb(0%,0%,0%);stroke-opacity:0.96875;stroke-miterlimit:4;"
       d="M 177.691406 78.816406 C 177.691406 82.660156 174.558594 85.777344 170.6875 85.777344 C 166.820312 85.777344 163.6875 82.660156 163.6875 78.816406 C 163.6875 74.972656 166.820312 71.859375 170.6875 71.859375 C 174.558594 71.859375 177.691406 74.972656 177.691406 78.816406 Z M 177.691406 78.816406 "
       transform="matrix(1,0,0,1,-71.5,-28.5)"
       id="path62" />
    <path
       style=" stroke:none;fill-rule:nonzero;fill:rgb(0%,0%,0%);fill-opacity:1;"
       d="M 99.886719 51.453125 C 99.886719 50.640625 99.34375 49.960938 98.664062 49.792969 L 97.605469 49.546875 C 97.09375 49.417969 96.78125 48.980469 96.78125 48.503906 C 96.78125 47.925781 97.222656 47.421875 97.863281 47.421875 C 99.230469 47.421875 99.410156 48.773438 99.460938 49.136719 C 99.472656 49.1875 99.472656 49.238281 99.566406 49.238281 C 99.667969 49.238281 99.667969 49.199219 99.667969 49.046875 L 99.667969 47.398438 C 99.667969 47.253906 99.667969 47.191406 99.578125 47.191406 C 99.527344 47.191406 99.511719 47.203125 99.460938 47.308594 L 99.164062 47.769531 C 98.921875 47.527344 98.585938 47.191406 97.851562 47.191406 C 96.9375 47.191406 96.253906 47.914062 96.253906 48.789062 C 96.253906 49.46875 96.691406 50.074219 97.324219 50.292969 C 97.414062 50.320312 97.839844 50.421875 98.417969 50.5625 C 98.636719 50.617188 98.882812 50.679688 99.113281 50.976562 C 99.28125 51.195312 99.371094 51.464844 99.371094 51.734375 C 99.371094 52.316406 98.960938 52.90625 98.265625 52.90625 C 98.03125 52.90625 97.402344 52.867188 96.964844 52.46875 C 96.488281 52.019531 96.460938 51.503906 96.460938 51.207031 C 96.449219 51.117188 96.382812 51.117188 96.359375 51.117188 C 96.253906 51.117188 96.253906 51.183594 96.253906 51.324219 L 96.253906 52.972656 C 96.253906 53.113281 96.253906 53.164062 96.34375 53.164062 C 96.398438 53.164062 96.410156 53.152344 96.460938 53.0625 C 96.460938 53.0625 96.488281 53.023438 96.757812 52.585938 C 97.015625 52.867188 97.542969 53.164062 98.277344 53.164062 C 99.230469 53.164062 99.886719 52.367188 99.886719 51.453125 Z M 99.886719 51.453125 "
       id="path64" />
    <path
       style=" stroke:none;fill-rule:nonzero;fill:rgb(0%,0%,0%);fill-opacity:1;"
       d="M 102.390625 52.984375 L 102.390625 52.726562 C 101.835938 52.726562 101.8125 52.6875 101.8125 52.367188 L 101.8125 49.355469 L 100.664062 49.445312 L 100.664062 49.703125 C 101.195312 49.703125 101.269531 49.753906 101.269531 50.152344 L 101.269531 52.367188 C 101.269531 52.726562 101.179688 52.726562 100.628906 52.726562 L 100.628906 52.984375 L 101.527344 52.957031 C 101.824219 52.957031 102.109375 52.972656 102.390625 52.984375 Z M 101.925781 48.027344 C 101.925781 47.796875 101.746094 47.589844 101.503906 47.589844 C 101.21875 47.589844 101.050781 47.820312 101.050781 48.027344 C 101.050781 48.246094 101.246094 48.453125 101.488281 48.453125 C 101.773438 48.453125 101.925781 48.234375 101.925781 48.027344 Z M 101.925781 48.027344 "
       id="path66" />
    <path
       style="fill-rule:nonzero;fill:rgb(100%,100%,100%);fill-opacity:1;stroke-width:0.96302;stroke-linecap:butt;stroke-linejoin:miter;stroke:rgb(0%,0%,0%);stroke-opacity:0.96875;stroke-miterlimit:4;"
       d="M 166.039062 95.625 C 166.039062 99.46875 162.902344 102.582031 159.035156 102.582031 C 155.167969 102.582031 152.03125 99.46875 152.03125 95.625 C 152.03125 91.78125 155.167969 88.664062 159.035156 88.664062 C 162.902344 88.664062 166.039062 91.78125 166.039062 95.625 Z M 166.039062 95.625 "
       transform="matrix(1,0,0,1,-71.5,-28.5)"
       id="path68" />
    <path
       style=" stroke:none;fill-rule:nonzero;fill:rgb(0%,0%,0%);fill-opacity:1;"
       d="M 88.234375 68.261719 C 88.234375 67.449219 87.691406 66.765625 87.007812 66.597656 L 85.953125 66.355469 C 85.4375 66.226562 85.128906 65.789062 85.128906 65.3125 C 85.128906 64.734375 85.566406 64.230469 86.210938 64.230469 C 87.574219 64.230469 87.757812 65.582031 87.808594 65.941406 C 87.820312 65.996094 87.820312 66.046875 87.910156 66.046875 C 88.011719 66.046875 88.011719 66.007812 88.011719 65.851562 L 88.011719 64.203125 C 88.011719 64.0625 88.011719 64 87.921875 64 C 87.871094 64 87.859375 64.011719 87.808594 64.113281 L 87.511719 64.578125 C 87.265625 64.332031 86.933594 64 86.199219 64 C 85.285156 64 84.601562 64.71875 84.601562 65.59375 C 84.601562 66.277344 85.039062 66.882812 85.667969 67.101562 C 85.761719 67.128906 86.183594 67.230469 86.765625 67.371094 C 86.984375 67.421875 87.226562 67.488281 87.460938 67.785156 C 87.628906 68.003906 87.71875 68.273438 87.71875 68.542969 C 87.71875 69.121094 87.304688 69.714844 86.609375 69.714844 C 86.378906 69.714844 85.746094 69.675781 85.308594 69.277344 C 84.832031 68.828125 84.808594 68.3125 84.808594 68.015625 C 84.792969 67.925781 84.730469 67.925781 84.703125 67.925781 C 84.601562 67.925781 84.601562 67.988281 84.601562 68.132812 L 84.601562 69.777344 C 84.601562 69.921875 84.601562 69.972656 84.691406 69.972656 C 84.742188 69.972656 84.753906 69.960938 84.808594 69.871094 C 84.808594 69.871094 84.832031 69.832031 85.101562 69.394531 C 85.359375 69.675781 85.890625 69.972656 86.621094 69.972656 C 87.574219 69.972656 88.234375 69.175781 88.234375 68.261719 Z M 88.234375 68.261719 "
       id="path70" />
    <path
       style=" stroke:none;fill-rule:nonzero;fill:rgb(0%,0%,0%);fill-opacity:1;"
       d="M 90.738281 69.792969 L 90.738281 69.535156 C 90.183594 69.535156 90.15625 69.496094 90.15625 69.175781 L 90.15625 66.160156 L 89.011719 66.25 L 89.011719 66.507812 C 89.539062 66.507812 89.617188 66.5625 89.617188 66.960938 L 89.617188 69.175781 C 89.617188 69.535156 89.527344 69.535156 88.972656 69.535156 L 88.972656 69.792969 L 89.875 69.765625 C 90.171875 69.765625 90.453125 69.777344 90.738281 69.792969 Z M 90.273438 64.835938 C 90.273438 64.605469 90.09375 64.398438 89.847656 64.398438 C 89.566406 64.398438 89.398438 64.628906 89.398438 64.835938 C 89.398438 65.054688 89.589844 65.261719 89.835938 65.261719 C 90.117188 65.261719 90.273438 65.042969 90.273438 64.835938 Z M 90.273438 64.835938 "
       id="path72" />
    <path
       style="fill-rule:nonzero;fill:rgb(100%,100%,100%);fill-opacity:1;stroke-width:0.96302;stroke-linecap:butt;stroke-linejoin:miter;stroke:rgb(0%,0%,0%);stroke-opacity:0.96875;stroke-miterlimit:4;"
       d="M 149.171875 39.945312 C 149.171875 43.789062 146.035156 46.90625 142.167969 46.90625 C 138.300781 46.90625 135.164062 43.789062 135.164062 39.945312 C 135.164062 36.101562 138.300781 32.988281 142.167969 32.988281 C 146.035156 32.988281 149.171875 36.101562 149.171875 39.945312 Z M 149.171875 39.945312 "
       transform="matrix(1,0,0,1,-71.5,-28.5)"
       id="path74" />
    <path
       style=" stroke:none;fill-rule:nonzero;fill:rgb(0%,0%,0%);fill-opacity:1;"
       d="M 71.363281 12.582031 C 71.363281 11.769531 70.824219 11.089844 70.140625 10.921875 L 69.085938 10.675781 C 68.570312 10.546875 68.261719 10.109375 68.261719 9.632812 C 68.261719 9.054688 68.699219 8.554688 69.34375 8.554688 C 70.707031 8.554688 70.886719 9.90625 70.9375 10.265625 C 70.953125 10.316406 70.953125 10.367188 71.042969 10.367188 C 71.144531 10.367188 71.144531 10.328125 71.144531 10.175781 L 71.144531 8.527344 C 71.144531 8.386719 71.144531 8.320312 71.054688 8.320312 C 71.003906 8.320312 70.992188 8.335938 70.9375 8.4375 L 70.644531 8.902344 C 70.398438 8.65625 70.0625 8.320312 69.328125 8.320312 C 68.414062 8.320312 67.734375 9.042969 67.734375 9.917969 C 67.734375 10.601562 68.171875 11.203125 68.800781 11.425781 C 68.890625 11.449219 69.316406 11.550781 69.894531 11.695312 C 70.117188 11.746094 70.359375 11.808594 70.589844 12.105469 C 70.757812 12.324219 70.847656 12.59375 70.847656 12.867188 C 70.847656 13.445312 70.4375 14.039062 69.742188 14.039062 C 69.511719 14.039062 68.878906 14 68.441406 13.597656 C 67.964844 13.148438 67.9375 12.632812 67.9375 12.335938 C 67.925781 12.246094 67.863281 12.246094 67.835938 12.246094 C 67.734375 12.246094 67.734375 12.3125 67.734375 12.453125 L 67.734375 14.101562 C 67.734375 14.242188 67.734375 14.292969 67.824219 14.292969 C 67.875 14.292969 67.886719 14.28125 67.9375 14.191406 C 67.9375 14.191406 67.964844 14.152344 68.234375 13.714844 C 68.492188 14 69.019531 14.292969 69.753906 14.292969 C 70.707031 14.292969 71.363281 13.496094 71.363281 12.582031 Z M 71.363281 12.582031 "
       id="path76" />
    <path
       style=" stroke:none;fill-rule:nonzero;fill:rgb(0%,0%,0%);fill-opacity:1;"
       d="M 73.867188 14.113281 L 73.867188 13.855469 C 73.316406 13.855469 73.289062 13.816406 73.289062 13.496094 L 73.289062 10.484375 L 72.144531 10.574219 L 72.144531 10.832031 C 72.671875 10.832031 72.75 10.882812 72.75 11.28125 L 72.75 13.496094 C 72.75 13.855469 72.660156 13.855469 72.105469 13.855469 L 72.105469 14.113281 L 73.007812 14.089844 C 73.300781 14.089844 73.585938 14.101562 73.867188 14.113281 Z M 73.40625 9.15625 C 73.40625 8.925781 73.226562 8.71875 72.980469 8.71875 C 72.695312 8.71875 72.53125 8.953125 72.53125 9.15625 C 72.53125 9.378906 72.722656 9.582031 72.96875 9.582031 C 73.25 9.582031 73.40625 9.363281 73.40625 9.15625 Z M 73.40625 9.15625 "
       id="path78" />
    <path
       style="fill-rule:nonzero;fill:rgb(100%,100%,100%);fill-opacity:1;stroke-width:0.96302;stroke-linecap:butt;stroke-linejoin:miter;stroke:rgb(0%,0%,0%);stroke-opacity:0.96875;stroke-miterlimit:4;"
       d="M 88.925781 67.75 C 88.925781 71.59375 85.789062 74.710938 81.921875 74.710938 C 78.050781 74.710938 74.917969 71.59375 74.917969 67.75 C 74.917969 63.910156 78.050781 60.792969 81.921875 60.792969 C 85.789062 60.792969 88.925781 63.910156 88.925781 67.75 Z M 88.925781 67.75 "
       transform="matrix(1,0,0,1,-71.5,-28.5)"
       id="path80" />
    <path
       style=" stroke:none;fill-rule:nonzero;fill:rgb(0%,0%,0%);fill-opacity:1;"
       d="M 11.117188 40.386719 C 11.117188 39.578125 10.578125 38.894531 9.894531 38.726562 L 8.839844 38.480469 C 8.324219 38.351562 8.015625 37.914062 8.015625 37.4375 C 8.015625 36.859375 8.453125 36.359375 9.097656 36.359375 C 10.460938 36.359375 10.640625 37.710938 10.691406 38.070312 C 10.707031 38.121094 10.707031 38.171875 10.796875 38.171875 C 10.898438 38.171875 10.898438 38.132812 10.898438 37.980469 L 10.898438 36.332031 C 10.898438 36.191406 10.898438 36.125 10.808594 36.125 C 10.757812 36.125 10.746094 36.140625 10.691406 36.242188 L 10.398438 36.707031 C 10.152344 36.460938 9.816406 36.125 9.082031 36.125 C 8.167969 36.125 7.488281 36.847656 7.488281 37.722656 C 7.488281 38.40625 7.925781 39.011719 8.554688 39.230469 C 8.644531 39.253906 9.070312 39.359375 9.648438 39.5 C 9.867188 39.550781 10.113281 39.613281 10.34375 39.910156 C 10.511719 40.128906 10.601562 40.398438 10.601562 40.671875 C 10.601562 41.25 10.191406 41.84375 9.496094 41.84375 C 9.261719 41.84375 8.632812 41.804688 8.195312 41.40625 C 7.71875 40.953125 7.691406 40.4375 7.691406 40.144531 C 7.679688 40.050781 7.613281 40.050781 7.589844 40.050781 C 7.488281 40.050781 7.488281 40.117188 7.488281 40.257812 L 7.488281 41.90625 C 7.488281 42.046875 7.488281 42.097656 7.578125 42.097656 C 7.628906 42.097656 7.640625 42.085938 7.691406 41.996094 C 7.691406 41.996094 7.71875 41.957031 7.988281 41.519531 C 8.246094 41.804688 8.773438 42.097656 9.507812 42.097656 C 10.460938 42.097656 11.117188 41.300781 11.117188 40.386719 Z M 11.117188 40.386719 "
       id="path82" />
    <path
       style=" stroke:none;fill-rule:nonzero;fill:rgb(0%,0%,0%);fill-opacity:1;"
       d="M 13.621094 41.917969 L 13.621094 41.660156 C 13.070312 41.660156 13.042969 41.625 13.042969 41.300781 L 13.042969 38.289062 L 11.898438 38.378906 L 11.898438 38.636719 C 12.425781 38.636719 12.503906 38.6875 12.503906 39.085938 L 12.503906 41.300781 C 12.503906 41.660156 12.410156 41.660156 11.859375 41.660156 L 11.859375 41.917969 L 12.757812 41.894531 C 13.054688 41.894531 13.339844 41.90625 13.621094 41.917969 Z M 13.160156 36.964844 C 13.160156 36.730469 12.980469 36.523438 12.734375 36.523438 C 12.449219 36.523438 12.285156 36.757812 12.285156 36.964844 C 12.285156 37.183594 12.476562 37.386719 12.722656 37.386719 C 13.003906 37.386719 13.160156 37.167969 13.160156 36.964844 Z M 13.160156 36.964844 "
       id="path84" />
    <path
       style="fill-rule:nonzero;fill:rgb(100%,100%,100%);fill-opacity:1;stroke-width:0.96302;stroke-linecap:butt;stroke-linejoin:miter;stroke:rgb(0%,0%,0%);stroke-opacity:0.96875;stroke-miterlimit:4;"
       d="M 119.792969 97.773438 C 119.792969 101.617188 116.660156 104.734375 112.792969 104.734375 C 108.921875 104.734375 105.789062 101.617188 105.789062 97.773438 C 105.789062 93.929688 108.921875 90.816406 112.792969 90.816406 C 116.660156 90.816406 119.792969 93.929688 119.792969 97.773438 Z M 119.792969 97.773438 "
       transform="matrix(1,0,0,1,-71.5,-28.5)"
       id="path86" />
    <path
       style=" stroke:none;fill-rule:nonzero;fill:rgb(0%,0%,0%);fill-opacity:1;"
       d="M 41.988281 70.410156 C 41.988281 69.597656 41.449219 68.917969 40.765625 68.75 L 39.710938 68.503906 C 39.195312 68.375 38.886719 67.9375 38.886719 67.460938 C 38.886719 66.882812 39.324219 66.378906 39.964844 66.378906 C 41.332031 66.378906 41.511719 67.730469 41.5625 68.09375 C 41.578125 68.144531 41.578125 68.195312 41.667969 68.195312 C 41.769531 68.195312 41.769531 68.15625 41.769531 68.003906 L 41.769531 66.355469 C 41.769531 66.210938 41.769531 66.148438 41.679688 66.148438 C 41.628906 66.148438 41.613281 66.160156 41.5625 66.265625 L 41.265625 66.726562 C 41.023438 66.484375 40.6875 66.148438 39.953125 66.148438 C 39.039062 66.148438 38.355469 66.871094 38.355469 67.746094 C 38.355469 68.425781 38.792969 69.03125 39.425781 69.25 C 39.515625 69.277344 39.941406 69.378906 40.519531 69.519531 C 40.738281 69.574219 40.984375 69.636719 41.214844 69.933594 C 41.382812 70.152344 41.472656 70.421875 41.472656 70.691406 C 41.472656 71.273438 41.0625 71.863281 40.367188 71.863281 C 40.132812 71.863281 39.503906 71.824219 39.066406 71.425781 C 38.589844 70.976562 38.5625 70.460938 38.5625 70.164062 C 38.550781 70.074219 38.484375 70.074219 38.460938 70.074219 C 38.355469 70.074219 38.355469 70.140625 38.355469 70.28125 L 38.355469 71.929688 C 38.355469 72.070312 38.355469 72.121094 38.445312 72.121094 C 38.5 72.121094 38.511719 72.109375 38.5625 72.019531 C 38.5625 72.019531 38.589844 71.980469 38.859375 71.542969 C 39.117188 71.824219 39.644531 72.121094 40.378906 72.121094 C 41.332031 72.121094 41.988281 71.324219 41.988281 70.410156 Z M 41.988281 70.410156 "
       id="path88" />
    <path
       style=" stroke:none;fill-rule:nonzero;fill:rgb(0%,0%,0%);fill-opacity:1;"
       d="M 44.492188 71.941406 L 44.492188 71.683594 C 43.9375 71.683594 43.914062 71.644531 43.914062 71.324219 L 43.914062 68.3125 L 42.765625 68.402344 L 42.765625 68.660156 C 43.296875 68.660156 43.371094 68.710938 43.371094 69.109375 L 43.371094 71.324219 C 43.371094 71.683594 43.28125 71.683594 42.730469 71.683594 L 42.730469 71.941406 L 43.628906 71.914062 C 43.925781 71.914062 44.210938 71.929688 44.492188 71.941406 Z M 44.03125 66.984375 C 44.03125 66.753906 43.847656 66.546875 43.605469 66.546875 C 43.320312 66.546875 43.152344 66.777344 43.152344 66.984375 C 43.152344 67.203125 43.347656 67.410156 43.589844 67.410156 C 43.875 67.410156 44.03125 67.191406 44.03125 66.984375 Z M 44.03125 66.984375 "
       id="path90" />
    <path
       style="fill-rule:nonzero;fill:rgb(100%,100%,100%);fill-opacity:1;stroke-width:0.96302;stroke-linecap:butt;stroke-linejoin:miter;stroke:rgb(0%,0%,0%);stroke-opacity:0.96875;stroke-miterlimit:4;"
       d="M 137.929688 118.359375 C 137.929688 122.203125 134.792969 125.316406 130.925781 125.316406 C 127.058594 125.316406 123.921875 122.203125 123.921875 118.359375 C 123.921875 114.515625 127.058594 111.398438 130.925781 111.398438 C 134.792969 111.398438 137.929688 114.515625 137.929688 118.359375 Z M 137.929688 118.359375 "
       transform="matrix(1,0,0,1,-71.5,-28.5)"
       id="path92" />
    <path
       style=" stroke:none;fill-rule:nonzero;fill:rgb(0%,0%,0%);fill-opacity:1;"
       d="M 60.125 90.996094 C 60.125 90.183594 59.582031 89.5 58.902344 89.332031 L 57.84375 89.089844 C 57.328125 88.960938 57.019531 88.523438 57.019531 88.046875 C 57.019531 87.46875 57.457031 86.964844 58.101562 86.964844 C 59.46875 86.964844 59.648438 88.316406 59.699219 88.675781 C 59.710938 88.726562 59.710938 88.78125 59.800781 88.78125 C 59.90625 88.78125 59.90625 88.742188 59.90625 88.585938 L 59.90625 86.9375 C 59.90625 86.796875 59.90625 86.734375 59.816406 86.734375 C 59.761719 86.734375 59.75 86.746094 59.699219 86.847656 L 59.402344 87.3125 C 59.15625 87.066406 58.824219 86.734375 58.089844 86.734375 C 57.175781 86.734375 56.492188 87.453125 56.492188 88.328125 C 56.492188 89.011719 56.929688 89.617188 57.5625 89.835938 C 57.652344 89.859375 58.078125 89.964844 58.65625 90.105469 C 58.875 90.15625 59.121094 90.222656 59.351562 90.519531 C 59.519531 90.738281 59.609375 91.007812 59.609375 91.277344 C 59.609375 91.855469 59.195312 92.449219 58.5 92.449219 C 58.269531 92.449219 57.636719 92.410156 57.199219 92.011719 C 56.722656 91.5625 56.699219 91.046875 56.699219 90.75 C 56.6875 90.660156 56.621094 90.660156 56.59375 90.660156 C 56.492188 90.660156 56.492188 90.722656 56.492188 90.867188 L 56.492188 92.511719 C 56.492188 92.65625 56.492188 92.707031 56.582031 92.707031 C 56.632812 92.707031 56.648438 92.695312 56.699219 92.601562 C 56.699219 92.601562 56.722656 92.566406 56.996094 92.128906 C 57.253906 92.410156 57.78125 92.707031 58.515625 92.707031 C 59.46875 92.707031 60.125 91.90625 60.125 90.996094 Z M 60.125 90.996094 "
       id="path94" />
    <path
       style=" stroke:none;fill-rule:nonzero;fill:rgb(0%,0%,0%);fill-opacity:1;"
       d="M 62.628906 92.527344 L 62.628906 92.269531 C 62.074219 92.269531 62.050781 92.230469 62.050781 91.90625 L 62.050781 88.894531 L 60.902344 88.984375 L 60.902344 89.242188 C 61.429688 89.242188 61.507812 89.292969 61.507812 89.695312 L 61.507812 91.90625 C 61.507812 92.269531 61.417969 92.269531 60.863281 92.269531 L 60.863281 92.527344 L 61.765625 92.5 C 62.0625 92.5 62.34375 92.511719 62.628906 92.527344 Z M 62.164062 87.570312 C 62.164062 87.339844 61.984375 87.132812 61.738281 87.132812 C 61.457031 87.132812 61.289062 87.363281 61.289062 87.570312 C 61.289062 87.789062 61.480469 87.996094 61.726562 87.996094 C 62.011719 87.996094 62.164062 87.777344 62.164062 87.570312 Z M 62.164062 87.570312 "
       id="path96" />
    <path
       style="fill-rule:nonzero;fill:rgb(100%,100%,100%);fill-opacity:1;stroke-width:0.96302;stroke-linecap:butt;stroke-linejoin:miter;stroke:rgb(0%,0%,0%);stroke-opacity:0.96875;stroke-miterlimit:4;"
       d="M 149.171875 134.226562 C 149.171875 138.070312 146.035156 141.183594 142.167969 141.183594 C 138.300781 141.183594 135.164062 138.070312 135.164062 134.226562 C 135.164062 130.382812 138.300781 127.265625 142.167969 127.265625 C 146.035156 127.265625 149.171875 130.382812 149.171875 134.226562 Z M 149.171875 134.226562 "
       transform="matrix(1,0,0,1,-71.5,-28.5)"
       id="path98" />
    <path
       style=" stroke:none;fill-rule:nonzero;fill:rgb(0%,0%,0%);fill-opacity:1;"
       d="M 71.363281 106.863281 C 71.363281 106.050781 70.824219 105.367188 70.140625 105.203125 L 69.085938 104.957031 C 68.570312 104.828125 68.261719 104.390625 68.261719 103.914062 C 68.261719 103.335938 68.699219 102.832031 69.34375 102.832031 C 70.707031 102.832031 70.886719 104.183594 70.9375 104.542969 C 70.953125 104.597656 70.953125 104.648438 71.042969 104.648438 C 71.144531 104.648438 71.144531 104.609375 71.144531 104.453125 L 71.144531 102.808594 C 71.144531 102.664062 71.144531 102.601562 71.054688 102.601562 C 71.003906 102.601562 70.992188 102.613281 70.9375 102.714844 L 70.644531 103.179688 C 70.398438 102.9375 70.0625 102.601562 69.328125 102.601562 C 68.414062 102.601562 67.734375 103.320312 67.734375 104.195312 C 67.734375 104.878906 68.171875 105.484375 68.800781 105.703125 C 68.890625 105.730469 69.316406 105.832031 69.894531 105.972656 C 70.117188 106.023438 70.359375 106.089844 70.589844 106.386719 C 70.757812 106.605469 70.847656 106.875 70.847656 107.144531 C 70.847656 107.722656 70.4375 108.316406 69.742188 108.316406 C 69.511719 108.316406 68.878906 108.277344 68.441406 107.878906 C 67.964844 107.429688 67.9375 106.914062 67.9375 106.617188 C 67.925781 106.527344 67.863281 106.527344 67.835938 106.527344 C 67.734375 106.527344 67.734375 106.589844 67.734375 106.734375 L 67.734375 108.382812 C 67.734375 108.523438 67.734375 108.574219 67.824219 108.574219 C 67.875 108.574219 67.886719 108.5625 67.9375 108.472656 C 67.9375 108.472656 67.964844 108.433594 68.234375 107.996094 C 68.492188 108.277344 69.019531 108.574219 69.753906 108.574219 C 70.707031 108.574219 71.363281 107.777344 71.363281 106.863281 Z M 71.363281 106.863281 "
       id="path100" />
    <path
       style=" stroke:none;fill-rule:nonzero;fill:rgb(0%,0%,0%);fill-opacity:1;"
       d="M 73.867188 108.394531 L 73.867188 108.136719 C 73.316406 108.136719 73.289062 108.097656 73.289062 107.777344 L 73.289062 104.761719 L 72.144531 104.855469 L 72.144531 105.109375 C 72.671875 105.109375 72.75 105.164062 72.75 105.5625 L 72.75 107.777344 C 72.75 108.136719 72.660156 108.136719 72.105469 108.136719 L 72.105469 108.394531 L 73.007812 108.367188 C 73.300781 108.367188 73.585938 108.382812 73.867188 108.394531 Z M 73.40625 103.4375 C 73.40625 103.207031 73.226562 103 72.980469 103 C 72.695312 103 72.53125 103.230469 72.53125 103.4375 C 72.53125 103.65625 72.722656 103.863281 72.96875 103.863281 C 73.25 103.863281 73.40625 103.644531 73.40625 103.4375 Z M 73.40625 103.4375 "
       id="path102" />
    <path
       style="fill-rule:nonzero;fill:rgb(100%,100%,100%);fill-opacity:1;stroke-width:0.96302;stroke-linecap:butt;stroke-linejoin:miter;stroke:rgb(0%,0%,0%);stroke-opacity:0.96875;stroke-miterlimit:4;"
       d="M 119.964844 133.003906 C 119.964844 136.84375 116.832031 139.960938 112.960938 139.960938 C 109.09375 139.960938 105.957031 136.84375 105.957031 133.003906 C 105.957031 129.160156 109.09375 126.042969 112.960938 126.042969 C 116.832031 126.042969 119.964844 129.160156 119.964844 133.003906 Z M 119.964844 133.003906 "
       transform="matrix(1,0,0,1,-71.5,-28.5)"
       id="path104" />
    <path
       style=" stroke:none;fill-rule:nonzero;fill:rgb(0%,0%,0%);fill-opacity:1;"
       d="M 42.160156 105.636719 C 42.160156 104.828125 41.617188 104.144531 40.9375 103.976562 L 39.878906 103.734375 C 39.367188 103.605469 39.054688 103.167969 39.054688 102.691406 C 39.054688 102.109375 39.492188 101.609375 40.136719 101.609375 C 41.503906 101.609375 41.683594 102.960938 41.734375 103.320312 C 41.746094 103.371094 41.746094 103.421875 41.835938 103.421875 C 41.941406 103.421875 41.941406 103.386719 41.941406 103.230469 L 41.941406 101.582031 C 41.941406 101.441406 41.941406 101.375 41.851562 101.375 C 41.800781 101.375 41.785156 101.390625 41.734375 101.492188 L 41.4375 101.957031 C 41.195312 101.710938 40.859375 101.375 40.125 101.375 C 39.210938 101.375 38.527344 102.097656 38.527344 102.972656 C 38.527344 103.65625 38.964844 104.261719 39.597656 104.480469 C 39.6875 104.503906 40.113281 104.609375 40.691406 104.75 C 40.910156 104.800781 41.15625 104.867188 41.386719 105.160156 C 41.554688 105.378906 41.644531 105.652344 41.644531 105.921875 C 41.644531 106.5 41.234375 107.09375 40.535156 107.09375 C 40.304688 107.09375 39.675781 107.054688 39.238281 106.65625 C 38.761719 106.203125 38.734375 105.691406 38.734375 105.394531 C 38.722656 105.304688 38.65625 105.304688 38.632812 105.304688 C 38.527344 105.304688 38.527344 105.367188 38.527344 105.507812 L 38.527344 107.15625 C 38.527344 107.296875 38.527344 107.351562 38.617188 107.351562 C 38.667969 107.351562 38.683594 107.335938 38.734375 107.246094 C 38.734375 107.246094 38.761719 107.207031 39.03125 106.769531 C 39.289062 107.054688 39.816406 107.351562 40.550781 107.351562 C 41.503906 107.351562 42.160156 106.550781 42.160156 105.636719 Z M 42.160156 105.636719 "
       id="path106" />
    <path
       style=" stroke:none;fill-rule:nonzero;fill:rgb(0%,0%,0%);fill-opacity:1;"
       d="M 44.664062 107.171875 L 44.664062 106.914062 C 44.109375 106.914062 44.085938 106.875 44.085938 106.550781 L 44.085938 103.539062 L 42.9375 103.628906 L 42.9375 103.886719 C 43.464844 103.886719 43.542969 103.9375 43.542969 104.335938 L 43.542969 106.550781 C 43.542969 106.914062 43.453125 106.914062 42.898438 106.914062 L 42.898438 107.171875 L 43.800781 107.144531 C 44.097656 107.144531 44.382812 107.15625 44.664062 107.171875 Z M 44.199219 102.214844 C 44.199219 101.980469 44.019531 101.777344 43.777344 101.777344 C 43.492188 101.777344 43.324219 102.007812 43.324219 102.214844 C 43.324219 102.433594 43.519531 102.636719 43.761719 102.636719 C 44.046875 102.636719 44.199219 102.417969 44.199219 102.214844 Z M 44.199219 102.214844 "
       id="path108" />
    <path
       style="fill-rule:nonzero;fill:rgb(100%,100%,100%);fill-opacity:1;stroke-width:0.96302;stroke-linecap:butt;stroke-linejoin:miter;stroke:rgb(0%,0%,0%);stroke-opacity:0.96875;stroke-miterlimit:4;"
       d="M 89.171875 161.851562 C 89.171875 165.695312 86.035156 168.808594 82.167969 168.808594 C 78.296875 168.808594 75.164062 165.695312 75.164062 161.851562 C 75.164062 158.007812 78.296875 154.890625 82.167969 154.890625 C 86.035156 154.890625 89.171875 158.007812 89.171875 161.851562 Z M 89.171875 161.851562 "
       transform="matrix(1,0,0,1,-71.5,-28.5)"
       id="path110" />
    <path
       style=" stroke:none;fill-rule:nonzero;fill:rgb(0%,0%,0%);fill-opacity:1;"
       d="M 11.363281 134.488281 C 11.363281 133.675781 10.824219 132.992188 10.140625 132.824219 L 9.085938 132.582031 C 8.570312 132.453125 8.261719 132.015625 8.261719 131.539062 C 8.261719 130.960938 8.699219 130.457031 9.34375 130.457031 C 10.707031 130.457031 10.886719 131.808594 10.9375 132.167969 C 10.953125 132.222656 10.953125 132.273438 11.042969 132.273438 C 11.144531 132.273438 11.144531 132.234375 11.144531 132.078125 L 11.144531 130.429688 C 11.144531 130.289062 11.144531 130.226562 11.054688 130.226562 C 11.003906 130.226562 10.992188 130.238281 10.9375 130.339844 L 10.644531 130.804688 C 10.398438 130.558594 10.0625 130.226562 9.328125 130.226562 C 8.414062 130.226562 7.734375 130.945312 7.734375 131.820312 C 7.734375 132.503906 8.171875 133.109375 8.800781 133.328125 C 8.890625 133.355469 9.316406 133.457031 9.894531 133.597656 C 10.113281 133.648438 10.359375 133.714844 10.589844 134.011719 C 10.757812 134.230469 10.847656 134.5 10.847656 134.769531 C 10.847656 135.347656 10.4375 135.941406 9.742188 135.941406 C 9.507812 135.941406 8.878906 135.902344 8.441406 135.503906 C 7.964844 135.054688 7.9375 134.539062 7.9375 134.242188 C 7.925781 134.152344 7.859375 134.152344 7.835938 134.152344 C 7.734375 134.152344 7.734375 134.214844 7.734375 134.359375 L 7.734375 136.003906 C 7.734375 136.148438 7.734375 136.199219 7.824219 136.199219 C 7.875 136.199219 7.886719 136.1875 7.9375 136.097656 C 7.9375 136.097656 7.964844 136.058594 8.234375 135.621094 C 8.492188 135.902344 9.019531 136.199219 9.753906 136.199219 C 10.707031 136.199219 11.363281 135.402344 11.363281 134.488281 Z M 11.363281 134.488281 "
       id="path112" />
    <path
       style=" stroke:none;fill-rule:nonzero;fill:rgb(0%,0%,0%);fill-opacity:1;"
       d="M 13.867188 136.019531 L 13.867188 135.761719 C 13.316406 135.761719 13.289062 135.722656 13.289062 135.402344 L 13.289062 132.386719 L 12.144531 132.476562 L 12.144531 132.734375 C 12.671875 132.734375 12.75 132.789062 12.75 133.1875 L 12.75 135.402344 C 12.75 135.761719 12.65625 135.761719 12.105469 135.761719 L 12.105469 136.019531 L 13.003906 135.992188 C 13.300781 135.992188 13.585938 136.003906 13.867188 136.019531 Z M 13.40625 131.0625 C 13.40625 130.832031 13.226562 130.625 12.980469 130.625 C 12.695312 130.625 12.53125 130.855469 12.53125 131.0625 C 12.53125 131.28125 12.722656 131.488281 12.96875 131.488281 C 13.25 131.488281 13.40625 131.269531 13.40625 131.0625 Z M 13.40625 131.0625 "
       id="path114" />
    <path
       style="fill-rule:nonzero;fill:rgb(100%,100%,100%);fill-opacity:1;stroke-width:0.96302;stroke-linecap:butt;stroke-linejoin:miter;stroke:rgb(0%,0%,0%);stroke-opacity:0.96875;stroke-miterlimit:4;"
       d="M 163.382812 155.484375 C 163.382812 159.328125 160.246094 162.445312 156.378906 162.445312 C 152.511719 162.445312 149.375 159.328125 149.375 155.484375 C 149.375 151.640625 152.511719 148.527344 156.378906 148.527344 C 160.246094 148.527344 163.382812 151.640625 163.382812 155.484375 Z M 163.382812 155.484375 "
       transform="matrix(1,0,0,1,-71.5,-28.5)"
       id="path116" />
    <path
       style=" stroke:none;fill-rule:nonzero;fill:rgb(0%,0%,0%);fill-opacity:1;"
       d="M 85.574219 128.121094 C 85.574219 127.308594 85.035156 126.628906 84.351562 126.460938 L 83.296875 126.214844 C 82.78125 126.085938 82.472656 125.648438 82.472656 125.171875 C 82.472656 124.59375 82.910156 124.09375 83.554688 124.09375 C 84.917969 124.09375 85.097656 125.445312 85.152344 125.804688 C 85.164062 125.855469 85.164062 125.90625 85.253906 125.90625 C 85.355469 125.90625 85.355469 125.867188 85.355469 125.714844 L 85.355469 124.066406 C 85.355469 123.925781 85.355469 123.859375 85.265625 123.859375 C 85.214844 123.859375 85.203125 123.871094 85.152344 123.976562 L 84.855469 124.4375 C 84.609375 124.195312 84.273438 123.859375 83.539062 123.859375 C 82.625 123.859375 81.945312 124.582031 81.945312 125.457031 C 81.945312 126.140625 82.382812 126.742188 83.011719 126.960938 C 83.101562 126.988281 83.527344 127.089844 84.109375 127.234375 C 84.328125 127.285156 84.570312 127.347656 84.804688 127.644531 C 84.96875 127.863281 85.058594 128.132812 85.058594 128.40625 C 85.058594 128.984375 84.648438 129.574219 83.953125 129.574219 C 83.722656 129.574219 83.089844 129.539062 82.652344 129.136719 C 82.175781 128.6875 82.148438 128.171875 82.148438 127.875 C 82.136719 127.785156 82.074219 127.785156 82.046875 127.785156 C 81.945312 127.785156 81.945312 127.851562 81.945312 127.992188 L 81.945312 129.640625 C 81.945312 129.78125 81.945312 129.832031 82.035156 129.832031 C 82.085938 129.832031 82.097656 129.820312 82.148438 129.730469 C 82.148438 129.730469 82.175781 129.691406 82.445312 129.253906 C 82.703125 129.539062 83.230469 129.832031 83.964844 129.832031 C 84.917969 129.832031 85.574219 129.035156 85.574219 128.121094 Z M 85.574219 128.121094 "
       id="path118" />
    <path
       style=" stroke:none;fill-rule:nonzero;fill:rgb(0%,0%,0%);fill-opacity:1;"
       d="M 88.082031 129.652344 L 88.082031 129.394531 C 87.527344 129.394531 87.5 129.355469 87.5 129.035156 L 87.5 126.023438 L 86.355469 126.113281 L 86.355469 126.371094 C 86.882812 126.371094 86.960938 126.421875 86.960938 126.820312 L 86.960938 129.035156 C 86.960938 129.394531 86.871094 129.394531 86.316406 129.394531 L 86.316406 129.652344 L 87.21875 129.628906 C 87.511719 129.628906 87.796875 129.640625 88.082031 129.652344 Z M 87.617188 124.695312 C 87.617188 124.464844 87.4375 124.257812 87.191406 124.257812 C 86.910156 124.257812 86.742188 124.492188 86.742188 124.695312 C 86.742188 124.914062 86.933594 125.121094 87.179688 125.121094 C 87.460938 125.121094 87.617188 124.902344 87.617188 124.695312 Z M 87.617188 124.695312 "
       id="path120" />
    <path
       style="fill-rule:nonzero;fill:rgb(100%,100%,100%);fill-opacity:1;stroke-width:0.96302;stroke-linecap:butt;stroke-linejoin:miter;stroke:rgb(0%,0%,0%);stroke-opacity:0.96875;stroke-miterlimit:4;"
       d="M 177.453125 176.527344 C 177.453125 180.371094 174.316406 183.484375 170.449219 183.484375 C 166.578125 183.484375 163.445312 180.371094 163.445312 176.527344 C 163.445312 172.683594 166.578125 169.566406 170.449219 169.566406 C 174.316406 169.566406 177.453125 172.683594 177.453125 176.527344 Z M 177.453125 176.527344 "
       transform="matrix(1,0,0,1,-71.5,-28.5)"
       id="path122" />
    <path
       style=" stroke:none;fill-rule:nonzero;fill:rgb(0%,0%,0%);fill-opacity:1;"
       d="M 99.644531 149.160156 C 99.644531 148.351562 99.105469 147.667969 98.421875 147.5 L 97.367188 147.257812 C 96.851562 147.128906 96.542969 146.691406 96.542969 146.214844 C 96.542969 145.632812 96.980469 145.132812 97.625 145.132812 C 98.988281 145.132812 99.167969 146.484375 99.21875 146.84375 C 99.234375 146.894531 99.234375 146.949219 99.324219 146.949219 C 99.425781 146.949219 99.425781 146.910156 99.425781 146.753906 L 99.425781 145.105469 C 99.425781 144.964844 99.425781 144.902344 99.335938 144.902344 C 99.285156 144.902344 99.273438 144.914062 99.21875 145.015625 L 98.925781 145.480469 C 98.679688 145.234375 98.34375 144.902344 97.609375 144.902344 C 96.695312 144.902344 96.011719 145.621094 96.011719 146.496094 C 96.011719 147.179688 96.453125 147.785156 97.082031 148.003906 C 97.171875 148.027344 97.597656 148.132812 98.175781 148.273438 C 98.394531 148.324219 98.640625 148.390625 98.871094 148.6875 C 99.039062 148.90625 99.128906 149.175781 99.128906 149.445312 C 99.128906 150.023438 98.71875 150.617188 98.023438 150.617188 C 97.789062 150.617188 97.160156 150.578125 96.722656 150.179688 C 96.246094 149.726562 96.21875 149.214844 96.21875 148.917969 C 96.207031 148.828125 96.140625 148.828125 96.117188 148.828125 C 96.011719 148.828125 96.011719 148.890625 96.011719 149.035156 L 96.011719 150.679688 C 96.011719 150.824219 96.011719 150.875 96.105469 150.875 C 96.15625 150.875 96.167969 150.859375 96.21875 150.769531 C 96.21875 150.769531 96.246094 150.734375 96.515625 150.292969 C 96.773438 150.578125 97.300781 150.875 98.035156 150.875 C 98.988281 150.875 99.644531 150.074219 99.644531 149.160156 Z M 99.644531 149.160156 "
       id="path124" />
    <path
       style=" stroke:none;fill-rule:nonzero;fill:rgb(0%,0%,0%);fill-opacity:1;"
       d="M 102.148438 150.695312 L 102.148438 150.4375 C 101.597656 150.4375 101.570312 150.398438 101.570312 150.074219 L 101.570312 147.0625 L 100.425781 147.152344 L 100.425781 147.410156 C 100.953125 147.410156 101.03125 147.460938 101.03125 147.863281 L 101.03125 150.074219 C 101.03125 150.4375 100.9375 150.4375 100.386719 150.4375 L 100.386719 150.695312 L 101.285156 150.667969 C 101.582031 150.667969 101.867188 150.679688 102.148438 150.695312 Z M 101.6875 145.738281 C 101.6875 145.507812 101.503906 145.300781 101.261719 145.300781 C 100.976562 145.300781 100.808594 145.53125 100.808594 145.738281 C 100.808594 145.957031 101.003906 146.164062 101.25 146.164062 C 101.53125 146.164062 101.6875 145.945312 101.6875 145.738281 Z M 101.6875 145.738281 "
       id="path126" />
  </g>
</svg>
