<?xml version="1.0" encoding="UTF-8" standalone="no"?>
<svg
   xmlns:dc="http://purl.org/dc/elements/1.1/"
   xmlns:cc="http://creativecommons.org/ns#"
   xmlns:rdf="http://www.w3.org/1999/02/22-rdf-syntax-ns#"
   xmlns:svg="http://www.w3.org/2000/svg"
   xmlns="http://www.w3.org/2000/svg"
   xmlns:sodipodi="http://sodipodi.sourceforge.net/DTD/sodipodi-0.dtd"
   xmlns:inkscape="http://www.inkscape.org/namespaces/inkscape"
   width="190.124pt"
   height="179.25pt"
   viewBox="0 0 190.124 179.25"
   version="1.2"
   id="svg49"
   sodipodi:docname="hex.svg"
   inkscape:version="0.92.3 (2405546, 2018-03-11)">
  <metadata
     id="metadata53">
    <rdf:RDF>
      <cc:Work
         rdf:about="">
        <dc:format>image/svg+xml</dc:format>
        <dc:type
           rdf:resource="http://purl.org/dc/dcmitype/StillImage" />
        <dc:title></dc:title>
      </cc:Work>
    </rdf:RDF>
  </metadata>
  <sodipodi:namedview
     pagecolor="#ffffff"
     bordercolor="#666666"
     borderopacity="1"
     objecttolerance="10"
     gridtolerance="10"
     guidetolerance="10"
     inkscape:pageopacity="0"
     inkscape:pageshadow="2"
     inkscape:window-width="740"
     inkscape:window-height="480"
     id="namedview51"
     showgrid="false"
     inkscape:zoom="0.9874477"
     inkscape:cx="126.74933"
     inkscape:cy="119.5"
     inkscape:window-x="65"
     inkscape:window-y="24"
     inkscape:window-maximized="0"
     inkscape:current-layer="svg49" />
  <defs
     id="defs14">
    <clipPath
       id="clip1">
      <path
         d="M 0 4 L 190.125 4 L 190.125 179.25 L 0 179.25 Z M 0 4 "
         id="path2" />
    </clipPath>
    <clipPath
       id="clip2">
      <path
         d="M 38 4 L 152 4 L 152 179.25 L 38 179.25 Z M 38 4 "
         id="path5" />
    </clipPath>
    <clipPath
       id="clip3">
      <path
         d="M 37 4 L 153 4 L 153 179.25 L 37 179.25 Z M 37 4 "
         id="path8" />
    </clipPath>
    <clipPath
       id="clip4">
      <path
         d="M 0 80 L 190.125 80 L 190.125 107 L 0 107 Z M 0 80 "
         id="path11" />
    </clipPath>
  </defs>
  <g
     id="surface345">
    <g
       clip-path="url(#clip1)"
       clip-rule="nonzero"
       id="g18">
      <path
         style="fill:none;stroke-width:2.3;stroke-linecap:butt;stroke-linejoin:miter;stroke:rgb(0%,0%,0%);stroke-opacity:1;stroke-miterlimit:4;"
         d="M 0.00026875 0.00093125 L -44.38645 -75.909225 L -132.320044 -75.428756 L -175.870825 0.965775 L -131.488013 76.879838 L -43.550513 76.399369 Z M 0.00026875 0.00093125 "
         transform="matrix(1,0,0,-1,182.5427,93.9814)"
         id="path16" />
    </g>
    <g
       clip-path="url(#clip2)"
       clip-rule="nonzero"
       id="g22">
      <path
         style="fill:none;stroke-width:2.3;stroke-linecap:butt;stroke-linejoin:miter;stroke:rgb(0%,0%,0%);stroke-opacity:1;stroke-miterlimit:4;"
         d="M -0.0003125 0.0007375 L 87.10125 -152.788325 "
         transform="matrix(1,0,0,-1,51.055,17.1023)"
         id="path20" />
    </g>
    <g
       clip-path="url(#clip3)"
       clip-rule="nonzero"
       id="g26">
      <path
         style="fill:none;stroke-width:2.3;stroke-linecap:butt;stroke-linejoin:miter;stroke:rgb(0%,0%,0%);stroke-opacity:1;stroke-miterlimit:4;"
         d="M 0.0001875 0.00026875 L -88.769344 -151.827856 "
         transform="matrix(1,0,0,-1,138.992,17.5823)"
         id="path24" />
    </g>
    <g
       clip-path="url(#clip4)"
       clip-rule="nonzero"
       id="g30">
      <path
         style="fill:none;stroke-width:2.3;stroke-linecap:butt;stroke-linejoin:miter;stroke:rgb(0%,0%,0%);stroke-opacity:1;stroke-miterlimit:4;"
         d="M -0.000125 0.000675 L 175.870969 -0.964169 "
         transform="matrix(1,0,0,-1,6.672,93.0163)"
         id="path28" />
    </g>
    <path
       style="fill:none;stroke-width:2;stroke-linecap:butt;stroke-linejoin:miter;stroke:rgb(0%,0%,0%);stroke-opacity:1;stroke-miterlimit:4;"
       d="M -0.0004375 -0.00010625 C 1.327687 0.828019 2.976125 1.136612 4.519094 0.843644 C 6.058156 0.550675 7.476125 -0.343856 8.405812 -1.609481 C 9.3355 -2.875106 9.765187 -4.492294 9.5855 -6.054794 C 9.409719 -7.613388 8.620656 -9.093856 7.433156 -10.113388 C 7.323781 -10.207138 7.2105 -10.296981 7.097219 -10.382919 "
       transform="matrix(1,0,0,-1,100.602,83.3163)"
       id="path32" />
    <path
       style=" stroke:none;fill-rule:nonzero;fill:rgb(0%,0%,0%);fill-opacity:1;"
       d="M 142.902344 99.328125 C 142.582031 98.722656 142.097656 98.292969 141.320312 98.292969 C 139.332031 98.292969 137.210938 100.667969 137.210938 103.019531 C 137.210938 104.539062 138.148438 105.601562 139.464844 105.601562 C 139.816406 105.601562 140.675781 105.523438 141.695312 104.386719 C 141.828125 105.070312 142.445312 105.601562 143.253906 105.601562 C 143.871094 105.601562 144.246094 105.222656 144.542969 104.714844 C 144.8125 104.132812 145.054688 103.148438 145.054688 103.121094 C 145.054688 102.945312 144.890625 102.945312 144.839844 102.945312 C 144.675781 102.945312 144.648438 103.019531 144.597656 103.25 C 144.300781 104.285156 144.003906 105.246094 143.308594 105.246094 C 142.824219 105.246094 142.796875 104.816406 142.796875 104.511719 C 142.796875 104.160156 142.824219 104.007812 143.011719 103.300781 C 143.199219 102.640625 143.226562 102.464844 143.386719 101.855469 L 144.003906 99.605469 C 144.113281 99.152344 144.113281 99.125 144.113281 99.050781 C 144.113281 98.773438 143.925781 98.621094 143.628906 98.621094 C 143.199219 98.621094 142.957031 98.972656 142.902344 99.328125 M 141.800781 103.5 C 141.695312 103.804688 141.695312 103.832031 141.453125 104.109375 C 140.703125 104.992188 140.003906 105.246094 139.519531 105.246094 C 138.660156 105.246094 138.417969 104.359375 138.417969 103.730469 C 138.417969 102.917969 138.957031 100.945312 139.359375 100.1875 C 139.894531 99.253906 140.648438 98.644531 141.347656 98.644531 C 142.445312 98.644531 142.6875 99.960938 142.6875 100.0625 C 142.6875 100.164062 142.664062 100.265625 142.636719 100.339844 Z M 141.800781 103.5 "
       id="path34" />
    <path
       style=" stroke:none;fill-rule:nonzero;fill:rgb(0%,0%,0%);fill-opacity:1;"
       d="M 148.039062 55.386719 C 147.71875 54.773438 147.234375 54.347656 146.457031 54.347656 C 144.46875 54.347656 142.34375 56.722656 142.34375 59.078125 C 142.34375 60.597656 143.285156 61.652344 144.601562 61.652344 C 144.949219 61.652344 145.8125 61.582031 146.832031 60.441406 C 146.964844 61.128906 147.582031 61.652344 148.390625 61.652344 C 149.007812 61.652344 149.382812 61.273438 149.679688 60.769531 C 149.949219 60.1875 150.1875 59.203125 150.1875 59.179688 C 150.1875 59.003906 150.027344 59.003906 149.972656 59.003906 C 149.8125 59.003906 149.785156 59.078125 149.734375 59.304688 C 149.4375 60.34375 149.140625 61.304688 148.441406 61.304688 C 147.960938 61.304688 147.933594 60.875 147.933594 60.566406 C 147.933594 60.214844 147.960938 60.0625 148.148438 59.351562 C 148.335938 58.695312 148.363281 58.519531 148.523438 57.914062 L 149.140625 55.664062 C 149.25 55.207031 149.25 55.179688 149.25 55.105469 C 149.25 54.828125 149.0625 54.679688 148.765625 54.679688 C 148.335938 54.679688 148.09375 55.027344 148.039062 55.386719 M 146.9375 59.554688 C 146.832031 59.859375 146.832031 59.886719 146.589844 60.164062 C 145.835938 61.050781 145.140625 61.304688 144.65625 61.304688 C 143.796875 61.304688 143.554688 60.417969 143.554688 59.78125 C 143.554688 58.972656 144.089844 57.003906 144.496094 56.246094 C 145.03125 55.304688 145.785156 54.703125 146.480469 54.703125 C 147.582031 54.703125 147.824219 56.015625 147.824219 56.121094 C 147.824219 56.21875 147.796875 56.316406 147.773438 56.394531 Z M 146.9375 59.554688 "
       id="path36" />
    <path
       style="fill:none;stroke-width:1.4;stroke-linecap:butt;stroke-linejoin:miter;stroke:rgb(0%,0%,0%);stroke-opacity:1;stroke-dasharray:3.005,0.751;stroke-miterlimit:4;"
       d="M 0.0001875 0.00026875 L 0.347844 -75.913794 "
       transform="matrix(1,0,0,-1,138.992,17.5823)"
       id="path38" />
    <path
       style=" stroke:none;fill-rule:nonzero;fill:rgb(0%,0%,0%);fill-opacity:1;"
       d="M 115.738281 79.105469 L 115.738281 78.753906 C 115.738281 75.273438 117.589844 74.777344 118.367188 74.777344 C 118.714844 74.777344 119.351562 74.863281 119.679688 75.339844 C 119.449219 75.339844 118.863281 75.339844 118.863281 75.945312 C 118.863281 76.378906 119.214844 76.59375 119.542969 76.59375 C 119.777344 76.59375 120.246094 76.464844 120.246094 75.921875 C 120.246094 75.105469 119.589844 74.4375 118.339844 74.4375 C 116.417969 74.4375 114.398438 76.203125 114.398438 79.25 C 114.398438 82.949219 116.132812 83.921875 117.523438 83.921875 C 119.191406 83.921875 120.621094 82.625 120.621094 80.8125 C 120.621094 79.0625 119.285156 77.738281 117.617188 77.738281 C 116.601562 77.738281 116.042969 78.429688 115.738281 79.105469 M 117.523438 83.53125 C 116.582031 83.53125 116.132812 82.710938 116.042969 82.492188 C 115.757812 81.84375 115.757812 80.742188 115.757812 80.503906 C 115.757812 79.425781 116.253906 78.042969 117.589844 78.042969 C 117.847656 78.042969 118.53125 78.042969 119.003906 78.90625 C 119.257812 79.402344 119.257812 80.117188 119.257812 80.785156 C 119.257812 81.457031 119.257812 82.148438 119.003906 82.648438 C 118.550781 83.464844 117.875 83.53125 117.523438 83.53125 "
       id="path40" />
    <path
       style=" stroke:none;fill-rule:nonzero;fill:rgb(0%,0%,0%);fill-opacity:1;"
       d="M 128.132812 79.207031 C 128.132812 78.105469 128.058594 77.003906 127.542969 75.988281 C 126.863281 74.648438 125.621094 74.433594 125.007812 74.433594 C 124.089844 74.433594 123.007812 74.800781 122.378906 76.074219 C 121.910156 77.027344 121.839844 78.105469 121.839844 79.207031 C 121.839844 80.246094 121.882812 81.476562 122.515625 82.535156 C 123.152344 83.640625 124.257812 83.921875 124.984375 83.921875 C 125.785156 83.921875 126.929688 83.640625 127.589844 82.320312 C 128.058594 81.371094 128.132812 80.289062 128.132812 79.207031 M 124.984375 83.617188 C 124.398438 83.617188 123.507812 83.273438 123.246094 81.953125 C 123.082031 81.132812 123.082031 79.855469 123.082031 79.035156 C 123.082031 78.148438 123.082031 77.242188 123.199219 76.507812 C 123.484375 74.863281 124.609375 74.734375 124.984375 74.734375 C 125.472656 74.734375 126.464844 74.996094 126.746094 76.355469 C 126.910156 77.132812 126.910156 78.171875 126.910156 79.035156 C 126.910156 80.074219 126.910156 81.003906 126.746094 81.886719 C 126.507812 83.207031 125.667969 83.617188 124.984375 83.617188 "
       id="path42" />
    <path
       style=" stroke:none;fill-rule:nonzero;fill:rgb(0%,0%,0%);fill-opacity:1;"
       d="M 134.042969 75.53125 C 134.042969 74.363281 133.035156 73.453125 131.789062 73.453125 C 130.546875 73.453125 129.535156 74.382812 129.535156 75.507812 C 129.535156 76.675781 130.570312 77.582031 131.789062 77.582031 C 133.054688 77.582031 134.042969 76.652344 134.042969 75.53125 M 131.789062 77.105469 C 130.800781 77.105469 130.050781 76.371094 130.050781 75.53125 C 130.050781 74.621094 130.828125 73.910156 131.789062 73.910156 C 132.777344 73.910156 133.527344 74.648438 133.527344 75.507812 C 133.527344 76.414062 132.753906 77.105469 131.789062 77.105469 "
       id="path44" />
    <path
       style="fill:none;stroke-width:1.5;stroke-linecap:butt;stroke-linejoin:miter;stroke:rgb(0%,0%,0%);stroke-opacity:1;stroke-dasharray:1.5,0.75;stroke-miterlimit:4;"
       d="M -0.00046875 -0.00004375 L 66.6675 35.703081 "
       transform="matrix(1,0,0,-1,95.27,93.2773)"
       id="path46" />
  </g>
</svg>
