<?xml version="1.0" encoding="UTF-8" standalone="no"?>
<svg
   xmlns:dc="http://purl.org/dc/elements/1.1/"
   xmlns:cc="http://creativecommons.org/ns#"
   xmlns:rdf="http://www.w3.org/1999/02/22-rdf-syntax-ns#"
   xmlns:svg="http://www.w3.org/2000/svg"
   xmlns="http://www.w3.org/2000/svg"
   xmlns:sodipodi="http://sodipodi.sourceforge.net/DTD/sodipodi-0.dtd"
   xmlns:inkscape="http://www.inkscape.org/namespaces/inkscape"
   width="133.527pt"
   height="148.909pt"
   viewBox="0 0 133.527 148.909"
   version="1.2"
   id="svg73"
   sodipodi:docname="ciloblic.svg"
   inkscape:version="0.92.4 (5da689c313, 2019-01-14)">
  <metadata
     id="metadata77">
    <rdf:RDF>
      <cc:Work
         rdf:about="">
        <dc:format>image/svg+xml</dc:format>
        <dc:type
           rdf:resource="http://purl.org/dc/dcmitype/StillImage" />
        <dc:title></dc:title>
      </cc:Work>
    </rdf:RDF>
  </metadata>
  <sodipodi:namedview
     pagecolor="#ffffff"
     bordercolor="#666666"
     borderopacity="1"
     objecttolerance="10"
     gridtolerance="10"
     guidetolerance="10"
     inkscape:pageopacity="0"
     inkscape:pageshadow="2"
     inkscape:window-width="727"
     inkscape:window-height="480"
     id="namedview75"
     showgrid="false"
     inkscape:zoom="1.1886454"
     inkscape:cx="89.017995"
     inkscape:cy="99.272664"
     inkscape:window-x="0"
     inkscape:window-y="0"
     inkscape:window-maximized="0"
     inkscape:current-layer="svg73" />
  <defs
     id="defs20">
    <clipPath
       id="clip1">
      <path
         d="M 0 34 L 71 34 L 71 148.910156 L 0 148.910156 Z M 0 34 "
         id="path2" />
    </clipPath>
    <clipPath
       id="clip2">
      <path
         d="M 0 116 L 100 116 L 100 148.910156 L 0 148.910156 Z M 0 116 "
         id="path5" />
    </clipPath>
    <clipPath
       id="clip3">
      <path
         d="M 63 35 L 133.527344 35 L 133.527344 148.910156 L 63 148.910156 Z M 63 35 "
         id="path8" />
    </clipPath>
    <clipPath
       id="clip4">
      <path
         d="M 34 30 L 133.527344 30 L 133.527344 78 L 34 78 Z M 34 30 "
         id="path11" />
    </clipPath>
    <clipPath
       id="clip5">
      <path
         d="M 31 42 L 98 42 L 98 148.910156 L 31 148.910156 Z M 31 42 "
         id="path14" />
    </clipPath>
    <clipPath
       id="clip6">
      <path
         d="M 31 42 L 88 42 L 88 148.910156 L 31 148.910156 Z M 31 42 "
         id="path17" />
    </clipPath>
  </defs>
  <g
     id="surface64">
    <g
       clip-path="url(#clip1)"
       clip-rule="nonzero"
       id="g24">
      <path
         style="fill:none;stroke-width:0.567;stroke-linecap:butt;stroke-linejoin:miter;stroke:rgb(13.699341%,12.199402%,12.5%);stroke-opacity:1;stroke-miterlimit:22.926;"
         d="M -0.0018125 0.0005625 L 0.154438 -0.0892812 L -50.228375 -87.358812 L -50.384625 -87.268969 Z M -0.0018125 0.0005625 "
         transform="matrix(1,0,0,-1,51.619,52.649)"
         id="path22" />
    </g>
    <g
       clip-path="url(#clip2)"
       clip-rule="nonzero"
       id="g28">
      <path
         style="fill:none;stroke-width:0.505;stroke-linecap:butt;stroke-linejoin:miter;stroke:rgb(13.699341%,12.199402%,12.5%);stroke-opacity:1;stroke-miterlimit:22.926;"
         d="M 0.00184375 0.00025 C 22.408094 0.00025 40.579969 -3.18725 40.579969 -7.120844 C 40.579969 -11.050531 22.408094 -14.238031 0.00184375 -14.238031 C -22.408312 -14.238031 -40.576281 -11.050531 -40.576281 -7.120844 C -40.576281 -3.18725 -22.408312 0.00025 0.00184375 0.00025 Z M 0.00184375 0.00025 "
         transform="matrix(1,0,0,-1,42.088,132.719)"
         id="path26" />
    </g>
    <path
       style="fill:none;stroke-width:0.567;stroke-linecap:butt;stroke-linejoin:miter;stroke:rgb(13.699341%,12.199402%,12.5%);stroke-opacity:1;stroke-miterlimit:22.926;"
       d="M 0.0019375 0.00025 C 0.0019375 0.00025 5.271469 0.992438 5.75975 -4.245844 "
       transform="matrix(1,0,0,-1,91.709,32.344)"
       id="path30" />
    <g
       clip-path="url(#clip3)"
       clip-rule="nonzero"
       id="g34">
      <path
         style="fill:none;stroke-width:0.567;stroke-linecap:butt;stroke-linejoin:miter;stroke:rgb(13.699341%,12.199402%,12.5%);stroke-opacity:1;stroke-miterlimit:22.926;"
         d="M 0.00190625 0.00059375 L 0.15425 -0.08925 L -50.224656 -87.358781 L -50.384813 -87.268937 Z M 0.00190625 0.00059375 "
         transform="matrix(1,0,0,-1,132.127,54.067)"
         id="path32" />
    </g>
    <g
       clip-path="url(#clip4)"
       clip-rule="nonzero"
       id="g38">
      <path
         style="fill:none;stroke-width:0.507;stroke-linecap:butt;stroke-linejoin:miter;stroke:rgb(13.699341%,12.199402%,12.5%);stroke-opacity:1;stroke-miterlimit:22.926;"
         d="M 0.0018375 0.0008125 C 22.431525 0.0008125 40.611213 -3.206219 40.611213 -7.16325 C 40.611213 -11.120281 22.431525 -14.331219 0.0018375 -14.331219 C -22.431756 -14.331219 -40.611444 -11.120281 -40.611444 -7.16325 C -40.611444 -3.206219 -22.431756 0.0008125 0.0018375 0.0008125 Z M 0.0018375 0.0008125 "
         transform="matrix(1,0,0,-1,91.7091,46.743)"
         id="path36" />
    </g>
    <path
       style="fill:none;stroke-width:0.376;stroke-linecap:butt;stroke-linejoin:miter;stroke:rgb(13.699341%,12.199402%,12.5%);stroke-opacity:1;stroke-miterlimit:22.926;"
       d="M 0.00119375 0.00081875 L -0.170681 0.00081875 L 0.2551 46.317225 L 0.430881 46.317225 Z M 0.00119375 0.00081875 "
       transform="matrix(1,0,0,-1,91.7449,55.5516)"
       id="path40" />
    <path
       style=" stroke:none;fill-rule:evenodd;fill:rgb(0%,0%,0%);fill-opacity:1;"
       d="M 19.507813 90.375 L 19.460938 90.445313 L 19.433594 90.492188 L 19.414063 90.515625 L 19.402344 90.542969 L 19.378906 90.589844 L 19.363281 90.617188 L 19.367188 90.617188 L 19.355469 90.640625 L 19.34375 90.667969 L 19.351563 90.671875 L 19.339844 90.699219 L 19.324219 90.722656 L 19.328125 90.726563 L 19.3125 90.78125 L 19.316406 90.785156 L 19.3125 90.816406 L 19.304688 90.84375 L 19.316406 90.847656 L 19.308594 90.878906 L 19.304688 90.910156 L 19.3125 90.914063 L 19.308594 90.945313 L 19.308594 90.980469 L 19.316406 90.988281 C 19.351563 91.277344 19.507813 91.414063 19.574219 91.460938 C 19.816406 91.621094 20.066406 91.484375 20.199219 91.273438 C 20.429688 90.917969 20.378906 90.449219 19.976563 90.179688 C 19.484375 89.851563 18.761719 90.148438 18.222656 90.996094 C 17.21875 92.578125 17.675781 95.097656 19.097656 96.042969 C 20.007813 96.648438 21.238281 96.492188 22.023438 95.265625 C 23.085938 93.589844 22.644531 91.886719 22.523438 91.804688 C 22.460938 91.765625 22.34375 91.789063 22.300781 91.859375 C 22.253906 91.929688 22.261719 91.96875 22.296875 92.089844 C 22.714844 93.675781 21.890625 94.976563 21.8125 95.09375 C 21.335938 95.847656 20.644531 95.828125 20.03125 95.421875 C 19.621094 95.148438 18.789063 94.261719 18.421875 93.445313 C 18.066406 92.707031 18.039063 91.78125 18.460938 91.121094 C 18.714844 90.71875 19.128906 90.359375 19.507813 90.375 "
       id="path42" />
    <path
       style=" stroke:none;fill-rule:evenodd;fill:rgb(0%,0%,0%);fill-opacity:1;"
       d="M 19.859375 82.621094 L 19.824219 82.597656 L 19.800781 82.613281 L 19.789063 82.609375 L 19.769531 82.59375 L 19.746094 82.613281 L 19.734375 82.605469 L 19.730469 82.601563 L 19.703125 82.621094 L 19.6875 82.605469 L 19.664063 82.625 L 19.65625 82.621094 L 19.652344 82.621094 L 19.636719 82.640625 L 19.628906 82.632813 L 19.609375 82.652344 L 19.605469 82.652344 L 19.589844 82.671875 L 19.585938 82.671875 L 19.566406 82.695313 L 19.566406 82.691406 L 19.550781 82.714844 L 19.527344 82.738281 L 19.496094 82.785156 C 19.363281 82.996094 19.402344 83.054688 19.484375 83.210938 L 20.269531 83.832031 L 27.734375 84.296875 L 23.703125 90.644531 L 20.269531 83.832031 L 19.484375 83.210938 L 23.804688 91.75 C 23.863281 91.859375 23.886719 91.875 23.894531 91.878906 C 23.980469 91.933594 24.023438 91.863281 24.144531 91.675781 L 29.316406 83.53125 C 29.445313 83.316406 29.480469 83.269531 29.398438 83.214844 C 29.390625 83.210938 29.363281 83.195313 29.242188 83.183594 Z M 19.859375 82.621094 "
       id="path44" />
    <path
       style=" stroke:none;fill-rule:evenodd;fill:rgb(0%,0%,0%);fill-opacity:1;"
       d="M 27.34375 77.585938 L 28.046875 76.476563 C 28.191406 76.242188 28.273438 76.125 28.066406 75.988281 C 27.953125 75.914063 27.882813 76.035156 27.742188 76.246094 L 27.089844 77.285156 C 25.921875 75.90625 25.765625 75.699219 25.699219 75.660156 C 25.527344 75.546875 25.339844 75.621094 25.203125 75.832031 C 25.191406 75.855469 24.988281 76.195313 25.273438 76.546875 L 26.59375 78.0625 L 25.890625 79.171875 C 25.734375 79.410156 25.660156 79.527344 25.855469 79.652344 C 25.980469 79.734375 26.035156 79.640625 26.1875 79.40625 L 26.847656 78.367188 C 29.175781 81.121094 29.316406 81.28125 29.503906 81.40625 C 30.046875 81.765625 30.714844 81.574219 31.117188 80.9375 C 31.886719 79.730469 30.824219 78.089844 30.742188 78.035156 C 30.644531 77.96875 30.585938 78.0625 30.554688 78.109375 C 30.480469 78.230469 30.511719 78.25 30.59375 78.371094 C 31.3125 79.585938 31.164063 80.363281 30.910156 80.765625 C 30.742188 81.023438 30.535156 81.054688 30.203125 80.832031 C 29.964844 80.671875 29.90625 80.601563 29.765625 80.4375 Z M 27.34375 77.585938 "
       id="path46" />
    <path
       style="fill:none;stroke-width:0.267;stroke-linecap:butt;stroke-linejoin:miter;stroke:rgb(0%,0%,0%);stroke-opacity:1;stroke-miterlimit:4;"
       d="M 0.00190625 0.001 C 0.00190625 -0.827125 -1.994187 -1.499 -4.455125 -1.499 C -6.916062 -1.499 -8.90825 -0.827125 -8.90825 0.001 C -8.90825 0.829125 -6.916062 1.501 -4.455125 1.501 C -1.994187 1.501 0.00190625 0.829125 0.00190625 0.001 Z M 0.00190625 0.001 "
       transform="matrix(1,0,0,-1,85.752,53.376)"
       id="path48" />
    <g
       clip-path="url(#clip5)"
       clip-rule="nonzero"
       id="g52">
      <path
         style="fill:none;stroke-width:0.349;stroke-linecap:butt;stroke-linejoin:miter;stroke:rgb(13.699341%,12.199402%,12.5%);stroke-opacity:1;stroke-miterlimit:22.926;"
         d="M 0.0016375 0.000075 L 0.0797625 -0.0702375 L -43.103831 -85.898362 L -43.17805 -85.82805 Z M 0.0016375 0.000075 "
         transform="matrix(1,0,0,-1,85.7093,53.6407)"
         id="path50" />
    </g>
    <g
       clip-path="url(#clip6)"
       clip-rule="nonzero"
       id="g56">
      <path
         style="fill:none;stroke-width:0.33;stroke-linecap:butt;stroke-linejoin:miter;stroke:rgb(13.699341%,12.199402%,12.5%);stroke-opacity:1;stroke-miterlimit:22.926;"
         d="M 0.00136875 -0.000125 L 0.0834 -0.031375 L -34.182225 -86.398562 L -34.268162 -86.367312 Z M 0.00136875 -0.000125 "
         transform="matrix(1,0,0,-1,76.7916,53.1405)"
         id="path54" />
    </g>
    <path
       style=" stroke:none;fill-rule:evenodd;fill:rgb(0%,0%,0%);fill-opacity:1;"
       d="M 55.308594 79.972656 L 55.308594 79.914063 L 55.277344 79.910156 L 55.277344 79.882813 L 55.253906 79.882813 L 55.253906 79.871094 L 55.230469 79.871094 L 55.230469 79.863281 L 55.207031 79.859375 L 55.179688 79.859375 L 55.179688 79.851563 L 55.15625 79.851563 C 54.964844 79.851563 53.824219 79.949219 53.625 79.972656 C 53.507813 79.984375 53.460938 80.039063 53.460938 80.183594 C 53.460938 80.316406 53.550781 80.316406 53.75 80.316406 C 54.332031 80.316406 54.332031 80.386719 54.332031 80.5 L 54.308594 80.71875 L 53.582031 83.3125 C 53.363281 82.914063 53.023438 82.613281 52.460938 82.613281 L 52.484375 82.855469 C 53.265625 82.855469 53.433594 83.75 53.433594 83.816406 C 53.433594 83.882813 53.410156 83.953125 53.410156 84.003906 L 52.800781 86.152344 C 52.726563 86.347656 52.726563 86.367188 52.558594 86.554688 C 52.023438 87.15625 51.515625 87.332031 51.175781 87.332031 C 50.589844 87.332031 50.417969 86.730469 50.417969 86.300781 C 50.417969 85.753906 50.789063 84.410156 51.078125 83.90625 C 51.441406 83.261719 52 82.855469 52.484375 82.855469 L 52.460938 82.613281 C 51.054688 82.613281 49.546875 84.222656 49.546875 85.820313 C 49.546875 86.851563 50.230469 87.574219 51.175781 87.574219 C 51.394531 87.574219 52 87.527344 52.726563 86.75 C 52.824219 87.210938 53.265625 87.574219 53.847656 87.574219 C 54.261719 87.574219 54.527344 87.324219 54.722656 86.972656 C 54.9375 86.578125 55.085938 85.90625 55.085938 85.886719 C 55.085938 85.773438 54.988281 85.773438 54.9375 85.773438 C 54.816406 85.773438 54.816406 85.820313 54.769531 85.976563 C 54.574219 86.683594 54.355469 87.332031 53.871094 87.332031 C 53.53125 87.332031 53.507813 87.046875 53.507813 86.824219 C 53.507813 86.566406 53.507813 86.488281 53.582031 86.300781 Z M 55.308594 79.972656 "
       id="path58" />
    <path
       style=" stroke:none;fill-rule:evenodd;fill:rgb(0%,0%,0%);fill-opacity:1;"
       d="M 63.566406 85.675781 L 63.246094 85.675781 C 63.199219 85.960938 63.148438 86.214844 63.027344 86.480469 C 62.980469 86.652344 62.929688 86.742188 62.226563 86.742188 L 61.257813 86.742188 C 61.425781 86.128906 61.789063 85.601563 62.347656 84.878906 C 62.90625 84.101563 63.414063 83.347656 63.414063 82.476563 C 63.414063 80.957031 61.765625 79.730469 59.726563 79.730469 C 57.660156 79.730469 56.035156 80.980469 56.035156 82.476563 C 56.035156 83.347656 56.542969 84.101563 57.101563 84.878906 C 57.636719 85.601563 58.023438 86.128906 58.191406 86.742188 L 57.222656 86.742188 C 56.519531 86.742188 56.472656 86.652344 56.421875 86.488281 C 56.324219 86.238281 56.253906 85.953125 56.203125 85.675781 L 55.890625 85.675781 L 56.300781 87.453125 L 58.222656 87.453125 C 58.488281 87.453125 58.53125 87.453125 58.53125 87.222656 C 58.53125 86.453125 58.167969 85.492188 57.878906 84.789063 C 57.609375 84.15625 57.296875 83.289063 57.296875 82.46875 C 57.296875 80.722656 58.605469 79.976563 59.726563 79.976563 C 60.890625 79.976563 62.15625 80.761719 62.15625 82.46875 C 62.15625 83.289063 61.839844 84.125 61.476563 85.023438 C 61.304688 85.480469 60.914063 86.464844 60.914063 87.222656 C 60.914063 87.453125 60.964844 87.453125 61.230469 87.453125 L 63.148438 87.453125 Z M 63.566406 85.675781 "
       id="path60" />
    <path
       style="fill:none;stroke-width:0.846;stroke-linecap:butt;stroke-linejoin:miter;stroke:rgb(0%,0%,0%);stroke-opacity:1;stroke-dasharray:0.846,0.846;stroke-miterlimit:4;"
       d="M 0.00064375 -0.00074375 L 14.695956 46.452381 Z M 0.00064375 -0.00074375 "
       transform="matrix(1,0,0,-1,91.7767,55.6516)"
       id="path62" />
    <path
       style=" stroke:none;fill-rule:evenodd;fill:rgb(0%,0%,0%);fill-opacity:1;"
       d="M 65.691406 35.230469 L 65.660156 35.214844 L 65.660156 35.179688 L 65.632813 35.167969 L 65.632813 35.121094 L 65.597656 35.113281 L 65.597656 35.089844 L 65.566406 35.082031 L 65.566406 35.050781 L 65.535156 35.042969 L 65.535156 35.027344 L 65.503906 35.023438 L 65.503906 35.003906 L 65.46875 35 L 65.46875 34.996094 L 65.445313 34.996094 L 65.445313 34.992188 L 65.410156 34.984375 L 65.382813 34.984375 L 65.351563 34.980469 L 65.285156 34.980469 C 65.003906 34.980469 64.972656 35.050781 64.882813 35.230469 L 64.785156 36.375 L 68.964844 43.929688 L 60.582031 43.929688 L 64.785156 36.375 L 64.882813 35.230469 L 59.617188 44.710938 C 59.554688 44.839844 59.554688 44.863281 59.554688 44.875 C 59.554688 44.992188 59.648438 44.992188 59.898438 44.992188 L 70.679688 44.992188 C 70.894531 44.992188 71.015625 44.992188 71.015625 44.875 C 71.015625 44.863281 71.015625 44.839844 70.925781 44.710938 Z M 65.691406 35.230469 "
       id="path64" />
    <path
       style=" stroke:none;fill-rule:evenodd;fill:rgb(0%,0%,0%);fill-opacity:1;"
       d="M 81.769531 35.273438 L 81.769531 35.214844 L 81.738281 35.207031 L 81.738281 35.175781 L 81.707031 35.171875 L 81.707031 35.15625 L 81.675781 35.148438 L 81.675781 35.140625 L 81.644531 35.140625 L 81.644531 35.132813 L 81.613281 35.132813 L 81.613281 35.128906 C 81.523438 35.128906 81.488281 35.144531 81.300781 35.339844 L 80.582031 36.140625 C 80.179688 35.476563 79.371094 35.128906 78.339844 35.128906 C 76.378906 35.128906 74.507813 36.742188 74.507813 38.433594 C 74.507813 39.566406 75.351563 40.207031 76.128906 40.414063 L 77.777344 40.8125 C 78.371094 40.933594 79.214844 41.148438 79.214844 42.292969 C 79.214844 43.546875 77.9375 44.863281 76.441406 44.863281 C 75.445313 44.863281 73.699219 44.554688 73.699219 42.820313 C 73.699219 42.488281 73.789063 42.152344 73.789063 42.070313 C 73.824219 42.011719 73.824219 42 73.824219 41.96875 C 73.824219 41.824219 73.730469 41.816406 73.636719 41.816406 C 73.574219 41.816406 73.542969 41.824219 73.484375 41.875 C 73.417969 41.925781 72.578125 45.117188 72.578125 45.15625 C 72.578125 45.238281 72.640625 45.296875 72.730469 45.296875 C 72.824219 45.296875 72.824219 45.289063 73.011719 45.085938 L 73.757813 44.292969 C 74.449219 45.101563 75.503906 45.296875 76.410156 45.296875 C 78.5 45.296875 80.335938 43.4375 80.335938 41.710938 C 80.335938 40.738281 79.804688 40.261719 79.585938 40.070313 C 79.214844 39.75 78.996094 39.691406 77.59375 39.371094 C 77.253906 39.285156 76.722656 39.140625 76.5625 39.121094 C 76.128906 38.988281 75.632813 38.585938 75.632813 37.847656 C 75.632813 36.707031 76.875 35.519531 78.339844 35.519531 C 79.617188 35.519531 80.582031 36.121094 80.582031 37.695313 C 80.582031 38.140625 80.492188 38.390625 80.492188 38.472656 C 80.492188 38.484375 80.492188 38.613281 80.710938 38.613281 C 80.863281 38.613281 80.863281 38.570313 80.929688 38.332031 Z M 81.769531 35.273438 "
       id="path66" />
    <path
       style="fill-rule:nonzero;fill:rgb(13.699341%,12.199402%,12.5%);fill-opacity:1;stroke-width:0.567;stroke-linecap:butt;stroke-linejoin:miter;stroke:rgb(13.699341%,12.199402%,12.5%);stroke-opacity:1;stroke-miterlimit:22.926;"
       d="M 0.00140625 0.000625 L 1.419375 0.000625 L -0.631406 7.235 L -2.686094 0.000625 Z M 0.00140625 0.000625 "
       transform="matrix(1,0,0,-1,92.69,9.235)"
       id="path68" />
    <path
       style=" stroke:none;fill-rule:nonzero;fill:rgb(13.699341%,12.199402%,12.5%);fill-opacity:1;"
       d="M 107.035156 9.917969 L 108.394531 10.3125 L 108.449219 2.796875 L 104.453125 9.164063 Z M 107.035156 9.917969 "
       id="path70" />
  </g>
</svg>
