<?xml version="1.0" encoding="UTF-8" standalone="no"?>
<svg
   xmlns:dc="http://purl.org/dc/elements/1.1/"
   xmlns:cc="http://creativecommons.org/ns#"
   xmlns:rdf="http://www.w3.org/1999/02/22-rdf-syntax-ns#"
   xmlns:svg="http://www.w3.org/2000/svg"
   xmlns="http://www.w3.org/2000/svg"
   xmlns:sodipodi="http://sodipodi.sourceforge.net/DTD/sodipodi-0.dtd"
   xmlns:inkscape="http://www.inkscape.org/namespaces/inkscape"
   width="66pt"
   height="60pt"
   viewBox="0 0 66 60"
   version="1.2"
   id="svg53"
   sodipodi:docname="1.svg"
   inkscape:version="0.92.4 (5da689c313, 2019-01-14)">
  <metadata
     id="metadata59">
    <rdf:RDF>
      <cc:Work
         rdf:about="">
        <dc:format>image/svg+xml</dc:format>
        <dc:type
           rdf:resource="http://purl.org/dc/dcmitype/StillImage" />
        <dc:title></dc:title>
      </cc:Work>
    </rdf:RDF>
  </metadata>
  <defs
     id="defs57" />
  <sodipodi:namedview
     pagecolor="#ffffff"
     bordercolor="#666666"
     borderopacity="1"
     objecttolerance="10"
     gridtolerance="10"
     guidetolerance="10"
     inkscape:pageopacity="0"
     inkscape:pageshadow="2"
     inkscape:window-width="727"
     inkscape:window-height="480"
     id="namedview55"
     showgrid="false"
     inkscape:zoom="2.95"
     inkscape:cx="44"
     inkscape:cy="40"
     inkscape:window-x="506"
     inkscape:window-y="59"
     inkscape:window-maximized="0"
     inkscape:current-layer="svg53" />
  <g
     id="surface36">
    <path
       style="fill:none;stroke-width:0.751181;stroke-linecap:butt;stroke-linejoin:miter;stroke:rgb(0%,0%,0%);stroke-opacity:1;stroke-miterlimit:4;"
       d="M 138.347656 288.628677 L 186.09375 288.628677 "
       transform="matrix(1,0,0,1,-132.25,-281.249771)"
       id="path2" />
    <path
       style="fill-rule:evenodd;fill:rgb(0%,0%,0%);fill-opacity:1;stroke-width:0.200315;stroke-linecap:butt;stroke-linejoin:miter;stroke:rgb(0%,0%,0%);stroke-opacity:1;stroke-miterlimit:4;"
       d="M -185.191406 -288.628677 L -184.441406 -289.382584 L -187.070313 -288.628677 L -184.441406 -287.878677 Z M -185.191406 -288.628677 "
       transform="matrix(-1,0,0,-1,-132.25,-281.249771)"
       id="path4" />
    <path
       style="fill:none;stroke-width:0.751181;stroke-linecap:butt;stroke-linejoin:miter;stroke:rgb(0%,0%,0%);stroke-opacity:1;stroke-dasharray:0.751181,1.502362;stroke-miterlimit:4;"
       d="M 159.84375 288.495865 L 159.84375 330.683365 "
       transform="matrix(1,0,0,1,-132.25,-281.249771)"
       id="path6" />
    <path
       style="fill-rule:evenodd;fill:rgb(0%,0%,0%);fill-opacity:1;stroke-width:0.200315;stroke-linecap:butt;stroke-linejoin:miter;stroke:rgb(0%,0%,0%);stroke-opacity:1;stroke-miterlimit:4;"
       d="M -329.781021 159.84375 L -329.031021 159.09375 L -331.659927 159.84375 L -329.031021 160.59375 Z M -329.781021 159.84375 "
       transform="matrix(0,-1,1,0,-132.25,-281.249771)"
       id="path8" />
    <path
       style="fill:none;stroke-width:0.75;stroke-linecap:butt;stroke-linejoin:miter;stroke:rgb(0%,0%,0%);stroke-opacity:1;stroke-miterlimit:4;"
       d="M 159.84375 288.495865 L 173.90625 302.624771 "
       transform="matrix(1,0,0,1,-132.25,-281.249771)"
       id="path10" />
    <path
       style="fill:none;stroke-width:0.520326;stroke-linecap:butt;stroke-linejoin:miter;stroke:rgb(0%,0%,1.176453%);stroke-opacity:1;stroke-miterlimit:4;"
       d="M 178.375 304.519302 C 178.375 305.933365 177.210938 307.081802 175.777344 307.081802 C 174.339844 307.081802 173.175781 305.933365 173.175781 304.519302 C 173.175781 303.101334 174.339844 301.952896 175.777344 301.952896 C 177.210938 301.952896 178.375 303.101334 178.375 304.519302 Z M 178.375 304.519302 "
       transform="matrix(1,0,0,1,-132.25,-281.249771)"
       id="path12" />
    <path
       style="fill:none;stroke-width:0.75;stroke-linecap:butt;stroke-linejoin:miter;stroke:rgb(0%,0%,0%);stroke-opacity:1;stroke-miterlimit:4;"
       d="M 175.597656 307.163834 L 168.164063 322.898209 "
       transform="matrix(1,0,0,1,-132.25,-281.249771)"
       id="path14" />
    <path
       style="fill:none;stroke-width:0.520326;stroke-linecap:butt;stroke-linejoin:miter;stroke:rgb(0%,0%,1.176453%);stroke-opacity:1;stroke-miterlimit:4;"
       d="M 169.46875 325.316177 C 169.46875 326.734146 168.304688 327.878677 166.867188 327.878677 C 165.433594 327.878677 164.269531 326.734146 164.269531 325.316177 C 164.269531 323.898209 165.433594 322.749771 166.867188 322.749771 C 168.304688 322.749771 169.46875 323.898209 169.46875 325.316177 Z M 169.46875 325.316177 "
       transform="matrix(1,0,0,1,-132.25,-281.249771)"
       id="path16" />
    <path
       style="fill:none;stroke-width:0.75;stroke-linecap:butt;stroke-linejoin:miter;stroke:rgb(0%,0%,0%);stroke-opacity:1;stroke-dasharray:0.75,1.5;stroke-miterlimit:4;"
       d="M 176.296875 307.081802 L 176.296875 324.070084 "
       transform="matrix(1,0,0,1,-132.25,-281.249771)"
       id="path18" />
    <path
       style="fill:none;stroke-width:0.75;stroke-linecap:butt;stroke-linejoin:miter;stroke:rgb(0%,0%,0%);stroke-opacity:1;stroke-miterlimit:4;"
       d="M 160.136719 293.382584 C 161.371094 293.109146 162.277344 292.804459 162.695313 291.656021 "
       transform="matrix(1,0,0,1,-132.25,-281.249771)"
       id="path20" />
    <path
       style="fill:none;stroke-width:0.642884;stroke-linecap:butt;stroke-linejoin:miter;stroke:rgb(0%,0%,0%);stroke-opacity:1;stroke-miterlimit:4;"
       d="M 173.117188 312.476334 C 173.964844 313.41774 175.375 314.19899 176.523438 314.19899 "
       transform="matrix(1,0,0,1,-132.25,-281.249771)"
       id="path22" />
    <path
       style=" stroke:none;fill-rule:nonzero;fill:rgb(0%,0%,0%);fill-opacity:1;"
       d="M 58.074219 6.84375 C 58.109375 6.703125 58.242188 6.179688 58.632813 6.179688 C 58.660156 6.179688 58.800781 6.179688 58.917969 6.25 C 58.757813 6.285156 58.648438 6.417969 58.648438 6.558594 C 58.648438 6.648438 58.710938 6.753906 58.863281 6.753906 C 58.988281 6.753906 59.164063 6.65625 59.164063 6.425781 C 59.164063 6.132813 58.835938 6.054688 58.640625 6.054688 C 58.3125 6.054688 58.117188 6.355469 58.046875 6.480469 C 57.90625 6.109375 57.605469 6.054688 57.4375 6.054688 C 56.851563 6.054688 56.523438 6.78125 56.523438 6.921875 C 56.523438 6.984375 56.585938 6.984375 56.59375 6.984375 C 56.640625 6.984375 56.65625 6.96875 56.667969 6.921875 C 56.859375 6.320313 57.234375 6.179688 57.429688 6.179688 C 57.535156 6.179688 57.730469 6.230469 57.730469 6.558594 C 57.730469 6.738281 57.632813 7.109375 57.429688 7.90625 C 57.339844 8.25 57.136719 8.492188 56.886719 8.492188 C 56.851563 8.492188 56.726563 8.492188 56.605469 8.421875 C 56.746094 8.382813 56.871094 8.269531 56.871094 8.109375 C 56.871094 7.960938 56.746094 7.914063 56.667969 7.914063 C 56.488281 7.914063 56.355469 8.058594 56.355469 8.242188 C 56.355469 8.5 56.628906 8.613281 56.878906 8.613281 C 57.257813 8.613281 57.464844 8.214844 57.472656 8.191406 C 57.542969 8.394531 57.746094 8.613281 58.082031 8.613281 C 58.667969 8.613281 58.988281 7.886719 58.988281 7.746094 C 58.988281 7.683594 58.941406 7.683594 58.925781 7.683594 C 58.871094 7.683594 58.863281 7.710938 58.84375 7.746094 C 58.660156 8.359375 58.277344 8.492188 58.101563 8.492188 C 57.878906 8.492188 57.792969 8.3125 57.792969 8.117188 C 57.792969 7.996094 57.816406 7.871094 57.878906 7.621094 Z M 58.074219 6.84375 "
       id="path24" />
    <path
       style=" stroke:none;fill-rule:nonzero;fill:rgb(0%,0%,0%);fill-opacity:1;"
       d="M 29.117188 53.230469 C 29.144531 53.152344 29.144531 53.140625 29.144531 53.097656 C 29.144531 53 29.066406 52.945313 28.976563 52.945313 C 28.921875 52.945313 28.835938 52.984375 28.78125 53.0625 C 28.773438 53.097656 28.71875 53.265625 28.703125 53.371094 C 28.65625 53.515625 28.621094 53.671875 28.585938 53.824219 L 28.328125 54.84375 C 28.3125 54.921875 28.0625 55.320313 27.691406 55.320313 C 27.410156 55.320313 27.347656 55.074219 27.347656 54.859375 C 27.347656 54.601563 27.445313 54.25 27.628906 53.753906 C 27.71875 53.523438 27.746094 53.460938 27.746094 53.34375 C 27.746094 53.097656 27.566406 52.886719 27.285156 52.886719 C 26.742188 52.886719 26.539063 53.707031 26.539063 53.753906 C 26.539063 53.816406 26.59375 53.816406 26.601563 53.816406 C 26.664063 53.816406 26.664063 53.796875 26.691406 53.707031 C 26.851563 53.175781 27.070313 53.007813 27.265625 53.007813 C 27.3125 53.007813 27.410156 53.007813 27.410156 53.1875 C 27.410156 53.328125 27.347656 53.476563 27.3125 53.585938 C 27.082031 54.1875 26.984375 54.507813 26.984375 54.773438 C 26.984375 55.277344 27.335938 55.445313 27.675781 55.445313 C 27.894531 55.445313 28.082031 55.347656 28.242188 55.1875 C 28.171875 55.480469 28.097656 55.765625 27.878906 56.066406 C 27.726563 56.25 27.515625 56.417969 27.257813 56.417969 C 27.179688 56.417969 26.921875 56.402344 26.824219 56.179688 C 26.914063 56.179688 26.992188 56.179688 27.0625 56.109375 C 27.125 56.066406 27.179688 55.984375 27.179688 55.878906 C 27.179688 55.703125 27.027344 55.683594 26.972656 55.683594 C 26.839844 55.683594 26.65625 55.773438 26.65625 56.046875 C 26.65625 56.332031 26.902344 56.542969 27.257813 56.542969 C 27.832031 56.542969 28.417969 56.03125 28.578125 55.390625 Z M 29.117188 53.230469 "
       id="path26" />
    <path
       style=" stroke:none;fill-rule:nonzero;fill:rgb(0%,0%,0%);fill-opacity:1;"
       d="M 48.1875 23.230469 C 48.171875 23.320313 48.136719 23.453125 48.136719 23.480469 C 48.136719 23.578125 48.214844 23.628906 48.304688 23.628906 C 48.375 23.628906 48.472656 23.585938 48.515625 23.46875 C 48.515625 23.460938 48.585938 23.195313 48.621094 23.054688 L 48.746094 22.550781 C 48.773438 22.417969 48.808594 22.292969 48.84375 22.167969 C 48.863281 22.070313 48.90625 21.902344 48.914063 21.886719 C 48.996094 21.707031 49.296875 21.195313 49.835938 21.195313 C 50.09375 21.195313 50.136719 21.40625 50.136719 21.59375 C 50.136719 21.734375 50.101563 21.894531 50.058594 22.0625 L 49.898438 22.71875 L 49.78125 23.144531 C 49.765625 23.257813 49.710938 23.453125 49.710938 23.480469 C 49.710938 23.578125 49.792969 23.628906 49.871094 23.628906 C 50.046875 23.628906 50.082031 23.488281 50.128906 23.3125 C 50.207031 22.992188 50.421875 22.167969 50.464844 21.945313 C 50.484375 21.875 50.785156 21.195313 51.402344 21.195313 C 51.644531 21.195313 51.703125 21.390625 51.703125 21.59375 C 51.703125 21.910156 51.464844 22.558594 51.351563 22.859375 C 51.304688 22.992188 51.28125 23.054688 51.28125 23.167969 C 51.28125 23.433594 51.472656 23.628906 51.742188 23.628906 C 52.273438 23.628906 52.484375 22.804688 52.484375 22.761719 C 52.484375 22.699219 52.429688 22.699219 52.414063 22.699219 C 52.359375 22.699219 52.359375 22.71875 52.332031 22.804688 C 52.246094 23.105469 52.066406 23.507813 51.757813 23.507813 C 51.660156 23.507813 51.617188 23.453125 51.617188 23.320313 C 51.617188 23.179688 51.667969 23.046875 51.722656 22.921875 C 51.828125 22.621094 52.066406 22 52.066406 21.671875 C 52.066406 21.308594 51.835938 21.070313 51.414063 21.070313 C 50.996094 21.070313 50.703125 21.316406 50.492188 21.621094 C 50.492188 21.546875 50.472656 21.351563 50.3125 21.21875 C 50.171875 21.097656 49.996094 21.070313 49.855469 21.070313 C 49.339844 21.070313 49.066406 21.433594 48.96875 21.566406 C 48.941406 21.238281 48.703125 21.070313 48.445313 21.070313 C 48.1875 21.070313 48.082031 21.292969 48.027344 21.390625 C 47.929688 21.59375 47.859375 21.921875 47.859375 21.9375 C 47.859375 22 47.914063 22 47.921875 22 C 47.984375 22 47.984375 21.992188 48.019531 21.867188 C 48.117188 21.46875 48.234375 21.195313 48.4375 21.195313 C 48.523438 21.195313 48.605469 21.238281 48.605469 21.449219 C 48.605469 21.574219 48.585938 21.636719 48.515625 21.929688 Z M 48.1875 23.230469 "
       id="path28" />
    <path
       style=" stroke:none;fill-rule:nonzero;fill:rgb(0%,0%,0%);fill-opacity:1;"
       d="M 53.972656 21.898438 C 53.972656 21.792969 53.972656 21.792969 53.855469 21.792969 C 53.597656 22.042969 53.246094 22.042969 53.085938 22.042969 L 53.085938 22.183594 C 53.175781 22.183594 53.441406 22.183594 53.652344 22.078125 L 53.652344 24.085938 C 53.652344 24.21875 53.652344 24.273438 53.261719 24.273438 L 53.113281 24.273438 L 53.113281 24.414063 C 53.183594 24.414063 53.671875 24.398438 53.8125 24.398438 C 53.9375 24.398438 54.433594 24.414063 54.519531 24.414063 L 54.519531 24.273438 L 54.371094 24.273438 C 53.972656 24.273438 53.972656 24.21875 53.972656 24.085938 Z M 53.972656 21.898438 "
       id="path30" />
    <path
       style=" stroke:none;fill-rule:nonzero;fill:rgb(0%,0%,0%);fill-opacity:1;"
       d="M 32.703125 51.261719 C 32.6875 51.351563 32.652344 51.484375 32.652344 51.511719 C 32.652344 51.609375 32.730469 51.660156 32.820313 51.660156 C 32.890625 51.660156 32.988281 51.617188 33.03125 51.503906 C 33.03125 51.492188 33.101563 51.226563 33.136719 51.085938 L 33.261719 50.582031 C 33.289063 50.449219 33.324219 50.324219 33.359375 50.199219 C 33.378906 50.101563 33.421875 49.933594 33.429688 49.917969 C 33.511719 49.738281 33.8125 49.226563 34.351563 49.226563 C 34.609375 49.226563 34.652344 49.4375 34.652344 49.625 C 34.652344 49.765625 34.617188 49.925781 34.574219 50.09375 L 34.414063 50.75 L 34.300781 51.175781 C 34.28125 51.289063 34.226563 51.484375 34.226563 51.511719 C 34.226563 51.609375 34.308594 51.660156 34.386719 51.660156 C 34.566406 51.660156 34.601563 51.519531 34.644531 51.34375 C 34.722656 51.023438 34.9375 50.199219 34.980469 49.980469 C 35 49.90625 35.300781 49.226563 35.921875 49.226563 C 36.160156 49.226563 36.222656 49.421875 36.222656 49.625 C 36.222656 49.941406 35.980469 50.589844 35.867188 50.890625 C 35.824219 51.023438 35.796875 51.085938 35.796875 51.199219 C 35.796875 51.46875 35.992188 51.660156 36.257813 51.660156 C 36.789063 51.660156 37 50.839844 37 50.792969 C 37 50.730469 36.949219 50.730469 36.929688 50.730469 C 36.875 50.730469 36.875 50.75 36.851563 50.839844 C 36.761719 51.140625 36.585938 51.539063 36.273438 51.539063 C 36.175781 51.539063 36.132813 51.484375 36.132813 51.351563 C 36.132813 51.210938 36.1875 51.078125 36.238281 50.953125 C 36.34375 50.652344 36.585938 50.03125 36.585938 49.703125 C 36.585938 49.339844 36.355469 49.101563 35.929688 49.101563 C 35.511719 49.101563 35.21875 49.351563 35.007813 49.652344 C 35.007813 49.578125 34.988281 49.386719 34.832031 49.253906 C 34.6875 49.128906 34.511719 49.101563 34.371094 49.101563 C 33.855469 49.101563 33.582031 49.464844 33.484375 49.597656 C 33.457031 49.269531 33.21875 49.101563 32.960938 49.101563 C 32.703125 49.101563 32.597656 49.324219 32.546875 49.421875 C 32.449219 49.625 32.375 49.953125 32.375 49.96875 C 32.375 50.03125 32.429688 50.03125 32.4375 50.03125 C 32.5 50.03125 32.5 50.023438 32.535156 49.898438 C 32.632813 49.5 32.75 49.226563 32.953125 49.226563 C 33.042969 49.226563 33.121094 49.269531 33.121094 49.484375 C 33.121094 49.605469 33.101563 49.667969 33.03125 49.960938 Z M 32.703125 51.261719 "
       id="path32" />
    <path
       style=" stroke:none;fill-rule:nonzero;fill:rgb(0%,0%,0%);fill-opacity:1;"
       d="M 39.160156 51.730469 L 39.027344 51.730469 C 39.019531 51.816406 38.976563 52.046875 38.921875 52.085938 C 38.894531 52.109375 38.59375 52.109375 38.53125 52.109375 L 37.804688 52.109375 C 38.222656 51.746094 38.363281 51.632813 38.59375 51.445313 C 38.886719 51.214844 39.160156 50.96875 39.160156 50.597656 C 39.160156 50.117188 38.746094 49.824219 38.238281 49.824219 C 37.753906 49.824219 37.414063 50.171875 37.414063 50.535156 C 37.414063 50.730469 37.585938 50.753906 37.628906 50.753906 C 37.71875 50.753906 37.832031 50.683594 37.832031 50.542969 C 37.832031 50.472656 37.804688 50.332031 37.601563 50.332031 C 37.726563 50.054688 37.992188 49.96875 38.175781 49.96875 C 38.578125 49.96875 38.78125 50.277344 38.78125 50.597656 C 38.78125 50.941406 38.53125 51.207031 38.40625 51.347656 L 37.460938 52.296875 C 37.414063 52.332031 37.414063 52.339844 37.414063 52.449219 L 39.046875 52.449219 Z M 39.160156 51.730469 "
       id="path34" />
    <path
       style=" stroke:none;fill-rule:nonzero;fill:rgb(0%,0%,0%);fill-opacity:1;"
       d="M 30.734375 13.914063 C 30.734375 13.894531 30.75 13.835938 30.75 13.835938 C 30.75 13.824219 30.75 13.773438 30.679688 13.773438 C 30.628906 13.773438 30.617188 13.789063 30.59375 13.886719 L 30.265625 15.191406 C 29.371094 15.226563 28.539063 15.96875 28.539063 16.738281 C 28.539063 17.28125 28.9375 17.722656 29.625 17.765625 C 29.582031 17.9375 29.539063 18.121094 29.492188 18.300781 C 29.421875 18.566406 29.371094 18.777344 29.371094 18.792969 C 29.371094 18.847656 29.414063 18.855469 29.441406 18.855469 C 29.46875 18.855469 29.476563 18.847656 29.492188 18.832031 C 29.503906 18.820313 29.539063 18.6875 29.554688 18.609375 L 29.769531 17.765625 C 30.679688 17.730469 31.503906 16.96875 31.503906 16.21875 C 31.503906 15.765625 31.203125 15.25 30.414063 15.191406 Z M 29.652344 17.644531 C 29.316406 17.625 28.910156 17.421875 28.910156 16.863281 C 28.910156 16.183594 29.394531 15.394531 30.238281 15.3125 Z M 30.378906 15.3125 C 30.8125 15.339844 31.132813 15.597656 31.132813 16.09375 C 31.132813 16.765625 30.644531 17.574219 29.804688 17.644531 Z M 30.378906 15.3125 "
       id="path36" />
    <path
       style=" stroke:none;fill-rule:nonzero;fill:rgb(0%,0%,0%);fill-opacity:1;"
       d="M 32.949219 16.027344 C 32.949219 15.921875 32.949219 15.921875 32.832031 15.921875 C 32.574219 16.171875 32.222656 16.171875 32.0625 16.171875 L 32.0625 16.3125 C 32.152344 16.3125 32.417969 16.3125 32.628906 16.207031 L 32.628906 18.214844 C 32.628906 18.347656 32.628906 18.402344 32.238281 18.402344 L 32.089844 18.402344 L 32.089844 18.542969 C 32.160156 18.542969 32.648438 18.527344 32.789063 18.527344 C 32.914063 18.527344 33.410156 18.542969 33.496094 18.542969 L 33.496094 18.402344 L 33.347656 18.402344 C 32.949219 18.402344 32.949219 18.347656 32.949219 18.214844 Z M 32.949219 16.027344 "
       id="path38" />
    <path
       style=" stroke:none;fill-rule:nonzero;fill:rgb(0%,0%,0%);fill-opacity:1;"
       d="M 47.960938 27.433594 C 47.960938 27.417969 47.980469 27.355469 47.980469 27.355469 C 47.980469 27.347656 47.980469 27.292969 47.910156 27.292969 C 47.855469 27.292969 47.847656 27.3125 47.820313 27.410156 L 47.492188 28.710938 C 46.597656 28.746094 45.765625 29.488281 45.765625 30.261719 C 45.765625 30.800781 46.164063 31.242188 46.855469 31.289063 C 46.808594 31.457031 46.765625 31.644531 46.722656 31.820313 C 46.652344 32.085938 46.597656 32.296875 46.597656 32.316406 C 46.597656 32.367188 46.640625 32.378906 46.667969 32.378906 C 46.695313 32.378906 46.703125 32.367188 46.722656 32.351563 C 46.730469 32.34375 46.765625 32.210938 46.785156 32.128906 L 46.996094 31.289063 C 47.910156 31.253906 48.730469 30.492188 48.730469 29.738281 C 48.730469 29.285156 48.429688 28.773438 47.640625 28.710938 Z M 46.878906 31.164063 C 46.542969 31.148438 46.136719 30.941406 46.136719 30.386719 C 46.136719 29.703125 46.625 28.914063 47.464844 28.835938 Z M 47.605469 28.835938 C 48.042969 28.859375 48.359375 29.117188 48.359375 29.613281 C 48.359375 30.289063 47.871094 31.09375 47.03125 31.164063 Z M 47.605469 28.835938 "
       id="path40" />
    <path
       style=" stroke:none;fill-rule:nonzero;fill:rgb(0%,0%,0%);fill-opacity:1;"
       d="M 50.847656 31.347656 L 50.714844 31.347656 C 50.707031 31.4375 50.664063 31.667969 50.609375 31.703125 C 50.582031 31.726563 50.28125 31.726563 50.21875 31.726563 L 49.492188 31.726563 C 49.910156 31.363281 50.050781 31.25 50.28125 31.0625 C 50.574219 30.832031 50.847656 30.585938 50.847656 30.214844 C 50.847656 29.734375 50.433594 29.441406 49.925781 29.441406 C 49.441406 29.441406 49.101563 29.789063 49.101563 30.152344 C 49.101563 30.347656 49.273438 30.375 49.316406 30.375 C 49.40625 30.375 49.519531 30.300781 49.519531 30.160156 C 49.519531 30.089844 49.492188 29.949219 49.289063 29.949219 C 49.414063 29.671875 49.679688 29.585938 49.863281 29.585938 C 50.265625 29.585938 50.46875 29.894531 50.46875 30.214844 C 50.46875 30.558594 50.21875 30.824219 50.09375 30.964844 L 49.148438 31.914063 C 49.101563 31.949219 49.101563 31.957031 49.101563 32.066406 L 50.734375 32.066406 Z M 50.847656 31.347656 "
       id="path42" />
    <path
       style=" stroke:none;fill-rule:nonzero;fill:rgb(0%,0%,0%);fill-opacity:1;"
       d="M 38.648438 14.558594 C 38.636719 14.578125 38.621094 14.59375 38.621094 14.613281 C 38.621094 14.636719 38.65625 14.691406 38.691406 14.691406 C 38.71875 14.691406 38.734375 14.675781 38.894531 14.515625 C 38.941406 14.46875 39.054688 14.363281 39.097656 14.320313 C 39.152344 14.761719 39.3125 15.1875 39.726563 15.1875 C 39.957031 15.1875 40.152344 15.054688 40.269531 14.964844 C 40.347656 14.914063 40.613281 14.691406 40.613281 14.636719 C 40.613281 14.621094 40.597656 14.566406 40.550781 14.566406 C 40.535156 14.566406 40.523438 14.578125 40.472656 14.621094 C 40.109375 14.976563 39.90625 15.0625 39.738281 15.0625 C 39.488281 15.0625 39.390625 14.761719 39.390625 14.328125 C 39.390625 14.292969 39.410156 14.035156 39.425781 14 C 39.4375 13.984375 39.4375 13.972656 39.550781 13.859375 C 40.003906 13.40625 40.808594 12.449219 40.808594 11.574219 C 40.808594 11.476563 40.808594 11.128906 40.472656 11.128906 C 40.003906 11.128906 39.585938 12.0625 39.53125 12.195313 C 39.257813 12.8125 39.082031 13.46875 39.082031 14.140625 Z M 39.453125 13.769531 C 39.460938 13.699219 39.710938 12.449219 40.027344 11.785156 C 40.179688 11.484375 40.304688 11.253906 40.480469 11.253906 C 40.675781 11.253906 40.675781 11.457031 40.675781 11.546875 C 40.675781 12.496094 39.71875 13.488281 39.453125 13.769531 Z M 39.453125 13.769531 "
       id="path44" />
    <path
       style=" stroke:none;fill-rule:nonzero;fill:rgb(0%,0%,0%);fill-opacity:1;"
       d="M 42.230469 13.449219 C 42.230469 13.34375 42.230469 13.34375 42.117188 13.34375 C 41.859375 13.589844 41.503906 13.589844 41.347656 13.589844 L 41.347656 13.730469 C 41.433594 13.730469 41.699219 13.730469 41.914063 13.625 L 41.914063 15.636719 C 41.914063 15.769531 41.914063 15.824219 41.523438 15.824219 L 41.371094 15.824219 L 41.371094 15.964844 C 41.445313 15.964844 41.929688 15.945313 42.074219 15.945313 C 42.195313 15.945313 42.691406 15.964844 42.78125 15.964844 L 42.78125 15.824219 L 42.628906 15.824219 C 42.230469 15.824219 42.230469 15.769531 42.230469 15.636719 Z M 42.230469 13.449219 "
       id="path46" />
    <path
       style=" stroke:none;fill-rule:nonzero;fill:rgb(0%,0%,0%);fill-opacity:1;"
       d="M 34.179688 32.746094 C 34.167969 32.761719 34.152344 32.78125 34.152344 32.796875 C 34.152344 32.824219 34.1875 32.878906 34.222656 32.878906 C 34.25 32.878906 34.265625 32.859375 34.425781 32.699219 C 34.46875 32.65625 34.585938 32.550781 34.628906 32.503906 C 34.683594 32.949219 34.84375 33.375 35.257813 33.375 C 35.488281 33.375 35.683594 33.242188 35.800781 33.152344 C 35.878906 33.097656 36.144531 32.878906 36.144531 32.824219 C 36.144531 32.804688 36.125 32.753906 36.082031 32.753906 C 36.066406 32.753906 36.054688 32.761719 36.003906 32.804688 C 35.640625 33.160156 35.4375 33.25 35.265625 33.25 C 35.019531 33.25 34.921875 32.949219 34.921875 32.515625 C 34.921875 32.480469 34.941406 32.222656 34.957031 32.1875 C 34.964844 32.167969 34.964844 32.160156 35.082031 32.042969 C 35.535156 31.59375 36.339844 30.636719 36.339844 29.757813 C 36.339844 29.660156 36.339844 29.316406 36.003906 29.316406 C 35.535156 29.316406 35.117188 30.246094 35.0625 30.378906 C 34.789063 31 34.613281 31.65625 34.613281 32.328125 Z M 34.984375 31.957031 C 34.992188 31.886719 35.242188 30.636719 35.558594 29.972656 C 35.710938 29.671875 35.835938 29.441406 36.011719 29.441406 C 36.207031 29.441406 36.207031 29.644531 36.207031 29.734375 C 36.207031 30.679688 35.25 31.671875 34.984375 31.957031 Z M 34.984375 31.957031 "
       id="path48" />
    <path
       style=" stroke:none;fill-rule:nonzero;fill:rgb(0%,0%,0%);fill-opacity:1;"
       d="M 38.4375 33.433594 L 38.304688 33.433594 C 38.292969 33.519531 38.25 33.75 38.195313 33.785156 C 38.171875 33.8125 37.867188 33.8125 37.808594 33.8125 L 37.082031 33.8125 C 37.496094 33.449219 37.636719 33.335938 37.867188 33.148438 C 38.160156 32.917969 38.4375 32.671875 38.4375 32.296875 C 38.4375 31.820313 38.019531 31.527344 37.515625 31.527344 C 37.027344 31.527344 36.691406 31.875 36.691406 32.238281 C 36.691406 32.429688 36.859375 32.457031 36.902344 32.457031 C 36.992188 32.457031 37.105469 32.386719 37.105469 32.246094 C 37.105469 32.175781 37.082031 32.03125 36.875 32.03125 C 37 31.757813 37.265625 31.667969 37.453125 31.667969 C 37.851563 31.667969 38.054688 31.980469 38.054688 32.296875 C 38.054688 32.644531 37.808594 32.910156 37.683594 33.050781 L 36.734375 34 C 36.691406 34.035156 36.691406 34.042969 36.691406 34.148438 L 38.320313 34.148438 Z M 38.4375 33.433594 "
       id="path50" />
  </g>
</svg>
