<?xml version="1.0" encoding="UTF-8" standalone="no"?>
<svg
   xmlns:dc="http://purl.org/dc/elements/1.1/"
   xmlns:cc="http://creativecommons.org/ns#"
   xmlns:rdf="http://www.w3.org/1999/02/22-rdf-syntax-ns#"
   xmlns:svg="http://www.w3.org/2000/svg"
   xmlns="http://www.w3.org/2000/svg"
   xmlns:sodipodi="http://sodipodi.sourceforge.net/DTD/sodipodi-0.dtd"
   xmlns:inkscape="http://www.inkscape.org/namespaces/inkscape"
   width="54.562pt"
   height="40.5pt"
   viewBox="0 0 54.562 40.5"
   version="1.2"
   id="svg37"
   sodipodi:docname="2.svg"
   inkscape:version="0.92.4 (5da689c313, 2019-01-14)">
  <metadata
     id="metadata43">
    <rdf:RDF>
      <cc:Work
         rdf:about="">
        <dc:format>image/svg+xml</dc:format>
        <dc:type
           rdf:resource="http://purl.org/dc/dcmitype/StillImage" />
        <dc:title></dc:title>
      </cc:Work>
    </rdf:RDF>
  </metadata>
  <defs
     id="defs41" />
  <sodipodi:namedview
     pagecolor="#ffffff"
     bordercolor="#666666"
     borderopacity="1"
     objecttolerance="10"
     gridtolerance="10"
     guidetolerance="10"
     inkscape:pageopacity="0"
     inkscape:pageshadow="2"
     inkscape:window-width="727"
     inkscape:window-height="480"
     id="namedview39"
     showgrid="false"
     inkscape:zoom="4.3703704"
     inkscape:cx="36.374667"
     inkscape:cy="27"
     inkscape:window-x="0"
     inkscape:window-y="0"
     inkscape:window-maximized="0"
     inkscape:current-layer="svg37" />
  <g
     id="surface44">
    <path
       style="fill:none;stroke-width:0.75;stroke-linecap:butt;stroke-linejoin:miter;stroke:rgb(0%,0%,0%);stroke-opacity:1;stroke-miterlimit:4;"
       d="M 154.934094 250.289334 L 189.121594 250.289334 "
       transform="matrix(1,0,0,1,-148.313,-240.937771)"
       id="path2" />
    <path
       style="fill-rule:evenodd;fill:rgb(0%,0%,0%);fill-opacity:1;stroke-width:0.2;stroke-linecap:butt;stroke-linejoin:miter;stroke:rgb(0%,0%,0%);stroke-opacity:1;stroke-miterlimit:4;"
       d="M -188.21925 -250.289334 L -187.46925 -251.039334 L -190.09425 -250.289334 L -187.46925 -249.539334 Z M -188.21925 -250.289334 "
       transform="matrix(-1,0,0,-1,-148.313,-240.937771)"
       id="path4" />
    <path
       style="fill-rule:nonzero;fill:rgb(0%,0%,0%);fill-opacity:1;stroke-width:0.751181;stroke-linecap:butt;stroke-linejoin:miter;stroke:rgb(0%,0%,1.176453%);stroke-opacity:1;stroke-miterlimit:4;"
       d="M 172.777844 250.48074 C 172.777844 251.750271 171.797375 252.777615 170.582531 252.777615 C 169.371594 252.777615 168.391125 251.750271 168.391125 250.48074 C 168.391125 249.215115 169.371594 248.187771 170.582531 248.187771 C 171.797375 248.187771 172.777844 249.215115 172.777844 250.48074 Z M 172.777844 250.48074 "
       transform="matrix(1,0,0,1,-148.313,-240.937771)"
       id="path6" />
    <path
       style="fill:none;stroke-width:0.75;stroke-linecap:butt;stroke-linejoin:miter;stroke:rgb(0%,0%,0%);stroke-opacity:1;stroke-dasharray:0.75,1.5;stroke-miterlimit:4;"
       d="M 157.902844 245.504177 L 157.902844 263.38699 "
       transform="matrix(1,0,0,1,-148.313,-240.937771)"
       id="path8" />
    <path
       style="fill-rule:evenodd;fill:rgb(0%,0%,0%);fill-opacity:1;stroke-width:0.2;stroke-linecap:butt;stroke-linejoin:miter;stroke:rgb(0%,0%,0%);stroke-opacity:1;stroke-miterlimit:4;"
       d="M -262.484646 157.902844 L -261.734646 157.152844 L -264.359646 157.902844 L -261.734646 158.652844 Z M -262.484646 157.902844 "
       transform="matrix(0,-1,1,0,-148.313,-240.937771)"
       id="path10" />
    <path
       style="fill:none;stroke-width:0.75;stroke-linecap:butt;stroke-linejoin:miter;stroke:rgb(0%,0%,0%);stroke-opacity:1;stroke-dasharray:0.75,1.5;stroke-miterlimit:4;"
       d="M 170.992687 252.73074 L 170.992687 268.566677 "
       transform="matrix(1,0,0,1,-148.313,-240.937771)"
       id="path12" />
    <path
       style="fill:none;stroke-width:0.75;stroke-linecap:butt;stroke-linejoin:miter;stroke:rgb(0%,0%,0%);stroke-opacity:1;stroke-miterlimit:4;"
       d="M 170.992687 252.73074 L 185.258312 268.140896 "
       transform="matrix(1,0,0,1,-148.313,-240.937771)"
       id="path14" />
    <path
       style="fill:none;stroke-width:0.75;stroke-linecap:butt;stroke-linejoin:miter;stroke:rgb(0%,0%,0%);stroke-opacity:1;stroke-miterlimit:4;"
       d="M 171.117687 257.633084 C 172.348156 257.73074 173.355969 257.078396 173.730969 256.004177 "
       transform="matrix(1,0,0,1,-148.313,-240.937771)"
       id="path16" />
    <path
       style="fill-rule:nonzero;fill:rgb(0%,0%,0%);fill-opacity:1;stroke-width:0.751181;stroke-linecap:butt;stroke-linejoin:miter;stroke:rgb(0%,0%,1.176453%);stroke-opacity:1;stroke-miterlimit:4;"
       d="M 188.918469 269.652615 C 188.918469 270.91824 187.934094 271.945584 186.723156 271.945584 C 185.512219 271.945584 184.53175 270.91824 184.53175 269.652615 C 184.53175 268.38699 185.512219 267.359646 186.723156 267.359646 C 187.934094 267.359646 188.918469 268.38699 188.918469 269.652615 Z M 188.918469 269.652615 "
       transform="matrix(1,0,0,1,-148.313,-240.937771)"
       id="path18" />
    <path
       style=" stroke:none;fill-rule:nonzero;fill:rgb(0%,0%,0%);fill-opacity:1;"
       d="M 34.933594 20.078125 C 34.925781 20.09375 34.90625 20.113281 34.90625 20.128906 C 34.90625 20.15625 34.941406 20.210938 34.976563 20.210938 C 35.003906 20.210938 35.023438 20.191406 35.183594 20.03125 C 35.226563 19.988281 35.339844 19.882813 35.386719 19.835938 C 35.4375 20.28125 35.597656 20.707031 36.015625 20.707031 C 36.246094 20.707031 36.441406 20.574219 36.554688 20.484375 C 36.636719 20.429688 36.902344 20.210938 36.902344 20.15625 C 36.902344 20.140625 36.882813 20.085938 36.839844 20.085938 C 36.820313 20.085938 36.8125 20.09375 36.757813 20.140625 C 36.394531 20.492188 36.191406 20.582031 36.023438 20.582031 C 35.777344 20.582031 35.679688 20.28125 35.679688 19.847656 C 35.679688 19.8125 35.695313 19.554688 35.714844 19.519531 C 35.722656 19.5 35.722656 19.492188 35.835938 19.378906 C 36.289063 18.925781 37.09375 17.96875 37.09375 17.089844 C 37.09375 16.996094 37.09375 16.648438 36.757813 16.648438 C 36.289063 16.648438 35.871094 17.578125 35.820313 17.710938 C 35.546875 18.332031 35.367188 18.988281 35.367188 19.660156 Z M 35.738281 19.289063 C 35.75 19.21875 35.996094 17.96875 36.316406 17.304688 C 36.464844 17.003906 36.589844 16.773438 36.769531 16.773438 C 36.960938 16.773438 36.960938 16.976563 36.960938 17.066406 C 36.960938 18.011719 36.007813 19.003906 35.738281 19.289063 Z M 35.738281 19.289063 "
       id="path20" />
    <path
       style=" stroke:none;fill-rule:nonzero;fill:rgb(0%,0%,0%);fill-opacity:1;"
       d="M 27.375 20.355469 C 27.375 20.339844 27.390625 20.277344 27.390625 20.277344 C 27.390625 20.269531 27.390625 20.214844 27.320313 20.214844 C 27.265625 20.214844 27.257813 20.234375 27.230469 20.328125 L 26.902344 21.632813 C 26.007813 21.667969 25.175781 22.410156 25.175781 23.183594 C 25.175781 23.722656 25.574219 24.164063 26.265625 24.210938 C 26.222656 24.378906 26.175781 24.5625 26.132813 24.742188 C 26.0625 25.007813 26.007813 25.21875 26.007813 25.238281 C 26.007813 25.289063 26.054688 25.300781 26.078125 25.300781 C 26.105469 25.300781 26.117188 25.289063 26.132813 25.273438 C 26.140625 25.265625 26.175781 25.132813 26.195313 25.050781 L 26.40625 24.210938 C 27.320313 24.175781 28.144531 23.414063 28.144531 22.660156 C 28.144531 22.207031 27.84375 21.695313 27.054688 21.632813 Z M 26.292969 24.085938 C 25.957031 24.066406 25.546875 23.863281 25.546875 23.304688 C 25.546875 22.625 26.035156 21.835938 26.878906 21.757813 Z M 27.019531 21.757813 C 27.453125 21.78125 27.773438 22.039063 27.773438 22.535156 C 27.773438 23.207031 27.285156 24.015625 26.441406 24.085938 Z M 27.019531 21.757813 "
       id="path22" />
    <path
       style=" stroke:none;fill-rule:nonzero;fill:rgb(0%,0%,0%);fill-opacity:1;"
       d="M 45.917969 8.699219 C 45.953125 8.554688 46.085938 8.035156 46.476563 8.035156 C 46.503906 8.035156 46.644531 8.035156 46.761719 8.105469 C 46.601563 8.140625 46.492188 8.273438 46.492188 8.414063 C 46.492188 8.503906 46.554688 8.609375 46.707031 8.609375 C 46.832031 8.609375 47.007813 8.511719 47.007813 8.28125 C 47.007813 7.988281 46.679688 7.910156 46.484375 7.910156 C 46.15625 7.910156 45.960938 8.210938 45.890625 8.335938 C 45.75 7.960938 45.449219 7.910156 45.28125 7.910156 C 44.695313 7.910156 44.367188 8.636719 44.367188 8.777344 C 44.367188 8.839844 44.429688 8.839844 44.4375 8.839844 C 44.484375 8.839844 44.5 8.820313 44.511719 8.777344 C 44.703125 8.175781 45.078125 8.035156 45.273438 8.035156 C 45.378906 8.035156 45.574219 8.085938 45.574219 8.414063 C 45.574219 8.589844 45.476563 8.964844 45.273438 9.761719 C 45.183594 10.105469 44.980469 10.34375 44.730469 10.34375 C 44.695313 10.34375 44.570313 10.34375 44.449219 10.273438 C 44.589844 10.238281 44.714844 10.125 44.714844 9.964844 C 44.714844 9.8125 44.589844 9.769531 44.511719 9.769531 C 44.332031 9.769531 44.199219 9.910156 44.199219 10.097656 C 44.199219 10.355469 44.472656 10.46875 44.722656 10.46875 C 45.101563 10.46875 45.308594 10.070313 45.316406 10.042969 C 45.386719 10.246094 45.589844 10.46875 45.925781 10.46875 C 46.511719 10.46875 46.832031 9.742188 46.832031 9.601563 C 46.832031 9.539063 46.785156 9.539063 46.769531 9.539063 C 46.714844 9.539063 46.707031 9.566406 46.6875 9.601563 C 46.503906 10.210938 46.121094 10.34375 45.945313 10.34375 C 45.722656 10.34375 45.636719 10.167969 45.636719 9.972656 C 45.636719 9.847656 45.660156 9.726563 45.722656 9.476563 Z M 45.917969 8.699219 "
       id="path24" />
    <path
       style=" stroke:none;fill-rule:nonzero;fill:rgb(0%,0%,0%);fill-opacity:1;"
       d="M 10.886719 25.679688 C 10.914063 25.601563 10.914063 25.589844 10.914063 25.546875 C 10.914063 25.449219 10.832031 25.394531 10.742188 25.394531 C 10.691406 25.394531 10.601563 25.433594 10.550781 25.511719 C 10.539063 25.546875 10.488281 25.714844 10.46875 25.820313 C 10.425781 25.964844 10.390625 26.121094 10.355469 26.273438 L 10.097656 27.292969 C 10.078125 27.371094 9.832031 27.769531 9.460938 27.769531 C 9.175781 27.769531 9.113281 27.523438 9.113281 27.308594 C 9.113281 27.054688 9.210938 26.699219 9.398438 26.203125 C 9.484375 25.972656 9.511719 25.910156 9.511719 25.796875 C 9.511719 25.546875 9.335938 25.335938 9.050781 25.335938 C 8.511719 25.335938 8.308594 26.15625 8.308594 26.203125 C 8.308594 26.265625 8.359375 26.265625 8.371094 26.265625 C 8.433594 26.265625 8.433594 26.246094 8.457031 26.15625 C 8.617188 25.625 8.839844 25.457031 9.035156 25.457031 C 9.078125 25.457031 9.175781 25.457031 9.175781 25.636719 C 9.175781 25.777344 9.113281 25.929688 9.078125 26.035156 C 8.847656 26.636719 8.75 26.957031 8.75 27.222656 C 8.75 27.726563 9.105469 27.894531 9.441406 27.894531 C 9.664063 27.894531 9.847656 27.796875 10.007813 27.636719 C 9.9375 27.929688 9.867188 28.214844 9.644531 28.515625 C 9.496094 28.699219 9.28125 28.867188 9.023438 28.867188 C 8.945313 28.867188 8.6875 28.851563 8.589844 28.628906 C 8.679688 28.628906 8.757813 28.628906 8.832031 28.558594 C 8.890625 28.515625 8.945313 28.433594 8.945313 28.328125 C 8.945313 28.152344 8.796875 28.132813 8.742188 28.132813 C 8.609375 28.132813 8.421875 28.222656 8.421875 28.496094 C 8.421875 28.78125 8.671875 28.992188 9.023438 28.992188 C 9.601563 28.992188 10.1875 28.480469 10.34375 27.839844 Z M 10.886719 25.679688 "
       id="path26" />
    <path
       style=" stroke:none;fill-rule:nonzero;fill:rgb(0%,0%,0%);fill-opacity:1;"
       d="M 19.871094 4.488281 C 19.851563 4.578125 19.816406 4.710938 19.816406 4.734375 C 19.816406 4.832031 19.898438 4.886719 19.984375 4.886719 C 20.054688 4.886719 20.152344 4.84375 20.199219 4.726563 C 20.199219 4.71875 20.269531 4.453125 20.304688 4.3125 L 20.429688 3.804688 C 20.453125 3.671875 20.488281 3.550781 20.527344 3.425781 C 20.542969 3.328125 20.585938 3.160156 20.597656 3.140625 C 20.675781 2.964844 20.976563 2.449219 21.519531 2.449219 C 21.773438 2.449219 21.820313 2.664063 21.820313 2.847656 C 21.820313 2.992188 21.785156 3.152344 21.738281 3.320313 L 21.578125 3.972656 L 21.464844 4.398438 C 21.445313 4.515625 21.394531 4.710938 21.394531 4.734375 C 21.394531 4.832031 21.472656 4.886719 21.554688 4.886719 C 21.730469 4.886719 21.765625 4.746094 21.808594 4.566406 C 21.890625 4.25 22.101563 3.425781 22.148438 3.203125 C 22.164063 3.132813 22.464844 2.449219 23.085938 2.449219 C 23.324219 2.449219 23.386719 2.644531 23.386719 2.847656 C 23.386719 3.167969 23.148438 3.816406 23.03125 4.117188 C 22.988281 4.25 22.960938 4.3125 22.960938 4.425781 C 22.960938 4.691406 23.15625 4.886719 23.421875 4.886719 C 23.953125 4.886719 24.167969 4.0625 24.167969 4.019531 C 24.167969 3.957031 24.113281 3.957031 24.09375 3.957031 C 24.042969 3.957031 24.042969 3.972656 24.015625 4.0625 C 23.925781 4.363281 23.75 4.761719 23.441406 4.761719 C 23.34375 4.761719 23.296875 4.710938 23.296875 4.578125 C 23.296875 4.433594 23.351563 4.300781 23.40625 4.179688 C 23.511719 3.875 23.75 3.257813 23.75 2.929688 C 23.75 2.566406 23.519531 2.328125 23.09375 2.328125 C 22.679688 2.328125 22.386719 2.574219 22.171875 2.875 C 22.171875 2.804688 22.15625 2.609375 21.996094 2.476563 C 21.855469 2.351563 21.675781 2.328125 21.535156 2.328125 C 21.023438 2.328125 20.746094 2.691406 20.648438 2.824219 C 20.625 2.496094 20.382813 2.328125 20.128906 2.328125 C 19.871094 2.328125 19.765625 2.546875 19.710938 2.644531 C 19.613281 2.847656 19.542969 3.175781 19.542969 3.195313 C 19.542969 3.257813 19.59375 3.257813 19.605469 3.257813 C 19.667969 3.257813 19.667969 3.246094 19.703125 3.125 C 19.800781 2.726563 19.914063 2.449219 20.117188 2.449219 C 20.207031 2.449219 20.285156 2.496094 20.285156 2.707031 C 20.285156 2.832031 20.269531 2.894531 20.199219 3.1875 Z M 19.871094 4.488281 "
       id="path28" />
    <path
       style=" stroke:none;fill-rule:nonzero;fill:rgb(0%,0%,0%);fill-opacity:1;"
       d="M 25.652344 3.15625 C 25.652344 3.050781 25.652344 3.050781 25.539063 3.050781 C 25.28125 3.296875 24.925781 3.296875 24.769531 3.296875 L 24.769531 3.441406 C 24.855469 3.441406 25.121094 3.441406 25.335938 3.332031 L 25.335938 5.34375 C 25.335938 5.476563 25.335938 5.53125 24.945313 5.53125 L 24.792969 5.53125 L 24.792969 5.671875 C 24.863281 5.671875 25.351563 5.65625 25.492188 5.65625 C 25.617188 5.65625 26.113281 5.671875 26.203125 5.671875 L 26.203125 5.53125 L 26.050781 5.53125 C 25.652344 5.53125 25.652344 5.476563 25.652344 5.34375 Z M 25.652344 3.15625 "
       id="path30" />
    <path
       style=" stroke:none;fill-rule:nonzero;fill:rgb(0%,0%,0%);fill-opacity:1;"
       d="M 36.726563 35.550781 C 36.710938 35.640625 36.675781 35.773438 36.675781 35.796875 C 36.675781 35.894531 36.753906 35.949219 36.84375 35.949219 C 36.914063 35.949219 37.011719 35.90625 37.054688 35.789063 C 37.054688 35.78125 37.125 35.515625 37.160156 35.371094 L 37.285156 34.867188 C 37.3125 34.734375 37.347656 34.609375 37.382813 34.488281 C 37.398438 34.390625 37.445313 34.222656 37.453125 34.203125 C 37.53125 34.027344 37.835938 33.511719 38.375 33.511719 C 38.632813 33.511719 38.675781 33.726563 38.675781 33.910156 C 38.675781 34.054688 38.640625 34.210938 38.597656 34.382813 L 38.4375 35.035156 L 38.320313 35.460938 C 38.304688 35.578125 38.25 35.773438 38.25 35.796875 C 38.25 35.894531 38.332031 35.949219 38.410156 35.949219 C 38.585938 35.949219 38.621094 35.808594 38.667969 35.628906 C 38.746094 35.3125 38.960938 34.488281 39.003906 34.265625 C 39.019531 34.195313 39.324219 33.511719 39.941406 33.511719 C 40.183594 33.511719 40.242188 33.707031 40.242188 33.910156 C 40.242188 34.230469 40.003906 34.878906 39.890625 35.179688 C 39.84375 35.3125 39.820313 35.371094 39.820313 35.488281 C 39.820313 35.753906 40.011719 35.949219 40.277344 35.949219 C 40.8125 35.949219 41.023438 35.125 41.023438 35.082031 C 41.023438 35.019531 40.96875 35.019531 40.953125 35.019531 C 40.898438 35.019531 40.898438 35.035156 40.871094 35.125 C 40.785156 35.425781 40.605469 35.824219 40.296875 35.824219 C 40.199219 35.824219 40.15625 35.773438 40.15625 35.640625 C 40.15625 35.496094 40.207031 35.363281 40.261719 35.238281 C 40.367188 34.9375 40.605469 34.320313 40.605469 33.992188 C 40.605469 33.628906 40.375 33.390625 39.953125 33.390625 C 39.535156 33.390625 39.242188 33.636719 39.03125 33.9375 C 39.03125 33.867188 39.011719 33.671875 38.851563 33.539063 C 38.710938 33.414063 38.535156 33.390625 38.390625 33.390625 C 37.878906 33.390625 37.605469 33.753906 37.507813 33.886719 C 37.480469 33.558594 37.242188 33.390625 36.984375 33.390625 C 36.726563 33.390625 36.621094 33.609375 36.566406 33.707031 C 36.46875 33.910156 36.398438 34.238281 36.398438 34.257813 C 36.398438 34.320313 36.453125 34.320313 36.460938 34.320313 C 36.523438 34.320313 36.523438 34.308594 36.558594 34.1875 C 36.65625 33.789063 36.769531 33.511719 36.976563 33.511719 C 37.0625 33.511719 37.144531 33.558594 37.144531 33.769531 C 37.144531 33.894531 37.125 33.957031 37.054688 34.246094 Z M 36.726563 35.550781 "
       id="path32" />
    <path
       style=" stroke:none;fill-rule:nonzero;fill:rgb(0%,0%,0%);fill-opacity:1;"
       d="M 43.183594 36.015625 L 43.050781 36.015625 C 43.042969 36.105469 42.996094 36.335938 42.945313 36.371094 C 42.917969 36.398438 42.617188 36.398438 42.554688 36.398438 L 41.828125 36.398438 C 42.246094 36.035156 42.386719 35.917969 42.617188 35.734375 C 42.910156 35.503906 43.183594 35.253906 43.183594 34.882813 C 43.183594 34.40625 42.765625 34.113281 42.261719 34.113281 C 41.773438 34.113281 41.4375 34.457031 41.4375 34.820313 C 41.4375 35.015625 41.605469 35.042969 41.652344 35.042969 C 41.738281 35.042969 41.855469 34.972656 41.855469 34.828125 C 41.855469 34.757813 41.828125 34.617188 41.625 34.617188 C 41.75 34.34375 42.015625 34.253906 42.199219 34.253906 C 42.597656 34.253906 42.800781 34.5625 42.800781 34.882813 C 42.800781 35.226563 42.554688 35.496094 42.429688 35.636719 L 41.484375 36.582031 C 41.4375 36.621094 41.4375 36.628906 41.4375 36.734375 L 43.070313 36.734375 Z M 43.183594 36.015625 "
       id="path34" />
  </g>
</svg>
