<?xml version="1.0" encoding="UTF-8" standalone="no"?>
<svg
   xmlns:dc="http://purl.org/dc/elements/1.1/"
   xmlns:cc="http://creativecommons.org/ns#"
   xmlns:rdf="http://www.w3.org/1999/02/22-rdf-syntax-ns#"
   xmlns:svg="http://www.w3.org/2000/svg"
   xmlns="http://www.w3.org/2000/svg"
   xmlns:sodipodi="http://sodipodi.sourceforge.net/DTD/sodipodi-0.dtd"
   xmlns:inkscape="http://www.inkscape.org/namespaces/inkscape"
   width="74.25pt"
   height="75.375pt"
   viewBox="0 0 74.25 75.375"
   version="1.2"
   id="svg49"
   sodipodi:docname="21.svg"
   inkscape:version="0.92.4 (5da689c313, 2019-01-14)">
  <metadata
     id="metadata55">
    <rdf:RDF>
      <cc:Work
         rdf:about="">
        <dc:format>image/svg+xml</dc:format>
        <dc:type
           rdf:resource="http://purl.org/dc/dcmitype/StillImage" />
        <dc:title></dc:title>
      </cc:Work>
    </rdf:RDF>
  </metadata>
  <defs
     id="defs53" />
  <sodipodi:namedview
     pagecolor="#ffffff"
     bordercolor="#666666"
     borderopacity="1"
     objecttolerance="10"
     gridtolerance="10"
     guidetolerance="10"
     inkscape:pageopacity="0"
     inkscape:pageshadow="2"
     inkscape:window-width="727"
     inkscape:window-height="480"
     id="namedview51"
     showgrid="false"
     inkscape:zoom="2.3482587"
     inkscape:cx="49.5"
     inkscape:cy="50.25"
     inkscape:window-x="0"
     inkscape:window-y="0"
     inkscape:window-maximized="0"
     inkscape:current-layer="svg49" />
  <g
     id="surface36">
    <path
       style="fill:none;stroke-width:0.75;stroke-linecap:butt;stroke-linejoin:miter;stroke:rgb(0%,0%,0%);stroke-opacity:1;stroke-miterlimit:4;"
       d="M 196.980969 244.226834 L 196.980969 306.711209 "
       transform="matrix(1,0,0,1,-158.813,-234.562771)"
       id="path2" />
    <path
       style="fill:none;stroke-width:0.751181;stroke-linecap:butt;stroke-linejoin:miter;stroke:rgb(0%,0%,0%);stroke-opacity:1;stroke-miterlimit:4;"
       d="M 196.957531 276.441677 L 227.227062 250.594021 "
       transform="matrix(1,0,0,1,-158.813,-234.562771)"
       id="path4" />
    <path
       style="fill-rule:evenodd;fill:rgb(0%,0%,0%);fill-opacity:1;stroke-width:0.152328;stroke-linecap:butt;stroke-linejoin:miter;stroke:rgb(0%,0%,0%);stroke-opacity:1;stroke-miterlimit:4;"
       d="M -6.962591 -257.125886 L -6.390124 -257.695603 L -8.388944 -257.125216 L -6.388685 -256.553749 Z M -6.962591 -257.125886 "
       transform="matrix(-1,0.853982,-0.853982,-1,-158.813,-234.562771)"
       id="path6" />
    <path
       style="fill:none;stroke-width:0.75;stroke-linecap:butt;stroke-linejoin:miter;stroke:rgb(0%,0%,0%);stroke-opacity:1;stroke-dasharray:0.75,1.5;stroke-miterlimit:4;"
       d="M 165.40675 276.285427 L 227.891125 276.285427 "
       transform="matrix(1,0,0,1,-158.813,-234.562771)"
       id="path8" />
    <path
       style="fill:none;stroke-width:0.75;stroke-linecap:butt;stroke-linejoin:miter;stroke:rgb(0%,0%,0%);stroke-opacity:1;stroke-miterlimit:4;"
       d="M 196.957531 276.441677 L 186.027844 303.629177 "
       transform="matrix(1,0,0,1,-158.813,-234.562771)"
       id="path10" />
    <path
       style="fill:none;stroke-width:0.75;stroke-linecap:butt;stroke-linejoin:miter;stroke:rgb(0%,0%,0%);stroke-opacity:1;stroke-miterlimit:4;"
       d="M 192.773937 276.476834 C 193.21925 277.863552 194.477062 278.906521 195.879406 279.078396 "
       transform="matrix(1,0,0,1,-158.813,-234.562771)"
       id="path12" />
    <path
       style="fill:none;stroke-width:0.75;stroke-linecap:butt;stroke-linejoin:miter;stroke:rgb(0%,0%,0%);stroke-opacity:1;stroke-miterlimit:4;"
       d="M 201.035656 272.551052 C 202.238781 273.687771 204.03175 274.844021 204.03175 276.586209 "
       transform="matrix(1,0,0,1,-158.813,-234.562771)"
       id="path14" />
    <path
       style=" stroke:none;fill-rule:nonzero;fill:rgb(0%,0%,0%);fill-opacity:1;"
       d="M 22.574219 26.847656 C 22.636719 27.078125 22.839844 27.230469 23.078125 27.230469 C 23.273438 27.230469 23.40625 27.097656 23.496094 26.921875 C 23.589844 26.714844 23.664063 26.371094 23.664063 26.363281 C 23.664063 26.300781 23.617188 26.300781 23.601563 26.300781 C 23.539063 26.300781 23.539063 26.328125 23.519531 26.40625 C 23.441406 26.726563 23.335938 27.105469 23.09375 27.105469 C 22.980469 27.105469 22.917969 27.035156 22.917969 26.847656 C 22.917969 26.726563 22.988281 26.460938 23.035156 26.257813 L 23.191406 25.644531 C 23.210938 25.566406 23.265625 25.351563 23.289063 25.265625 C 23.316406 25.132813 23.371094 24.917969 23.371094 24.882813 C 23.371094 24.785156 23.289063 24.734375 23.210938 24.734375 C 23.183594 24.734375 23.035156 24.742188 22.988281 24.925781 C 22.882813 25.34375 22.636719 26.335938 22.5625 26.628906 C 22.554688 26.65625 22.332031 27.105469 21.917969 27.105469 C 21.625 27.105469 21.570313 26.847656 21.570313 26.644531 C 21.570313 26.328125 21.730469 25.882813 21.875 25.496094 C 21.945313 25.316406 21.96875 25.238281 21.96875 25.132813 C 21.96875 24.882813 21.792969 24.671875 21.511719 24.671875 C 20.96875 24.671875 20.765625 25.496094 20.765625 25.539063 C 20.765625 25.601563 20.820313 25.601563 20.828125 25.601563 C 20.890625 25.601563 20.890625 25.582031 20.917969 25.496094 C 21.058594 25.007813 21.28125 24.792969 21.492188 24.792969 C 21.546875 24.792969 21.632813 24.804688 21.632813 24.980469 C 21.632813 25.113281 21.570313 25.28125 21.535156 25.363281 C 21.324219 25.929688 21.207031 26.273438 21.207031 26.546875 C 21.207031 27.089844 21.597656 27.230469 21.898438 27.230469 C 22.273438 27.230469 22.476563 26.972656 22.574219 26.847656 Z M 22.574219 26.847656 "
       id="path16" />
    <path
       style=" stroke:none;fill-rule:nonzero;fill:rgb(0%,0%,0%);fill-opacity:1;"
       d="M 25.152344 25.5 C 25.152344 25.394531 25.152344 25.394531 25.035156 25.394531 C 24.777344 25.640625 24.425781 25.640625 24.265625 25.640625 L 24.265625 25.785156 C 24.355469 25.785156 24.621094 25.785156 24.832031 25.675781 L 24.832031 27.6875 C 24.832031 27.820313 24.832031 27.875 24.441406 27.875 L 24.292969 27.875 L 24.292969 28.015625 C 24.363281 28.015625 24.851563 28 24.992188 28 C 25.117188 28 25.613281 28.015625 25.699219 28.015625 L 25.699219 27.875 L 25.550781 27.875 C 25.152344 27.875 25.152344 27.820313 25.152344 27.6875 Z M 25.152344 25.5 "
       id="path18" />
    <path
       style=" stroke:none;fill-rule:nonzero;fill:rgb(0%,0%,0%);fill-opacity:1;"
       d="M 67.574219 26.847656 C 67.636719 27.078125 67.839844 27.230469 68.078125 27.230469 C 68.273438 27.230469 68.40625 27.097656 68.496094 26.921875 C 68.589844 26.714844 68.664063 26.371094 68.664063 26.363281 C 68.664063 26.300781 68.617188 26.300781 68.601563 26.300781 C 68.539063 26.300781 68.539063 26.328125 68.519531 26.40625 C 68.441406 26.726563 68.335938 27.105469 68.097656 27.105469 C 67.980469 27.105469 67.917969 27.035156 67.917969 26.847656 C 67.917969 26.726563 67.988281 26.460938 68.035156 26.257813 L 68.191406 25.644531 C 68.210938 25.566406 68.265625 25.351563 68.289063 25.265625 C 68.316406 25.132813 68.371094 24.917969 68.371094 24.882813 C 68.371094 24.785156 68.289063 24.734375 68.210938 24.734375 C 68.183594 24.734375 68.035156 24.742188 67.988281 24.925781 C 67.882813 25.34375 67.636719 26.335938 67.5625 26.628906 C 67.554688 26.65625 67.332031 27.105469 66.917969 27.105469 C 66.625 27.105469 66.570313 26.847656 66.570313 26.644531 C 66.570313 26.328125 66.730469 25.882813 66.875 25.496094 C 66.945313 25.316406 66.972656 25.238281 66.972656 25.132813 C 66.972656 24.882813 66.792969 24.671875 66.511719 24.671875 C 65.96875 24.671875 65.765625 25.496094 65.765625 25.539063 C 65.765625 25.601563 65.820313 25.601563 65.828125 25.601563 C 65.890625 25.601563 65.890625 25.582031 65.917969 25.496094 C 66.058594 25.007813 66.28125 24.792969 66.492188 24.792969 C 66.546875 24.792969 66.632813 24.804688 66.632813 24.980469 C 66.632813 25.113281 66.570313 25.28125 66.535156 25.363281 C 66.324219 25.929688 66.207031 26.273438 66.207031 26.546875 C 66.207031 27.089844 66.597656 27.230469 66.898438 27.230469 C 67.273438 27.230469 67.476563 26.972656 67.574219 26.847656 Z M 67.574219 26.847656 "
       id="path20" />
    <path
       style=" stroke:none;fill-rule:nonzero;fill:rgb(0%,0%,0%);fill-opacity:1;"
       d="M 70.824219 27.296875 L 70.691406 27.296875 C 70.683594 27.386719 70.636719 27.617188 70.585938 27.652344 C 70.558594 27.679688 70.257813 27.679688 70.195313 27.679688 L 69.46875 27.679688 C 69.886719 27.316406 70.027344 27.199219 70.257813 27.015625 C 70.550781 26.785156 70.824219 26.535156 70.824219 26.164063 C 70.824219 25.6875 70.410156 25.394531 69.902344 25.394531 C 69.417969 25.394531 69.078125 25.738281 69.078125 26.101563 C 69.078125 26.296875 69.246094 26.324219 69.292969 26.324219 C 69.378906 26.324219 69.496094 26.253906 69.496094 26.113281 C 69.496094 26.039063 69.46875 25.898438 69.265625 25.898438 C 69.390625 25.625 69.65625 25.535156 69.839844 25.535156 C 70.238281 25.535156 70.445313 25.847656 70.445313 26.164063 C 70.445313 26.511719 70.195313 26.777344 70.070313 26.917969 L 69.125 27.867188 C 69.078125 27.902344 69.078125 27.910156 69.078125 28.015625 L 70.710938 28.015625 Z M 70.824219 27.296875 "
       id="path22" />
    <path
       style=" stroke:none;fill-rule:nonzero;fill:rgb(0%,0%,0%);fill-opacity:1;"
       d="M 52.914063 22.285156 C 52.914063 21.976563 52.765625 21.886719 52.667969 21.886719 C 52.527344 21.886719 52.382813 22.035156 52.382813 22.160156 C 52.382813 22.230469 52.410156 22.265625 52.472656 22.328125 C 52.597656 22.445313 52.667969 22.585938 52.667969 22.789063 C 52.667969 23.027344 52.320313 24.320313 51.667969 24.320313 C 51.375 24.320313 51.242188 24.128906 51.242188 23.828125 C 51.242188 23.515625 51.402344 23.101563 51.570313 22.628906 C 51.613281 22.53125 51.640625 22.453125 51.640625 22.347656 C 51.640625 22.097656 51.460938 21.886719 51.179688 21.886719 C 50.648438 21.886719 50.433594 22.710938 50.433594 22.753906 C 50.433594 22.816406 50.488281 22.816406 50.496094 22.816406 C 50.558594 22.816406 50.558594 22.796875 50.585938 22.710938 C 50.753906 22.144531 50.992188 22.011719 51.160156 22.011719 C 51.207031 22.011719 51.304688 22.011719 51.304688 22.1875 C 51.304688 22.328125 51.242188 22.488281 51.207031 22.585938 C 50.957031 23.242188 50.886719 23.5 50.886719 23.746094 C 50.886719 24.359375 51.382813 24.445313 51.640625 24.445313 C 52.585938 24.445313 52.914063 22.578125 52.914063 22.285156 Z M 52.914063 22.285156 "
       id="path24" />
    <path
       style=" stroke:none;fill-rule:nonzero;fill:rgb(0%,0%,0%);fill-opacity:1;"
       d="M 54.996094 24.515625 L 54.863281 24.515625 C 54.855469 24.601563 54.8125 24.832031 54.757813 24.867188 C 54.730469 24.894531 54.429688 24.894531 54.367188 24.894531 L 53.640625 24.894531 C 54.058594 24.53125 54.199219 24.417969 54.429688 24.230469 C 54.722656 24 54.996094 23.753906 54.996094 23.378906 C 54.996094 22.902344 54.582031 22.609375 54.078125 22.609375 C 53.589844 22.609375 53.253906 22.957031 53.253906 23.320313 C 53.253906 23.511719 53.421875 23.539063 53.464844 23.539063 C 53.554688 23.539063 53.667969 23.46875 53.667969 23.328125 C 53.667969 23.257813 53.640625 23.113281 53.4375 23.113281 C 53.5625 22.839844 53.828125 22.75 54.015625 22.75 C 54.414063 22.75 54.617188 23.0625 54.617188 23.378906 C 54.617188 23.726563 54.367188 23.992188 54.246094 24.132813 L 53.296875 25.082031 C 53.253906 25.117188 53.253906 25.125 53.253906 25.230469 L 54.882813 25.230469 Z M 54.996094 24.515625 "
       id="path26" />
    <path
       style=" stroke:none;fill-rule:nonzero;fill:rgb(0%,0%,0%);fill-opacity:1;"
       d="M 26.664063 58.945313 C 26.664063 58.632813 26.515625 58.546875 26.417969 58.546875 C 26.273438 58.546875 26.132813 58.695313 26.132813 58.820313 C 26.132813 58.890625 26.160156 58.925781 26.222656 58.988281 C 26.34375 59.101563 26.417969 59.246094 26.417969 59.449219 C 26.417969 59.6875 26.070313 60.980469 25.414063 60.980469 C 25.121094 60.980469 24.988281 60.785156 24.988281 60.484375 C 24.988281 60.175781 25.148438 59.757813 25.316406 59.289063 C 25.363281 59.191406 25.390625 59.113281 25.390625 59.007813 C 25.390625 58.757813 25.210938 58.546875 24.929688 58.546875 C 24.398438 58.546875 24.183594 59.367188 24.183594 59.414063 C 24.183594 59.476563 24.238281 59.476563 24.246094 59.476563 C 24.308594 59.476563 24.308594 59.457031 24.335938 59.367188 C 24.503906 58.800781 24.742188 58.667969 24.910156 58.667969 C 24.953125 58.667969 25.050781 58.667969 25.050781 58.847656 C 25.050781 58.988281 24.988281 59.148438 24.953125 59.246094 C 24.707031 59.902344 24.636719 60.15625 24.636719 60.40625 C 24.636719 61.015625 25.132813 61.105469 25.390625 61.105469 C 26.335938 61.105469 26.664063 59.234375 26.664063 58.945313 Z M 26.664063 58.945313 "
       id="path28" />
    <path
       style=" stroke:none;fill-rule:nonzero;fill:rgb(0%,0%,0%);fill-opacity:1;"
       d="M 28.074219 59.375 C 28.074219 59.269531 28.074219 59.269531 27.957031 59.269531 C 27.703125 59.515625 27.347656 59.515625 27.1875 59.515625 L 27.1875 59.660156 C 27.277344 59.660156 27.542969 59.660156 27.753906 59.550781 L 27.753906 61.5625 C 27.753906 61.695313 27.753906 61.75 27.363281 61.75 L 27.214844 61.75 L 27.214844 61.890625 C 27.285156 61.890625 27.773438 61.875 27.914063 61.875 C 28.039063 61.875 28.535156 61.890625 28.621094 61.890625 L 28.621094 61.75 L 28.472656 61.75 C 28.074219 61.75 28.074219 61.695313 28.074219 61.5625 Z M 28.074219 59.375 "
       id="path30" />
    <path
       style=" stroke:none;fill-rule:nonzero;fill:rgb(0%,0%,0%);fill-opacity:1;"
       d="M 30.914063 46.75 C 30.914063 46.378906 30.816406 45.589844 30.238281 45.589844 C 29.453125 45.589844 28.582031 47.183594 28.582031 48.476563 C 28.582031 49.007813 28.742188 49.636719 29.257813 49.636719 C 30.054688 49.636719 30.914063 48.015625 30.914063 46.75 Z M 29.175781 47.519531 C 29.273438 47.164063 29.390625 46.714844 29.621094 46.304688 C 29.769531 46.03125 29.972656 45.710938 30.230469 45.710938 C 30.507813 45.710938 30.542969 46.074219 30.542969 46.394531 C 30.542969 46.679688 30.496094 46.960938 30.363281 47.519531 Z M 30.3125 47.707031 C 30.25 47.960938 30.132813 48.441406 29.914063 48.847656 C 29.71875 49.238281 29.503906 49.511719 29.257813 49.511719 C 29.070313 49.511719 28.957031 49.34375 28.957031 48.820313 C 28.957031 48.582031 28.992188 48.253906 29.132813 47.707031 Z M 30.3125 47.707031 "
       id="path32" />
    <path
       style=" stroke:none;fill-rule:nonzero;fill:rgb(0%,0%,0%);fill-opacity:1;"
       d="M 32.316406 47.90625 C 32.316406 47.800781 32.316406 47.800781 32.199219 47.800781 C 31.945313 48.046875 31.589844 48.046875 31.429688 48.046875 L 31.429688 48.191406 C 31.519531 48.191406 31.785156 48.191406 31.996094 48.082031 L 31.996094 50.09375 C 31.996094 50.226563 31.996094 50.28125 31.605469 50.28125 L 31.457031 50.28125 L 31.457031 50.421875 C 31.527344 50.421875 32.015625 50.40625 32.15625 50.40625 C 32.28125 50.40625 32.777344 50.421875 32.863281 50.421875 L 32.863281 50.28125 L 32.714844 50.28125 C 32.316406 50.28125 32.316406 50.226563 32.316406 50.09375 Z M 32.316406 47.90625 "
       id="path34" />
    <path
       style=" stroke:none;fill-rule:nonzero;fill:rgb(0%,0%,0%);fill-opacity:1;"
       d="M 53.519531 35.015625 C 53.519531 34.644531 53.421875 33.855469 52.84375 33.855469 C 52.058594 33.855469 51.1875 35.449219 51.1875 36.742188 C 51.1875 37.273438 51.347656 37.902344 51.863281 37.902344 C 52.660156 37.902344 53.519531 36.28125 53.519531 35.015625 Z M 51.78125 35.785156 C 51.878906 35.433594 51.996094 34.980469 52.226563 34.574219 C 52.375 34.296875 52.578125 33.980469 52.835938 33.980469 C 53.109375 33.980469 53.148438 34.34375 53.148438 34.660156 C 53.148438 34.945313 53.101563 35.226563 52.96875 35.785156 Z M 52.917969 35.972656 C 52.855469 36.230469 52.738281 36.707031 52.519531 37.113281 C 52.324219 37.503906 52.109375 37.78125 51.863281 37.78125 C 51.675781 37.78125 51.5625 37.609375 51.5625 37.089844 C 51.5625 36.847656 51.597656 36.523438 51.738281 35.972656 Z M 52.917969 35.972656 "
       id="path36" />
    <path
       style=" stroke:none;fill-rule:nonzero;fill:rgb(0%,0%,0%);fill-opacity:1;"
       d="M 55.59375 37.972656 L 55.460938 37.972656 C 55.453125 38.058594 55.410156 38.289063 55.355469 38.324219 C 55.328125 38.351563 55.027344 38.351563 54.964844 38.351563 L 54.238281 38.351563 C 54.65625 37.988281 54.796875 37.875 55.027344 37.6875 C 55.320313 37.457031 55.59375 37.210938 55.59375 36.835938 C 55.59375 36.359375 55.179688 36.066406 54.671875 36.066406 C 54.1875 36.066406 53.847656 36.414063 53.847656 36.777344 C 53.847656 36.96875 54.019531 36.996094 54.0625 36.996094 C 54.152344 36.996094 54.265625 36.925781 54.265625 36.785156 C 54.265625 36.714844 54.238281 36.570313 54.035156 36.570313 C 54.160156 36.296875 54.425781 36.207031 54.609375 36.207031 C 55.011719 36.207031 55.214844 36.519531 55.214844 36.835938 C 55.214844 37.183594 54.964844 37.449219 54.839844 37.589844 L 53.894531 38.539063 C 53.847656 38.574219 53.847656 38.582031 53.847656 38.6875 L 55.480469 38.6875 Z M 55.59375 37.972656 "
       id="path38" />
    <path
       style="fill:none;stroke-width:0.75;stroke-linecap:butt;stroke-linejoin:miter;stroke:rgb(0%,0%,0%);stroke-opacity:1;stroke-miterlimit:4;"
       d="M 174.453625 239.640896 L 212.637219 239.640896 "
       transform="matrix(1,0,0,1,-158.813,-234.562771)"
       id="path40" />
    <path
       style="fill-rule:evenodd;fill:rgb(0%,0%,0%);fill-opacity:1;stroke-width:0.2;stroke-linecap:butt;stroke-linejoin:miter;stroke:rgb(0%,0%,0%);stroke-opacity:1;stroke-miterlimit:4;"
       d="M -211.738781 -239.640896 L -210.988781 -240.390896 L -213.613781 -239.640896 L -210.988781 -238.890896 Z M -211.738781 -239.640896 "
       transform="matrix(-1,0,0,-1,-158.813,-234.562771)"
       id="path42" />
    <path
       style=" stroke:none;fill-rule:nonzero;fill:rgb(0%,0%,0%);fill-opacity:1;"
       d="M 59.859375 5.304688 L 61.433594 5.304688 C 61.515625 5.304688 61.621094 5.304688 61.621094 5.1875 C 61.621094 5.082031 61.515625 5.082031 61.433594 5.082031 L 59.859375 5.082031 L 59.859375 3.496094 C 59.859375 3.417969 59.859375 3.3125 59.742188 3.3125 C 59.628906 3.3125 59.628906 3.417969 59.628906 3.496094 L 59.628906 5.082031 L 58.050781 5.082031 C 57.972656 5.082031 57.863281 5.082031 57.863281 5.1875 C 57.863281 5.304688 57.972656 5.304688 58.050781 5.304688 L 59.628906 5.304688 L 59.628906 6.890625 C 59.628906 6.96875 59.628906 7.074219 59.742188 7.074219 C 59.859375 7.074219 59.859375 6.96875 59.859375 6.890625 Z M 59.859375 5.304688 "
       id="path44" />
    <path
       style=" stroke:none;fill-rule:nonzero;fill:rgb(0%,0%,0%);fill-opacity:1;"
       d="M 63.828125 4.894531 C 63.863281 4.753906 63.996094 4.230469 64.382813 4.230469 C 64.410156 4.230469 64.550781 4.230469 64.667969 4.304688 C 64.507813 4.339844 64.402344 4.472656 64.402344 4.613281 C 64.402344 4.703125 64.464844 4.808594 64.613281 4.808594 C 64.738281 4.808594 64.914063 4.710938 64.914063 4.480469 C 64.914063 4.1875 64.589844 4.109375 64.394531 4.109375 C 64.066406 4.109375 63.871094 4.410156 63.800781 4.535156 C 63.65625 4.160156 63.355469 4.109375 63.1875 4.109375 C 62.605469 4.109375 62.277344 4.835938 62.277344 4.976563 C 62.277344 5.039063 62.339844 5.039063 62.347656 5.039063 C 62.390625 5.039063 62.410156 5.019531 62.417969 4.976563 C 62.613281 4.375 62.984375 4.230469 63.179688 4.230469 C 63.285156 4.230469 63.480469 4.285156 63.480469 4.613281 C 63.480469 4.789063 63.382813 5.164063 63.179688 5.960938 C 63.089844 6.304688 62.886719 6.542969 62.640625 6.542969 C 62.605469 6.542969 62.480469 6.542969 62.355469 6.472656 C 62.496094 6.4375 62.621094 6.324219 62.621094 6.164063 C 62.621094 6.011719 62.496094 5.96875 62.417969 5.96875 C 62.242188 5.96875 62.109375 6.109375 62.109375 6.296875 C 62.109375 6.554688 62.382813 6.667969 62.628906 6.667969 C 63.011719 6.667969 63.214844 6.269531 63.222656 6.242188 C 63.292969 6.445313 63.5 6.667969 63.835938 6.667969 C 64.417969 6.667969 64.738281 5.941406 64.738281 5.800781 C 64.738281 5.738281 64.695313 5.738281 64.675781 5.738281 C 64.625 5.738281 64.613281 5.765625 64.597656 5.800781 C 64.410156 6.410156 64.03125 6.542969 63.851563 6.542969 C 63.632813 6.542969 63.542969 6.367188 63.542969 6.171875 C 63.542969 6.046875 63.570313 5.925781 63.632813 5.675781 Z M 63.828125 4.894531 "
       id="path46" />
  </g>
</svg>
