<?xml version="1.0" encoding="UTF-8" standalone="no"?>
<svg
   xmlns:dc="http://purl.org/dc/elements/1.1/"
   xmlns:cc="http://creativecommons.org/ns#"
   xmlns:rdf="http://www.w3.org/1999/02/22-rdf-syntax-ns#"
   xmlns:svg="http://www.w3.org/2000/svg"
   xmlns="http://www.w3.org/2000/svg"
   xmlns:sodipodi="http://sodipodi.sourceforge.net/DTD/sodipodi-0.dtd"
   xmlns:inkscape="http://www.inkscape.org/namespaces/inkscape"
   width="73pt"
   height="50.75pt"
   viewBox="0 0 73 50.75"
   version="1.2"
   id="svg49"
   sodipodi:docname="211.svg"
   inkscape:version="0.92.4 (5da689c313, 2019-01-14)">
  <metadata
     id="metadata55">
    <rdf:RDF>
      <cc:Work
         rdf:about="">
        <dc:format>image/svg+xml</dc:format>
        <dc:type
           rdf:resource="http://purl.org/dc/dcmitype/StillImage" />
        <dc:title></dc:title>
      </cc:Work>
    </rdf:RDF>
  </metadata>
  <defs
     id="defs53" />
  <sodipodi:namedview
     pagecolor="#ffffff"
     bordercolor="#666666"
     borderopacity="1"
     objecttolerance="10"
     gridtolerance="10"
     guidetolerance="10"
     inkscape:pageopacity="0"
     inkscape:pageshadow="2"
     inkscape:window-width="727"
     inkscape:window-height="480"
     id="namedview51"
     showgrid="false"
     inkscape:zoom="3.4876847"
     inkscape:cx="48.666667"
     inkscape:cy="33.833333"
     inkscape:window-x="0"
     inkscape:window-y="0"
     inkscape:window-maximized="0"
     inkscape:current-layer="svg49" />
  <g
     id="surface40">
    <path
       style="fill:none;stroke-width:0.751181;stroke-linecap:butt;stroke-linejoin:miter;stroke:rgb(0%,0%,0%);stroke-opacity:1;stroke-miterlimit:4;"
       d="M 165.769531 243.91774 L 165.769531 276.640396 "
       transform="matrix(1,0,0,1,-142.25,-235.749771)"
       id="path2" />
    <path
       style="fill:none;stroke-width:0.751181;stroke-linecap:butt;stroke-linejoin:miter;stroke:rgb(0%,0%,0%);stroke-opacity:1;stroke-miterlimit:4;"
       d="M 165.660156 276.331802 L 195.929688 250.484146 "
       transform="matrix(1,0,0,1,-142.25,-235.749771)"
       id="path4" />
    <path
       style="fill-rule:evenodd;fill:rgb(0%,0%,0%);fill-opacity:1;stroke-width:0.152328;stroke-linecap:butt;stroke-linejoin:miter;stroke:rgb(0%,0%,0%);stroke-opacity:1;stroke-miterlimit:4;"
       d="M 11.083854 -241.604672 L 11.654061 -242.176319 L 9.655241 -241.605931 L 11.653571 -241.032206 Z M 11.083854 -241.604672 "
       transform="matrix(-1,0.853982,-0.853982,-1,-142.25,-235.749771)"
       id="path6" />
    <path
       style="fill:none;stroke-width:0.751181;stroke-linecap:butt;stroke-linejoin:miter;stroke:rgb(0%,0%,0%);stroke-opacity:1;stroke-miterlimit:4;"
       d="M 165.402344 276.26149 L 206.210938 276.26149 "
       transform="matrix(1,0,0,1,-142.25,-235.749771)"
       id="path8" />
    <path
       style="fill:none;stroke-width:0.75;stroke-linecap:butt;stroke-linejoin:miter;stroke:rgb(0%,0%,0%);stroke-opacity:1;stroke-miterlimit:4;"
       d="M 169.535156 272.550552 C 170.738281 273.687271 172.53125 274.843521 172.53125 276.585709 "
       transform="matrix(1,0,0,1,-142.25,-235.749771)"
       id="path10" />
    <path
       style=" stroke:none;fill-rule:nonzero;fill:rgb(0%,0%,0%);fill-opacity:1;"
       d="M 68.308594 40.234375 C 68.34375 40.089844 68.476563 39.570313 68.867188 39.570313 C 68.894531 39.570313 69.035156 39.570313 69.152344 39.640625 C 68.992188 39.675781 68.886719 39.808594 68.886719 39.949219 C 68.886719 40.039063 68.945313 40.144531 69.097656 40.144531 C 69.222656 40.144531 69.398438 40.046875 69.398438 39.816406 C 69.398438 39.523438 69.070313 39.445313 68.875 39.445313 C 68.546875 39.445313 68.351563 39.746094 68.28125 39.871094 C 68.140625 39.496094 67.839844 39.445313 67.671875 39.445313 C 67.085938 39.445313 66.757813 40.171875 66.757813 40.3125 C 66.757813 40.375 66.820313 40.375 66.828125 40.375 C 66.875 40.375 66.890625 40.355469 66.902344 40.3125 C 67.09375 39.710938 67.46875 39.570313 67.664063 39.570313 C 67.769531 39.570313 67.964844 39.621094 67.964844 39.949219 C 67.964844 40.128906 67.867188 40.5 67.664063 41.296875 C 67.574219 41.640625 67.371094 41.882813 67.121094 41.882813 C 67.085938 41.882813 66.960938 41.882813 66.839844 41.808594 C 66.980469 41.773438 67.105469 41.660156 67.105469 41.5 C 67.105469 41.347656 66.980469 41.304688 66.902344 41.304688 C 66.722656 41.304688 66.589844 41.445313 66.589844 41.632813 C 66.589844 41.890625 66.867188 42.003906 67.113281 42.003906 C 67.496094 42.003906 67.699219 41.605469 67.707031 41.578125 C 67.777344 41.785156 67.980469 42.003906 68.316406 42.003906 C 68.902344 42.003906 69.222656 41.277344 69.222656 41.136719 C 69.222656 41.074219 69.175781 41.074219 69.160156 41.074219 C 69.105469 41.074219 69.097656 41.101563 69.078125 41.136719 C 68.894531 41.746094 68.511719 41.882813 68.335938 41.882813 C 68.113281 41.882813 68.027344 41.703125 68.027344 41.507813 C 68.027344 41.386719 68.050781 41.261719 68.113281 41.011719 Z M 68.308594 40.234375 "
       id="path12" />
    <path
       style=" stroke:none;fill-rule:nonzero;fill:rgb(0%,0%,0%);fill-opacity:1;"
       d="M 25.019531 2.753906 C 25.046875 2.675781 25.046875 2.664063 25.046875 2.621094 C 25.046875 2.523438 24.96875 2.46875 24.878906 2.46875 C 24.824219 2.46875 24.738281 2.503906 24.683594 2.585938 C 24.675781 2.621094 24.621094 2.789063 24.605469 2.894531 C 24.558594 3.035156 24.523438 3.195313 24.488281 3.347656 L 24.230469 4.367188 C 24.214844 4.445313 23.964844 4.84375 23.59375 4.84375 C 23.3125 4.84375 23.25 4.597656 23.25 4.382813 C 23.25 4.125 23.347656 3.773438 23.53125 3.277344 C 23.621094 3.046875 23.648438 2.984375 23.648438 2.867188 C 23.648438 2.621094 23.46875 2.40625 23.1875 2.40625 C 22.644531 2.40625 22.441406 3.230469 22.441406 3.277344 C 22.441406 3.339844 22.496094 3.339844 22.503906 3.339844 C 22.566406 3.339844 22.566406 3.320313 22.59375 3.230469 C 22.753906 2.699219 22.972656 2.53125 23.167969 2.53125 C 23.214844 2.53125 23.3125 2.53125 23.3125 2.710938 C 23.3125 2.851563 23.25 3 23.214844 3.109375 C 22.984375 3.710938 22.886719 4.027344 22.886719 4.296875 C 22.886719 4.800781 23.238281 4.96875 23.578125 4.96875 C 23.796875 4.96875 23.984375 4.871094 24.144531 4.710938 C 24.074219 5.003906 24 5.285156 23.78125 5.589844 C 23.628906 5.773438 23.417969 5.941406 23.160156 5.941406 C 23.082031 5.941406 22.824219 5.925781 22.726563 5.703125 C 22.816406 5.703125 22.894531 5.703125 22.964844 5.632813 C 23.027344 5.589844 23.082031 5.507813 23.082031 5.402344 C 23.082031 5.226563 22.929688 5.207031 22.875 5.207031 C 22.742188 5.207031 22.558594 5.296875 22.558594 5.570313 C 22.558594 5.855469 22.804688 6.066406 23.160156 6.066406 C 23.734375 6.066406 24.320313 5.554688 24.480469 4.914063 Z M 25.019531 2.753906 "
       id="path14" />
    <path
       style=" stroke:none;fill-rule:nonzero;fill:rgb(0%,0%,0%);fill-opacity:1;"
       d="M 35.609375 34.078125 C 35.609375 34.0625 35.625 34 35.625 34 C 35.625 33.988281 35.625 33.9375 35.554688 33.9375 C 35.503906 33.9375 35.492188 33.953125 35.46875 34.050781 L 35.140625 35.355469 C 34.246094 35.390625 33.414063 36.132813 33.414063 36.90625 C 33.414063 37.445313 33.8125 37.886719 34.5 37.933594 C 34.457031 38.101563 34.414063 38.285156 34.367188 38.464844 C 34.296875 38.730469 34.246094 38.941406 34.246094 38.960938 C 34.246094 39.011719 34.289063 39.023438 34.316406 39.023438 C 34.34375 39.023438 34.351563 39.011719 34.367188 38.996094 C 34.378906 38.984375 34.414063 38.851563 34.429688 38.773438 L 34.644531 37.933594 C 35.554688 37.898438 36.378906 37.136719 36.378906 36.382813 C 36.378906 35.929688 36.078125 35.417969 35.289063 35.355469 Z M 34.527344 37.808594 C 34.191406 37.789063 33.785156 37.585938 33.785156 37.027344 C 33.785156 36.347656 34.273438 35.558594 35.113281 35.476563 Z M 35.253906 35.476563 C 35.6875 35.503906 36.007813 35.761719 36.007813 36.257813 C 36.007813 36.929688 35.519531 37.738281 34.679688 37.808594 Z M 35.253906 35.476563 "
       id="path16" />
    <path
       style=" stroke:none;fill-rule:nonzero;fill:rgb(0%,0%,0%);fill-opacity:1;"
       d="M 32.839844 46.738281 C 32.820313 46.828125 32.785156 46.960938 32.785156 46.988281 C 32.785156 47.085938 32.867188 47.136719 32.953125 47.136719 C 33.027344 47.136719 33.121094 47.09375 33.167969 46.976563 C 33.175781 46.960938 33.363281 46.191406 33.390625 46.082031 C 33.433594 45.898438 33.539063 45.507813 33.566406 45.347656 C 33.59375 45.277344 33.753906 45.011719 33.886719 44.886719 C 33.929688 44.851563 34.097656 44.703125 34.335938 44.703125 C 34.488281 44.703125 34.566406 44.773438 34.574219 44.773438 C 34.40625 44.800781 34.285156 44.933594 34.285156 45.082031 C 34.285156 45.171875 34.34375 45.277344 34.496094 45.277344 C 34.648438 45.277344 34.804688 45.144531 34.804688 44.941406 C 34.804688 44.746094 34.628906 44.578125 34.335938 44.578125 C 33.972656 44.578125 33.726563 44.851563 33.617188 45.011719 C 33.566406 44.753906 33.363281 44.578125 33.097656 44.578125 C 32.839844 44.578125 32.734375 44.800781 32.679688 44.898438 C 32.582031 45.089844 32.511719 45.429688 32.511719 45.445313 C 32.511719 45.507813 32.566406 45.507813 32.574219 45.507813 C 32.636719 45.507813 32.636719 45.5 32.671875 45.375 C 32.769531 44.976563 32.882813 44.703125 33.085938 44.703125 C 33.175781 44.703125 33.257813 44.746094 33.257813 44.957031 C 33.257813 45.082031 33.238281 45.144531 33.167969 45.4375 Z M 32.839844 46.738281 "
       id="path18" />
    <path
       style=" stroke:none;fill-rule:nonzero;fill:rgb(0%,0%,0%);fill-opacity:1;"
       d="M 36.65625 45.84375 C 36.65625 44.921875 37.113281 44.683594 37.417969 44.683594 C 37.46875 44.683594 37.824219 44.691406 38.019531 44.898438 C 37.789063 44.914063 37.753906 45.082031 37.753906 45.152344 C 37.753906 45.304688 37.859375 45.410156 38.007813 45.410156 C 38.160156 45.410156 38.277344 45.320313 38.277344 45.144531 C 38.277344 44.761719 37.839844 44.542969 37.40625 44.542969 C 36.699219 44.542969 36.183594 45.152344 36.183594 45.851563 C 36.183594 46.578125 36.742188 47.136719 37.398438 47.136719 C 38.152344 47.136719 38.335938 46.457031 38.335938 46.402344 C 38.335938 46.347656 38.277344 46.347656 38.257813 46.347656 C 38.214844 46.347656 38.195313 46.367188 38.1875 46.402344 C 38.027344 46.925781 37.65625 46.996094 37.453125 46.996094 C 37.152344 46.996094 36.65625 46.757813 36.65625 45.84375 Z M 36.65625 45.84375 "
       id="path20" />
    <path
       style=" stroke:none;fill-rule:nonzero;fill:rgb(0%,0%,0%);fill-opacity:1;"
       d="M 41.15625 45.863281 C 41.15625 45.144531 40.597656 44.542969 39.917969 44.542969 C 39.207031 44.542969 38.660156 45.164063 38.660156 45.863281 C 38.660156 46.597656 39.242188 47.136719 39.910156 47.136719 C 40.589844 47.136719 41.15625 46.578125 41.15625 45.863281 Z M 39.917969 46.996094 C 39.667969 46.996094 39.421875 46.878906 39.269531 46.613281 C 39.128906 46.367188 39.128906 46.023438 39.128906 45.816406 C 39.128906 45.597656 39.128906 45.296875 39.261719 45.046875 C 39.414063 44.789063 39.679688 44.667969 39.910156 44.667969 C 40.15625 44.667969 40.394531 44.789063 40.546875 45.039063 C 40.695313 45.277344 40.695313 45.605469 40.695313 45.816406 C 40.695313 46.023438 40.695313 46.332031 40.574219 46.578125 C 40.441406 46.835938 40.191406 46.996094 39.917969 46.996094 Z M 39.917969 46.996094 "
       id="path22" />
    <path
       style=" stroke:none;fill-rule:nonzero;fill:rgb(0%,0%,0%);fill-opacity:1;"
       d="M 42.503906 45.976563 C 42.625 46.003906 43.085938 46.09375 43.085938 46.5 C 43.085938 46.785156 42.890625 47.011719 42.449219 47.011719 C 41.972656 47.011719 41.765625 46.695313 41.660156 46.207031 C 41.644531 46.136719 41.644531 46.117188 41.582031 46.117188 C 41.511719 46.117188 41.511719 46.15625 41.511719 46.25 L 41.511719 47.003906 C 41.511719 47.101563 41.511719 47.136719 41.570313 47.136719 C 41.597656 47.136719 41.609375 47.128906 41.714844 47.023438 C 41.722656 47.011719 41.722656 47.003906 41.828125 46.898438 C 42.078125 47.128906 42.332031 47.136719 42.449219 47.136719 C 43.097656 47.136719 43.363281 46.757813 43.363281 46.347656 C 43.363281 46.058594 43.191406 45.878906 43.121094 45.816406 C 42.9375 45.632813 42.714844 45.585938 42.476563 45.542969 C 42.15625 45.480469 41.785156 45.410156 41.785156 45.082031 C 41.785156 44.878906 41.925781 44.648438 42.414063 44.648438 C 43.035156 44.648438 43.070313 45.164063 43.078125 45.332031 C 43.078125 45.382813 43.132813 45.382813 43.140625 45.382813 C 43.21875 45.382813 43.21875 45.355469 43.21875 45.25 L 43.21875 44.675781 C 43.21875 44.585938 43.21875 44.542969 43.15625 44.542969 C 43.132813 44.542969 43.113281 44.542969 43.042969 44.613281 C 43.023438 44.628906 42.972656 44.683594 42.945313 44.703125 C 42.734375 44.542969 42.503906 44.542969 42.414063 44.542969 C 41.722656 44.542969 41.511719 44.921875 41.511719 45.242188 C 41.511719 45.4375 41.597656 45.597656 41.75 45.71875 C 41.933594 45.863281 42.09375 45.898438 42.503906 45.976563 Z M 42.503906 45.976563 "
       id="path24" />
    <path
       style=" stroke:none;fill-rule:nonzero;fill:rgb(0%,0%,0%);fill-opacity:1;"
       d="M 45.421875 48.429688 C 45.421875 48.414063 45.421875 48.40625 45.324219 48.308594 C 44.625 47.597656 44.4375 46.527344 44.4375 45.660156 C 44.4375 44.675781 44.648438 43.691406 45.351563 42.992188 C 45.421875 42.921875 45.421875 42.914063 45.421875 42.894531 C 45.421875 42.851563 45.402344 42.832031 45.367188 42.832031 C 45.304688 42.832031 44.800781 43.222656 44.464844 43.941406 C 44.179688 44.558594 44.109375 45.1875 44.109375 45.660156 C 44.109375 46.101563 44.171875 46.785156 44.480469 47.429688 C 44.828125 48.121094 45.304688 48.492188 45.367188 48.492188 C 45.402344 48.492188 45.421875 48.476563 45.421875 48.429688 Z M 45.421875 48.429688 "
       id="path26" />
    <path
       style=" stroke:none;fill-rule:nonzero;fill:rgb(0%,0%,0%);fill-opacity:1;"
       d="M 48.21875 43.292969 C 48.21875 43.277344 48.238281 43.214844 48.238281 43.214844 C 48.238281 43.203125 48.238281 43.152344 48.167969 43.152344 C 48.113281 43.152344 48.105469 43.167969 48.078125 43.265625 L 47.75 44.570313 C 46.855469 44.605469 46.023438 45.347656 46.023438 46.117188 C 46.023438 46.660156 46.421875 47.101563 47.113281 47.148438 C 47.070313 47.316406 47.023438 47.5 46.980469 47.679688 C 46.910156 47.945313 46.855469 48.15625 46.855469 48.175781 C 46.855469 48.226563 46.898438 48.234375 46.925781 48.234375 C 46.953125 48.234375 46.960938 48.226563 46.980469 48.210938 C 46.988281 48.199219 47.023438 48.066406 47.042969 47.988281 L 47.253906 47.148438 C 48.167969 47.109375 48.992188 46.347656 48.992188 45.597656 C 48.992188 45.144531 48.691406 44.628906 47.902344 44.570313 Z M 47.140625 47.023438 C 46.800781 47.003906 46.394531 46.800781 46.394531 46.242188 C 46.394531 45.5625 46.882813 44.773438 47.722656 44.691406 Z M 47.867188 44.691406 C 48.300781 44.71875 48.617188 44.976563 48.617188 45.472656 C 48.617188 46.144531 48.132813 46.953125 47.289063 47.023438 Z M 47.867188 44.691406 "
       id="path28" />
    <path
       style=" stroke:none;fill-rule:nonzero;fill:rgb(0%,0%,0%);fill-opacity:1;"
       d="M 50.742188 45.660156 C 50.742188 45.222656 50.683594 44.542969 50.371094 43.894531 C 50.035156 43.203125 49.546875 42.832031 49.496094 42.832031 C 49.460938 42.832031 49.433594 42.859375 49.433594 42.894531 C 49.433594 42.914063 49.433594 42.921875 49.539063 43.027344 C 50.097656 43.585938 50.414063 44.480469 50.414063 45.660156 C 50.414063 46.632813 50.210938 47.625 49.511719 48.332031 C 49.433594 48.40625 49.433594 48.414063 49.433594 48.429688 C 49.433594 48.464844 49.460938 48.492188 49.496094 48.492188 C 49.546875 48.492188 50.0625 48.101563 50.390625 47.386719 C 50.683594 46.765625 50.742188 46.136719 50.742188 45.660156 Z M 50.742188 45.660156 "
       id="path30" />
    <path
       style=" stroke:none;fill-rule:nonzero;fill:rgb(0%,0%,0%);fill-opacity:1;"
       d="M 4.363281 26.585938 C 4.347656 26.675781 4.3125 26.808594 4.3125 26.835938 C 4.3125 26.933594 4.390625 26.984375 4.480469 26.984375 C 4.550781 26.984375 4.648438 26.941406 4.691406 26.824219 C 4.703125 26.808594 4.886719 26.039063 4.914063 25.929688 C 4.957031 25.746094 5.066406 25.355469 5.089844 25.195313 C 5.117188 25.125 5.277344 24.859375 5.410156 24.734375 C 5.453125 24.699219 5.621094 24.550781 5.863281 24.550781 C 6.011719 24.550781 6.09375 24.621094 6.101563 24.621094 C 5.933594 24.648438 5.808594 24.78125 5.808594 24.929688 C 5.808594 25.019531 5.871094 25.125 6.019531 25.125 C 6.171875 25.125 6.332031 24.992188 6.332031 24.789063 C 6.332031 24.59375 6.152344 24.425781 5.863281 24.425781 C 5.5 24.425781 5.25 24.699219 5.144531 24.859375 C 5.089844 24.601563 4.886719 24.425781 4.621094 24.425781 C 4.363281 24.425781 4.257813 24.648438 4.207031 24.742188 C 4.109375 24.9375 4.035156 25.277344 4.035156 25.292969 C 4.035156 25.355469 4.089844 25.355469 4.097656 25.355469 C 4.160156 25.355469 4.160156 25.347656 4.195313 25.222656 C 4.292969 24.824219 4.410156 24.550781 4.613281 24.550781 C 4.703125 24.550781 4.78125 24.59375 4.78125 24.804688 C 4.78125 24.929688 4.761719 24.992188 4.691406 25.285156 Z M 4.363281 26.585938 "
       id="path32" />
    <path
       style=" stroke:none;fill-rule:nonzero;fill:rgb(0%,0%,0%);fill-opacity:1;"
       d="M 8.691406 25.824219 C 8.816406 25.851563 9.277344 25.941406 9.277344 26.347656 C 9.277344 26.628906 9.082031 26.859375 8.640625 26.859375 C 8.160156 26.859375 7.957031 26.542969 7.851563 26.054688 C 7.835938 25.984375 7.835938 25.964844 7.773438 25.964844 C 7.703125 25.964844 7.703125 26 7.703125 26.097656 L 7.703125 26.851563 C 7.703125 26.949219 7.703125 26.984375 7.761719 26.984375 C 7.789063 26.984375 7.796875 26.976563 7.90625 26.871094 C 7.914063 26.859375 7.914063 26.851563 8.019531 26.746094 C 8.269531 26.976563 8.523438 26.984375 8.640625 26.984375 C 9.285156 26.984375 9.550781 26.605469 9.550781 26.195313 C 9.550781 25.90625 9.382813 25.726563 9.3125 25.664063 C 9.128906 25.480469 8.90625 25.433594 8.667969 25.390625 C 8.347656 25.328125 7.976563 25.257813 7.976563 24.929688 C 7.976563 24.726563 8.117188 24.496094 8.605469 24.496094 C 9.226563 24.496094 9.261719 25.007813 9.269531 25.179688 C 9.269531 25.230469 9.320313 25.230469 9.332031 25.230469 C 9.410156 25.230469 9.410156 25.203125 9.410156 25.097656 L 9.410156 24.523438 C 9.410156 24.433594 9.410156 24.390625 9.347656 24.390625 C 9.320313 24.390625 9.304688 24.390625 9.234375 24.460938 C 9.214844 24.476563 9.164063 24.53125 9.136719 24.550781 C 8.921875 24.390625 8.691406 24.390625 8.605469 24.390625 C 7.914063 24.390625 7.703125 24.769531 7.703125 25.089844 C 7.703125 25.285156 7.789063 25.445313 7.941406 25.566406 C 8.125 25.710938 8.285156 25.746094 8.691406 25.824219 Z M 8.691406 25.824219 "
       id="path34" />
    <path
       style=" stroke:none;fill-rule:nonzero;fill:rgb(0%,0%,0%);fill-opacity:1;"
       d="M 10.742188 24.425781 L 9.957031 24.488281 L 9.957031 24.664063 C 10.320313 24.664063 10.371094 24.699219 10.371094 24.972656 L 10.371094 26.496094 C 10.371094 26.746094 10.308594 26.746094 9.929688 26.746094 L 9.929688 26.921875 C 10.105469 26.914063 10.414063 26.90625 10.550781 26.90625 C 10.753906 26.90625 10.949219 26.914063 11.140625 26.921875 L 11.140625 26.746094 C 10.761719 26.746094 10.742188 26.71875 10.742188 26.496094 Z M 10.761719 23.441406 C 10.761719 23.265625 10.628906 23.140625 10.46875 23.140625 C 10.292969 23.140625 10.167969 23.292969 10.167969 23.441406 C 10.167969 23.59375 10.292969 23.742188 10.46875 23.742188 C 10.628906 23.742188 10.761719 23.617188 10.761719 23.441406 Z M 10.761719 23.441406 "
       id="path36" />
    <path
       style=" stroke:none;fill-rule:nonzero;fill:rgb(0%,0%,0%);fill-opacity:1;"
       d="M 11.933594 24.984375 L 11.933594 26.496094 C 11.933594 26.746094 11.871094 26.746094 11.488281 26.746094 L 11.488281 26.921875 C 11.691406 26.914063 11.976563 26.90625 12.136719 26.90625 C 12.277344 26.90625 12.570313 26.914063 12.765625 26.921875 L 12.765625 26.746094 C 12.382813 26.746094 12.320313 26.746094 12.320313 26.496094 L 12.320313 25.453125 C 12.320313 24.867188 12.730469 24.550781 13.082031 24.550781 C 13.445313 24.550781 13.507813 24.851563 13.507813 25.179688 L 13.507813 26.496094 C 13.507813 26.746094 13.445313 26.746094 13.066406 26.746094 L 13.066406 26.921875 C 13.261719 26.914063 13.554688 26.90625 13.703125 26.90625 C 13.84375 26.90625 14.144531 26.914063 14.332031 26.921875 L 14.332031 26.746094 C 14.039063 26.746094 13.898438 26.746094 13.898438 26.578125 L 13.898438 25.496094 C 13.898438 25.007813 13.898438 24.839844 13.722656 24.636719 C 13.640625 24.539063 13.457031 24.425781 13.128906 24.425781 C 12.710938 24.425781 12.445313 24.664063 12.285156 25.019531 L 12.285156 24.425781 L 11.488281 24.488281 L 11.488281 24.664063 C 11.886719 24.664063 11.933594 24.699219 11.933594 24.984375 Z M 11.933594 24.984375 "
       id="path38" />
    <path
       style=" stroke:none;fill-rule:nonzero;fill:rgb(0%,0%,0%);fill-opacity:1;"
       d="M 16.320313 28.277344 C 16.320313 28.261719 16.320313 28.25 16.222656 28.15625 C 15.523438 27.445313 15.335938 26.375 15.335938 25.503906 C 15.335938 24.523438 15.546875 23.539063 16.25 22.839844 C 16.320313 22.769531 16.320313 22.757813 16.320313 22.742188 C 16.320313 22.699219 16.300781 22.679688 16.265625 22.679688 C 16.203125 22.679688 15.699219 23.070313 15.363281 23.789063 C 15.078125 24.40625 15.007813 25.035156 15.007813 25.503906 C 15.007813 25.949219 15.070313 26.628906 15.378906 27.277344 C 15.726563 27.96875 16.203125 28.339844 16.265625 28.339844 C 16.300781 28.339844 16.320313 28.324219 16.320313 28.277344 Z M 16.320313 28.277344 "
       id="path40" />
    <path
       style=" stroke:none;fill-rule:nonzero;fill:rgb(0%,0%,0%);fill-opacity:1;"
       d="M 19.117188 23.140625 C 19.117188 23.121094 19.136719 23.0625 19.136719 23.0625 C 19.136719 23.050781 19.136719 23 19.0625 23 C 19.011719 23 19.003906 23.015625 18.976563 23.113281 L 18.648438 24.417969 C 17.753906 24.453125 16.921875 25.195313 16.921875 25.964844 C 16.921875 26.507813 17.320313 26.949219 18.011719 26.992188 C 17.964844 27.164063 17.921875 27.347656 17.878906 27.527344 C 17.804688 27.792969 17.753906 28.003906 17.753906 28.023438 C 17.753906 28.074219 17.796875 28.082031 17.824219 28.082031 C 17.851563 28.082031 17.859375 28.074219 17.878906 28.058594 C 17.886719 28.046875 17.921875 27.914063 17.9375 27.835938 L 18.152344 26.992188 C 19.0625 26.957031 19.886719 26.195313 19.886719 25.445313 C 19.886719 24.992188 19.585938 24.476563 18.796875 24.417969 Z M 18.035156 26.871094 C 17.699219 26.851563 17.292969 26.648438 17.292969 26.089844 C 17.292969 25.410156 17.78125 24.621094 18.621094 24.539063 Z M 18.761719 24.539063 C 19.199219 24.566406 19.515625 24.824219 19.515625 25.320313 C 19.515625 25.992188 19.027344 26.800781 18.1875 26.871094 Z M 18.761719 24.539063 "
       id="path42" />
    <path
       style=" stroke:none;fill-rule:nonzero;fill:rgb(0%,0%,0%);fill-opacity:1;"
       d="M 21.640625 25.503906 C 21.640625 25.070313 21.578125 24.390625 21.269531 23.742188 C 20.933594 23.050781 20.445313 22.679688 20.394531 22.679688 C 20.359375 22.679688 20.332031 22.707031 20.332031 22.742188 C 20.332031 22.757813 20.332031 22.769531 20.4375 22.875 C 20.996094 23.433594 21.3125 24.328125 21.3125 25.503906 C 21.3125 26.480469 21.109375 27.472656 20.410156 28.179688 C 20.332031 28.25 20.332031 28.261719 20.332031 28.277344 C 20.332031 28.3125 20.359375 28.339844 20.394531 28.339844 C 20.445313 28.339844 20.960938 27.949219 21.289063 27.234375 C 21.578125 26.613281 21.640625 25.984375 21.640625 25.503906 Z M 21.640625 25.503906 "
       id="path44" />
    <path
       style=" stroke:none;fill-rule:nonzero;fill:rgb(0%,0%,0%);fill-opacity:1;"
       d="M 37.570313 23.507813 C 37.554688 23.59375 37.519531 23.726563 37.519531 23.753906 C 37.519531 23.851563 37.597656 23.90625 37.6875 23.90625 C 37.757813 23.90625 37.855469 23.859375 37.898438 23.746094 C 37.910156 23.726563 38.09375 22.957031 38.121094 22.851563 C 38.164063 22.664063 38.273438 22.273438 38.296875 22.117188 C 38.324219 22.042969 38.484375 21.777344 38.617188 21.65625 C 38.660156 21.621094 38.828125 21.46875 39.070313 21.46875 C 39.21875 21.46875 39.300781 21.539063 39.308594 21.539063 C 39.140625 21.566406 39.015625 21.699219 39.015625 21.851563 C 39.015625 21.9375 39.078125 22.042969 39.226563 22.042969 C 39.378906 22.042969 39.539063 21.910156 39.539063 21.707031 C 39.539063 21.511719 39.359375 21.34375 39.070313 21.34375 C 38.707031 21.34375 38.457031 21.621094 38.351563 21.777344 C 38.296875 21.523438 38.09375 21.34375 37.828125 21.34375 C 37.570313 21.34375 37.464844 21.566406 37.414063 21.664063 C 37.316406 21.859375 37.246094 22.195313 37.246094 22.214844 C 37.246094 22.273438 37.296875 22.273438 37.304688 22.273438 C 37.367188 22.273438 37.367188 22.265625 37.402344 22.140625 C 37.5 21.742188 37.617188 21.46875 37.820313 21.46875 C 37.910156 21.46875 37.988281 21.511719 37.988281 21.726563 C 37.988281 21.851563 37.96875 21.910156 37.898438 22.203125 Z M 37.570313 23.507813 "
       id="path46" />
  </g>
</svg>
