<?xml version="1.0" encoding="UTF-8" standalone="no"?>
<svg
   xmlns:dc="http://purl.org/dc/elements/1.1/"
   xmlns:cc="http://creativecommons.org/ns#"
   xmlns:rdf="http://www.w3.org/1999/02/22-rdf-syntax-ns#"
   xmlns:svg="http://www.w3.org/2000/svg"
   xmlns="http://www.w3.org/2000/svg"
   xmlns:sodipodi="http://sodipodi.sourceforge.net/DTD/sodipodi-0.dtd"
   xmlns:inkscape="http://www.inkscape.org/namespaces/inkscape"
   width="60.625pt"
   height="49pt"
   viewBox="0 0 60.625 49"
   version="1.2"
   id="svg37"
   sodipodi:docname="212.svg"
   inkscape:version="0.92.4 (5da689c313, 2019-01-14)">
  <metadata
     id="metadata43">
    <rdf:RDF>
      <cc:Work
         rdf:about="">
        <dc:format>image/svg+xml</dc:format>
        <dc:type
           rdf:resource="http://purl.org/dc/dcmitype/StillImage" />
        <dc:title></dc:title>
      </cc:Work>
    </rdf:RDF>
  </metadata>
  <defs
     id="defs41" />
  <sodipodi:namedview
     pagecolor="#ffffff"
     bordercolor="#666666"
     borderopacity="1"
     objecttolerance="10"
     gridtolerance="10"
     guidetolerance="10"
     inkscape:pageopacity="0"
     inkscape:pageshadow="2"
     inkscape:window-width="730"
     inkscape:window-height="480"
     id="namedview39"
     showgrid="false"
     inkscape:zoom="3.6122449"
     inkscape:cx="40.416667"
     inkscape:cy="32.666667"
     inkscape:window-x="0"
     inkscape:window-y="0"
     inkscape:window-maximized="0"
     inkscape:current-layer="svg37" />
  <g
     id="surface36">
    <path
       style="fill:none;stroke-width:0.751181;stroke-linecap:butt;stroke-linejoin:miter;stroke:rgb(0%,0%,0%);stroke-opacity:1;stroke-miterlimit:4;"
       d="M 165.769531 243.91774 L 165.769531 276.640396 "
       transform="matrix(1,0,0,1,-155,-236.124771)"
       id="path2" />
    <path
       style="fill:none;stroke-width:0.751181;stroke-linecap:butt;stroke-linejoin:miter;stroke:rgb(0%,0%,0%);stroke-opacity:1;stroke-miterlimit:4;"
       d="M 165.660156 276.331802 L 195.929688 250.484146 "
       transform="matrix(1,0,0,1,-155,-236.124771)"
       id="path4" />
    <path
       style="fill-rule:evenodd;fill:rgb(0%,0%,0%);fill-opacity:1;stroke-width:0.152328;stroke-linecap:butt;stroke-linejoin:miter;stroke:rgb(0%,0%,0%);stroke-opacity:1;stroke-miterlimit:4;"
       d="M 11.083854 -241.604672 L 11.654061 -242.176319 L 9.655241 -241.605931 L 11.653571 -241.032206 Z M 11.083854 -241.604672 "
       transform="matrix(-1,0.853982,-0.853982,-1,-155,-236.124771)"
       id="path6" />
    <path
       style="fill:none;stroke-width:0.751181;stroke-linecap:butt;stroke-linejoin:miter;stroke:rgb(0%,0%,0%);stroke-opacity:1;stroke-miterlimit:4;"
       d="M 165.402344 276.26149 L 206.210938 276.26149 "
       transform="matrix(1,0,0,1,-155,-236.124771)"
       id="path8" />
    <path
       style="fill:none;stroke-width:0.75;stroke-linecap:butt;stroke-linejoin:miter;stroke:rgb(0%,0%,0%);stroke-opacity:1;stroke-miterlimit:4;"
       d="M 169.535156 272.550552 C 170.738281 273.687271 172.53125 274.843521 172.53125 276.585709 "
       transform="matrix(1,0,0,1,-155,-236.124771)"
       id="path10" />
    <path
       style=" stroke:none;fill-rule:nonzero;fill:rgb(0%,0%,0%);fill-opacity:1;"
       d="M 55.558594 39.859375 C 55.59375 39.714844 55.726563 39.195313 56.117188 39.195313 C 56.144531 39.195313 56.285156 39.195313 56.402344 39.265625 C 56.242188 39.300781 56.136719 39.433594 56.136719 39.574219 C 56.136719 39.664063 56.195313 39.769531 56.347656 39.769531 C 56.472656 39.769531 56.648438 39.671875 56.648438 39.441406 C 56.648438 39.148438 56.320313 39.070313 56.125 39.070313 C 55.796875 39.070313 55.601563 39.371094 55.53125 39.496094 C 55.390625 39.121094 55.089844 39.070313 54.921875 39.070313 C 54.335938 39.070313 54.007813 39.796875 54.007813 39.9375 C 54.007813 40 54.070313 40 54.078125 40 C 54.125 40 54.140625 39.980469 54.152344 39.9375 C 54.34375 39.335938 54.71875 39.195313 54.914063 39.195313 C 55.019531 39.195313 55.214844 39.246094 55.214844 39.574219 C 55.214844 39.753906 55.117188 40.125 54.914063 40.921875 C 54.824219 41.265625 54.621094 41.507813 54.371094 41.507813 C 54.335938 41.507813 54.210938 41.507813 54.089844 41.433594 C 54.230469 41.398438 54.355469 41.285156 54.355469 41.125 C 54.355469 40.972656 54.230469 40.929688 54.152344 40.929688 C 53.972656 40.929688 53.839844 41.070313 53.839844 41.257813 C 53.839844 41.515625 54.117188 41.628906 54.363281 41.628906 C 54.746094 41.628906 54.949219 41.230469 54.957031 41.203125 C 55.027344 41.410156 55.230469 41.628906 55.566406 41.628906 C 56.152344 41.628906 56.472656 40.902344 56.472656 40.761719 C 56.472656 40.699219 56.425781 40.699219 56.410156 40.699219 C 56.355469 40.699219 56.347656 40.726563 56.328125 40.761719 C 56.144531 41.371094 55.761719 41.507813 55.585938 41.507813 C 55.363281 41.507813 55.277344 41.328125 55.277344 41.132813 C 55.277344 41.011719 55.300781 40.886719 55.363281 40.636719 Z M 55.558594 39.859375 "
       id="path12" />
    <path
       style=" stroke:none;fill-rule:nonzero;fill:rgb(0%,0%,0%);fill-opacity:1;"
       d="M 20.089844 46.363281 C 20.070313 46.453125 20.035156 46.585938 20.035156 46.613281 C 20.035156 46.710938 20.117188 46.761719 20.203125 46.761719 C 20.277344 46.761719 20.371094 46.71875 20.417969 46.601563 C 20.425781 46.585938 20.613281 45.816406 20.640625 45.707031 C 20.683594 45.523438 20.789063 45.132813 20.816406 44.972656 C 20.84375 44.902344 21.003906 44.636719 21.136719 44.511719 C 21.179688 44.476563 21.347656 44.328125 21.585938 44.328125 C 21.738281 44.328125 21.816406 44.398438 21.824219 44.398438 C 21.65625 44.425781 21.535156 44.558594 21.535156 44.707031 C 21.535156 44.796875 21.59375 44.902344 21.746094 44.902344 C 21.898438 44.902344 22.054688 44.769531 22.054688 44.566406 C 22.054688 44.371094 21.878906 44.203125 21.585938 44.203125 C 21.222656 44.203125 20.976563 44.476563 20.867188 44.636719 C 20.816406 44.378906 20.613281 44.203125 20.347656 44.203125 C 20.089844 44.203125 19.984375 44.425781 19.929688 44.523438 C 19.832031 44.714844 19.761719 45.054688 19.761719 45.070313 C 19.761719 45.132813 19.816406 45.132813 19.824219 45.132813 C 19.886719 45.132813 19.886719 45.125 19.921875 45 C 20.019531 44.601563 20.132813 44.328125 20.335938 44.328125 C 20.425781 44.328125 20.507813 44.371094 20.507813 44.582031 C 20.507813 44.707031 20.488281 44.769531 20.417969 45.0625 Z M 20.089844 46.363281 "
       id="path14" />
    <path
       style=" stroke:none;fill-rule:nonzero;fill:rgb(0%,0%,0%);fill-opacity:1;"
       d="M 23.90625 45.46875 C 23.90625 44.546875 24.363281 44.308594 24.667969 44.308594 C 24.71875 44.308594 25.074219 44.316406 25.269531 44.523438 C 25.039063 44.539063 25.003906 44.707031 25.003906 44.777344 C 25.003906 44.929688 25.109375 45.035156 25.257813 45.035156 C 25.410156 45.035156 25.527344 44.945313 25.527344 44.769531 C 25.527344 44.386719 25.089844 44.167969 24.65625 44.167969 C 23.949219 44.167969 23.433594 44.777344 23.433594 45.476563 C 23.433594 46.203125 23.992188 46.761719 24.648438 46.761719 C 25.402344 46.761719 25.585938 46.082031 25.585938 46.027344 C 25.585938 45.972656 25.527344 45.972656 25.507813 45.972656 C 25.464844 45.972656 25.445313 45.992188 25.4375 46.027344 C 25.277344 46.550781 24.90625 46.621094 24.703125 46.621094 C 24.402344 46.621094 23.90625 46.382813 23.90625 45.46875 Z M 23.90625 45.46875 "
       id="path16" />
    <path
       style=" stroke:none;fill-rule:nonzero;fill:rgb(0%,0%,0%);fill-opacity:1;"
       d="M 28.40625 45.488281 C 28.40625 44.769531 27.847656 44.167969 27.167969 44.167969 C 26.457031 44.167969 25.910156 44.789063 25.910156 45.488281 C 25.910156 46.222656 26.492188 46.761719 27.160156 46.761719 C 27.839844 46.761719 28.40625 46.203125 28.40625 45.488281 Z M 27.167969 46.621094 C 26.917969 46.621094 26.671875 46.503906 26.519531 46.238281 C 26.378906 45.992188 26.378906 45.648438 26.378906 45.441406 C 26.378906 45.222656 26.378906 44.921875 26.511719 44.671875 C 26.664063 44.414063 26.929688 44.292969 27.160156 44.292969 C 27.40625 44.292969 27.644531 44.414063 27.796875 44.664063 C 27.945313 44.902344 27.945313 45.230469 27.945313 45.441406 C 27.945313 45.648438 27.945313 45.957031 27.824219 46.203125 C 27.691406 46.460938 27.441406 46.621094 27.167969 46.621094 Z M 27.167969 46.621094 "
       id="path18" />
    <path
       style=" stroke:none;fill-rule:nonzero;fill:rgb(0%,0%,0%);fill-opacity:1;"
       d="M 29.753906 45.601563 C 29.875 45.628906 30.335938 45.71875 30.335938 46.125 C 30.335938 46.410156 30.140625 46.636719 29.699219 46.636719 C 29.222656 46.636719 29.015625 46.320313 28.910156 45.832031 C 28.894531 45.761719 28.894531 45.742188 28.832031 45.742188 C 28.761719 45.742188 28.761719 45.78125 28.761719 45.875 L 28.761719 46.628906 C 28.761719 46.726563 28.761719 46.761719 28.820313 46.761719 C 28.847656 46.761719 28.859375 46.753906 28.964844 46.648438 C 28.972656 46.636719 28.972656 46.628906 29.078125 46.523438 C 29.328125 46.753906 29.582031 46.761719 29.699219 46.761719 C 30.347656 46.761719 30.613281 46.382813 30.613281 45.972656 C 30.613281 45.683594 30.441406 45.503906 30.371094 45.441406 C 30.1875 45.257813 29.964844 45.210938 29.726563 45.167969 C 29.40625 45.105469 29.035156 45.035156 29.035156 44.707031 C 29.035156 44.503906 29.175781 44.273438 29.664063 44.273438 C 30.285156 44.273438 30.320313 44.789063 30.328125 44.957031 C 30.328125 45.007813 30.382813 45.007813 30.390625 45.007813 C 30.46875 45.007813 30.46875 44.980469 30.46875 44.875 L 30.46875 44.300781 C 30.46875 44.210938 30.46875 44.167969 30.40625 44.167969 C 30.382813 44.167969 30.363281 44.167969 30.292969 44.238281 C 30.273438 44.253906 30.222656 44.308594 30.195313 44.328125 C 29.984375 44.167969 29.753906 44.167969 29.664063 44.167969 C 28.972656 44.167969 28.761719 44.546875 28.761719 44.867188 C 28.761719 45.0625 28.847656 45.222656 29 45.34375 C 29.183594 45.488281 29.34375 45.523438 29.753906 45.601563 Z M 29.753906 45.601563 "
       id="path20" />
    <path
       style=" stroke:none;fill-rule:nonzero;fill:rgb(0%,0%,0%);fill-opacity:1;"
       d="M 32.671875 48.054688 C 32.671875 48.039063 32.671875 48.03125 32.574219 47.933594 C 31.875 47.222656 31.6875 46.152344 31.6875 45.285156 C 31.6875 44.300781 31.898438 43.316406 32.601563 42.617188 C 32.671875 42.546875 32.671875 42.539063 32.671875 42.519531 C 32.671875 42.476563 32.652344 42.457031 32.617188 42.457031 C 32.554688 42.457031 32.050781 42.847656 31.714844 43.566406 C 31.429688 44.183594 31.359375 44.8125 31.359375 45.285156 C 31.359375 45.726563 31.421875 46.410156 31.730469 47.054688 C 32.078125 47.746094 32.554688 48.117188 32.617188 48.117188 C 32.652344 48.117188 32.671875 48.101563 32.671875 48.054688 Z M 32.671875 48.054688 "
       id="path22" />
    <path
       style=" stroke:none;fill-rule:nonzero;fill:rgb(0%,0%,0%);fill-opacity:1;"
       d="M 35.46875 42.917969 C 35.46875 42.902344 35.488281 42.839844 35.488281 42.839844 C 35.488281 42.828125 35.488281 42.777344 35.417969 42.777344 C 35.363281 42.777344 35.355469 42.792969 35.328125 42.890625 L 35 44.195313 C 34.105469 44.230469 33.273438 44.972656 33.273438 45.742188 C 33.273438 46.285156 33.671875 46.726563 34.363281 46.773438 C 34.320313 46.941406 34.273438 47.125 34.230469 47.304688 C 34.160156 47.570313 34.105469 47.78125 34.105469 47.800781 C 34.105469 47.851563 34.148438 47.859375 34.175781 47.859375 C 34.203125 47.859375 34.210938 47.851563 34.230469 47.835938 C 34.238281 47.824219 34.273438 47.691406 34.292969 47.613281 L 34.503906 46.773438 C 35.417969 46.734375 36.242188 45.972656 36.242188 45.222656 C 36.242188 44.769531 35.941406 44.253906 35.152344 44.195313 Z M 34.390625 46.648438 C 34.050781 46.628906 33.644531 46.425781 33.644531 45.867188 C 33.644531 45.1875 34.132813 44.398438 34.972656 44.316406 Z M 35.117188 44.316406 C 35.550781 44.34375 35.867188 44.601563 35.867188 45.097656 C 35.867188 45.769531 35.382813 46.578125 34.539063 46.648438 Z M 35.117188 44.316406 "
       id="path24" />
    <path
       style=" stroke:none;fill-rule:nonzero;fill:rgb(0%,0%,0%);fill-opacity:1;"
       d="M 37.992188 45.285156 C 37.992188 44.847656 37.933594 44.167969 37.621094 43.519531 C 37.285156 42.828125 36.796875 42.457031 36.746094 42.457031 C 36.710938 42.457031 36.683594 42.484375 36.683594 42.519531 C 36.683594 42.539063 36.683594 42.546875 36.789063 42.652344 C 37.347656 43.210938 37.664063 44.105469 37.664063 45.285156 C 37.664063 46.257813 37.460938 47.25 36.761719 47.957031 C 36.683594 48.03125 36.683594 48.039063 36.683594 48.054688 C 36.683594 48.089844 36.710938 48.117188 36.746094 48.117188 C 36.796875 48.117188 37.3125 47.726563 37.640625 47.011719 C 37.933594 46.390625 37.992188 45.761719 37.992188 45.285156 Z M 37.992188 45.285156 "
       id="path26" />
    <path
       style=" stroke:none;fill-rule:nonzero;fill:rgb(0%,0%,0%);fill-opacity:1;"
       d="M 9.875 5.289063 C 10.175781 4.960938 10.34375 4.820313 10.546875 4.640625 C 10.546875 4.640625 10.890625 4.339844 11.097656 4.136719 C 11.636719 3.613281 11.761719 3.339844 11.761719 3.3125 C 11.761719 3.261719 11.707031 3.261719 11.699219 3.261719 C 11.65625 3.261719 11.644531 3.269531 11.609375 3.320313 C 11.441406 3.597656 11.328125 3.683594 11.195313 3.683594 C 11.050781 3.683594 10.988281 3.597656 10.902344 3.5 C 10.796875 3.375 10.699219 3.261719 10.511719 3.261719 C 10.085938 3.261719 9.828125 3.78125 9.828125 3.90625 C 9.828125 3.933594 9.847656 3.96875 9.890625 3.96875 C 9.945313 3.96875 9.953125 3.941406 9.972656 3.90625 C 10.078125 3.640625 10.40625 3.640625 10.449219 3.640625 C 10.566406 3.640625 10.671875 3.675781 10.804688 3.71875 C 11.035156 3.808594 11.097656 3.808594 11.238281 3.808594 C 11.035156 4.046875 10.566406 4.457031 10.457031 4.542969 L 9.945313 5.023438 C 9.5625 5.402344 9.359375 5.722656 9.359375 5.765625 C 9.359375 5.820313 9.421875 5.820313 9.429688 5.820313 C 9.476563 5.820313 9.484375 5.8125 9.519531 5.75 C 9.652344 5.546875 9.820313 5.394531 10.007813 5.394531 C 10.128906 5.394531 10.191406 5.449219 10.335938 5.605469 C 10.421875 5.730469 10.53125 5.820313 10.6875 5.820313 C 11.253906 5.820313 11.582031 5.101563 11.582031 4.953125 C 11.582031 4.925781 11.558594 4.890625 11.511719 4.890625 C 11.460938 4.890625 11.449219 4.925781 11.433594 4.96875 C 11.300781 5.332031 10.9375 5.4375 10.75 5.4375 C 10.644531 5.4375 10.539063 5.402344 10.421875 5.367188 C 10.226563 5.296875 10.140625 5.269531 10.023438 5.269531 C 10.015625 5.269531 9.925781 5.269531 9.875 5.289063 Z M 9.875 5.289063 "
       id="path28" />
    <path
       style=" stroke:none;fill-rule:nonzero;fill:rgb(0%,0%,0%);fill-opacity:1;"
       d="M 23.277344 24.15625 C 23.257813 24.226563 23.257813 24.234375 23.257813 24.253906 C 23.257813 24.332031 23.320313 24.402344 23.417969 24.402344 C 23.535156 24.402344 23.605469 24.296875 23.613281 24.277344 C 23.648438 24.234375 23.828125 23.472656 23.976563 22.863281 C 24.09375 23.09375 24.269531 23.242188 24.535156 23.242188 C 25.199219 23.242188 25.925781 22.445313 25.925781 21.605469 C 25.925781 21 25.554688 20.683594 25.144531 20.683594 C 24.597656 20.683594 24.003906 21.25 23.835938 21.941406 Z M 24.535156 23.117188 C 24.136719 23.117188 24.046875 22.667969 24.046875 22.613281 C 24.046875 22.597656 24.074219 22.480469 24.09375 22.410156 C 24.25 21.773438 24.304688 21.566406 24.429688 21.347656 C 24.675781 20.929688 24.960938 20.804688 25.128906 20.804688 C 25.339844 20.804688 25.519531 20.976563 25.519531 21.363281 C 25.519531 21.675781 25.359375 22.304688 25.207031 22.578125 C 25.023438 22.941406 24.746094 23.117188 24.535156 23.117188 Z M 24.535156 23.117188 "
       id="path30" />
    <path
       style=" stroke:none;fill-rule:nonzero;fill:rgb(0%,0%,0%);fill-opacity:1;"
       d="M 23.507813 35.046875 L 24.457031 35.046875 C 24.527344 35.046875 24.730469 35.046875 24.730469 34.851563 C 24.730469 34.71875 24.613281 34.71875 24.5 34.71875 L 22.921875 34.71875 C 22.808594 34.71875 22.585938 34.71875 22.339844 34.984375 C 22.152344 35.1875 21.992188 35.464844 21.992188 35.492188 C 21.992188 35.5 21.992188 35.550781 22.0625 35.550781 C 22.109375 35.550781 22.117188 35.527344 22.152344 35.480469 C 22.425781 35.046875 22.753906 35.046875 22.871094 35.046875 L 23.339844 35.046875 L 22.789063 36.863281 C 22.761719 36.925781 22.726563 37.050781 22.726563 37.066406 C 22.726563 37.128906 22.773438 37.226563 22.894531 37.226563 C 23.082031 37.226563 23.109375 37.066406 23.125 36.980469 Z M 23.507813 35.046875 "
       id="path32" />
    <path
       style=" stroke:none;fill-rule:nonzero;fill:rgb(0%,0%,0%);fill-opacity:1;"
       d="M 5.28125 26.199219 C 5.582031 25.871094 5.75 25.730469 5.957031 25.554688 C 5.957031 25.554688 6.300781 25.253906 6.503906 25.050781 C 7.046875 24.527344 7.167969 24.253906 7.167969 24.226563 C 7.167969 24.171875 7.117188 24.171875 7.105469 24.171875 C 7.0625 24.171875 7.054688 24.179688 7.019531 24.234375 C 6.851563 24.507813 6.734375 24.597656 6.601563 24.597656 C 6.460938 24.597656 6.398438 24.507813 6.308594 24.410156 C 6.203125 24.289063 6.105469 24.171875 5.921875 24.171875 C 5.496094 24.171875 5.238281 24.695313 5.238281 24.820313 C 5.238281 24.84375 5.253906 24.882813 5.300781 24.882813 C 5.351563 24.882813 5.363281 24.855469 5.378906 24.820313 C 5.484375 24.554688 5.8125 24.554688 5.859375 24.554688 C 5.972656 24.554688 6.078125 24.589844 6.210938 24.632813 C 6.441406 24.722656 6.503906 24.722656 6.644531 24.722656 C 6.441406 24.960938 5.972656 25.367188 5.867188 25.457031 L 5.351563 25.933594 C 4.972656 26.316406 4.769531 26.636719 4.769531 26.679688 C 4.769531 26.730469 4.832031 26.730469 4.839844 26.730469 C 4.882813 26.730469 4.890625 26.722656 4.929688 26.660156 C 5.0625 26.457031 5.230469 26.308594 5.414063 26.308594 C 5.539063 26.308594 5.601563 26.359375 5.742188 26.519531 C 5.832031 26.644531 5.9375 26.730469 6.097656 26.730469 C 6.664063 26.730469 6.992188 26.015625 6.992188 25.863281 C 6.992188 25.835938 6.964844 25.800781 6.921875 25.800781 C 6.867188 25.800781 6.859375 25.835938 6.839844 25.882813 C 6.707031 26.246094 6.34375 26.351563 6.160156 26.351563 C 6.054688 26.351563 5.945313 26.316406 5.832031 26.28125 C 5.636719 26.210938 5.546875 26.183594 5.433594 26.183594 C 5.425781 26.183594 5.335938 26.183594 5.28125 26.199219 Z M 5.28125 26.199219 "
       id="path34" />
  </g>
</svg>
