<?xml version="1.0" encoding="UTF-8" standalone="no"?>
<svg
   xmlns:dc="http://purl.org/dc/elements/1.1/"
   xmlns:cc="http://creativecommons.org/ns#"
   xmlns:rdf="http://www.w3.org/1999/02/22-rdf-syntax-ns#"
   xmlns:svg="http://www.w3.org/2000/svg"
   xmlns="http://www.w3.org/2000/svg"
   xmlns:sodipodi="http://sodipodi.sourceforge.net/DTD/sodipodi-0.dtd"
   xmlns:inkscape="http://www.inkscape.org/namespaces/inkscape"
   width="60.75pt"
   height="50.062pt"
   viewBox="0 0 60.75 50.062"
   version="1.2"
   id="svg37"
   sodipodi:docname="213.svg"
   inkscape:version="0.92.4 (5da689c313, 2019-01-14)">
  <metadata
     id="metadata43">
    <rdf:RDF>
      <cc:Work
         rdf:about="">
        <dc:format>image/svg+xml</dc:format>
        <dc:type
           rdf:resource="http://purl.org/dc/dcmitype/StillImage" />
        <dc:title></dc:title>
      </cc:Work>
    </rdf:RDF>
  </metadata>
  <defs
     id="defs41" />
  <sodipodi:namedview
     pagecolor="#ffffff"
     bordercolor="#666666"
     borderopacity="1"
     objecttolerance="10"
     gridtolerance="10"
     guidetolerance="10"
     inkscape:pageopacity="0"
     inkscape:pageshadow="2"
     inkscape:window-width="730"
     inkscape:window-height="480"
     id="namedview39"
     showgrid="false"
     inkscape:zoom="3.5356158"
     inkscape:cx="40.5"
     inkscape:cy="33.374667"
     inkscape:window-x="0"
     inkscape:window-y="0"
     inkscape:window-maximized="0"
     inkscape:current-layer="svg37" />
  <g
     id="surface52">
    <path
       style="fill:none;stroke-width:0.751181;stroke-linecap:butt;stroke-linejoin:miter;stroke:rgb(0%,0%,0%);stroke-opacity:1;stroke-miterlimit:4;"
       d="M 165.770031 243.91824 L 165.770031 276.640896 "
       transform="matrix(1,0,0,1,-155.063,-236.437771)"
       id="path2" />
    <path
       style="fill:none;stroke-width:0.751181;stroke-linecap:butt;stroke-linejoin:miter;stroke:rgb(0%,0%,0%);stroke-opacity:1;stroke-miterlimit:4;"
       d="M 165.660656 276.332302 L 195.930187 250.484646 "
       transform="matrix(1,0,0,1,-155.063,-236.437771)"
       id="path4" />
    <path
       style="fill-rule:evenodd;fill:rgb(0%,0%,0%);fill-opacity:1;stroke-width:0.152328;stroke-linecap:butt;stroke-linejoin:miter;stroke:rgb(0%,0%,0%);stroke-opacity:1;stroke-miterlimit:4;"
       d="M 11.083811 -241.605208 L 11.654019 -242.176855 L 9.655199 -241.606467 L 11.653529 -241.032742 Z M 11.083811 -241.605208 "
       transform="matrix(-1,0.853982,-0.853982,-1,-155.063,-236.437771)"
       id="path6" />
    <path
       style="fill:none;stroke-width:0.751181;stroke-linecap:butt;stroke-linejoin:miter;stroke:rgb(0%,0%,0%);stroke-opacity:1;stroke-miterlimit:4;"
       d="M 165.402844 276.26199 L 206.211437 276.26199 "
       transform="matrix(1,0,0,1,-155.063,-236.437771)"
       id="path8" />
    <path
       style="fill:none;stroke-width:0.75;stroke-linecap:butt;stroke-linejoin:miter;stroke:rgb(0%,0%,0%);stroke-opacity:1;stroke-miterlimit:4;"
       d="M 169.535656 272.551052 C 170.738781 273.687771 172.53175 274.844021 172.53175 276.586209 "
       transform="matrix(1,0,0,1,-155.063,-236.437771)"
       id="path10" />
    <path
       style=" stroke:none;fill-rule:nonzero;fill:rgb(0%,0%,0%);fill-opacity:1;"
       d="M 55.496094 39.546875 C 55.53125 39.402344 55.664063 38.882813 56.054688 38.882813 C 56.082031 38.882813 56.222656 38.882813 56.339844 38.953125 C 56.179688 38.988281 56.074219 39.121094 56.074219 39.261719 C 56.074219 39.351563 56.132813 39.457031 56.285156 39.457031 C 56.410156 39.457031 56.585938 39.359375 56.585938 39.128906 C 56.585938 38.835938 56.257813 38.757813 56.0625 38.757813 C 55.734375 38.757813 55.539063 39.058594 55.46875 39.183594 C 55.328125 38.808594 55.027344 38.757813 54.859375 38.757813 C 54.273438 38.757813 53.945313 39.484375 53.945313 39.625 C 53.945313 39.6875 54.007813 39.6875 54.015625 39.6875 C 54.0625 39.6875 54.078125 39.667969 54.089844 39.625 C 54.28125 39.023438 54.65625 38.882813 54.851563 38.882813 C 54.957031 38.882813 55.152344 38.933594 55.152344 39.261719 C 55.152344 39.441406 55.054688 39.8125 54.851563 40.609375 C 54.761719 40.953125 54.558594 41.195313 54.308594 41.195313 C 54.273438 41.195313 54.148438 41.195313 54.027344 41.121094 C 54.167969 41.085938 54.292969 40.972656 54.292969 40.8125 C 54.292969 40.660156 54.167969 40.617188 54.089844 40.617188 C 53.910156 40.617188 53.777344 40.757813 53.777344 40.945313 C 53.777344 41.203125 54.054688 41.316406 54.300781 41.316406 C 54.683594 41.316406 54.886719 40.917969 54.894531 40.890625 C 54.964844 41.097656 55.167969 41.316406 55.503906 41.316406 C 56.089844 41.316406 56.410156 40.589844 56.410156 40.449219 C 56.410156 40.386719 56.363281 40.386719 56.347656 40.386719 C 56.292969 40.386719 56.285156 40.414063 56.265625 40.449219 C 56.082031 41.058594 55.699219 41.195313 55.523438 41.195313 C 55.300781 41.195313 55.214844 41.015625 55.214844 40.820313 C 55.214844 40.699219 55.238281 40.574219 55.300781 40.324219 Z M 55.496094 39.546875 "
       id="path12" />
    <path
       style=" stroke:none;fill-rule:nonzero;fill:rgb(0%,0%,0%);fill-opacity:1;"
       d="M 20.027344 46.050781 C 20.007813 46.140625 19.972656 46.273438 19.972656 46.300781 C 19.972656 46.398438 20.054688 46.449219 20.140625 46.449219 C 20.214844 46.449219 20.308594 46.40625 20.355469 46.289063 C 20.363281 46.273438 20.550781 45.503906 20.578125 45.394531 C 20.621094 45.210938 20.726563 44.820313 20.753906 44.660156 C 20.78125 44.589844 20.941406 44.324219 21.074219 44.199219 C 21.117188 44.164063 21.285156 44.015625 21.523438 44.015625 C 21.675781 44.015625 21.753906 44.085938 21.761719 44.085938 C 21.59375 44.113281 21.472656 44.246094 21.472656 44.394531 C 21.472656 44.484375 21.53125 44.589844 21.683594 44.589844 C 21.835938 44.589844 21.992188 44.457031 21.992188 44.253906 C 21.992188 44.058594 21.816406 43.890625 21.523438 43.890625 C 21.160156 43.890625 20.914063 44.164063 20.804688 44.324219 C 20.753906 44.066406 20.550781 43.890625 20.285156 43.890625 C 20.027344 43.890625 19.921875 44.113281 19.867188 44.210938 C 19.769531 44.402344 19.699219 44.742188 19.699219 44.757813 C 19.699219 44.820313 19.753906 44.820313 19.761719 44.820313 C 19.824219 44.820313 19.824219 44.8125 19.859375 44.6875 C 19.957031 44.289063 20.070313 44.015625 20.273438 44.015625 C 20.363281 44.015625 20.445313 44.058594 20.445313 44.269531 C 20.445313 44.394531 20.425781 44.457031 20.355469 44.75 Z M 20.027344 46.050781 "
       id="path14" />
    <path
       style=" stroke:none;fill-rule:nonzero;fill:rgb(0%,0%,0%);fill-opacity:1;"
       d="M 23.84375 45.15625 C 23.84375 44.234375 24.300781 43.996094 24.605469 43.996094 C 24.65625 43.996094 25.011719 44.003906 25.207031 44.210938 C 24.976563 44.226563 24.941406 44.394531 24.941406 44.464844 C 24.941406 44.617188 25.046875 44.722656 25.195313 44.722656 C 25.347656 44.722656 25.464844 44.632813 25.464844 44.457031 C 25.464844 44.074219 25.027344 43.855469 24.59375 43.855469 C 23.886719 43.855469 23.371094 44.464844 23.371094 45.164063 C 23.371094 45.890625 23.929688 46.449219 24.585938 46.449219 C 25.339844 46.449219 25.523438 45.769531 25.523438 45.714844 C 25.523438 45.660156 25.464844 45.660156 25.445313 45.660156 C 25.402344 45.660156 25.382813 45.679688 25.375 45.714844 C 25.214844 46.238281 24.84375 46.308594 24.640625 46.308594 C 24.339844 46.308594 23.84375 46.070313 23.84375 45.15625 Z M 23.84375 45.15625 "
       id="path16" />
    <path
       style=" stroke:none;fill-rule:nonzero;fill:rgb(0%,0%,0%);fill-opacity:1;"
       d="M 28.34375 45.175781 C 28.34375 44.457031 27.785156 43.855469 27.105469 43.855469 C 26.394531 43.855469 25.847656 44.476563 25.847656 45.175781 C 25.847656 45.910156 26.429688 46.449219 27.097656 46.449219 C 27.777344 46.449219 28.34375 45.890625 28.34375 45.175781 Z M 27.105469 46.308594 C 26.855469 46.308594 26.609375 46.191406 26.457031 45.925781 C 26.316406 45.679688 26.316406 45.335938 26.316406 45.128906 C 26.316406 44.910156 26.316406 44.609375 26.449219 44.359375 C 26.601563 44.101563 26.867188 43.980469 27.097656 43.980469 C 27.34375 43.980469 27.582031 44.101563 27.734375 44.351563 C 27.882813 44.589844 27.882813 44.917969 27.882813 45.128906 C 27.882813 45.335938 27.882813 45.644531 27.761719 45.890625 C 27.628906 46.148438 27.378906 46.308594 27.105469 46.308594 Z M 27.105469 46.308594 "
       id="path18" />
    <path
       style=" stroke:none;fill-rule:nonzero;fill:rgb(0%,0%,0%);fill-opacity:1;"
       d="M 29.691406 45.289063 C 29.8125 45.316406 30.273438 45.40625 30.273438 45.8125 C 30.273438 46.097656 30.078125 46.324219 29.636719 46.324219 C 29.160156 46.324219 28.953125 46.007813 28.847656 45.519531 C 28.832031 45.449219 28.832031 45.429688 28.769531 45.429688 C 28.699219 45.429688 28.699219 45.46875 28.699219 45.5625 L 28.699219 46.316406 C 28.699219 46.414063 28.699219 46.449219 28.757813 46.449219 C 28.785156 46.449219 28.796875 46.441406 28.902344 46.335938 C 28.910156 46.324219 28.910156 46.316406 29.015625 46.210938 C 29.265625 46.441406 29.519531 46.449219 29.636719 46.449219 C 30.285156 46.449219 30.550781 46.070313 30.550781 45.660156 C 30.550781 45.371094 30.378906 45.191406 30.308594 45.128906 C 30.125 44.945313 29.902344 44.898438 29.664063 44.855469 C 29.34375 44.792969 28.972656 44.722656 28.972656 44.394531 C 28.972656 44.191406 29.113281 43.960938 29.601563 43.960938 C 30.222656 43.960938 30.257813 44.476563 30.265625 44.644531 C 30.265625 44.695313 30.320313 44.695313 30.328125 44.695313 C 30.40625 44.695313 30.40625 44.667969 30.40625 44.5625 L 30.40625 43.988281 C 30.40625 43.898438 30.40625 43.855469 30.34375 43.855469 C 30.320313 43.855469 30.300781 43.855469 30.230469 43.925781 C 30.210938 43.941406 30.160156 43.996094 30.132813 44.015625 C 29.921875 43.855469 29.691406 43.855469 29.601563 43.855469 C 28.910156 43.855469 28.699219 44.234375 28.699219 44.554688 C 28.699219 44.75 28.785156 44.910156 28.9375 45.03125 C 29.121094 45.175781 29.28125 45.210938 29.691406 45.289063 Z M 29.691406 45.289063 "
       id="path20" />
    <path
       style=" stroke:none;fill-rule:nonzero;fill:rgb(0%,0%,0%);fill-opacity:1;"
       d="M 32.609375 47.742188 C 32.609375 47.726563 32.609375 47.71875 32.511719 47.621094 C 31.8125 46.910156 31.625 45.839844 31.625 44.972656 C 31.625 43.988281 31.835938 43.003906 32.539063 42.304688 C 32.609375 42.234375 32.609375 42.226563 32.609375 42.207031 C 32.609375 42.164063 32.589844 42.144531 32.554688 42.144531 C 32.492188 42.144531 31.988281 42.535156 31.652344 43.253906 C 31.367188 43.871094 31.296875 44.5 31.296875 44.972656 C 31.296875 45.414063 31.359375 46.097656 31.667969 46.742188 C 32.015625 47.433594 32.492188 47.804688 32.554688 47.804688 C 32.589844 47.804688 32.609375 47.789063 32.609375 47.742188 Z M 32.609375 47.742188 "
       id="path22" />
    <path
       style=" stroke:none;fill-rule:nonzero;fill:rgb(0%,0%,0%);fill-opacity:1;"
       d="M 35.40625 42.605469 C 35.40625 42.589844 35.425781 42.527344 35.425781 42.527344 C 35.425781 42.515625 35.425781 42.464844 35.355469 42.464844 C 35.300781 42.464844 35.292969 42.480469 35.265625 42.578125 L 34.9375 43.882813 C 34.042969 43.917969 33.210938 44.660156 33.210938 45.429688 C 33.210938 45.972656 33.609375 46.414063 34.300781 46.460938 C 34.257813 46.628906 34.210938 46.8125 34.167969 46.992188 C 34.097656 47.257813 34.042969 47.46875 34.042969 47.488281 C 34.042969 47.539063 34.085938 47.546875 34.113281 47.546875 C 34.140625 47.546875 34.148438 47.539063 34.167969 47.523438 C 34.175781 47.511719 34.210938 47.378906 34.230469 47.300781 L 34.441406 46.460938 C 35.355469 46.421875 36.179688 45.660156 36.179688 44.910156 C 36.179688 44.457031 35.878906 43.941406 35.089844 43.882813 Z M 34.328125 46.335938 C 33.988281 46.316406 33.582031 46.113281 33.582031 45.554688 C 33.582031 44.875 34.070313 44.085938 34.910156 44.003906 Z M 35.054688 44.003906 C 35.488281 44.03125 35.804688 44.289063 35.804688 44.785156 C 35.804688 45.457031 35.320313 46.265625 34.476563 46.335938 Z M 35.054688 44.003906 "
       id="path24" />
    <path
       style=" stroke:none;fill-rule:nonzero;fill:rgb(0%,0%,0%);fill-opacity:1;"
       d="M 37.929688 44.972656 C 37.929688 44.535156 37.871094 43.855469 37.558594 43.207031 C 37.222656 42.515625 36.734375 42.144531 36.683594 42.144531 C 36.648438 42.144531 36.621094 42.171875 36.621094 42.207031 C 36.621094 42.226563 36.621094 42.234375 36.726563 42.339844 C 37.285156 42.898438 37.601563 43.792969 37.601563 44.972656 C 37.601563 45.945313 37.398438 46.9375 36.699219 47.644531 C 36.621094 47.71875 36.621094 47.726563 36.621094 47.742188 C 36.621094 47.777344 36.648438 47.804688 36.683594 47.804688 C 36.734375 47.804688 37.25 47.414063 37.578125 46.699219 C 37.871094 46.078125 37.929688 45.449219 37.929688 44.972656 Z M 37.929688 44.972656 "
       id="path26" />
    <path
       style=" stroke:none;fill-rule:nonzero;fill:rgb(0%,0%,0%);fill-opacity:1;"
       d="M 9.8125 4.976563 C 10.113281 4.648438 10.28125 4.507813 10.484375 4.328125 C 10.484375 4.328125 10.828125 4.027344 11.035156 3.824219 C 11.574219 3.300781 11.699219 3.027344 11.699219 3 C 11.699219 2.949219 11.644531 2.949219 11.636719 2.949219 C 11.59375 2.949219 11.582031 2.957031 11.546875 3.007813 C 11.378906 3.285156 11.265625 3.371094 11.132813 3.371094 C 10.988281 3.371094 10.925781 3.285156 10.839844 3.1875 C 10.734375 3.0625 10.636719 2.949219 10.449219 2.949219 C 10.023438 2.949219 9.765625 3.46875 9.765625 3.59375 C 9.765625 3.621094 9.785156 3.65625 9.828125 3.65625 C 9.882813 3.65625 9.890625 3.628906 9.910156 3.59375 C 10.015625 3.328125 10.34375 3.328125 10.386719 3.328125 C 10.503906 3.328125 10.609375 3.363281 10.742188 3.40625 C 10.972656 3.496094 11.035156 3.496094 11.175781 3.496094 C 10.972656 3.734375 10.503906 4.144531 10.394531 4.230469 L 9.882813 4.710938 C 9.5 5.089844 9.296875 5.410156 9.296875 5.453125 C 9.296875 5.507813 9.359375 5.507813 9.367188 5.507813 C 9.414063 5.507813 9.421875 5.5 9.457031 5.4375 C 9.589844 5.234375 9.757813 5.082031 9.945313 5.082031 C 10.066406 5.082031 10.128906 5.136719 10.273438 5.292969 C 10.359375 5.417969 10.46875 5.507813 10.625 5.507813 C 11.191406 5.507813 11.519531 4.789063 11.519531 4.640625 C 11.519531 4.613281 11.496094 4.578125 11.449219 4.578125 C 11.398438 4.578125 11.386719 4.613281 11.371094 4.65625 C 11.238281 5.019531 10.875 5.125 10.6875 5.125 C 10.582031 5.125 10.476563 5.089844 10.359375 5.054688 C 10.164063 4.984375 10.078125 4.957031 9.960938 4.957031 C 9.953125 4.957031 9.863281 4.957031 9.8125 4.976563 Z M 9.8125 4.976563 "
       id="path28" />
    <path
       style=" stroke:none;fill-rule:nonzero;fill:rgb(0%,0%,0%);fill-opacity:1;"
       d="M 5.21875 25.886719 C 5.519531 25.558594 5.6875 25.417969 5.894531 25.242188 C 5.894531 25.242188 6.238281 24.941406 6.441406 24.738281 C 6.984375 24.214844 7.105469 23.941406 7.105469 23.914063 C 7.105469 23.859375 7.054688 23.859375 7.042969 23.859375 C 7 23.859375 6.992188 23.867188 6.957031 23.921875 C 6.789063 24.195313 6.671875 24.285156 6.539063 24.285156 C 6.398438 24.285156 6.335938 24.195313 6.246094 24.097656 C 6.140625 23.976563 6.042969 23.859375 5.859375 23.859375 C 5.433594 23.859375 5.175781 24.382813 5.175781 24.507813 C 5.175781 24.53125 5.191406 24.570313 5.238281 24.570313 C 5.289063 24.570313 5.300781 24.542969 5.316406 24.507813 C 5.421875 24.242188 5.75 24.242188 5.796875 24.242188 C 5.910156 24.242188 6.015625 24.277344 6.148438 24.320313 C 6.378906 24.410156 6.441406 24.410156 6.582031 24.410156 C 6.378906 24.648438 5.910156 25.054688 5.804688 25.144531 L 5.289063 25.621094 C 4.910156 26.003906 4.707031 26.324219 4.707031 26.367188 C 4.707031 26.417969 4.769531 26.417969 4.777344 26.417969 C 4.820313 26.417969 4.828125 26.410156 4.867188 26.347656 C 5 26.144531 5.167969 25.996094 5.351563 25.996094 C 5.476563 25.996094 5.539063 26.046875 5.679688 26.207031 C 5.769531 26.332031 5.875 26.417969 6.035156 26.417969 C 6.601563 26.417969 6.929688 25.703125 6.929688 25.550781 C 6.929688 25.523438 6.902344 25.488281 6.859375 25.488281 C 6.804688 25.488281 6.796875 25.523438 6.777344 25.570313 C 6.644531 25.933594 6.28125 26.039063 6.097656 26.039063 C 5.992188 26.039063 5.882813 26.003906 5.769531 25.96875 C 5.574219 25.898438 5.484375 25.871094 5.371094 25.871094 C 5.363281 25.871094 5.273438 25.871094 5.21875 25.886719 Z M 5.21875 25.886719 "
       id="path30" />
    <path
       style=" stroke:none;fill-rule:nonzero;fill:rgb(0%,0%,0%);fill-opacity:1;"
       d="M 25.269531 22.003906 C 25.359375 22.003906 25.464844 22.003906 25.464844 21.910156 C 25.464844 21.828125 25.394531 21.828125 25.296875 21.828125 L 24.382813 21.828125 C 24.515625 21.351563 24.835938 21.023438 25.351563 21.023438 L 25.527344 21.023438 C 25.625 21.023438 25.714844 21.023438 25.714844 20.925781 C 25.714844 20.84375 25.640625 20.84375 25.542969 20.84375 L 25.339844 20.84375 C 24.605469 20.84375 23.851563 21.414063 23.851563 22.273438 C 23.851563 22.902344 24.277344 23.34375 24.871094 23.34375 C 25.242188 23.34375 25.605469 23.113281 25.605469 23.050781 C 25.605469 23.042969 25.605469 22.980469 25.554688 22.980469 C 25.542969 22.980469 25.527344 22.980469 25.484375 23.007813 C 25.304688 23.121094 25.09375 23.21875 24.890625 23.21875 C 24.5625 23.21875 24.277344 22.980469 24.277344 22.484375 C 24.277344 22.289063 24.320313 22.066406 24.339844 22.003906 Z M 25.269531 22.003906 "
       id="path32" />
    <path
       style=" stroke:none;fill-rule:nonzero;fill:rgb(0%,0%,0%);fill-opacity:1;"
       d="M 25.40625 35.363281 C 25.40625 34.988281 25.308594 34.203125 24.734375 34.203125 C 23.945313 34.203125 23.074219 35.796875 23.074219 37.089844 C 23.074219 37.621094 23.234375 38.25 23.75 38.25 C 24.546875 38.25 25.40625 36.628906 25.40625 35.363281 Z M 23.667969 36.132813 C 23.765625 35.777344 23.882813 35.328125 24.113281 34.917969 C 24.261719 34.644531 24.46875 34.324219 24.722656 34.324219 C 25 34.324219 25.035156 34.6875 25.035156 35.007813 C 25.035156 35.289063 24.988281 35.574219 24.855469 36.132813 Z M 24.804688 36.320313 C 24.742188 36.574219 24.625 37.054688 24.40625 37.460938 C 24.210938 37.851563 23.996094 38.125 23.75 38.125 C 23.5625 38.125 23.449219 37.957031 23.449219 37.433594 C 23.449219 37.195313 23.484375 36.867188 23.625 36.320313 Z M 24.804688 36.320313 "
       id="path34" />
  </g>
</svg>
