<?xml version="1.0" encoding="UTF-8" standalone="no"?>
<svg
   xmlns:dc="http://purl.org/dc/elements/1.1/"
   xmlns:cc="http://creativecommons.org/ns#"
   xmlns:rdf="http://www.w3.org/1999/02/22-rdf-syntax-ns#"
   xmlns:svg="http://www.w3.org/2000/svg"
   xmlns="http://www.w3.org/2000/svg"
   xmlns:sodipodi="http://sodipodi.sourceforge.net/DTD/sodipodi-0.dtd"
   xmlns:inkscape="http://www.inkscape.org/namespaces/inkscape"
   width="58pt"
   height="49pt"
   viewBox="0 0 58 49"
   version="1.2"
   id="svg37"
   sodipodi:docname="214.svg"
   inkscape:version="0.92.4 (5da689c313, 2019-01-14)">
  <metadata
     id="metadata43">
    <rdf:RDF>
      <cc:Work
         rdf:about="">
        <dc:format>image/svg+xml</dc:format>
        <dc:type
           rdf:resource="http://purl.org/dc/dcmitype/StillImage" />
        <dc:title></dc:title>
      </cc:Work>
    </rdf:RDF>
  </metadata>
  <defs
     id="defs41" />
  <sodipodi:namedview
     pagecolor="#ffffff"
     bordercolor="#666666"
     borderopacity="1"
     objecttolerance="10"
     gridtolerance="10"
     guidetolerance="10"
     inkscape:pageopacity="0"
     inkscape:pageshadow="2"
     inkscape:window-width="730"
     inkscape:window-height="480"
     id="namedview39"
     showgrid="false"
     inkscape:zoom="3.6122449"
     inkscape:cx="38.666667"
     inkscape:cy="32.666667"
     inkscape:window-x="0"
     inkscape:window-y="0"
     inkscape:window-maximized="0"
     inkscape:current-layer="svg37" />
  <g
     id="surface52">
    <path
       style="fill:none;stroke-width:0.751181;stroke-linecap:butt;stroke-linejoin:miter;stroke:rgb(0%,0%,0%);stroke-opacity:1;stroke-miterlimit:4;"
       d="M 165.769531 243.91774 L 165.769531 276.640396 "
       transform="matrix(1,0,0,1,-157.625,-236.499771)"
       id="path2" />
    <path
       style="fill:none;stroke-width:0.751181;stroke-linecap:butt;stroke-linejoin:miter;stroke:rgb(0%,0%,0%);stroke-opacity:1;stroke-miterlimit:4;"
       d="M 165.660156 276.331802 L 195.929688 250.484146 "
       transform="matrix(1,0,0,1,-157.625,-236.499771)"
       id="path4" />
    <path
       style="fill-rule:evenodd;fill:rgb(0%,0%,0%);fill-opacity:1;stroke-width:0.152328;stroke-linecap:butt;stroke-linejoin:miter;stroke:rgb(0%,0%,0%);stroke-opacity:1;stroke-miterlimit:4;"
       d="M 11.083854 -241.604672 L 11.654061 -242.176319 L 9.655241 -241.605931 L 11.653571 -241.032206 Z M 11.083854 -241.604672 "
       transform="matrix(-1,0.853982,-0.853982,-1,-157.625,-236.499771)"
       id="path6" />
    <path
       style="fill:none;stroke-width:0.751181;stroke-linecap:butt;stroke-linejoin:miter;stroke:rgb(0%,0%,0%);stroke-opacity:1;stroke-miterlimit:4;"
       d="M 165.402344 276.26149 L 206.210938 276.26149 "
       transform="matrix(1,0,0,1,-157.625,-236.499771)"
       id="path8" />
    <path
       style=" stroke:none;fill-rule:nonzero;fill:rgb(0%,0%,0%);fill-opacity:1;"
       d="M 52.933594 39.484375 C 52.96875 39.339844 53.101563 38.820313 53.492188 38.820313 C 53.519531 38.820313 53.660156 38.820313 53.777344 38.890625 C 53.617188 38.925781 53.511719 39.058594 53.511719 39.199219 C 53.511719 39.289063 53.570313 39.394531 53.722656 39.394531 C 53.847656 39.394531 54.023438 39.296875 54.023438 39.066406 C 54.023438 38.773438 53.695313 38.695313 53.5 38.695313 C 53.171875 38.695313 52.976563 38.996094 52.90625 39.121094 C 52.765625 38.746094 52.464844 38.695313 52.296875 38.695313 C 51.710938 38.695313 51.382813 39.421875 51.382813 39.5625 C 51.382813 39.625 51.445313 39.625 51.453125 39.625 C 51.5 39.625 51.515625 39.605469 51.527344 39.5625 C 51.71875 38.960938 52.09375 38.820313 52.289063 38.820313 C 52.394531 38.820313 52.589844 38.871094 52.589844 39.199219 C 52.589844 39.378906 52.492188 39.75 52.289063 40.546875 C 52.199219 40.890625 51.996094 41.132813 51.746094 41.132813 C 51.710938 41.132813 51.585938 41.132813 51.464844 41.058594 C 51.605469 41.023438 51.730469 40.910156 51.730469 40.75 C 51.730469 40.597656 51.605469 40.554688 51.527344 40.554688 C 51.347656 40.554688 51.214844 40.695313 51.214844 40.882813 C 51.214844 41.140625 51.492188 41.253906 51.738281 41.253906 C 52.121094 41.253906 52.324219 40.855469 52.332031 40.828125 C 52.402344 41.035156 52.605469 41.253906 52.941406 41.253906 C 53.527344 41.253906 53.847656 40.527344 53.847656 40.386719 C 53.847656 40.324219 53.800781 40.324219 53.785156 40.324219 C 53.730469 40.324219 53.722656 40.351563 53.703125 40.386719 C 53.519531 40.996094 53.136719 41.132813 52.960938 41.132813 C 52.738281 41.132813 52.652344 40.953125 52.652344 40.757813 C 52.652344 40.636719 52.675781 40.511719 52.738281 40.261719 Z M 52.933594 39.484375 "
       id="path10" />
    <path
       style=" stroke:none;fill-rule:nonzero;fill:rgb(0%,0%,0%);fill-opacity:1;"
       d="M 17.464844 45.988281 C 17.445313 46.078125 17.410156 46.210938 17.410156 46.238281 C 17.410156 46.335938 17.492188 46.386719 17.578125 46.386719 C 17.652344 46.386719 17.746094 46.34375 17.792969 46.226563 C 17.800781 46.210938 17.988281 45.441406 18.015625 45.332031 C 18.058594 45.148438 18.164063 44.757813 18.191406 44.597656 C 18.21875 44.527344 18.378906 44.261719 18.511719 44.136719 C 18.554688 44.101563 18.722656 43.953125 18.960938 43.953125 C 19.113281 43.953125 19.191406 44.023438 19.199219 44.023438 C 19.03125 44.050781 18.910156 44.183594 18.910156 44.332031 C 18.910156 44.421875 18.96875 44.527344 19.121094 44.527344 C 19.273438 44.527344 19.429688 44.394531 19.429688 44.191406 C 19.429688 43.996094 19.253906 43.828125 18.960938 43.828125 C 18.597656 43.828125 18.351563 44.101563 18.242188 44.261719 C 18.191406 44.003906 17.988281 43.828125 17.722656 43.828125 C 17.464844 43.828125 17.359375 44.050781 17.304688 44.148438 C 17.207031 44.339844 17.136719 44.679688 17.136719 44.695313 C 17.136719 44.757813 17.191406 44.757813 17.199219 44.757813 C 17.261719 44.757813 17.261719 44.75 17.296875 44.625 C 17.394531 44.226563 17.507813 43.953125 17.710938 43.953125 C 17.800781 43.953125 17.882813 43.996094 17.882813 44.207031 C 17.882813 44.332031 17.863281 44.394531 17.792969 44.6875 Z M 17.464844 45.988281 "
       id="path12" />
    <path
       style=" stroke:none;fill-rule:nonzero;fill:rgb(0%,0%,0%);fill-opacity:1;"
       d="M 21.28125 45.09375 C 21.28125 44.171875 21.738281 43.933594 22.042969 43.933594 C 22.09375 43.933594 22.449219 43.941406 22.644531 44.148438 C 22.414063 44.164063 22.378906 44.332031 22.378906 44.402344 C 22.378906 44.554688 22.484375 44.660156 22.632813 44.660156 C 22.785156 44.660156 22.902344 44.570313 22.902344 44.394531 C 22.902344 44.011719 22.464844 43.792969 22.03125 43.792969 C 21.324219 43.792969 20.808594 44.402344 20.808594 45.101563 C 20.808594 45.828125 21.367188 46.386719 22.023438 46.386719 C 22.777344 46.386719 22.960938 45.707031 22.960938 45.652344 C 22.960938 45.597656 22.902344 45.597656 22.882813 45.597656 C 22.839844 45.597656 22.820313 45.617188 22.8125 45.652344 C 22.652344 46.175781 22.28125 46.246094 22.078125 46.246094 C 21.777344 46.246094 21.28125 46.007813 21.28125 45.09375 Z M 21.28125 45.09375 "
       id="path14" />
    <path
       style=" stroke:none;fill-rule:nonzero;fill:rgb(0%,0%,0%);fill-opacity:1;"
       d="M 25.78125 45.113281 C 25.78125 44.394531 25.222656 43.792969 24.542969 43.792969 C 23.832031 43.792969 23.285156 44.414063 23.285156 45.113281 C 23.285156 45.847656 23.867188 46.386719 24.535156 46.386719 C 25.214844 46.386719 25.78125 45.828125 25.78125 45.113281 Z M 24.542969 46.246094 C 24.292969 46.246094 24.046875 46.128906 23.894531 45.863281 C 23.753906 45.617188 23.753906 45.273438 23.753906 45.066406 C 23.753906 44.847656 23.753906 44.546875 23.886719 44.296875 C 24.039063 44.039063 24.304688 43.917969 24.535156 43.917969 C 24.78125 43.917969 25.019531 44.039063 25.171875 44.289063 C 25.320313 44.527344 25.320313 44.855469 25.320313 45.066406 C 25.320313 45.273438 25.320313 45.582031 25.199219 45.828125 C 25.066406 46.085938 24.816406 46.246094 24.542969 46.246094 Z M 24.542969 46.246094 "
       id="path16" />
    <path
       style=" stroke:none;fill-rule:nonzero;fill:rgb(0%,0%,0%);fill-opacity:1;"
       d="M 27.128906 45.226563 C 27.25 45.253906 27.710938 45.34375 27.710938 45.75 C 27.710938 46.035156 27.515625 46.261719 27.074219 46.261719 C 26.597656 46.261719 26.390625 45.945313 26.285156 45.457031 C 26.269531 45.386719 26.269531 45.367188 26.207031 45.367188 C 26.136719 45.367188 26.136719 45.40625 26.136719 45.5 L 26.136719 46.253906 C 26.136719 46.351563 26.136719 46.386719 26.195313 46.386719 C 26.222656 46.386719 26.234375 46.378906 26.339844 46.273438 C 26.347656 46.261719 26.347656 46.253906 26.453125 46.148438 C 26.703125 46.378906 26.957031 46.386719 27.074219 46.386719 C 27.722656 46.386719 27.988281 46.007813 27.988281 45.597656 C 27.988281 45.308594 27.816406 45.128906 27.746094 45.066406 C 27.5625 44.882813 27.339844 44.835938 27.101563 44.792969 C 26.78125 44.730469 26.410156 44.660156 26.410156 44.332031 C 26.410156 44.128906 26.550781 43.898438 27.039063 43.898438 C 27.660156 43.898438 27.695313 44.414063 27.703125 44.582031 C 27.703125 44.632813 27.757813 44.632813 27.765625 44.632813 C 27.84375 44.632813 27.84375 44.605469 27.84375 44.5 L 27.84375 43.925781 C 27.84375 43.835938 27.84375 43.792969 27.78125 43.792969 C 27.757813 43.792969 27.738281 43.792969 27.667969 43.863281 C 27.648438 43.878906 27.597656 43.933594 27.570313 43.953125 C 27.359375 43.792969 27.128906 43.792969 27.039063 43.792969 C 26.347656 43.792969 26.136719 44.171875 26.136719 44.492188 C 26.136719 44.6875 26.222656 44.847656 26.375 44.96875 C 26.558594 45.113281 26.71875 45.148438 27.128906 45.226563 Z M 27.128906 45.226563 "
       id="path18" />
    <path
       style=" stroke:none;fill-rule:nonzero;fill:rgb(0%,0%,0%);fill-opacity:1;"
       d="M 30.046875 47.679688 C 30.046875 47.664063 30.046875 47.65625 29.949219 47.558594 C 29.25 46.847656 29.0625 45.777344 29.0625 44.910156 C 29.0625 43.925781 29.273438 42.941406 29.976563 42.242188 C 30.046875 42.171875 30.046875 42.164063 30.046875 42.144531 C 30.046875 42.101563 30.027344 42.082031 29.992188 42.082031 C 29.929688 42.082031 29.425781 42.472656 29.089844 43.191406 C 28.804688 43.808594 28.734375 44.4375 28.734375 44.910156 C 28.734375 45.351563 28.796875 46.035156 29.105469 46.679688 C 29.453125 47.371094 29.929688 47.742188 29.992188 47.742188 C 30.027344 47.742188 30.046875 47.726563 30.046875 47.679688 Z M 30.046875 47.679688 "
       id="path20" />
    <path
       style=" stroke:none;fill-rule:nonzero;fill:rgb(0%,0%,0%);fill-opacity:1;"
       d="M 32.84375 42.542969 C 32.84375 42.527344 32.863281 42.464844 32.863281 42.464844 C 32.863281 42.453125 32.863281 42.402344 32.792969 42.402344 C 32.738281 42.402344 32.730469 42.417969 32.703125 42.515625 L 32.375 43.820313 C 31.480469 43.855469 30.648438 44.597656 30.648438 45.367188 C 30.648438 45.910156 31.046875 46.351563 31.738281 46.398438 C 31.695313 46.566406 31.648438 46.75 31.605469 46.929688 C 31.535156 47.195313 31.480469 47.40625 31.480469 47.425781 C 31.480469 47.476563 31.523438 47.484375 31.550781 47.484375 C 31.578125 47.484375 31.585938 47.476563 31.605469 47.460938 C 31.613281 47.449219 31.648438 47.316406 31.667969 47.238281 L 31.878906 46.398438 C 32.792969 46.359375 33.617188 45.597656 33.617188 44.847656 C 33.617188 44.394531 33.316406 43.878906 32.527344 43.820313 Z M 31.765625 46.273438 C 31.425781 46.253906 31.019531 46.050781 31.019531 45.492188 C 31.019531 44.8125 31.507813 44.023438 32.347656 43.941406 Z M 32.492188 43.941406 C 32.925781 43.96875 33.242188 44.226563 33.242188 44.722656 C 33.242188 45.394531 32.757813 46.203125 31.914063 46.273438 Z M 32.492188 43.941406 "
       id="path22" />
    <path
       style=" stroke:none;fill-rule:nonzero;fill:rgb(0%,0%,0%);fill-opacity:1;"
       d="M 35.367188 44.910156 C 35.367188 44.472656 35.308594 43.792969 34.996094 43.144531 C 34.660156 42.453125 34.171875 42.082031 34.121094 42.082031 C 34.085938 42.082031 34.058594 42.109375 34.058594 42.144531 C 34.058594 42.164063 34.058594 42.171875 34.164063 42.277344 C 34.722656 42.835938 35.039063 43.730469 35.039063 44.910156 C 35.039063 45.882813 34.835938 46.875 34.136719 47.582031 C 34.058594 47.65625 34.058594 47.664063 34.058594 47.679688 C 34.058594 47.714844 34.085938 47.742188 34.121094 47.742188 C 34.171875 47.742188 34.6875 47.351563 35.015625 46.636719 C 35.308594 46.015625 35.367188 45.386719 35.367188 44.910156 Z M 35.367188 44.910156 "
       id="path24" />
    <path
       style=" stroke:none;fill-rule:nonzero;fill:rgb(0%,0%,0%);fill-opacity:1;"
       d="M 7.25 4.914063 C 7.550781 4.585938 7.71875 4.445313 7.921875 4.265625 C 7.921875 4.265625 8.265625 3.964844 8.472656 3.761719 C 9.011719 3.238281 9.136719 2.964844 9.136719 2.9375 C 9.136719 2.886719 9.082031 2.886719 9.074219 2.886719 C 9.03125 2.886719 9.019531 2.894531 8.984375 2.945313 C 8.816406 3.222656 8.703125 3.308594 8.570313 3.308594 C 8.425781 3.308594 8.363281 3.222656 8.277344 3.125 C 8.171875 3 8.074219 2.886719 7.886719 2.886719 C 7.460938 2.886719 7.203125 3.40625 7.203125 3.53125 C 7.203125 3.558594 7.222656 3.59375 7.265625 3.59375 C 7.320313 3.59375 7.328125 3.566406 7.347656 3.53125 C 7.453125 3.265625 7.78125 3.265625 7.824219 3.265625 C 7.941406 3.265625 8.046875 3.300781 8.179688 3.34375 C 8.410156 3.433594 8.472656 3.433594 8.613281 3.433594 C 8.410156 3.671875 7.941406 4.082031 7.832031 4.167969 L 7.320313 4.648438 C 6.9375 5.027344 6.734375 5.347656 6.734375 5.390625 C 6.734375 5.445313 6.796875 5.445313 6.804688 5.445313 C 6.851563 5.445313 6.859375 5.4375 6.894531 5.375 C 7.027344 5.171875 7.195313 5.019531 7.382813 5.019531 C 7.503906 5.019531 7.566406 5.074219 7.710938 5.230469 C 7.796875 5.355469 7.90625 5.445313 8.0625 5.445313 C 8.628906 5.445313 8.957031 4.726563 8.957031 4.578125 C 8.957031 4.550781 8.933594 4.515625 8.886719 4.515625 C 8.835938 4.515625 8.824219 4.550781 8.808594 4.59375 C 8.675781 4.957031 8.3125 5.0625 8.125 5.0625 C 8.019531 5.0625 7.914063 5.027344 7.796875 4.992188 C 7.601563 4.921875 7.515625 4.894531 7.398438 4.894531 C 7.390625 4.894531 7.300781 4.894531 7.25 4.914063 Z M 7.25 4.914063 "
       id="path26" />
    <path
       style=" stroke:none;fill-rule:nonzero;fill:rgb(0%,0%,0%);fill-opacity:1;"
       d="M 2.65625 25.824219 C 2.957031 25.496094 3.125 25.355469 3.332031 25.179688 C 3.332031 25.179688 3.675781 24.878906 3.878906 24.675781 C 4.421875 24.152344 4.542969 23.878906 4.542969 23.851563 C 4.542969 23.796875 4.492188 23.796875 4.480469 23.796875 C 4.4375 23.796875 4.429688 23.804688 4.394531 23.859375 C 4.226563 24.132813 4.109375 24.222656 3.976563 24.222656 C 3.835938 24.222656 3.773438 24.132813 3.683594 24.035156 C 3.578125 23.914063 3.480469 23.796875 3.296875 23.796875 C 2.871094 23.796875 2.613281 24.320313 2.613281 24.445313 C 2.613281 24.46875 2.628906 24.507813 2.675781 24.507813 C 2.726563 24.507813 2.738281 24.480469 2.753906 24.445313 C 2.859375 24.179688 3.1875 24.179688 3.234375 24.179688 C 3.347656 24.179688 3.453125 24.214844 3.585938 24.257813 C 3.816406 24.347656 3.878906 24.347656 4.019531 24.347656 C 3.816406 24.585938 3.347656 24.992188 3.242188 25.082031 L 2.726563 25.558594 C 2.347656 25.941406 2.144531 26.261719 2.144531 26.304688 C 2.144531 26.355469 2.207031 26.355469 2.214844 26.355469 C 2.257813 26.355469 2.265625 26.347656 2.304688 26.285156 C 2.4375 26.082031 2.605469 25.933594 2.789063 25.933594 C 2.914063 25.933594 2.976563 25.984375 3.117188 26.144531 C 3.207031 26.269531 3.3125 26.355469 3.472656 26.355469 C 4.039063 26.355469 4.367188 25.640625 4.367188 25.488281 C 4.367188 25.460938 4.339844 25.425781 4.296875 25.425781 C 4.242188 25.425781 4.234375 25.460938 4.214844 25.507813 C 4.082031 25.871094 3.71875 25.976563 3.535156 25.976563 C 3.429688 25.976563 3.320313 25.941406 3.207031 25.90625 C 3.011719 25.835938 2.921875 25.808594 2.808594 25.808594 C 2.800781 25.808594 2.710938 25.808594 2.65625 25.824219 Z M 2.65625 25.824219 "
       id="path28" />
    <path
       style=" stroke:none;fill-rule:nonzero;fill:rgb(0%,0%,0%);fill-opacity:1;"
       d="M 22.707031 21.941406 C 22.796875 21.941406 22.902344 21.941406 22.902344 21.847656 C 22.902344 21.765625 22.832031 21.765625 22.734375 21.765625 L 21.820313 21.765625 C 21.953125 21.289063 22.273438 20.960938 22.789063 20.960938 L 22.964844 20.960938 C 23.0625 20.960938 23.152344 20.960938 23.152344 20.863281 C 23.152344 20.78125 23.078125 20.78125 22.980469 20.78125 L 22.777344 20.78125 C 22.042969 20.78125 21.289063 21.351563 21.289063 22.210938 C 21.289063 22.839844 21.714844 23.28125 22.308594 23.28125 C 22.679688 23.28125 23.042969 23.050781 23.042969 22.988281 C 23.042969 22.980469 23.042969 22.917969 22.992188 22.917969 C 22.980469 22.917969 22.964844 22.917969 22.921875 22.945313 C 22.742188 23.058594 22.53125 23.15625 22.328125 23.15625 C 22 23.15625 21.714844 22.917969 21.714844 22.421875 C 21.714844 22.226563 21.757813 22.003906 21.777344 21.941406 Z M 22.707031 21.941406 "
       id="path30" />
    <path
       style=" stroke:none;fill-rule:nonzero;fill:rgb(0%,0%,0%);fill-opacity:1;"
       d="M 13.5625 27.238281 C 13.5625 26.863281 13.464844 26.078125 12.890625 26.078125 C 12.101563 26.078125 11.230469 27.671875 11.230469 28.964844 C 11.230469 29.496094 11.390625 30.125 11.90625 30.125 C 12.703125 30.125 13.5625 28.503906 13.5625 27.238281 Z M 11.824219 28.007813 C 11.921875 27.652344 12.039063 27.203125 12.269531 26.792969 C 12.417969 26.519531 12.625 26.199219 12.878906 26.199219 C 13.15625 26.199219 13.191406 26.5625 13.191406 26.882813 C 13.191406 27.164063 13.144531 27.449219 13.011719 28.007813 Z M 12.960938 28.195313 C 12.898438 28.449219 12.78125 28.929688 12.5625 29.335938 C 12.367188 29.726563 12.152344 30 11.90625 30 C 11.71875 30 11.605469 29.832031 11.605469 29.308594 C 11.605469 29.070313 11.640625 28.742188 11.78125 28.195313 Z M 12.960938 28.195313 "
       id="path32" />
    <path
       style="fill:none;stroke-width:0.75;stroke-linecap:butt;stroke-linejoin:miter;stroke:rgb(0%,0%,0%);stroke-opacity:1;stroke-miterlimit:4;"
       d="M 165.792969 271.038834 C 167.144531 269.972427 169.316406 270.648209 170.402344 271.800552 "
       transform="matrix(1,0,0,1,-157.625,-236.499771)"
       id="path34" />
  </g>
</svg>
