<?xml version="1.0" encoding="UTF-8" standalone="no"?>
<svg
   xmlns:dc="http://purl.org/dc/elements/1.1/"
   xmlns:cc="http://creativecommons.org/ns#"
   xmlns:rdf="http://www.w3.org/1999/02/22-rdf-syntax-ns#"
   xmlns:svg="http://www.w3.org/2000/svg"
   xmlns="http://www.w3.org/2000/svg"
   xmlns:sodipodi="http://sodipodi.sourceforge.net/DTD/sodipodi-0.dtd"
   xmlns:inkscape="http://www.inkscape.org/namespaces/inkscape"
   width="90.75pt"
   height="63.5pt"
   viewBox="0 0 90.75 63.5"
   version="1.2"
   id="svg58"
   sodipodi:docname="221.svg"
   inkscape:version="0.92.4 (5da689c313, 2019-01-14)">
  <metadata
     id="metadata62">
    <rdf:RDF>
      <cc:Work
         rdf:about="">
        <dc:format>image/svg+xml</dc:format>
        <dc:type
           rdf:resource="http://purl.org/dc/dcmitype/StillImage" />
        <dc:title></dc:title>
      </cc:Work>
    </rdf:RDF>
  </metadata>
  <sodipodi:namedview
     pagecolor="#ffffff"
     bordercolor="#666666"
     borderopacity="1"
     objecttolerance="10"
     gridtolerance="10"
     guidetolerance="10"
     inkscape:pageopacity="0"
     inkscape:pageshadow="2"
     inkscape:window-width="730"
     inkscape:window-height="480"
     id="namedview60"
     showgrid="false"
     inkscape:zoom="2.7874016"
     inkscape:cx="61.038136"
     inkscape:cy="42.333333"
     inkscape:window-x="185"
     inkscape:window-y="203"
     inkscape:window-maximized="0"
     inkscape:current-layer="svg58" />
  <defs
     id="defs5">
    <clipPath
       id="clip1">
      <path
         d="M 11 36 L 44 36 L 44 63.5 L 11 63.5 Z M 11 36 "
         id="path2" />
    </clipPath>
  </defs>
  <g
     id="surface44">
    <path
       style="fill:none;stroke-width:0.751181;stroke-linecap:butt;stroke-linejoin:miter;stroke:rgb(0%,0%,0%);stroke-opacity:1;stroke-miterlimit:4;"
       d="M 165.769531 243.91774 L 165.769531 276.640396 "
       transform="matrix(1,0,0,1,-127,-234.749771)"
       id="path7" />
    <path
       style="fill-rule:evenodd;fill:rgb(0%,0%,0%);fill-opacity:1;stroke-width:0.200315;stroke-linecap:butt;stroke-linejoin:miter;stroke:rgb(0%,0%,0%);stroke-opacity:1;stroke-miterlimit:4;"
       d="M 244.820084 -165.769531 L 245.57399 -166.519531 L 242.941177 -165.769531 L 245.57399 -165.015625 Z M 244.820084 -165.769531 "
       transform="matrix(0,1,-1,0,-127,-234.749771)"
       id="path9" />
    <g
       clip-path="url(#clip1)"
       clip-rule="nonzero"
       id="g13">
      <path
         style="fill:none;stroke-width:0.751181;stroke-linecap:butt;stroke-linejoin:miter;stroke:rgb(0%,0%,0%);stroke-opacity:1;stroke-miterlimit:4;"
         d="M 142.765625 294.702896 L 165.929688 275.984146 "
         transform="matrix(1,0,0,1,-127,-234.749771)"
         id="path11" />
    </g>
    <path
       style="fill-rule:evenodd;fill:rgb(0%,0%,0%);fill-opacity:1;stroke-width:0.155807;stroke-linecap:butt;stroke-linejoin:miter;stroke:rgb(0%,0%,0%);stroke-opacity:1;stroke-miterlimit:4;"
       d="M -56.994225 248.083389 L -56.410104 247.500689 L -58.454774 248.082908 L -56.409162 248.669419 Z M -56.994225 248.083389 "
       transform="matrix(1,-0.808031,0.808031,1,-127,-234.749771)"
       id="path15" />
    <path
       style="fill:none;stroke-width:0.751181;stroke-linecap:butt;stroke-linejoin:miter;stroke:rgb(0%,0%,0%);stroke-opacity:1;stroke-miterlimit:4;"
       d="M 165.402344 276.26149 L 206.210938 276.26149 "
       transform="matrix(1,0,0,1,-127,-234.749771)"
       id="path17" />
    <path
       style="fill-rule:evenodd;fill:rgb(0%,0%,0%);fill-opacity:1;stroke-width:0.200315;stroke-linecap:butt;stroke-linejoin:miter;stroke:rgb(0%,0%,0%);stroke-opacity:1;stroke-miterlimit:4;"
       d="M -205.308594 -276.26149 L -204.558594 -277.015396 L -207.1875 -276.26149 L -204.558594 -275.51149 Z M -205.308594 -276.26149 "
       transform="matrix(-1,0,0,-1,-127,-234.749771)"
       id="path19" />
    <path
       style=" stroke:none;fill-rule:nonzero;fill:rgb(0%,0%,0%);fill-opacity:1;"
       d="M 83.558594 41.234375 C 83.59375 41.089844 83.726563 40.570313 84.117188 40.570313 C 84.144531 40.570313 84.285156 40.570313 84.402344 40.640625 C 84.242188 40.675781 84.136719 40.808594 84.136719 40.949219 C 84.136719 41.039063 84.195313 41.144531 84.347656 41.144531 C 84.472656 41.144531 84.648438 41.046875 84.648438 40.816406 C 84.648438 40.523438 84.320313 40.445313 84.125 40.445313 C 83.796875 40.445313 83.601563 40.746094 83.53125 40.871094 C 83.390625 40.496094 83.089844 40.445313 82.921875 40.445313 C 82.335938 40.445313 82.007813 41.171875 82.007813 41.3125 C 82.007813 41.375 82.070313 41.375 82.078125 41.375 C 82.125 41.375 82.140625 41.355469 82.152344 41.3125 C 82.34375 40.710938 82.71875 40.570313 82.914063 40.570313 C 83.019531 40.570313 83.214844 40.621094 83.214844 40.949219 C 83.214844 41.128906 83.117188 41.5 82.914063 42.296875 C 82.824219 42.640625 82.621094 42.882813 82.371094 42.882813 C 82.335938 42.882813 82.210938 42.882813 82.089844 42.808594 C 82.230469 42.773438 82.355469 42.660156 82.355469 42.5 C 82.355469 42.347656 82.230469 42.304688 82.152344 42.304688 C 81.972656 42.304688 81.839844 42.445313 81.839844 42.632813 C 81.839844 42.890625 82.117188 43.003906 82.363281 43.003906 C 82.746094 43.003906 82.949219 42.605469 82.957031 42.578125 C 83.027344 42.785156 83.230469 43.003906 83.566406 43.003906 C 84.152344 43.003906 84.472656 42.277344 84.472656 42.136719 C 84.472656 42.074219 84.425781 42.074219 84.410156 42.074219 C 84.355469 42.074219 84.347656 42.101563 84.328125 42.136719 C 84.144531 42.746094 83.761719 42.882813 83.585938 42.882813 C 83.363281 42.882813 83.277344 42.703125 83.277344 42.507813 C 83.277344 42.386719 83.300781 42.261719 83.363281 42.011719 Z M 83.558594 41.234375 "
       id="path21" />
    <path
       style=" stroke:none;fill-rule:nonzero;fill:rgb(0%,0%,0%);fill-opacity:1;"
       d="M 38.242188 5.574219 C 38.546875 5.246094 38.714844 5.105469 38.917969 4.929688 C 38.917969 4.929688 39.261719 4.628906 39.464844 4.421875 C 40.007813 3.902344 40.128906 3.625 40.128906 3.601563 C 40.128906 3.546875 40.078125 3.546875 40.070313 3.546875 C 40.023438 3.546875 40.015625 3.554688 39.980469 3.609375 C 39.8125 3.882813 39.695313 3.972656 39.5625 3.972656 C 39.421875 3.972656 39.359375 3.882813 39.269531 3.785156 C 39.164063 3.660156 39.066406 3.546875 38.882813 3.546875 C 38.457031 3.546875 38.199219 4.070313 38.199219 4.195313 C 38.199219 4.21875 38.21875 4.253906 38.261719 4.253906 C 38.316406 4.253906 38.324219 4.230469 38.339844 4.195313 C 38.449219 3.925781 38.773438 3.925781 38.820313 3.925781 C 38.933594 3.925781 39.042969 3.964844 39.175781 4.007813 C 39.402344 4.097656 39.464844 4.097656 39.609375 4.097656 C 39.402344 4.335938 38.933594 4.742188 38.828125 4.832031 L 38.316406 5.308594 C 37.933594 5.691406 37.730469 6.007813 37.730469 6.054688 C 37.730469 6.105469 37.792969 6.105469 37.800781 6.105469 C 37.84375 6.105469 37.855469 6.097656 37.890625 6.035156 C 38.023438 5.832031 38.191406 5.679688 38.375 5.679688 C 38.5 5.679688 38.5625 5.734375 38.703125 5.894531 C 38.792969 6.019531 38.898438 6.105469 39.058594 6.105469 C 39.625 6.105469 39.953125 5.390625 39.953125 5.238281 C 39.953125 5.210938 39.925781 5.175781 39.882813 5.175781 C 39.828125 5.175781 39.820313 5.210938 39.804688 5.257813 C 39.671875 5.621094 39.308594 5.726563 39.121094 5.726563 C 39.015625 5.726563 38.90625 5.691406 38.792969 5.65625 C 38.597656 5.585938 38.507813 5.558594 38.394531 5.558594 C 38.386719 5.558594 38.296875 5.558594 38.242188 5.574219 Z M 38.242188 5.574219 "
       id="path23" />
    <path
       style=" stroke:none;fill-rule:nonzero;fill:rgb(0%,0%,0%);fill-opacity:1;"
       d="M 44.867188 31.9375 C 44.867188 31.566406 44.769531 30.777344 44.191406 30.777344 C 43.40625 30.777344 42.535156 32.371094 42.535156 33.664063 C 42.535156 34.195313 42.695313 34.824219 43.210938 34.824219 C 44.007813 34.824219 44.867188 33.203125 44.867188 31.9375 Z M 43.128906 32.707031 C 43.226563 32.351563 43.34375 31.902344 43.574219 31.492188 C 43.722656 31.21875 43.925781 30.898438 44.183594 30.898438 C 44.460938 30.898438 44.496094 31.261719 44.496094 31.582031 C 44.496094 31.867188 44.449219 32.148438 44.316406 32.707031 Z M 44.265625 32.894531 C 44.203125 33.148438 44.085938 33.628906 43.867188 34.035156 C 43.671875 34.425781 43.457031 34.699219 43.210938 34.699219 C 43.023438 34.699219 42.910156 34.53125 42.910156 34.007813 C 42.910156 33.769531 42.945313 33.441406 43.085938 32.894531 Z M 44.265625 32.894531 "
       id="path25" />
    <path
       style="fill:none;stroke-width:0.751181;stroke-linecap:butt;stroke-linejoin:miter;stroke:rgb(0%,0%,0%);stroke-opacity:1;stroke-miterlimit:4;"
       d="M 165.804688 276.140396 L 189.777344 260.999771 "
       transform="matrix(1,0,0,1,-127,-234.749771)"
       id="path27" />
    <path
       style="fill:none;stroke-width:0.751181;stroke-linecap:butt;stroke-linejoin:miter;stroke:rgb(0%,0%,0%);stroke-opacity:1;stroke-dasharray:2.253543,0.751181;stroke-miterlimit:4;"
       d="M 165.402344 276.26149 L 139.554688 245.995865 "
       transform="matrix(1,0,0,1,-127,-234.749771)"
       id="path29" />
    <path
       style="fill:none;stroke-width:0.75;stroke-linecap:butt;stroke-linejoin:miter;stroke:rgb(0%,0%,0%);stroke-opacity:1;stroke-miterlimit:4;"
       d="M 165.859375 271.882584 C 167.480469 271.843521 168.414063 272.656021 168.910156 273.921646 "
       transform="matrix(1,0,0,1,-127,-234.749771)"
       id="path31" />
    <path
       style="fill:none;stroke-width:0.75;stroke-linecap:butt;stroke-linejoin:miter;stroke:rgb(0%,0%,0%);stroke-opacity:1;stroke-miterlimit:4;"
       d="M 161.320313 271.327896 C 162.554688 270.531021 164.257813 269.722427 165.773438 270.249771 "
       transform="matrix(1,0,0,1,-127,-234.749771)"
       id="path33" />
    <path
       style="fill:none;stroke-width:0.75;stroke-linecap:butt;stroke-linejoin:miter;stroke:rgb(0%,0%,0%);stroke-opacity:1;stroke-dasharray:0.75,1.5;stroke-miterlimit:4;"
       d="M 189.597656 261.312271 L 189.597656 292.050552 "
       transform="matrix(1,0,0,1,-127,-234.749771)"
       id="path35" />
    <path
       style="fill:none;stroke-width:0.75;stroke-linecap:butt;stroke-linejoin:miter;stroke:rgb(0%,0%,0%);stroke-opacity:1;stroke-miterlimit:4;"
       d="M 165.546875 276.093521 L 189.058594 291.101334 "
       transform="matrix(1,0,0,1,-127,-234.749771)"
       id="path37" />
    <path
       style="fill:none;stroke-width:0.75;stroke-linecap:butt;stroke-linejoin:miter;stroke:rgb(0%,0%,0%);stroke-opacity:1;stroke-miterlimit:4;"
       d="M 163.152344 278.613052 C 164.519531 280.195084 167.679688 280.187271 168.570313 278.222427 "
       transform="matrix(1,0,0,1,-127,-234.749771)"
       id="path39" />
    <path
       style="fill:none;stroke-width:0.75;stroke-linecap:butt;stroke-linejoin:miter;stroke:rgb(0%,0%,0%);stroke-opacity:1;stroke-miterlimit:4;"
       d="M 172.945313 271.843521 C 174.625 272.308365 175.476563 274.312271 175.476563 276.015396 "
       transform="matrix(1,0,0,1,-127,-234.749771)"
       id="path41" />
    <path
       style=" stroke:none;fill-rule:nonzero;fill:rgb(0%,0%,0%);fill-opacity:1;"
       d="M 56.476563 36.011719 L 57.421875 36.011719 C 57.492188 36.011719 57.695313 36.011719 57.695313 35.816406 C 57.695313 35.683594 57.582031 35.683594 57.46875 35.683594 L 55.890625 35.683594 C 55.773438 35.683594 55.554688 35.683594 55.304688 35.949219 C 55.121094 36.152344 54.960938 36.429688 54.960938 36.457031 C 54.960938 36.464844 54.960938 36.515625 55.03125 36.515625 C 55.074219 36.515625 55.085938 36.492188 55.121094 36.445313 C 55.394531 36.011719 55.722656 36.011719 55.835938 36.011719 L 56.304688 36.011719 L 55.757813 37.828125 C 55.730469 37.890625 55.695313 38.015625 55.695313 38.03125 C 55.695313 38.09375 55.738281 38.191406 55.863281 38.191406 C 56.050781 38.191406 56.074219 38.03125 56.09375 37.945313 Z M 56.476563 36.011719 "
       id="path43" />
    <path
       style=" stroke:none;fill-rule:nonzero;fill:rgb(0%,0%,0%);fill-opacity:1;"
       d="M 58.261719 38.550781 C 58.226563 38.683594 58.09375 38.898438 57.890625 38.898438 C 57.878906 38.898438 57.757813 38.898438 57.675781 38.84375 C 57.835938 38.792969 57.855469 38.648438 57.855469 38.621094 C 57.855469 38.535156 57.785156 38.480469 57.695313 38.480469 C 57.578125 38.480469 57.464844 38.570313 57.464844 38.71875 C 57.464844 38.914063 57.6875 39.003906 57.878906 39.003906 C 58.066406 39.003906 58.226563 38.898438 58.324219 38.730469 C 58.421875 38.933594 58.632813 39.003906 58.792969 39.003906 C 59.253906 39.003906 59.492188 38.515625 59.492188 38.402344 C 59.492188 38.347656 59.441406 38.347656 59.429688 38.347656 C 59.367188 38.347656 59.367188 38.375 59.351563 38.417969 C 59.269531 38.695313 59.03125 38.898438 58.8125 38.898438 C 58.652344 38.898438 58.570313 38.792969 58.570313 38.640625 C 58.570313 38.535156 58.667969 38.179688 58.777344 37.738281 C 58.855469 37.4375 59.03125 37.339844 59.164063 37.339844 C 59.175781 37.339844 59.289063 37.339844 59.378906 37.390625 C 59.253906 37.425781 59.199219 37.542969 59.199219 37.613281 C 59.199219 37.691406 59.269531 37.753906 59.359375 37.753906 C 59.449219 37.753906 59.582031 37.683594 59.582031 37.515625 C 59.582031 37.292969 59.324219 37.222656 59.175781 37.222656 C 58.96875 37.222656 58.8125 37.355469 58.730469 37.507813 C 58.660156 37.347656 58.472656 37.222656 58.253906 37.222656 C 57.808594 37.222656 57.5625 37.710938 57.5625 37.835938 C 57.5625 37.878906 57.613281 37.878906 57.625 37.878906 C 57.675781 37.878906 57.675781 37.871094 57.703125 37.816406 C 57.800781 37.507813 58.050781 37.339844 58.242188 37.339844 C 58.375 37.339844 58.484375 37.410156 58.484375 37.59375 C 58.484375 37.675781 58.429688 37.871094 58.394531 38.011719 Z M 58.261719 38.550781 "
       id="path45" />
    <path
       style=" stroke:none;fill-rule:nonzero;fill:rgb(0%,0%,0%);fill-opacity:1;"
       d="M 34.332031 29.449219 L 35.28125 29.449219 C 35.351563 29.449219 35.554688 29.449219 35.554688 29.253906 C 35.554688 29.121094 35.441406 29.121094 35.324219 29.121094 L 33.75 29.121094 C 33.632813 29.121094 33.414063 29.121094 33.164063 29.386719 C 32.976563 29.589844 32.820313 29.867188 32.820313 29.890625 C 32.820313 29.902344 32.820313 29.953125 32.890625 29.953125 C 32.933594 29.953125 32.941406 29.929688 32.976563 29.882813 C 33.253906 29.449219 33.582031 29.449219 33.695313 29.449219 L 34.164063 29.449219 L 33.617188 31.265625 C 33.589844 31.328125 33.554688 31.453125 33.554688 31.46875 C 33.554688 31.53125 33.597656 31.628906 33.722656 31.628906 C 33.910156 31.628906 33.933594 31.46875 33.953125 31.378906 Z M 34.332031 29.449219 "
       id="path47" />
    <path
       style=" stroke:none;fill-rule:nonzero;fill:rgb(0%,0%,0%);fill-opacity:1;"
       d="M 37.332031 30.917969 C 37.351563 30.863281 37.351563 30.855469 37.351563 30.828125 C 37.351563 30.75 37.289063 30.703125 37.21875 30.703125 C 37.175781 30.703125 37.105469 30.722656 37.058594 30.792969 C 37.042969 30.820313 37.015625 30.945313 36.996094 31.023438 L 36.910156 31.351563 C 36.890625 31.449219 36.765625 31.945313 36.75 31.988281 C 36.75 31.988281 36.570313 32.335938 36.269531 32.335938 C 35.996094 32.335938 35.996094 32.078125 35.996094 32.007813 C 35.996094 31.792969 36.085938 31.546875 36.207031 31.234375 C 36.253906 31.113281 36.269531 31.066406 36.269531 30.996094 C 36.269531 30.8125 36.113281 30.660156 35.898438 30.660156 C 35.5 30.660156 35.324219 31.199219 35.324219 31.273438 C 35.324219 31.316406 35.375 31.316406 35.394531 31.316406 C 35.445313 31.316406 35.445313 31.296875 35.464844 31.253906 C 35.5625 30.925781 35.730469 30.777344 35.890625 30.777344 C 35.953125 30.777344 35.988281 30.820313 35.988281 30.910156 C 35.988281 31.007813 35.953125 31.085938 35.933594 31.140625 C 35.738281 31.625 35.703125 31.769531 35.703125 31.945313 C 35.703125 32.007813 35.703125 32.191406 35.855469 32.324219 C 35.980469 32.421875 36.148438 32.441406 36.253906 32.441406 C 36.414063 32.441406 36.554688 32.386719 36.679688 32.265625 C 36.632813 32.484375 36.589844 32.652344 36.421875 32.847656 C 36.316406 32.972656 36.15625 33.097656 35.941406 33.097656 C 35.917969 33.097656 35.730469 33.097656 35.652344 32.972656 C 35.863281 32.945313 35.863281 32.761719 35.863281 32.75 C 35.863281 32.625 35.75 32.601563 35.710938 32.601563 C 35.617188 32.601563 35.484375 32.679688 35.484375 32.867188 C 35.484375 33.0625 35.667969 33.210938 35.953125 33.210938 C 36.351563 33.210938 36.835938 32.902344 36.960938 32.40625 Z M 37.332031 30.917969 "
       id="path49" />
    <path
       style=" stroke:none;fill-rule:nonzero;fill:rgb(0%,0%,0%);fill-opacity:1;"
       d="M 51.875 30.675781 C 51.855469 30.765625 51.820313 30.898438 51.820313 30.925781 C 51.820313 31.023438 51.902344 31.074219 51.988281 31.074219 C 52.058594 31.074219 52.15625 31.03125 52.203125 30.914063 C 52.210938 30.898438 52.398438 30.128906 52.421875 30.019531 C 52.46875 29.835938 52.574219 29.445313 52.601563 29.285156 C 52.628906 29.214844 52.785156 28.949219 52.917969 28.824219 C 52.964844 28.789063 53.132813 28.640625 53.371094 28.640625 C 53.523438 28.640625 53.601563 28.710938 53.609375 28.710938 C 53.441406 28.738281 53.320313 28.871094 53.320313 29.019531 C 53.320313 29.109375 53.378906 29.214844 53.53125 29.214844 C 53.679688 29.214844 53.839844 29.082031 53.839844 28.878906 C 53.839844 28.683594 53.664063 28.515625 53.371094 28.515625 C 53.007813 28.515625 52.761719 28.789063 52.652344 28.949219 C 52.601563 28.691406 52.398438 28.515625 52.132813 28.515625 C 51.875 28.515625 51.769531 28.738281 51.714844 28.835938 C 51.617188 29.027344 51.546875 29.367188 51.546875 29.382813 C 51.546875 29.445313 51.601563 29.445313 51.609375 29.445313 C 51.671875 29.445313 51.671875 29.4375 51.707031 29.3125 C 51.804688 28.914063 51.917969 28.640625 52.121094 28.640625 C 52.210938 28.640625 52.289063 28.683594 52.289063 28.894531 C 52.289063 29.019531 52.273438 29.082031 52.203125 29.375 Z M 51.875 30.675781 "
       id="path51" />
    <path
       style=" stroke:none;fill-rule:nonzero;fill:rgb(0%,0%,0%);fill-opacity:1;"
       d="M 39.730469 46.984375 C 39.730469 46.96875 39.746094 46.90625 39.746094 46.90625 C 39.746094 46.898438 39.746094 46.84375 39.675781 46.84375 C 39.625 46.84375 39.613281 46.863281 39.589844 46.960938 L 39.261719 48.261719 C 38.367188 48.296875 37.53125 49.039063 37.53125 49.8125 C 37.53125 50.351563 37.929688 50.792969 38.621094 50.839844 C 38.578125 51.007813 38.535156 51.191406 38.488281 51.371094 C 38.417969 51.636719 38.367188 51.847656 38.367188 51.867188 C 38.367188 51.917969 38.410156 51.929688 38.4375 51.929688 C 38.464844 51.929688 38.472656 51.917969 38.488281 51.902344 C 38.5 51.894531 38.535156 51.761719 38.550781 51.679688 L 38.765625 50.839844 C 39.675781 50.804688 40.5 50.042969 40.5 49.289063 C 40.5 48.835938 40.199219 48.324219 39.410156 48.261719 Z M 38.648438 50.714844 C 38.3125 50.699219 37.90625 50.492188 37.90625 49.933594 C 37.90625 49.253906 38.390625 48.464844 39.234375 48.386719 Z M 39.375 48.386719 C 39.808594 48.410156 40.128906 48.667969 40.128906 49.164063 C 40.128906 49.839844 39.640625 50.644531 38.800781 50.714844 Z M 39.375 48.386719 "
       id="path53" />
    <path
       style=" stroke:none;fill-rule:nonzero;fill:rgb(0%,0%,0%);fill-opacity:1;"
       d="M 23.191406 33.976563 C 23.175781 34.046875 23.175781 34.054688 23.175781 34.074219 C 23.175781 34.152344 23.234375 34.222656 23.332031 34.222656 C 23.449219 34.222656 23.519531 34.117188 23.527344 34.101563 C 23.5625 34.054688 23.742188 33.292969 23.890625 32.683594 C 24.007813 32.914063 24.183594 33.0625 24.449219 33.0625 C 25.113281 33.0625 25.839844 32.265625 25.839844 31.425781 C 25.839844 30.824219 25.46875 30.503906 25.0625 30.503906 C 24.511719 30.503906 23.917969 31.070313 23.75 31.761719 Z M 24.449219 32.941406 C 24.050781 32.941406 23.960938 32.488281 23.960938 32.433594 C 23.960938 32.417969 23.988281 32.300781 24.007813 32.230469 C 24.167969 31.59375 24.21875 31.390625 24.34375 31.167969 C 24.589844 30.753906 24.875 30.628906 25.042969 30.628906 C 25.253906 30.628906 25.433594 30.796875 25.433594 31.1875 C 25.433594 31.496094 25.273438 32.125 25.121094 32.398438 C 24.9375 32.761719 24.664063 32.941406 24.449219 32.941406 Z M 24.449219 32.941406 "
       id="path55" />
  </g>
</svg>
