<?xml version="1.0" encoding="UTF-8" standalone="no"?>
<svg
   xmlns:dc="http://purl.org/dc/elements/1.1/"
   xmlns:cc="http://creativecommons.org/ns#"
   xmlns:rdf="http://www.w3.org/1999/02/22-rdf-syntax-ns#"
   xmlns:svg="http://www.w3.org/2000/svg"
   xmlns="http://www.w3.org/2000/svg"
   xmlns:sodipodi="http://sodipodi.sourceforge.net/DTD/sodipodi-0.dtd"
   xmlns:inkscape="http://www.inkscape.org/namespaces/inkscape"
   width="73.125pt"
   height="51.937pt"
   viewBox="0 0 73.125 51.937"
   version="1.2"
   id="svg65"
   sodipodi:docname="222.svg"
   inkscape:version="0.92.4 (5da689c313, 2019-01-14)">
  <metadata
     id="metadata71">
    <rdf:RDF>
      <cc:Work
         rdf:about="">
        <dc:format>image/svg+xml</dc:format>
        <dc:type
           rdf:resource="http://purl.org/dc/dcmitype/StillImage" />
        <dc:title></dc:title>
      </cc:Work>
    </rdf:RDF>
  </metadata>
  <defs
     id="defs69" />
  <sodipodi:namedview
     pagecolor="#ffffff"
     bordercolor="#666666"
     borderopacity="1"
     objecttolerance="10"
     gridtolerance="10"
     guidetolerance="10"
     inkscape:pageopacity="0"
     inkscape:pageshadow="2"
     inkscape:window-width="727"
     inkscape:window-height="480"
     id="namedview67"
     showgrid="false"
     inkscape:zoom="3.407975"
     inkscape:cx="48.75"
     inkscape:cy="34.624667"
     inkscape:window-x="0"
     inkscape:window-y="0"
     inkscape:window-maximized="0"
     inkscape:current-layer="svg65" />
  <g
     id="surface40">
    <path
       style="fill:none;stroke-width:0.751181;stroke-linecap:butt;stroke-linejoin:miter;stroke:rgb(0%,0%,0%);stroke-opacity:1;stroke-miterlimit:4;"
       d="M 165.770031 243.91824 L 165.770031 276.640896 "
       transform="matrix(1,0,0,1,-144.188,-234.562771)"
       id="path2" />
    <path
       style="fill-rule:evenodd;fill:rgb(0%,0%,0%);fill-opacity:1;stroke-width:0.200315;stroke-linecap:butt;stroke-linejoin:miter;stroke:rgb(0%,0%,0%);stroke-opacity:1;stroke-miterlimit:4;"
       d="M 244.820584 -165.770031 L 245.57449 -166.520031 L 242.941677 -165.770031 L 245.57449 -165.016125 Z M 244.820584 -165.770031 "
       transform="matrix(0,1,-1,0,-144.188,-234.562771)"
       id="path4" />
    <path
       style="fill:none;stroke-width:0.751181;stroke-linecap:butt;stroke-linejoin:miter;stroke:rgb(0%,0%,0%);stroke-opacity:1;stroke-miterlimit:4;"
       d="M 165.402844 276.26199 L 206.211438 276.26199 "
       transform="matrix(1,0,0,1,-144.188,-234.562771)"
       id="path6" />
    <path
       style="fill-rule:evenodd;fill:rgb(0%,0%,0%);fill-opacity:1;stroke-width:0.200315;stroke-linecap:butt;stroke-linejoin:miter;stroke:rgb(0%,0%,0%);stroke-opacity:1;stroke-miterlimit:4;"
       d="M -205.309094 -276.26199 L -204.559094 -277.015896 L -207.188 -276.26199 L -204.559094 -275.51199 Z M -205.309094 -276.26199 "
       transform="matrix(-1,0,0,-1,-144.188,-234.562771)"
       id="path8" />
    <path
       style=" stroke:none;fill-rule:nonzero;fill:rgb(0%,0%,0%);fill-opacity:1;"
       d="M 66.371094 41.421875 C 66.40625 41.277344 66.539063 40.757813 66.929688 40.757813 C 66.957031 40.757813 67.097656 40.757813 67.214844 40.828125 C 67.054688 40.863281 66.949219 40.996094 66.949219 41.136719 C 66.949219 41.226563 67.007813 41.332031 67.160156 41.332031 C 67.285156 41.332031 67.460938 41.234375 67.460938 41.003906 C 67.460938 40.710938 67.132813 40.632813 66.9375 40.632813 C 66.609375 40.632813 66.414063 40.933594 66.34375 41.058594 C 66.203125 40.683594 65.902344 40.632813 65.734375 40.632813 C 65.148438 40.632813 64.820313 41.359375 64.820313 41.5 C 64.820313 41.5625 64.882813 41.5625 64.890625 41.5625 C 64.9375 41.5625 64.953125 41.542969 64.964844 41.5 C 65.15625 40.898438 65.53125 40.757813 65.726563 40.757813 C 65.832031 40.757813 66.027344 40.808594 66.027344 41.136719 C 66.027344 41.316406 65.929688 41.6875 65.726563 42.484375 C 65.636719 42.828125 65.433594 43.070313 65.183594 43.070313 C 65.148438 43.070313 65.023438 43.070313 64.902344 42.996094 C 65.042969 42.960938 65.167969 42.847656 65.167969 42.6875 C 65.167969 42.535156 65.042969 42.492188 64.964844 42.492188 C 64.785156 42.492188 64.652344 42.632813 64.652344 42.820313 C 64.652344 43.078125 64.929688 43.191406 65.175781 43.191406 C 65.558594 43.191406 65.761719 42.792969 65.769531 42.765625 C 65.839844 42.972656 66.042969 43.191406 66.378906 43.191406 C 66.964844 43.191406 67.285156 42.464844 67.285156 42.324219 C 67.285156 42.261719 67.238281 42.261719 67.222656 42.261719 C 67.167969 42.261719 67.160156 42.289063 67.140625 42.324219 C 66.957031 42.933594 66.574219 43.070313 66.398438 43.070313 C 66.175781 43.070313 66.089844 42.890625 66.089844 42.695313 C 66.089844 42.574219 66.113281 42.449219 66.175781 42.199219 Z M 66.371094 41.421875 "
       id="path10" />
    <path
       style=" stroke:none;fill-rule:nonzero;fill:rgb(0%,0%,0%);fill-opacity:1;"
       d="M 21.054688 5.761719 C 21.359375 5.433594 21.527344 5.292969 21.730469 5.117188 C 21.730469 5.117188 22.074219 4.816406 22.277344 4.609375 C 22.820313 4.089844 22.941406 3.8125 22.941406 3.789063 C 22.941406 3.734375 22.890625 3.734375 22.882813 3.734375 C 22.835938 3.734375 22.828125 3.742188 22.792969 3.796875 C 22.625 4.070313 22.507813 4.160156 22.375 4.160156 C 22.234375 4.160156 22.171875 4.070313 22.082031 3.972656 C 21.976563 3.847656 21.878906 3.734375 21.695313 3.734375 C 21.269531 3.734375 21.011719 4.257813 21.011719 4.382813 C 21.011719 4.40625 21.03125 4.441406 21.074219 4.441406 C 21.128906 4.441406 21.136719 4.417969 21.152344 4.382813 C 21.261719 4.113281 21.585938 4.113281 21.632813 4.113281 C 21.746094 4.113281 21.855469 4.152344 21.988281 4.195313 C 22.214844 4.285156 22.277344 4.285156 22.421875 4.285156 C 22.214844 4.523438 21.746094 4.929688 21.640625 5.019531 L 21.128906 5.496094 C 20.746094 5.878906 20.542969 6.195313 20.542969 6.242188 C 20.542969 6.292969 20.605469 6.292969 20.613281 6.292969 C 20.65625 6.292969 20.667969 6.285156 20.703125 6.222656 C 20.835938 6.019531 21.003906 5.867188 21.1875 5.867188 C 21.3125 5.867188 21.375 5.921875 21.515625 6.082031 C 21.605469 6.207031 21.710938 6.292969 21.871094 6.292969 C 22.4375 6.292969 22.765625 5.578125 22.765625 5.425781 C 22.765625 5.398438 22.738281 5.363281 22.695313 5.363281 C 22.640625 5.363281 22.632813 5.398438 22.617188 5.445313 C 22.484375 5.808594 22.121094 5.914063 21.933594 5.914063 C 21.828125 5.914063 21.71875 5.878906 21.605469 5.84375 C 21.410156 5.773438 21.320313 5.746094 21.207031 5.746094 C 21.199219 5.746094 21.109375 5.746094 21.054688 5.761719 Z M 21.054688 5.761719 "
       id="path12" />
    <path
       style="fill:none;stroke-width:0.751181;stroke-linecap:butt;stroke-linejoin:miter;stroke:rgb(0%,0%,0%);stroke-opacity:1;stroke-miterlimit:4;"
       d="M 165.805188 276.140896 L 189.777844 261.000271 "
       transform="matrix(1,0,0,1,-144.188,-234.562771)"
       id="path14" />
    <path
       style="fill:none;stroke-width:0.75;stroke-linecap:butt;stroke-linejoin:miter;stroke:rgb(0%,0%,0%);stroke-opacity:1;stroke-miterlimit:4;"
       d="M 172.945813 271.844021 C 174.6255 272.308865 175.477063 274.312771 175.477063 276.015896 "
       transform="matrix(1,0,0,1,-144.188,-234.562771)"
       id="path16" />
    <path
       style=" stroke:none;fill-rule:nonzero;fill:rgb(0%,0%,0%);fill-opacity:1;"
       d="M 34.976563 37.261719 L 35.925781 37.261719 C 35.996094 37.261719 36.199219 37.261719 36.199219 37.066406 C 36.199219 36.933594 36.085938 36.933594 35.96875 36.933594 L 34.394531 36.933594 C 34.277344 36.933594 34.058594 36.933594 33.808594 37.199219 C 33.621094 37.402344 33.464844 37.675781 33.464844 37.703125 C 33.464844 37.710938 33.464844 37.765625 33.535156 37.765625 C 33.578125 37.765625 33.585938 37.738281 33.621094 37.695313 C 33.898438 37.261719 34.226563 37.261719 34.339844 37.261719 L 34.808594 37.261719 L 34.261719 39.078125 C 34.234375 39.136719 34.199219 39.261719 34.199219 39.28125 C 34.199219 39.34375 34.242188 39.441406 34.367188 39.441406 C 34.554688 39.441406 34.578125 39.28125 34.597656 39.191406 Z M 34.976563 37.261719 "
       id="path18" />
    <path
       style=" stroke:none;fill-rule:nonzero;fill:rgb(0%,0%,0%);fill-opacity:1;"
       d="M 36.765625 39.800781 C 36.730469 39.933594 36.597656 40.144531 36.394531 40.144531 C 36.382813 40.144531 36.261719 40.144531 36.179688 40.09375 C 36.339844 40.039063 36.359375 39.898438 36.359375 39.871094 C 36.359375 39.78125 36.285156 39.730469 36.199219 39.730469 C 36.082031 39.730469 35.96875 39.816406 35.96875 39.96875 C 35.96875 40.164063 36.1875 40.25 36.382813 40.25 C 36.570313 40.25 36.730469 40.144531 36.828125 39.976563 C 36.925781 40.179688 37.136719 40.25 37.296875 40.25 C 37.757813 40.25 37.996094 39.765625 37.996094 39.648438 C 37.996094 39.597656 37.945313 39.597656 37.933594 39.597656 C 37.871094 39.597656 37.871094 39.621094 37.855469 39.667969 C 37.773438 39.941406 37.535156 40.144531 37.3125 40.144531 C 37.15625 40.144531 37.074219 40.039063 37.074219 39.890625 C 37.074219 39.78125 37.171875 39.429688 37.277344 38.984375 C 37.359375 38.683594 37.535156 38.585938 37.667969 38.585938 C 37.675781 38.585938 37.792969 38.585938 37.882813 38.640625 C 37.757813 38.675781 37.703125 38.789063 37.703125 38.859375 C 37.703125 38.941406 37.773438 39.003906 37.863281 39.003906 C 37.953125 39.003906 38.085938 38.933594 38.085938 38.765625 C 38.085938 38.542969 37.828125 38.472656 37.675781 38.472656 C 37.472656 38.472656 37.3125 38.605469 37.234375 38.753906 C 37.164063 38.59375 36.976563 38.472656 36.757813 38.472656 C 36.3125 38.472656 36.066406 38.957031 36.066406 39.082031 C 36.066406 39.125 36.117188 39.125 36.128906 39.125 C 36.179688 39.125 36.179688 39.117188 36.207031 39.066406 C 36.304688 38.753906 36.550781 38.585938 36.746094 38.585938 C 36.878906 38.585938 36.988281 38.65625 36.988281 38.84375 C 36.988281 38.921875 36.933594 39.117188 36.898438 39.261719 Z M 36.765625 39.800781 "
       id="path20" />
    <path
       style=" stroke:none;fill-rule:nonzero;fill:rgb(0%,0%,0%);fill-opacity:1;"
       d="M 32.273438 30.855469 C 32.363281 30.855469 32.46875 30.855469 32.46875 30.757813 C 32.46875 30.679688 32.398438 30.679688 32.300781 30.679688 L 31.386719 30.679688 C 31.519531 30.199219 31.839844 29.871094 32.351563 29.871094 L 32.53125 29.871094 C 32.628906 29.871094 32.714844 29.871094 32.714844 29.773438 C 32.714844 29.695313 32.644531 29.695313 32.546875 29.695313 L 32.34375 29.695313 C 31.609375 29.695313 30.855469 30.261719 30.855469 31.121094 C 30.855469 31.75 31.28125 32.195313 31.875 32.195313 C 32.246094 32.195313 32.609375 31.964844 32.609375 31.902344 C 32.609375 31.890625 32.609375 31.832031 32.554688 31.832031 C 32.546875 31.832031 32.53125 31.832031 32.484375 31.855469 C 32.308594 31.972656 32.097656 32.070313 31.890625 32.070313 C 31.5625 32.070313 31.28125 31.832031 31.28125 31.335938 C 31.28125 31.140625 31.324219 30.917969 31.34375 30.855469 Z M 32.273438 30.855469 "
       id="path22" />
    <path
       style=" stroke:none;fill-rule:nonzero;fill:rgb(0%,0%,0%);fill-opacity:1;"
       d="M 2.164063 27.332031 C 2.148438 27.421875 2.113281 27.554688 2.113281 27.578125 C 2.113281 27.675781 2.191406 27.730469 2.28125 27.730469 C 2.351563 27.730469 2.449219 27.6875 2.492188 27.570313 C 2.503906 27.554688 2.6875 26.78125 2.714844 26.675781 C 2.757813 26.488281 2.867188 26.101563 2.890625 25.941406 C 2.917969 25.871094 3.078125 25.605469 3.210938 25.480469 C 3.253906 25.445313 3.421875 25.292969 3.664063 25.292969 C 3.8125 25.292969 3.894531 25.363281 3.902344 25.363281 C 3.734375 25.390625 3.609375 25.523438 3.609375 25.675781 C 3.609375 25.761719 3.671875 25.871094 3.824219 25.871094 C 3.972656 25.871094 4.132813 25.738281 4.132813 25.535156 C 4.132813 25.339844 3.957031 25.171875 3.664063 25.171875 C 3.300781 25.171875 3.050781 25.445313 2.945313 25.605469 C 2.890625 25.347656 2.6875 25.171875 2.421875 25.171875 C 2.164063 25.171875 2.058594 25.390625 2.007813 25.488281 C 1.910156 25.683594 1.839844 26.019531 1.839844 26.039063 C 1.839844 26.101563 1.890625 26.101563 1.898438 26.101563 C 1.960938 26.101563 1.960938 26.089844 1.996094 25.96875 C 2.09375 25.570313 2.210938 25.292969 2.414063 25.292969 C 2.503906 25.292969 2.582031 25.339844 2.582031 25.550781 C 2.582031 25.675781 2.566406 25.738281 2.492188 26.03125 Z M 2.164063 27.332031 "
       id="path24" />
    <path
       style=" stroke:none;fill-rule:nonzero;fill:rgb(0%,0%,0%);fill-opacity:1;"
       d="M 5.980469 26.4375 C 5.980469 25.515625 6.441406 25.277344 6.742188 25.277344 C 6.796875 25.277344 7.148438 25.285156 7.34375 25.488281 C 7.113281 25.507813 7.078125 25.675781 7.078125 25.746094 C 7.078125 25.898438 7.183594 26.003906 7.335938 26.003906 C 7.488281 26.003906 7.601563 25.914063 7.601563 25.738281 C 7.601563 25.355469 7.167969 25.132813 6.734375 25.132813 C 6.023438 25.132813 5.511719 25.746094 5.511719 26.445313 C 5.511719 27.171875 6.070313 27.730469 6.726563 27.730469 C 7.476563 27.730469 7.664063 27.046875 7.664063 26.996094 C 7.664063 26.941406 7.601563 26.941406 7.585938 26.941406 C 7.539063 26.941406 7.523438 26.960938 7.511719 26.996094 C 7.355469 27.519531 6.980469 27.589844 6.777344 27.589844 C 6.476563 27.589844 5.980469 27.347656 5.980469 26.4375 Z M 5.980469 26.4375 "
       id="path26" />
    <path
       style=" stroke:none;fill-rule:nonzero;fill:rgb(0%,0%,0%);fill-opacity:1;"
       d="M 10.484375 26.453125 C 10.484375 25.738281 9.925781 25.132813 9.242188 25.132813 C 8.535156 25.132813 7.984375 25.753906 7.984375 26.453125 C 7.984375 27.191406 8.570313 27.730469 9.234375 27.730469 C 9.917969 27.730469 10.484375 27.171875 10.484375 26.453125 Z M 9.242188 27.589844 C 8.996094 27.589844 8.746094 27.472656 8.597656 27.207031 C 8.457031 26.960938 8.457031 26.613281 8.457031 26.410156 C 8.457031 26.1875 8.457031 25.886719 8.589844 25.640625 C 8.738281 25.382813 9.003906 25.257813 9.234375 25.257813 C 9.484375 25.257813 9.722656 25.382813 9.871094 25.628906 C 10.023438 25.871094 10.023438 26.199219 10.023438 26.410156 C 10.023438 26.613281 10.023438 26.925781 9.898438 27.171875 C 9.765625 27.429688 9.519531 27.589844 9.242188 27.589844 Z M 9.242188 27.589844 "
       id="path28" />
    <path
       style=" stroke:none;fill-rule:nonzero;fill:rgb(0%,0%,0%);fill-opacity:1;"
       d="M 11.828125 26.570313 C 11.953125 26.597656 12.414063 26.683594 12.414063 27.09375 C 12.414063 27.375 12.21875 27.605469 11.777344 27.605469 C 11.296875 27.605469 11.09375 27.289063 10.988281 26.800781 C 10.96875 26.730469 10.96875 26.710938 10.90625 26.710938 C 10.835938 26.710938 10.835938 26.746094 10.835938 26.84375 L 10.835938 27.597656 C 10.835938 27.695313 10.835938 27.730469 10.898438 27.730469 C 10.925781 27.730469 10.933594 27.722656 11.039063 27.613281 C 11.050781 27.605469 11.050781 27.597656 11.15625 27.492188 C 11.402344 27.722656 11.660156 27.730469 11.777344 27.730469 C 12.421875 27.730469 12.6875 27.347656 12.6875 26.941406 C 12.6875 26.648438 12.519531 26.472656 12.449219 26.410156 C 12.261719 26.222656 12.042969 26.179688 11.800781 26.136719 C 11.484375 26.074219 11.109375 26.003906 11.109375 25.675781 C 11.109375 25.472656 11.253906 25.242188 11.738281 25.242188 C 12.359375 25.242188 12.394531 25.753906 12.40625 25.921875 C 12.40625 25.976563 12.457031 25.976563 12.464844 25.976563 C 12.546875 25.976563 12.546875 25.949219 12.546875 25.84375 L 12.546875 25.269531 C 12.546875 25.179688 12.546875 25.132813 12.484375 25.132813 C 12.457031 25.132813 12.441406 25.132813 12.367188 25.207031 C 12.351563 25.222656 12.296875 25.277344 12.269531 25.292969 C 12.058594 25.132813 11.828125 25.132813 11.738281 25.132813 C 11.050781 25.132813 10.835938 25.515625 10.835938 25.835938 C 10.835938 26.03125 10.925781 26.1875 11.074219 26.3125 C 11.261719 26.453125 11.421875 26.488281 11.828125 26.570313 Z M 11.828125 26.570313 "
       id="path30" />
    <path
       style=" stroke:none;fill-rule:nonzero;fill:rgb(0%,0%,0%);fill-opacity:1;"
       d="M 14.746094 29.023438 C 14.746094 29.003906 14.746094 28.996094 14.648438 28.898438 C 13.949219 28.191406 13.765625 27.117188 13.765625 26.25 C 13.765625 25.269531 13.976563 24.285156 14.675781 23.585938 C 14.746094 23.511719 14.746094 23.503906 14.746094 23.488281 C 14.746094 23.441406 14.730469 23.425781 14.695313 23.425781 C 14.632813 23.425781 14.128906 23.816406 13.789063 24.53125 C 13.507813 25.152344 13.4375 25.78125 13.4375 26.25 C 13.4375 26.695313 13.5 27.375 13.808594 28.023438 C 14.152344 28.714844 14.632813 29.085938 14.695313 29.085938 C 14.730469 29.085938 14.746094 29.066406 14.746094 29.023438 Z M 14.746094 29.023438 "
       id="path32" />
    <path
       style=" stroke:none;fill-rule:nonzero;fill:rgb(0%,0%,0%);fill-opacity:1;"
       d="M 17.644531 24.84375 C 17.644531 24.46875 17.546875 23.683594 16.96875 23.683594 C 16.183594 23.683594 15.3125 25.277344 15.3125 26.570313 C 15.3125 27.101563 15.472656 27.730469 15.988281 27.730469 C 16.785156 27.730469 17.644531 26.109375 17.644531 24.84375 Z M 15.90625 25.613281 C 16.003906 25.257813 16.121094 24.808594 16.351563 24.398438 C 16.5 24.125 16.703125 23.804688 16.960938 23.804688 C 17.234375 23.804688 17.273438 24.167969 17.273438 24.488281 C 17.273438 24.773438 17.226563 25.054688 17.09375 25.613281 Z M 17.042969 25.800781 C 16.980469 26.054688 16.863281 26.535156 16.644531 26.941406 C 16.449219 27.332031 16.234375 27.605469 15.988281 27.605469 C 15.800781 27.605469 15.6875 27.4375 15.6875 26.914063 C 15.6875 26.675781 15.722656 26.347656 15.863281 25.800781 Z M 17.042969 25.800781 "
       id="path34" />
    <path
       style=" stroke:none;fill-rule:nonzero;fill:rgb(0%,0%,0%);fill-opacity:1;"
       d="M 19.511719 26.25 C 19.511719 25.816406 19.453125 25.132813 19.140625 24.488281 C 18.804688 23.796875 18.316406 23.425781 18.265625 23.425781 C 18.230469 23.425781 18.203125 23.453125 18.203125 23.488281 C 18.203125 23.503906 18.203125 23.511719 18.308594 23.621094 C 18.867188 24.179688 19.1875 25.074219 19.1875 26.25 C 19.1875 27.226563 18.980469 28.21875 18.28125 28.925781 C 18.203125 28.996094 18.203125 29.003906 18.203125 29.023438 C 18.203125 29.058594 18.230469 29.085938 18.265625 29.085938 C 18.316406 29.085938 18.832031 28.695313 19.160156 27.976563 C 19.453125 27.359375 19.511719 26.730469 19.511719 26.25 Z M 19.511719 26.25 "
       id="path36" />
    <path
       style=" stroke:none;fill-rule:nonzero;fill:rgb(0%,0%,0%);fill-opacity:1;"
       d="M 24.496094 47.730469 C 24.480469 47.820313 24.445313 47.953125 24.445313 47.976563 C 24.445313 48.074219 24.523438 48.128906 24.613281 48.128906 C 24.683594 48.128906 24.78125 48.085938 24.824219 47.96875 C 24.832031 47.953125 25.019531 47.179688 25.046875 47.074219 C 25.089844 46.886719 25.195313 46.5 25.222656 46.339844 C 25.25 46.269531 25.410156 46.003906 25.542969 45.878906 C 25.585938 45.84375 25.753906 45.691406 25.992188 45.691406 C 26.144531 45.691406 26.222656 45.761719 26.234375 45.761719 C 26.066406 45.789063 25.941406 45.921875 25.941406 46.074219 C 25.941406 46.164063 26.003906 46.269531 26.152344 46.269531 C 26.304688 46.269531 26.464844 46.136719 26.464844 45.933594 C 26.464844 45.738281 26.285156 45.570313 25.992188 45.570313 C 25.628906 45.570313 25.382813 45.84375 25.277344 46.003906 C 25.222656 45.746094 25.019531 45.570313 24.753906 45.570313 C 24.496094 45.570313 24.390625 45.789063 24.335938 45.886719 C 24.238281 46.082031 24.167969 46.417969 24.167969 46.4375 C 24.167969 46.5 24.222656 46.5 24.230469 46.5 C 24.292969 46.5 24.292969 46.488281 24.328125 46.367188 C 24.425781 45.96875 24.542969 45.691406 24.746094 45.691406 C 24.832031 45.691406 24.914063 45.738281 24.914063 45.949219 C 24.914063 46.074219 24.894531 46.136719 24.824219 46.429688 Z M 24.496094 47.730469 "
       id="path38" />
    <path
       style=" stroke:none;fill-rule:nonzero;fill:rgb(0%,0%,0%);fill-opacity:1;"
       d="M 28.824219 46.96875 C 28.949219 46.996094 29.410156 47.082031 29.410156 47.492188 C 29.410156 47.773438 29.214844 48.003906 28.773438 48.003906 C 28.292969 48.003906 28.089844 47.6875 27.984375 47.199219 C 27.964844 47.128906 27.964844 47.109375 27.902344 47.109375 C 27.832031 47.109375 27.832031 47.144531 27.832031 47.242188 L 27.832031 47.996094 C 27.832031 48.09375 27.832031 48.128906 27.894531 48.128906 C 27.921875 48.128906 27.929688 48.121094 28.035156 48.011719 C 28.046875 48.003906 28.046875 47.996094 28.152344 47.890625 C 28.398438 48.121094 28.65625 48.128906 28.773438 48.128906 C 29.417969 48.128906 29.683594 47.746094 29.683594 47.339844 C 29.683594 47.046875 29.515625 46.871094 29.445313 46.808594 C 29.257813 46.621094 29.039063 46.578125 28.800781 46.535156 C 28.480469 46.472656 28.109375 46.402344 28.109375 46.074219 C 28.109375 45.871094 28.25 45.640625 28.738281 45.640625 C 29.355469 45.640625 29.390625 46.152344 29.402344 46.320313 C 29.402344 46.375 29.453125 46.375 29.464844 46.375 C 29.542969 46.375 29.542969 46.347656 29.542969 46.242188 L 29.542969 45.667969 C 29.542969 45.578125 29.542969 45.535156 29.480469 45.535156 C 29.453125 45.535156 29.4375 45.535156 29.367188 45.605469 C 29.347656 45.621094 29.296875 45.675781 29.269531 45.691406 C 29.054688 45.535156 28.824219 45.535156 28.738281 45.535156 C 28.046875 45.535156 27.832031 45.914063 27.832031 46.234375 C 27.832031 46.429688 27.921875 46.585938 28.074219 46.710938 C 28.257813 46.851563 28.417969 46.886719 28.824219 46.96875 Z M 28.824219 46.96875 "
       id="path40" />
    <path
       style=" stroke:none;fill-rule:nonzero;fill:rgb(0%,0%,0%);fill-opacity:1;"
       d="M 30.875 45.570313 L 30.085938 45.628906 L 30.085938 45.808594 C 30.449219 45.808594 30.503906 45.84375 30.503906 46.117188 L 30.503906 47.640625 C 30.503906 47.890625 30.441406 47.890625 30.0625 47.890625 L 30.0625 48.066406 C 30.238281 48.058594 30.546875 48.050781 30.679688 48.050781 C 30.886719 48.050781 31.078125 48.058594 31.273438 48.066406 L 31.273438 47.890625 C 30.894531 47.890625 30.875 47.863281 30.875 47.640625 Z M 30.894531 44.585938 C 30.894531 44.410156 30.761719 44.285156 30.601563 44.285156 C 30.425781 44.285156 30.300781 44.433594 30.300781 44.585938 C 30.300781 44.734375 30.425781 44.886719 30.601563 44.886719 C 30.761719 44.886719 30.894531 44.761719 30.894531 44.585938 Z M 30.894531 44.585938 "
       id="path42" />
    <path
       style=" stroke:none;fill-rule:nonzero;fill:rgb(0%,0%,0%);fill-opacity:1;"
       d="M 32.0625 46.125 L 32.0625 47.640625 C 32.0625 47.890625 32.003906 47.890625 31.621094 47.890625 L 31.621094 48.066406 C 31.824219 48.058594 32.109375 48.050781 32.269531 48.050781 C 32.410156 48.050781 32.703125 48.058594 32.898438 48.066406 L 32.898438 47.890625 C 32.515625 47.890625 32.453125 47.890625 32.453125 47.640625 L 32.453125 46.597656 C 32.453125 46.011719 32.859375 45.691406 33.214844 45.691406 C 33.578125 45.691406 33.640625 45.992188 33.640625 46.320313 L 33.640625 47.640625 C 33.640625 47.890625 33.578125 47.890625 33.199219 47.890625 L 33.199219 48.066406 C 33.394531 48.058594 33.683594 48.050781 33.835938 48.050781 C 33.976563 48.050781 34.277344 48.058594 34.464844 48.066406 L 34.464844 47.890625 C 34.171875 47.890625 34.03125 47.890625 34.03125 47.722656 L 34.03125 46.640625 C 34.03125 46.152344 34.03125 45.984375 33.851563 45.78125 C 33.773438 45.683594 33.585938 45.570313 33.261719 45.570313 C 32.84375 45.570313 32.578125 45.808594 32.417969 46.164063 L 32.417969 45.570313 L 31.621094 45.628906 L 31.621094 45.808594 C 32.019531 45.808594 32.0625 45.84375 32.0625 46.125 Z M 32.0625 46.125 "
       id="path44" />
    <path
       style=" stroke:none;fill-rule:nonzero;fill:rgb(0%,0%,0%);fill-opacity:1;"
       d="M 36.449219 49.421875 C 36.449219 49.40625 36.449219 49.394531 36.355469 49.296875 C 35.652344 48.589844 35.46875 47.515625 35.46875 46.648438 C 35.46875 45.667969 35.679688 44.683594 36.378906 43.984375 C 36.449219 43.914063 36.449219 43.902344 36.449219 43.886719 C 36.449219 43.839844 36.433594 43.824219 36.398438 43.824219 C 36.335938 43.824219 35.832031 44.214844 35.496094 44.929688 C 35.210938 45.550781 35.140625 46.179688 35.140625 46.648438 C 35.140625 47.09375 35.203125 47.773438 35.511719 48.421875 C 35.859375 49.113281 36.335938 49.484375 36.398438 49.484375 C 36.433594 49.484375 36.449219 49.464844 36.449219 49.421875 Z M 36.449219 49.421875 "
       id="path46" />
    <path
       style=" stroke:none;fill-rule:nonzero;fill:rgb(0%,0%,0%);fill-opacity:1;"
       d="M 39.347656 45.242188 C 39.347656 44.867188 39.25 44.082031 38.675781 44.082031 C 37.886719 44.082031 37.015625 45.675781 37.015625 46.96875 C 37.015625 47.5 37.175781 48.128906 37.691406 48.128906 C 38.488281 48.128906 39.347656 46.507813 39.347656 45.242188 Z M 37.609375 46.011719 C 37.707031 45.65625 37.824219 45.207031 38.054688 44.796875 C 38.203125 44.523438 38.410156 44.203125 38.664063 44.203125 C 38.941406 44.203125 38.976563 44.566406 38.976563 44.886719 C 38.976563 45.171875 38.929688 45.453125 38.796875 46.011719 Z M 38.746094 46.199219 C 38.683594 46.453125 38.566406 46.933594 38.347656 47.339844 C 38.152344 47.730469 37.9375 48.003906 37.691406 48.003906 C 37.503906 48.003906 37.390625 47.835938 37.390625 47.3125 C 37.390625 47.074219 37.425781 46.746094 37.566406 46.199219 Z M 38.746094 46.199219 "
       id="path48" />
    <path
       style=" stroke:none;fill-rule:nonzero;fill:rgb(0%,0%,0%);fill-opacity:1;"
       d="M 41.214844 46.648438 C 41.214844 46.214844 41.15625 45.535156 40.84375 44.886719 C 40.507813 44.195313 40.019531 43.824219 39.96875 43.824219 C 39.933594 43.824219 39.90625 43.851563 39.90625 43.886719 C 39.90625 43.902344 39.90625 43.914063 40.011719 44.019531 C 40.570313 44.578125 40.890625 45.472656 40.890625 46.648438 C 40.890625 47.625 40.683594 48.617188 39.984375 49.324219 C 39.90625 49.394531 39.90625 49.40625 39.90625 49.421875 C 39.90625 49.457031 39.933594 49.484375 39.96875 49.484375 C 40.019531 49.484375 40.535156 49.09375 40.863281 48.375 C 41.15625 47.757813 41.214844 47.128906 41.214844 46.648438 Z M 41.214844 46.648438 "
       id="path50" />
    <path
       style=" stroke:none;fill-rule:nonzero;fill:rgb(0%,0%,0%);fill-opacity:1;"
       d="M 43.898438 46.96875 C 44.023438 46.996094 44.484375 47.082031 44.484375 47.492188 C 44.484375 47.773438 44.289063 48.003906 43.847656 48.003906 C 43.367188 48.003906 43.164063 47.6875 43.058594 47.199219 C 43.039063 47.128906 43.039063 47.109375 42.976563 47.109375 C 42.90625 47.109375 42.90625 47.144531 42.90625 47.242188 L 42.90625 47.996094 C 42.90625 48.09375 42.90625 48.128906 42.96875 48.128906 C 42.996094 48.128906 43.003906 48.121094 43.109375 48.011719 C 43.121094 48.003906 43.121094 47.996094 43.226563 47.890625 C 43.472656 48.121094 43.730469 48.128906 43.847656 48.128906 C 44.492188 48.128906 44.757813 47.746094 44.757813 47.339844 C 44.757813 47.046875 44.589844 46.871094 44.519531 46.808594 C 44.332031 46.621094 44.113281 46.578125 43.871094 46.535156 C 43.554688 46.472656 43.179688 46.402344 43.179688 46.074219 C 43.179688 45.871094 43.324219 45.640625 43.8125 45.640625 C 44.429688 45.640625 44.464844 46.152344 44.476563 46.320313 C 44.476563 46.375 44.527344 46.375 44.535156 46.375 C 44.617188 46.375 44.617188 46.347656 44.617188 46.242188 L 44.617188 45.667969 C 44.617188 45.578125 44.617188 45.535156 44.554688 45.535156 C 44.527344 45.535156 44.511719 45.535156 44.441406 45.605469 C 44.421875 45.621094 44.367188 45.675781 44.34375 45.691406 C 44.128906 45.535156 43.898438 45.535156 43.8125 45.535156 C 43.121094 45.535156 42.90625 45.914063 42.90625 46.234375 C 42.90625 46.429688 42.996094 46.585938 43.144531 46.710938 C 43.332031 46.851563 43.492188 46.886719 43.898438 46.96875 Z M 43.898438 46.96875 "
       id="path52" />
    <path
       style=" stroke:none;fill-rule:nonzero;fill:rgb(0%,0%,0%);fill-opacity:1;"
       d="M 45.949219 45.570313 L 45.160156 45.628906 L 45.160156 45.808594 C 45.523438 45.808594 45.578125 45.84375 45.578125 46.117188 L 45.578125 47.640625 C 45.578125 47.890625 45.515625 47.890625 45.132813 47.890625 L 45.132813 48.066406 C 45.3125 48.058594 45.621094 48.050781 45.753906 48.050781 C 45.957031 48.050781 46.152344 48.058594 46.347656 48.066406 L 46.347656 47.890625 C 45.96875 47.890625 45.949219 47.863281 45.949219 47.640625 Z M 45.96875 44.585938 C 45.96875 44.410156 45.835938 44.285156 45.675781 44.285156 C 45.496094 44.285156 45.375 44.433594 45.375 44.585938 C 45.375 44.734375 45.496094 44.886719 45.675781 44.886719 C 45.835938 44.886719 45.96875 44.761719 45.96875 44.585938 Z M 45.96875 44.585938 "
       id="path54" />
    <path
       style=" stroke:none;fill-rule:nonzero;fill:rgb(0%,0%,0%);fill-opacity:1;"
       d="M 47.136719 46.125 L 47.136719 47.640625 C 47.136719 47.890625 47.074219 47.890625 46.695313 47.890625 L 46.695313 48.066406 C 46.898438 48.058594 47.183594 48.050781 47.339844 48.050781 C 47.484375 48.050781 47.777344 48.058594 47.96875 48.066406 L 47.96875 47.890625 C 47.589844 47.890625 47.527344 47.890625 47.527344 47.640625 L 47.527344 46.597656 C 47.527344 46.011719 47.933594 45.691406 48.289063 45.691406 C 48.652344 45.691406 48.714844 45.992188 48.714844 46.320313 L 48.714844 47.640625 C 48.714844 47.890625 48.652344 47.890625 48.273438 47.890625 L 48.273438 48.066406 C 48.464844 48.058594 48.757813 48.050781 48.910156 48.050781 C 49.050781 48.050781 49.351563 48.058594 49.539063 48.066406 L 49.539063 47.890625 C 49.246094 47.890625 49.105469 47.890625 49.105469 47.722656 L 49.105469 46.640625 C 49.105469 46.152344 49.105469 45.984375 48.925781 45.78125 C 48.847656 45.683594 48.660156 45.570313 48.332031 45.570313 C 47.917969 45.570313 47.652344 45.808594 47.492188 46.164063 L 47.492188 45.570313 L 46.695313 45.628906 L 46.695313 45.808594 C 47.09375 45.808594 47.136719 45.84375 47.136719 46.125 Z M 47.136719 46.125 "
       id="path56" />
    <path
       style=" stroke:none;fill-rule:nonzero;fill:rgb(0%,0%,0%);fill-opacity:1;"
       d="M 51.523438 49.421875 C 51.523438 49.40625 51.523438 49.394531 51.425781 49.296875 C 50.726563 48.589844 50.542969 47.515625 50.542969 46.648438 C 50.542969 45.667969 50.753906 44.683594 51.453125 43.984375 C 51.523438 43.914063 51.523438 43.902344 51.523438 43.886719 C 51.523438 43.839844 51.507813 43.824219 51.472656 43.824219 C 51.410156 43.824219 50.90625 44.214844 50.566406 44.929688 C 50.285156 45.550781 50.214844 46.179688 50.214844 46.648438 C 50.214844 47.09375 50.277344 47.773438 50.585938 48.421875 C 50.929688 49.113281 51.410156 49.484375 51.472656 49.484375 C 51.507813 49.484375 51.523438 49.464844 51.523438 49.421875 Z M 51.523438 49.421875 "
       id="path58" />
    <path
       style=" stroke:none;fill-rule:nonzero;fill:rgb(0%,0%,0%);fill-opacity:1;"
       d="M 54.328125 44.285156 C 54.328125 44.265625 54.34375 44.203125 54.34375 44.203125 C 54.34375 44.195313 54.34375 44.140625 54.273438 44.140625 C 54.222656 44.140625 54.210938 44.160156 54.183594 44.257813 L 53.859375 45.558594 C 52.964844 45.59375 52.128906 46.339844 52.128906 47.109375 C 52.128906 47.648438 52.527344 48.09375 53.21875 48.136719 C 53.175781 48.304688 53.132813 48.492188 53.085938 48.667969 C 53.015625 48.933594 52.964844 49.148438 52.964844 49.164063 C 52.964844 49.21875 53.007813 49.226563 53.035156 49.226563 C 53.058594 49.226563 53.070313 49.21875 53.085938 49.199219 C 53.097656 49.191406 53.132813 49.058594 53.148438 48.980469 L 53.363281 48.136719 C 54.273438 48.101563 55.097656 47.339844 55.097656 46.585938 C 55.097656 46.136719 54.796875 45.621094 54.007813 45.558594 Z M 53.246094 48.011719 C 52.910156 47.996094 52.503906 47.792969 52.503906 47.234375 C 52.503906 46.550781 52.988281 45.761719 53.832031 45.683594 Z M 53.972656 45.683594 C 54.40625 45.710938 54.726563 45.96875 54.726563 46.464844 C 54.726563 47.136719 54.238281 47.941406 53.398438 48.011719 Z M 53.972656 45.683594 "
       id="path60" />
    <path
       style=" stroke:none;fill-rule:nonzero;fill:rgb(0%,0%,0%);fill-opacity:1;"
       d="M 56.851563 46.648438 C 56.851563 46.214844 56.789063 45.535156 56.480469 44.886719 C 56.140625 44.195313 55.65625 43.824219 55.601563 43.824219 C 55.566406 43.824219 55.539063 43.851563 55.539063 43.886719 C 55.539063 43.902344 55.539063 43.914063 55.644531 44.019531 C 56.203125 44.578125 56.523438 45.472656 56.523438 46.648438 C 56.523438 47.625 56.320313 48.617188 55.621094 49.324219 C 55.539063 49.394531 55.539063 49.40625 55.539063 49.421875 C 55.539063 49.457031 55.566406 49.484375 55.601563 49.484375 C 55.65625 49.484375 56.167969 49.09375 56.496094 48.375 C 56.789063 47.757813 56.851563 47.128906 56.851563 46.648438 Z M 56.851563 46.648438 "
       id="path62" />
  </g>
</svg>
