<?xml version="1.0" encoding="UTF-8" standalone="no"?>
<svg
   xmlns:dc="http://purl.org/dc/elements/1.1/"
   xmlns:cc="http://creativecommons.org/ns#"
   xmlns:rdf="http://www.w3.org/1999/02/22-rdf-syntax-ns#"
   xmlns:svg="http://www.w3.org/2000/svg"
   xmlns="http://www.w3.org/2000/svg"
   xmlns:sodipodi="http://sodipodi.sourceforge.net/DTD/sodipodi-0.dtd"
   xmlns:inkscape="http://www.inkscape.org/namespaces/inkscape"
   width="75.75pt"
   height="52.75pt"
   viewBox="0 0 75.75 52.75"
   version="1.2"
   id="svg67"
   sodipodi:docname="223.svg"
   inkscape:version="0.92.4 (5da689c313, 2019-01-14)">
  <metadata
     id="metadata73">
    <rdf:RDF>
      <cc:Work
         rdf:about="">
        <dc:format>image/svg+xml</dc:format>
        <dc:type
           rdf:resource="http://purl.org/dc/dcmitype/StillImage" />
        <dc:title></dc:title>
      </cc:Work>
    </rdf:RDF>
  </metadata>
  <defs
     id="defs71" />
  <sodipodi:namedview
     pagecolor="#ffffff"
     bordercolor="#666666"
     borderopacity="1"
     objecttolerance="10"
     gridtolerance="10"
     guidetolerance="10"
     inkscape:pageopacity="0"
     inkscape:pageshadow="2"
     inkscape:window-width="727"
     inkscape:window-height="480"
     id="namedview69"
     showgrid="false"
     inkscape:zoom="3.3554502"
     inkscape:cx="11.012006"
     inkscape:cy="35.166667"
     inkscape:window-x="116"
     inkscape:window-y="174"
     inkscape:window-maximized="0"
     inkscape:current-layer="svg67" />
  <g
     id="surface48">
    <path
       style="fill:none;stroke-width:0.751181;stroke-linecap:butt;stroke-linejoin:miter;stroke:rgb(0%,0%,0%);stroke-opacity:1;stroke-miterlimit:4;"
       d="M 165.769531 243.91774 L 165.769531 276.640396 "
       transform="matrix(1,0,0,1,-142.125,-234.499771)"
       id="path2" />
    <path
       style="fill-rule:evenodd;fill:rgb(0%,0%,0%);fill-opacity:1;stroke-width:0.200315;stroke-linecap:butt;stroke-linejoin:miter;stroke:rgb(0%,0%,0%);stroke-opacity:1;stroke-miterlimit:4;"
       d="M 244.820084 -165.769531 L 245.57399 -166.519531 L 242.941177 -165.769531 L 245.57399 -165.015625 Z M 244.820084 -165.769531 "
       transform="matrix(0,1,-1,0,-142.125,-234.499771)"
       id="path4" />
    <path
       style="fill:none;stroke-width:0.751181;stroke-linecap:butt;stroke-linejoin:miter;stroke:rgb(0%,0%,0%);stroke-opacity:1;stroke-miterlimit:4;"
       d="M 165.402344 276.26149 L 206.210938 276.26149 "
       transform="matrix(1,0,0,1,-142.125,-234.499771)"
       id="path6" />
    <path
       style="fill-rule:evenodd;fill:rgb(0%,0%,0%);fill-opacity:1;stroke-width:0.200315;stroke-linecap:butt;stroke-linejoin:miter;stroke:rgb(0%,0%,0%);stroke-opacity:1;stroke-miterlimit:4;"
       d="M -205.308594 -276.26149 L -204.558594 -277.015396 L -207.1875 -276.26149 L -204.558594 -275.51149 Z M -205.308594 -276.26149 "
       transform="matrix(-1,0,0,-1,-142.125,-234.499771)"
       id="path8" />
    <path
       style=" stroke:none;fill-rule:nonzero;fill:rgb(0%,0%,0%);fill-opacity:1;"
       d="M 68.433594 41.484375 C 68.46875 41.339844 68.601563 40.820313 68.992188 40.820313 C 69.019531 40.820313 69.160156 40.820313 69.277344 40.890625 C 69.117188 40.925781 69.011719 41.058594 69.011719 41.199219 C 69.011719 41.289063 69.070313 41.394531 69.222656 41.394531 C 69.347656 41.394531 69.523438 41.296875 69.523438 41.066406 C 69.523438 40.773438 69.195313 40.695313 69 40.695313 C 68.671875 40.695313 68.476563 40.996094 68.40625 41.121094 C 68.265625 40.746094 67.964844 40.695313 67.796875 40.695313 C 67.210938 40.695313 66.882813 41.421875 66.882813 41.5625 C 66.882813 41.625 66.945313 41.625 66.953125 41.625 C 67 41.625 67.015625 41.605469 67.027344 41.5625 C 67.21875 40.960938 67.59375 40.820313 67.789063 40.820313 C 67.894531 40.820313 68.089844 40.871094 68.089844 41.199219 C 68.089844 41.378906 67.992188 41.75 67.789063 42.546875 C 67.699219 42.890625 67.496094 43.132813 67.246094 43.132813 C 67.210938 43.132813 67.085938 43.132813 66.964844 43.058594 C 67.105469 43.023438 67.230469 42.910156 67.230469 42.75 C 67.230469 42.597656 67.105469 42.554688 67.027344 42.554688 C 66.847656 42.554688 66.714844 42.695313 66.714844 42.882813 C 66.714844 43.140625 66.992188 43.253906 67.238281 43.253906 C 67.621094 43.253906 67.824219 42.855469 67.832031 42.828125 C 67.902344 43.035156 68.105469 43.253906 68.441406 43.253906 C 69.027344 43.253906 69.347656 42.527344 69.347656 42.386719 C 69.347656 42.324219 69.300781 42.324219 69.285156 42.324219 C 69.230469 42.324219 69.222656 42.351563 69.203125 42.386719 C 69.019531 42.996094 68.636719 43.132813 68.460938 43.132813 C 68.238281 43.132813 68.152344 42.953125 68.152344 42.757813 C 68.152344 42.636719 68.175781 42.511719 68.238281 42.261719 Z M 68.433594 41.484375 "
       id="path10" />
    <path
       style=" stroke:none;fill-rule:nonzero;fill:rgb(0%,0%,0%);fill-opacity:1;"
       d="M 23.117188 5.824219 C 23.421875 5.496094 23.589844 5.355469 23.792969 5.179688 C 23.792969 5.179688 24.136719 4.878906 24.339844 4.671875 C 24.882813 4.152344 25.003906 3.875 25.003906 3.851563 C 25.003906 3.796875 24.953125 3.796875 24.945313 3.796875 C 24.898438 3.796875 24.890625 3.804688 24.855469 3.859375 C 24.6875 4.132813 24.570313 4.222656 24.4375 4.222656 C 24.296875 4.222656 24.234375 4.132813 24.144531 4.035156 C 24.039063 3.910156 23.941406 3.796875 23.757813 3.796875 C 23.332031 3.796875 23.074219 4.320313 23.074219 4.445313 C 23.074219 4.46875 23.09375 4.503906 23.136719 4.503906 C 23.191406 4.503906 23.199219 4.480469 23.214844 4.445313 C 23.324219 4.175781 23.648438 4.175781 23.695313 4.175781 C 23.808594 4.175781 23.917969 4.214844 24.050781 4.257813 C 24.277344 4.347656 24.339844 4.347656 24.484375 4.347656 C 24.277344 4.585938 23.808594 4.992188 23.703125 5.082031 L 23.191406 5.558594 C 22.808594 5.941406 22.605469 6.257813 22.605469 6.304688 C 22.605469 6.355469 22.667969 6.355469 22.675781 6.355469 C 22.71875 6.355469 22.730469 6.347656 22.765625 6.285156 C 22.898438 6.082031 23.066406 5.929688 23.25 5.929688 C 23.375 5.929688 23.4375 5.984375 23.578125 6.144531 C 23.667969 6.269531 23.773438 6.355469 23.933594 6.355469 C 24.5 6.355469 24.828125 5.640625 24.828125 5.488281 C 24.828125 5.460938 24.800781 5.425781 24.757813 5.425781 C 24.703125 5.425781 24.695313 5.460938 24.679688 5.507813 C 24.546875 5.871094 24.183594 5.976563 23.996094 5.976563 C 23.890625 5.976563 23.78125 5.941406 23.667969 5.90625 C 23.472656 5.835938 23.382813 5.808594 23.269531 5.808594 C 23.261719 5.808594 23.171875 5.808594 23.117188 5.824219 Z M 23.117188 5.824219 "
       id="path12" />
    <path
       style="fill:none;stroke-width:0.751181;stroke-linecap:butt;stroke-linejoin:miter;stroke:rgb(0%,0%,0%);stroke-opacity:1;stroke-miterlimit:4;"
       d="M 165.804688 276.140396 L 189.777344 260.999771 "
       transform="matrix(1,0,0,1,-142.125,-234.499771)"
       id="path14" />
    <path
       style=" stroke:none;fill-rule:nonzero;fill:rgb(0%,0%,0%);fill-opacity:1;"
       d="M 4.226563 27.394531 C 4.210938 27.484375 4.175781 27.617188 4.175781 27.640625 C 4.175781 27.738281 4.253906 27.792969 4.34375 27.792969 C 4.414063 27.792969 4.511719 27.75 4.554688 27.632813 C 4.566406 27.617188 4.75 26.84375 4.777344 26.738281 C 4.820313 26.550781 4.929688 26.164063 4.953125 26.003906 C 4.980469 25.933594 5.140625 25.667969 5.273438 25.542969 C 5.316406 25.507813 5.484375 25.355469 5.726563 25.355469 C 5.875 25.355469 5.957031 25.425781 5.964844 25.425781 C 5.796875 25.453125 5.671875 25.585938 5.671875 25.738281 C 5.671875 25.824219 5.734375 25.933594 5.886719 25.933594 C 6.035156 25.933594 6.195313 25.800781 6.195313 25.597656 C 6.195313 25.402344 6.019531 25.234375 5.726563 25.234375 C 5.363281 25.234375 5.113281 25.507813 5.007813 25.667969 C 4.953125 25.410156 4.75 25.234375 4.484375 25.234375 C 4.226563 25.234375 4.121094 25.453125 4.070313 25.550781 C 3.972656 25.746094 3.902344 26.082031 3.902344 26.101563 C 3.902344 26.164063 3.953125 26.164063 3.960938 26.164063 C 4.023438 26.164063 4.023438 26.152344 4.058594 26.03125 C 4.15625 25.632813 4.273438 25.355469 4.476563 25.355469 C 4.566406 25.355469 4.644531 25.402344 4.644531 25.613281 C 4.644531 25.738281 4.628906 25.800781 4.554688 26.09375 Z M 4.226563 27.394531 "
       id="path16" />
    <path
       style=" stroke:none;fill-rule:nonzero;fill:rgb(0%,0%,0%);fill-opacity:1;"
       d="M 8.042969 26.5 C 8.042969 25.578125 8.503906 25.339844 8.804688 25.339844 C 8.859375 25.339844 9.210938 25.347656 9.40625 25.550781 C 9.175781 25.570313 9.140625 25.738281 9.140625 25.808594 C 9.140625 25.960938 9.246094 26.066406 9.398438 26.066406 C 9.550781 26.066406 9.664063 25.976563 9.664063 25.800781 C 9.664063 25.417969 9.230469 25.195313 8.796875 25.195313 C 8.085938 25.195313 7.574219 25.808594 7.574219 26.507813 C 7.574219 27.234375 8.132813 27.792969 8.789063 27.792969 C 9.539063 27.792969 9.726563 27.109375 9.726563 27.058594 C 9.726563 27.003906 9.664063 27.003906 9.648438 27.003906 C 9.601563 27.003906 9.585938 27.023438 9.574219 27.058594 C 9.417969 27.582031 9.042969 27.652344 8.839844 27.652344 C 8.539063 27.652344 8.042969 27.410156 8.042969 26.5 Z M 8.042969 26.5 "
       id="path18" />
    <path
       style=" stroke:none;fill-rule:nonzero;fill:rgb(0%,0%,0%);fill-opacity:1;"
       d="M 12.546875 26.515625 C 12.546875 25.800781 11.988281 25.195313 11.304688 25.195313 C 10.597656 25.195313 10.046875 25.816406 10.046875 26.515625 C 10.046875 27.253906 10.632813 27.792969 11.296875 27.792969 C 11.980469 27.792969 12.546875 27.234375 12.546875 26.515625 Z M 11.304688 27.652344 C 11.058594 27.652344 10.808594 27.535156 10.660156 27.269531 C 10.519531 27.023438 10.519531 26.675781 10.519531 26.472656 C 10.519531 26.25 10.519531 25.949219 10.652344 25.703125 C 10.800781 25.445313 11.066406 25.320313 11.296875 25.320313 C 11.546875 25.320313 11.785156 25.445313 11.933594 25.691406 C 12.085938 25.933594 12.085938 26.261719 12.085938 26.472656 C 12.085938 26.675781 12.085938 26.988281 11.960938 27.234375 C 11.828125 27.492188 11.582031 27.652344 11.304688 27.652344 Z M 11.304688 27.652344 "
       id="path20" />
    <path
       style=" stroke:none;fill-rule:nonzero;fill:rgb(0%,0%,0%);fill-opacity:1;"
       d="M 13.890625 26.632813 C 14.015625 26.660156 14.476563 26.746094 14.476563 27.15625 C 14.476563 27.4375 14.28125 27.667969 13.839844 27.667969 C 13.359375 27.667969 13.15625 27.351563 13.050781 26.863281 C 13.03125 26.792969 13.03125 26.773438 12.96875 26.773438 C 12.898438 26.773438 12.898438 26.808594 12.898438 26.90625 L 12.898438 27.660156 C 12.898438 27.757813 12.898438 27.792969 12.960938 27.792969 C 12.988281 27.792969 12.996094 27.785156 13.101563 27.675781 C 13.113281 27.667969 13.113281 27.660156 13.21875 27.554688 C 13.464844 27.785156 13.722656 27.792969 13.839844 27.792969 C 14.484375 27.792969 14.75 27.410156 14.75 27.003906 C 14.75 26.710938 14.582031 26.535156 14.511719 26.472656 C 14.324219 26.285156 14.105469 26.242188 13.863281 26.199219 C 13.546875 26.136719 13.171875 26.066406 13.171875 25.738281 C 13.171875 25.535156 13.316406 25.304688 13.800781 25.304688 C 14.421875 25.304688 14.457031 25.816406 14.46875 25.984375 C 14.46875 26.039063 14.519531 26.039063 14.527344 26.039063 C 14.609375 26.039063 14.609375 26.011719 14.609375 25.90625 L 14.609375 25.332031 C 14.609375 25.242188 14.609375 25.195313 14.546875 25.195313 C 14.519531 25.195313 14.503906 25.195313 14.429688 25.269531 C 14.414063 25.285156 14.359375 25.339844 14.332031 25.355469 C 14.121094 25.195313 13.890625 25.195313 13.800781 25.195313 C 13.113281 25.195313 12.898438 25.578125 12.898438 25.898438 C 12.898438 26.09375 12.988281 26.25 13.136719 26.375 C 13.324219 26.515625 13.484375 26.550781 13.890625 26.632813 Z M 13.890625 26.632813 "
       id="path22" />
    <path
       style=" stroke:none;fill-rule:nonzero;fill:rgb(0%,0%,0%);fill-opacity:1;"
       d="M 16.808594 29.085938 C 16.808594 29.066406 16.808594 29.058594 16.710938 28.960938 C 16.011719 28.253906 15.828125 27.179688 15.828125 26.3125 C 15.828125 25.332031 16.039063 24.347656 16.738281 23.648438 C 16.808594 23.574219 16.808594 23.566406 16.808594 23.550781 C 16.808594 23.503906 16.792969 23.488281 16.757813 23.488281 C 16.695313 23.488281 16.191406 23.878906 15.851563 24.59375 C 15.570313 25.214844 15.5 25.84375 15.5 26.3125 C 15.5 26.757813 15.5625 27.4375 15.871094 28.085938 C 16.214844 28.777344 16.695313 29.148438 16.757813 29.148438 C 16.792969 29.148438 16.808594 29.128906 16.808594 29.085938 Z M 16.808594 29.085938 "
       id="path24" />
    <path
       style=" stroke:none;fill-rule:nonzero;fill:rgb(0%,0%,0%);fill-opacity:1;"
       d="M 19.707031 24.90625 C 19.707031 24.53125 19.609375 23.746094 19.03125 23.746094 C 18.246094 23.746094 17.375 25.339844 17.375 26.632813 C 17.375 27.164063 17.535156 27.792969 18.050781 27.792969 C 18.847656 27.792969 19.707031 26.171875 19.707031 24.90625 Z M 17.96875 25.675781 C 18.066406 25.320313 18.183594 24.871094 18.414063 24.460938 C 18.5625 24.1875 18.765625 23.867188 19.023438 23.867188 C 19.296875 23.867188 19.335938 24.230469 19.335938 24.550781 C 19.335938 24.835938 19.289063 25.117188 19.15625 25.675781 Z M 19.105469 25.863281 C 19.042969 26.117188 18.925781 26.597656 18.707031 27.003906 C 18.511719 27.394531 18.296875 27.667969 18.050781 27.667969 C 17.863281 27.667969 17.75 27.5 17.75 26.976563 C 17.75 26.738281 17.785156 26.410156 17.925781 25.863281 Z M 19.105469 25.863281 "
       id="path26" />
    <path
       style=" stroke:none;fill-rule:nonzero;fill:rgb(0%,0%,0%);fill-opacity:1;"
       d="M 21.574219 26.3125 C 21.574219 25.878906 21.515625 25.195313 21.203125 24.550781 C 20.867188 23.859375 20.378906 23.488281 20.328125 23.488281 C 20.292969 23.488281 20.265625 23.515625 20.265625 23.550781 C 20.265625 23.566406 20.265625 23.574219 20.371094 23.683594 C 20.929688 24.242188 21.25 25.136719 21.25 26.3125 C 21.25 27.289063 21.042969 28.28125 20.34375 28.988281 C 20.265625 29.058594 20.265625 29.066406 20.265625 29.085938 C 20.265625 29.121094 20.292969 29.148438 20.328125 29.148438 C 20.378906 29.148438 20.894531 28.757813 21.222656 28.039063 C 21.515625 27.421875 21.574219 26.792969 21.574219 26.3125 Z M 21.574219 26.3125 "
       id="path28" />
    <path
       style=" stroke:none;fill-rule:nonzero;fill:rgb(0%,0%,0%);fill-opacity:1;"
       d="M 27.679688 47.457031 C 27.664063 47.546875 27.625 47.679688 27.625 47.707031 C 27.625 47.804688 27.707031 47.855469 27.796875 47.855469 C 27.867188 47.855469 27.964844 47.8125 28.007813 47.699219 C 28.015625 47.679688 28.203125 46.910156 28.230469 46.804688 C 28.273438 46.617188 28.378906 46.226563 28.40625 46.066406 C 28.433594 45.996094 28.59375 45.730469 28.726563 45.605469 C 28.769531 45.570313 28.9375 45.421875 29.175781 45.421875 C 29.328125 45.421875 29.40625 45.492188 29.417969 45.492188 C 29.246094 45.519531 29.125 45.652344 29.125 45.800781 C 29.125 45.890625 29.1875 45.996094 29.335938 45.996094 C 29.488281 45.996094 29.644531 45.863281 29.644531 45.660156 C 29.644531 45.464844 29.46875 45.296875 29.175781 45.296875 C 28.8125 45.296875 28.566406 45.570313 28.460938 45.730469 C 28.40625 45.472656 28.203125 45.296875 27.9375 45.296875 C 27.679688 45.296875 27.574219 45.519531 27.519531 45.617188 C 27.421875 45.8125 27.351563 46.148438 27.351563 46.164063 C 27.351563 46.226563 27.40625 46.226563 27.414063 46.226563 C 27.476563 46.226563 27.476563 46.21875 27.511719 46.09375 C 27.609375 45.695313 27.722656 45.421875 27.929688 45.421875 C 28.015625 45.421875 28.097656 45.464844 28.097656 45.679688 C 28.097656 45.800781 28.078125 45.863281 28.007813 46.15625 Z M 27.679688 47.457031 "
       id="path30" />
    <path
       style=" stroke:none;fill-rule:nonzero;fill:rgb(0%,0%,0%);fill-opacity:1;"
       d="M 32.007813 46.695313 C 32.132813 46.722656 32.59375 46.8125 32.59375 47.21875 C 32.59375 47.503906 32.398438 47.734375 31.957031 47.734375 C 31.476563 47.734375 31.273438 47.414063 31.167969 46.925781 C 31.148438 46.855469 31.148438 46.839844 31.085938 46.839844 C 31.015625 46.839844 31.015625 46.875 31.015625 46.972656 L 31.015625 47.722656 C 31.015625 47.820313 31.015625 47.855469 31.078125 47.855469 C 31.105469 47.855469 31.113281 47.847656 31.21875 47.742188 C 31.230469 47.734375 31.230469 47.722656 31.335938 47.617188 C 31.582031 47.847656 31.839844 47.855469 31.957031 47.855469 C 32.601563 47.855469 32.867188 47.476563 32.867188 47.070313 C 32.867188 46.777344 32.699219 46.597656 32.628906 46.535156 C 32.441406 46.351563 32.222656 46.308594 31.980469 46.261719 C 31.664063 46.199219 31.289063 46.128906 31.289063 45.800781 C 31.289063 45.597656 31.433594 45.367188 31.917969 45.367188 C 32.539063 45.367188 32.574219 45.882813 32.585938 46.050781 C 32.585938 46.101563 32.636719 46.101563 32.644531 46.101563 C 32.726563 46.101563 32.726563 46.078125 32.726563 45.96875 L 32.726563 45.394531 C 32.726563 45.304688 32.726563 45.261719 32.664063 45.261719 C 32.636719 45.261719 32.621094 45.261719 32.546875 45.332031 C 32.53125 45.351563 32.476563 45.402344 32.453125 45.421875 C 32.238281 45.261719 32.007813 45.261719 31.917969 45.261719 C 31.230469 45.261719 31.015625 45.640625 31.015625 45.960938 C 31.015625 46.15625 31.105469 46.316406 31.253906 46.441406 C 31.441406 46.582031 31.601563 46.617188 32.007813 46.695313 Z M 32.007813 46.695313 "
       id="path32" />
    <path
       style=" stroke:none;fill-rule:nonzero;fill:rgb(0%,0%,0%);fill-opacity:1;"
       d="M 34.058594 45.296875 L 33.269531 45.359375 L 33.269531 45.535156 C 33.632813 45.535156 33.6875 45.570313 33.6875 45.847656 L 33.6875 47.371094 C 33.6875 47.617188 33.625 47.617188 33.242188 47.617188 L 33.242188 47.796875 C 33.421875 47.785156 33.730469 47.777344 33.863281 47.777344 C 34.066406 47.777344 34.261719 47.785156 34.457031 47.796875 L 34.457031 47.617188 C 34.078125 47.617188 34.058594 47.589844 34.058594 47.371094 Z M 34.078125 44.3125 C 34.078125 44.136719 33.945313 44.011719 33.785156 44.011719 C 33.605469 44.011719 33.484375 44.164063 33.484375 44.3125 C 33.484375 44.464844 33.605469 44.613281 33.785156 44.613281 C 33.945313 44.613281 34.078125 44.492188 34.078125 44.3125 Z M 34.078125 44.3125 "
       id="path34" />
    <path
       style=" stroke:none;fill-rule:nonzero;fill:rgb(0%,0%,0%);fill-opacity:1;"
       d="M 35.246094 45.855469 L 35.246094 47.371094 C 35.246094 47.617188 35.183594 47.617188 34.804688 47.617188 L 34.804688 47.796875 C 35.007813 47.785156 35.292969 47.777344 35.449219 47.777344 C 35.59375 47.777344 35.886719 47.785156 36.078125 47.796875 L 36.078125 47.617188 C 35.699219 47.617188 35.636719 47.617188 35.636719 47.371094 L 35.636719 46.324219 C 35.636719 45.738281 36.042969 45.421875 36.398438 45.421875 C 36.761719 45.421875 36.824219 45.722656 36.824219 46.050781 L 36.824219 47.371094 C 36.824219 47.617188 36.761719 47.617188 36.382813 47.617188 L 36.382813 47.796875 C 36.574219 47.785156 36.867188 47.777344 37.019531 47.777344 C 37.160156 47.777344 37.460938 47.785156 37.648438 47.796875 L 37.648438 47.617188 C 37.355469 47.617188 37.214844 47.617188 37.214844 47.449219 L 37.214844 46.367188 C 37.214844 45.882813 37.214844 45.714844 37.035156 45.507813 C 36.957031 45.410156 36.769531 45.296875 36.441406 45.296875 C 36.027344 45.296875 35.761719 45.535156 35.601563 45.890625 L 35.601563 45.296875 L 34.804688 45.359375 L 34.804688 45.535156 C 35.203125 45.535156 35.246094 45.570313 35.246094 45.855469 Z M 35.246094 45.855469 "
       id="path36" />
    <path
       style=" stroke:none;fill-rule:nonzero;fill:rgb(0%,0%,0%);fill-opacity:1;"
       d="M 39.632813 49.148438 C 39.632813 49.132813 39.632813 49.125 39.535156 49.027344 C 38.835938 48.316406 38.652344 47.246094 38.652344 46.378906 C 38.652344 45.394531 38.863281 44.410156 39.5625 43.710938 C 39.632813 43.640625 39.632813 43.632813 39.632813 43.613281 C 39.632813 43.570313 39.617188 43.550781 39.582031 43.550781 C 39.519531 43.550781 39.015625 43.941406 38.675781 44.660156 C 38.394531 45.277344 38.324219 45.90625 38.324219 46.378906 C 38.324219 46.820313 38.386719 47.503906 38.695313 48.148438 C 39.039063 48.839844 39.519531 49.210938 39.582031 49.210938 C 39.617188 49.210938 39.632813 49.195313 39.632813 49.148438 Z M 39.632813 49.148438 "
       id="path38" />
    <path
       style=" stroke:none;fill-rule:nonzero;fill:rgb(0%,0%,0%);fill-opacity:1;"
       d="M 42.53125 44.96875 C 42.53125 44.597656 42.433594 43.808594 41.859375 43.808594 C 41.070313 43.808594 40.199219 45.402344 40.199219 46.695313 C 40.199219 47.226563 40.359375 47.855469 40.875 47.855469 C 41.671875 47.855469 42.53125 46.234375 42.53125 44.96875 Z M 40.792969 45.738281 C 40.890625 45.386719 41.007813 44.933594 41.238281 44.527344 C 41.386719 44.25 41.589844 43.933594 41.847656 43.933594 C 42.125 43.933594 42.160156 44.296875 42.160156 44.613281 C 42.160156 44.898438 42.113281 45.183594 41.980469 45.738281 Z M 41.929688 45.925781 C 41.867188 46.183594 41.75 46.660156 41.53125 47.070313 C 41.335938 47.457031 41.121094 47.734375 40.875 47.734375 C 40.6875 47.734375 40.574219 47.566406 40.574219 47.042969 C 40.574219 46.804688 40.609375 46.476563 40.75 45.925781 Z M 41.929688 45.925781 "
       id="path40" />
    <path
       style=" stroke:none;fill-rule:nonzero;fill:rgb(0%,0%,0%);fill-opacity:1;"
       d="M 44.398438 46.378906 C 44.398438 45.945313 44.335938 45.261719 44.027344 44.613281 C 43.691406 43.925781 43.203125 43.550781 43.152344 43.550781 C 43.117188 43.550781 43.089844 43.578125 43.089844 43.613281 C 43.089844 43.632813 43.089844 43.640625 43.195313 43.746094 C 43.753906 44.304688 44.070313 45.199219 44.070313 46.378906 C 44.070313 47.351563 43.867188 48.34375 43.167969 49.054688 C 43.089844 49.125 43.089844 49.132813 43.089844 49.148438 C 43.089844 49.1875 43.117188 49.210938 43.152344 49.210938 C 43.203125 49.210938 43.71875 48.824219 44.046875 48.105469 C 44.335938 47.484375 44.398438 46.855469 44.398438 46.378906 Z M 44.398438 46.378906 "
       id="path42" />
    <path
       style=" stroke:none;fill-rule:nonzero;fill:rgb(0%,0%,0%);fill-opacity:1;"
       d="M 46.566406 46.5625 C 46.566406 45.640625 47.027344 45.402344 47.332031 45.402344 C 47.382813 45.402344 47.738281 45.410156 47.933594 45.617188 C 47.703125 45.632813 47.667969 45.800781 47.667969 45.871094 C 47.667969 46.023438 47.773438 46.128906 47.921875 46.128906 C 48.074219 46.128906 48.1875 46.042969 48.1875 45.863281 C 48.1875 45.484375 47.753906 45.261719 47.320313 45.261719 C 46.613281 45.261719 46.097656 45.871094 46.097656 46.574219 C 46.097656 47.300781 46.65625 47.855469 47.3125 47.855469 C 48.066406 47.855469 48.25 47.175781 48.25 47.121094 C 48.25 47.070313 48.1875 47.070313 48.171875 47.070313 C 48.128906 47.070313 48.109375 47.085938 48.101563 47.121094 C 47.941406 47.644531 47.570313 47.714844 47.367188 47.714844 C 47.0625 47.714844 46.566406 47.476563 46.566406 46.5625 Z M 46.566406 46.5625 "
       id="path44" />
    <path
       style=" stroke:none;fill-rule:nonzero;fill:rgb(0%,0%,0%);fill-opacity:1;"
       d="M 51.070313 46.582031 C 51.070313 45.863281 50.511719 45.261719 49.832031 45.261719 C 49.121094 45.261719 48.574219 45.882813 48.574219 46.582031 C 48.574219 47.316406 49.15625 47.855469 49.824219 47.855469 C 50.503906 47.855469 51.070313 47.300781 51.070313 46.582031 Z M 49.832031 47.714844 C 49.582031 47.714844 49.335938 47.601563 49.183594 47.335938 C 49.042969 47.085938 49.042969 46.742188 49.042969 46.535156 C 49.042969 46.316406 49.042969 46.015625 49.175781 45.765625 C 49.328125 45.507813 49.59375 45.386719 49.824219 45.386719 C 50.070313 45.386719 50.308594 45.507813 50.460938 45.757813 C 50.609375 45.996094 50.609375 46.324219 50.609375 46.535156 C 50.609375 46.742188 50.609375 47.050781 50.488281 47.300781 C 50.355469 47.554688 50.105469 47.714844 49.832031 47.714844 Z M 49.832031 47.714844 "
       id="path46" />
    <path
       style=" stroke:none;fill-rule:nonzero;fill:rgb(0%,0%,0%);fill-opacity:1;"
       d="M 52.417969 46.695313 C 52.539063 46.722656 53 46.8125 53 47.21875 C 53 47.503906 52.804688 47.734375 52.363281 47.734375 C 51.882813 47.734375 51.679688 47.414063 51.574219 46.925781 C 51.558594 46.855469 51.558594 46.839844 51.496094 46.839844 C 51.425781 46.839844 51.425781 46.875 51.425781 46.972656 L 51.425781 47.722656 C 51.425781 47.820313 51.425781 47.855469 51.484375 47.855469 C 51.511719 47.855469 51.519531 47.847656 51.628906 47.742188 C 51.636719 47.734375 51.636719 47.722656 51.742188 47.617188 C 51.992188 47.847656 52.246094 47.855469 52.363281 47.855469 C 53.007813 47.855469 53.277344 47.476563 53.277344 47.070313 C 53.277344 46.777344 53.105469 46.597656 53.035156 46.535156 C 52.851563 46.351563 52.628906 46.308594 52.390625 46.261719 C 52.070313 46.199219 51.699219 46.128906 51.699219 45.800781 C 51.699219 45.597656 51.839844 45.367188 52.328125 45.367188 C 52.949219 45.367188 52.984375 45.882813 52.992188 46.050781 C 52.992188 46.101563 53.046875 46.101563 53.054688 46.101563 C 53.132813 46.101563 53.132813 46.078125 53.132813 45.96875 L 53.132813 45.394531 C 53.132813 45.304688 53.132813 45.261719 53.070313 45.261719 C 53.046875 45.261719 53.027344 45.261719 52.957031 45.332031 C 52.9375 45.351563 52.886719 45.402344 52.859375 45.421875 C 52.644531 45.261719 52.417969 45.261719 52.328125 45.261719 C 51.636719 45.261719 51.425781 45.640625 51.425781 45.960938 C 51.425781 46.15625 51.511719 46.316406 51.664063 46.441406 C 51.847656 46.582031 52.007813 46.617188 52.417969 46.695313 Z M 52.417969 46.695313 "
       id="path48" />
    <path
       style=" stroke:none;fill-rule:nonzero;fill:rgb(0%,0%,0%);fill-opacity:1;"
       d="M 55.335938 49.148438 C 55.335938 49.132813 55.335938 49.125 55.238281 49.027344 C 54.539063 48.316406 54.351563 47.246094 54.351563 46.378906 C 54.351563 45.394531 54.5625 44.410156 55.265625 43.710938 C 55.335938 43.640625 55.335938 43.632813 55.335938 43.613281 C 55.335938 43.570313 55.316406 43.550781 55.28125 43.550781 C 55.21875 43.550781 54.714844 43.941406 54.378906 44.660156 C 54.09375 45.277344 54.023438 45.90625 54.023438 46.378906 C 54.023438 46.820313 54.085938 47.503906 54.394531 48.148438 C 54.742188 48.839844 55.21875 49.210938 55.28125 49.210938 C 55.316406 49.210938 55.335938 49.195313 55.335938 49.148438 Z M 55.335938 49.148438 "
       id="path50" />
    <path
       style=" stroke:none;fill-rule:nonzero;fill:rgb(0%,0%,0%);fill-opacity:1;"
       d="M 58.136719 44.011719 C 58.136719 43.996094 58.15625 43.933594 58.15625 43.933594 C 58.15625 43.925781 58.15625 43.871094 58.085938 43.871094 C 58.03125 43.871094 58.023438 43.886719 57.996094 43.984375 L 57.667969 45.289063 C 56.773438 45.324219 55.941406 46.066406 55.941406 46.839844 C 55.941406 47.378906 56.339844 47.820313 57.03125 47.867188 C 56.984375 48.035156 56.941406 48.21875 56.898438 48.398438 C 56.828125 48.664063 56.773438 48.875 56.773438 48.894531 C 56.773438 48.945313 56.816406 48.957031 56.84375 48.957031 C 56.871094 48.957031 56.878906 48.945313 56.898438 48.929688 C 56.90625 48.921875 56.941406 48.785156 56.960938 48.707031 L 57.171875 47.867188 C 58.085938 47.832031 58.910156 47.070313 58.910156 46.316406 C 58.910156 45.863281 58.605469 45.351563 57.820313 45.289063 Z M 57.058594 47.742188 C 56.71875 47.722656 56.3125 47.519531 56.3125 46.960938 C 56.3125 46.28125 56.800781 45.492188 57.640625 45.410156 Z M 57.785156 45.410156 C 58.21875 45.4375 58.535156 45.695313 58.535156 46.191406 C 58.535156 46.863281 58.050781 47.671875 57.207031 47.742188 Z M 57.785156 45.410156 "
       id="path52" />
    <path
       style=" stroke:none;fill-rule:nonzero;fill:rgb(0%,0%,0%);fill-opacity:1;"
       d="M 60.660156 46.378906 C 60.660156 45.945313 60.597656 45.261719 60.289063 44.613281 C 59.953125 43.925781 59.464844 43.550781 59.414063 43.550781 C 59.378906 43.550781 59.351563 43.578125 59.351563 43.613281 C 59.351563 43.632813 59.351563 43.640625 59.457031 43.746094 C 60.015625 44.304688 60.332031 45.199219 60.332031 46.378906 C 60.332031 47.351563 60.128906 48.34375 59.429688 49.054688 C 59.351563 49.125 59.351563 49.132813 59.351563 49.148438 C 59.351563 49.1875 59.378906 49.210938 59.414063 49.210938 C 59.464844 49.210938 59.980469 48.824219 60.308594 48.105469 C 60.597656 47.484375 60.660156 46.855469 60.660156 46.378906 Z M 60.660156 46.378906 "
       id="path54" />
    <path
       style="fill:none;stroke-width:0.75;stroke-linecap:butt;stroke-linejoin:miter;stroke:rgb(0%,0%,0%);stroke-opacity:1;stroke-miterlimit:4;"
       d="M 165.992188 269.745865 C 167.71875 270.495865 169.214844 271.441177 169.9375 273.210709 "
       transform="matrix(1,0,0,1,-142.125,-234.499771)"
       id="path56" />
    <path
       style=" stroke:none;fill-rule:nonzero;fill:rgb(0%,0%,0%);fill-opacity:1;"
       d="M 40.191406 25.09375 C 40.171875 25.183594 40.136719 25.316406 40.136719 25.34375 C 40.136719 25.441406 40.21875 25.492188 40.304688 25.492188 C 40.378906 25.492188 40.472656 25.449219 40.519531 25.335938 C 40.527344 25.316406 40.714844 24.546875 40.738281 24.441406 C 40.785156 24.253906 40.890625 23.863281 40.917969 23.703125 C 40.945313 23.632813 41.101563 23.367188 41.234375 23.242188 C 41.28125 23.207031 41.449219 23.058594 41.6875 23.058594 C 41.839844 23.058594 41.917969 23.128906 41.925781 23.128906 C 41.757813 23.15625 41.636719 23.289063 41.636719 23.4375 C 41.636719 23.527344 41.695313 23.632813 41.847656 23.632813 C 42 23.632813 42.15625 23.5 42.15625 23.296875 C 42.15625 23.101563 41.980469 22.933594 41.6875 22.933594 C 41.324219 22.933594 41.078125 23.207031 40.96875 23.367188 C 40.917969 23.109375 40.714844 22.933594 40.449219 22.933594 C 40.191406 22.933594 40.085938 23.15625 40.03125 23.253906 C 39.933594 23.449219 39.863281 23.785156 39.863281 23.800781 C 39.863281 23.863281 39.917969 23.863281 39.925781 23.863281 C 39.988281 23.863281 39.988281 23.855469 40.023438 23.730469 C 40.121094 23.332031 40.234375 23.058594 40.4375 23.058594 C 40.527344 23.058594 40.605469 23.101563 40.605469 23.316406 C 40.605469 23.4375 40.589844 23.5 40.519531 23.792969 Z M 40.191406 25.09375 "
       id="path58" />
    <path
       style=" stroke:none;fill-rule:nonzero;fill:rgb(0%,0%,0%);fill-opacity:1;"
       d="M 44.441406 24.792969 C 44.457031 24.738281 44.457031 24.730469 44.457031 24.703125 C 44.457031 24.625 44.394531 24.578125 44.324219 24.578125 C 44.28125 24.578125 44.210938 24.597656 44.164063 24.667969 C 44.148438 24.695313 44.121094 24.816406 44.105469 24.898438 L 44.015625 25.226563 C 43.996094 25.324219 43.875 25.820313 43.855469 25.863281 C 43.855469 25.863281 43.679688 26.207031 43.378906 26.207031 C 43.101563 26.207031 43.101563 25.953125 43.101563 25.882813 C 43.101563 25.667969 43.191406 25.421875 43.316406 25.109375 C 43.359375 24.988281 43.378906 24.941406 43.378906 24.871094 C 43.378906 24.683594 43.21875 24.535156 43.003906 24.535156 C 42.605469 24.535156 42.429688 25.074219 42.429688 25.144531 C 42.429688 25.191406 42.484375 25.191406 42.5 25.191406 C 42.554688 25.191406 42.554688 25.171875 42.570313 25.128906 C 42.667969 24.800781 42.835938 24.648438 42.996094 24.648438 C 43.058594 24.648438 43.09375 24.695313 43.09375 24.78125 C 43.09375 24.878906 43.058594 24.960938 43.039063 25.011719 C 42.84375 25.5 42.808594 25.640625 42.808594 25.820313 C 42.808594 25.882813 42.808594 26.066406 42.960938 26.199219 C 43.085938 26.296875 43.253906 26.316406 43.359375 26.316406 C 43.519531 26.316406 43.660156 26.261719 43.785156 26.136719 C 43.742188 26.359375 43.695313 26.527344 43.527344 26.722656 C 43.421875 26.847656 43.261719 26.96875 43.050781 26.96875 C 43.023438 26.96875 42.835938 26.96875 42.757813 26.847656 C 42.96875 26.820313 42.96875 26.632813 42.96875 26.625 C 42.96875 26.5 42.855469 26.472656 42.820313 26.472656 C 42.722656 26.472656 42.589844 26.554688 42.589844 26.742188 C 42.589844 26.933594 42.773438 27.085938 43.058594 27.085938 C 43.457031 27.085938 43.945313 26.777344 44.066406 26.28125 Z M 44.441406 24.792969 "
       id="path60" />
    <path
       style=" stroke:none;fill-rule:nonzero;fill:rgb(0%,0%,0%);fill-opacity:1;"
       d="M 27.753906 30.964844 L 28.699219 30.964844 C 28.769531 30.964844 28.976563 30.964844 28.976563 30.769531 C 28.976563 30.636719 28.859375 30.636719 28.746094 30.636719 L 27.167969 30.636719 C 27.050781 30.636719 26.832031 30.636719 26.582031 30.902344 C 26.398438 31.105469 26.238281 31.378906 26.238281 31.40625 C 26.238281 31.417969 26.238281 31.46875 26.308594 31.46875 C 26.351563 31.46875 26.363281 31.441406 26.398438 31.398438 C 26.671875 30.964844 27 30.964844 27.113281 30.964844 L 27.582031 30.964844 L 27.035156 32.78125 C 27.007813 32.84375 26.972656 32.964844 26.972656 32.984375 C 26.972656 33.046875 27.015625 33.144531 27.140625 33.144531 C 27.328125 33.144531 27.355469 32.984375 27.371094 32.894531 Z M 27.753906 30.964844 "
       id="path62" />
    <path
       style=" stroke:none;fill-rule:nonzero;fill:rgb(0%,0%,0%);fill-opacity:1;"
       d="M 30.753906 32.433594 C 30.769531 32.378906 30.769531 32.371094 30.769531 32.34375 C 30.769531 32.265625 30.707031 32.21875 30.636719 32.21875 C 30.59375 32.21875 30.523438 32.238281 30.476563 32.308594 C 30.460938 32.335938 30.433594 32.457031 30.417969 32.539063 L 30.328125 32.867188 C 30.308594 32.964844 30.1875 33.460938 30.167969 33.503906 C 30.167969 33.503906 29.992188 33.847656 29.691406 33.847656 C 29.414063 33.847656 29.414063 33.59375 29.414063 33.523438 C 29.414063 33.308594 29.503906 33.0625 29.628906 32.75 C 29.671875 32.628906 29.691406 32.582031 29.691406 32.511719 C 29.691406 32.324219 29.53125 32.175781 29.316406 32.175781 C 28.917969 32.175781 28.742188 32.714844 28.742188 32.785156 C 28.742188 32.832031 28.796875 32.832031 28.8125 32.832031 C 28.867188 32.832031 28.867188 32.8125 28.882813 32.769531 C 28.980469 32.441406 29.148438 32.289063 29.308594 32.289063 C 29.371094 32.289063 29.40625 32.335938 29.40625 32.421875 C 29.40625 32.519531 29.371094 32.601563 29.351563 32.652344 C 29.15625 33.140625 29.121094 33.28125 29.121094 33.460938 C 29.121094 33.523438 29.121094 33.707031 29.273438 33.839844 C 29.398438 33.9375 29.566406 33.957031 29.671875 33.957031 C 29.832031 33.957031 29.972656 33.902344 30.097656 33.777344 C 30.054688 34 30.007813 34.167969 29.839844 34.363281 C 29.734375 34.488281 29.574219 34.609375 29.363281 34.609375 C 29.335938 34.609375 29.148438 34.609375 29.070313 34.488281 C 29.28125 34.460938 29.28125 34.273438 29.28125 34.265625 C 29.28125 34.140625 29.167969 34.113281 29.132813 34.113281 C 29.035156 34.113281 28.902344 34.195313 28.902344 34.382813 C 28.902344 34.574219 29.085938 34.726563 29.371094 34.726563 C 29.769531 34.726563 30.257813 34.417969 30.378906 33.921875 Z M 30.753906 32.433594 "
       id="path64" />
  </g>
</svg>
