<?xml version="1.0" encoding="UTF-8" standalone="no"?>
<svg
   xmlns:dc="http://purl.org/dc/elements/1.1/"
   xmlns:cc="http://creativecommons.org/ns#"
   xmlns:rdf="http://www.w3.org/1999/02/22-rdf-syntax-ns#"
   xmlns:svg="http://www.w3.org/2000/svg"
   xmlns="http://www.w3.org/2000/svg"
   xmlns:sodipodi="http://sodipodi.sourceforge.net/DTD/sodipodi-0.dtd"
   xmlns:inkscape="http://www.inkscape.org/namespaces/inkscape"
   width="55.25pt"
   height="47.25pt"
   viewBox="0 0 55.25 47.25"
   version="1.2"
   id="svg42"
   sodipodi:docname="224.svg"
   inkscape:version="0.92.4 (5da689c313, 2019-01-14)">
  <metadata
     id="metadata46">
    <rdf:RDF>
      <cc:Work
         rdf:about="">
        <dc:format>image/svg+xml</dc:format>
        <dc:type
           rdf:resource="http://purl.org/dc/dcmitype/StillImage" />
        <dc:title></dc:title>
      </cc:Work>
    </rdf:RDF>
  </metadata>
  <sodipodi:namedview
     pagecolor="#ffffff"
     bordercolor="#666666"
     borderopacity="1"
     objecttolerance="10"
     gridtolerance="10"
     guidetolerance="10"
     inkscape:pageopacity="0"
     inkscape:pageshadow="2"
     inkscape:window-width="727"
     inkscape:window-height="480"
     id="namedview44"
     showgrid="false"
     inkscape:zoom="3.7460317"
     inkscape:cx="36.833333"
     inkscape:cy="31.5"
     inkscape:window-x="0"
     inkscape:window-y="0"
     inkscape:window-maximized="0"
     inkscape:current-layer="svg42" />
  <defs
     id="defs5">
    <clipPath
       id="clip1">
      <path
         d="M 8 34 L 19 34 L 19 47.25 L 8 47.25 Z M 8 34 "
         id="path2" />
    </clipPath>
  </defs>
  <g
     id="surface40">
    <path
       style="fill:none;stroke-width:0.751181;stroke-linecap:butt;stroke-linejoin:miter;stroke:rgb(0%,0%,0%);stroke-opacity:1;stroke-miterlimit:4;"
       d="M 165.769531 243.91774 L 165.769531 276.640396 "
       transform="matrix(1,0,0,1,-159,-233.499771)"
       id="path7" />
    <path
       style="fill-rule:evenodd;fill:rgb(0%,0%,0%);fill-opacity:1;stroke-width:0.200315;stroke-linecap:butt;stroke-linejoin:miter;stroke:rgb(0%,0%,0%);stroke-opacity:1;stroke-miterlimit:4;"
       d="M 244.820084 -165.769531 L 245.57399 -166.519531 L 242.941177 -165.769531 L 245.57399 -165.015625 Z M 244.820084 -165.769531 "
       transform="matrix(0,1,-1,0,-159,-233.499771)"
       id="path9" />
    <path
       style="fill:none;stroke-width:0.751181;stroke-linecap:butt;stroke-linejoin:miter;stroke:rgb(0%,0%,0%);stroke-opacity:1;stroke-miterlimit:4;"
       d="M 165.402344 276.26149 L 206.210938 276.26149 "
       transform="matrix(1,0,0,1,-159,-233.499771)"
       id="path11" />
    <path
       style="fill-rule:evenodd;fill:rgb(0%,0%,0%);fill-opacity:1;stroke-width:0.200315;stroke-linecap:butt;stroke-linejoin:miter;stroke:rgb(0%,0%,0%);stroke-opacity:1;stroke-miterlimit:4;"
       d="M -205.308594 -276.26149 L -204.558594 -277.015396 L -207.1875 -276.26149 L -204.558594 -275.51149 Z M -205.308594 -276.26149 "
       transform="matrix(-1,0,0,-1,-159,-233.499771)"
       id="path13" />
    <path
       style=" stroke:none;fill-rule:nonzero;fill:rgb(0%,0%,0%);fill-opacity:1;"
       d="M 51.558594 42.484375 C 51.59375 42.339844 51.726563 41.820313 52.117188 41.820313 C 52.144531 41.820313 52.285156 41.820313 52.402344 41.890625 C 52.242188 41.925781 52.136719 42.058594 52.136719 42.199219 C 52.136719 42.289063 52.195313 42.394531 52.347656 42.394531 C 52.472656 42.394531 52.648438 42.296875 52.648438 42.066406 C 52.648438 41.773438 52.320313 41.695313 52.125 41.695313 C 51.796875 41.695313 51.601563 41.996094 51.53125 42.121094 C 51.390625 41.746094 51.089844 41.695313 50.921875 41.695313 C 50.335938 41.695313 50.007813 42.421875 50.007813 42.5625 C 50.007813 42.625 50.070313 42.625 50.078125 42.625 C 50.125 42.625 50.140625 42.605469 50.152344 42.5625 C 50.34375 41.960938 50.71875 41.820313 50.914063 41.820313 C 51.019531 41.820313 51.214844 41.871094 51.214844 42.199219 C 51.214844 42.378906 51.117188 42.75 50.914063 43.546875 C 50.824219 43.890625 50.621094 44.132813 50.371094 44.132813 C 50.335938 44.132813 50.210938 44.132813 50.089844 44.058594 C 50.230469 44.023438 50.355469 43.910156 50.355469 43.75 C 50.355469 43.597656 50.230469 43.554688 50.152344 43.554688 C 49.972656 43.554688 49.839844 43.695313 49.839844 43.882813 C 49.839844 44.140625 50.117188 44.253906 50.363281 44.253906 C 50.746094 44.253906 50.949219 43.855469 50.957031 43.828125 C 51.027344 44.035156 51.230469 44.253906 51.566406 44.253906 C 52.152344 44.253906 52.472656 43.527344 52.472656 43.386719 C 52.472656 43.324219 52.425781 43.324219 52.410156 43.324219 C 52.355469 43.324219 52.347656 43.351563 52.328125 43.386719 C 52.144531 43.996094 51.761719 44.132813 51.585938 44.132813 C 51.363281 44.132813 51.277344 43.953125 51.277344 43.757813 C 51.277344 43.636719 51.300781 43.511719 51.363281 43.261719 Z M 51.558594 42.484375 "
       id="path15" />
    <path
       style="fill:none;stroke-width:0.751181;stroke-linecap:butt;stroke-linejoin:miter;stroke:rgb(0%,0%,0%);stroke-opacity:1;stroke-miterlimit:4;"
       d="M 165.804688 276.140396 L 189.777344 260.999771 "
       transform="matrix(1,0,0,1,-159,-233.499771)"
       id="path17" />
    <g
       clip-path="url(#clip1)"
       clip-rule="nonzero"
       id="g21">
      <path
         style="fill:none;stroke-width:0.75;stroke-linecap:butt;stroke-linejoin:miter;stroke:rgb(0%,0%,0%);stroke-opacity:1;stroke-miterlimit:4;"
         d="M 171.925781 272.613052 C 172.769531 273.784927 173.265625 274.91774 173.386719 276.359146 "
         transform="matrix(1,0,0,1,-159,-233.499771)"
         id="path19" />
    </g>
    <path
       style=" stroke:none;fill-rule:nonzero;fill:rgb(0%,0%,0%);fill-opacity:1;"
       d="M 21.417969 36.847656 C 21.417969 36.828125 21.4375 36.765625 21.4375 36.765625 C 21.4375 36.757813 21.4375 36.707031 21.367188 36.707031 C 21.3125 36.707031 21.304688 36.722656 21.277344 36.820313 L 20.949219 38.121094 C 20.054688 38.160156 19.222656 38.902344 19.222656 39.671875 C 19.222656 40.214844 19.621094 40.65625 20.3125 40.699219 C 20.269531 40.867188 20.222656 41.054688 20.179688 41.230469 C 20.109375 41.496094 20.054688 41.710938 20.054688 41.726563 C 20.054688 41.78125 20.101563 41.789063 20.125 41.789063 C 20.152344 41.789063 20.160156 41.78125 20.179688 41.761719 C 20.1875 41.753906 20.222656 41.621094 20.242188 41.542969 L 20.453125 40.699219 C 21.367188 40.664063 22.191406 39.902344 22.191406 39.148438 C 22.191406 38.699219 21.890625 38.183594 21.101563 38.121094 Z M 20.339844 40.578125 C 20.003906 40.558594 19.59375 40.355469 19.59375 39.796875 C 19.59375 39.113281 20.082031 38.328125 20.921875 38.246094 Z M 21.066406 38.246094 C 21.5 38.273438 21.816406 38.53125 21.816406 39.027344 C 21.816406 39.699219 21.332031 40.503906 20.488281 40.578125 Z M 21.066406 38.246094 "
       id="path23" />
    <path
       style=" stroke:none;fill-rule:nonzero;fill:rgb(0%,0%,0%);fill-opacity:1;"
       d="M 12.136719 35.84375 C 12.167969 35.925781 12.210938 36.058594 12.222656 36.082031 C 12.277344 36.164063 12.371094 36.167969 12.445313 36.121094 C 12.507813 36.082031 12.566406 35.992188 12.542969 35.871094 C 12.539063 35.851563 12.289063 35.101563 12.253906 34.996094 C 12.195313 34.8125 12.078125 34.425781 12.015625 34.277344 C 12 34.203125 11.996094 33.894531 12.042969 33.71875 C 12.0625 33.664063 12.125 33.449219 12.328125 33.320313 C 12.453125 33.242188 12.558594 33.257813 12.566406 33.253906 C 12.4375 33.367188 12.402344 33.542969 12.484375 33.671875 C 12.53125 33.746094 12.640625 33.804688 12.769531 33.726563 C 12.894531 33.644531 12.960938 33.449219 12.851563 33.273438 C 12.75 33.109375 12.507813 33.0625 12.261719 33.214844 C 11.953125 33.410156 11.890625 33.773438 11.882813 33.964844 C 11.703125 33.773438 11.433594 33.734375 11.210938 33.875 C 10.992188 34.007813 11.019531 34.253906 11.027344 34.363281 C 11.046875 34.582031 11.164063 34.90625 11.175781 34.917969 C 11.207031 34.972656 11.253906 34.945313 11.257813 34.9375 C 11.3125 34.90625 11.308594 34.898438 11.273438 34.773438 C 11.144531 34.386719 11.09375 34.089844 11.269531 33.984375 C 11.34375 33.9375 11.433594 33.929688 11.546875 34.113281 C 11.613281 34.21875 11.628906 34.277344 11.726563 34.566406 Z M 12.136719 35.84375 "
       id="path25" />
    <path
       style=" stroke:none;fill-rule:nonzero;fill:rgb(0%,0%,0%);fill-opacity:1;"
       d="M 15.40625 32.902344 C 15.523438 32.859375 15.960938 32.691406 16.175781 33.035156 C 16.328125 33.277344 16.285156 33.574219 15.910156 33.808594 C 15.503906 34.0625 15.160156 33.902344 14.8125 33.542969 C 14.761719 33.492188 14.75 33.476563 14.699219 33.511719 C 14.636719 33.546875 14.65625 33.578125 14.707031 33.660156 L 15.109375 34.300781 C 15.160156 34.382813 15.179688 34.414063 15.230469 34.378906 C 15.253906 34.367188 15.257813 34.351563 15.289063 34.207031 C 15.292969 34.195313 15.289063 34.1875 15.320313 34.039063 C 15.652344 34.105469 15.875 33.976563 15.972656 33.914063 C 16.523438 33.570313 16.546875 33.109375 16.332031 32.761719 C 16.175781 32.515625 15.9375 32.453125 15.847656 32.4375 C 15.589844 32.378906 15.378906 32.460938 15.152344 32.546875 C 14.847656 32.664063 14.496094 32.800781 14.320313 32.523438 C 14.214844 32.351563 14.210938 32.082031 14.625 31.824219 C 15.152344 31.492188 15.453125 31.910156 15.550781 32.050781 C 15.578125 32.09375 15.625 32.066406 15.632813 32.0625 C 15.699219 32.019531 15.683594 31.996094 15.628906 31.90625 L 15.324219 31.417969 C 15.277344 31.34375 15.253906 31.304688 15.199219 31.339844 C 15.175781 31.351563 15.164063 31.363281 15.140625 31.460938 C 15.132813 31.484375 15.117188 31.558594 15.105469 31.585938 C 14.839844 31.5625 14.644531 31.6875 14.570313 31.734375 C 13.984375 32.097656 14.003906 32.535156 14.171875 32.804688 C 14.277344 32.96875 14.4375 33.058594 14.628906 33.082031 C 14.863281 33.105469 15.015625 33.050781 15.40625 32.902344 Z M 15.40625 32.902344 "
       id="path27" />
    <path
       style=" stroke:none;fill-rule:nonzero;fill:rgb(0%,0%,0%);fill-opacity:1;"
       d="M 16.402344 30.628906 L 15.765625 31.097656 L 15.859375 31.25 C 16.167969 31.058594 16.230469 31.058594 16.378906 31.292969 L 17.183594 32.585938 C 17.316406 32.792969 17.261719 32.828125 16.941406 33.027344 L 17.035156 33.179688 C 17.179688 33.078125 17.4375 32.90625 17.550781 32.835938 C 17.722656 32.726563 17.894531 32.632813 18.0625 32.535156 L 17.96875 32.386719 C 17.648438 32.589844 17.617188 32.574219 17.5 32.386719 Z M 15.894531 29.785156 C 15.800781 29.636719 15.625 29.601563 15.488281 29.683594 C 15.339844 29.777344 15.3125 29.972656 15.390625 30.101563 C 15.472656 30.226563 15.65625 30.289063 15.808594 30.195313 C 15.941406 30.113281 15.988281 29.9375 15.894531 29.785156 Z M 15.894531 29.785156 "
       id="path29" />
    <path
       style=" stroke:none;fill-rule:nonzero;fill:rgb(0%,0%,0%);fill-opacity:1;"
       d="M 17.703125 30.472656 L 18.507813 31.757813 C 18.640625 31.96875 18.585938 32 18.261719 32.203125 L 18.359375 32.351563 C 18.527344 32.238281 18.761719 32.078125 18.898438 31.996094 C 19.015625 31.917969 19.269531 31.773438 19.4375 31.675781 L 19.34375 31.527344 C 19.023438 31.726563 18.96875 31.761719 18.839844 31.550781 L 18.285156 30.664063 C 17.972656 30.167969 18.152344 29.683594 18.453125 29.496094 C 18.757813 29.300781 18.972656 29.523438 19.144531 29.800781 L 19.84375 30.921875 C 19.976563 31.132813 19.921875 31.164063 19.601563 31.367188 L 19.695313 31.515625 C 19.855469 31.40625 20.097656 31.242188 20.226563 31.164063 C 20.347656 31.089844 20.605469 30.9375 20.769531 30.847656 L 20.675781 30.695313 C 20.425781 30.851563 20.308594 30.925781 20.21875 30.78125 L 19.644531 29.867188 C 19.386719 29.453125 19.296875 29.308594 19.039063 29.230469 C 18.921875 29.191406 18.703125 29.191406 18.421875 29.367188 C 18.070313 29.585938 17.972656 29.929688 18.023438 30.316406 L 17.710938 29.8125 L 17.066406 30.285156 L 17.160156 30.4375 C 17.5 30.226563 17.554688 30.230469 17.703125 30.472656 Z M 17.703125 30.472656 "
       id="path31" />
    <path
       style=" stroke:none;fill-rule:nonzero;fill:rgb(0%,0%,0%);fill-opacity:1;"
       d="M 23.171875 30.941406 C 23.164063 30.925781 23.15625 30.921875 23.023438 30.890625 C 22.054688 30.660156 21.328125 29.847656 20.867188 29.113281 C 20.347656 28.277344 20.007813 27.332031 20.230469 26.367188 C 20.253906 26.269531 20.246094 26.261719 20.238281 26.246094 C 20.214844 26.210938 20.191406 26.203125 20.160156 26.222656 C 20.105469 26.253906 19.886719 26.855469 19.980469 27.640625 C 20.070313 28.316406 20.34375 28.886719 20.589844 29.285156 C 20.824219 29.660156 21.238281 30.207031 21.84375 30.589844 C 22.503906 30.992188 23.105469 31.054688 23.160156 31.023438 C 23.191406 31.003906 23.195313 30.980469 23.171875 30.941406 Z M 23.171875 30.941406 "
       id="path33" />
    <path
       style=" stroke:none;fill-rule:nonzero;fill:rgb(0%,0%,0%);fill-opacity:1;"
       d="M 23.414063 25.863281 C 23.214844 25.546875 22.714844 24.929688 22.226563 25.234375 C 21.558594 25.652344 21.667969 27.464844 22.351563 28.5625 C 22.632813 29.011719 23.101563 29.460938 23.539063 29.1875 C 24.214844 28.765625 24.082031 26.9375 23.414063 25.863281 Z M 22.347656 27.433594 C 22.242188 27.082031 22.101563 26.640625 22.082031 26.171875 C 22.0625 25.859375 22.066406 25.480469 22.285156 25.34375 C 22.519531 25.199219 22.742188 25.488281 22.910156 25.757813 C 23.058594 26 23.171875 26.261719 23.355469 26.804688 Z M 23.410156 26.992188 C 23.492188 27.242188 23.648438 27.710938 23.675781 28.171875 C 23.71875 28.605469 23.683594 28.953125 23.472656 29.082031 C 23.316406 29.183594 23.128906 29.101563 22.851563 28.65625 C 22.722656 28.453125 22.582031 28.15625 22.410156 27.617188 Z M 23.410156 26.992188 "
       id="path35" />
    <path
       style=" stroke:none;fill-rule:nonzero;fill:rgb(0%,0%,0%);fill-opacity:1;"
       d="M 25.742188 26.066406 C 25.515625 25.699219 25.101563 25.152344 24.496094 24.769531 C 23.84375 24.359375 23.230469 24.304688 23.1875 24.332031 C 23.15625 24.351563 23.148438 24.386719 23.167969 24.417969 C 23.175781 24.433594 23.183594 24.4375 23.328125 24.472656 C 24.097656 24.652344 24.839844 25.242188 25.464844 26.238281 C 25.980469 27.066406 26.335938 28.015625 26.117188 28.988281 C 26.085938 29.089844 26.09375 29.097656 26.101563 29.113281 C 26.121094 29.140625 26.15625 29.148438 26.1875 29.132813 C 26.230469 29.101563 26.460938 28.5 26.359375 27.71875 C 26.277344 27.039063 25.996094 26.472656 25.742188 26.066406 Z M 25.742188 26.066406 "
       id="path37" />
    <path
       style=" stroke:none;fill-rule:nonzero;fill:rgb(0%,0%,0%);fill-opacity:1;"
       d="M 6.4375 6.730469 C 6.738281 6.402344 6.90625 6.261719 7.109375 6.082031 C 7.109375 6.082031 7.457031 5.78125 7.660156 5.578125 C 8.199219 5.054688 8.324219 4.78125 8.324219 4.753906 C 8.324219 4.703125 8.269531 4.703125 8.261719 4.703125 C 8.21875 4.703125 8.207031 4.710938 8.171875 4.765625 C 8.003906 5.039063 7.890625 5.128906 7.757813 5.128906 C 7.613281 5.128906 7.550781 5.039063 7.464844 4.941406 C 7.359375 4.816406 7.261719 4.703125 7.074219 4.703125 C 6.648438 4.703125 6.390625 5.222656 6.390625 5.347656 C 6.390625 5.375 6.410156 5.410156 6.453125 5.410156 C 6.507813 5.410156 6.515625 5.382813 6.535156 5.347656 C 6.640625 5.082031 6.96875 5.082031 7.011719 5.082031 C 7.128906 5.082031 7.234375 5.117188 7.367188 5.164063 C 7.597656 5.25 7.660156 5.25 7.800781 5.25 C 7.597656 5.488281 7.128906 5.898438 7.019531 5.984375 L 6.507813 6.464844 C 6.125 6.84375 5.921875 7.164063 5.921875 7.207031 C 5.921875 7.261719 5.984375 7.261719 5.992188 7.261719 C 6.039063 7.261719 6.046875 7.253906 6.082031 7.191406 C 6.214844 6.988281 6.382813 6.835938 6.570313 6.835938 C 6.691406 6.835938 6.753906 6.890625 6.898438 7.050781 C 6.984375 7.171875 7.09375 7.261719 7.25 7.261719 C 7.816406 7.261719 8.144531 6.542969 8.144531 6.394531 C 8.144531 6.367188 8.121094 6.332031 8.074219 6.332031 C 8.023438 6.332031 8.011719 6.367188 7.996094 6.410156 C 7.863281 6.773438 7.5 6.882813 7.3125 6.882813 C 7.207031 6.882813 7.101563 6.84375 6.984375 6.808594 C 6.789063 6.738281 6.703125 6.710938 6.585938 6.710938 C 6.578125 6.710938 6.488281 6.710938 6.4375 6.730469 Z M 6.4375 6.730469 "
       id="path39" />
  </g>
</svg>
