<?xml version="1.0" encoding="UTF-8" standalone="no"?>
<svg
   xmlns:dc="http://purl.org/dc/elements/1.1/"
   xmlns:cc="http://creativecommons.org/ns#"
   xmlns:rdf="http://www.w3.org/1999/02/22-rdf-syntax-ns#"
   xmlns:svg="http://www.w3.org/2000/svg"
   xmlns="http://www.w3.org/2000/svg"
   xmlns:sodipodi="http://sodipodi.sourceforge.net/DTD/sodipodi-0.dtd"
   xmlns:inkscape="http://www.inkscape.org/namespaces/inkscape"
   width="117pt"
   height="113.5pt"
   viewBox="0 0 117 113.5"
   version="1.2"
   id="svg37"
   sodipodi:docname="3a.svg"
   inkscape:version="0.92.4 (5da689c313, 2019-01-14)">
  <metadata
     id="metadata43">
    <rdf:RDF>
      <cc:Work
         rdf:about="">
        <dc:format>image/svg+xml</dc:format>
        <dc:type
           rdf:resource="http://purl.org/dc/dcmitype/StillImage" />
        <dc:title></dc:title>
      </cc:Work>
    </rdf:RDF>
  </metadata>
  <defs
     id="defs41" />
  <sodipodi:namedview
     pagecolor="#ffffff"
     bordercolor="#666666"
     borderopacity="1"
     objecttolerance="10"
     gridtolerance="10"
     guidetolerance="10"
     inkscape:pageopacity="0"
     inkscape:pageshadow="2"
     inkscape:window-width="727"
     inkscape:window-height="480"
     id="namedview39"
     showgrid="false"
     inkscape:zoom="1.5594714"
     inkscape:cx="78"
     inkscape:cy="75.666667"
     inkscape:window-x="0"
     inkscape:window-y="0"
     inkscape:window-maximized="0"
     inkscape:current-layer="svg37" />
  <g
     id="surface36">
    <path
       style="fill:none;stroke-width:1.065;stroke-linecap:butt;stroke-linejoin:miter;stroke:rgb(0%,0%,0%);stroke-opacity:1;stroke-miterlimit:4;"
       d="M 186.023438 340.023209 L 186.023438 441.023209 "
       transform="matrix(1,0,0,1,-131.5,-330.749771)"
       id="path2" />
    <path
       style="fill:none;stroke-width:1.065;stroke-linecap:butt;stroke-linejoin:miter;stroke:rgb(0%,0%,0%);stroke-opacity:1;stroke-miterlimit:4;"
       d="M 138.097656 389.031021 L 233.949219 389.031021 "
       transform="matrix(1,0,0,1,-131.5,-330.749771)"
       id="path4" />
    <path
       style="fill:none;stroke-width:1.065;stroke-linecap:butt;stroke-linejoin:miter;stroke:rgb(0%,0%,1.176453%);stroke-opacity:1;stroke-miterlimit:4;"
       d="M 216.058594 389.066177 C 216.058594 405.370865 202.601563 418.585709 186.003906 418.585709 C 169.402344 418.585709 155.945313 405.370865 155.945313 389.066177 C 155.945313 372.76149 169.402344 359.546646 186.003906 359.546646 C 202.601563 359.546646 216.058594 372.76149 216.058594 389.066177 Z M 216.058594 389.066177 "
       transform="matrix(1,0,0,1,-131.5,-330.749771)"
       id="path6" />
    <path
       style="fill:none;stroke-width:1.065;stroke-linecap:butt;stroke-linejoin:miter;stroke:rgb(0%,0%,0%);stroke-opacity:1;stroke-miterlimit:4;"
       d="M 185.859375 389.320084 L 207.269531 368.421646 "
       transform="matrix(1,0,0,1,-131.5,-330.749771)"
       id="path8" />
    <path
       style="fill:none;stroke-width:1.065;stroke-linecap:butt;stroke-linejoin:miter;stroke:rgb(0%,0%,0%);stroke-opacity:1;stroke-miterlimit:4;"
       d="M 190.835938 384.988052 C 192.171875 385.79274 192.296875 387.312271 192.464844 388.741959 "
       transform="matrix(1,0,0,1,-131.5,-330.749771)"
       id="path10" />
    <path
       style=" stroke:none;fill-rule:nonzero;fill:rgb(0%,0%,0%);fill-opacity:1;"
       d="M 91.875 89.21875 C 91.859375 89.308594 91.824219 89.441406 91.824219 89.464844 C 91.824219 89.5625 91.902344 89.617188 91.992188 89.617188 C 92.0625 89.617188 92.160156 89.574219 92.203125 89.457031 C 92.203125 89.449219 92.273438 89.183594 92.308594 89.042969 L 92.433594 88.535156 C 92.460938 88.402344 92.496094 88.28125 92.53125 88.15625 C 92.550781 88.058594 92.59375 87.890625 92.601563 87.871094 C 92.683594 87.695313 92.984375 87.179688 93.523438 87.179688 C 93.78125 87.179688 93.824219 87.394531 93.824219 87.578125 C 93.824219 87.722656 93.789063 87.882813 93.746094 88.050781 L 93.585938 88.703125 L 93.46875 89.128906 C 93.453125 89.246094 93.398438 89.441406 93.398438 89.464844 C 93.398438 89.5625 93.480469 89.617188 93.558594 89.617188 C 93.734375 89.617188 93.773438 89.476563 93.816406 89.296875 C 93.894531 88.980469 94.109375 88.15625 94.152344 87.933594 C 94.171875 87.863281 94.472656 87.179688 95.089844 87.179688 C 95.332031 87.179688 95.394531 87.375 95.394531 87.578125 C 95.394531 87.898438 95.152344 88.546875 95.039063 88.847656 C 94.992188 88.980469 94.96875 89.042969 94.96875 89.15625 C 94.96875 89.421875 95.164063 89.617188 95.429688 89.617188 C 95.960938 89.617188 96.171875 88.792969 96.171875 88.75 C 96.171875 88.6875 96.117188 88.6875 96.101563 88.6875 C 96.046875 88.6875 96.046875 88.703125 96.023438 88.792969 C 95.933594 89.09375 95.753906 89.492188 95.445313 89.492188 C 95.347656 89.492188 95.304688 89.441406 95.304688 89.308594 C 95.304688 89.164063 95.355469 89.03125 95.410156 88.910156 C 95.515625 88.609375 95.753906 87.988281 95.753906 87.660156 C 95.753906 87.296875 95.527344 87.058594 95.101563 87.058594 C 94.683594 87.058594 94.390625 87.304688 94.179688 87.605469 C 94.179688 87.535156 94.160156 87.339844 94 87.207031 C 93.859375 87.082031 93.683594 87.058594 93.542969 87.058594 C 93.027344 87.058594 92.753906 87.421875 92.65625 87.554688 C 92.628906 87.226563 92.390625 87.058594 92.132813 87.058594 C 91.875 87.058594 91.769531 87.277344 91.714844 87.375 C 91.617188 87.578125 91.546875 87.90625 91.546875 87.925781 C 91.546875 87.988281 91.601563 87.988281 91.609375 87.988281 C 91.671875 87.988281 91.671875 87.980469 91.707031 87.855469 C 91.804688 87.457031 91.921875 87.179688 92.125 87.179688 C 92.210938 87.179688 92.292969 87.226563 92.292969 87.4375 C 92.292969 87.5625 92.273438 87.625 92.203125 87.917969 Z M 91.875 89.21875 "
       id="path12" />
    <path
       style=" stroke:none;fill-rule:nonzero;fill:rgb(0%,0%,0%);fill-opacity:1;"
       d="M 78.851563 49.117188 C 78.851563 49.097656 78.871094 49.035156 78.871094 49.035156 C 78.871094 49.027344 78.871094 48.976563 78.800781 48.976563 C 78.746094 48.976563 78.738281 48.992188 78.710938 49.089844 L 78.382813 50.390625 C 77.488281 50.425781 76.65625 51.171875 76.65625 51.941406 C 76.65625 52.484375 77.054688 52.925781 77.746094 52.96875 C 77.699219 53.136719 77.65625 53.324219 77.613281 53.5 C 77.542969 53.765625 77.488281 53.980469 77.488281 53.996094 C 77.488281 54.050781 77.53125 54.058594 77.558594 54.058594 C 77.585938 54.058594 77.59375 54.050781 77.613281 54.03125 C 77.621094 54.023438 77.65625 53.890625 77.675781 53.8125 L 77.886719 52.96875 C 78.800781 52.933594 79.621094 52.171875 79.621094 51.417969 C 79.621094 50.96875 79.320313 50.453125 78.535156 50.390625 Z M 77.773438 52.847656 C 77.433594 52.828125 77.027344 52.625 77.027344 52.066406 C 77.027344 51.382813 77.515625 50.597656 78.355469 50.515625 Z M 78.496094 50.515625 C 78.933594 50.542969 79.25 50.800781 79.25 51.296875 C 79.25 51.96875 78.761719 52.773438 77.921875 52.847656 Z M 78.496094 50.515625 "
       id="path14" />
    <path
       style=" stroke:none;fill-rule:nonzero;fill:rgb(0%,0%,0%);fill-opacity:1;"
       d="M 89.433594 66.648438 C 89.425781 66.664063 89.410156 66.683594 89.410156 66.699219 C 89.410156 66.726563 89.445313 66.78125 89.480469 66.78125 C 89.503906 66.78125 89.523438 66.761719 89.683594 66.601563 C 89.726563 66.558594 89.84375 66.453125 89.886719 66.40625 C 89.941406 66.851563 90.097656 67.277344 90.515625 67.277344 C 90.746094 67.277344 90.941406 67.144531 91.054688 67.054688 C 91.136719 67 91.402344 66.78125 91.402344 66.726563 C 91.402344 66.707031 91.382813 66.65625 91.339844 66.65625 C 91.320313 66.65625 91.3125 66.664063 91.257813 66.707031 C 90.898438 67.0625 90.691406 67.152344 90.523438 67.152344 C 90.277344 67.152344 90.179688 66.851563 90.179688 66.417969 C 90.179688 66.382813 90.195313 66.125 90.214844 66.089844 C 90.222656 66.070313 90.222656 66.0625 90.339844 65.945313 C 90.789063 65.496094 91.597656 64.539063 91.597656 63.660156 C 91.597656 63.5625 91.597656 63.21875 91.257813 63.21875 C 90.789063 63.21875 90.375 64.148438 90.320313 64.28125 C 90.046875 64.902344 89.867188 65.558594 89.867188 66.230469 Z M 90.242188 65.859375 C 90.25 65.789063 90.496094 64.539063 90.816406 63.875 C 90.96875 63.574219 91.089844 63.34375 91.269531 63.34375 C 91.464844 63.34375 91.464844 63.546875 91.464844 63.636719 C 91.464844 64.582031 90.507813 65.574219 90.242188 65.859375 Z M 90.242188 65.859375 "
       id="path16" />
    <path
       style=" stroke:none;fill-rule:nonzero;fill:rgb(0%,0%,0%);fill-opacity:1;"
       d="M 64.285156 42.902344 C 64.175781 42.691406 64.019531 42.539063 63.761719 42.539063 C 63.105469 42.539063 62.40625 43.371094 62.40625 44.195313 C 62.40625 44.726563 62.714844 45.101563 63.148438 45.101563 C 63.265625 45.101563 63.546875 45.074219 63.886719 44.675781 C 63.929688 44.914063 64.132813 45.101563 64.398438 45.101563 C 64.601563 45.101563 64.726563 44.964844 64.824219 44.789063 C 64.914063 44.585938 64.992188 44.242188 64.992188 44.230469 C 64.992188 44.167969 64.9375 44.167969 64.921875 44.167969 C 64.867188 44.167969 64.859375 44.195313 64.839844 44.277344 C 64.746094 44.640625 64.648438 44.976563 64.417969 44.976563 C 64.257813 44.976563 64.25 44.824219 64.25 44.71875 C 64.25 44.59375 64.257813 44.542969 64.320313 44.292969 C 64.382813 44.0625 64.390625 44 64.441406 43.789063 L 64.648438 43 C 64.683594 42.839844 64.683594 42.832031 64.683594 42.804688 C 64.683594 42.707031 64.621094 42.65625 64.523438 42.65625 C 64.382813 42.65625 64.300781 42.777344 64.285156 42.902344 Z M 63.921875 44.363281 C 63.886719 44.46875 63.886719 44.480469 63.804688 44.578125 C 63.558594 44.886719 63.328125 44.976563 63.167969 44.976563 C 62.882813 44.976563 62.804688 44.664063 62.804688 44.445313 C 62.804688 44.160156 62.980469 43.46875 63.113281 43.203125 C 63.292969 42.875 63.539063 42.664063 63.769531 42.664063 C 64.132813 42.664063 64.210938 43.125 64.210938 43.160156 C 64.210938 43.195313 64.203125 43.230469 64.195313 43.257813 Z M 63.921875 44.363281 "
       id="path18" />
    <path
       style=" stroke:none;fill-rule:nonzero;fill:rgb(0%,0%,0%);fill-opacity:1;"
       d="M 106.542969 57.925781 C 106.582031 57.785156 106.714844 57.261719 107.101563 57.261719 C 107.128906 57.261719 107.269531 57.261719 107.386719 57.332031 C 107.226563 57.371094 107.121094 57.503906 107.121094 57.644531 C 107.121094 57.730469 107.183594 57.839844 107.332031 57.839844 C 107.457031 57.839844 107.632813 57.742188 107.632813 57.511719 C 107.632813 57.21875 107.304688 57.140625 107.113281 57.140625 C 106.785156 57.140625 106.589844 57.441406 106.519531 57.5625 C 106.375 57.191406 106.074219 57.140625 105.90625 57.140625 C 105.324219 57.140625 104.996094 57.867188 104.996094 58.007813 C 104.996094 58.070313 105.054688 58.070313 105.066406 58.070313 C 105.109375 58.070313 105.128906 58.050781 105.136719 58.007813 C 105.332031 57.40625 105.703125 57.261719 105.898438 57.261719 C 106.003906 57.261719 106.199219 57.316406 106.199219 57.644531 C 106.199219 57.820313 106.101563 58.191406 105.898438 58.992188 C 105.808594 59.335938 105.605469 59.574219 105.359375 59.574219 C 105.324219 59.574219 105.199219 59.574219 105.074219 59.503906 C 105.214844 59.46875 105.339844 59.351563 105.339844 59.195313 C 105.339844 59.042969 105.214844 59 105.136719 59 C 104.960938 59 104.828125 59.140625 104.828125 59.328125 C 104.828125 59.582031 105.101563 59.699219 105.347656 59.699219 C 105.730469 59.699219 105.933594 59.300781 105.941406 59.273438 C 106.011719 59.476563 106.21875 59.699219 106.554688 59.699219 C 107.136719 59.699219 107.457031 58.972656 107.457031 58.832031 C 107.457031 58.769531 107.414063 58.769531 107.394531 58.769531 C 107.34375 58.769531 107.332031 58.796875 107.316406 58.832031 C 107.128906 59.441406 106.75 59.574219 106.570313 59.574219 C 106.351563 59.574219 106.261719 59.398438 106.261719 59.203125 C 106.261719 59.078125 106.289063 58.953125 106.351563 58.707031 Z M 106.542969 57.925781 "
       id="path20" />
    <path
       style=" stroke:none;fill-rule:nonzero;fill:rgb(0%,0%,0%);fill-opacity:1;"
       d="M 55.988281 2.632813 C 56.015625 2.554688 56.015625 2.542969 56.015625 2.5 C 56.015625 2.402344 55.933594 2.351563 55.847656 2.351563 C 55.792969 2.351563 55.707031 2.386719 55.652344 2.464844 C 55.644531 2.5 55.589844 2.667969 55.574219 2.773438 C 55.527344 2.917969 55.492188 3.078125 55.457031 3.226563 L 55.199219 4.246094 C 55.183594 4.324219 54.933594 4.722656 54.5625 4.722656 C 54.277344 4.722656 54.21875 4.476563 54.21875 4.261719 C 54.21875 4.007813 54.316406 3.652344 54.5 3.15625 C 54.589844 2.925781 54.617188 2.863281 54.617188 2.75 C 54.617188 2.5 54.4375 2.289063 54.15625 2.289063 C 53.613281 2.289063 53.410156 3.113281 53.410156 3.15625 C 53.410156 3.21875 53.464844 3.21875 53.472656 3.21875 C 53.535156 3.21875 53.535156 3.199219 53.5625 3.113281 C 53.722656 2.582031 53.941406 2.410156 54.136719 2.410156 C 54.179688 2.410156 54.277344 2.410156 54.277344 2.589844 C 54.277344 2.730469 54.21875 2.882813 54.179688 2.988281 C 53.953125 3.589844 53.855469 3.910156 53.855469 4.175781 C 53.855469 4.679688 54.207031 4.847656 54.542969 4.847656 C 54.765625 4.847656 54.953125 4.75 55.113281 4.589844 C 55.039063 4.882813 54.96875 5.167969 54.75 5.46875 C 54.597656 5.652344 54.386719 5.824219 54.128906 5.824219 C 54.046875 5.824219 53.792969 5.804688 53.695313 5.582031 C 53.78125 5.582031 53.863281 5.582031 53.933594 5.511719 C 53.996094 5.46875 54.046875 5.386719 54.046875 5.28125 C 54.046875 5.105469 53.898438 5.085938 53.84375 5.085938 C 53.710938 5.085938 53.527344 5.175781 53.527344 5.449219 C 53.527344 5.734375 53.773438 5.945313 54.128906 5.945313 C 54.703125 5.945313 55.289063 5.433594 55.449219 4.792969 Z M 55.988281 2.632813 "
       id="path22" />
    <path
       style="fill:none;stroke-width:1.065;stroke-linecap:butt;stroke-linejoin:miter;stroke:rgb(0%,0%,0%);stroke-opacity:1;stroke-miterlimit:4;"
       d="M 207.421875 368.413834 L 223.683594 411.206802 "
       transform="matrix(1,0,0,1,-131.5,-330.749771)"
       id="path24" />
    <path
       style="fill:none;stroke-width:1.065;stroke-linecap:butt;stroke-linejoin:miter;stroke:rgb(0%,0%,1.176453%);stroke-opacity:1;stroke-miterlimit:4;"
       d="M 227.226563 413.781021 C 227.226563 415.179459 226.105469 416.308365 224.726563 416.308365 C 223.347656 416.308365 222.226563 415.179459 222.226563 413.781021 C 222.226563 412.38649 223.347656 411.253677 224.726563 411.253677 C 226.105469 411.253677 227.226563 412.38649 227.226563 413.781021 Z M 227.226563 413.781021 "
       transform="matrix(1,0,0,1,-131.5,-330.749771)"
       id="path26" />
    <path
       style="fill:none;stroke-width:1.065;stroke-linecap:butt;stroke-linejoin:miter;stroke:rgb(0%,0%,0%);stroke-opacity:1;stroke-dasharray:1.065,2.13;stroke-miterlimit:4;"
       d="M 206.917969 356.054459 L 206.917969 418.214615 "
       transform="matrix(1,0,0,1,-131.5,-330.749771)"
       id="path28" />
    <path
       style="fill:none;stroke-width:0.75;stroke-linecap:butt;stroke-linejoin:miter;stroke:rgb(0%,0%,0%);stroke-opacity:1;stroke-miterlimit:4;"
       d="M 207.300781 378.765396 C 208.894531 379.398209 210.324219 379.116959 210.960938 377.495865 "
       transform="matrix(1,0,0,1,-131.5,-330.749771)"
       id="path30" />
    <path
       style=" stroke:none;fill-rule:nonzero;fill:rgb(0%,0%,0%);fill-opacity:1;"
       d="M 62.976563 54.054688 C 63.199219 53.40625 63.820313 53.398438 63.882813 53.398438 C 64.730469 53.398438 64.792969 54.390625 64.792969 54.832031 C 64.792969 55.179688 64.765625 55.273438 64.722656 55.390625 C 64.597656 55.796875 64.429688 56.453125 64.429688 56.605469 C 64.429688 56.664063 64.457031 56.703125 64.5 56.703125 C 64.582031 56.703125 64.625 56.578125 64.6875 56.363281 C 64.820313 55.886719 64.875 55.566406 64.890625 55.390625 C 64.910156 55.320313 64.917969 55.25 64.945313 55.167969 C 65.121094 54.609375 65.484375 53.769531 65.707031 53.328125 C 65.75 53.253906 65.8125 53.132813 65.8125 53.105469 C 65.8125 53.050781 65.757813 53.050781 65.75 53.050781 C 65.734375 53.050781 65.695313 53.050781 65.679688 53.085938 C 65.386719 53.628906 65.15625 54.195313 64.933594 54.761719 C 64.925781 54.59375 64.925781 54.160156 64.703125 53.609375 C 64.5625 53.265625 64.34375 52.988281 63.953125 52.988281 C 63.242188 52.988281 62.84375 53.847656 62.84375 54.027344 C 62.84375 54.078125 62.898438 54.078125 62.960938 54.078125 Z M 62.976563 54.054688 "
       id="path32" />
    <path
       style=" stroke:none;fill-rule:nonzero;fill:rgb(0%,0%,0%);fill-opacity:1;"
       d="M 67.140625 53.230469 L 67.675781 53.230469 C 67.789063 53.230469 67.851563 53.230469 67.851563 53.113281 C 67.851563 53.050781 67.789063 53.050781 67.691406 53.050781 L 67.195313 53.050781 C 67.398438 52.246094 67.425781 52.140625 67.425781 52.105469 C 67.425781 52.007813 67.355469 51.953125 67.257813 51.953125 C 67.238281 51.953125 67.082031 51.953125 67.035156 52.15625 L 66.816406 53.050781 L 66.28125 53.050781 C 66.167969 53.050781 66.113281 53.050781 66.113281 53.15625 C 66.113281 53.230469 66.160156 53.230469 66.273438 53.230469 L 66.769531 53.230469 C 66.363281 54.832031 66.335938 54.929688 66.335938 55.027344 C 66.335938 55.335938 66.550781 55.550781 66.859375 55.550781 C 67.433594 55.550781 67.753906 54.726563 67.753906 54.683594 C 67.753906 54.621094 67.710938 54.621094 67.691406 54.621094 C 67.636719 54.621094 67.628906 54.636719 67.601563 54.699219 C 67.363281 55.292969 67.0625 55.425781 66.867188 55.425781 C 66.753906 55.425781 66.691406 55.355469 66.691406 55.167969 C 66.691406 55.027344 66.707031 54.992188 66.726563 54.894531 Z M 67.140625 53.230469 "
       id="path34" />
  </g>
</svg>
