<?xml version="1.0" encoding="UTF-8" standalone="no"?>
<svg
   xmlns:dc="http://purl.org/dc/elements/1.1/"
   xmlns:cc="http://creativecommons.org/ns#"
   xmlns:rdf="http://www.w3.org/1999/02/22-rdf-syntax-ns#"
   xmlns:svg="http://www.w3.org/2000/svg"
   xmlns="http://www.w3.org/2000/svg"
   xmlns:sodipodi="http://sodipodi.sourceforge.net/DTD/sodipodi-0.dtd"
   xmlns:inkscape="http://www.inkscape.org/namespaces/inkscape"
   width="113.999pt"
   height="111.375pt"
   viewBox="0 0 113.999 111.375"
   version="1.2"
   id="svg25"
   sodipodi:docname="3b.svg"
   inkscape:version="0.92.4 (5da689c313, 2019-01-14)">
  <metadata
     id="metadata31">
    <rdf:RDF>
      <cc:Work
         rdf:about="">
        <dc:format>image/svg+xml</dc:format>
        <dc:type
           rdf:resource="http://purl.org/dc/dcmitype/StillImage" />
        <dc:title></dc:title>
      </cc:Work>
    </rdf:RDF>
  </metadata>
  <defs
     id="defs29" />
  <sodipodi:namedview
     pagecolor="#ffffff"
     bordercolor="#666666"
     borderopacity="1"
     objecttolerance="10"
     gridtolerance="10"
     guidetolerance="10"
     inkscape:pageopacity="0"
     inkscape:pageshadow="2"
     inkscape:window-width="727"
     inkscape:window-height="480"
     id="namedview27"
     showgrid="false"
     inkscape:zoom="1.5892256"
     inkscape:cx="75.999334"
     inkscape:cy="74.25"
     inkscape:window-x="0"
     inkscape:window-y="0"
     inkscape:window-maximized="0"
     inkscape:current-layer="svg25" />
  <g
     id="surface48">
    <path
       style="fill:none;stroke-width:1.065;stroke-linecap:butt;stroke-linejoin:miter;stroke:rgb(0%,0%,0%);stroke-opacity:1;stroke-miterlimit:4;"
       d="M 260.980469 404.877677 L 260.980469 505.881584 "
       transform="matrix(1,0,0,1,-204.375,-397.123771)"
       id="path2" />
    <path
       style="fill:none;stroke-width:1.065;stroke-linecap:butt;stroke-linejoin:miter;stroke:rgb(0%,0%,0%);stroke-opacity:1;stroke-miterlimit:4;"
       d="M 213.050781 453.889396 L 308.90625 453.889396 "
       transform="matrix(1,0,0,1,-204.375,-397.123771)"
       id="path4" />
    <path
       style=" stroke:none;fill-rule:nonzero;fill:rgb(0%,0%,0%);fill-opacity:1;"
       d="M 93.957031 87.703125 C 93.9375 87.792969 93.902344 87.925781 93.902344 87.949219 C 93.902344 88.046875 93.984375 88.101563 94.070313 88.101563 C 94.144531 88.101563 94.242188 88.058594 94.285156 87.941406 C 94.285156 87.933594 94.355469 87.667969 94.390625 87.527344 L 94.515625 87.019531 C 94.542969 86.886719 94.578125 86.761719 94.613281 86.640625 C 94.628906 86.542969 94.675781 86.375 94.683594 86.355469 C 94.761719 86.179688 95.0625 85.664063 95.605469 85.664063 C 95.859375 85.664063 95.90625 85.878906 95.90625 86.0625 C 95.90625 86.207031 95.871094 86.363281 95.824219 86.535156 L 95.667969 87.1875 L 95.550781 87.613281 C 95.535156 87.730469 95.480469 87.925781 95.480469 87.949219 C 95.480469 88.046875 95.558594 88.101563 95.640625 88.101563 C 95.816406 88.101563 95.851563 87.960938 95.898438 87.78125 C 95.976563 87.464844 96.1875 86.640625 96.234375 86.417969 C 96.25 86.347656 96.550781 85.664063 97.171875 85.664063 C 97.410156 85.664063 97.472656 85.859375 97.472656 86.0625 C 97.472656 86.382813 97.234375 87.03125 97.121094 87.332031 C 97.074219 87.464844 97.046875 87.527344 97.046875 87.640625 C 97.046875 87.90625 97.242188 88.101563 97.507813 88.101563 C 98.039063 88.101563 98.253906 87.277344 98.253906 87.234375 C 98.253906 87.171875 98.199219 87.171875 98.183594 87.171875 C 98.128906 87.171875 98.128906 87.1875 98.101563 87.277344 C 98.015625 87.578125 97.835938 87.976563 97.527344 87.976563 C 97.429688 87.976563 97.386719 87.925781 97.386719 87.792969 C 97.386719 87.648438 97.4375 87.515625 97.492188 87.394531 C 97.597656 87.089844 97.835938 86.472656 97.835938 86.144531 C 97.835938 85.78125 97.605469 85.542969 97.179688 85.542969 C 96.765625 85.542969 96.472656 85.789063 96.261719 86.089844 C 96.261719 86.019531 96.242188 85.824219 96.082031 85.691406 C 95.941406 85.566406 95.765625 85.542969 95.621094 85.542969 C 95.109375 85.542969 94.832031 85.90625 94.734375 86.039063 C 94.710938 85.710938 94.46875 85.542969 94.214844 85.542969 C 93.957031 85.542969 93.851563 85.761719 93.796875 85.859375 C 93.699219 86.0625 93.628906 86.390625 93.628906 86.410156 C 93.628906 86.472656 93.683594 86.472656 93.691406 86.472656 C 93.753906 86.472656 93.753906 86.460938 93.789063 86.339844 C 93.886719 85.941406 94 85.664063 94.203125 85.664063 C 94.292969 85.664063 94.375 85.710938 94.375 85.921875 C 94.375 86.046875 94.355469 86.109375 94.285156 86.402344 Z M 93.957031 87.703125 "
       id="path6" />
    <path
       style=" stroke:none;fill-rule:nonzero;fill:rgb(0%,0%,0%);fill-opacity:1;"
       d="M 81.863281 69.449219 C 81.863281 69.429688 81.878906 69.367188 81.878906 69.367188 C 81.878906 69.359375 81.878906 69.304688 81.808594 69.304688 C 81.757813 69.304688 81.746094 69.324219 81.71875 69.421875 L 81.394531 70.722656 C 80.496094 70.757813 79.664063 71.503906 79.664063 72.273438 C 79.664063 72.8125 80.0625 73.257813 80.753906 73.300781 C 80.710938 73.46875 80.667969 73.65625 80.621094 73.832031 C 80.550781 74.097656 80.496094 74.3125 80.496094 74.328125 C 80.496094 74.382813 80.542969 74.390625 80.570313 74.390625 C 80.59375 74.390625 80.605469 74.382813 80.621094 74.363281 C 80.632813 74.355469 80.667969 74.222656 80.683594 74.144531 L 80.898438 73.300781 C 81.808594 73.265625 82.632813 72.503906 82.632813 71.75 C 82.632813 71.300781 82.332031 70.785156 81.542969 70.722656 Z M 80.78125 73.175781 C 80.445313 73.160156 80.039063 72.957031 80.039063 72.398438 C 80.039063 71.714844 80.523438 70.925781 81.367188 70.847656 Z M 81.507813 70.847656 C 81.941406 70.875 82.261719 71.132813 82.261719 71.628906 C 82.261719 72.300781 81.773438 73.105469 80.933594 73.175781 Z M 81.507813 70.847656 "
       id="path8" />
    <path
       style=" stroke:none;fill-rule:nonzero;fill:rgb(0%,0%,0%);fill-opacity:1;"
       d="M 90.042969 77.585938 C 90.035156 77.605469 90.015625 77.621094 90.015625 77.640625 C 90.015625 77.664063 90.050781 77.71875 90.085938 77.71875 C 90.113281 77.71875 90.132813 77.699219 90.289063 77.542969 C 90.335938 77.496094 90.449219 77.390625 90.496094 77.347656 C 90.546875 77.789063 90.707031 78.214844 91.125 78.214844 C 91.355469 78.214844 91.546875 78.082031 91.664063 77.992188 C 91.742188 77.941406 92.007813 77.71875 92.007813 77.664063 C 92.007813 77.648438 91.992188 77.59375 91.945313 77.59375 C 91.929688 77.59375 91.921875 77.605469 91.867188 77.648438 C 91.503906 78.003906 91.300781 78.089844 91.132813 78.089844 C 90.882813 78.089844 90.785156 77.789063 90.785156 77.355469 C 90.785156 77.320313 90.804688 77.0625 90.820313 77.027344 C 90.832031 77.011719 90.832031 77 90.945313 76.886719 C 91.398438 76.433594 92.203125 75.476563 92.203125 74.601563 C 92.203125 74.503906 92.203125 74.15625 91.867188 74.15625 C 91.398438 74.15625 90.980469 75.089844 90.929688 75.222656 C 90.652344 75.839844 90.476563 76.496094 90.476563 77.167969 Z M 90.847656 76.796875 C 90.859375 76.726563 91.105469 75.476563 91.425781 74.8125 C 91.574219 74.511719 91.699219 74.28125 91.875 74.28125 C 92.070313 74.28125 92.070313 74.484375 92.070313 74.574219 C 92.070313 75.523438 91.113281 76.515625 90.847656 76.796875 Z M 90.847656 76.796875 "
       id="path10" />
    <path
       style=" stroke:none;fill-rule:nonzero;fill:rgb(0%,0%,0%);fill-opacity:1;"
       d="M 108.625 56.410156 C 108.660156 56.269531 108.792969 55.746094 109.183594 55.746094 C 109.210938 55.746094 109.351563 55.746094 109.46875 55.816406 C 109.308594 55.851563 109.203125 55.984375 109.203125 56.128906 C 109.203125 56.214844 109.261719 56.324219 109.414063 56.324219 C 109.539063 56.324219 109.714844 56.226563 109.714844 55.996094 C 109.714844 55.703125 109.386719 55.621094 109.191406 55.621094 C 108.863281 55.621094 108.667969 55.925781 108.597656 56.046875 C 108.457031 55.675781 108.15625 55.621094 107.988281 55.621094 C 107.402344 55.621094 107.074219 56.347656 107.074219 56.492188 C 107.074219 56.554688 107.136719 56.554688 107.144531 56.554688 C 107.191406 56.554688 107.207031 56.535156 107.21875 56.492188 C 107.410156 55.886719 107.785156 55.746094 107.980469 55.746094 C 108.085938 55.746094 108.28125 55.800781 108.28125 56.128906 C 108.28125 56.304688 108.183594 56.675781 107.980469 57.472656 C 107.890625 57.820313 107.6875 58.058594 107.4375 58.058594 C 107.402344 58.058594 107.277344 58.058594 107.15625 57.988281 C 107.296875 57.953125 107.421875 57.835938 107.421875 57.679688 C 107.421875 57.527344 107.296875 57.484375 107.21875 57.484375 C 107.039063 57.484375 106.90625 57.625 106.90625 57.8125 C 106.90625 58.066406 107.183594 58.183594 107.429688 58.183594 C 107.8125 58.183594 108.015625 57.785156 108.023438 57.757813 C 108.09375 57.960938 108.296875 58.183594 108.632813 58.183594 C 109.21875 58.183594 109.539063 57.457031 109.539063 57.316406 C 109.539063 57.253906 109.492188 57.253906 109.476563 57.253906 C 109.421875 57.253906 109.414063 57.277344 109.394531 57.316406 C 109.210938 57.925781 108.828125 58.058594 108.652344 58.058594 C 108.429688 58.058594 108.34375 57.882813 108.34375 57.6875 C 108.34375 57.5625 108.367188 57.4375 108.429688 57.191406 Z M 108.625 56.410156 "
       id="path12" />
    <path
       style=" stroke:none;fill-rule:nonzero;fill:rgb(0%,0%,0%);fill-opacity:1;"
       d="M 58.070313 1.117188 C 58.097656 1.039063 58.097656 1.027344 58.097656 0.984375 C 58.097656 0.886719 58.015625 0.832031 57.929688 0.832031 C 57.875 0.832031 57.785156 0.871094 57.734375 0.949219 C 57.722656 0.984375 57.671875 1.152344 57.652344 1.257813 C 57.609375 1.402344 57.574219 1.558594 57.539063 1.710938 L 57.28125 2.730469 C 57.261719 2.808594 57.015625 3.207031 56.644531 3.207031 C 56.359375 3.207031 56.296875 2.960938 56.296875 2.746094 C 56.296875 2.492188 56.394531 2.136719 56.582031 1.640625 C 56.671875 1.410156 56.695313 1.347656 56.695313 1.234375 C 56.695313 0.984375 56.519531 0.773438 56.234375 0.773438 C 55.695313 0.773438 55.492188 1.597656 55.492188 1.640625 C 55.492188 1.703125 55.546875 1.703125 55.554688 1.703125 C 55.617188 1.703125 55.617188 1.683594 55.640625 1.597656 C 55.800781 1.0625 56.023438 0.894531 56.21875 0.894531 C 56.261719 0.894531 56.359375 0.894531 56.359375 1.074219 C 56.359375 1.214844 56.296875 1.367188 56.261719 1.472656 C 56.03125 2.074219 55.933594 2.394531 55.933594 2.660156 C 55.933594 3.164063 56.289063 3.332031 56.625 3.332031 C 56.847656 3.332031 57.03125 3.234375 57.191406 3.074219 C 57.121094 3.367188 57.050781 3.652344 56.828125 3.953125 C 56.679688 4.136719 56.464844 4.304688 56.210938 4.304688 C 56.128906 4.304688 55.871094 4.289063 55.773438 4.066406 C 55.863281 4.066406 55.945313 4.066406 56.015625 3.996094 C 56.078125 3.953125 56.128906 3.871094 56.128906 3.765625 C 56.128906 3.589844 55.980469 3.570313 55.925781 3.570313 C 55.792969 3.570313 55.605469 3.660156 55.605469 3.933594 C 55.605469 4.21875 55.855469 4.429688 56.210938 4.429688 C 56.785156 4.429688 57.371094 3.917969 57.527344 3.277344 Z M 58.070313 1.117188 "
       id="path14" />
    <path
       style="fill:none;stroke-width:1.065;stroke-linecap:butt;stroke-linejoin:miter;stroke:rgb(0%,0%,0%);stroke-opacity:1;stroke-miterlimit:4;"
       d="M 282.753906 453.444084 L 299.019531 496.237052 "
       transform="matrix(1,0,0,1,-204.375,-397.123771)"
       id="path16" />
    <path
       style="fill:none;stroke-width:1.065;stroke-linecap:butt;stroke-linejoin:miter;stroke:rgb(0%,0%,1.176453%);stroke-opacity:1;stroke-miterlimit:4;"
       d="M 302.558594 498.811271 C 302.558594 500.205802 301.441406 501.338615 300.0625 501.338615 C 298.679688 501.338615 297.5625 500.205802 297.5625 498.811271 C 297.5625 497.412834 298.679688 496.283927 300.0625 496.283927 C 301.441406 496.283927 302.558594 497.412834 302.558594 498.811271 Z M 302.558594 498.811271 "
       transform="matrix(1,0,0,1,-204.375,-397.123771)"
       id="path18" />
    <path
       style="fill:none;stroke-width:0.918425;stroke-linecap:butt;stroke-linejoin:miter;stroke:rgb(0%,0%,0%);stroke-opacity:1;stroke-dasharray:0.918425,1.83685;stroke-miterlimit:4;"
       d="M 282.753906 453.444084 L 282.753906 499.69799 "
       transform="matrix(1,0,0,1,-204.375,-397.123771)"
       id="path20" />
    <path
       style="fill:none;stroke-width:0.75;stroke-linecap:butt;stroke-linejoin:miter;stroke:rgb(0%,0%,0%);stroke-opacity:1;stroke-miterlimit:4;"
       d="M 282.964844 464.803459 C 284.554688 465.432365 285.988281 465.151115 286.621094 463.530021 "
       transform="matrix(1,0,0,1,-204.375,-397.123771)"
       id="path22" />
  </g>
</svg>
