<?xml version="1.0" encoding="UTF-8" standalone="no"?>
<svg
   xmlns:dc="http://purl.org/dc/elements/1.1/"
   xmlns:cc="http://creativecommons.org/ns#"
   xmlns:rdf="http://www.w3.org/1999/02/22-rdf-syntax-ns#"
   xmlns:svg="http://www.w3.org/2000/svg"
   xmlns="http://www.w3.org/2000/svg"
   xmlns:sodipodi="http://sodipodi.sourceforge.net/DTD/sodipodi-0.dtd"
   xmlns:inkscape="http://www.inkscape.org/namespaces/inkscape"
   width="113.249pt"
   height="115.875pt"
   viewBox="0 0 113.249 115.875"
   version="1.2"
   id="svg23"
   sodipodi:docname="3c.svg"
   inkscape:version="0.92.4 (5da689c313, 2019-01-14)">
  <metadata
     id="metadata29">
    <rdf:RDF>
      <cc:Work
         rdf:about="">
        <dc:format>image/svg+xml</dc:format>
        <dc:type
           rdf:resource="http://purl.org/dc/dcmitype/StillImage" />
        <dc:title></dc:title>
      </cc:Work>
    </rdf:RDF>
  </metadata>
  <defs
     id="defs27" />
  <sodipodi:namedview
     pagecolor="#ffffff"
     bordercolor="#666666"
     borderopacity="1"
     objecttolerance="10"
     gridtolerance="10"
     guidetolerance="10"
     inkscape:pageopacity="0"
     inkscape:pageshadow="2"
     inkscape:window-width="727"
     inkscape:window-height="480"
     id="namedview25"
     showgrid="false"
     inkscape:zoom="1.5275081"
     inkscape:cx="75.499334"
     inkscape:cy="77.25"
     inkscape:window-x="0"
     inkscape:window-y="0"
     inkscape:window-maximized="0"
     inkscape:current-layer="svg23" />
  <g
     id="surface40">
    <path
       style="fill:none;stroke-width:1.065;stroke-linecap:butt;stroke-linejoin:miter;stroke:rgb(0%,0%,0%);stroke-opacity:1;stroke-miterlimit:4;"
       d="M 260.980469 404.877677 L 260.980469 505.881584 "
       transform="matrix(1,0,0,1,-207.75,-393.373771)"
       id="path2" />
    <path
       style="fill:none;stroke-width:1.065;stroke-linecap:butt;stroke-linejoin:miter;stroke:rgb(0%,0%,0%);stroke-opacity:1;stroke-miterlimit:4;"
       d="M 213.050781 461.389396 L 308.90625 461.389396 "
       transform="matrix(1,0,0,1,-207.75,-393.373771)"
       id="path4" />
    <path
       style=" stroke:none;fill-rule:nonzero;fill:rgb(0%,0%,0%);fill-opacity:1;"
       d="M 68.617188 45.78125 C 68.601563 45.871094 68.5625 46.003906 68.5625 46.03125 C 68.5625 46.128906 68.644531 46.179688 68.734375 46.179688 C 68.804688 46.179688 68.902344 46.136719 68.945313 46.023438 C 68.945313 46.011719 69.015625 45.746094 69.050781 45.605469 L 69.175781 45.101563 C 69.203125 44.96875 69.238281 44.84375 69.273438 44.71875 C 69.289063 44.621094 69.335938 44.453125 69.34375 44.4375 C 69.421875 44.257813 69.726563 43.746094 70.265625 43.746094 C 70.523438 43.746094 70.566406 43.957031 70.566406 44.144531 C 70.566406 44.285156 70.53125 44.445313 70.488281 44.613281 L 70.328125 45.269531 L 70.210938 45.695313 C 70.195313 45.808594 70.140625 46.003906 70.140625 46.03125 C 70.140625 46.128906 70.222656 46.179688 70.300781 46.179688 C 70.476563 46.179688 70.511719 46.039063 70.558594 45.863281 C 70.636719 45.542969 70.851563 44.71875 70.894531 44.5 C 70.910156 44.425781 71.214844 43.746094 71.832031 43.746094 C 72.070313 43.746094 72.132813 43.941406 72.132813 44.144531 C 72.132813 44.464844 71.894531 45.109375 71.78125 45.410156 C 71.734375 45.542969 71.710938 45.605469 71.710938 45.722656 C 71.710938 45.988281 71.902344 46.179688 72.167969 46.179688 C 72.699219 46.179688 72.914063 45.359375 72.914063 45.3125 C 72.914063 45.25 72.859375 45.25 72.84375 45.25 C 72.789063 45.25 72.789063 45.269531 72.761719 45.359375 C 72.675781 45.660156 72.496094 46.058594 72.1875 46.058594 C 72.089844 46.058594 72.046875 46.003906 72.046875 45.871094 C 72.046875 45.730469 72.097656 45.597656 72.152344 45.472656 C 72.257813 45.171875 72.496094 44.550781 72.496094 44.222656 C 72.496094 43.859375 72.265625 43.621094 71.84375 43.621094 C 71.425781 43.621094 71.132813 43.871094 70.921875 44.171875 C 70.921875 44.101563 70.902344 43.90625 70.742188 43.773438 C 70.601563 43.648438 70.425781 43.621094 70.28125 43.621094 C 69.769531 43.621094 69.496094 43.984375 69.398438 44.117188 C 69.371094 43.789063 69.132813 43.621094 68.875 43.621094 C 68.617188 43.621094 68.511719 43.84375 68.457031 43.941406 C 68.359375 44.144531 68.289063 44.472656 68.289063 44.488281 C 68.289063 44.550781 68.34375 44.550781 68.351563 44.550781 C 68.414063 44.550781 68.414063 44.542969 68.449219 44.417969 C 68.546875 44.019531 68.660156 43.746094 68.867188 43.746094 C 68.953125 43.746094 69.035156 43.789063 69.035156 44.003906 C 69.035156 44.125 69.015625 44.1875 68.945313 44.480469 Z M 68.617188 45.78125 "
       id="path6" />
    <path
       style=" stroke:none;fill-rule:nonzero;fill:rgb(0%,0%,0%);fill-opacity:1;"
       d="M 56.523438 27.527344 C 56.523438 27.511719 56.539063 27.449219 56.539063 27.449219 C 56.539063 27.441406 56.539063 27.386719 56.46875 27.386719 C 56.417969 27.386719 56.40625 27.40625 56.382813 27.5 L 56.054688 28.804688 C 55.160156 28.839844 54.324219 29.582031 54.324219 30.355469 C 54.324219 30.894531 54.726563 31.335938 55.414063 31.382813 C 55.371094 31.550781 55.328125 31.734375 55.28125 31.914063 C 55.210938 32.179688 55.160156 32.390625 55.160156 32.410156 C 55.160156 32.460938 55.203125 32.472656 55.230469 32.472656 C 55.257813 32.472656 55.265625 32.460938 55.28125 32.445313 C 55.292969 32.4375 55.328125 32.304688 55.34375 32.222656 L 55.558594 31.382813 C 56.46875 31.347656 57.292969 30.585938 57.292969 29.832031 C 57.292969 29.378906 56.992188 28.867188 56.203125 28.804688 Z M 55.441406 31.257813 C 55.105469 31.238281 54.699219 31.035156 54.699219 30.476563 C 54.699219 29.796875 55.183594 29.007813 56.027344 28.929688 Z M 56.167969 28.929688 C 56.601563 28.953125 56.921875 29.210938 56.921875 29.707031 C 56.921875 30.378906 56.433594 31.1875 55.59375 31.257813 Z M 56.167969 28.929688 "
       id="path8" />
    <path
       style=" stroke:none;fill-rule:nonzero;fill:rgb(0%,0%,0%);fill-opacity:1;"
       d="M 64.703125 35.667969 C 64.695313 35.683594 64.675781 35.703125 64.675781 35.71875 C 64.675781 35.746094 64.710938 35.800781 64.746094 35.800781 C 64.773438 35.800781 64.792969 35.78125 64.953125 35.621094 C 64.996094 35.578125 65.109375 35.472656 65.15625 35.425781 C 65.207031 35.871094 65.367188 36.296875 65.785156 36.296875 C 66.015625 36.296875 66.210938 36.164063 66.324219 36.074219 C 66.402344 36.019531 66.667969 35.800781 66.667969 35.746094 C 66.667969 35.726563 66.652344 35.675781 66.609375 35.675781 C 66.589844 35.675781 66.582031 35.683594 66.527344 35.726563 C 66.164063 36.082031 65.960938 36.171875 65.792969 36.171875 C 65.542969 36.171875 65.449219 35.871094 65.449219 35.4375 C 65.449219 35.402344 65.464844 35.144531 65.484375 35.109375 C 65.492188 35.089844 65.492188 35.082031 65.605469 34.964844 C 66.058594 34.515625 66.863281 33.558594 66.863281 32.679688 C 66.863281 32.582031 66.863281 32.238281 66.527344 32.238281 C 66.058594 32.238281 65.640625 33.167969 65.589844 33.300781 C 65.316406 33.921875 65.136719 34.578125 65.136719 35.25 Z M 65.507813 34.878906 C 65.519531 34.808594 65.765625 33.558594 66.085938 32.894531 C 66.234375 32.59375 66.359375 32.363281 66.535156 32.363281 C 66.730469 32.363281 66.730469 32.566406 66.730469 32.65625 C 66.730469 33.601563 65.773438 34.59375 65.507813 34.878906 Z M 65.507813 34.878906 "
       id="path10" />
    <path
       style=" stroke:none;fill-rule:nonzero;fill:rgb(0%,0%,0%);fill-opacity:1;"
       d="M 105.25 67.660156 C 105.285156 67.519531 105.417969 66.996094 105.808594 66.996094 C 105.835938 66.996094 105.976563 66.996094 106.09375 67.066406 C 105.933594 67.101563 105.828125 67.234375 105.828125 67.378906 C 105.828125 67.464844 105.886719 67.574219 106.039063 67.574219 C 106.164063 67.574219 106.339844 67.476563 106.339844 67.246094 C 106.339844 66.953125 106.011719 66.871094 105.816406 66.871094 C 105.488281 66.871094 105.292969 67.175781 105.222656 67.296875 C 105.082031 66.925781 104.78125 66.871094 104.613281 66.871094 C 104.027344 66.871094 103.699219 67.597656 103.699219 67.742188 C 103.699219 67.804688 103.761719 67.804688 103.769531 67.804688 C 103.816406 67.804688 103.832031 67.785156 103.84375 67.742188 C 104.035156 67.136719 104.410156 66.996094 104.605469 66.996094 C 104.710938 66.996094 104.90625 67.050781 104.90625 67.378906 C 104.90625 67.554688 104.808594 67.925781 104.605469 68.722656 C 104.515625 69.070313 104.3125 69.308594 104.0625 69.308594 C 104.027344 69.308594 103.902344 69.308594 103.78125 69.238281 C 103.921875 69.203125 104.046875 69.085938 104.046875 68.929688 C 104.046875 68.777344 103.921875 68.734375 103.84375 68.734375 C 103.664063 68.734375 103.53125 68.875 103.53125 69.0625 C 103.53125 69.316406 103.808594 69.433594 104.054688 69.433594 C 104.4375 69.433594 104.640625 69.035156 104.648438 69.007813 C 104.71875 69.210938 104.921875 69.433594 105.257813 69.433594 C 105.84375 69.433594 106.164063 68.707031 106.164063 68.566406 C 106.164063 68.503906 106.117188 68.503906 106.101563 68.503906 C 106.046875 68.503906 106.039063 68.53125 106.019531 68.566406 C 105.835938 69.175781 105.453125 69.308594 105.277344 69.308594 C 105.054688 69.308594 104.96875 69.132813 104.96875 68.9375 C 104.96875 68.8125 104.992188 68.6875 105.054688 68.441406 Z M 105.25 67.660156 "
       id="path12" />
    <path
       style=" stroke:none;fill-rule:nonzero;fill:rgb(0%,0%,0%);fill-opacity:1;"
       d="M 54.695313 4.867188 C 54.722656 4.789063 54.722656 4.777344 54.722656 4.734375 C 54.722656 4.636719 54.640625 4.582031 54.554688 4.582031 C 54.5 4.582031 54.410156 4.621094 54.359375 4.699219 C 54.347656 4.734375 54.296875 4.902344 54.277344 5.007813 C 54.234375 5.152344 54.199219 5.308594 54.164063 5.460938 L 53.90625 6.480469 C 53.886719 6.558594 53.640625 6.957031 53.269531 6.957031 C 52.984375 6.957031 52.921875 6.710938 52.921875 6.496094 C 52.921875 6.242188 53.019531 5.886719 53.207031 5.390625 C 53.296875 5.160156 53.320313 5.097656 53.320313 4.984375 C 53.320313 4.734375 53.144531 4.523438 52.859375 4.523438 C 52.320313 4.523438 52.117188 5.347656 52.117188 5.390625 C 52.117188 5.453125 52.171875 5.453125 52.179688 5.453125 C 52.242188 5.453125 52.242188 5.433594 52.265625 5.347656 C 52.425781 4.8125 52.648438 4.644531 52.84375 4.644531 C 52.886719 4.644531 52.984375 4.644531 52.984375 4.824219 C 52.984375 4.964844 52.921875 5.117188 52.886719 5.222656 C 52.65625 5.824219 52.558594 6.144531 52.558594 6.410156 C 52.558594 6.914063 52.914063 7.082031 53.25 7.082031 C 53.472656 7.082031 53.65625 6.984375 53.816406 6.824219 C 53.746094 7.117188 53.675781 7.402344 53.453125 7.703125 C 53.304688 7.886719 53.089844 8.054688 52.835938 8.054688 C 52.753906 8.054688 52.496094 8.039063 52.398438 7.816406 C 52.488281 7.816406 52.570313 7.816406 52.640625 7.746094 C 52.703125 7.703125 52.753906 7.621094 52.753906 7.515625 C 52.753906 7.339844 52.605469 7.320313 52.550781 7.320313 C 52.417969 7.320313 52.230469 7.410156 52.230469 7.683594 C 52.230469 7.96875 52.480469 8.179688 52.835938 8.179688 C 53.410156 8.179688 53.996094 7.667969 54.152344 7.027344 Z M 54.695313 4.867188 "
       id="path14" />
    <path
       style="fill:none;stroke-width:1.065;stroke-linecap:butt;stroke-linejoin:miter;stroke:rgb(0%,0%,0%);stroke-opacity:1;stroke-miterlimit:4;"
       d="M 260.949219 407.764396 L 277.214844 450.557365 "
       transform="matrix(1,0,0,1,-207.75,-393.373771)"
       id="path16" />
    <path
       style="fill:none;stroke-width:1.065;stroke-linecap:butt;stroke-linejoin:miter;stroke:rgb(0%,0%,1.176453%);stroke-opacity:1;stroke-miterlimit:4;"
       d="M 280.597656 453.139396 C 280.597656 454.537834 279.476563 455.670646 278.097656 455.670646 C 276.714844 455.670646 275.597656 454.537834 275.597656 453.139396 C 275.597656 451.744865 276.714844 450.612052 278.097656 450.612052 C 279.476563 450.612052 280.597656 451.744865 280.597656 453.139396 Z M 280.597656 453.139396 "
       transform="matrix(1,0,0,1,-207.75,-393.373771)"
       id="path18" />
    <path
       style="fill:none;stroke-width:0.75;stroke-linecap:butt;stroke-linejoin:miter;stroke:rgb(0%,0%,0%);stroke-opacity:1;stroke-miterlimit:4;"
       d="M 261 419.131584 C 262.589844 419.76049 264.023438 419.483146 264.65625 417.862052 "
       transform="matrix(1,0,0,1,-207.75,-393.373771)"
       id="path20" />
  </g>
</svg>
