<?xml version="1.0" encoding="UTF-8" standalone="no"?>
<svg
   xmlns:dc="http://purl.org/dc/elements/1.1/"
   xmlns:cc="http://creativecommons.org/ns#"
   xmlns:rdf="http://www.w3.org/1999/02/22-rdf-syntax-ns#"
   xmlns:svg="http://www.w3.org/2000/svg"
   xmlns="http://www.w3.org/2000/svg"
   xmlns:sodipodi="http://sodipodi.sourceforge.net/DTD/sodipodi-0.dtd"
   xmlns:inkscape="http://www.inkscape.org/namespaces/inkscape"
   width="74.5pt"
   height="109.5pt"
   viewBox="0 0 74.5 109.5"
   version="1.2"
   id="svg46"
   sodipodi:docname="4.svg"
   inkscape:version="0.92.4 (5da689c313, 2019-01-14)">
  <metadata
     id="metadata50">
    <rdf:RDF>
      <cc:Work
         rdf:about="">
        <dc:format>image/svg+xml</dc:format>
        <dc:type
           rdf:resource="http://purl.org/dc/dcmitype/StillImage" />
        <dc:title></dc:title>
      </cc:Work>
    </rdf:RDF>
  </metadata>
  <sodipodi:namedview
     pagecolor="#ffffff"
     bordercolor="#666666"
     borderopacity="1"
     objecttolerance="10"
     gridtolerance="10"
     guidetolerance="10"
     inkscape:pageopacity="0"
     inkscape:pageshadow="2"
     inkscape:window-width="727"
     inkscape:window-height="480"
     id="namedview48"
     showgrid="false"
     inkscape:zoom="1.6164384"
     inkscape:cx="49.666667"
     inkscape:cy="73"
     inkscape:window-x="0"
     inkscape:window-y="0"
     inkscape:window-maximized="0"
     inkscape:current-layer="svg46" />
  <defs
     id="defs5">
    <clipPath
       id="clip1">
      <path
         d="M 42 95 L 60 95 L 60 109.5 L 42 109.5 Z M 42 95 "
         id="path2" />
    </clipPath>
  </defs>
  <g
     id="surface38">
    <path
       style="fill:none;stroke-width:1.012886;stroke-linecap:butt;stroke-linejoin:miter;stroke:rgb(0%,0%,0%);stroke-opacity:1;stroke-dasharray:1.012886,2.025772;stroke-miterlimit:4;"
       d="M 260.980469 404.878677 L 260.980469 496.238052 "
       transform="matrix(1,0,0,1,-209.75,-394.749771)"
       id="path7" />
    <path
       style=" stroke:none;fill-rule:nonzero;fill:rgb(0%,0%,0%);fill-opacity:1;"
       d="M 62.679688 7.484375 C 62.679688 7.464844 62.695313 7.402344 62.695313 7.402344 C 62.695313 7.394531 62.695313 7.339844 62.625 7.339844 C 62.574219 7.339844 62.5625 7.359375 62.539063 7.457031 L 62.210938 8.757813 C 61.316406 8.792969 60.480469 9.539063 60.480469 10.308594 C 60.480469 10.847656 60.878906 11.292969 61.570313 11.335938 C 61.527344 11.503906 61.484375 11.691406 61.4375 11.867188 C 61.367188 12.132813 61.316406 12.347656 61.316406 12.363281 C 61.316406 12.417969 61.359375 12.425781 61.386719 12.425781 C 61.414063 12.425781 61.421875 12.417969 61.4375 12.398438 C 61.449219 12.390625 61.484375 12.257813 61.5 12.179688 L 61.714844 11.335938 C 62.625 11.300781 63.449219 10.539063 63.449219 9.785156 C 63.449219 9.335938 63.148438 8.820313 62.359375 8.757813 Z M 61.597656 11.210938 C 61.261719 11.195313 60.855469 10.992188 60.855469 10.433594 C 60.855469 9.75 61.339844 8.960938 62.183594 8.882813 Z M 62.324219 8.882813 C 62.757813 8.910156 63.078125 9.164063 63.078125 9.660156 C 63.078125 10.335938 62.589844 11.140625 61.75 11.210938 Z M 62.324219 8.882813 "
       id="path9" />
    <path
       style="fill:none;stroke-width:1.065;stroke-linecap:butt;stroke-linejoin:miter;stroke:rgb(0%,0%,1.176453%);stroke-opacity:1;stroke-miterlimit:4;"
       d="M 229.703125 452.60524 C 229.703125 454.003677 228.585938 455.13649 227.203125 455.13649 C 225.824219 455.13649 224.703125 454.003677 224.703125 452.60524 C 224.703125 451.210709 225.824219 450.077896 227.203125 450.077896 C 228.585938 450.077896 229.703125 451.210709 229.703125 452.60524 Z M 229.703125 452.60524 "
       transform="matrix(1,0,0,1,-209.75,-394.749771)"
       id="path11" />
    <path
       style="fill:none;stroke-width:0.75;stroke-linecap:butt;stroke-linejoin:miter;stroke:rgb(0%,0%,0%);stroke-opacity:1;stroke-miterlimit:4;"
       d="M 227.191406 450.202896 L 260.625 408.663834 "
       transform="matrix(1,0,0,1,-209.75,-394.749771)"
       id="path13" />
    <path
       style="fill:none;stroke-width:0.720153;stroke-linecap:butt;stroke-linejoin:miter;stroke:rgb(0%,0%,0%);stroke-opacity:1;stroke-miterlimit:4;"
       d="M 226.894531 455.308365 L 259.5 496.632584 "
       transform="matrix(1,0,0,1,-209.75,-394.749771)"
       id="path15" />
    <path
       style="fill:none;stroke-width:0.75;stroke-linecap:butt;stroke-linejoin:miter;stroke:rgb(0%,0%,0%);stroke-opacity:1;stroke-miterlimit:4;"
       d="M 255.371094 415.488052 C 256.828125 417.175552 258.457031 417.874771 260.507813 418.046646 "
       transform="matrix(1,0,0,1,-209.75,-394.749771)"
       id="path17" />
    <path
       style="fill:none;stroke-width:0.75;stroke-linecap:butt;stroke-linejoin:miter;stroke:rgb(0%,0%,0%);stroke-opacity:1;stroke-miterlimit:4;"
       d="M 255.207031 404.773209 C 248.273438 408.894302 280.71875 405.402115 263.683594 403.413834 "
       transform="matrix(1,0,0,1,-209.75,-394.749771)"
       id="path19" />
    <path
       style="fill-rule:evenodd;fill:rgb(0%,0%,0%);fill-opacity:1;stroke-width:0.198651;stroke-linecap:butt;stroke-linejoin:miter;stroke:rgb(0%,0%,0%);stroke-opacity:1;stroke-miterlimit:4;"
       d="M 307.486257 367.627354 L 308.231532 366.88411 L 305.626685 367.625666 L 308.233354 368.372179 Z M 307.486257 367.627354 "
       transform="matrix(1,0.116727,-0.116727,1,-209.75,-394.749771)"
       id="path21" />
    <g
       clip-path="url(#clip1)"
       clip-rule="nonzero"
       id="g25">
      <path
         style="fill:none;stroke-width:1.065;stroke-linecap:butt;stroke-linejoin:miter;stroke:rgb(0%,0%,1.176453%);stroke-opacity:1;stroke-miterlimit:4;"
         d="M 263.660156 498.363052 C 263.660156 499.757584 262.542969 500.890396 261.160156 500.890396 C 259.78125 500.890396 258.660156 499.757584 258.660156 498.363052 C 258.660156 496.964615 259.78125 495.835709 261.160156 495.835709 C 262.542969 495.835709 263.660156 496.964615 263.660156 498.363052 Z M 263.660156 498.363052 "
         transform="matrix(1,0,0,1,-209.75,-394.749771)"
         id="path23" />
    </g>
    <path
       style=" stroke:none;fill-rule:nonzero;fill:rgb(0%,0%,0%);fill-opacity:1;"
       d="M 48 27.101563 C 48 26.726563 47.902344 25.941406 47.328125 25.941406 C 46.539063 25.941406 45.671875 27.535156 45.671875 28.828125 C 45.671875 29.359375 45.832031 29.988281 46.34375 29.988281 C 47.140625 29.988281 48 28.367188 48 27.101563 Z M 46.265625 27.871094 C 46.363281 27.515625 46.476563 27.066406 46.707031 26.65625 C 46.859375 26.382813 47.0625 26.0625 47.320313 26.0625 C 47.59375 26.0625 47.628906 26.425781 47.628906 26.746094 C 47.628906 27.03125 47.585938 27.3125 47.453125 27.871094 Z M 47.398438 28.058594 C 47.335938 28.3125 47.222656 28.792969 47 29.199219 C 46.804688 29.589844 46.59375 29.863281 46.34375 29.863281 C 46.160156 29.863281 46.042969 29.695313 46.042969 29.171875 C 46.042969 28.933594 46.078125 28.605469 46.21875 28.058594 Z M 47.398438 28.058594 "
       id="path27" />
    <path
       style=" stroke:none;fill-rule:nonzero;fill:rgb(0%,0%,0%);fill-opacity:1;"
       d="M 29.929688 32.765625 C 29.824219 32.550781 29.664063 32.402344 29.40625 32.402344 C 28.75 32.402344 28.050781 33.234375 28.050781 34.058594 C 28.050781 34.589844 28.363281 34.960938 28.796875 34.960938 C 28.910156 34.960938 29.195313 34.933594 29.53125 34.535156 C 29.574219 34.777344 29.777344 34.960938 30.046875 34.960938 C 30.25 34.960938 30.371094 34.828125 30.46875 34.652344 C 30.558594 34.449219 30.636719 34.101563 30.636719 34.09375 C 30.636719 34.03125 30.585938 34.03125 30.566406 34.03125 C 30.515625 34.03125 30.503906 34.058594 30.488281 34.136719 C 30.390625 34.5 30.292969 34.835938 30.0625 34.835938 C 29.902344 34.835938 29.894531 34.6875 29.894531 34.582031 C 29.894531 34.457031 29.902344 34.402344 29.964844 34.15625 C 30.027344 33.925781 30.035156 33.863281 30.089844 33.652344 L 30.292969 32.863281 C 30.328125 32.703125 30.328125 32.695313 30.328125 32.667969 C 30.328125 32.570313 30.265625 32.515625 30.167969 32.515625 C 30.027344 32.515625 29.949219 32.640625 29.929688 32.765625 Z M 29.566406 34.226563 C 29.53125 34.332031 29.53125 34.339844 29.453125 34.4375 C 29.203125 34.75 28.972656 34.835938 28.8125 34.835938 C 28.53125 34.835938 28.449219 34.527344 28.449219 34.304688 C 28.449219 34.023438 28.628906 33.332031 28.761719 33.066406 C 28.9375 32.738281 29.1875 32.527344 29.417969 32.527344 C 29.777344 32.527344 29.859375 32.984375 29.859375 33.023438 C 29.859375 33.058594 29.851563 33.09375 29.839844 33.121094 Z M 29.566406 34.226563 "
       id="path29" />
    <path
       style=" stroke:none;fill-rule:nonzero;fill:rgb(0%,0%,0%);fill-opacity:1;"
       d="M 6.382813 58.191406 C 6.363281 58.28125 6.328125 58.414063 6.328125 58.4375 C 6.328125 58.535156 6.410156 58.589844 6.496094 58.589844 C 6.570313 58.589844 6.667969 58.546875 6.710938 58.429688 C 6.710938 58.421875 6.78125 58.15625 6.816406 58.015625 L 6.941406 57.507813 C 6.96875 57.375 7.003906 57.253906 7.039063 57.128906 C 7.054688 57.03125 7.101563 56.863281 7.109375 56.84375 C 7.1875 56.667969 7.488281 56.152344 8.03125 56.152344 C 8.289063 56.152344 8.332031 56.367188 8.332031 56.550781 C 8.332031 56.695313 8.296875 56.851563 8.25 57.023438 L 8.09375 57.675781 L 7.976563 58.101563 C 7.960938 58.21875 7.90625 58.414063 7.90625 58.4375 C 7.90625 58.535156 7.984375 58.589844 8.066406 58.589844 C 8.242188 58.589844 8.277344 58.449219 8.324219 58.269531 C 8.402344 57.953125 8.613281 57.128906 8.660156 56.90625 C 8.675781 56.835938 8.976563 56.152344 9.597656 56.152344 C 9.835938 56.152344 9.898438 56.347656 9.898438 56.550781 C 9.898438 56.871094 9.660156 57.519531 9.546875 57.820313 C 9.5 57.953125 9.472656 58.015625 9.472656 58.128906 C 9.472656 58.394531 9.667969 58.589844 9.933594 58.589844 C 10.464844 58.589844 10.679688 57.765625 10.679688 57.722656 C 10.679688 57.660156 10.625 57.660156 10.609375 57.660156 C 10.554688 57.660156 10.554688 57.675781 10.527344 57.765625 C 10.441406 58.066406 10.261719 58.464844 9.953125 58.464844 C 9.855469 58.464844 9.8125 58.414063 9.8125 58.28125 C 9.8125 58.136719 9.863281 58.003906 9.917969 57.882813 C 10.023438 57.578125 10.261719 56.960938 10.261719 56.632813 C 10.261719 56.269531 10.03125 56.03125 9.605469 56.03125 C 9.191406 56.03125 8.898438 56.277344 8.6875 56.578125 C 8.6875 56.507813 8.667969 56.3125 8.507813 56.179688 C 8.367188 56.054688 8.191406 56.03125 8.046875 56.03125 C 7.535156 56.03125 7.257813 56.394531 7.164063 56.527344 C 7.136719 56.199219 6.894531 56.03125 6.640625 56.03125 C 6.382813 56.03125 6.277344 56.25 6.222656 56.347656 C 6.125 56.550781 6.054688 56.878906 6.054688 56.898438 C 6.054688 56.960938 6.109375 56.960938 6.117188 56.960938 C 6.179688 56.960938 6.179688 56.949219 6.214844 56.828125 C 6.3125 56.429688 6.425781 56.152344 6.628906 56.152344 C 6.71875 56.152344 6.800781 56.199219 6.800781 56.410156 C 6.800781 56.535156 6.78125 56.597656 6.710938 56.890625 Z M 6.382813 58.191406 "
       id="path31" />
    <path
       style=" stroke:none;fill-rule:nonzero;fill:rgb(0%,0%,0%);fill-opacity:1;"
       d="M 12.167969 56.859375 C 12.167969 56.753906 12.167969 56.753906 12.050781 56.753906 C 11.792969 57 11.441406 57 11.28125 57 L 11.28125 57.144531 C 11.367188 57.144531 11.632813 57.144531 11.847656 57.035156 L 11.847656 59.046875 C 11.847656 59.179688 11.847656 59.234375 11.457031 59.234375 L 11.308594 59.234375 L 11.308594 59.375 C 11.378906 59.375 11.863281 59.355469 12.007813 59.355469 C 12.128906 59.355469 12.625 59.375 12.714844 59.375 L 12.714844 59.234375 L 12.566406 59.234375 C 12.167969 59.234375 12.167969 59.179688 12.167969 59.046875 Z M 12.167969 56.859375 "
       id="path33" />
    <path
       style=" stroke:none;fill-rule:nonzero;fill:rgb(0%,0%,0%);fill-opacity:1;"
       d="M 57.140625 104.664063 C 57.125 104.753906 57.089844 104.886719 57.089844 104.914063 C 57.089844 105.007813 57.167969 105.0625 57.257813 105.0625 C 57.328125 105.0625 57.425781 105.019531 57.46875 104.902344 C 57.46875 104.894531 57.539063 104.628906 57.574219 104.488281 L 57.699219 103.980469 C 57.726563 103.847656 57.761719 103.726563 57.796875 103.601563 C 57.816406 103.503906 57.859375 103.335938 57.867188 103.316406 C 57.949219 103.140625 58.25 102.625 58.789063 102.625 C 59.046875 102.625 59.089844 102.839844 59.089844 103.023438 C 59.089844 103.167969 59.054688 103.328125 59.011719 103.496094 L 58.851563 104.148438 L 58.734375 104.574219 C 58.71875 104.691406 58.664063 104.886719 58.664063 104.914063 C 58.664063 105.007813 58.746094 105.0625 58.824219 105.0625 C 59 105.0625 59.039063 104.921875 59.082031 104.742188 C 59.160156 104.425781 59.375 103.601563 59.417969 103.378906 C 59.4375 103.308594 59.738281 102.625 60.355469 102.625 C 60.597656 102.625 60.660156 102.820313 60.660156 103.023438 C 60.660156 103.34375 60.417969 103.992188 60.304688 104.292969 C 60.257813 104.425781 60.234375 104.488281 60.234375 104.601563 C 60.234375 104.867188 60.429688 105.0625 60.695313 105.0625 C 61.226563 105.0625 61.4375 104.238281 61.4375 104.195313 C 61.4375 104.132813 61.382813 104.132813 61.367188 104.132813 C 61.3125 104.132813 61.3125 104.148438 61.289063 104.238281 C 61.199219 104.539063 61.023438 104.9375 60.710938 104.9375 C 60.613281 104.9375 60.570313 104.886719 60.570313 104.753906 C 60.570313 104.609375 60.621094 104.476563 60.675781 104.355469 C 60.78125 104.054688 61.023438 103.433594 61.023438 103.105469 C 61.023438 102.742188 60.792969 102.503906 60.367188 102.503906 C 59.949219 102.503906 59.65625 102.75 59.445313 103.050781 C 59.445313 102.980469 59.425781 102.785156 59.269531 102.652344 C 59.125 102.527344 58.949219 102.503906 58.808594 102.503906 C 58.292969 102.503906 58.019531 102.867188 57.921875 103 C 57.894531 102.671875 57.65625 102.503906 57.398438 102.503906 C 57.140625 102.503906 57.035156 102.722656 56.980469 102.820313 C 56.882813 103.023438 56.8125 103.351563 56.8125 103.371094 C 56.8125 103.433594 56.867188 103.433594 56.875 103.433594 C 56.9375 103.433594 56.9375 103.425781 56.972656 103.300781 C 57.070313 102.902344 57.1875 102.625 57.390625 102.625 C 57.476563 102.625 57.558594 102.671875 57.558594 102.882813 C 57.558594 103.007813 57.539063 103.070313 57.46875 103.363281 Z M 57.140625 104.664063 "
       id="path35" />
    <path
       style=" stroke:none;fill-rule:nonzero;fill:rgb(0%,0%,0%);fill-opacity:1;"
       d="M 63.597656 105.128906 L 63.464844 105.128906 C 63.457031 105.21875 63.414063 105.449219 63.359375 105.484375 C 63.332031 105.511719 63.03125 105.511719 62.96875 105.511719 L 62.242188 105.511719 C 62.660156 105.148438 62.800781 105.035156 63.03125 104.847656 C 63.324219 104.617188 63.597656 104.367188 63.597656 103.996094 C 63.597656 103.519531 63.183594 103.226563 62.675781 103.226563 C 62.191406 103.226563 61.851563 103.570313 61.851563 103.933594 C 61.851563 104.128906 62.019531 104.15625 62.066406 104.15625 C 62.152344 104.15625 62.269531 104.085938 62.269531 103.945313 C 62.269531 103.871094 62.242188 103.730469 62.039063 103.730469 C 62.164063 103.457031 62.429688 103.367188 62.613281 103.367188 C 63.011719 103.367188 63.21875 103.679688 63.21875 103.996094 C 63.21875 104.34375 62.96875 104.609375 62.84375 104.75 L 61.898438 105.699219 C 61.851563 105.734375 61.851563 105.742188 61.851563 105.847656 L 63.484375 105.847656 Z M 63.597656 105.128906 "
       id="path37" />
    <path
       style=" stroke:none;fill-rule:nonzero;fill:rgb(0%,0%,0%);fill-opacity:1;"
       d="M 30.886719 82.898438 C 30.78125 82.6875 30.621094 82.535156 30.363281 82.535156 C 29.710938 82.535156 29.007813 83.367188 29.007813 84.191406 C 29.007813 84.722656 29.320313 85.097656 29.753906 85.097656 C 29.867188 85.097656 30.152344 85.070313 30.488281 84.671875 C 30.53125 84.910156 30.738281 85.097656 31.003906 85.097656 C 31.207031 85.097656 31.332031 84.960938 31.425781 84.785156 C 31.515625 84.582031 31.597656 84.238281 31.597656 84.226563 C 31.597656 84.164063 31.542969 84.164063 31.523438 84.164063 C 31.472656 84.164063 31.464844 84.191406 31.445313 84.273438 C 31.347656 84.636719 31.25 84.972656 31.019531 84.972656 C 30.859375 84.972656 30.851563 84.820313 30.851563 84.714844 C 30.851563 84.589844 30.859375 84.539063 30.921875 84.289063 C 30.984375 84.058594 30.992188 83.996094 31.046875 83.785156 L 31.25 82.996094 C 31.285156 82.835938 31.285156 82.828125 31.285156 82.800781 C 31.285156 82.703125 31.222656 82.652344 31.125 82.652344 C 30.984375 82.652344 30.90625 82.773438 30.886719 82.898438 Z M 30.523438 84.359375 C 30.488281 84.46875 30.488281 84.476563 30.410156 84.574219 C 30.160156 84.882813 29.929688 84.972656 29.769531 84.972656 C 29.488281 84.972656 29.40625 84.660156 29.40625 84.441406 C 29.40625 84.15625 29.585938 83.464844 29.71875 83.199219 C 29.894531 82.871094 30.144531 82.660156 30.375 82.660156 C 30.738281 82.660156 30.816406 83.121094 30.816406 83.15625 C 30.816406 83.191406 30.808594 83.226563 30.796875 83.253906 Z M 30.523438 84.359375 "
       id="path39" />
    <path
       style=" stroke:none;fill-rule:nonzero;fill:rgb(0%,0%,0%);fill-opacity:1;"
       d="M 48.90625 90.871094 C 48.90625 90.496094 48.808594 89.710938 48.230469 89.710938 C 47.441406 89.710938 46.574219 91.304688 46.574219 92.597656 C 46.574219 93.128906 46.734375 93.757813 47.25 93.757813 C 48.046875 93.757813 48.90625 92.136719 48.90625 90.871094 Z M 47.167969 91.640625 C 47.265625 91.285156 47.382813 90.835938 47.613281 90.425781 C 47.761719 90.152344 47.964844 89.832031 48.222656 89.832031 C 48.496094 89.832031 48.53125 90.195313 48.53125 90.515625 C 48.53125 90.800781 48.488281 91.082031 48.355469 91.640625 Z M 48.300781 91.828125 C 48.242188 92.082031 48.125 92.5625 47.902344 92.96875 C 47.707031 93.359375 47.496094 93.632813 47.25 93.632813 C 47.0625 93.632813 46.945313 93.464844 46.945313 92.941406 C 46.945313 92.703125 46.980469 92.375 47.125 91.828125 Z M 48.300781 91.828125 "
       id="path41" />
    <path
       style="fill:none;stroke-width:0.75;stroke-linecap:butt;stroke-linejoin:miter;stroke:rgb(0%,0%,0%);stroke-opacity:1;stroke-miterlimit:4;"
       d="M 256.09375 492.452896 C 256.996094 490.773209 259.402344 490.593521 261.167969 490.593521 "
       transform="matrix(1,0,0,1,-209.75,-394.749771)"
       id="path43" />
  </g>
</svg>
