<?xml version="1.0" encoding="UTF-8" standalone="no"?>
<svg
   xmlns:dc="http://purl.org/dc/elements/1.1/"
   xmlns:cc="http://creativecommons.org/ns#"
   xmlns:rdf="http://www.w3.org/1999/02/22-rdf-syntax-ns#"
   xmlns:svg="http://www.w3.org/2000/svg"
   xmlns="http://www.w3.org/2000/svg"
   xmlns:sodipodi="http://sodipodi.sourceforge.net/DTD/sodipodi-0.dtd"
   xmlns:inkscape="http://www.inkscape.org/namespaces/inkscape"
   width="500.07095pt"
   height="126.7191pt"
   viewBox="0 0 500.07095 126.7191"
   version="1.2"
   id="svg204"
   sodipodi:docname="dipolof.svg"
   inkscape:version="0.92.4 (5da689c313, 2019-01-14)">
  <metadata
     id="metadata208">
    <rdf:RDF>
      <cc:Work
         rdf:about="">
        <dc:format>image/svg+xml</dc:format>
        <dc:type
           rdf:resource="http://purl.org/dc/dcmitype/StillImage" />
        <dc:title></dc:title>
      </cc:Work>
    </rdf:RDF>
  </metadata>
  <sodipodi:namedview
     pagecolor="#ffffff"
     bordercolor="#666666"
     borderopacity="1"
     objecttolerance="10"
     gridtolerance="10"
     guidetolerance="10"
     inkscape:pageopacity="0"
     inkscape:pageshadow="2"
     inkscape:window-width="727"
     inkscape:window-height="480"
     id="namedview206"
     showgrid="false"
     inkscape:zoom="0.68540274"
     inkscape:cx="333.38064"
     inkscape:cy="84.479401"
     inkscape:window-x="0"
     inkscape:window-y="0"
     inkscape:window-maximized="0"
     inkscape:current-layer="svg204" />
  <defs
     id="defs11">
    <clipPath
       id="clip1">
      <path
         d="M 0 20 L 133 20 L 133 126.71875 L 0 126.71875 Z M 0 20 "
         id="path2" />
    </clipPath>
    <clipPath
       id="clip2">
      <path
         d="M 144 19 L 279 19 L 279 126.71875 L 144 126.71875 Z M 144 19 "
         id="path5" />
    </clipPath>
    <clipPath
       id="clip3">
      <path
         d="M 349 21 L 484 21 L 484 126.71875 L 349 126.71875 Z M 349 21 "
         id="path8" />
    </clipPath>
  </defs>
  <g
     id="surface40">
    <path
       style=" stroke:none;fill-rule:nonzero;fill:rgb(100%,100%,100%);fill-opacity:1;"
       d="M 99.984375 107.417969 C 90.582031 121.078125 67.394531 121.441406 48.195313 108.226563 C 28.996094 95.015625 21.050781 73.230469 30.449219 59.570313 C 39.851563 45.90625 63.035156 45.546875 82.238281 58.757813 C 101.4375 71.972656 109.382813 93.757813 99.984375 107.417969 "
       id="path13" />
    <g
       clip-path="url(#clip1)"
       clip-rule="nonzero"
       id="g17">
      <path
         style="fill:none;stroke-width:2;stroke-linecap:butt;stroke-linejoin:miter;stroke:rgb(0%,0%,0%);stroke-opacity:1;stroke-miterlimit:10;"
         d="M -0.000575 0.00003925 C -9.402919 -13.660117 -32.590419 -14.023398 -51.789638 -0.808555 C -70.988856 12.402383 -78.934169 34.187539 -69.535731 47.847695 C -60.133388 61.511758 -36.949794 61.871133 -17.746669 48.660195 C 1.45255 35.445352 9.397862 13.660195 -0.000575 0.00003925 Z M -0.000575 0.00003925 "
         transform="matrix(1,0,0,-1,99.98495,107.418008)"
         id="path15" />
    </g>
    <path
       style="fill:none;stroke-width:1;stroke-linecap:butt;stroke-linejoin:miter;stroke:rgb(0%,0%,0%);stroke-opacity:1;stroke-miterlimit:10;"
       d="M -0.0006375 0.000508 L 118.870456 0.000508 "
       transform="matrix(1,0,0,-1,3.69595,112.563008)"
       id="path19" />
    <path
       style=" stroke:none;fill-rule:evenodd;fill:rgb(0%,0%,0%);fill-opacity:1;"
       d="M 133.875 112.5625 L 121.335938 116.035156 L 121.335938 109.09375 Z M 133.875 112.5625 "
       id="path21" />
    <path
       style="fill:none;stroke-width:1;stroke-linecap:butt;stroke-linejoin:miter;stroke:rgb(0%,0%,0%);stroke-opacity:1;stroke-miterlimit:10;"
       d="M -0.0006375 0.00035175 L 118.870456 0.00035175 "
       transform="matrix(1,0,0,-1,3.69595,94.473008)"
       id="path23" />
    <path
       style=" stroke:none;fill-rule:evenodd;fill:rgb(0%,0%,0%);fill-opacity:1;"
       d="M 133.875 94.472656 L 121.335938 97.941406 L 121.335938 91 Z M 133.875 94.472656 "
       id="path25" />
    <path
       style="fill:none;stroke-width:1;stroke-linecap:butt;stroke-linejoin:miter;stroke:rgb(0%,0%,0%);stroke-opacity:1;stroke-miterlimit:10;"
       d="M -0.0006375 -0.00008575 L 118.870456 -0.00008575 "
       transform="matrix(1,0,0,-1,3.69595,77.621008)"
       id="path27" />
    <path
       style=" stroke:none;fill-rule:evenodd;fill:rgb(0%,0%,0%);fill-opacity:1;"
       d="M 133.875 77.621094 L 121.335938 81.09375 L 121.335938 74.152344 Z M 133.875 77.621094 "
       id="path29" />
    <path
       style="fill:none;stroke-width:1;stroke-linecap:butt;stroke-linejoin:miter;stroke:rgb(0%,0%,0%);stroke-opacity:1;stroke-miterlimit:10;"
       d="M -0.0006375 -0.000117 L 118.870456 -0.000117 "
       transform="matrix(1,0,0,-1,3.44595,59.703008)"
       id="path31" />
    <path
       style=" stroke:none;fill-rule:evenodd;fill:rgb(0%,0%,0%);fill-opacity:1;"
       d="M 133.625 59.703125 L 121.085938 63.175781 L 121.085938 56.234375 Z M 133.625 59.703125 "
       id="path33" />
    <path
       style="fill:none;stroke-width:1;stroke-linecap:butt;stroke-linejoin:miter;stroke:rgb(0%,0%,0%);stroke-opacity:1;stroke-miterlimit:10;"
       d="M -0.00010625 -0.0001795 L 17.706925 37.136539 "
       transform="matrix(1,0,0,-1,65.21495,83.492008)"
       id="path35" />
    <path
       style=" stroke:none;fill-rule:evenodd;fill:rgb(0%,0%,0%);fill-opacity:1;"
       d="M 86.292969 39.539063 L 85.242188 48.414063 L 79.789063 45.664063 Z M 86.292969 39.539063 "
       id="path37" />
    <path
       style="fill:none;stroke-width:1;stroke-linecap:butt;stroke-linejoin:miter;stroke:rgb(0%,0%,0%);stroke-opacity:1;stroke-miterlimit:10;"
       d="M -0.00010625 0.0001955 L 0.499894 0.0001955 "
       transform="matrix(1,0,0,-1,65.21495,83.133008)"
       id="path39" />
    <path
       style="fill:none;stroke-width:1;stroke-linecap:butt;stroke-linejoin:miter;stroke:rgb(0%,0%,0%);stroke-opacity:1;stroke-dasharray:1.023,1.023;stroke-miterlimit:10;"
       d="M -0.00066875 0.0001955 L 34.280581 0.0001955 "
       transform="matrix(1,0,0,-1,66.73895,83.133008)"
       id="path41" />
    <path
       style="fill:none;stroke-width:1;stroke-linecap:butt;stroke-linejoin:miter;stroke:rgb(0%,0%,0%);stroke-opacity:1;stroke-miterlimit:10;"
       d="M 0.0003 0.0001955 L 0.5003 0.0001955 "
       transform="matrix(1,0,0,-1,101.53095,83.133008)"
       id="path43" />
    <path
       style="fill:none;stroke-width:1;stroke-linecap:butt;stroke-linejoin:miter;stroke:rgb(0%,0%,0%);stroke-opacity:1;stroke-miterlimit:10;"
       d="M -0.0003875 0.0006955 C 0.155862 0.055383 0.331644 -0.0149295 0.483987 -0.085242 C 1.425394 -0.507117 2.405862 -0.956336 3.042581 -1.772742 C 3.77305 -2.706336 3.925394 -3.960242 3.995706 -5.143836 C 4.019144 -5.542273 4.011331 -6.007117 3.698831 -6.253211 "
       transform="matrix(1,0,0,-1,68.60195,77.071008)"
       id="path45" />
    <path
       style=" stroke:none;fill-rule:nonzero;fill:rgb(100%,100%,100%);fill-opacity:1;"
       d="M 246.679688 105.867188 C 237.28125 119.527344 214.09375 119.890625 194.894531 106.679688 C 175.691406 93.464844 167.746094 71.679688 177.148438 58.019531 C 186.546875 44.359375 209.734375 43.996094 228.933594 57.210938 C 248.136719 70.421875 256.082031 92.207031 246.679688 105.867188 "
       id="path47" />
    <g
       clip-path="url(#clip2)"
       clip-rule="nonzero"
       id="g51">
      <path
         style="fill:none;stroke-width:2;stroke-linecap:butt;stroke-linejoin:miter;stroke:rgb(0%,0%,0%);stroke-opacity:1;stroke-miterlimit:10;"
         d="M -0.0002625 -0.0001795 C -9.3987 -13.660336 -32.5862 -14.023617 -51.785419 -0.81268 C -70.988544 12.402164 -78.933856 34.18732 -69.531513 47.847477 C -60.133075 61.507633 -36.945575 61.870914 -17.746356 48.65607 C 1.456769 35.445133 9.402081 13.659977 -0.0002625 -0.0001795 Z M -0.0002625 -0.0001795 "
         transform="matrix(1,0,0,-1,246.67995,105.867008)"
         id="path49" />
    </g>
    <path
       style="fill:none;stroke-width:1;stroke-linecap:butt;stroke-linejoin:miter;stroke:rgb(0%,0%,0%);stroke-opacity:1;stroke-miterlimit:10;"
       d="M -0.00041875 0.000383 L 118.870675 0.000383 "
       transform="matrix(1,0,0,-1,150.39495,111.016008)"
       id="path53" />
    <path
       style=" stroke:none;fill-rule:evenodd;fill:rgb(0%,0%,0%);fill-opacity:1;"
       d="M 280.574219 111.015625 L 268.035156 114.484375 L 268.035156 107.542969 Z M 280.574219 111.015625 "
       id="path55" />
    <path
       style="fill:none;stroke-width:1;stroke-linecap:butt;stroke-linejoin:miter;stroke:rgb(0%,0%,0%);stroke-opacity:1;stroke-miterlimit:10;"
       d="M -0.00041875 0.000133 L 118.870675 0.000133 "
       transform="matrix(1,0,0,-1,150.39495,92.922008)"
       id="path57" />
    <path
       style=" stroke:none;fill-rule:evenodd;fill:rgb(0%,0%,0%);fill-opacity:1;"
       d="M 280.574219 92.921875 L 268.035156 96.394531 L 268.035156 89.453125 Z M 280.574219 92.921875 "
       id="path59" />
    <path
       style="fill:none;stroke-width:1;stroke-linecap:butt;stroke-linejoin:miter;stroke:rgb(0%,0%,0%);stroke-opacity:1;stroke-miterlimit:10;"
       d="M -0.00041875 -0.00021075 L 118.870675 -0.00021075 "
       transform="matrix(1,0,0,-1,150.39495,76.074008)"
       id="path61" />
    <path
       style=" stroke:none;fill-rule:evenodd;fill:rgb(0%,0%,0%);fill-opacity:1;"
       d="M 280.574219 76.074219 L 268.035156 79.542969 L 268.035156 72.601563 Z M 280.574219 76.074219 "
       id="path63" />
    <path
       style="fill:none;stroke-width:1;stroke-linecap:butt;stroke-linejoin:miter;stroke:rgb(0%,0%,0%);stroke-opacity:1;stroke-miterlimit:10;"
       d="M -0.00041875 -0.000242 L 118.870675 -0.000242 "
       transform="matrix(1,0,0,-1,150.14495,58.156008)"
       id="path65" />
    <path
       style=" stroke:none;fill-rule:evenodd;fill:rgb(0%,0%,0%);fill-opacity:1;"
       d="M 280.324219 58.15625 L 267.785156 61.625 L 267.785156 54.683594 Z M 280.324219 58.15625 "
       id="path67" />
    <path
       style="fill:none;stroke-width:1;stroke-linecap:butt;stroke-linejoin:miter;stroke:rgb(0%,0%,0%);stroke-opacity:1;stroke-miterlimit:10;"
       d="M 0.0001125 0.0006955 L 17.707144 37.14132 "
       transform="matrix(1,0,0,-1,211.91395,81.946008)"
       id="path69" />
    <path
       style=" stroke:none;fill-rule:evenodd;fill:rgb(0%,0%,0%);fill-opacity:1;"
       d="M 232.992188 37.992188 L 231.9375 46.863281 L 226.484375 44.113281 Z M 232.992188 37.992188 "
       id="path71" />
    <path
       style="fill:none;stroke-width:1;stroke-linecap:butt;stroke-linejoin:miter;stroke:rgb(0%,0%,0%);stroke-opacity:1;stroke-miterlimit:10;"
       d="M 0.0001125 0.0000705 L 0.500113 0.0000705 "
       transform="matrix(1,0,0,-1,211.91395,81.586008)"
       id="path73" />
    <path
       style="fill:none;stroke-width:1;stroke-linecap:butt;stroke-linejoin:miter;stroke:rgb(0%,0%,0%);stroke-opacity:1;stroke-dasharray:1.023,1.023;stroke-miterlimit:10;"
       d="M -0.00045 0.0000705 L 34.2808 0.0000705 "
       transform="matrix(1,0,0,-1,213.43795,81.586008)"
       id="path75" />
    <path
       style="fill:none;stroke-width:1;stroke-linecap:butt;stroke-linejoin:miter;stroke:rgb(0%,0%,0%);stroke-opacity:1;stroke-miterlimit:10;"
       d="M -0.00048125 0.0000705 L 0.499519 0.0000705 "
       transform="matrix(1,0,0,-1,248.23095,81.586008)"
       id="path77" />
    <path
       style="fill:none;stroke-width:1;stroke-linecap:butt;stroke-linejoin:miter;stroke:rgb(0%,0%,0%);stroke-opacity:1;stroke-miterlimit:10;"
       d="M -0.000075 0.0005705 C 0.160081 0.055258 0.331956 -0.0111483 0.4843 -0.0814608 C 1.429613 -0.503336 2.406175 -0.956461 3.042894 -1.768961 C 3.773363 -2.706461 3.925706 -3.956461 3.999925 -5.140055 C 4.023363 -5.538492 4.01555 -6.003336 3.70305 -6.253336 "
       transform="matrix(1,0,0,-1,215.29695,75.524008)"
       id="path79" />
    <path
       style=" stroke:none;fill-rule:nonzero;fill:rgb(100%,100%,100%);fill-opacity:1;"
       d="M 450.867188 107.84375 C 441.46875 121.503906 418.28125 121.867188 399.078125 108.65625 C 379.878906 95.441406 371.933594 73.65625 381.335938 59.996094 C 390.734375 46.335938 413.921875 45.972656 433.121094 59.1875 C 452.324219 72.398438 460.269531 94.1875 450.867188 107.84375 "
       id="path81" />
    <g
       clip-path="url(#clip3)"
       clip-rule="nonzero"
       id="g85">
      <path
         style="fill:none;stroke-width:2;stroke-linecap:butt;stroke-linejoin:miter;stroke:rgb(0%,0%,0%);stroke-opacity:1;stroke-miterlimit:10;"
         d="M 0.0002375 0.000258 C -9.3982 -13.659898 -32.5857 -14.023179 -51.788825 -0.812242 C -70.988044 12.402602 -78.933356 34.187758 -69.531012 47.847914 C -60.132575 61.508071 -36.945075 61.871352 -17.745856 48.656508 C 1.457269 35.445571 9.402581 13.656508 0.0002375 0.000258 Z M 0.0002375 0.000258 "
         transform="matrix(1,0,0,-1,450.86695,107.844008)"
         id="path83" />
    </g>
    <path
       style="fill:none;stroke-width:1;stroke-linecap:butt;stroke-linejoin:miter;stroke:rgb(0%,0%,0%);stroke-opacity:1;stroke-miterlimit:10;"
       d="M 0.00008125 -0.0001795 L 118.871175 -0.0001795 "
       transform="matrix(1,0,0,-1,354.58195,112.992008)"
       id="path87" />
    <path
       style=" stroke:none;fill-rule:evenodd;fill:rgb(0%,0%,0%);fill-opacity:1;"
       d="M 484.761719 112.992188 L 472.222656 116.464844 L 472.222656 109.519531 Z M 484.761719 112.992188 "
       id="path89" />
    <path
       style="fill:none;stroke-width:1;stroke-linecap:butt;stroke-linejoin:miter;stroke:rgb(0%,0%,0%);stroke-opacity:1;stroke-miterlimit:10;"
       d="M 0.00008125 0.0005705 L 118.871175 0.0005705 "
       transform="matrix(1,0,0,-1,354.58195,94.899008)"
       id="path91" />
    <path
       style=" stroke:none;fill-rule:evenodd;fill:rgb(0%,0%,0%);fill-opacity:1;"
       d="M 484.761719 94.898438 L 472.222656 98.371094 L 472.222656 91.429688 Z M 484.761719 94.898438 "
       id="path93" />
    <path
       style="fill:none;stroke-width:1;stroke-linecap:butt;stroke-linejoin:miter;stroke:rgb(0%,0%,0%);stroke-opacity:1;stroke-miterlimit:10;"
       d="M 0.00008125 0.00022675 L 118.871175 0.00022675 "
       transform="matrix(1,0,0,-1,354.58195,78.051008)"
       id="path95" />
    <path
       style=" stroke:none;fill-rule:evenodd;fill:rgb(0%,0%,0%);fill-opacity:1;"
       d="M 484.761719 78.050781 L 472.222656 81.519531 L 472.222656 74.578125 Z M 484.761719 78.050781 "
       id="path97" />
    <path
       style="fill:none;stroke-width:1;stroke-linecap:butt;stroke-linejoin:miter;stroke:rgb(0%,0%,0%);stroke-opacity:1;stroke-miterlimit:10;"
       d="M 0.00008125 0.0001955 L 118.867269 0.0001955 "
       transform="matrix(1,0,0,-1,354.33195,60.133008)"
       id="path99" />
    <path
       style=" stroke:none;fill-rule:evenodd;fill:rgb(0%,0%,0%);fill-opacity:1;"
       d="M 484.511719 60.132813 L 471.972656 63.601563 L 471.972656 56.660156 Z M 484.511719 60.132813 "
       id="path101" />
    <path
       style="fill:none;stroke-width:1;stroke-linecap:butt;stroke-linejoin:miter;stroke:rgb(0%,0%,0%);stroke-opacity:1;stroke-miterlimit:10;"
       d="M -0.0003875 0.000133 L 17.706644 37.140758 "
       transform="matrix(1,0,0,-1,416.10195,83.922008)"
       id="path103" />
    <path
       style=" stroke:none;fill-rule:evenodd;fill:rgb(0%,0%,0%);fill-opacity:1;"
       d="M 437.179688 39.96875 L 436.125 48.839844 L 430.671875 46.089844 Z M 437.179688 39.96875 "
       id="path105" />
    <path
       style="fill:none;stroke-width:1;stroke-linecap:butt;stroke-linejoin:miter;stroke:rgb(0%,0%,0%);stroke-opacity:1;stroke-miterlimit:10;"
       d="M -0.0003875 0.000508 L 0.499613 0.000508 "
       transform="matrix(1,0,0,-1,416.10195,83.563008)"
       id="path107" />
    <path
       style="fill:none;stroke-width:1;stroke-linecap:butt;stroke-linejoin:miter;stroke:rgb(0%,0%,0%);stroke-opacity:1;stroke-dasharray:1.023,1.023;stroke-miterlimit:10;"
       d="M 0.00005 0.000508 L 34.2813 0.000508 "
       transform="matrix(1,0,0,-1,417.62495,83.563008)"
       id="path109" />
    <path
       style="fill:none;stroke-width:1;stroke-linecap:butt;stroke-linejoin:miter;stroke:rgb(0%,0%,0%);stroke-opacity:1;stroke-miterlimit:10;"
       d="M 0.00001875 0.000508 L 0.500019 0.000508 "
       transform="matrix(1,0,0,-1,452.41795,83.563008)"
       id="path111" />
    <path
       style="fill:none;stroke-width:1;stroke-linecap:butt;stroke-linejoin:miter;stroke:rgb(0%,0%,0%);stroke-opacity:1;stroke-miterlimit:10;"
       d="M -0.000575 0.000008 C 0.159581 0.0546955 0.331456 -0.015617 0.4838 -0.0820233 C 1.425206 -0.503898 2.405675 -0.957023 3.042394 -1.769523 C 3.772863 -2.707023 3.925206 -3.957023 3.999425 -5.144523 C 4.022863 -5.542961 4.01505 -6.003898 3.70255 -6.253898 "
       transform="matrix(1,0,0,-1,419.48495,77.500008)"
       id="path113" />
    <path
       style=" stroke:none;fill-rule:nonzero;fill:rgb(0%,0%,0%);fill-opacity:1;"
       d="M 82.484375 71.777344 C 82.484375 71.121094 82.3125 69.730469 81.296875 69.730469 C 79.90625 69.730469 78.375 72.542969 78.375 74.824219 C 78.375 75.761719 78.65625 76.871094 79.5625 76.871094 C 80.96875 76.871094 82.484375 74.011719 82.484375 71.777344 Z M 79.421875 73.136719 C 79.59375 72.511719 79.796875 71.714844 80.203125 70.996094 C 80.46875 70.511719 80.828125 69.949219 81.28125 69.949219 C 81.765625 69.949219 81.828125 70.589844 81.828125 71.152344 C 81.828125 71.652344 81.75 72.152344 81.515625 73.136719 Z M 81.421875 73.464844 C 81.3125 73.917969 81.109375 74.761719 80.71875 75.480469 C 80.375 76.167969 80 76.652344 79.5625 76.652344 C 79.234375 76.652344 79.03125 76.355469 79.03125 75.433594 C 79.03125 75.011719 79.09375 74.433594 79.34375 73.464844 Z M 81.421875 73.464844 "
       id="path115" />
    <path
       style=" stroke:none;fill-rule:nonzero;fill:rgb(0%,0%,0%);fill-opacity:1;"
       d="M 94.246094 35.160156 C 94.105469 35.300781 93.777344 35.582031 93.777344 35.753906 C 93.777344 35.847656 93.871094 35.957031 93.964844 35.957031 C 94.058594 35.957031 94.105469 35.878906 94.167969 35.816406 C 94.277344 35.675781 94.511719 35.394531 94.949219 35.175781 C 95.011719 35.128906 95.121094 35.082031 95.121094 34.972656 C 95.121094 34.863281 95.042969 34.816406 94.980469 34.769531 C 94.761719 34.613281 94.652344 34.441406 94.574219 34.207031 C 94.542969 34.113281 94.511719 33.972656 94.371094 33.972656 C 94.230469 33.972656 94.167969 34.113281 94.167969 34.191406 C 94.167969 34.238281 94.246094 34.550781 94.402344 34.769531 L 91.042969 34.769531 C 90.886719 34.769531 90.699219 34.769531 90.699219 34.972656 C 90.699219 35.160156 90.886719 35.160156 91.042969 35.160156 Z M 94.246094 35.160156 "
       id="path117" />
    <path
       style=" stroke:none;fill-rule:nonzero;fill:rgb(0%,0%,0%);fill-opacity:1;"
       d="M 91.164063 37.597656 C 91.226563 37.394531 91.320313 37.003906 91.320313 36.957031 C 91.320313 36.785156 91.195313 36.691406 91.023438 36.691406 C 91.007813 36.691406 90.726563 36.707031 90.632813 37.050781 L 89.195313 42.816406 C 89.164063 42.941406 89.164063 42.957031 89.164063 42.988281 C 89.164063 43.128906 89.273438 43.253906 89.445313 43.253906 C 89.648438 43.253906 89.773438 43.066406 89.789063 43.035156 C 89.835938 42.957031 89.960938 42.425781 90.335938 40.894531 C 90.664063 41.160156 91.117188 41.207031 91.304688 41.207031 C 92.007813 41.207031 92.398438 40.753906 92.632813 40.472656 C 92.726563 40.925781 93.101563 41.207031 93.539063 41.207031 C 93.882813 41.207031 94.117188 40.972656 94.273438 40.660156 C 94.445313 40.300781 94.570313 39.691406 94.570313 39.675781 C 94.570313 39.566406 94.476563 39.566406 94.445313 39.566406 C 94.351563 39.566406 94.335938 39.613281 94.304688 39.753906 C 94.148438 40.394531 93.960938 40.988281 93.554688 40.988281 C 93.289063 40.988281 93.257813 40.722656 93.257813 40.535156 C 93.257813 40.316406 93.367188 39.847656 93.445313 39.488281 L 93.726563 38.410156 C 93.757813 38.269531 93.867188 37.894531 93.898438 37.738281 C 93.945313 37.503906 94.054688 37.128906 94.054688 37.066406 C 94.054688 36.894531 93.914063 36.800781 93.757813 36.800781 C 93.710938 36.800781 93.445313 36.816406 93.367188 37.144531 L 92.898438 39.019531 C 92.789063 39.519531 92.679688 39.925781 92.648438 40.035156 C 92.632813 40.082031 92.164063 40.988281 91.351563 40.988281 C 90.851563 40.988281 90.617188 40.660156 90.617188 40.113281 C 90.617188 39.832031 90.679688 39.550781 90.757813 39.269531 Z M 91.164063 37.597656 "
       id="path119" />
    <path
       style=" stroke:none;fill-rule:nonzero;fill:rgb(0%,0%,0%);fill-opacity:1;"
       d="M 97.199219 38.15625 C 97.199219 37.96875 97.199219 37.96875 96.996094 37.96875 C 96.542969 38.40625 95.917969 38.40625 95.636719 38.40625 L 95.636719 38.65625 C 95.792969 38.65625 96.261719 38.65625 96.636719 38.46875 L 96.636719 42.015625 C 96.636719 42.25 96.636719 42.34375 95.949219 42.34375 L 95.683594 42.34375 L 95.683594 42.59375 C 95.808594 42.59375 96.667969 42.5625 96.917969 42.5625 C 97.136719 42.5625 98.011719 42.59375 98.167969 42.59375 L 98.167969 42.34375 L 97.902344 42.34375 C 97.199219 42.34375 97.199219 42.25 97.199219 42.015625 Z M 97.199219 38.15625 "
       id="path121" />
    <path
       style=" stroke:none;fill-rule:nonzero;fill:rgb(0%,0%,0%);fill-opacity:1;"
       d="M 115.871094 81.3125 C 115.730469 81.453125 115.402344 81.734375 115.402344 81.90625 C 115.402344 82 115.496094 82.109375 115.589844 82.109375 C 115.683594 82.109375 115.730469 82.03125 115.792969 81.96875 C 115.902344 81.828125 116.136719 81.546875 116.574219 81.328125 C 116.636719 81.28125 116.746094 81.234375 116.746094 81.125 C 116.746094 81.015625 116.667969 80.96875 116.605469 80.921875 C 116.386719 80.765625 116.277344 80.59375 116.199219 80.359375 C 116.167969 80.265625 116.136719 80.125 115.996094 80.125 C 115.855469 80.125 115.792969 80.265625 115.792969 80.34375 C 115.792969 80.390625 115.871094 80.703125 116.027344 80.921875 L 112.667969 80.921875 C 112.511719 80.921875 112.324219 80.921875 112.324219 81.125 C 112.324219 81.3125 112.511719 81.3125 112.667969 81.3125 Z M 115.871094 81.3125 "
       id="path123" />
    <path
       style=" stroke:none;fill-rule:nonzero;fill:rgb(0%,0%,0%);fill-opacity:1;"
       d="M 116.28125 83.722656 C 116.375 83.363281 116.390625 83.269531 117.109375 83.269531 C 117.375 83.269531 117.453125 83.269531 117.453125 83.066406 C 117.453125 82.957031 117.34375 82.957031 117.3125 82.957031 C 117.03125 82.957031 116.3125 82.988281 116.03125 82.988281 C 115.75 82.988281 115.046875 82.957031 114.75 82.957031 C 114.671875 82.957031 114.5625 82.957031 114.5625 83.160156 C 114.5625 83.269531 114.65625 83.269531 114.84375 83.269531 C 114.859375 83.269531 115.046875 83.269531 115.21875 83.285156 C 115.40625 83.316406 115.484375 83.316406 115.484375 83.457031 C 115.484375 83.488281 115.484375 83.503906 115.453125 83.644531 L 114.859375 86.066406 L 111.8125 86.066406 L 112.40625 83.722656 C 112.484375 83.363281 112.515625 83.269531 113.234375 83.269531 C 113.5 83.269531 113.578125 83.269531 113.578125 83.066406 C 113.578125 82.957031 113.46875 82.957031 113.4375 82.957031 C 113.15625 82.957031 112.4375 82.988281 112.15625 82.988281 C 111.875 82.988281 111.171875 82.957031 110.875 82.957031 C 110.796875 82.957031 110.6875 82.957031 110.6875 83.160156 C 110.6875 83.269531 110.78125 83.269531 110.96875 83.269531 C 110.984375 83.269531 111.171875 83.269531 111.34375 83.285156 C 111.515625 83.316406 111.609375 83.316406 111.609375 83.457031 C 111.609375 83.488281 111.609375 83.519531 111.578125 83.644531 L 110.234375 88.988281 C 110.140625 89.378906 110.125 89.457031 109.328125 89.457031 C 109.15625 89.457031 109.0625 89.457031 109.0625 89.660156 C 109.0625 89.769531 109.1875 89.769531 109.203125 89.769531 C 109.484375 89.769531 110.1875 89.738281 110.46875 89.738281 C 110.671875 89.738281 110.890625 89.753906 111.109375 89.753906 C 111.328125 89.753906 111.546875 89.769531 111.75 89.769531 C 111.828125 89.769531 111.953125 89.769531 111.953125 89.566406 C 111.953125 89.457031 111.859375 89.457031 111.671875 89.457031 C 111.296875 89.457031 111.03125 89.457031 111.03125 89.285156 C 111.03125 89.222656 111.046875 89.175781 111.046875 89.113281 L 111.734375 86.378906 L 114.765625 86.378906 C 114.359375 88.035156 114.125 88.988281 114.078125 89.128906 C 113.984375 89.457031 113.796875 89.457031 113.171875 89.457031 C 113.03125 89.457031 112.9375 89.457031 112.9375 89.660156 C 112.9375 89.769531 113.0625 89.769531 113.078125 89.769531 C 113.359375 89.769531 114.0625 89.738281 114.34375 89.738281 C 114.546875 89.738281 114.765625 89.753906 114.984375 89.753906 C 115.203125 89.753906 115.421875 89.769531 115.625 89.769531 C 115.703125 89.769531 115.828125 89.769531 115.828125 89.566406 C 115.828125 89.457031 115.734375 89.457031 115.546875 89.457031 C 115.1875 89.457031 114.90625 89.457031 114.90625 89.285156 C 114.90625 89.222656 114.921875 89.175781 114.9375 89.113281 Z M 116.28125 83.722656 "
       id="path125" />
    <path
       style=" stroke:none;fill-rule:nonzero;fill:rgb(0%,0%,0%);fill-opacity:1;"
       d="M 227.984375 70.277344 C 227.984375 69.621094 227.8125 68.230469 226.796875 68.230469 C 225.40625 68.230469 223.875 71.042969 223.875 73.324219 C 223.875 74.261719 224.15625 75.371094 225.0625 75.371094 C 226.46875 75.371094 227.984375 72.511719 227.984375 70.277344 Z M 224.921875 71.636719 C 225.09375 71.011719 225.296875 70.214844 225.703125 69.496094 C 225.96875 69.011719 226.328125 68.449219 226.78125 68.449219 C 227.265625 68.449219 227.328125 69.089844 227.328125 69.652344 C 227.328125 70.152344 227.25 70.652344 227.015625 71.636719 Z M 226.921875 71.964844 C 226.8125 72.417969 226.609375 73.261719 226.21875 73.980469 C 225.875 74.667969 225.5 75.152344 225.0625 75.152344 C 224.734375 75.152344 224.53125 74.855469 224.53125 73.933594 C 224.53125 73.511719 224.59375 72.933594 224.84375 71.964844 Z M 226.921875 71.964844 "
       id="path127" />
    <path
       style=" stroke:none;fill-rule:nonzero;fill:rgb(0%,0%,0%);fill-opacity:1;"
       d="M 241.9375 35.402344 C 241.796875 35.542969 241.46875 35.824219 241.46875 35.996094 C 241.46875 36.089844 241.5625 36.199219 241.65625 36.199219 C 241.75 36.199219 241.796875 36.121094 241.859375 36.058594 C 241.96875 35.917969 242.203125 35.636719 242.640625 35.417969 C 242.703125 35.371094 242.8125 35.324219 242.8125 35.214844 C 242.8125 35.105469 242.734375 35.058594 242.671875 35.011719 C 242.453125 34.855469 242.34375 34.683594 242.265625 34.449219 C 242.234375 34.355469 242.203125 34.214844 242.0625 34.214844 C 241.921875 34.214844 241.859375 34.355469 241.859375 34.433594 C 241.859375 34.480469 241.9375 34.792969 242.09375 35.011719 L 238.734375 35.011719 C 238.578125 35.011719 238.390625 35.011719 238.390625 35.214844 C 238.390625 35.402344 238.578125 35.402344 238.734375 35.402344 Z M 241.9375 35.402344 "
       id="path129" />
    <path
       style=" stroke:none;fill-rule:nonzero;fill:rgb(0%,0%,0%);fill-opacity:1;"
       d="M 238.855469 37.839844 C 238.917969 37.636719 239.011719 37.246094 239.011719 37.199219 C 239.011719 37.027344 238.886719 36.933594 238.714844 36.933594 C 238.699219 36.933594 238.417969 36.949219 238.324219 37.292969 L 236.886719 43.058594 C 236.855469 43.183594 236.855469 43.199219 236.855469 43.230469 C 236.855469 43.371094 236.964844 43.496094 237.136719 43.496094 C 237.339844 43.496094 237.464844 43.308594 237.480469 43.277344 C 237.527344 43.199219 237.652344 42.667969 238.027344 41.136719 C 238.355469 41.402344 238.808594 41.449219 238.996094 41.449219 C 239.699219 41.449219 240.089844 40.996094 240.324219 40.714844 C 240.417969 41.167969 240.792969 41.449219 241.230469 41.449219 C 241.574219 41.449219 241.808594 41.214844 241.964844 40.902344 C 242.136719 40.542969 242.261719 39.933594 242.261719 39.917969 C 242.261719 39.808594 242.167969 39.808594 242.136719 39.808594 C 242.042969 39.808594 242.027344 39.855469 241.996094 39.996094 C 241.839844 40.636719 241.652344 41.230469 241.246094 41.230469 C 240.980469 41.230469 240.949219 40.964844 240.949219 40.777344 C 240.949219 40.558594 241.058594 40.089844 241.136719 39.730469 L 241.417969 38.652344 C 241.449219 38.511719 241.558594 38.136719 241.589844 37.980469 C 241.636719 37.746094 241.746094 37.371094 241.746094 37.308594 C 241.746094 37.136719 241.605469 37.042969 241.449219 37.042969 C 241.402344 37.042969 241.136719 37.058594 241.058594 37.386719 L 240.589844 39.261719 C 240.480469 39.761719 240.371094 40.167969 240.339844 40.277344 C 240.324219 40.324219 239.855469 41.230469 239.042969 41.230469 C 238.542969 41.230469 238.308594 40.902344 238.308594 40.355469 C 238.308594 40.074219 238.371094 39.792969 238.449219 39.511719 Z M 238.855469 37.839844 "
       id="path131" />
    <path
       style=" stroke:none;fill-rule:nonzero;fill:rgb(0%,0%,0%);fill-opacity:1;"
       d="M 246.074219 41.570313 L 245.839844 41.570313 C 245.824219 41.726563 245.746094 42.132813 245.652344 42.195313 C 245.605469 42.242188 245.074219 42.242188 244.964844 42.242188 L 243.683594 42.242188 C 244.417969 41.601563 244.667969 41.398438 245.074219 41.070313 C 245.589844 40.664063 246.074219 40.226563 246.074219 39.570313 C 246.074219 38.726563 245.339844 38.210938 244.449219 38.210938 C 243.589844 38.210938 242.996094 38.820313 242.996094 39.460938 C 242.996094 39.804688 243.292969 39.851563 243.371094 39.851563 C 243.527344 39.851563 243.730469 39.726563 243.730469 39.476563 C 243.730469 39.351563 243.683594 39.101563 243.324219 39.101563 C 243.542969 38.617188 244.011719 38.460938 244.339844 38.460938 C 245.042969 38.460938 245.402344 39.007813 245.402344 39.570313 C 245.402344 40.179688 244.964844 40.648438 244.746094 40.898438 L 243.074219 42.570313 C 242.996094 42.632813 242.996094 42.648438 242.996094 42.835938 L 245.871094 42.835938 Z M 246.074219 41.570313 "
       id="path133" />
    <path
       style=" stroke:none;fill-rule:nonzero;fill:rgb(0%,0%,0%);fill-opacity:1;"
       d="M 446.148438 36.570313 C 446.007813 36.710938 445.679688 36.992188 445.679688 37.164063 C 445.679688 37.257813 445.773438 37.367188 445.867188 37.367188 C 445.960938 37.367188 446.007813 37.289063 446.070313 37.226563 C 446.179688 37.085938 446.414063 36.804688 446.851563 36.585938 C 446.914063 36.539063 447.023438 36.492188 447.023438 36.382813 C 447.023438 36.273438 446.945313 36.226563 446.882813 36.179688 C 446.664063 36.023438 446.554688 35.851563 446.476563 35.617188 C 446.445313 35.523438 446.414063 35.382813 446.273438 35.382813 C 446.132813 35.382813 446.070313 35.523438 446.070313 35.601563 C 446.070313 35.648438 446.148438 35.960938 446.304688 36.179688 L 442.945313 36.179688 C 442.789063 36.179688 442.601563 36.179688 442.601563 36.382813 C 442.601563 36.570313 442.789063 36.570313 442.945313 36.570313 Z M 446.148438 36.570313 "
       id="path135" />
    <path
       style=" stroke:none;fill-rule:nonzero;fill:rgb(0%,0%,0%);fill-opacity:1;"
       d="M 443.066406 39.007813 C 443.128906 38.804688 443.222656 38.414063 443.222656 38.367188 C 443.222656 38.195313 443.097656 38.101563 442.925781 38.101563 C 442.910156 38.101563 442.628906 38.117188 442.535156 38.460938 L 441.097656 44.226563 C 441.066406 44.351563 441.066406 44.367188 441.066406 44.398438 C 441.066406 44.539063 441.175781 44.664063 441.347656 44.664063 C 441.550781 44.664063 441.675781 44.476563 441.691406 44.445313 C 441.738281 44.367188 441.863281 43.835938 442.238281 42.304688 C 442.566406 42.570313 443.019531 42.617188 443.207031 42.617188 C 443.910156 42.617188 444.300781 42.164063 444.535156 41.882813 C 444.628906 42.335938 445.003906 42.617188 445.441406 42.617188 C 445.785156 42.617188 446.019531 42.382813 446.175781 42.070313 C 446.347656 41.710938 446.472656 41.101563 446.472656 41.085938 C 446.472656 40.976563 446.378906 40.976563 446.347656 40.976563 C 446.253906 40.976563 446.238281 41.023438 446.207031 41.164063 C 446.050781 41.804688 445.863281 42.398438 445.457031 42.398438 C 445.191406 42.398438 445.160156 42.132813 445.160156 41.945313 C 445.160156 41.726563 445.269531 41.257813 445.347656 40.898438 L 445.628906 39.820313 C 445.660156 39.679688 445.769531 39.304688 445.800781 39.148438 C 445.847656 38.914063 445.957031 38.539063 445.957031 38.476563 C 445.957031 38.304688 445.816406 38.210938 445.660156 38.210938 C 445.613281 38.210938 445.347656 38.226563 445.269531 38.554688 L 444.800781 40.429688 C 444.691406 40.929688 444.582031 41.335938 444.550781 41.445313 C 444.535156 41.492188 444.066406 42.398438 443.253906 42.398438 C 442.753906 42.398438 442.519531 42.070313 442.519531 41.523438 C 442.519531 41.242188 442.582031 40.960938 442.660156 40.679688 Z M 443.066406 39.007813 "
       id="path137" />
    <path
       style=" stroke:none;fill-rule:nonzero;fill:rgb(0%,0%,0%);fill-opacity:1;"
       d="M 447.613281 43.5625 C 447.597656 43.65625 447.550781 43.828125 447.550781 43.84375 C 447.550781 44 447.675781 44.0625 447.785156 44.0625 C 447.910156 44.0625 448.019531 43.984375 448.066406 43.921875 C 448.097656 43.859375 448.144531 43.625 448.191406 43.484375 C 448.222656 43.359375 448.300781 43.03125 448.332031 42.859375 C 448.378906 42.703125 448.425781 42.546875 448.457031 42.390625 C 448.535156 42.109375 448.550781 42.046875 448.753906 41.765625 C 448.941406 41.484375 449.269531 41.125 449.800781 41.125 C 450.191406 41.125 450.207031 41.484375 450.207031 41.609375 C 450.207031 42.03125 449.910156 42.796875 449.800781 43.09375 C 449.722656 43.296875 449.691406 43.359375 449.691406 43.46875 C 449.691406 43.84375 449.988281 44.0625 450.347656 44.0625 C 451.050781 44.0625 451.347656 43.109375 451.347656 43 C 451.347656 42.90625 451.269531 42.90625 451.238281 42.90625 C 451.144531 42.90625 451.144531 42.953125 451.113281 43.03125 C 450.957031 43.59375 450.644531 43.875 450.378906 43.875 C 450.222656 43.875 450.191406 43.78125 450.191406 43.625 C 450.191406 43.46875 450.238281 43.375 450.363281 43.0625 C 450.441406 42.84375 450.722656 42.109375 450.722656 41.71875 C 450.722656 41.046875 450.191406 40.921875 449.816406 40.921875 C 449.238281 40.921875 448.847656 41.28125 448.644531 41.5625 C 448.597656 41.078125 448.191406 40.921875 447.894531 40.921875 C 447.597656 40.921875 447.441406 41.140625 447.347656 41.296875 C 447.191406 41.5625 447.097656 41.953125 447.097656 42 C 447.097656 42.078125 447.191406 42.078125 447.222656 42.078125 C 447.316406 42.078125 447.316406 42.0625 447.363281 41.875 C 447.472656 41.46875 447.613281 41.125 447.878906 41.125 C 448.066406 41.125 448.113281 41.28125 448.113281 41.46875 C 448.113281 41.59375 448.050781 41.859375 447.988281 42.046875 C 447.941406 42.234375 447.878906 42.515625 447.847656 42.671875 Z M 447.613281 43.5625 "
       id="path139" />
    <path
       style=" stroke:none;fill-rule:nonzero;fill:rgb(0%,0%,0%);fill-opacity:1;"
       d="M 47.621094 18.804688 C 47.621094 17.554688 46.789063 16.5 45.734375 16.242188 L 44.105469 15.863281 C 43.308594 15.664063 42.832031 14.988281 42.832031 14.253906 C 42.832031 13.359375 43.507813 12.582031 44.5 12.582031 C 46.609375 12.582031 46.886719 14.671875 46.96875 15.226563 C 46.984375 15.308594 46.984375 15.386719 47.125 15.386719 C 47.285156 15.386719 47.285156 15.328125 47.285156 15.089844 L 47.285156 12.542969 C 47.285156 12.324219 47.285156 12.226563 47.144531 12.226563 C 47.066406 12.226563 47.046875 12.246094 46.96875 12.402344 L 46.507813 13.121094 C 46.132813 12.742188 45.613281 12.226563 44.480469 12.226563 C 43.070313 12.226563 42.015625 13.339844 42.015625 14.691406 C 42.015625 15.742188 42.691406 16.679688 43.667969 17.015625 C 43.804688 17.058594 44.460938 17.214844 45.355469 17.433594 C 45.695313 17.511719 46.070313 17.613281 46.429688 18.070313 C 46.6875 18.40625 46.828125 18.824219 46.828125 19.242188 C 46.828125 20.136719 46.191406 21.050781 45.117188 21.050781 C 44.757813 21.050781 43.785156 20.992188 43.109375 20.375 C 42.375 19.679688 42.332031 18.886719 42.332031 18.429688 C 42.3125 18.289063 42.214844 18.289063 42.175781 18.289063 C 42.015625 18.289063 42.015625 18.386719 42.015625 18.605469 L 42.015625 21.152344 C 42.015625 21.371094 42.015625 21.449219 42.15625 21.449219 C 42.234375 21.449219 42.253906 21.429688 42.332031 21.292969 C 42.332031 21.292969 42.375 21.230469 42.789063 20.554688 C 43.1875 20.992188 44.003906 21.449219 45.136719 21.449219 C 46.609375 21.449219 47.621094 20.21875 47.621094 18.804688 Z M 47.621094 18.804688 "
       id="path141" />
    <path
       style=" stroke:none;fill-rule:nonzero;fill:rgb(0%,0%,0%);fill-opacity:1;"
       d="M 51.488281 21.171875 L 51.488281 20.773438 C 50.632813 20.773438 50.59375 20.714844 50.59375 20.21875 L 50.59375 15.566406 L 48.824219 15.703125 L 48.824219 16.101563 C 49.640625 16.101563 49.761719 16.179688 49.761719 16.796875 L 49.761719 20.21875 C 49.761719 20.773438 49.621094 20.773438 48.765625 20.773438 L 48.765625 21.171875 L 50.15625 21.132813 C 50.613281 21.132813 51.050781 21.152344 51.488281 21.171875 Z M 50.773438 13.515625 C 50.773438 13.160156 50.496094 12.839844 50.117188 12.839844 C 49.679688 12.839844 49.421875 13.199219 49.421875 13.515625 C 49.421875 13.855469 49.71875 14.171875 50.097656 14.171875 C 50.535156 14.171875 50.773438 13.835938 50.773438 13.515625 Z M 50.773438 13.515625 "
       id="path143" />
    <path
       style=" stroke:none;fill-rule:nonzero;fill:rgb(0%,0%,0%);fill-opacity:1;"
       d="M 56.445313 19.542969 C 56.445313 18.886719 56.066406 18.488281 55.910156 18.347656 C 55.492188 17.929688 54.992188 17.832031 54.457031 17.730469 C 53.742188 17.59375 52.90625 17.433594 52.90625 16.699219 C 52.90625 16.242188 53.222656 15.722656 54.316406 15.722656 C 55.710938 15.722656 55.789063 16.878906 55.808594 17.253906 C 55.808594 17.375 55.949219 17.375 55.949219 17.375 C 56.128906 17.375 56.128906 17.316406 56.128906 17.074219 L 56.128906 15.785156 C 56.128906 15.585938 56.128906 15.484375 55.988281 15.484375 C 55.925781 15.484375 55.886719 15.484375 55.730469 15.644531 C 55.691406 15.683594 55.570313 15.804688 55.511719 15.84375 C 55.03125 15.484375 54.515625 15.484375 54.316406 15.484375 C 52.765625 15.484375 52.289063 16.339844 52.289063 17.058594 C 52.289063 17.492188 52.488281 17.851563 52.828125 18.128906 C 53.242188 18.449219 53.601563 18.527344 54.515625 18.707031 C 54.796875 18.765625 55.828125 18.964844 55.828125 19.878906 C 55.828125 20.515625 55.390625 21.03125 54.398438 21.03125 C 53.324219 21.03125 52.867188 20.316406 52.628906 19.222656 C 52.585938 19.066406 52.585938 19.023438 52.449219 19.023438 C 52.289063 19.023438 52.289063 19.105469 52.289063 19.324219 L 52.289063 21.011719 C 52.289063 21.230469 52.289063 21.308594 52.429688 21.308594 C 52.488281 21.308594 52.507813 21.292969 52.746094 21.050781 C 52.765625 21.03125 52.765625 21.011719 53.007813 20.773438 C 53.5625 21.292969 54.136719 21.308594 54.398438 21.308594 C 55.847656 21.308594 56.445313 20.457031 56.445313 19.542969 Z M 56.445313 19.542969 "
       id="path145" />
    <path
       style=" stroke:none;fill-rule:nonzero;fill:rgb(0%,0%,0%);fill-opacity:1;"
       d="M 61.078125 19.601563 L 61.078125 18.886719 L 60.757813 18.886719 L 60.757813 19.582031 C 60.757813 20.515625 60.382813 20.992188 59.902344 20.992188 C 59.050781 20.992188 59.050781 19.839844 59.050781 19.621094 L 59.050781 16.101563 L 60.878906 16.101563 L 60.878906 15.703125 L 59.050781 15.703125 L 59.050781 13.378906 L 58.730469 13.378906 C 58.730469 14.410156 58.355469 15.765625 57.101563 15.824219 L 57.101563 16.101563 L 58.175781 16.101563 L 58.175781 19.601563 C 58.175781 21.152344 59.367188 21.308594 59.824219 21.308594 C 60.71875 21.308594 61.078125 20.414063 61.078125 19.601563 Z M 61.078125 19.601563 "
       id="path147" />
    <path
       style=" stroke:none;fill-rule:nonzero;fill:rgb(0%,0%,0%);fill-opacity:1;"
       d="M 67.066406 19.660156 C 67.066406 19.539063 66.96875 19.5 66.890625 19.5 C 66.789063 19.5 66.75 19.578125 66.730469 19.679688 C 66.292969 20.992188 65.140625 20.992188 65.019531 20.992188 C 64.382813 20.992188 63.886719 20.613281 63.589844 20.136719 C 63.210938 19.539063 63.210938 18.703125 63.210938 18.246094 L 66.75 18.246094 C 67.027344 18.246094 67.066406 18.246094 67.066406 17.96875 C 67.066406 16.71875 66.371094 15.484375 64.800781 15.484375 C 63.332031 15.484375 62.15625 16.796875 62.15625 18.386719 C 62.15625 20.078125 63.488281 21.308594 64.941406 21.308594 C 66.492188 21.308594 67.066406 19.898438 67.066406 19.660156 Z M 66.234375 17.96875 L 63.210938 17.96875 C 63.289063 16.082031 64.363281 15.761719 64.800781 15.761719 C 66.09375 15.761719 66.234375 17.472656 66.234375 17.96875 Z M 66.234375 17.96875 "
       id="path149" />
    <path
       style=" stroke:none;fill-rule:nonzero;fill:rgb(0%,0%,0%);fill-opacity:1;"
       d="M 77.742188 21.171875 L 77.742188 20.773438 C 77.085938 20.773438 76.769531 20.773438 76.75 20.398438 L 76.75 17.96875 C 76.75 16.878906 76.75 16.5 76.351563 16.042969 C 76.175781 15.824219 75.757813 15.566406 75.019531 15.566406 C 73.964844 15.566406 73.390625 16.320313 73.191406 16.816406 C 73.011719 15.703125 72.078125 15.566406 71.5 15.566406 C 70.566406 15.566406 69.96875 16.101563 69.613281 16.898438 L 69.613281 15.566406 L 67.824219 15.703125 L 67.824219 16.101563 C 68.71875 16.101563 68.816406 16.179688 68.816406 16.816406 L 68.816406 20.21875 C 68.816406 20.773438 68.679688 20.773438 67.824219 20.773438 L 67.824219 21.171875 L 69.273438 21.132813 L 70.6875 21.171875 L 70.6875 20.773438 C 69.832031 20.773438 69.691406 20.773438 69.691406 20.21875 L 69.691406 17.871094 C 69.691406 16.558594 70.605469 15.84375 71.402344 15.84375 C 72.214844 15.84375 72.355469 16.519531 72.355469 17.253906 L 72.355469 20.21875 C 72.355469 20.773438 72.214844 20.773438 71.363281 20.773438 L 71.363281 21.171875 L 72.792969 21.132813 L 74.207031 21.171875 L 74.207031 20.773438 C 73.371094 20.773438 73.230469 20.773438 73.230469 20.21875 L 73.230469 17.871094 C 73.230469 16.558594 74.125 15.84375 74.941406 15.84375 C 75.734375 15.84375 75.875 16.519531 75.875 17.253906 L 75.875 20.21875 C 75.875 20.773438 75.734375 20.773438 74.882813 20.773438 L 74.882813 21.171875 L 76.3125 21.132813 Z M 77.742188 21.171875 "
       id="path151" />
    <path
       style=" stroke:none;fill-rule:nonzero;fill:rgb(0%,0%,0%);fill-opacity:1;"
       d="M 84.105469 20.039063 L 84.105469 19.324219 L 83.789063 19.324219 L 83.789063 20.039063 C 83.789063 20.773438 83.46875 20.855469 83.332031 20.855469 C 82.914063 20.855469 82.875 20.277344 82.875 20.21875 L 82.875 17.691406 C 82.875 17.15625 82.875 16.660156 82.417969 16.179688 C 81.917969 15.683594 81.28125 15.484375 80.667969 15.484375 C 79.632813 15.484375 78.757813 16.082031 78.757813 16.917969 C 78.757813 17.292969 79.015625 17.511719 79.335938 17.511719 C 79.691406 17.511719 79.929688 17.253906 79.929688 16.9375 C 79.929688 16.777344 79.851563 16.359375 79.273438 16.359375 C 79.613281 15.902344 80.25 15.765625 80.648438 15.765625 C 81.265625 15.765625 82 16.261719 82 17.394531 L 82 17.851563 C 81.34375 17.890625 80.449219 17.929688 79.652344 18.308594 C 78.699219 18.746094 78.378906 19.402344 78.378906 19.960938 C 78.378906 20.992188 79.613281 21.308594 80.410156 21.308594 C 81.265625 21.308594 81.839844 20.792969 82.078125 20.21875 C 82.136719 20.714844 82.476563 21.25 83.074219 21.25 C 83.332031 21.25 84.105469 21.074219 84.105469 20.039063 Z M 82 19.402344 C 82 20.59375 81.085938 21.03125 80.507813 21.03125 C 79.890625 21.03125 79.375 20.59375 79.375 19.960938 C 79.375 19.261719 79.890625 18.210938 82 18.128906 Z M 82 19.402344 "
       id="path153" />
    <path
       style=" stroke:none;fill-rule:nonzero;fill:rgb(0%,0%,0%);fill-opacity:1;"
       d="M 93.839844 21.171875 L 93.839844 20.773438 L 93.441406 20.773438 C 92.289063 20.773438 92.269531 20.632813 92.269531 20.179688 L 92.269531 13.058594 C 92.269531 12.742188 92.269531 12.722656 91.96875 12.722656 C 91.175781 13.539063 90.0625 13.539063 89.664063 13.539063 L 89.664063 13.933594 C 89.921875 13.933594 90.65625 13.933594 91.3125 13.597656 L 91.3125 20.179688 C 91.3125 20.632813 91.273438 20.773438 90.140625 20.773438 L 89.742188 20.773438 L 89.742188 21.171875 C 90.179688 21.132813 91.273438 21.132813 91.789063 21.132813 C 92.289063 21.132813 93.402344 21.132813 93.839844 21.171875 Z M 93.839844 21.171875 "
       id="path155" />
    <path
       style=" stroke:none;fill-rule:nonzero;fill:rgb(0%,0%,0%);fill-opacity:1;"
       d="M 196.363281 18.765625 C 196.363281 17.511719 195.527344 16.457031 194.472656 16.199219 L 192.84375 15.820313 C 192.046875 15.625 191.570313 14.949219 191.570313 14.210938 C 191.570313 13.316406 192.246094 12.542969 193.238281 12.542969 C 195.347656 12.542969 195.625 14.628906 195.707031 15.1875 C 195.726563 15.265625 195.726563 15.34375 195.863281 15.34375 C 196.023438 15.34375 196.023438 15.285156 196.023438 15.046875 L 196.023438 12.503906 C 196.023438 12.285156 196.023438 12.183594 195.882813 12.183594 C 195.804688 12.183594 195.785156 12.203125 195.707031 12.363281 L 195.246094 13.078125 C 194.871094 12.699219 194.351563 12.183594 193.21875 12.183594 C 191.808594 12.183594 190.753906 13.296875 190.753906 14.648438 C 190.753906 15.703125 191.429688 16.636719 192.40625 16.976563 C 192.542969 17.015625 193.199219 17.175781 194.09375 17.390625 C 194.433594 17.472656 194.808594 17.570313 195.167969 18.027344 C 195.425781 18.367188 195.566406 18.785156 195.566406 19.203125 C 195.566406 20.097656 194.929688 21.011719 193.855469 21.011719 C 193.5 21.011719 192.523438 20.953125 191.847656 20.335938 C 191.113281 19.640625 191.074219 18.84375 191.074219 18.386719 C 191.050781 18.246094 190.953125 18.246094 190.914063 18.246094 C 190.753906 18.246094 190.753906 18.347656 190.753906 18.566406 L 190.753906 21.109375 C 190.753906 21.328125 190.753906 21.410156 190.894531 21.410156 C 190.972656 21.410156 190.992188 21.390625 191.074219 21.25 C 191.074219 21.25 191.113281 21.191406 191.53125 20.515625 C 191.929688 20.953125 192.742188 21.410156 193.875 21.410156 C 195.347656 21.410156 196.363281 20.175781 196.363281 18.765625 Z M 196.363281 18.765625 "
       id="path157" />
    <path
       style=" stroke:none;fill-rule:nonzero;fill:rgb(0%,0%,0%);fill-opacity:1;"
       d="M 200.226563 21.128906 L 200.226563 20.730469 C 199.375 20.730469 199.332031 20.671875 199.332031 20.175781 L 199.332031 15.523438 L 197.5625 15.664063 L 197.5625 16.0625 C 198.378906 16.0625 198.5 16.140625 198.5 16.757813 L 198.5 20.175781 C 198.5 20.730469 198.359375 20.730469 197.503906 20.730469 L 197.503906 21.128906 L 198.894531 21.089844 C 199.355469 21.089844 199.789063 21.109375 200.226563 21.128906 Z M 199.511719 13.476563 C 199.511719 13.117188 199.234375 12.800781 198.855469 12.800781 C 198.417969 12.800781 198.160156 13.15625 198.160156 13.476563 C 198.160156 13.8125 198.460938 14.132813 198.835938 14.132813 C 199.273438 14.132813 199.511719 13.792969 199.511719 13.476563 Z M 199.511719 13.476563 "
       id="path159" />
    <path
       style=" stroke:none;fill-rule:nonzero;fill:rgb(0%,0%,0%);fill-opacity:1;"
       d="M 205.183594 19.5 C 205.183594 18.84375 204.808594 18.445313 204.648438 18.308594 C 204.230469 17.890625 203.734375 17.789063 203.195313 17.691406 C 202.480469 17.550781 201.644531 17.390625 201.644531 16.65625 C 201.644531 16.199219 201.960938 15.683594 203.058594 15.683594 C 204.449219 15.683594 204.527344 16.835938 204.546875 17.214844 C 204.546875 17.332031 204.6875 17.332031 204.6875 17.332031 C 204.867188 17.332031 204.867188 17.273438 204.867188 17.035156 L 204.867188 15.742188 C 204.867188 15.542969 204.867188 15.445313 204.726563 15.445313 C 204.667969 15.445313 204.628906 15.445313 204.46875 15.601563 C 204.429688 15.644531 204.308594 15.761719 204.25 15.800781 C 203.773438 15.445313 203.253906 15.445313 203.058594 15.445313 C 201.507813 15.445313 201.027344 16.300781 201.027344 17.015625 C 201.027344 17.453125 201.226563 17.8125 201.566406 18.089844 C 201.984375 18.40625 202.339844 18.488281 203.253906 18.664063 C 203.535156 18.722656 204.566406 18.925781 204.566406 19.835938 C 204.566406 20.472656 204.132813 20.992188 203.136719 20.992188 C 202.0625 20.992188 201.605469 20.277344 201.367188 19.183594 C 201.328125 19.023438 201.328125 18.984375 201.1875 18.984375 C 201.027344 18.984375 201.027344 19.0625 201.027344 19.28125 L 201.027344 20.972656 C 201.027344 21.191406 201.027344 21.269531 201.167969 21.269531 C 201.226563 21.269531 201.246094 21.25 201.484375 21.011719 C 201.507813 20.992188 201.507813 20.972656 201.746094 20.730469 C 202.300781 21.25 202.878906 21.269531 203.136719 21.269531 C 204.585938 21.269531 205.183594 20.414063 205.183594 19.5 Z M 205.183594 19.5 "
       id="path161" />
    <path
       style=" stroke:none;fill-rule:nonzero;fill:rgb(0%,0%,0%);fill-opacity:1;"
       d="M 209.816406 19.558594 L 209.816406 18.84375 L 209.5 18.84375 L 209.5 19.539063 C 209.5 20.472656 209.121094 20.953125 208.644531 20.953125 C 207.789063 20.953125 207.789063 19.796875 207.789063 19.578125 L 207.789063 16.0625 L 209.617188 16.0625 L 209.617188 15.664063 L 207.789063 15.664063 L 207.789063 13.335938 L 207.472656 13.335938 C 207.472656 14.371094 207.09375 15.722656 205.839844 15.78125 L 205.839844 16.0625 L 206.914063 16.0625 L 206.914063 19.558594 C 206.914063 21.109375 208.109375 21.269531 208.5625 21.269531 C 209.457031 21.269531 209.816406 20.375 209.816406 19.558594 Z M 209.816406 19.558594 "
       id="path163" />
    <path
       style=" stroke:none;fill-rule:nonzero;fill:rgb(0%,0%,0%);fill-opacity:1;"
       d="M 215.804688 19.617188 C 215.804688 19.5 215.707031 19.460938 215.628906 19.460938 C 215.527344 19.460938 215.488281 19.539063 215.46875 19.640625 C 215.03125 20.953125 213.878906 20.953125 213.757813 20.953125 C 213.121094 20.953125 212.625 20.574219 212.328125 20.097656 C 211.949219 19.5 211.949219 18.664063 211.949219 18.207031 L 215.488281 18.207031 C 215.765625 18.207031 215.804688 18.207031 215.804688 17.929688 C 215.804688 16.675781 215.109375 15.445313 213.539063 15.445313 C 212.070313 15.445313 210.894531 16.757813 210.894531 18.347656 C 210.894531 20.039063 212.226563 21.269531 213.679688 21.269531 C 215.230469 21.269531 215.804688 19.859375 215.804688 19.617188 Z M 214.972656 17.929688 L 211.949219 17.929688 C 212.027344 16.039063 213.101563 15.722656 213.539063 15.722656 C 214.832031 15.722656 214.972656 17.433594 214.972656 17.929688 Z M 214.972656 17.929688 "
       id="path165" />
    <path
       style=" stroke:none;fill-rule:nonzero;fill:rgb(0%,0%,0%);fill-opacity:1;"
       d="M 226.484375 21.128906 L 226.484375 20.730469 C 225.828125 20.730469 225.507813 20.730469 225.488281 20.355469 L 225.488281 17.929688 C 225.488281 16.835938 225.488281 16.457031 225.089844 16 C 224.914063 15.78125 224.496094 15.523438 223.757813 15.523438 C 222.707031 15.523438 222.128906 16.277344 221.929688 16.777344 C 221.75 15.664063 220.816406 15.523438 220.242188 15.523438 C 219.304688 15.523438 218.710938 16.0625 218.351563 16.855469 L 218.351563 15.523438 L 216.5625 15.664063 L 216.5625 16.0625 C 217.457031 16.0625 217.554688 16.140625 217.554688 16.777344 L 217.554688 20.175781 C 217.554688 20.730469 217.417969 20.730469 216.5625 20.730469 L 216.5625 21.128906 L 218.011719 21.089844 L 219.425781 21.128906 L 219.425781 20.730469 C 218.570313 20.730469 218.429688 20.730469 218.429688 20.175781 L 218.429688 17.828125 C 218.429688 16.519531 219.347656 15.800781 220.140625 15.800781 C 220.957031 15.800781 221.09375 16.480469 221.09375 17.214844 L 221.09375 20.175781 C 221.09375 20.730469 220.957031 20.730469 220.101563 20.730469 L 220.101563 21.128906 L 221.53125 21.089844 L 222.945313 21.128906 L 222.945313 20.730469 C 222.109375 20.730469 221.96875 20.730469 221.96875 20.175781 L 221.96875 17.828125 C 221.96875 16.519531 222.863281 15.800781 223.679688 15.800781 C 224.476563 15.800781 224.613281 16.480469 224.613281 17.214844 L 224.613281 20.175781 C 224.613281 20.730469 224.476563 20.730469 223.621094 20.730469 L 223.621094 21.128906 L 225.050781 21.089844 Z M 226.484375 21.128906 "
       id="path167" />
    <path
       style=" stroke:none;fill-rule:nonzero;fill:rgb(0%,0%,0%);fill-opacity:1;"
       d="M 232.84375 19.996094 L 232.84375 19.28125 L 232.527344 19.28125 L 232.527344 19.996094 C 232.527344 20.730469 232.210938 20.8125 232.070313 20.8125 C 231.652344 20.8125 231.613281 20.234375 231.613281 20.175781 L 231.613281 17.652344 C 231.613281 17.113281 231.613281 16.617188 231.15625 16.140625 C 230.65625 15.644531 230.023438 15.445313 229.40625 15.445313 C 228.371094 15.445313 227.496094 16.039063 227.496094 16.875 C 227.496094 17.253906 227.753906 17.472656 228.074219 17.472656 C 228.429688 17.472656 228.671875 17.214844 228.671875 16.894531 C 228.671875 16.738281 228.589844 16.320313 228.015625 16.320313 C 228.351563 15.863281 228.988281 15.722656 229.386719 15.722656 C 230.003906 15.722656 230.738281 16.21875 230.738281 17.351563 L 230.738281 17.8125 C 230.082031 17.851563 229.1875 17.890625 228.390625 18.269531 C 227.4375 18.707031 227.121094 19.359375 227.121094 19.917969 C 227.121094 20.953125 228.351563 21.269531 229.148438 21.269531 C 230.003906 21.269531 230.578125 20.753906 230.816406 20.175781 C 230.875 20.671875 231.214844 21.210938 231.8125 21.210938 C 232.070313 21.210938 232.84375 21.03125 232.84375 19.996094 Z M 230.738281 19.359375 C 230.738281 20.554688 229.824219 20.992188 229.246094 20.992188 C 228.632813 20.992188 228.113281 20.554688 228.113281 19.917969 C 228.113281 19.222656 228.632813 18.167969 230.738281 18.089844 Z M 230.738281 19.359375 "
       id="path169" />
    <path
       style=" stroke:none;fill-rule:nonzero;fill:rgb(0%,0%,0%);fill-opacity:1;"
       d="M 242.957031 18.925781 L 242.65625 18.925781 C 242.578125 19.300781 242.5 19.859375 242.359375 20.058594 C 242.28125 20.15625 241.445313 20.15625 241.167969 20.15625 L 238.878906 20.15625 L 240.230469 18.84375 C 242.199219 17.09375 242.957031 16.417969 242.957031 15.144531 C 242.957031 13.695313 241.824219 12.679688 240.273438 12.679688 C 238.839844 12.679688 237.90625 13.855469 237.90625 14.988281 C 237.90625 15.683594 238.542969 15.683594 238.582031 15.683594 C 238.800781 15.683594 239.238281 15.542969 239.238281 15.007813 C 239.238281 14.6875 239 14.351563 238.5625 14.351563 C 238.460938 14.351563 238.441406 14.351563 238.402344 14.371094 C 238.679688 13.535156 239.378906 13.078125 240.113281 13.078125 C 241.265625 13.078125 241.800781 14.113281 241.800781 15.144531 C 241.800781 16.160156 241.1875 17.15625 240.46875 17.949219 L 238.042969 20.652344 C 237.90625 20.792969 237.90625 20.832031 237.90625 21.128906 L 242.617188 21.128906 Z M 242.957031 18.925781 "
       id="path171" />
    <path
       style=" stroke:none;fill-rule:nonzero;fill:rgb(0%,0%,0%);fill-opacity:1;"
       d="M 261.792969 80.0625 C 261.652344 80.203125 261.324219 80.484375 261.324219 80.65625 C 261.324219 80.75 261.417969 80.859375 261.511719 80.859375 C 261.605469 80.859375 261.652344 80.78125 261.714844 80.71875 C 261.824219 80.578125 262.058594 80.296875 262.496094 80.078125 C 262.558594 80.03125 262.667969 79.984375 262.667969 79.875 C 262.667969 79.765625 262.589844 79.71875 262.527344 79.671875 C 262.308594 79.515625 262.199219 79.34375 262.121094 79.109375 C 262.089844 79.015625 262.058594 78.875 261.917969 78.875 C 261.777344 78.875 261.714844 79.015625 261.714844 79.09375 C 261.714844 79.140625 261.792969 79.453125 261.949219 79.671875 L 258.589844 79.671875 C 258.433594 79.671875 258.246094 79.671875 258.246094 79.875 C 258.246094 80.0625 258.433594 80.0625 258.589844 80.0625 Z M 261.792969 80.0625 "
       id="path173" />
    <path
       style=" stroke:none;fill-rule:nonzero;fill:rgb(0%,0%,0%);fill-opacity:1;"
       d="M 262.203125 82.472656 C 262.296875 82.113281 262.3125 82.019531 263.03125 82.019531 C 263.296875 82.019531 263.375 82.019531 263.375 81.816406 C 263.375 81.707031 263.265625 81.707031 263.234375 81.707031 C 262.953125 81.707031 262.234375 81.738281 261.953125 81.738281 C 261.671875 81.738281 260.96875 81.707031 260.671875 81.707031 C 260.59375 81.707031 260.484375 81.707031 260.484375 81.910156 C 260.484375 82.019531 260.578125 82.019531 260.765625 82.019531 C 260.78125 82.019531 260.96875 82.019531 261.140625 82.035156 C 261.328125 82.066406 261.40625 82.066406 261.40625 82.207031 C 261.40625 82.238281 261.40625 82.253906 261.375 82.394531 L 260.78125 84.816406 L 257.734375 84.816406 L 258.328125 82.472656 C 258.40625 82.113281 258.4375 82.019531 259.15625 82.019531 C 259.421875 82.019531 259.5 82.019531 259.5 81.816406 C 259.5 81.707031 259.390625 81.707031 259.359375 81.707031 C 259.078125 81.707031 258.359375 81.738281 258.078125 81.738281 C 257.796875 81.738281 257.09375 81.707031 256.796875 81.707031 C 256.71875 81.707031 256.609375 81.707031 256.609375 81.910156 C 256.609375 82.019531 256.703125 82.019531 256.890625 82.019531 C 256.90625 82.019531 257.09375 82.019531 257.265625 82.035156 C 257.4375 82.066406 257.53125 82.066406 257.53125 82.207031 C 257.53125 82.238281 257.53125 82.269531 257.5 82.394531 L 256.15625 87.738281 C 256.0625 88.128906 256.046875 88.207031 255.25 88.207031 C 255.078125 88.207031 254.984375 88.207031 254.984375 88.410156 C 254.984375 88.519531 255.109375 88.519531 255.125 88.519531 C 255.40625 88.519531 256.109375 88.488281 256.390625 88.488281 C 256.59375 88.488281 256.8125 88.503906 257.03125 88.503906 C 257.25 88.503906 257.46875 88.519531 257.671875 88.519531 C 257.75 88.519531 257.875 88.519531 257.875 88.316406 C 257.875 88.207031 257.78125 88.207031 257.59375 88.207031 C 257.21875 88.207031 256.953125 88.207031 256.953125 88.035156 C 256.953125 87.972656 256.96875 87.925781 256.96875 87.863281 L 257.65625 85.128906 L 260.6875 85.128906 C 260.28125 86.785156 260.046875 87.738281 260 87.878906 C 259.90625 88.207031 259.71875 88.207031 259.09375 88.207031 C 258.953125 88.207031 258.859375 88.207031 258.859375 88.410156 C 258.859375 88.519531 258.984375 88.519531 259 88.519531 C 259.28125 88.519531 259.984375 88.488281 260.265625 88.488281 C 260.46875 88.488281 260.6875 88.503906 260.90625 88.503906 C 261.125 88.503906 261.34375 88.519531 261.546875 88.519531 C 261.625 88.519531 261.75 88.519531 261.75 88.316406 C 261.75 88.207031 261.65625 88.207031 261.46875 88.207031 C 261.109375 88.207031 260.828125 88.207031 260.828125 88.035156 C 260.828125 87.972656 260.84375 87.925781 260.859375 87.863281 Z M 262.203125 82.472656 "
       id="path175" />
    <path
       style=" stroke:none;fill-rule:nonzero;fill:rgb(0%,0%,0%);fill-opacity:1;"
       d="M 465.792969 81.5625 C 465.652344 81.703125 465.324219 81.984375 465.324219 82.15625 C 465.324219 82.25 465.417969 82.359375 465.511719 82.359375 C 465.605469 82.359375 465.652344 82.28125 465.714844 82.21875 C 465.824219 82.078125 466.058594 81.796875 466.496094 81.578125 C 466.558594 81.53125 466.667969 81.484375 466.667969 81.375 C 466.667969 81.265625 466.589844 81.21875 466.527344 81.171875 C 466.308594 81.015625 466.199219 80.84375 466.121094 80.609375 C 466.089844 80.515625 466.058594 80.375 465.917969 80.375 C 465.777344 80.375 465.714844 80.515625 465.714844 80.59375 C 465.714844 80.640625 465.792969 80.953125 465.949219 81.171875 L 462.589844 81.171875 C 462.433594 81.171875 462.246094 81.171875 462.246094 81.375 C 462.246094 81.5625 462.433594 81.5625 462.589844 81.5625 Z M 465.792969 81.5625 "
       id="path177" />
    <path
       style=" stroke:none;fill-rule:nonzero;fill:rgb(0%,0%,0%);fill-opacity:1;"
       d="M 466.203125 83.972656 C 466.296875 83.613281 466.3125 83.519531 467.03125 83.519531 C 467.296875 83.519531 467.375 83.519531 467.375 83.316406 C 467.375 83.207031 467.265625 83.207031 467.234375 83.207031 C 466.953125 83.207031 466.234375 83.238281 465.953125 83.238281 C 465.671875 83.238281 464.96875 83.207031 464.671875 83.207031 C 464.59375 83.207031 464.484375 83.207031 464.484375 83.410156 C 464.484375 83.519531 464.578125 83.519531 464.765625 83.519531 C 464.78125 83.519531 464.96875 83.519531 465.140625 83.535156 C 465.328125 83.566406 465.40625 83.566406 465.40625 83.707031 C 465.40625 83.738281 465.40625 83.753906 465.375 83.894531 L 464.78125 86.316406 L 461.734375 86.316406 L 462.328125 83.972656 C 462.40625 83.613281 462.4375 83.519531 463.15625 83.519531 C 463.421875 83.519531 463.5 83.519531 463.5 83.316406 C 463.5 83.207031 463.390625 83.207031 463.359375 83.207031 C 463.078125 83.207031 462.359375 83.238281 462.078125 83.238281 C 461.796875 83.238281 461.09375 83.207031 460.796875 83.207031 C 460.71875 83.207031 460.609375 83.207031 460.609375 83.410156 C 460.609375 83.519531 460.703125 83.519531 460.890625 83.519531 C 460.90625 83.519531 461.09375 83.519531 461.265625 83.535156 C 461.4375 83.566406 461.53125 83.566406 461.53125 83.707031 C 461.53125 83.738281 461.53125 83.769531 461.5 83.894531 L 460.15625 89.238281 C 460.0625 89.628906 460.046875 89.707031 459.25 89.707031 C 459.078125 89.707031 458.984375 89.707031 458.984375 89.910156 C 458.984375 90.019531 459.109375 90.019531 459.125 90.019531 C 459.40625 90.019531 460.109375 89.988281 460.390625 89.988281 C 460.59375 89.988281 460.8125 90.003906 461.03125 90.003906 C 461.25 90.003906 461.46875 90.019531 461.671875 90.019531 C 461.75 90.019531 461.875 90.019531 461.875 89.816406 C 461.875 89.707031 461.78125 89.707031 461.59375 89.707031 C 461.21875 89.707031 460.953125 89.707031 460.953125 89.535156 C 460.953125 89.472656 460.96875 89.425781 460.96875 89.363281 L 461.65625 86.628906 L 464.6875 86.628906 C 464.28125 88.285156 464.046875 89.238281 464 89.378906 C 463.90625 89.707031 463.71875 89.707031 463.09375 89.707031 C 462.953125 89.707031 462.859375 89.707031 462.859375 89.910156 C 462.859375 90.019531 462.984375 90.019531 463 90.019531 C 463.28125 90.019531 463.984375 89.988281 464.265625 89.988281 C 464.46875 89.988281 464.6875 90.003906 464.90625 90.003906 C 465.125 90.003906 465.34375 90.019531 465.546875 90.019531 C 465.625 90.019531 465.75 90.019531 465.75 89.816406 C 465.75 89.707031 465.65625 89.707031 465.46875 89.707031 C 465.109375 89.707031 464.828125 89.707031 464.828125 89.535156 C 464.828125 89.472656 464.84375 89.425781 464.859375 89.363281 Z M 466.203125 83.972656 "
       id="path179" />
    <path
       style=" stroke:none;fill-rule:nonzero;fill:rgb(0%,0%,0%);fill-opacity:1;"
       d="M 393.261719 18.710938 C 393.261719 17.457031 392.425781 16.402344 391.371094 16.144531 L 389.742188 15.769531 C 388.945313 15.570313 388.46875 14.894531 388.46875 14.15625 C 388.46875 13.261719 389.144531 12.488281 390.140625 12.488281 C 392.246094 12.488281 392.523438 14.574219 392.605469 15.132813 C 392.625 15.210938 392.625 15.289063 392.765625 15.289063 C 392.921875 15.289063 392.921875 15.230469 392.921875 14.992188 L 392.921875 12.449219 C 392.921875 12.230469 392.921875 12.128906 392.78125 12.128906 C 392.703125 12.128906 392.683594 12.148438 392.605469 12.308594 L 392.148438 13.023438 C 391.769531 12.648438 391.253906 12.128906 390.117188 12.128906 C 388.707031 12.128906 387.652344 13.242188 387.652344 14.59375 C 387.652344 15.648438 388.328125 16.582031 389.304688 16.921875 C 389.441406 16.960938 390.097656 17.121094 390.992188 17.339844 C 391.332031 17.417969 391.707031 17.515625 392.066406 17.972656 C 392.324219 18.3125 392.464844 18.730469 392.464844 19.148438 C 392.464844 20.042969 391.828125 20.957031 390.753906 20.957031 C 390.398438 20.957031 389.421875 20.898438 388.746094 20.28125 C 388.011719 19.585938 387.972656 18.789063 387.972656 18.332031 C 387.953125 18.191406 387.851563 18.191406 387.8125 18.191406 C 387.652344 18.191406 387.652344 18.292969 387.652344 18.511719 L 387.652344 21.054688 C 387.652344 21.273438 387.652344 21.355469 387.792969 21.355469 C 387.871094 21.355469 387.890625 21.335938 387.972656 21.195313 C 387.972656 21.195313 388.011719 21.136719 388.429688 20.460938 C 388.828125 20.898438 389.640625 21.355469 390.773438 21.355469 C 392.246094 21.355469 393.261719 20.121094 393.261719 18.710938 Z M 393.261719 18.710938 "
       id="path181" />
    <path
       style=" stroke:none;fill-rule:nonzero;fill:rgb(0%,0%,0%);fill-opacity:1;"
       d="M 397.128906 21.078125 L 397.128906 20.679688 C 396.273438 20.679688 396.234375 20.621094 396.234375 20.121094 L 396.234375 15.46875 L 394.460938 15.609375 L 394.460938 16.007813 C 395.277344 16.007813 395.398438 16.085938 395.398438 16.703125 L 395.398438 20.121094 C 395.398438 20.679688 395.257813 20.679688 394.402344 20.679688 L 394.402344 21.078125 L 395.792969 21.035156 C 396.253906 21.035156 396.6875 21.054688 397.128906 21.078125 Z M 396.410156 13.421875 C 396.410156 13.0625 396.132813 12.746094 395.753906 12.746094 C 395.316406 12.746094 395.058594 13.101563 395.058594 13.421875 C 395.058594 13.761719 395.359375 14.078125 395.734375 14.078125 C 396.171875 14.078125 396.410156 13.738281 396.410156 13.421875 Z M 396.410156 13.421875 "
       id="path183" />
    <path
       style=" stroke:none;fill-rule:nonzero;fill:rgb(0%,0%,0%);fill-opacity:1;"
       d="M 402.082031 19.445313 C 402.082031 18.789063 401.707031 18.394531 401.546875 18.253906 C 401.128906 17.835938 400.632813 17.734375 400.09375 17.636719 C 399.378906 17.496094 398.542969 17.339844 398.542969 16.601563 C 398.542969 16.144531 398.863281 15.628906 399.957031 15.628906 C 401.347656 15.628906 401.425781 16.78125 401.445313 17.160156 C 401.445313 17.28125 401.585938 17.28125 401.585938 17.28125 C 401.765625 17.28125 401.765625 17.21875 401.765625 16.980469 L 401.765625 15.6875 C 401.765625 15.488281 401.765625 15.390625 401.625 15.390625 C 401.566406 15.390625 401.527344 15.390625 401.367188 15.550781 C 401.328125 15.589844 401.207031 15.707031 401.148438 15.746094 C 400.671875 15.390625 400.152344 15.390625 399.957031 15.390625 C 398.40625 15.390625 397.925781 16.246094 397.925781 16.960938 C 397.925781 17.398438 398.125 17.757813 398.464844 18.035156 C 398.882813 18.351563 399.238281 18.433594 400.152344 18.609375 C 400.433594 18.671875 401.464844 18.871094 401.464844 19.785156 C 401.464844 20.417969 401.03125 20.9375 400.035156 20.9375 C 398.960938 20.9375 398.503906 20.222656 398.265625 19.128906 C 398.226563 18.96875 398.226563 18.929688 398.085938 18.929688 C 397.925781 18.929688 397.925781 19.007813 397.925781 19.226563 L 397.925781 20.917969 C 397.925781 21.136719 397.925781 21.214844 398.066406 21.214844 C 398.125 21.214844 398.144531 21.195313 398.382813 20.957031 C 398.40625 20.9375 398.40625 20.917969 398.644531 20.679688 C 399.199219 21.195313 399.777344 21.214844 400.035156 21.214844 C 401.488281 21.214844 402.082031 20.359375 402.082031 19.445313 Z M 402.082031 19.445313 "
       id="path185" />
    <path
       style=" stroke:none;fill-rule:nonzero;fill:rgb(0%,0%,0%);fill-opacity:1;"
       d="M 406.714844 19.507813 L 406.714844 18.789063 L 406.398438 18.789063 L 406.398438 19.484375 C 406.398438 20.417969 406.019531 20.898438 405.542969 20.898438 C 404.6875 20.898438 404.6875 19.742188 404.6875 19.523438 L 404.6875 16.007813 L 406.515625 16.007813 L 406.515625 15.609375 L 404.6875 15.609375 L 404.6875 13.28125 L 404.371094 13.28125 C 404.371094 14.316406 403.992188 15.667969 402.738281 15.726563 L 402.738281 16.007813 L 403.8125 16.007813 L 403.8125 19.507813 C 403.8125 21.054688 405.007813 21.214844 405.464844 21.214844 C 406.359375 21.214844 406.714844 20.320313 406.714844 19.507813 Z M 406.714844 19.507813 "
       id="path187" />
    <path
       style=" stroke:none;fill-rule:nonzero;fill:rgb(0%,0%,0%);fill-opacity:1;"
       d="M 412.703125 19.566406 C 412.703125 19.445313 412.605469 19.40625 412.527344 19.40625 C 412.425781 19.40625 412.386719 19.484375 412.367188 19.585938 C 411.929688 20.898438 410.777344 20.898438 410.65625 20.898438 C 410.019531 20.898438 409.523438 20.519531 409.226563 20.042969 C 408.847656 19.445313 408.847656 18.609375 408.847656 18.152344 L 412.386719 18.152344 C 412.664063 18.152344 412.703125 18.152344 412.703125 17.875 C 412.703125 16.621094 412.011719 15.390625 410.4375 15.390625 C 408.96875 15.390625 407.792969 16.703125 407.792969 18.292969 C 407.792969 19.984375 409.125 21.214844 410.578125 21.214844 C 412.128906 21.214844 412.703125 19.804688 412.703125 19.566406 Z M 411.871094 17.875 L 408.847656 17.875 C 408.929688 15.988281 410 15.667969 410.4375 15.667969 C 411.730469 15.667969 411.871094 17.378906 411.871094 17.875 Z M 411.871094 17.875 "
       id="path189" />
    <path
       style=" stroke:none;fill-rule:nonzero;fill:rgb(0%,0%,0%);fill-opacity:1;"
       d="M 423.382813 21.078125 L 423.382813 20.679688 C 422.726563 20.679688 422.40625 20.679688 422.386719 20.300781 L 422.386719 17.875 C 422.386719 16.78125 422.386719 16.402344 421.988281 15.945313 C 421.8125 15.726563 421.394531 15.46875 420.65625 15.46875 C 419.605469 15.46875 419.027344 16.226563 418.828125 16.722656 C 418.648438 15.609375 417.714844 15.46875 417.140625 15.46875 C 416.203125 15.46875 415.609375 16.007813 415.25 16.800781 L 415.25 15.46875 L 413.460938 15.609375 L 413.460938 16.007813 C 414.355469 16.007813 414.453125 16.085938 414.453125 16.722656 L 414.453125 20.121094 C 414.453125 20.679688 414.316406 20.679688 413.460938 20.679688 L 413.460938 21.078125 L 414.914063 21.035156 L 416.324219 21.078125 L 416.324219 20.679688 C 415.46875 20.679688 415.328125 20.679688 415.328125 20.121094 L 415.328125 17.777344 C 415.328125 16.464844 416.246094 15.746094 417.039063 15.746094 C 417.855469 15.746094 417.996094 16.425781 417.996094 17.160156 L 417.996094 20.121094 C 417.996094 20.679688 417.855469 20.679688 417 20.679688 L 417 21.078125 L 418.429688 21.035156 L 419.84375 21.078125 L 419.84375 20.679688 C 419.007813 20.679688 418.867188 20.679688 418.867188 20.121094 L 418.867188 17.777344 C 418.867188 16.464844 419.761719 15.746094 420.578125 15.746094 C 421.375 15.746094 421.511719 16.425781 421.511719 17.160156 L 421.511719 20.121094 C 421.511719 20.679688 421.375 20.679688 420.519531 20.679688 L 420.519531 21.078125 L 421.949219 21.035156 Z M 423.382813 21.078125 "
       id="path191" />
    <path
       style=" stroke:none;fill-rule:nonzero;fill:rgb(0%,0%,0%);fill-opacity:1;"
       d="M 429.742188 19.941406 L 429.742188 19.226563 L 429.425781 19.226563 L 429.425781 19.941406 C 429.425781 20.679688 429.109375 20.757813 428.96875 20.757813 C 428.550781 20.757813 428.511719 20.183594 428.511719 20.121094 L 428.511719 17.597656 C 428.511719 17.0625 428.511719 16.5625 428.054688 16.085938 C 427.558594 15.589844 426.921875 15.390625 426.304688 15.390625 C 425.269531 15.390625 424.394531 15.988281 424.394531 16.820313 C 424.394531 17.199219 424.652344 17.417969 424.972656 17.417969 C 425.328125 17.417969 425.570313 17.160156 425.570313 16.839844 C 425.570313 16.683594 425.488281 16.265625 424.914063 16.265625 C 425.25 15.808594 425.886719 15.667969 426.285156 15.667969 C 426.902344 15.667969 427.636719 16.167969 427.636719 17.296875 L 427.636719 17.757813 C 426.980469 17.796875 426.085938 17.835938 425.289063 18.214844 C 424.335938 18.652344 424.019531 19.304688 424.019531 19.863281 C 424.019531 20.898438 425.25 21.214844 426.046875 21.214844 C 426.902344 21.214844 427.476563 20.699219 427.714844 20.121094 C 427.777344 20.621094 428.113281 21.15625 428.710938 21.15625 C 428.96875 21.15625 429.742188 20.976563 429.742188 19.941406 Z M 427.636719 19.304688 C 427.636719 20.5 426.722656 20.9375 426.144531 20.9375 C 425.53125 20.9375 425.011719 20.5 425.011719 19.863281 C 425.011719 19.167969 425.53125 18.113281 427.636719 18.035156 Z M 427.636719 19.304688 "
       id="path193" />
    <path
       style=" stroke:none;fill-rule:nonzero;fill:rgb(0%,0%,0%);fill-opacity:1;"
       d="M 435.296875 20.320313 C 435.257813 20.519531 435.175781 20.816406 435.175781 20.878906 C 435.175781 21.097656 435.355469 21.214844 435.554688 21.214844 C 435.714844 21.214844 435.933594 21.117188 436.03125 20.859375 C 436.03125 20.835938 436.191406 20.242188 436.269531 19.921875 L 436.550781 18.789063 C 436.609375 18.492188 436.6875 18.214844 436.769531 17.933594 C 436.808594 17.714844 436.90625 17.339844 436.925781 17.296875 C 437.105469 16.902344 437.78125 15.746094 438.996094 15.746094 C 439.570313 15.746094 439.671875 16.222656 439.671875 16.644531 C 439.671875 17.417969 439.054688 19.046875 438.855469 19.585938 C 438.734375 19.882813 438.714844 20.042969 438.714844 20.183594 C 438.714844 20.777344 439.171875 21.214844 439.769531 21.214844 C 440.960938 21.214844 441.421875 19.367188 441.421875 19.265625 C 441.421875 19.128906 441.320313 19.128906 441.28125 19.128906 C 441.140625 19.128906 441.140625 19.167969 441.082031 19.367188 C 440.824219 20.222656 440.40625 20.9375 439.789063 20.9375 C 439.570313 20.9375 439.492188 20.816406 439.492188 20.519531 C 439.492188 20.199219 439.589844 19.902344 439.710938 19.625 C 439.949219 18.949219 440.484375 17.558594 440.484375 16.820313 C 440.484375 15.988281 439.949219 15.46875 439.035156 15.46875 C 437.882813 15.46875 437.265625 16.285156 437.046875 16.582031 C 436.984375 15.867188 436.46875 15.46875 435.871094 15.46875 C 435.296875 15.46875 435.058594 15.964844 434.9375 16.183594 C 434.71875 16.621094 434.558594 17.378906 434.558594 17.417969 C 434.558594 17.558594 434.679688 17.558594 434.699219 17.558594 C 434.839844 17.558594 434.839844 17.539063 434.917969 17.257813 C 435.136719 16.363281 435.394531 15.746094 435.851563 15.746094 C 436.089844 15.746094 436.230469 15.90625 436.230469 16.324219 C 436.230469 16.601563 436.191406 16.742188 436.03125 17.398438 Z M 435.296875 20.320313 "
       id="path195" />
    <path
       style=" stroke:none;fill-rule:nonzero;fill:rgb(0%,0%,0%);fill-opacity:1;"
       d="M 306.640625 80.859375 C 306.640625 81.539063 306.042969 82.105469 305.328125 82.105469 C 304.570313 82.105469 303.972656 81.539063 303.972656 80.859375 C 303.972656 80.140625 304.570313 79.574219 305.328125 79.574219 C 306.042969 79.574219 306.640625 80.140625 306.640625 80.859375 Z M 306.640625 80.859375 "
       id="path197" />
    <path
       style=" stroke:none;fill-rule:nonzero;fill:rgb(0%,0%,0%);fill-opacity:1;"
       d="M 317.902344 80.859375 C 317.902344 81.539063 317.304688 82.105469 316.589844 82.105469 C 315.832031 82.105469 315.234375 81.539063 315.234375 80.859375 C 315.234375 80.140625 315.832031 79.574219 316.589844 79.574219 C 317.304688 79.574219 317.902344 80.140625 317.902344 80.859375 Z M 317.902344 80.859375 "
       id="path199" />
    <path
       style=" stroke:none;fill-rule:nonzero;fill:rgb(0%,0%,0%);fill-opacity:1;"
       d="M 329.191406 80.859375 C 329.191406 81.539063 328.59375 82.105469 327.875 82.105469 C 327.121094 82.105469 326.523438 81.539063 326.523438 80.859375 C 326.523438 80.140625 327.121094 79.574219 327.875 79.574219 C 328.59375 79.574219 329.191406 80.140625 329.191406 80.859375 Z M 329.191406 80.859375 "
       id="path201" />
  </g>
</svg>
