<?xml version="1.0" encoding="UTF-8" standalone="no"?>
<svg
   xmlns:dc="http://purl.org/dc/elements/1.1/"
   xmlns:cc="http://creativecommons.org/ns#"
   xmlns:rdf="http://www.w3.org/1999/02/22-rdf-syntax-ns#"
   xmlns:svg="http://www.w3.org/2000/svg"
   xmlns="http://www.w3.org/2000/svg"
   xmlns:sodipodi="http://sodipodi.sourceforge.net/DTD/sodipodi-0.dtd"
   xmlns:inkscape="http://www.inkscape.org/namespaces/inkscape"
   width="92.5pt"
   height="89.5pt"
   viewBox="0 0 92.5 89.5"
   version="1.2"
   id="svg33"
   sodipodi:docname="a1.svg"
   inkscape:version="0.92.4 (5da689c313, 2019-01-14)">
  <metadata
     id="metadata39">
    <rdf:RDF>
      <cc:Work
         rdf:about="">
        <dc:format>image/svg+xml</dc:format>
        <dc:type
           rdf:resource="http://purl.org/dc/dcmitype/StillImage" />
        <dc:title></dc:title>
      </cc:Work>
    </rdf:RDF>
  </metadata>
  <defs
     id="defs37" />
  <sodipodi:namedview
     pagecolor="#ffffff"
     bordercolor="#666666"
     borderopacity="1"
     objecttolerance="10"
     gridtolerance="10"
     guidetolerance="10"
     inkscape:pageopacity="0"
     inkscape:pageshadow="2"
     inkscape:window-width="727"
     inkscape:window-height="480"
     id="namedview35"
     showgrid="false"
     inkscape:zoom="1.9776536"
     inkscape:cx="61.666667"
     inkscape:cy="59.666667"
     inkscape:window-x="0"
     inkscape:window-y="0"
     inkscape:window-maximized="0"
     inkscape:current-layer="svg33" />
  <g
     id="surface32">
    <path
       style="fill:none;stroke-width:0.75;stroke-linecap:butt;stroke-linejoin:miter;stroke:rgb(0%,0%,0%);stroke-opacity:1;stroke-miterlimit:4;"
       d="M 265.355469 168.370865 L 265.355469 245.077896 "
       transform="matrix(1,0,0,1,-232.25,-156.749771)"
       id="path2" />
    <path
       style="fill:none;stroke-width:0.75;stroke-linecap:butt;stroke-linejoin:miter;stroke:rgb(0%,0%,0%);stroke-opacity:1;stroke-miterlimit:4;"
       d="M 236.566406 221.214615 L 316.683594 221.214615 "
       transform="matrix(1,0,0,1,-232.25,-156.749771)"
       id="path4" />
    <path
       style="fill-rule:nonzero;fill:rgb(0%,0%,0%);fill-opacity:1;stroke-width:0.727282;stroke-linecap:butt;stroke-linejoin:miter;stroke:rgb(0%,0%,0%);stroke-opacity:1;stroke-miterlimit:4;"
       d="M 266.265625 172.706802 C 266.265625 173.226334 265.847656 173.648209 265.332031 173.648209 C 264.8125 173.648209 264.394531 173.226334 264.394531 172.706802 C 264.394531 172.187271 264.8125 171.765396 265.332031 171.765396 C 265.847656 171.765396 266.265625 172.187271 266.265625 172.706802 Z M 266.265625 172.706802 "
       transform="matrix(1,0,0,1,-232.25,-156.749771)"
       id="path6" />
    <path
       style="fill-rule:nonzero;fill:rgb(0%,0%,0%);fill-opacity:1;stroke-width:0.727282;stroke-linecap:butt;stroke-linejoin:miter;stroke:rgb(0%,0%,0%);stroke-opacity:1;stroke-miterlimit:4;"
       d="M 304.621094 221.202896 C 304.621094 221.722427 304.203125 222.144302 303.683594 222.144302 C 303.167969 222.144302 302.75 221.722427 302.75 221.202896 C 302.75 220.683365 303.167969 220.26149 303.683594 220.26149 C 304.203125 220.26149 304.621094 220.683365 304.621094 221.202896 Z M 304.621094 221.202896 "
       transform="matrix(1,0,0,1,-232.25,-156.749771)"
       id="path8" />
    <path
       style="fill:none;stroke-width:2.168504;stroke-linecap:butt;stroke-linejoin:miter;stroke:rgb(0%,0%,0%);stroke-opacity:1;stroke-miterlimit:4;"
       d="M 265.3125 199.16774 L 265.3125 239.210709 "
       transform="matrix(1,0,0,1,-232.25,-156.749771)"
       id="path10" />
    <path
       style=" stroke:none;fill-rule:nonzero;fill:rgb(0%,0%,0%);fill-opacity:1;"
       d="M 24.488281 15.621094 L 25.453125 15.621094 C 26.253906 15.621094 27.039063 15.035156 27.039063 14.40625 C 27.039063 13.964844 26.667969 13.546875 25.925781 13.546875 L 24.101563 13.546875 C 23.992188 13.546875 23.929688 13.546875 23.929688 13.65625 C 23.929688 13.726563 23.976563 13.726563 24.089844 13.726563 C 24.160156 13.726563 24.269531 13.734375 24.328125 13.734375 C 24.425781 13.75 24.453125 13.761719 24.453125 13.832031 C 24.453125 13.847656 24.453125 13.867188 24.4375 13.9375 L 23.675781 16.96875 C 23.621094 17.1875 23.613281 17.234375 23.160156 17.234375 C 23.070313 17.234375 23.011719 17.234375 23.011719 17.339844 C 23.011719 17.410156 23.070313 17.410156 23.089844 17.410156 C 23.25 17.410156 23.648438 17.394531 23.808594 17.394531 C 23.929688 17.394531 24.054688 17.402344 24.171875 17.402344 C 24.292969 17.402344 24.417969 17.410156 24.535156 17.410156 C 24.578125 17.410156 24.648438 17.410156 24.648438 17.296875 C 24.648438 17.234375 24.597656 17.234375 24.488281 17.234375 C 24.285156 17.234375 24.125 17.234375 24.125 17.136719 C 24.125 17.101563 24.136719 17.074219 24.144531 17.039063 Z M 24.898438 13.9375 C 24.949219 13.742188 24.957031 13.726563 25.207031 13.726563 L 25.746094 13.726563 C 26.214844 13.726563 26.519531 13.875 26.519531 14.265625 C 26.519531 14.488281 26.402344 14.972656 26.179688 15.179688 C 25.898438 15.433594 25.5625 15.480469 25.3125 15.480469 L 24.515625 15.480469 Z M 24.898438 13.9375 "
       id="path12" />
    <path
       style=" stroke:none;fill-rule:nonzero;fill:rgb(0%,0%,0%);fill-opacity:1;"
       d="M 27.726563 15.742188 C 27.726563 15.636719 27.726563 15.636719 27.609375 15.636719 C 27.355469 15.882813 27 15.882813 26.839844 15.882813 L 26.839844 16.027344 C 26.929688 16.027344 27.195313 16.027344 27.40625 15.917969 L 27.40625 17.929688 C 27.40625 18.0625 27.40625 18.117188 27.015625 18.117188 L 26.867188 18.117188 L 26.867188 18.257813 C 26.9375 18.257813 27.425781 18.238281 27.566406 18.238281 C 27.691406 18.238281 28.1875 18.257813 28.273438 18.257813 L 28.273438 18.117188 L 28.125 18.117188 C 27.726563 18.117188 27.726563 18.0625 27.726563 17.929688 Z M 27.726563 15.742188 "
       id="path14" />
    <path
       style=" stroke:none;fill-rule:nonzero;fill:rgb(0%,0%,0%);fill-opacity:1;"
       d="M 37.84375 17.539063 L 38.445313 16.957031 C 39.320313 16.175781 39.65625 15.875 39.65625 15.308594 C 39.65625 14.660156 39.152344 14.210938 38.460938 14.210938 C 37.824219 14.210938 37.40625 14.730469 37.40625 15.238281 C 37.40625 15.546875 37.691406 15.546875 37.710938 15.546875 C 37.804688 15.546875 38 15.484375 38 15.246094 C 38 15.105469 37.894531 14.953125 37.699219 14.953125 C 37.65625 14.953125 37.648438 14.953125 37.628906 14.960938 C 37.753906 14.589844 38.0625 14.386719 38.390625 14.386719 C 38.90625 14.386719 39.144531 14.847656 39.144531 15.308594 C 39.144531 15.757813 38.871094 16.203125 38.550781 16.554688 L 37.46875 17.761719 C 37.40625 17.824219 37.40625 17.839844 37.40625 17.972656 L 39.507813 17.972656 L 39.65625 16.992188 L 39.523438 16.992188 C 39.488281 17.160156 39.453125 17.40625 39.390625 17.496094 C 39.355469 17.539063 38.984375 17.539063 38.859375 17.539063 Z M 37.84375 17.539063 "
       id="path16" />
    <path
       style=" stroke:none;fill-rule:nonzero;fill:rgb(0%,0%,0%);fill-opacity:1;"
       d="M 42.863281 14.113281 C 42.863281 14.113281 42.863281 14.050781 42.792969 14.050781 C 42.703125 14.050781 42.171875 14.101563 42.074219 14.113281 C 42.03125 14.121094 41.996094 14.148438 41.996094 14.21875 C 41.996094 14.289063 42.046875 14.289063 42.128906 14.289063 C 42.402344 14.289063 42.410156 14.324219 42.410156 14.386719 L 42.394531 14.5 L 42.054688 15.839844 C 41.949219 15.625 41.789063 15.476563 41.535156 15.476563 C 40.878906 15.476563 40.179688 16.308594 40.179688 17.132813 C 40.179688 17.664063 40.488281 18.035156 40.921875 18.035156 C 41.039063 18.035156 41.320313 18.007813 41.65625 17.609375 C 41.703125 17.851563 41.90625 18.035156 42.171875 18.035156 C 42.375 18.035156 42.5 17.902344 42.597656 17.726563 C 42.683594 17.523438 42.765625 17.175781 42.765625 17.167969 C 42.765625 17.105469 42.710938 17.105469 42.695313 17.105469 C 42.640625 17.105469 42.632813 17.132813 42.613281 17.210938 C 42.515625 17.574219 42.417969 17.910156 42.1875 17.910156 C 42.03125 17.910156 42.019531 17.761719 42.019531 17.65625 C 42.019531 17.511719 42.03125 17.476563 42.046875 17.378906 Z M 41.691406 17.300781 C 41.65625 17.40625 41.65625 17.414063 41.578125 17.511719 C 41.332031 17.824219 41.101563 17.910156 40.941406 17.910156 C 40.65625 17.910156 40.578125 17.601563 40.578125 17.378906 C 40.578125 17.097656 40.753906 16.40625 40.886719 16.140625 C 41.0625 15.8125 41.3125 15.601563 41.542969 15.601563 C 41.90625 15.601563 41.984375 16.058594 41.984375 16.097656 C 41.984375 16.132813 41.976563 16.167969 41.96875 16.191406 Z M 41.691406 17.300781 "
       id="path18" />
    <path
       style=" stroke:none;fill-rule:nonzero;fill:rgb(0%,0%,0%);fill-opacity:1;"
       d="M 41.253906 40.628906 C 41.253906 40.628906 41.253906 40.566406 41.183594 40.566406 C 41.09375 40.566406 40.5625 40.621094 40.464844 40.628906 C 40.421875 40.636719 40.382813 40.664063 40.382813 40.734375 C 40.382813 40.804688 40.4375 40.804688 40.515625 40.804688 C 40.792969 40.804688 40.800781 40.839844 40.800781 40.902344 L 40.78125 41.019531 L 40.445313 42.355469 C 40.339844 42.144531 40.179688 41.992188 39.925781 41.992188 C 39.269531 41.992188 38.570313 42.824219 38.570313 43.648438 C 38.570313 44.179688 38.878906 44.550781 39.3125 44.550781 C 39.429688 44.550781 39.710938 44.527344 40.046875 44.128906 C 40.09375 44.367188 40.296875 44.550781 40.5625 44.550781 C 40.765625 44.550781 40.890625 44.417969 40.988281 44.242188 C 41.074219 44.039063 41.15625 43.691406 41.15625 43.683594 C 41.15625 43.621094 41.101563 43.621094 41.085938 43.621094 C 41.03125 43.621094 41.023438 43.648438 41.003906 43.726563 C 40.90625 44.089844 40.808594 44.429688 40.578125 44.429688 C 40.421875 44.429688 40.410156 44.277344 40.410156 44.171875 C 40.410156 44.03125 40.421875 43.996094 40.4375 43.898438 Z M 40.082031 43.816406 C 40.046875 43.921875 40.046875 43.933594 39.96875 44.03125 C 39.71875 44.339844 39.488281 44.429688 39.332031 44.429688 C 39.046875 44.429688 38.96875 44.117188 38.96875 43.898438 C 38.96875 43.613281 39.144531 42.921875 39.277344 42.65625 C 39.453125 42.328125 39.703125 42.117188 39.933594 42.117188 C 40.296875 42.117188 40.375 42.578125 40.375 42.613281 C 40.375 42.648438 40.367188 42.683594 40.359375 42.710938 Z M 40.082031 43.816406 "
       id="path20" />
    <path
       style=" stroke:none;fill-rule:nonzero;fill:rgb(0%,0%,0%);fill-opacity:1;"
       d="M 41.550781 81.636719 C 41.644531 81.636719 41.753906 81.636719 41.753906 81.523438 C 41.753906 81.414063 41.644531 81.414063 41.550781 81.414063 L 38.492188 81.414063 C 38.394531 81.414063 38.296875 81.414063 38.296875 81.523438 C 38.296875 81.636719 38.394531 81.636719 38.492188 81.636719 Z M 41.550781 81.636719 "
       id="path22" />
    <path
       style=" stroke:none;fill-rule:nonzero;fill:rgb(0%,0%,0%);fill-opacity:1;"
       d="M 45.136719 79.078125 C 45.136719 79.078125 45.136719 79.015625 45.066406 79.015625 C 44.976563 79.015625 44.445313 79.066406 44.347656 79.078125 C 44.304688 79.085938 44.265625 79.113281 44.265625 79.183594 C 44.265625 79.253906 44.320313 79.253906 44.398438 79.253906 C 44.675781 79.253906 44.683594 79.289063 44.683594 79.351563 L 44.664063 79.46875 L 44.328125 80.804688 C 44.222656 80.59375 44.0625 80.441406 43.808594 80.441406 C 43.152344 80.441406 42.453125 81.273438 42.453125 82.097656 C 42.453125 82.628906 42.761719 83 43.195313 83 C 43.3125 83 43.59375 82.976563 43.929688 82.574219 C 43.976563 82.816406 44.179688 83 44.445313 83 C 44.648438 83 44.773438 82.867188 44.871094 82.691406 C 44.957031 82.488281 45.039063 82.140625 45.039063 82.132813 C 45.039063 82.070313 44.984375 82.070313 44.96875 82.070313 C 44.914063 82.070313 44.90625 82.097656 44.886719 82.175781 C 44.789063 82.539063 44.691406 82.878906 44.460938 82.878906 C 44.304688 82.878906 44.292969 82.726563 44.292969 82.621094 C 44.292969 82.480469 44.304688 82.441406 44.320313 82.347656 Z M 43.964844 82.265625 C 43.929688 82.371094 43.929688 82.382813 43.851563 82.480469 C 43.601563 82.789063 43.371094 82.878906 43.214844 82.878906 C 42.929688 82.878906 42.851563 82.566406 42.851563 82.347656 C 42.851563 82.0625 43.027344 81.371094 43.160156 81.105469 C 43.335938 80.777344 43.585938 80.566406 43.816406 80.566406 C 44.179688 80.566406 44.257813 81.027344 44.257813 81.0625 C 44.257813 81.097656 44.25 81.132813 44.242188 81.160156 Z M 43.964844 82.265625 "
       id="path24" />
    <path
       style=" stroke:none;fill-rule:nonzero;fill:rgb(0%,0%,0%);fill-opacity:1;"
       d="M 25.679688 58.183594 C 25.910156 58.777344 26.183594 59.636719 26.273438 59.769531 C 26.359375 59.894531 26.414063 59.894531 26.574219 59.894531 L 26.699219 59.894531 C 26.75 59.886719 26.761719 59.859375 26.761719 59.839844 C 26.761719 59.824219 26.742188 59.804688 26.722656 59.789063 C 26.671875 59.726563 26.636719 59.636719 26.601563 59.53125 L 25.449219 56.316406 C 25.324219 55.988281 25.023438 55.90625 24.757813 55.90625 C 24.730469 55.90625 24.652344 55.90625 24.652344 55.96875 C 24.652344 56.015625 24.695313 56.03125 24.703125 56.03125 C 24.890625 56.058594 24.933594 56.09375 25.078125 56.484375 L 25.617188 58.015625 L 24.058594 59.566406 C 23.996094 59.636719 23.960938 59.664063 23.960938 59.742188 C 23.960938 59.839844 24.039063 59.902344 24.128906 59.902344 C 24.21875 59.902344 24.269531 59.839844 24.316406 59.789063 Z M 25.679688 58.183594 "
       id="path26" />
    <path
       style=" stroke:none;fill-rule:nonzero;fill:rgb(0%,0%,0%);fill-opacity:1;"
       d="M 88.34375 64.125 C 88.378906 63.980469 88.511719 63.460938 88.902344 63.460938 C 88.929688 63.460938 89.070313 63.460938 89.1875 63.53125 C 89.027344 63.566406 88.921875 63.699219 88.921875 63.839844 C 88.921875 63.929688 88.984375 64.035156 89.132813 64.035156 C 89.257813 64.035156 89.433594 63.9375 89.433594 63.707031 C 89.433594 63.414063 89.105469 63.335938 88.910156 63.335938 C 88.585938 63.335938 88.390625 63.636719 88.320313 63.761719 C 88.175781 63.386719 87.875 63.335938 87.707031 63.335938 C 87.121094 63.335938 86.796875 64.0625 86.796875 64.203125 C 86.796875 64.265625 86.855469 64.265625 86.867188 64.265625 C 86.910156 64.265625 86.929688 64.246094 86.9375 64.203125 C 87.132813 63.601563 87.503906 63.460938 87.699219 63.460938 C 87.804688 63.460938 88 63.511719 88 63.839844 C 88 64.015625 87.902344 64.390625 87.699219 65.1875 C 87.609375 65.53125 87.40625 65.769531 87.15625 65.769531 C 87.121094 65.769531 87 65.769531 86.875 65.699219 C 87.015625 65.664063 87.140625 65.550781 87.140625 65.390625 C 87.140625 65.238281 87.015625 65.195313 86.9375 65.195313 C 86.757813 65.195313 86.625 65.335938 86.625 65.523438 C 86.625 65.78125 86.902344 65.894531 87.148438 65.894531 C 87.53125 65.894531 87.734375 65.496094 87.742188 65.46875 C 87.8125 65.671875 88.015625 65.894531 88.355469 65.894531 C 88.9375 65.894531 89.257813 65.167969 89.257813 65.027344 C 89.257813 64.964844 89.214844 64.964844 89.195313 64.964844 C 89.140625 64.964844 89.132813 64.992188 89.117188 65.027344 C 88.929688 65.636719 88.550781 65.769531 88.371094 65.769531 C 88.148438 65.769531 88.0625 65.59375 88.0625 65.398438 C 88.0625 65.273438 88.089844 65.152344 88.148438 64.902344 Z M 88.34375 64.125 "
       id="path28" />
    <path
       style=" stroke:none;fill-rule:nonzero;fill:rgb(0%,0%,0%);fill-opacity:1;"
       d="M 32.574219 6.78125 C 32.875 6.453125 33.042969 6.308594 33.246094 6.132813 C 33.246094 6.132813 33.589844 5.832031 33.796875 5.628906 C 34.335938 5.105469 34.460938 4.832031 34.460938 4.804688 C 34.460938 4.75 34.40625 4.75 34.398438 4.75 C 34.351563 4.75 34.34375 4.761719 34.308594 4.8125 C 34.140625 5.085938 34.027344 5.175781 33.894531 5.175781 C 33.75 5.175781 33.6875 5.085938 33.601563 4.992188 C 33.492188 4.867188 33.398438 4.75 33.210938 4.75 C 32.785156 4.75 32.527344 5.273438 32.527344 5.398438 C 32.527344 5.425781 32.546875 5.460938 32.589844 5.460938 C 32.644531 5.460938 32.652344 5.433594 32.671875 5.398438 C 32.777344 5.132813 33.105469 5.132813 33.148438 5.132813 C 33.265625 5.132813 33.371094 5.167969 33.503906 5.210938 C 33.734375 5.300781 33.796875 5.300781 33.9375 5.300781 C 33.734375 5.539063 33.265625 5.945313 33.15625 6.035156 L 32.644531 6.515625 C 32.261719 6.894531 32.058594 7.214844 32.058594 7.257813 C 32.058594 7.3125 32.121094 7.3125 32.128906 7.3125 C 32.175781 7.3125 32.183594 7.300781 32.21875 7.242188 C 32.351563 7.035156 32.519531 6.886719 32.707031 6.886719 C 32.828125 6.886719 32.890625 6.9375 33.035156 7.097656 C 33.121094 7.222656 33.226563 7.3125 33.386719 7.3125 C 33.953125 7.3125 34.28125 6.59375 34.28125 6.441406 C 34.28125 6.417969 34.257813 6.382813 34.210938 6.382813 C 34.160156 6.382813 34.148438 6.417969 34.132813 6.460938 C 34 6.824219 33.636719 6.929688 33.449219 6.929688 C 33.34375 6.929688 33.238281 6.894531 33.121094 6.859375 C 32.925781 6.789063 32.839844 6.761719 32.722656 6.761719 C 32.714844 6.761719 32.625 6.761719 32.574219 6.78125 Z M 32.574219 6.78125 "
       id="path30" />
  </g>
</svg>
